<svg viewBox="-100 -100 10200 10200" xmlns="http://www.w3.org/2000/svg">
<path d="M0,0 l10000,0 l0,10000 l-10000,0 z" fill="white"/>
<path d="M668,1 l2311,0 l0,865 l-2311,0 z" fill="#3700ff" stroke="black" stroke-width="5"/>
<path d="M5054,5609 l1920,0 l0,1701 l-1920,0 z" fill="#ca00ff" stroke="black" stroke-width="5"/>
<path d="M4421,1 l1845,0 l0,573 l-1845,0 z" fill="#8900ff" stroke="black" stroke-width="5"/>
<path d="M5394,2473 l643,0 l0,685 l-643,0 z" fill="#b800ff" stroke="black" stroke-width="5"/>
<path d="M6039,2724 l963,0 l0,956 l-963,0 z" fill="#ff00fe" stroke="black" stroke-width="5"/>
<path d="M3543,597 l1302,0 l0,1911 l-1302,0 z" fill="#ff00fe" stroke="black" stroke-width="5"/>
<path d="M7546,9157 l603,0 l0,730 l-603,0 z" fill="#ff00fe" stroke="black" stroke-width="5"/>
<path d="M7295,120 l841,0 l0,697 l-841,0 z" fill="#ff00fe" stroke="black" stroke-width="5"/>
<path d="M8150,4627 l1647,0 l0,1096 l-1647,0 z" fill="#fe00ff" stroke="black" stroke-width="5"/>
<path d="M6701,8713 l787,0 l0,647 l-787,0 z" fill="#fe00ff" stroke="black" stroke-width="5"/>
<path d="M7028,1687 l1127,0 l0,1383 l-1127,0 z" fill="#ff00fe" stroke="black" stroke-width="5"/>
<path d="M5,4518 l1467,0 l0,1233 l-1467,0 z" fill="#ff00fe" stroke="black" stroke-width="5"/>
<path d="M7152,3974 l167,0 l0,210 l-167,0 z" fill="#fe00ff" stroke="black" stroke-width="5"/>
<path d="M5167,2101 l392,0 l0,200 l-392,0 z" fill="#fe00ff" stroke="black" stroke-width="5"/>
<path d="M4859,577 l1072,0 l0,906 l-1072,0 z" fill="#fe00ff" stroke="black" stroke-width="5"/>
<path d="M2687,4567 l1399,0 l0,1338 l-1399,0 z" fill="#fe00ff" stroke="black" stroke-width="5"/>
<path d="M4616,3197 l139,0 l0,207 l-139,0 z" fill="#fe00ff" stroke="black" stroke-width="5"/>
<path d="M4826,7311 l1667,0 l0,1004 l-1667,0 z" fill="#8100ff" stroke="black" stroke-width="5"/>
<path d="M1773,9488 l1443,0 l0,509 l-1443,0 z" fill="#6000ff" stroke="black" stroke-width="5"/>
<path d="M8877,3496 l614,0 l0,545 l-614,0 z" fill="#ff00fe" stroke="black" stroke-width="5"/>
<path d="M8312,8530 l1110,0 l0,997 l-1110,0 z" fill="#fe00ff" stroke="black" stroke-width="5"/>
<path d="M2668,1369 l869,0 l0,771 l-869,0 z" fill="#ff00fe" stroke="black" stroke-width="5"/>
<path d="M6397,4198 l977,0 l0,931 l-977,0 z" fill="#6500ff" stroke="black" stroke-width="5"/>
<path d="M7621,7668 l1884,0 l0,529 l-1884,0 z" fill="#9c00ff" stroke="black" stroke-width="5"/>
<path d="M8125,4050 l1112,0 l0,575 l-1112,0 z" fill="#0c00ff" stroke="black" stroke-width="5"/>
<path d="M2356,8772 l1226,0 l0,715 l-1226,0 z" fill="#f800ff" stroke="black" stroke-width="5"/>
<path d="M7374,3821 l740,0 l0,1278 l-740,0 z" fill="#fe00ff" stroke="black" stroke-width="5"/>
<path d="M8870,48 l1071,0 l0,532 l-1071,0 z" fill="#fe00ff" stroke="black" stroke-width="5"/>
<path d="M6441,917 l1023,0 l0,770 l-1023,0 z" fill="#fe00ff" stroke="black" stroke-width="5"/>
<path d="M1066,1871 l1127,0 l0,836 l-1127,0 z" fill="#fe00ff" stroke="black" stroke-width="5"/>
<path d="M52,7765 l739,0 l0,961 l-739,0 z" fill="#ff00fe" stroke="black" stroke-width="5"/>
<path d="M2279,3672 l1953,0 l0,890 l-1953,0 z" fill="#6c00ff" stroke="black" stroke-width="5"/>
<path d="M3583,8021 l1210,0 l0,1598 l-1210,0 z" fill="#bd00ff" stroke="black" stroke-width="5"/>
<path d="M5394,3158 l644,0 l0,667 l-644,0 z" fill="#2e00ff" stroke="black" stroke-width="5"/>
<path d="M4242,3854 l2149,0 l0,1754 l-2149,0 z" fill="#a600ff" stroke="black" stroke-width="5"/>
<path d="M2257,6601 l2534,0 l0,1412 l-2534,0 z" fill="#f900ff" stroke="black" stroke-width="5"/>
<path d="M7646,8200 l1615,0 l0,299 l-1615,0 z" fill="#0a00ff" stroke="black" stroke-width="5"/>
<path d="M943,3411 l545,0 l0,466 l-545,0 z" fill="#fe00ff" stroke="black" stroke-width="5"/>
<path d="M8,6892 l747,0 l0,867 l-747,0 z" fill="#fe00ff" stroke="black" stroke-width="5"/>
<path d="M17,3877 l1840,0 l0,629 l-1840,0 z" fill="#b600ff" stroke="black" stroke-width="5"/>
<path d="M8009,6597 l1139,0 l0,1070 l-1139,0 z" fill="#ff00fe" stroke="black" stroke-width="5"/>
<path d="M4337,5613 l670,0 l0,986 l-670,0 z" fill="#ff00fe" stroke="black" stroke-width="5"/>
<path d="M1648,2708 l2664,0 l0,957 l-2664,0 z" fill="#fd00ff" stroke="black" stroke-width="5"/>
<path d="M4759,2701 l634,0 l0,1153 l-634,0 z" fill="#ca00ff" stroke="black" stroke-width="5"/>
<path d="M919,872 l1745,0 l0,999 l-1745,0 z" fill="#2300ff" stroke="black" stroke-width="5"/>
<path d="M2335,8018 l1244,0 l0,749 l-1244,0 z" fill="#0900ff" stroke="black" stroke-width="5"/>
<path d="M4802,8323 l1899,0 l0,1466 l-1899,0 z" fill="#ce00ff" stroke="black" stroke-width="5"/>
<path d="M7489,8499 l823,0 l0,649 l-823,0 z" fill="#0f00ff" stroke="black" stroke-width="5"/>
<path d="M2144,9230 l182,0 l0,131 l-182,0 z" fill="#ff00fe" stroke="black" stroke-width="5"/>
<path d="M4312,6176 l1,0 l0,1 l-1,0 z" fill="#0000ff" stroke="black" stroke-width="5"/>
<path d="M1879,330 l60,0 l0,60 l-60,0 z" fill="green"/>
<path d="M1909,360 l-85.5,73.5" stroke="black" stroke-width="5"/>
<path d="M5780,7061 l60,0 l0,60 l-60,0 z" fill="green"/>
<path d="M5810,7091 l204,-631.5" stroke="black" stroke-width="5"/>
<path d="M5377,392 l60,0 l0,60 l-60,0 z" fill="green"/>
<path d="M5407,422 l-63.5,-134.5" stroke="black" stroke-width="5"/>
<path d="M5737,3110 l60,0 l0,60 l-60,0 z" fill="green"/>
<path d="M5767,3140 l-51.5,-324.5" stroke="black" stroke-width="5"/>
<path d="M6629,3204 l60,0 l0,60 l-60,0 z" fill="green"/>
<path d="M6659,3234 l-138.5,-32" stroke="black" stroke-width="5"/>
<path d="M4176,1590 l60,0 l0,60 l-60,0 z" fill="green"/>
<path d="M4206,1620 l-12,-67.5" stroke="black" stroke-width="5"/>
<path d="M7823,9462 l60,0 l0,60 l-60,0 z" fill="green"/>
<path d="M7853,9492 l-5.5,30" stroke="black" stroke-width="5"/>
<path d="M7845,402 l60,0 l0,60 l-60,0 z" fill="green"/>
<path d="M7875,432 l-159.5,36.5" stroke="black" stroke-width="5"/>
<path d="M9018,5029 l60,0 l0,60 l-60,0 z" fill="green"/>
<path d="M9048,5059 l-74.5,116" stroke="black" stroke-width="5"/>
<path d="M7262,9040 l60,0 l0,60 l-60,0 z" fill="green"/>
<path d="M7292,9070 l-197.5,-33.5" stroke="black" stroke-width="5"/>
<path d="M7603,2466 l60,0 l0,60 l-60,0 z" fill="green"/>
<path d="M7633,2496 l-41.5,-117.5" stroke="black" stroke-width="5"/>
<path d="M391,4805 l60,0 l0,60 l-60,0 z" fill="green"/>
<path d="M421,4835 l317.5,299.5" stroke="black" stroke-width="5"/>
<path d="M7134,4079 l60,0 l0,60 l-60,0 z" fill="green"/>
<path d="M7164,4109 l71.5,-30" stroke="black" stroke-width="5"/>
<path d="M5326,2241 l60,0 l0,60 l-60,0 z" fill="green"/>
<path d="M5356,2271 l7,-70" stroke="black" stroke-width="5"/>
<path d="M5231,547 l60,0 l0,60 l-60,0 z" fill="green"/>
<path d="M5261,577 l134,453" stroke="black" stroke-width="5"/>
<path d="M3516,5195 l60,0 l0,60 l-60,0 z" fill="green"/>
<path d="M3546,5225 l-159.5,11" stroke="black" stroke-width="5"/>
<path d="M4637,3356 l60,0 l0,60 l-60,0 z" fill="green"/>
<path d="M4667,3386 l18.5,-85.5" stroke="black" stroke-width="5"/>
<path d="M5566,7866 l60,0 l0,60 l-60,0 z" fill="green"/>
<path d="M5596,7896 l63.5,-83" stroke="black" stroke-width="5"/>
<path d="M2488,9783 l60,0 l0,60 l-60,0 z" fill="green"/>
<path d="M2518,9813 l-23.5,-70.5" stroke="black" stroke-width="5"/>
<path d="M8972,3883 l60,0 l0,60 l-60,0 z" fill="green"/>
<path d="M9002,3913 l182,-144.5" stroke="black" stroke-width="5"/>
<path d="M8544,8917 l60,0 l0,60 l-60,0 z" fill="green"/>
<path d="M8574,8947 l293,81.5" stroke="black" stroke-width="5"/>
<path d="M3088,1743 l60,0 l0,60 l-60,0 z" fill="green"/>
<path d="M3118,1773 l-15.5,-18.5" stroke="black" stroke-width="5"/>
<path d="M7110,4358 l60,0 l0,60 l-60,0 z" fill="green"/>
<path d="M7140,4388 l-254.5,275.5" stroke="black" stroke-width="5"/>
<path d="M8514,8166 l60,0 l0,60 l-60,0 z" fill="green"/>
<path d="M8544,8196 l19,-263.5" stroke="black" stroke-width="5"/>
<path d="M8547,4307 l60,0 l0,60 l-60,0 z" fill="green"/>
<path d="M8577,4337 l104,0.5" stroke="black" stroke-width="5"/>
<path d="M3125,9138 l60,0 l0,60 l-60,0 z" fill="green"/>
<path d="M3155,9168 l-186,-38.5" stroke="black" stroke-width="5"/>
<path d="M7793,4374 l60,0 l0,60 l-60,0 z" fill="green"/>
<path d="M7823,4404 l-79,56" stroke="black" stroke-width="5"/>
<path d="M9421,80 l60,0 l0,60 l-60,0 z" fill="green"/>
<path d="M9451,110 l-45.5,204" stroke="black" stroke-width="5"/>
<path d="M7001,1359 l60,0 l0,60 l-60,0 z" fill="green"/>
<path d="M7031,1389 l-78.5,-87" stroke="black" stroke-width="5"/>
<path d="M1811,2307 l60,0 l0,60 l-60,0 z" fill="green"/>
<path d="M1841,2337 l-211.5,-48" stroke="black" stroke-width="5"/>
<path d="M46,8334 l60,0 l0,60 l-60,0 z" fill="green"/>
<path d="M76,8364 l345.5,-118.5" stroke="black" stroke-width="5"/>
<path d="M3513,3901 l60,0 l0,60 l-60,0 z" fill="green"/>
<path d="M3543,3931 l-287.5,186" stroke="black" stroke-width="5"/>
<path d="M3897,8798 l60,0 l0,60 l-60,0 z" fill="green"/>
<path d="M3927,8828 l261,-8" stroke="black" stroke-width="5"/>
<path d="M5641,3275 l60,0 l0,60 l-60,0 z" fill="green"/>
<path d="M5671,3305 l45,186.5" stroke="black" stroke-width="5"/>
<path d="M5512,4557 l60,0 l0,60 l-60,0 z" fill="green"/>
<path d="M5542,4587 l-225.5,144" stroke="black" stroke-width="5"/>
<path d="M4000,7702 l60,0 l0,60 l-60,0 z" fill="green"/>
<path d="M4030,7732 l-506,-425" stroke="black" stroke-width="5"/>
<path d="M8545,8170 l60,0 l0,60 l-60,0 z" fill="green"/>
<path d="M8575,8200 l-121.5,149.5" stroke="black" stroke-width="5"/>
<path d="M1109,3709 l60,0 l0,60 l-60,0 z" fill="green"/>
<path d="M1139,3739 l76.5,-95" stroke="black" stroke-width="5"/>
<path d="M20,7385 l60,0 l0,60 l-60,0 z" fill="green"/>
<path d="M50,7415 l331.5,-89.5" stroke="black" stroke-width="5"/>
<path d="M904,4026 l60,0 l0,60 l-60,0 z" fill="green"/>
<path d="M934,4056 l3,135.5" stroke="black" stroke-width="5"/>
<path d="M8771,7148 l60,0 l0,60 l-60,0 z" fill="green"/>
<path d="M8801,7178 l-222.5,-46" stroke="black" stroke-width="5"/>
<path d="M4469,6177 l60,0 l0,60 l-60,0 z" fill="green"/>
<path d="M4499,6207 l173,-101" stroke="black" stroke-width="5"/>
<path d="M3066,3345 l60,0 l0,60 l-60,0 z" fill="green"/>
<path d="M3096,3375 l-116,-188.5" stroke="black" stroke-width="5"/>
<path d="M5222,3251 l60,0 l0,60 l-60,0 z" fill="green"/>
<path d="M5252,3281 l-176,-3.5" stroke="black" stroke-width="5"/>
<path d="M2217,1416 l60,0 l0,60 l-60,0 z" fill="green"/>
<path d="M2247,1446 l-455.5,-74.5" stroke="black" stroke-width="5"/>
<path d="M3317,8471 l60,0 l0,60 l-60,0 z" fill="green"/>
<path d="M3347,8501 l-390,-108.5" stroke="black" stroke-width="5"/>
<path d="M5761,8570 l60,0 l0,60 l-60,0 z" fill="green"/>
<path d="M5791,8600 l-39.5,456" stroke="black" stroke-width="5"/>
<path d="M8003,8962 l60,0 l0,60 l-60,0 z" fill="green"/>
<path d="M8033,8992 l-132.5,-168.5" stroke="black" stroke-width="5"/>
<path d="M2267,9224 l60,0 l0,60 l-60,0 z" fill="green"/>
<path d="M2297,9254 l-62,41.5" stroke="black" stroke-width="5"/>
<path d="M4282,6146 l60,0 l0,60 l-60,0 z" fill="green"/>
<path d="M4312,6176 l0.5,0.5" stroke="black" stroke-width="5"/>
<text font-size="200" text-anchor="middle" x="1823.5" y="503.5">
0
</text>
<text font-size="200" text-anchor="middle" x="6014" y="6529.5">
1
</text>
<text font-size="200" text-anchor="middle" x="5343.5" y="357.5">
2
</text>
<text font-size="200" text-anchor="middle" x="5715.5" y="2885.5">
3
</text>
<text font-size="200" text-anchor="middle" x="6520.5" y="3272">
4
</text>
<text font-size="200" text-anchor="middle" x="4194" y="1622.5">
5
</text>
<text font-size="200" text-anchor="middle" x="7847.5" y="9592">
6
</text>
<text font-size="200" text-anchor="middle" x="7715.5" y="538.5">
7
</text>
<text font-size="200" text-anchor="middle" x="8973.5" y="5245">
8
</text>
<text font-size="200" text-anchor="middle" x="7094.5" y="9106.5">
9
</text>
<text font-size="200" text-anchor="middle" x="7591.5" y="2448.5">
10
</text>
<text font-size="200" text-anchor="middle" x="738.5" y="5204.5">
11
</text>
<text font-size="200" text-anchor="middle" x="7235.5" y="4149">
12
</text>
<text font-size="200" text-anchor="middle" x="5363" y="2271">
13
</text>
<text font-size="200" text-anchor="middle" x="5395" y="1100">
14
</text>
<text font-size="200" text-anchor="middle" x="3386.5" y="5306">
15
</text>
<text font-size="200" text-anchor="middle" x="4685.5" y="3370.5">
16
</text>
<text font-size="200" text-anchor="middle" x="5659.5" y="7883">
17
</text>
<text font-size="200" text-anchor="middle" x="2494.5" y="9812.5">
18
</text>
<text font-size="200" text-anchor="middle" x="9184" y="3838.5">
19
</text>
<text font-size="200" text-anchor="middle" x="8867" y="9098.5">
20
</text>
<text font-size="200" text-anchor="middle" x="3102.5" y="1824.5">
21
</text>
<text font-size="200" text-anchor="middle" x="6885.5" y="4733.5">
22
</text>
<text font-size="200" text-anchor="middle" x="8563" y="8002.5">
23
</text>
<text font-size="200" text-anchor="middle" x="8681" y="4407.5">
24
</text>
<text font-size="200" text-anchor="middle" x="2969" y="9199.5">
25
</text>
<text font-size="200" text-anchor="middle" x="7744" y="4530">
26
</text>
<text font-size="200" text-anchor="middle" x="9405.5" y="384">
27
</text>
<text font-size="200" text-anchor="middle" x="6952.5" y="1372">
28
</text>
<text font-size="200" text-anchor="middle" x="1629.5" y="2359">
29
</text>
<text font-size="200" text-anchor="middle" x="421.5" y="8315.5">
30
</text>
<text font-size="200" text-anchor="middle" x="3255.5" y="4187">
31
</text>
<text font-size="200" text-anchor="middle" x="4188" y="8890">
32
</text>
<text font-size="200" text-anchor="middle" x="5716" y="3561.5">
33
</text>
<text font-size="200" text-anchor="middle" x="5316.5" y="4801">
34
</text>
<text font-size="200" text-anchor="middle" x="3524" y="7377">
35
</text>
<text font-size="200" text-anchor="middle" x="8453.5" y="8419.5">
36
</text>
<text font-size="200" text-anchor="middle" x="1215.5" y="3714">
37
</text>
<text font-size="200" text-anchor="middle" x="381.5" y="7395.5">
38
</text>
<text font-size="200" text-anchor="middle" x="937" y="4261.5">
39
</text>
<text font-size="200" text-anchor="middle" x="8578.5" y="7202">
40
</text>
<text font-size="200" text-anchor="middle" x="4672" y="6176">
41
</text>
<text font-size="200" text-anchor="middle" x="2980" y="3256.5">
42
</text>
<text font-size="200" text-anchor="middle" x="5076" y="3347.5">
43
</text>
<text font-size="200" text-anchor="middle" x="1791.5" y="1441.5">
44
</text>
<text font-size="200" text-anchor="middle" x="2957" y="8462.5">
45
</text>
<text font-size="200" text-anchor="middle" x="5751.5" y="9126">
46
</text>
<text font-size="200" text-anchor="middle" x="7900.5" y="8893.5">
47
</text>
<text font-size="200" text-anchor="middle" x="2235" y="9365.5">
48
</text>
<text font-size="200" text-anchor="middle" x="4312.5" y="6246.5">
49
</text>
</svg>