<svg viewBox="-100 -100 10200 10200" xmlns="http://www.w3.org/2000/svg">
<path d="M0,0 l10000,0 l0,10000 l-10000,0 z" fill="white"/>
<path d="M1,1 l3531,0 l0,920 l-3531,0 z" fill="#8000ff" stroke="black" stroke-width="5"/>
<path d="M5034,5641 l2867,0 l0,1626 l-2867,0 z" fill="#ff00fe" stroke="black" stroke-width="5"/>
<path d="M3535,2 l3539,0 l0,568 l-3539,0 z" fill="#ff00fe" stroke="black" stroke-width="5"/>
<path d="M5436,2089 l646,0 l0,1055 l-646,0 z" fill="#ff00fe" stroke="black" stroke-width="5"/>
<path d="M6102,2679 l917,0 l0,1004 l-917,0 z" fill="#ff00fe" stroke="black" stroke-width="5"/>
<path d="M3539,579 l1282,0 l0,1940 l-1282,0 z" fill="#fe00ff" stroke="black" stroke-width="5"/>
<path d="M7470,9278 l691,0 l0,637 l-691,0 z" fill="#ff00fe" stroke="black" stroke-width="5"/>
<path d="M7313,100 l835,0 l0,702 l-835,0 z" fill="#ff00fe" stroke="black" stroke-width="5"/>
<path d="M8184,4692 l1675,0 l0,1078 l-1675,0 z" fill="#ff00fe" stroke="black" stroke-width="5"/>
<path d="M6716,8687 l749,0 l0,680 l-749,0 z" fill="#ff00fe" stroke="black" stroke-width="5"/>
<path d="M7028,1687 l1127,0 l0,1383 l-1127,0 z" fill="#ff00fe" stroke="black" stroke-width="5"/>
<path d="M5,4518 l1467,0 l0,1233 l-1467,0 z" fill="#ff00fe" stroke="black" stroke-width="5"/>
<path d="M6729,4033 l452,0 l0,77 l-452,0 z" fill="#fe00ff" stroke="black" stroke-width="5"/>
<path d="M5033,2076 l377,0 l0,208 l-377,0 z" fill="#fe00ff" stroke="black" stroke-width="5"/>
<path d="M4940,577 l1048,0 l0,927 l-1048,0 z" fill="#ff00fe" stroke="black" stroke-width="5"/>
<path d="M2654,4665 l1475,0 l0,1269 l-1475,0 z" fill="#fe00ff" stroke="black" stroke-width="5"/>
<path d="M4612,2892 l56,0 l0,510 l-56,0 z" fill="#fe00ff" stroke="black" stroke-width="5"/>
<path d="M4854,7268 l2144,0 l0,1172 l-2144,0 z" fill="#dc00ff" stroke="black" stroke-width="5"/>
<path d="M221,9482 l3383,0 l0,514 l-3383,0 z" fill="#fe00ff" stroke="black" stroke-width="5"/>
<path d="M8850,3434 l651,0 l0,514 l-651,0 z" fill="#fe00ff" stroke="black" stroke-width="5"/>
<path d="M8356,8604 l1080,0 l0,1025 l-1080,0 z" fill="#fe00ff" stroke="black" stroke-width="5"/>
<path d="M2730,1306 l808,0 l0,829 l-808,0 z" fill="#fe00ff" stroke="black" stroke-width="5"/>
<path d="M6431,4116 l956,0 l0,1523 l-956,0 z" fill="#c800ff" stroke="black" stroke-width="5"/>
<path d="M7004,7614 l2989,0 l0,583 l-2989,0 z" fill="#ff00fe" stroke="black" stroke-width="5"/>
<path d="M8100,3948 l1893,0 l0,742 l-1893,0 z" fill="#3a00ff" stroke="black" stroke-width="5"/>
<path d="M2317,8757 l1286,0 l0,724 l-1286,0 z" fill="#fd00ff" stroke="black" stroke-width="5"/>
<path d="M7388,3761 l709,0 l0,1334 l-709,0 z" fill="#fe00ff" stroke="black" stroke-width="5"/>
<path d="M8740,57 l1228,0 l0,464 l-1228,0 z" fill="#fe00ff" stroke="black" stroke-width="5"/>
<path d="M6410,881 l1097,0 l0,718 l-1097,0 z" fill="#fe00ff" stroke="black" stroke-width="5"/>
<path d="M785,2048 l1426,0 l0,661 l-1426,0 z" fill="#ff00fe" stroke="black" stroke-width="5"/>
<path d="M34,7808 l729,0 l0,974 l-729,0 z" fill="#fe00ff" stroke="black" stroke-width="5"/>
<path d="M1917,3657 l2223,0 l0,1005 l-2223,0 z" fill="#9f00ff" stroke="black" stroke-width="5"/>
<path d="M3607,7973 l1201,0 l0,2024 l-1201,0 z" fill="#ed00ff" stroke="black" stroke-width="5"/>
<path d="M5413,3144 l687,0 l0,724 l-687,0 z" fill="#3d00ff" stroke="black" stroke-width="5"/>
<path d="M4140,3869 l2289,0 l0,1766 l-2289,0 z" fill="#b600ff" stroke="black" stroke-width="5"/>
<path d="M1889,6635 l2964,0 l0,1337 l-2964,0 z" fill="#ff00fe" stroke="black" stroke-width="5"/>
<path d="M7001,8200 l2992,0 l0,404 l-2992,0 z" fill="#3e00ff" stroke="black" stroke-width="5"/>
<path d="M706,3392 l730,0 l0,348 l-730,0 z" fill="#ff00fe" stroke="black" stroke-width="5"/>
<path d="M39,6902 l838,0 l0,773 l-838,0 z" fill="#ff00fe" stroke="black" stroke-width="5"/>
<path d="M9,3742 l1896,0 l0,775 l-1896,0 z" fill="#ea00ff" stroke="black" stroke-width="5"/>
<path d="M7982,6608 l1215,0 l0,1003 l-1215,0 z" fill="#ff00fe" stroke="black" stroke-width="5"/>
<path d="M4349,5640 l681,0 l0,970 l-681,0 z" fill="#ff00fe" stroke="black" stroke-width="5"/>
<path d="M1537,2713 l2862,0 l0,942 l-2862,0 z" fill="#ff00fe" stroke="black" stroke-width="5"/>
<path d="M4669,2522 l744,0 l0,1336 l-744,0 z" fill="#fd00ff" stroke="black" stroke-width="5"/>
<path d="M12,922 l2710,0 l0,1117 l-2710,0 z" fill="#6100ff" stroke="black" stroke-width="5"/>
<path d="M763,7974 l2837,0 l0,781 l-2837,0 z" fill="#3200ff" stroke="black" stroke-width="5"/>
<path d="M4811,8440 l1904,0 l0,1554 l-1904,0 z" fill="#db00ff" stroke="black" stroke-width="5"/>
<path d="M7467,8606 l888,0 l0,672 l-888,0 z" fill="#1300ff" stroke="black" stroke-width="5"/>
<path d="M1519,9224 l779,0 l0,31 l-779,0 z" fill="#ff00fe" stroke="black" stroke-width="5"/>
<path d="M4312,6176 l1,0 l0,1 l-1,0 z" fill="#0000ff" stroke="black" stroke-width="5"/>
<path d="M1879,330 l60,0 l0,60 l-60,0 z" fill="green"/>
<path d="M1909,360 l-142.5,101" stroke="black" stroke-width="5"/>
<path d="M5780,7061 l60,0 l0,60 l-60,0 z" fill="green"/>
<path d="M5810,7091 l657.5,-637" stroke="black" stroke-width="5"/>
<path d="M5377,392 l60,0 l0,60 l-60,0 z" fill="green"/>
<path d="M5407,422 l-102.5,-136" stroke="black" stroke-width="5"/>
<path d="M5737,3110 l60,0 l0,60 l-60,0 z" fill="green"/>
<path d="M5767,3140 l-8,-523.5" stroke="black" stroke-width="5"/>
<path d="M6629,3204 l60,0 l0,60 l-60,0 z" fill="green"/>
<path d="M6659,3234 l-98.5,-53" stroke="black" stroke-width="5"/>
<path d="M4176,1590 l60,0 l0,60 l-60,0 z" fill="green"/>
<path d="M4206,1620 l-26,-71" stroke="black" stroke-width="5"/>
<path d="M7823,9462 l60,0 l0,60 l-60,0 z" fill="green"/>
<path d="M7853,9492 l-37.5,104.5" stroke="black" stroke-width="5"/>
<path d="M7845,402 l60,0 l0,60 l-60,0 z" fill="green"/>
<path d="M7875,432 l-144.5,19" stroke="black" stroke-width="5"/>
<path d="M9018,5029 l60,0 l0,60 l-60,0 z" fill="green"/>
<path d="M9048,5059 l-26.5,172" stroke="black" stroke-width="5"/>
<path d="M7262,9040 l60,0 l0,60 l-60,0 z" fill="green"/>
<path d="M7292,9070 l-201.5,-43" stroke="black" stroke-width="5"/>
<path d="M7603,2466 l60,0 l0,60 l-60,0 z" fill="green"/>
<path d="M7633,2496 l-41.5,-117.5" stroke="black" stroke-width="5"/>
<path d="M391,4805 l60,0 l0,60 l-60,0 z" fill="green"/>
<path d="M421,4835 l317.5,299.5" stroke="black" stroke-width="5"/>
<path d="M7134,4079 l60,0 l0,60 l-60,0 z" fill="green"/>
<path d="M7164,4109 l-209,-37.5" stroke="black" stroke-width="5"/>
<path d="M5326,2241 l60,0 l0,60 l-60,0 z" fill="green"/>
<path d="M5356,2271 l-134.5,-91" stroke="black" stroke-width="5"/>
<path d="M5231,547 l60,0 l0,60 l-60,0 z" fill="green"/>
<path d="M5261,577 l203,463.5" stroke="black" stroke-width="5"/>
<path d="M3516,5195 l60,0 l0,60 l-60,0 z" fill="green"/>
<path d="M3546,5225 l-154.5,74.5" stroke="black" stroke-width="5"/>
<path d="M4637,3356 l60,0 l0,60 l-60,0 z" fill="green"/>
<path d="M4667,3386 l-27,-239" stroke="black" stroke-width="5"/>
<path d="M5566,7866 l60,0 l0,60 l-60,0 z" fill="green"/>
<path d="M5596,7896 l330,-42" stroke="black" stroke-width="5"/>
<path d="M2488,9783 l60,0 l0,60 l-60,0 z" fill="green"/>
<path d="M2518,9813 l-605.5,-74" stroke="black" stroke-width="5"/>
<path d="M8972,3883 l60,0 l0,60 l-60,0 z" fill="green"/>
<path d="M9002,3913 l173.5,-222" stroke="black" stroke-width="5"/>
<path d="M8544,8917 l60,0 l0,60 l-60,0 z" fill="green"/>
<path d="M8574,8947 l322,169.5" stroke="black" stroke-width="5"/>
<path d="M3088,1743 l60,0 l0,60 l-60,0 z" fill="green"/>
<path d="M3118,1773 l16,-52.5" stroke="black" stroke-width="5"/>
<path d="M7110,4358 l60,0 l0,60 l-60,0 z" fill="green"/>
<path d="M7140,4388 l-231,489.5" stroke="black" stroke-width="5"/>
<path d="M8514,8166 l60,0 l0,60 l-60,0 z" fill="green"/>
<path d="M8544,8196 l-45.5,-290.5" stroke="black" stroke-width="5"/>
<path d="M8547,4307 l60,0 l0,60 l-60,0 z" fill="green"/>
<path d="M8577,4337 l469.5,-18" stroke="black" stroke-width="5"/>
<path d="M3125,9138 l60,0 l0,60 l-60,0 z" fill="green"/>
<path d="M3155,9168 l-195,-49" stroke="black" stroke-width="5"/>
<path d="M7793,4374 l60,0 l0,60 l-60,0 z" fill="green"/>
<path d="M7823,4404 l-80.5,24" stroke="black" stroke-width="5"/>
<path d="M9421,80 l60,0 l0,60 l-60,0 z" fill="green"/>
<path d="M9451,110 l-97,179" stroke="black" stroke-width="5"/>
<path d="M7001,1359 l60,0 l0,60 l-60,0 z" fill="green"/>
<path d="M7031,1389 l-72.5,-149" stroke="black" stroke-width="5"/>
<path d="M1811,2307 l60,0 l0,60 l-60,0 z" fill="green"/>
<path d="M1841,2337 l-343,41.5" stroke="black" stroke-width="5"/>
<path d="M46,8334 l60,0 l0,60 l-60,0 z" fill="green"/>
<path d="M76,8364 l322.5,-69" stroke="black" stroke-width="5"/>
<path d="M3513,3901 l60,0 l0,60 l-60,0 z" fill="green"/>
<path d="M3543,3931 l-514.5,228.5" stroke="black" stroke-width="5"/>
<path d="M3897,8798 l60,0 l0,60 l-60,0 z" fill="green"/>
<path d="M3927,8828 l280.5,157" stroke="black" stroke-width="5"/>
<path d="M5641,3275 l60,0 l0,60 l-60,0 z" fill="green"/>
<path d="M5671,3305 l85.5,201" stroke="black" stroke-width="5"/>
<path d="M5512,4557 l60,0 l0,60 l-60,0 z" fill="green"/>
<path d="M5542,4587 l-257.5,165" stroke="black" stroke-width="5"/>
<path d="M4000,7702 l60,0 l0,60 l-60,0 z" fill="green"/>
<path d="M4030,7732 l-659,-428.5" stroke="black" stroke-width="5"/>
<path d="M8545,8170 l60,0 l0,60 l-60,0 z" fill="green"/>
<path d="M8575,8200 l-78,202" stroke="black" stroke-width="5"/>
<path d="M1109,3709 l60,0 l0,60 l-60,0 z" fill="green"/>
<path d="M1139,3739 l-68,-173" stroke="black" stroke-width="5"/>
<path d="M20,7385 l60,0 l0,60 l-60,0 z" fill="green"/>
<path d="M50,7415 l408,-126.5" stroke="black" stroke-width="5"/>
<path d="M904,4026 l60,0 l0,60 l-60,0 z" fill="green"/>
<path d="M934,4056 l23,73.5" stroke="black" stroke-width="5"/>
<path d="M8771,7148 l60,0 l0,60 l-60,0 z" fill="green"/>
<path d="M8801,7178 l-211.5,-68.5" stroke="black" stroke-width="5"/>
<path d="M4469,6177 l60,0 l0,60 l-60,0 z" fill="green"/>
<path d="M4499,6207 l190.5,-82" stroke="black" stroke-width="5"/>
<path d="M3066,3345 l60,0 l0,60 l-60,0 z" fill="green"/>
<path d="M3096,3375 l-128,-191" stroke="black" stroke-width="5"/>
<path d="M5222,3251 l60,0 l0,60 l-60,0 z" fill="green"/>
<path d="M5252,3281 l-211,-91" stroke="black" stroke-width="5"/>
<path d="M2217,1416 l60,0 l0,60 l-60,0 z" fill="green"/>
<path d="M2247,1446 l-880,34.5" stroke="black" stroke-width="5"/>
<path d="M3317,8471 l60,0 l0,60 l-60,0 z" fill="green"/>
<path d="M3347,8501 l-1165.5,-136.5" stroke="black" stroke-width="5"/>
<path d="M5761,8570 l60,0 l0,60 l-60,0 z" fill="green"/>
<path d="M5791,8600 l-28,617" stroke="black" stroke-width="5"/>
<path d="M8003,8962 l60,0 l0,60 l-60,0 z" fill="green"/>
<path d="M8033,8992 l-122,-50" stroke="black" stroke-width="5"/>
<path d="M2267,9224 l60,0 l0,60 l-60,0 z" fill="green"/>
<path d="M2297,9254 l-388.5,-14.5" stroke="black" stroke-width="5"/>
<path d="M4282,6146 l60,0 l0,60 l-60,0 z" fill="green"/>
<path d="M4312,6176 l0.5,0.5" stroke="black" stroke-width="5"/>
<text font-size="200" text-anchor="middle" x="1766.5" y="531">
0
</text>
<text font-size="200" text-anchor="middle" x="6467.5" y="6524">
1
</text>
<text font-size="200" text-anchor="middle" x="5304.5" y="356">
2
</text>
<text font-size="200" text-anchor="middle" x="5759" y="2686.5">
3
</text>
<text font-size="200" text-anchor="middle" x="6560.5" y="3251">
4
</text>
<text font-size="200" text-anchor="middle" x="4180" y="1619">
5
</text>
<text font-size="200" text-anchor="middle" x="7815.5" y="9666.5">
6
</text>
<text font-size="200" text-anchor="middle" x="7730.5" y="521">
7
</text>
<text font-size="200" text-anchor="middle" x="9021.5" y="5301">
8
</text>
<text font-size="200" text-anchor="middle" x="7090.5" y="9097">
9
</text>
<text font-size="200" text-anchor="middle" x="7591.5" y="2448.5">
10
</text>
<text font-size="200" text-anchor="middle" x="738.5" y="5204.5">
11
</text>
<text font-size="200" text-anchor="middle" x="6955" y="4141.5">
12
</text>
<text font-size="200" text-anchor="middle" x="5221.5" y="2250">
13
</text>
<text font-size="200" text-anchor="middle" x="5464" y="1110.5">
14
</text>
<text font-size="200" text-anchor="middle" x="3391.5" y="5369.5">
15
</text>
<text font-size="200" text-anchor="middle" x="4640" y="3217">
16
</text>
<text font-size="200" text-anchor="middle" x="5926" y="7924">
17
</text>
<text font-size="200" text-anchor="middle" x="1912.5" y="9809">
18
</text>
<text font-size="200" text-anchor="middle" x="9175.5" y="3761">
19
</text>
<text font-size="200" text-anchor="middle" x="8896" y="9186.5">
20
</text>
<text font-size="200" text-anchor="middle" x="3134" y="1790.5">
21
</text>
<text font-size="200" text-anchor="middle" x="6909" y="4947.5">
22
</text>
<text font-size="200" text-anchor="middle" x="8498.5" y="7975.5">
23
</text>
<text font-size="200" text-anchor="middle" x="9046.5" y="4389">
24
</text>
<text font-size="200" text-anchor="middle" x="2960" y="9189">
25
</text>
<text font-size="200" text-anchor="middle" x="7742.5" y="4498">
26
</text>
<text font-size="200" text-anchor="middle" x="9354" y="359">
27
</text>
<text font-size="200" text-anchor="middle" x="6958.5" y="1310">
28
</text>
<text font-size="200" text-anchor="middle" x="1498" y="2448.5">
29
</text>
<text font-size="200" text-anchor="middle" x="398.5" y="8365">
30
</text>
<text font-size="200" text-anchor="middle" x="3028.5" y="4229.5">
31
</text>
<text font-size="200" text-anchor="middle" x="4207.5" y="9055">
32
</text>
<text font-size="200" text-anchor="middle" x="5756.5" y="3576">
33
</text>
<text font-size="200" text-anchor="middle" x="5284.5" y="4822">
34
</text>
<text font-size="200" text-anchor="middle" x="3371" y="7373.5">
35
</text>
<text font-size="200" text-anchor="middle" x="8497" y="8472">
36
</text>
<text font-size="200" text-anchor="middle" x="1071" y="3636">
37
</text>
<text font-size="200" text-anchor="middle" x="458" y="7358.5">
38
</text>
<text font-size="200" text-anchor="middle" x="957" y="4199.5">
39
</text>
<text font-size="200" text-anchor="middle" x="8589.5" y="7179.5">
40
</text>
<text font-size="200" text-anchor="middle" x="4689.5" y="6195">
41
</text>
<text font-size="200" text-anchor="middle" x="2968" y="3254">
42
</text>
<text font-size="200" text-anchor="middle" x="5041" y="3260">
43
</text>
<text font-size="200" text-anchor="middle" x="1367" y="1550.5">
44
</text>
<text font-size="200" text-anchor="middle" x="2181.5" y="8434.5">
45
</text>
<text font-size="200" text-anchor="middle" x="5763" y="9287">
46
</text>
<text font-size="200" text-anchor="middle" x="7911" y="9012">
47
</text>
<text font-size="200" text-anchor="middle" x="1908.5" y="9309.5">
48
</text>
<text font-size="200" text-anchor="middle" x="4312.5" y="6246.5">
49
</text>
</svg>