<svg viewBox="-100 -100 10200 10200" xmlns="http://www.w3.org/2000/svg">
<path d="M0,0 l10000,0 l0,10000 l-10000,0 z" fill="white"/>
<path d="M18,2 l3510,0 l0,912 l-3510,0 z" fill="#7d00ff" stroke="black" stroke-width="5"/>
<path d="M5035,5647 l2907,0 l0,1604 l-2907,0 z" fill="#ff00fe" stroke="black" stroke-width="5"/>
<path d="M3535,2 l3539,0 l0,568 l-3539,0 z" fill="#ff00fe" stroke="black" stroke-width="5"/>
<path d="M5431,1980 l587,0 l0,1161 l-587,0 z" fill="#ff00fe" stroke="black" stroke-width="5"/>
<path d="M6102,2679 l917,0 l0,1004 l-917,0 z" fill="#ff00fe" stroke="black" stroke-width="5"/>
<path d="M3539,579 l1282,0 l0,1940 l-1282,0 z" fill="#fe00ff" stroke="black" stroke-width="5"/>
<path d="M7441,9407 l755,0 l0,583 l-755,0 z" fill="#ff00fe" stroke="black" stroke-width="5"/>
<path d="M7222,74 l944,0 l0,621 l-944,0 z" fill="#ff00fe" stroke="black" stroke-width="5"/>
<path d="M8184,4692 l1675,0 l0,1078 l-1675,0 z" fill="#ff00fe" stroke="black" stroke-width="5"/>
<path d="M6733,8692 l691,0 l0,737 l-691,0 z" fill="#ff00fe" stroke="black" stroke-width="5"/>
<path d="M7062,1671 l1066,0 l0,1462 l-1066,0 z" fill="#ff00fe" stroke="black" stroke-width="5"/>
<path d="M5,4518 l1467,0 l0,1233 l-1467,0 z" fill="#ff00fe" stroke="black" stroke-width="5"/>
<path d="M6983,3924 l189,0 l0,186 l-189,0 z" fill="#ff00fe" stroke="black" stroke-width="5"/>
<path d="M5211,1892 l153,0 l0,512 l-153,0 z" fill="#fe00ff" stroke="black" stroke-width="5"/>
<path d="M4849,572 l1162,0 l0,836 l-1162,0 z" fill="#ff00fe" stroke="black" stroke-width="5"/>
<path d="M2654,4665 l1475,0 l0,1269 l-1475,0 z" fill="#fe00ff" stroke="black" stroke-width="5"/>
<path d="M4451,3288 l217,0 l0,130 l-217,0 z" fill="#fe00ff" stroke="black" stroke-width="5"/>
<path d="M4862,7252 l2137,0 l0,1189 l-2137,0 z" fill="#de00ff" stroke="black" stroke-width="5"/>
<path d="M175,9487 l3390,0 l0,513 l-3390,0 z" fill="#fe00ff" stroke="black" stroke-width="5"/>
<path d="M8763,3446 l715,0 l0,468 l-715,0 z" fill="#ff00ff" stroke="black" stroke-width="5"/>
<path d="M8356,8604 l1080,0 l0,1025 l-1080,0 z" fill="#fe00ff" stroke="black" stroke-width="5"/>
<path d="M2783,1164 l732,0 l0,915 l-732,0 z" fill="#fe00ff" stroke="black" stroke-width="5"/>
<path d="M6435,4112 l966,0 l0,1533 l-966,0 z" fill="#cc00ff" stroke="black" stroke-width="5"/>
<path d="M7083,7580 l2824,0 l0,617 l-2824,0 z" fill="#fe00ff" stroke="black" stroke-width="5"/>
<path d="M8094,3923 l1904,0 l0,764 l-1904,0 z" fill="#3d00ff" stroke="black" stroke-width="5"/>
<path d="M2314,8764 l1297,0 l0,723 l-1297,0 z" fill="#fe00ff" stroke="black" stroke-width="5"/>
<path d="M7401,3785 l693,0 l0,1365 l-693,0 z" fill="#ff00fe" stroke="black" stroke-width="5"/>
<path d="M8576,87 l1319,0 l0,432 l-1319,0 z" fill="#fe00ff" stroke="black" stroke-width="5"/>
<path d="M6410,881 l1097,0 l0,718 l-1097,0 z" fill="#fe00ff" stroke="black" stroke-width="5"/>
<path d="M679,2130 l1617,0 l0,583 l-1617,0 z" fill="#ff00fe" stroke="black" stroke-width="5"/>
<path d="M3,7811 l745,0 l0,953 l-745,0 z" fill="#fe00ff" stroke="black" stroke-width="5"/>
<path d="M1934,3633 l2202,0 l0,1031 l-2202,0 z" fill="#a300ff" stroke="black" stroke-width="5"/>
<path d="M3618,7974 l1169,0 l0,2015 l-1169,0 z" fill="#e800ff" stroke="black" stroke-width="5"/>
<path d="M5430,3144 l669,0 l0,720 l-669,0 z" fill="#3900ff" stroke="black" stroke-width="5"/>
<path d="M4138,3866 l2291,0 l0,1768 l-2291,0 z" fill="#b700ff" stroke="black" stroke-width="5"/>
<path d="M1889,6635 l2964,0 l0,1337 l-2964,0 z" fill="#ff00fe" stroke="black" stroke-width="5"/>
<path d="M7001,8200 l2998,0 l0,402 l-2998,0 z" fill="#3e00ff" stroke="black" stroke-width="5"/>
<path d="M566,3445 l861,0 l0,295 l-861,0 z" fill="#fe00ff" stroke="black" stroke-width="5"/>
<path d="M39,6902 l838,0 l0,773 l-838,0 z" fill="#ff00fe" stroke="black" stroke-width="5"/>
<path d="M8,3742 l1925,0 l0,775 l-1925,0 z" fill="#ec00ff" stroke="black" stroke-width="5"/>
<path d="M7948,6605 l1251,0 l0,974 l-1251,0 z" fill="#fe00ff" stroke="black" stroke-width="5"/>
<path d="M4349,5640 l681,0 l0,970 l-681,0 z" fill="#ff00fe" stroke="black" stroke-width="5"/>
<path d="M1437,2724 l2979,0 l0,905 l-2979,0 z" fill="#ff00fe" stroke="black" stroke-width="5"/>
<path d="M4668,2519 l756,0 l0,1345 l-756,0 z" fill="#fe00ff" stroke="black" stroke-width="5"/>
<path d="M21,917 l2762,0 l0,1213 l-2762,0 z" fill="#7200ff" stroke="black" stroke-width="5"/>
<path d="M751,7972 l2848,0 l0,792 l-2848,0 z" fill="#3400ff" stroke="black" stroke-width="5"/>
<path d="M4790,8443 l1940,0 l0,1555 l-1940,0 z" fill="#df00ff" stroke="black" stroke-width="5"/>
<path d="M7425,8603 l921,0 l0,804 l-921,0 z" fill="#1d00ff" stroke="black" stroke-width="5"/>
<path d="M1803,9207 l495,0 l0,48 l-495,0 z" fill="#fe00ff" stroke="black" stroke-width="5"/>
<path d="M4312,6176 l1,0 l0,1 l-1,0 z" fill="#0000ff" stroke="black" stroke-width="5"/>
<path d="M1879,330 l60,0 l0,60 l-60,0 z" fill="green"/>
<path d="M1909,360 l-136,98" stroke="black" stroke-width="5"/>
<path d="M5780,7061 l60,0 l0,60 l-60,0 z" fill="green"/>
<path d="M5810,7091 l678.5,-642" stroke="black" stroke-width="5"/>
<path d="M5377,392 l60,0 l0,60 l-60,0 z" fill="green"/>
<path d="M5407,422 l-102.5,-136" stroke="black" stroke-width="5"/>
<path d="M5737,3110 l60,0 l0,60 l-60,0 z" fill="green"/>
<path d="M5767,3140 l-42.5,-579.5" stroke="black" stroke-width="5"/>
<path d="M6629,3204 l60,0 l0,60 l-60,0 z" fill="green"/>
<path d="M6659,3234 l-98.5,-53" stroke="black" stroke-width="5"/>
<path d="M4176,1590 l60,0 l0,60 l-60,0 z" fill="green"/>
<path d="M4206,1620 l-26,-71" stroke="black" stroke-width="5"/>
<path d="M7823,9462 l60,0 l0,60 l-60,0 z" fill="green"/>
<path d="M7853,9492 l-34.5,206.5" stroke="black" stroke-width="5"/>
<path d="M7845,402 l60,0 l0,60 l-60,0 z" fill="green"/>
<path d="M7875,432 l-181,-47.5" stroke="black" stroke-width="5"/>
<path d="M9018,5029 l60,0 l0,60 l-60,0 z" fill="green"/>
<path d="M9048,5059 l-26.5,172" stroke="black" stroke-width="5"/>
<path d="M7262,9040 l60,0 l0,60 l-60,0 z" fill="green"/>
<path d="M7292,9070 l-213.5,-9.5" stroke="black" stroke-width="5"/>
<path d="M7603,2466 l60,0 l0,60 l-60,0 z" fill="green"/>
<path d="M7633,2496 l-38,-94" stroke="black" stroke-width="5"/>
<path d="M391,4805 l60,0 l0,60 l-60,0 z" fill="green"/>
<path d="M421,4835 l317.5,299.5" stroke="black" stroke-width="5"/>
<path d="M7134,4079 l60,0 l0,60 l-60,0 z" fill="green"/>
<path d="M7164,4109 l-86.5,-92" stroke="black" stroke-width="5"/>
<path d="M5326,2241 l60,0 l0,60 l-60,0 z" fill="green"/>
<path d="M5356,2271 l-68.5,-123" stroke="black" stroke-width="5"/>
<path d="M5231,547 l60,0 l0,60 l-60,0 z" fill="green"/>
<path d="M5261,577 l169,413" stroke="black" stroke-width="5"/>
<path d="M3516,5195 l60,0 l0,60 l-60,0 z" fill="green"/>
<path d="M3546,5225 l-154.5,74.5" stroke="black" stroke-width="5"/>
<path d="M4637,3356 l60,0 l0,60 l-60,0 z" fill="green"/>
<path d="M4667,3386 l-107.5,-33" stroke="black" stroke-width="5"/>
<path d="M5566,7866 l60,0 l0,60 l-60,0 z" fill="green"/>
<path d="M5596,7896 l334.5,-49.5" stroke="black" stroke-width="5"/>
<path d="M2488,9783 l60,0 l0,60 l-60,0 z" fill="green"/>
<path d="M2518,9813 l-648,-69.5" stroke="black" stroke-width="5"/>
<path d="M8972,3883 l60,0 l0,60 l-60,0 z" fill="green"/>
<path d="M9002,3913 l118.5,-233" stroke="black" stroke-width="5"/>
<path d="M8544,8917 l60,0 l0,60 l-60,0 z" fill="green"/>
<path d="M8574,8947 l322,169.5" stroke="black" stroke-width="5"/>
<path d="M3088,1743 l60,0 l0,60 l-60,0 z" fill="green"/>
<path d="M3118,1773 l31,-151.5" stroke="black" stroke-width="5"/>
<path d="M7110,4358 l60,0 l0,60 l-60,0 z" fill="green"/>
<path d="M7140,4388 l-222,490.5" stroke="black" stroke-width="5"/>
<path d="M8514,8166 l60,0 l0,60 l-60,0 z" fill="green"/>
<path d="M8544,8196 l-49,-307.5" stroke="black" stroke-width="5"/>
<path d="M8547,4307 l60,0 l0,60 l-60,0 z" fill="green"/>
<path d="M8577,4337 l469,-32" stroke="black" stroke-width="5"/>
<path d="M3125,9138 l60,0 l0,60 l-60,0 z" fill="green"/>
<path d="M3155,9168 l-192.5,-42.5" stroke="black" stroke-width="5"/>
<path d="M7793,4374 l60,0 l0,60 l-60,0 z" fill="green"/>
<path d="M7823,4404 l-75.5,63.5" stroke="black" stroke-width="5"/>
<path d="M9421,80 l60,0 l0,60 l-60,0 z" fill="green"/>
<path d="M9451,110 l-215.5,193" stroke="black" stroke-width="5"/>
<path d="M7001,1359 l60,0 l0,60 l-60,0 z" fill="green"/>
<path d="M7031,1389 l-72.5,-149" stroke="black" stroke-width="5"/>
<path d="M1811,2307 l60,0 l0,60 l-60,0 z" fill="green"/>
<path d="M1841,2337 l-353.5,84.5" stroke="black" stroke-width="5"/>
<path d="M46,8334 l60,0 l0,60 l-60,0 z" fill="green"/>
<path d="M76,8364 l299.5,-76.5" stroke="black" stroke-width="5"/>
<path d="M3513,3901 l60,0 l0,60 l-60,0 z" fill="green"/>
<path d="M3543,3931 l-508,217.5" stroke="black" stroke-width="5"/>
<path d="M3897,8798 l60,0 l0,60 l-60,0 z" fill="green"/>
<path d="M3927,8828 l275.5,153.5" stroke="black" stroke-width="5"/>
<path d="M5641,3275 l60,0 l0,60 l-60,0 z" fill="green"/>
<path d="M5671,3305 l93.5,199" stroke="black" stroke-width="5"/>
<path d="M5512,4557 l60,0 l0,60 l-60,0 z" fill="green"/>
<path d="M5542,4587 l-258.5,163" stroke="black" stroke-width="5"/>
<path d="M4000,7702 l60,0 l0,60 l-60,0 z" fill="green"/>
<path d="M4030,7732 l-659,-428.5" stroke="black" stroke-width="5"/>
<path d="M8545,8170 l60,0 l0,60 l-60,0 z" fill="green"/>
<path d="M8575,8200 l-75,201" stroke="black" stroke-width="5"/>
<path d="M1109,3709 l60,0 l0,60 l-60,0 z" fill="green"/>
<path d="M1139,3739 l-142.5,-146.5" stroke="black" stroke-width="5"/>
<path d="M20,7385 l60,0 l0,60 l-60,0 z" fill="green"/>
<path d="M50,7415 l408,-126.5" stroke="black" stroke-width="5"/>
<path d="M904,4026 l60,0 l0,60 l-60,0 z" fill="green"/>
<path d="M934,4056 l36.5,73.5" stroke="black" stroke-width="5"/>
<path d="M8771,7148 l60,0 l0,60 l-60,0 z" fill="green"/>
<path d="M8801,7178 l-227.5,-86" stroke="black" stroke-width="5"/>
<path d="M4469,6177 l60,0 l0,60 l-60,0 z" fill="green"/>
<path d="M4499,6207 l190.5,-82" stroke="black" stroke-width="5"/>
<path d="M3066,3345 l60,0 l0,60 l-60,0 z" fill="green"/>
<path d="M3096,3375 l-169.5,-198.5" stroke="black" stroke-width="5"/>
<path d="M5222,3251 l60,0 l0,60 l-60,0 z" fill="green"/>
<path d="M5252,3281 l-206,-89.5" stroke="black" stroke-width="5"/>
<path d="M2217,1416 l60,0 l0,60 l-60,0 z" fill="green"/>
<path d="M2247,1446 l-845,77.5" stroke="black" stroke-width="5"/>
<path d="M3317,8471 l60,0 l0,60 l-60,0 z" fill="green"/>
<path d="M3347,8501 l-1172,-133" stroke="black" stroke-width="5"/>
<path d="M5761,8570 l60,0 l0,60 l-60,0 z" fill="green"/>
<path d="M5791,8600 l-31,620.5" stroke="black" stroke-width="5"/>
<path d="M8003,8962 l60,0 l0,60 l-60,0 z" fill="green"/>
<path d="M8033,8992 l-147.5,13" stroke="black" stroke-width="5"/>
<path d="M2267,9224 l60,0 l0,60 l-60,0 z" fill="green"/>
<path d="M2297,9254 l-246.5,-23" stroke="black" stroke-width="5"/>
<path d="M4282,6146 l60,0 l0,60 l-60,0 z" fill="green"/>
<path d="M4312,6176 l0.5,0.5" stroke="black" stroke-width="5"/>
<text font-size="200" text-anchor="middle" x="1773" y="528">
0
</text>
<text font-size="200" text-anchor="middle" x="6488.5" y="6519">
1
</text>
<text font-size="200" text-anchor="middle" x="5304.5" y="356">
2
</text>
<text font-size="200" text-anchor="middle" x="5724.5" y="2630.5">
3
</text>
<text font-size="200" text-anchor="middle" x="6560.5" y="3251">
4
</text>
<text font-size="200" text-anchor="middle" x="4180" y="1619">
5
</text>
<text font-size="200" text-anchor="middle" x="7818.5" y="9768.5">
6
</text>
<text font-size="200" text-anchor="middle" x="7694" y="454.5">
7
</text>
<text font-size="200" text-anchor="middle" x="9021.5" y="5301">
8
</text>
<text font-size="200" text-anchor="middle" x="7078.5" y="9130.5">
9
</text>
<text font-size="200" text-anchor="middle" x="7595" y="2472">
10
</text>
<text font-size="200" text-anchor="middle" x="738.5" y="5204.5">
11
</text>
<text font-size="200" text-anchor="middle" x="7077.5" y="4087">
12
</text>
<text font-size="200" text-anchor="middle" x="5287.5" y="2218">
13
</text>
<text font-size="200" text-anchor="middle" x="5430" y="1060">
14
</text>
<text font-size="200" text-anchor="middle" x="3391.5" y="5369.5">
15
</text>
<text font-size="200" text-anchor="middle" x="4559.5" y="3423">
16
</text>
<text font-size="200" text-anchor="middle" x="5930.5" y="7916.5">
17
</text>
<text font-size="200" text-anchor="middle" x="1870" y="9813.5">
18
</text>
<text font-size="200" text-anchor="middle" x="9120.5" y="3750">
19
</text>
<text font-size="200" text-anchor="middle" x="8896" y="9186.5">
20
</text>
<text font-size="200" text-anchor="middle" x="3149" y="1691.5">
21
</text>
<text font-size="200" text-anchor="middle" x="6918" y="4948.5">
22
</text>
<text font-size="200" text-anchor="middle" x="8495" y="7958.5">
23
</text>
<text font-size="200" text-anchor="middle" x="9046" y="4375">
24
</text>
<text font-size="200" text-anchor="middle" x="2962.5" y="9195.5">
25
</text>
<text font-size="200" text-anchor="middle" x="7747.5" y="4537.5">
26
</text>
<text font-size="200" text-anchor="middle" x="9235.5" y="373">
27
</text>
<text font-size="200" text-anchor="middle" x="6958.5" y="1310">
28
</text>
<text font-size="200" text-anchor="middle" x="1487.5" y="2491.5">
29
</text>
<text font-size="200" text-anchor="middle" x="375.5" y="8357.5">
30
</text>
<text font-size="200" text-anchor="middle" x="3035" y="4218.5">
31
</text>
<text font-size="200" text-anchor="middle" x="4202.5" y="9051.5">
32
</text>
<text font-size="200" text-anchor="middle" x="5764.5" y="3574">
33
</text>
<text font-size="200" text-anchor="middle" x="5283.5" y="4820">
34
</text>
<text font-size="200" text-anchor="middle" x="3371" y="7373.5">
35
</text>
<text font-size="200" text-anchor="middle" x="8500" y="8471">
36
</text>
<text font-size="200" text-anchor="middle" x="996.5" y="3662.5">
37
</text>
<text font-size="200" text-anchor="middle" x="458" y="7358.5">
38
</text>
<text font-size="200" text-anchor="middle" x="970.5" y="4199.5">
39
</text>
<text font-size="200" text-anchor="middle" x="8573.5" y="7162">
40
</text>
<text font-size="200" text-anchor="middle" x="4689.5" y="6195">
41
</text>
<text font-size="200" text-anchor="middle" x="2926.5" y="3246.5">
42
</text>
<text font-size="200" text-anchor="middle" x="5046" y="3261.5">
43
</text>
<text font-size="200" text-anchor="middle" x="1402" y="1593.5">
44
</text>
<text font-size="200" text-anchor="middle" x="2175" y="8438">
45
</text>
<text font-size="200" text-anchor="middle" x="5760" y="9290.5">
46
</text>
<text font-size="200" text-anchor="middle" x="7885.5" y="9075">
47
</text>
<text font-size="200" text-anchor="middle" x="2050.5" y="9301">
48
</text>
<text font-size="200" text-anchor="middle" x="4312.5" y="6246.5">
49
</text>
</svg>