<svg viewBox="-100 -100 10200 10200" xmlns="http://www.w3.org/2000/svg">
<path d="M0,0 l10000,0 l0,10000 l-10000,0 z" fill="white"/>
<path d="M11,0 l3487,0 l0,959 l-3487,0 z" fill="#8600ff" stroke="black" stroke-width="5"/>
<path d="M5042,5646 l2906,0 l0,1604 l-2906,0 z" fill="#fe00ff" stroke="black" stroke-width="5"/>
<path d="M3535,2 l3539,0 l0,568 l-3539,0 z" fill="#ff00fe" stroke="black" stroke-width="5"/>
<path d="M5431,1980 l587,0 l0,1161 l-587,0 z" fill="#ff00fe" stroke="black" stroke-width="5"/>
<path d="M6120,2674 l890,0 l0,1034 l-890,0 z" fill="#fe00ff" stroke="black" stroke-width="5"/>
<path d="M3534,608 l1313,0 l0,1894 l-1313,0 z" fill="#fe00ff" stroke="black" stroke-width="5"/>
<path d="M7441,9407 l755,0 l0,583 l-755,0 z" fill="#ff00fe" stroke="black" stroke-width="5"/>
<path d="M7100,10 l1110,0 l0,528 l-1110,0 z" fill="#fe00ff" stroke="black" stroke-width="5"/>
<path d="M8184,4692 l1675,0 l0,1078 l-1675,0 z" fill="#ff00fe" stroke="black" stroke-width="5"/>
<path d="M6733,8692 l691,0 l0,737 l-691,0 z" fill="#ff00fe" stroke="black" stroke-width="5"/>
<path d="M7060,1678 l1051,0 l0,1483 l-1051,0 z" fill="#ff00fe" stroke="black" stroke-width="5"/>
<path d="M5,4518 l1467,0 l0,1233 l-1467,0 z" fill="#ff00fe" stroke="black" stroke-width="5"/>
<path d="M6817,4025 l413,0 l0,85 l-413,0 z" fill="#ff00fe" stroke="black" stroke-width="5"/>
<path d="M5051,2150 l370,0 l0,212 l-370,0 z" fill="#ff00fe" stroke="black" stroke-width="5"/>
<path d="M4888,577 l1089,0 l0,892 l-1089,0 z" fill="#fe00ff" stroke="black" stroke-width="5"/>
<path d="M2654,4665 l1475,0 l0,1269 l-1475,0 z" fill="#fe00ff" stroke="black" stroke-width="5"/>
<path d="M4486,3236 l192,0 l0,151 l-192,0 z" fill="#ff00fe" stroke="black" stroke-width="5"/>
<path d="M4860,7252 l2151,0 l0,1179 l-2151,0 z" fill="#de00ff" stroke="black" stroke-width="5"/>
<path d="M190,9488 l3405,0 l0,511 l-3405,0 z" fill="#ff00fe" stroke="black" stroke-width="5"/>
<path d="M8749,3427 l687,0 l0,487 l-687,0 z" fill="#fe00ff" stroke="black" stroke-width="5"/>
<path d="M8406,8627 l1076,0 l0,1029 l-1076,0 z" fill="#ff00fe" stroke="black" stroke-width="5"/>
<path d="M2783,1164 l732,0 l0,915 l-732,0 z" fill="#fe00ff" stroke="black" stroke-width="5"/>
<path d="M6426,4112 l1012,0 l0,1530 l-1012,0 z" fill="#d600ff" stroke="black" stroke-width="5"/>
<path d="M7083,7580 l2824,0 l0,617 l-2824,0 z" fill="#fe00ff" stroke="black" stroke-width="5"/>
<path d="M8089,3921 l1908,0 l0,771 l-1908,0 z" fill="#3f00ff" stroke="black" stroke-width="5"/>
<path d="M2298,8765 l1313,0 l0,722 l-1313,0 z" fill="#fe00ff" stroke="black" stroke-width="5"/>
<path d="M7440,3686 l649,0 l0,1457 l-649,0 z" fill="#fe00ff" stroke="black" stroke-width="5"/>
<path d="M8553,88 l1316,0 l0,433 l-1316,0 z" fill="#fe00ff" stroke="black" stroke-width="5"/>
<path d="M6364,929 l1056,0 l0,746 l-1056,0 z" fill="#ff00fe" stroke="black" stroke-width="5"/>
<path d="M691,2169 l1668,0 l0,565 l-1668,0 z" fill="#ff00fe" stroke="black" stroke-width="5"/>
<path d="M24,7825 l742,0 l0,957 l-742,0 z" fill="#fe00ff" stroke="black" stroke-width="5"/>
<path d="M1939,3627 l2182,0 l0,1033 l-2182,0 z" fill="#a100ff" stroke="black" stroke-width="5"/>
<path d="M3612,7987 l1179,0 l0,2004 l-1179,0 z" fill="#e800ff" stroke="black" stroke-width="5"/>
<path d="M5434,3148 l684,0 l0,745 l-684,0 z" fill="#3f00ff" stroke="black" stroke-width="5"/>
<path d="M4135,3893 l2286,0 l0,1744 l-2286,0 z" fill="#b300ff" stroke="black" stroke-width="5"/>
<path d="M1889,6635 l2964,0 l0,1337 l-2964,0 z" fill="#ff00fe" stroke="black" stroke-width="5"/>
<path d="M7020,8200 l2977,0 l0,423 l-2977,0 z" fill="#4300ff" stroke="black" stroke-width="5"/>
<path d="M562,3421 l797,0 l0,319 l-797,0 z" fill="#ff00fe" stroke="black" stroke-width="5"/>
<path d="M9,6896 l789,0 l0,821 l-789,0 z" fill="#ff00fe" stroke="black" stroke-width="5"/>
<path d="M2,3740 l1936,0 l0,777 l-1936,0 z" fill="#ee00ff" stroke="black" stroke-width="5"/>
<path d="M7976,6534 l1177,0 l0,1036 l-1177,0 z" fill="#ff00fe" stroke="black" stroke-width="5"/>
<path d="M4349,5640 l681,0 l0,970 l-681,0 z" fill="#ff00fe" stroke="black" stroke-width="5"/>
<path d="M1437,2734 l3019,0 l0,893 l-3019,0 z" fill="#ff00fe" stroke="black" stroke-width="5"/>
<path d="M4678,2506 l747,0 l0,1384 l-747,0 z" fill="#fe00ff" stroke="black" stroke-width="5"/>
<path d="M10,961 l2762,0 l0,1206 l-2762,0 z" fill="#7100ff" stroke="black" stroke-width="5"/>
<path d="M768,7974 l2841,0 l0,790 l-2841,0 z" fill="#3300ff" stroke="black" stroke-width="5"/>
<path d="M4791,8437 l1937,0 l0,1546 l-1937,0 z" fill="#de00ff" stroke="black" stroke-width="5"/>
<path d="M7426,8633 l979,0 l0,773 l-979,0 z" fill="#1e00ff" stroke="black" stroke-width="5"/>
<path d="M2150,9246 l148,0 l0,161 l-148,0 z" fill="#fe00ff" stroke="black" stroke-width="5"/>
<path d="M4312,6176 l1,0 l0,1 l-1,0 z" fill="#0000ff" stroke="black" stroke-width="5"/>
<path d="M1879,330 l60,0 l0,60 l-60,0 z" fill="green"/>
<path d="M1909,360 l-154.5,119.5" stroke="black" stroke-width="5"/>
<path d="M5780,7061 l60,0 l0,60 l-60,0 z" fill="green"/>
<path d="M5810,7091 l685,-643" stroke="black" stroke-width="5"/>
<path d="M5377,392 l60,0 l0,60 l-60,0 z" fill="green"/>
<path d="M5407,422 l-102.5,-136" stroke="black" stroke-width="5"/>
<path d="M5737,3110 l60,0 l0,60 l-60,0 z" fill="green"/>
<path d="M5767,3140 l-42.5,-579.5" stroke="black" stroke-width="5"/>
<path d="M6629,3204 l60,0 l0,60 l-60,0 z" fill="green"/>
<path d="M6659,3234 l-94,-43" stroke="black" stroke-width="5"/>
<path d="M4176,1590 l60,0 l0,60 l-60,0 z" fill="green"/>
<path d="M4206,1620 l-15.5,-65" stroke="black" stroke-width="5"/>
<path d="M7823,9462 l60,0 l0,60 l-60,0 z" fill="green"/>
<path d="M7853,9492 l-34.5,206.5" stroke="black" stroke-width="5"/>
<path d="M7845,402 l60,0 l0,60 l-60,0 z" fill="green"/>
<path d="M7875,432 l-220,-158" stroke="black" stroke-width="5"/>
<path d="M9018,5029 l60,0 l0,60 l-60,0 z" fill="green"/>
<path d="M9048,5059 l-26.5,172" stroke="black" stroke-width="5"/>
<path d="M7262,9040 l60,0 l0,60 l-60,0 z" fill="green"/>
<path d="M7292,9070 l-213.5,-9.5" stroke="black" stroke-width="5"/>
<path d="M7603,2466 l60,0 l0,60 l-60,0 z" fill="green"/>
<path d="M7633,2496 l-47.5,-76.5" stroke="black" stroke-width="5"/>
<path d="M391,4805 l60,0 l0,60 l-60,0 z" fill="green"/>
<path d="M421,4835 l317.5,299.5" stroke="black" stroke-width="5"/>
<path d="M7134,4079 l60,0 l0,60 l-60,0 z" fill="green"/>
<path d="M7164,4109 l-140.5,-41.5" stroke="black" stroke-width="5"/>
<path d="M5326,2241 l60,0 l0,60 l-60,0 z" fill="green"/>
<path d="M5356,2271 l-120,-15" stroke="black" stroke-width="5"/>
<path d="M5231,547 l60,0 l0,60 l-60,0 z" fill="green"/>
<path d="M5261,577 l171.5,446" stroke="black" stroke-width="5"/>
<path d="M3516,5195 l60,0 l0,60 l-60,0 z" fill="green"/>
<path d="M3546,5225 l-154.5,74.5" stroke="black" stroke-width="5"/>
<path d="M4637,3356 l60,0 l0,60 l-60,0 z" fill="green"/>
<path d="M4667,3386 l-85,-74.5" stroke="black" stroke-width="5"/>
<path d="M5566,7866 l60,0 l0,60 l-60,0 z" fill="green"/>
<path d="M5596,7896 l339.5,-54.5" stroke="black" stroke-width="5"/>
<path d="M2488,9783 l60,0 l0,60 l-60,0 z" fill="green"/>
<path d="M2518,9813 l-625.5,-69.5" stroke="black" stroke-width="5"/>
<path d="M8972,3883 l60,0 l0,60 l-60,0 z" fill="green"/>
<path d="M9002,3913 l90.5,-242.5" stroke="black" stroke-width="5"/>
<path d="M8544,8917 l60,0 l0,60 l-60,0 z" fill="green"/>
<path d="M8574,8947 l370,194.5" stroke="black" stroke-width="5"/>
<path d="M3088,1743 l60,0 l0,60 l-60,0 z" fill="green"/>
<path d="M3118,1773 l31,-151.5" stroke="black" stroke-width="5"/>
<path d="M7110,4358 l60,0 l0,60 l-60,0 z" fill="green"/>
<path d="M7140,4388 l-208,489" stroke="black" stroke-width="5"/>
<path d="M8514,8166 l60,0 l0,60 l-60,0 z" fill="green"/>
<path d="M8544,8196 l-49,-307.5" stroke="black" stroke-width="5"/>
<path d="M8547,4307 l60,0 l0,60 l-60,0 z" fill="green"/>
<path d="M8577,4337 l466,-30.5" stroke="black" stroke-width="5"/>
<path d="M3125,9138 l60,0 l0,60 l-60,0 z" fill="green"/>
<path d="M3155,9168 l-200.5,-42" stroke="black" stroke-width="5"/>
<path d="M7793,4374 l60,0 l0,60 l-60,0 z" fill="green"/>
<path d="M7823,4404 l-58.5,10.5" stroke="black" stroke-width="5"/>
<path d="M9421,80 l60,0 l0,60 l-60,0 z" fill="green"/>
<path d="M9451,110 l-240,194.5" stroke="black" stroke-width="5"/>
<path d="M7001,1359 l60,0 l0,60 l-60,0 z" fill="green"/>
<path d="M7031,1389 l-139,-87" stroke="black" stroke-width="5"/>
<path d="M1811,2307 l60,0 l0,60 l-60,0 z" fill="green"/>
<path d="M1841,2337 l-316,114.5" stroke="black" stroke-width="5"/>
<path d="M46,8334 l60,0 l0,60 l-60,0 z" fill="green"/>
<path d="M76,8364 l319,-60.5" stroke="black" stroke-width="5"/>
<path d="M3513,3901 l60,0 l0,60 l-60,0 z" fill="green"/>
<path d="M3543,3931 l-513,212.5" stroke="black" stroke-width="5"/>
<path d="M3897,8798 l60,0 l0,60 l-60,0 z" fill="green"/>
<path d="M3927,8828 l274.5,161" stroke="black" stroke-width="5"/>
<path d="M5641,3275 l60,0 l0,60 l-60,0 z" fill="green"/>
<path d="M5671,3305 l105,215.5" stroke="black" stroke-width="5"/>
<path d="M5512,4557 l60,0 l0,60 l-60,0 z" fill="green"/>
<path d="M5542,4587 l-264,178" stroke="black" stroke-width="5"/>
<path d="M4000,7702 l60,0 l0,60 l-60,0 z" fill="green"/>
<path d="M4030,7732 l-659,-428.5" stroke="black" stroke-width="5"/>
<path d="M8545,8170 l60,0 l0,60 l-60,0 z" fill="green"/>
<path d="M8575,8200 l-66.5,211.5" stroke="black" stroke-width="5"/>
<path d="M1109,3709 l60,0 l0,60 l-60,0 z" fill="green"/>
<path d="M1139,3739 l-178.5,-158.5" stroke="black" stroke-width="5"/>
<path d="M20,7385 l60,0 l0,60 l-60,0 z" fill="green"/>
<path d="M50,7415 l353.5,-108.5" stroke="black" stroke-width="5"/>
<path d="M904,4026 l60,0 l0,60 l-60,0 z" fill="green"/>
<path d="M934,4056 l36,72.5" stroke="black" stroke-width="5"/>
<path d="M8771,7148 l60,0 l0,60 l-60,0 z" fill="green"/>
<path d="M8801,7178 l-236.5,-126" stroke="black" stroke-width="5"/>
<path d="M4469,6177 l60,0 l0,60 l-60,0 z" fill="green"/>
<path d="M4499,6207 l190.5,-82" stroke="black" stroke-width="5"/>
<path d="M3066,3345 l60,0 l0,60 l-60,0 z" fill="green"/>
<path d="M3096,3375 l-149.5,-194.5" stroke="black" stroke-width="5"/>
<path d="M5222,3251 l60,0 l0,60 l-60,0 z" fill="green"/>
<path d="M5252,3281 l-200.5,-83" stroke="black" stroke-width="5"/>
<path d="M2217,1416 l60,0 l0,60 l-60,0 z" fill="green"/>
<path d="M2247,1446 l-856,118" stroke="black" stroke-width="5"/>
<path d="M3317,8471 l60,0 l0,60 l-60,0 z" fill="green"/>
<path d="M3347,8501 l-1158.5,-132" stroke="black" stroke-width="5"/>
<path d="M5761,8570 l60,0 l0,60 l-60,0 z" fill="green"/>
<path d="M5791,8600 l-31.5,610" stroke="black" stroke-width="5"/>
<path d="M8003,8962 l60,0 l0,60 l-60,0 z" fill="green"/>
<path d="M8033,8992 l-117.5,27.5" stroke="black" stroke-width="5"/>
<path d="M2267,9224 l60,0 l0,60 l-60,0 z" fill="green"/>
<path d="M2297,9254 l-73,72.5" stroke="black" stroke-width="5"/>
<path d="M4282,6146 l60,0 l0,60 l-60,0 z" fill="green"/>
<path d="M4312,6176 l0.5,0.5" stroke="black" stroke-width="5"/>
<text font-size="200" text-anchor="middle" x="1754.5" y="549.5">
0
</text>
<text font-size="200" text-anchor="middle" x="6495" y="6518">
1
</text>
<text font-size="200" text-anchor="middle" x="5304.5" y="356">
2
</text>
<text font-size="200" text-anchor="middle" x="5724.5" y="2630.5">
3
</text>
<text font-size="200" text-anchor="middle" x="6565" y="3261">
4
</text>
<text font-size="200" text-anchor="middle" x="4190.5" y="1625">
5
</text>
<text font-size="200" text-anchor="middle" x="7818.5" y="9768.5">
6
</text>
<text font-size="200" text-anchor="middle" x="7655" y="344">
7
</text>
<text font-size="200" text-anchor="middle" x="9021.5" y="5301">
8
</text>
<text font-size="200" text-anchor="middle" x="7078.5" y="9130.5">
9
</text>
<text font-size="200" text-anchor="middle" x="7585.5" y="2489.5">
10
</text>
<text font-size="200" text-anchor="middle" x="738.5" y="5204.5">
11
</text>
<text font-size="200" text-anchor="middle" x="7023.5" y="4137.5">
12
</text>
<text font-size="200" text-anchor="middle" x="5236" y="2326">
13
</text>
<text font-size="200" text-anchor="middle" x="5432.5" y="1093">
14
</text>
<text font-size="200" text-anchor="middle" x="3391.5" y="5369.5">
15
</text>
<text font-size="200" text-anchor="middle" x="4582" y="3381.5">
16
</text>
<text font-size="200" text-anchor="middle" x="5935.5" y="7911.5">
17
</text>
<text font-size="200" text-anchor="middle" x="1892.5" y="9813.5">
18
</text>
<text font-size="200" text-anchor="middle" x="9092.5" y="3740.5">
19
</text>
<text font-size="200" text-anchor="middle" x="8944" y="9211.5">
20
</text>
<text font-size="200" text-anchor="middle" x="3149" y="1691.5">
21
</text>
<text font-size="200" text-anchor="middle" x="6932" y="4947">
22
</text>
<text font-size="200" text-anchor="middle" x="8495" y="7958.5">
23
</text>
<text font-size="200" text-anchor="middle" x="9043" y="4376.5">
24
</text>
<text font-size="200" text-anchor="middle" x="2954.5" y="9196">
25
</text>
<text font-size="200" text-anchor="middle" x="7764.5" y="4484.5">
26
</text>
<text font-size="200" text-anchor="middle" x="9211" y="374.5">
27
</text>
<text font-size="200" text-anchor="middle" x="6892" y="1372">
28
</text>
<text font-size="200" text-anchor="middle" x="1525" y="2521.5">
29
</text>
<text font-size="200" text-anchor="middle" x="395" y="8373.5">
30
</text>
<text font-size="200" text-anchor="middle" x="3030" y="4213.5">
31
</text>
<text font-size="200" text-anchor="middle" x="4201.5" y="9059">
32
</text>
<text font-size="200" text-anchor="middle" x="5776" y="3590.5">
33
</text>
<text font-size="200" text-anchor="middle" x="5278" y="4835">
34
</text>
<text font-size="200" text-anchor="middle" x="3371" y="7373.5">
35
</text>
<text font-size="200" text-anchor="middle" x="8508.5" y="8481.5">
36
</text>
<text font-size="200" text-anchor="middle" x="960.5" y="3650.5">
37
</text>
<text font-size="200" text-anchor="middle" x="403.5" y="7376.5">
38
</text>
<text font-size="200" text-anchor="middle" x="970" y="4198.5">
39
</text>
<text font-size="200" text-anchor="middle" x="8564.5" y="7122">
40
</text>
<text font-size="200" text-anchor="middle" x="4689.5" y="6195">
41
</text>
<text font-size="200" text-anchor="middle" x="2946.5" y="3250.5">
42
</text>
<text font-size="200" text-anchor="middle" x="5051.5" y="3268">
43
</text>
<text font-size="200" text-anchor="middle" x="1391" y="1634">
44
</text>
<text font-size="200" text-anchor="middle" x="2188.5" y="8439">
45
</text>
<text font-size="200" text-anchor="middle" x="5759.5" y="9280">
46
</text>
<text font-size="200" text-anchor="middle" x="7915.5" y="9089.5">
47
</text>
<text font-size="200" text-anchor="middle" x="2224" y="9396.5">
48
</text>
<text font-size="200" text-anchor="middle" x="4312.5" y="6246.5">
49
</text>
</svg>