<svg viewBox="-100 -100 10200 10200" xmlns="http://www.w3.org/2000/svg">
<path d="M0,0 l10000,0 l0,10000 l-10000,0 z" fill="white"/>
<path d="M3,0 l3529,0 l0,879 l-3529,0 z" fill="#7700ff" stroke="black" stroke-width="5"/>
<path d="M5034,5641 l2867,0 l0,1626 l-2867,0 z" fill="#ff00fe" stroke="black" stroke-width="5"/>
<path d="M3532,2 l3460,0 l0,572 l-3460,0 z" fill="#fe00ff" stroke="black" stroke-width="5"/>
<path d="M5413,2024 l610,0 l0,1117 l-610,0 z" fill="#fe00ff" stroke="black" stroke-width="5"/>
<path d="M6102,2679 l917,0 l0,1004 l-917,0 z" fill="#ff00fe" stroke="black" stroke-width="5"/>
<path d="M3539,579 l1282,0 l0,1940 l-1282,0 z" fill="#fe00ff" stroke="black" stroke-width="5"/>
<path d="M7546,9157 l603,0 l0,730 l-603,0 z" fill="#ff00fe" stroke="black" stroke-width="5"/>
<path d="M7313,100 l835,0 l0,702 l-835,0 z" fill="#ff00fe" stroke="black" stroke-width="5"/>
<path d="M8184,4692 l1675,0 l0,1078 l-1675,0 z" fill="#ff00fe" stroke="black" stroke-width="5"/>
<path d="M6701,8713 l787,0 l0,647 l-787,0 z" fill="#fe00ff" stroke="black" stroke-width="5"/>
<path d="M7028,1687 l1127,0 l0,1383 l-1127,0 z" fill="#ff00fe" stroke="black" stroke-width="5"/>
<path d="M5,4518 l1467,0 l0,1233 l-1467,0 z" fill="#ff00fe" stroke="black" stroke-width="5"/>
<path d="M6612,4057 l665,0 l0,53 l-665,0 z" fill="#ff00fe" stroke="black" stroke-width="5"/>
<path d="M5093,2133 l297,0 l0,264 l-297,0 z" fill="#fe00ff" stroke="black" stroke-width="5"/>
<path d="M4940,577 l1048,0 l0,927 l-1048,0 z" fill="#ff00fe" stroke="black" stroke-width="5"/>
<path d="M2654,4665 l1475,0 l0,1269 l-1475,0 z" fill="#fe00ff" stroke="black" stroke-width="5"/>
<path d="M4637,2569 l31,0 l0,940 l-31,0 z" fill="#ff00fe" stroke="black" stroke-width="5"/>
<path d="M4853,7268 l2138,0 l0,1167 l-2138,0 z" fill="#da00ff" stroke="black" stroke-width="5"/>
<path d="M221,9482 l3383,0 l0,514 l-3383,0 z" fill="#fe00ff" stroke="black" stroke-width="5"/>
<path d="M8877,3496 l614,0 l0,545 l-614,0 z" fill="#ff00fe" stroke="black" stroke-width="5"/>
<path d="M8356,8604 l1080,0 l0,1025 l-1080,0 z" fill="#fe00ff" stroke="black" stroke-width="5"/>
<path d="M2730,1306 l808,0 l0,829 l-808,0 z" fill="#fe00ff" stroke="black" stroke-width="5"/>
<path d="M6455,4112 l933,0 l0,1528 l-933,0 z" fill="#c300ff" stroke="black" stroke-width="5"/>
<path d="M6994,7612 l2989,0 l0,585 l-2989,0 z" fill="#ff00fe" stroke="black" stroke-width="5"/>
<path d="M8102,4043 l1887,0 l0,649 l-1887,0 z" fill="#2d00ff" stroke="black" stroke-width="5"/>
<path d="M2301,8756 l1307,0 l0,724 l-1307,0 z" fill="#fe00ff" stroke="black" stroke-width="5"/>
<path d="M7388,3761 l709,0 l0,1334 l-709,0 z" fill="#fe00ff" stroke="black" stroke-width="5"/>
<path d="M8740,57 l1228,0 l0,464 l-1228,0 z" fill="#fe00ff" stroke="black" stroke-width="5"/>
<path d="M6405,894 l1091,0 l0,722 l-1091,0 z" fill="#fe00ff" stroke="black" stroke-width="5"/>
<path d="M1005,1924 l1227,0 l0,768 l-1227,0 z" fill="#ff00fe" stroke="black" stroke-width="5"/>
<path d="M34,7808 l729,0 l0,974 l-729,0 z" fill="#fe00ff" stroke="black" stroke-width="5"/>
<path d="M1952,3656 l2217,0 l0,1009 l-2217,0 z" fill="#a000ff" stroke="black" stroke-width="5"/>
<path d="M3610,7976 l1200,0 l0,2022 l-1200,0 z" fill="#ed00ff" stroke="black" stroke-width="5"/>
<path d="M5412,3146 l686,0 l0,722 l-686,0 z" fill="#3c00ff" stroke="black" stroke-width="5"/>
<path d="M4171,3873 l2281,0 l0,1767 l-2281,0 z" fill="#b600ff" stroke="black" stroke-width="5"/>
<path d="M1889,6635 l2964,0 l0,1337 l-2964,0 z" fill="#ff00fe" stroke="black" stroke-width="5"/>
<path d="M6992,8200 l3004,0 l0,387 l-3004,0 z" fill="#3a00ff" stroke="black" stroke-width="5"/>
<path d="M709,3398 l743,0 l0,342 l-743,0 z" fill="#ff00fe" stroke="black" stroke-width="5"/>
<path d="M8,6892 l747,0 l0,867 l-747,0 z" fill="#fe00ff" stroke="black" stroke-width="5"/>
<path d="M3,3748 l1947,0 l0,768 l-1947,0 z" fill="#ed00ff" stroke="black" stroke-width="5"/>
<path d="M7982,6608 l1215,0 l0,1003 l-1215,0 z" fill="#ff00fe" stroke="black" stroke-width="5"/>
<path d="M4349,5640 l681,0 l0,970 l-681,0 z" fill="#ff00fe" stroke="black" stroke-width="5"/>
<path d="M1537,2713 l2862,0 l0,942 l-2862,0 z" fill="#ff00fe" stroke="black" stroke-width="5"/>
<path d="M4669,2523 l738,0 l0,1342 l-738,0 z" fill="#fd00ff" stroke="black" stroke-width="5"/>
<path d="M1,883 l2729,0 l0,1038 l-2729,0 z" fill="#5600ff" stroke="black" stroke-width="5"/>
<path d="M773,7972 l2837,0 l0,783 l-2837,0 z" fill="#3200ff" stroke="black" stroke-width="5"/>
<path d="M4812,8435 l1888,0 l0,1562 l-1888,0 z" fill="#da00ff" stroke="black" stroke-width="5"/>
<path d="M7492,8587 l860,0 l0,569 l-860,0 z" fill="#0d00ff" stroke="black" stroke-width="5"/>
<path d="M1341,9230 l957,0 l0,25 l-957,0 z" fill="#ff00fe" stroke="black" stroke-width="5"/>
<path d="M4312,6176 l1,0 l0,1 l-1,0 z" fill="#0000ff" stroke="black" stroke-width="5"/>
<path d="M1879,330 l60,0 l0,60 l-60,0 z" fill="green"/>
<path d="M1909,360 l-141.5,79.5" stroke="black" stroke-width="5"/>
<path d="M5780,7061 l60,0 l0,60 l-60,0 z" fill="green"/>
<path d="M5810,7091 l657.5,-637" stroke="black" stroke-width="5"/>
<path d="M5377,392 l60,0 l0,60 l-60,0 z" fill="green"/>
<path d="M5407,422 l-145,-134" stroke="black" stroke-width="5"/>
<path d="M5737,3110 l60,0 l0,60 l-60,0 z" fill="green"/>
<path d="M5767,3140 l-49,-557.5" stroke="black" stroke-width="5"/>
<path d="M6629,3204 l60,0 l0,60 l-60,0 z" fill="green"/>
<path d="M6659,3234 l-98.5,-53" stroke="black" stroke-width="5"/>
<path d="M4176,1590 l60,0 l0,60 l-60,0 z" fill="green"/>
<path d="M4206,1620 l-26,-71" stroke="black" stroke-width="5"/>
<path d="M7823,9462 l60,0 l0,60 l-60,0 z" fill="green"/>
<path d="M7853,9492 l-5.5,30" stroke="black" stroke-width="5"/>
<path d="M7845,402 l60,0 l0,60 l-60,0 z" fill="green"/>
<path d="M7875,432 l-144.5,19" stroke="black" stroke-width="5"/>
<path d="M9018,5029 l60,0 l0,60 l-60,0 z" fill="green"/>
<path d="M9048,5059 l-26.5,172" stroke="black" stroke-width="5"/>
<path d="M7262,9040 l60,0 l0,60 l-60,0 z" fill="green"/>
<path d="M7292,9070 l-197.5,-33.5" stroke="black" stroke-width="5"/>
<path d="M7603,2466 l60,0 l0,60 l-60,0 z" fill="green"/>
<path d="M7633,2496 l-41.5,-117.5" stroke="black" stroke-width="5"/>
<path d="M391,4805 l60,0 l0,60 l-60,0 z" fill="green"/>
<path d="M421,4835 l317.5,299.5" stroke="black" stroke-width="5"/>
<path d="M7134,4079 l60,0 l0,60 l-60,0 z" fill="green"/>
<path d="M7164,4109 l-219.5,-25.5" stroke="black" stroke-width="5"/>
<path d="M5326,2241 l60,0 l0,60 l-60,0 z" fill="green"/>
<path d="M5356,2271 l-114.5,-6" stroke="black" stroke-width="5"/>
<path d="M5231,547 l60,0 l0,60 l-60,0 z" fill="green"/>
<path d="M5261,577 l203,463.5" stroke="black" stroke-width="5"/>
<path d="M3516,5195 l60,0 l0,60 l-60,0 z" fill="green"/>
<path d="M3546,5225 l-154.5,74.5" stroke="black" stroke-width="5"/>
<path d="M4637,3356 l60,0 l0,60 l-60,0 z" fill="green"/>
<path d="M4667,3386 l-14.5,-347" stroke="black" stroke-width="5"/>
<path d="M5566,7866 l60,0 l0,60 l-60,0 z" fill="green"/>
<path d="M5596,7896 l326,-44.5" stroke="black" stroke-width="5"/>
<path d="M2488,9783 l60,0 l0,60 l-60,0 z" fill="green"/>
<path d="M2518,9813 l-605.5,-74" stroke="black" stroke-width="5"/>
<path d="M8972,3883 l60,0 l0,60 l-60,0 z" fill="green"/>
<path d="M9002,3913 l182,-144.5" stroke="black" stroke-width="5"/>
<path d="M8544,8917 l60,0 l0,60 l-60,0 z" fill="green"/>
<path d="M8574,8947 l322,169.5" stroke="black" stroke-width="5"/>
<path d="M3088,1743 l60,0 l0,60 l-60,0 z" fill="green"/>
<path d="M3118,1773 l16,-52.5" stroke="black" stroke-width="5"/>
<path d="M7110,4358 l60,0 l0,60 l-60,0 z" fill="green"/>
<path d="M7140,4388 l-218.5,488" stroke="black" stroke-width="5"/>
<path d="M8514,8166 l60,0 l0,60 l-60,0 z" fill="green"/>
<path d="M8544,8196 l-55.5,-291.5" stroke="black" stroke-width="5"/>
<path d="M8547,4307 l60,0 l0,60 l-60,0 z" fill="green"/>
<path d="M8577,4337 l468.5,30.5" stroke="black" stroke-width="5"/>
<path d="M3125,9138 l60,0 l0,60 l-60,0 z" fill="green"/>
<path d="M3155,9168 l-200.5,-50" stroke="black" stroke-width="5"/>
<path d="M7793,4374 l60,0 l0,60 l-60,0 z" fill="green"/>
<path d="M7823,4404 l-80.5,24" stroke="black" stroke-width="5"/>
<path d="M9421,80 l60,0 l0,60 l-60,0 z" fill="green"/>
<path d="M9451,110 l-97,179" stroke="black" stroke-width="5"/>
<path d="M7001,1359 l60,0 l0,60 l-60,0 z" fill="green"/>
<path d="M7031,1389 l-80.5,-134" stroke="black" stroke-width="5"/>
<path d="M1811,2307 l60,0 l0,60 l-60,0 z" fill="green"/>
<path d="M1841,2337 l-222.5,-29" stroke="black" stroke-width="5"/>
<path d="M46,8334 l60,0 l0,60 l-60,0 z" fill="green"/>
<path d="M76,8364 l322.5,-69" stroke="black" stroke-width="5"/>
<path d="M3513,3901 l60,0 l0,60 l-60,0 z" fill="green"/>
<path d="M3543,3931 l-482.5,229.5" stroke="black" stroke-width="5"/>
<path d="M3897,8798 l60,0 l0,60 l-60,0 z" fill="green"/>
<path d="M3927,8828 l283,159" stroke="black" stroke-width="5"/>
<path d="M5641,3275 l60,0 l0,60 l-60,0 z" fill="green"/>
<path d="M5671,3305 l84,202" stroke="black" stroke-width="5"/>
<path d="M5512,4557 l60,0 l0,60 l-60,0 z" fill="green"/>
<path d="M5542,4587 l-230.5,169.5" stroke="black" stroke-width="5"/>
<path d="M4000,7702 l60,0 l0,60 l-60,0 z" fill="green"/>
<path d="M4030,7732 l-659,-428.5" stroke="black" stroke-width="5"/>
<path d="M8545,8170 l60,0 l0,60 l-60,0 z" fill="green"/>
<path d="M8575,8200 l-81,193.5" stroke="black" stroke-width="5"/>
<path d="M1109,3709 l60,0 l0,60 l-60,0 z" fill="green"/>
<path d="M1139,3739 l-58.5,-170" stroke="black" stroke-width="5"/>
<path d="M20,7385 l60,0 l0,60 l-60,0 z" fill="green"/>
<path d="M50,7415 l331.5,-89.5" stroke="black" stroke-width="5"/>
<path d="M904,4026 l60,0 l0,60 l-60,0 z" fill="green"/>
<path d="M934,4056 l42.5,76" stroke="black" stroke-width="5"/>
<path d="M8771,7148 l60,0 l0,60 l-60,0 z" fill="green"/>
<path d="M8801,7178 l-211.5,-68.5" stroke="black" stroke-width="5"/>
<path d="M4469,6177 l60,0 l0,60 l-60,0 z" fill="green"/>
<path d="M4499,6207 l190.5,-82" stroke="black" stroke-width="5"/>
<path d="M3066,3345 l60,0 l0,60 l-60,0 z" fill="green"/>
<path d="M3096,3375 l-128,-191" stroke="black" stroke-width="5"/>
<path d="M5222,3251 l60,0 l0,60 l-60,0 z" fill="green"/>
<path d="M5252,3281 l-214,-87" stroke="black" stroke-width="5"/>
<path d="M2217,1416 l60,0 l0,60 l-60,0 z" fill="green"/>
<path d="M2247,1446 l-881.5,-44" stroke="black" stroke-width="5"/>
<path d="M3317,8471 l60,0 l0,60 l-60,0 z" fill="green"/>
<path d="M3347,8501 l-1155.5,-137.5" stroke="black" stroke-width="5"/>
<path d="M5761,8570 l60,0 l0,60 l-60,0 z" fill="green"/>
<path d="M5791,8600 l-35,616" stroke="black" stroke-width="5"/>
<path d="M8003,8962 l60,0 l0,60 l-60,0 z" fill="green"/>
<path d="M8033,8992 l-111,-120.5" stroke="black" stroke-width="5"/>
<path d="M2267,9224 l60,0 l0,60 l-60,0 z" fill="green"/>
<path d="M2297,9254 l-477.5,-11.5" stroke="black" stroke-width="5"/>
<path d="M4282,6146 l60,0 l0,60 l-60,0 z" fill="green"/>
<path d="M4312,6176 l0.5,0.5" stroke="black" stroke-width="5"/>
<text font-size="200" text-anchor="middle" x="1767.5" y="509.5">
0
</text>
<text font-size="200" text-anchor="middle" x="6467.5" y="6524">
1
</text>
<text font-size="200" text-anchor="middle" x="5262" y="358">
2
</text>
<text font-size="200" text-anchor="middle" x="5718" y="2652.5">
3
</text>
<text font-size="200" text-anchor="middle" x="6560.5" y="3251">
4
</text>
<text font-size="200" text-anchor="middle" x="4180" y="1619">
5
</text>
<text font-size="200" text-anchor="middle" x="7847.5" y="9592">
6
</text>
<text font-size="200" text-anchor="middle" x="7730.5" y="521">
7
</text>
<text font-size="200" text-anchor="middle" x="9021.5" y="5301">
8
</text>
<text font-size="200" text-anchor="middle" x="7094.5" y="9106.5">
9
</text>
<text font-size="200" text-anchor="middle" x="7591.5" y="2448.5">
10
</text>
<text font-size="200" text-anchor="middle" x="738.5" y="5204.5">
11
</text>
<text font-size="200" text-anchor="middle" x="6944.5" y="4153.5">
12
</text>
<text font-size="200" text-anchor="middle" x="5241.5" y="2335">
13
</text>
<text font-size="200" text-anchor="middle" x="5464" y="1110.5">
14
</text>
<text font-size="200" text-anchor="middle" x="3391.5" y="5369.5">
15
</text>
<text font-size="200" text-anchor="middle" x="4652.5" y="3109">
16
</text>
<text font-size="200" text-anchor="middle" x="5922" y="7921.5">
17
</text>
<text font-size="200" text-anchor="middle" x="1912.5" y="9809">
18
</text>
<text font-size="200" text-anchor="middle" x="9184" y="3838.5">
19
</text>
<text font-size="200" text-anchor="middle" x="8896" y="9186.5">
20
</text>
<text font-size="200" text-anchor="middle" x="3134" y="1790.5">
21
</text>
<text font-size="200" text-anchor="middle" x="6921.5" y="4946">
22
</text>
<text font-size="200" text-anchor="middle" x="8488.5" y="7974.5">
23
</text>
<text font-size="200" text-anchor="middle" x="9045.5" y="4437.5">
24
</text>
<text font-size="200" text-anchor="middle" x="2954.5" y="9188">
25
</text>
<text font-size="200" text-anchor="middle" x="7742.5" y="4498">
26
</text>
<text font-size="200" text-anchor="middle" x="9354" y="359">
27
</text>
<text font-size="200" text-anchor="middle" x="6950.5" y="1325">
28
</text>
<text font-size="200" text-anchor="middle" x="1618.5" y="2378">
29
</text>
<text font-size="200" text-anchor="middle" x="398.5" y="8365">
30
</text>
<text font-size="200" text-anchor="middle" x="3060.5" y="4230.5">
31
</text>
<text font-size="200" text-anchor="middle" x="4210" y="9057">
32
</text>
<text font-size="200" text-anchor="middle" x="5755" y="3577">
33
</text>
<text font-size="200" text-anchor="middle" x="5311.5" y="4826.5">
34
</text>
<text font-size="200" text-anchor="middle" x="3371" y="7373.5">
35
</text>
<text font-size="200" text-anchor="middle" x="8494" y="8463.5">
36
</text>
<text font-size="200" text-anchor="middle" x="1080.5" y="3639">
37
</text>
<text font-size="200" text-anchor="middle" x="381.5" y="7395.5">
38
</text>
<text font-size="200" text-anchor="middle" x="976.5" y="4202">
39
</text>
<text font-size="200" text-anchor="middle" x="8589.5" y="7179.5">
40
</text>
<text font-size="200" text-anchor="middle" x="4689.5" y="6195">
41
</text>
<text font-size="200" text-anchor="middle" x="2968" y="3254">
42
</text>
<text font-size="200" text-anchor="middle" x="5038" y="3264">
43
</text>
<text font-size="200" text-anchor="middle" x="1365.5" y="1472">
44
</text>
<text font-size="200" text-anchor="middle" x="2191.5" y="8433.5">
45
</text>
<text font-size="200" text-anchor="middle" x="5756" y="9286">
46
</text>
<text font-size="200" text-anchor="middle" x="7922" y="8941.5">
47
</text>
<text font-size="200" text-anchor="middle" x="1819.5" y="9312.5">
48
</text>
<text font-size="200" text-anchor="middle" x="4312.5" y="6246.5">
49
</text>
</svg>