<svg viewBox="-100 -100 10200 10200" xmlns="http://www.w3.org/2000/svg">
<path d="M0,0 l10000,0 l0,10000 l-10000,0 z" fill="white"/>
<path d="M503,6 l2702,0 l0,865 l-2702,0 z" fill="#4900ff" stroke="black" stroke-width="5"/>
<path d="M5019,5591 l2324,0 l0,1704 l-2324,0 z" fill="#f100ff" stroke="black" stroke-width="5"/>
<path d="M4245,2 l2198,0 l0,573 l-2198,0 z" fill="#b000ff" stroke="black" stroke-width="5"/>
<path d="M5397,2291 l640,0 l0,850 l-640,0 z" fill="#e600ff" stroke="black" stroke-width="5"/>
<path d="M6039,2724 l963,0 l0,956 l-963,0 z" fill="#ff00fe" stroke="black" stroke-width="5"/>
<path d="M3539,579 l1282,0 l0,1940 l-1282,0 z" fill="#fe00ff" stroke="black" stroke-width="5"/>
<path d="M7546,9157 l603,0 l0,730 l-603,0 z" fill="#ff00fe" stroke="black" stroke-width="5"/>
<path d="M7295,120 l841,0 l0,697 l-841,0 z" fill="#ff00fe" stroke="black" stroke-width="5"/>
<path d="M8133,4623 l1661,0 l0,1087 l-1661,0 z" fill="#ff00fe" stroke="black" stroke-width="5"/>
<path d="M6701,8713 l787,0 l0,647 l-787,0 z" fill="#fe00ff" stroke="black" stroke-width="5"/>
<path d="M7028,1687 l1127,0 l0,1383 l-1127,0 z" fill="#ff00fe" stroke="black" stroke-width="5"/>
<path d="M5,4518 l1467,0 l0,1233 l-1467,0 z" fill="#ff00fe" stroke="black" stroke-width="5"/>
<path d="M7154,3977 l179,0 l0,196 l-179,0 z" fill="#ff00fe" stroke="black" stroke-width="5"/>
<path d="M5190,2075 l377,0 l0,208 l-377,0 z" fill="#fe00ff" stroke="black" stroke-width="5"/>
<path d="M4860,577 l1064,0 l0,913 l-1064,0 z" fill="#ff00fe" stroke="black" stroke-width="5"/>
<path d="M2687,4567 l1399,0 l0,1338 l-1399,0 z" fill="#fe00ff" stroke="black" stroke-width="5"/>
<path d="M4616,3197 l139,0 l0,207 l-139,0 z" fill="#fe00ff" stroke="black" stroke-width="5"/>
<path d="M4845,7308 l1907,0 l0,1082 l-1907,0 z" fill="#af00ff" stroke="black" stroke-width="5"/>
<path d="M1388,9480 l2094,0 l0,517 l-2094,0 z" fill="#af00ff" stroke="black" stroke-width="5"/>
<path d="M8877,3496 l614,0 l0,545 l-614,0 z" fill="#ff00fe" stroke="black" stroke-width="5"/>
<path d="M8327,8536 l1116,0 l0,992 l-1116,0 z" fill="#ff00fe" stroke="black" stroke-width="5"/>
<path d="M2668,1369 l869,0 l0,771 l-869,0 z" fill="#ff00fe" stroke="black" stroke-width="5"/>
<path d="M6428,4173 l942,0 l0,1199 l-942,0 z" fill="#8e00ff" stroke="black" stroke-width="5"/>
<path d="M7278,7669 l2617,0 l0,531 l-2617,0 z" fill="#e600ff" stroke="black" stroke-width="5"/>
<path d="M8114,4041 l1160,0 l0,581 l-1160,0 z" fill="#0e00ff" stroke="black" stroke-width="5"/>
<path d="M2352,8741 l1250,0 l0,738 l-1250,0 z" fill="#fd00ff" stroke="black" stroke-width="5"/>
<path d="M7374,3821 l740,0 l0,1278 l-740,0 z" fill="#fe00ff" stroke="black" stroke-width="5"/>
<path d="M8870,48 l1071,0 l0,532 l-1071,0 z" fill="#fe00ff" stroke="black" stroke-width="5"/>
<path d="M6441,917 l1023,0 l0,770 l-1023,0 z" fill="#fe00ff" stroke="black" stroke-width="5"/>
<path d="M1066,1871 l1127,0 l0,836 l-1127,0 z" fill="#fe00ff" stroke="black" stroke-width="5"/>
<path d="M52,7765 l739,0 l0,961 l-739,0 z" fill="#ff00fe" stroke="black" stroke-width="5"/>
<path d="M2124,3664 l2068,0 l0,902 l-2068,0 z" fill="#7900ff" stroke="black" stroke-width="5"/>
<path d="M3608,7980 l1188,0 l0,2012 l-1188,0 z" fill="#ea00ff" stroke="black" stroke-width="5"/>
<path d="M5399,3148 l639,0 l0,700 l-639,0 z" fill="#3200ff" stroke="black" stroke-width="5"/>
<path d="M4199,3850 l2228,0 l0,1738 l-2228,0 z" fill="#ac00ff" stroke="black" stroke-width="5"/>
<path d="M2068,6602 l2762,0 l0,1368 l-2762,0 z" fill="#fd00ff" stroke="black" stroke-width="5"/>
<path d="M7263,8200 l2133,0 l0,299 l-2133,0 z" fill="#1200ff" stroke="black" stroke-width="5"/>
<path d="M943,3411 l545,0 l0,466 l-545,0 z" fill="#fe00ff" stroke="black" stroke-width="5"/>
<path d="M8,6892 l747,0 l0,867 l-747,0 z" fill="#fe00ff" stroke="black" stroke-width="5"/>
<path d="M10,3880 l1990,0 l0,632 l-1990,0 z" fill="#c900ff" stroke="black" stroke-width="5"/>
<path d="M8009,6597 l1139,0 l0,1070 l-1139,0 z" fill="#ff00fe" stroke="black" stroke-width="5"/>
<path d="M4337,5613 l670,0 l0,986 l-670,0 z" fill="#ff00fe" stroke="black" stroke-width="5"/>
<path d="M1576,2709 l2830,0 l0,953 l-2830,0 z" fill="#ff00fe" stroke="black" stroke-width="5"/>
<path d="M4758,2530 l628,0 l0,1305 l-628,0 z" fill="#e200ff" stroke="black" stroke-width="5"/>
<path d="M764,875 l1888,0 l0,981 l-1888,0 z" fill="#2700ff" stroke="black" stroke-width="5"/>
<path d="M2034,7974 l1568,0 l0,762 l-1568,0 z" fill="#0f00ff" stroke="black" stroke-width="5"/>
<path d="M4803,8391 l1891,0 l0,1605 l-1891,0 z" fill="#e000ff" stroke="black" stroke-width="5"/>
<path d="M7490,8499 l833,0 l0,652 l-833,0 z" fill="#1000ff" stroke="black" stroke-width="5"/>
<path d="M2143,9240 l202,0 l0,118 l-202,0 z" fill="#ff00fe" stroke="black" stroke-width="5"/>
<path d="M4312,6176 l1,0 l0,1 l-1,0 z" fill="#0000ff" stroke="black" stroke-width="5"/>
<path d="M1879,330 l60,0 l0,60 l-60,0 z" fill="green"/>
<path d="M1909,360 l-55,78.5" stroke="black" stroke-width="5"/>
<path d="M5780,7061 l60,0 l0,60 l-60,0 z" fill="green"/>
<path d="M5810,7091 l371,-648" stroke="black" stroke-width="5"/>
<path d="M5377,392 l60,0 l0,60 l-60,0 z" fill="green"/>
<path d="M5407,422 l-63,-133.5" stroke="black" stroke-width="5"/>
<path d="M5737,3110 l60,0 l0,60 l-60,0 z" fill="green"/>
<path d="M5767,3140 l-50,-424" stroke="black" stroke-width="5"/>
<path d="M6629,3204 l60,0 l0,60 l-60,0 z" fill="green"/>
<path d="M6659,3234 l-138.5,-32" stroke="black" stroke-width="5"/>
<path d="M4176,1590 l60,0 l0,60 l-60,0 z" fill="green"/>
<path d="M4206,1620 l-26,-71" stroke="black" stroke-width="5"/>
<path d="M7823,9462 l60,0 l0,60 l-60,0 z" fill="green"/>
<path d="M7853,9492 l-5.5,30" stroke="black" stroke-width="5"/>
<path d="M7845,402 l60,0 l0,60 l-60,0 z" fill="green"/>
<path d="M7875,432 l-159.5,36.5" stroke="black" stroke-width="5"/>
<path d="M9018,5029 l60,0 l0,60 l-60,0 z" fill="green"/>
<path d="M9048,5059 l-84.5,107.5" stroke="black" stroke-width="5"/>
<path d="M7262,9040 l60,0 l0,60 l-60,0 z" fill="green"/>
<path d="M7292,9070 l-197.5,-33.5" stroke="black" stroke-width="5"/>
<path d="M7603,2466 l60,0 l0,60 l-60,0 z" fill="green"/>
<path d="M7633,2496 l-41.5,-117.5" stroke="black" stroke-width="5"/>
<path d="M391,4805 l60,0 l0,60 l-60,0 z" fill="green"/>
<path d="M421,4835 l317.5,299.5" stroke="black" stroke-width="5"/>
<path d="M7134,4079 l60,0 l0,60 l-60,0 z" fill="green"/>
<path d="M7164,4109 l79.5,-34" stroke="black" stroke-width="5"/>
<path d="M5326,2241 l60,0 l0,60 l-60,0 z" fill="green"/>
<path d="M5356,2271 l22.5,-92" stroke="black" stroke-width="5"/>
<path d="M5231,547 l60,0 l0,60 l-60,0 z" fill="green"/>
<path d="M5261,577 l131,456.5" stroke="black" stroke-width="5"/>
<path d="M3516,5195 l60,0 l0,60 l-60,0 z" fill="green"/>
<path d="M3546,5225 l-159.5,11" stroke="black" stroke-width="5"/>
<path d="M4637,3356 l60,0 l0,60 l-60,0 z" fill="green"/>
<path d="M4667,3386 l18.5,-85.5" stroke="black" stroke-width="5"/>
<path d="M5566,7866 l60,0 l0,60 l-60,0 z" fill="green"/>
<path d="M5596,7896 l202.5,-47" stroke="black" stroke-width="5"/>
<path d="M2488,9783 l60,0 l0,60 l-60,0 z" fill="green"/>
<path d="M2518,9813 l-83,-74.5" stroke="black" stroke-width="5"/>
<path d="M8972,3883 l60,0 l0,60 l-60,0 z" fill="green"/>
<path d="M9002,3913 l182,-144.5" stroke="black" stroke-width="5"/>
<path d="M8544,8917 l60,0 l0,60 l-60,0 z" fill="green"/>
<path d="M8574,8947 l311,85" stroke="black" stroke-width="5"/>
<path d="M3088,1743 l60,0 l0,60 l-60,0 z" fill="green"/>
<path d="M3118,1773 l-15.5,-18.5" stroke="black" stroke-width="5"/>
<path d="M7110,4358 l60,0 l0,60 l-60,0 z" fill="green"/>
<path d="M7140,4388 l-241,384.5" stroke="black" stroke-width="5"/>
<path d="M8514,8166 l60,0 l0,60 l-60,0 z" fill="green"/>
<path d="M8544,8196 l42.5,-261.5" stroke="black" stroke-width="5"/>
<path d="M8547,4307 l60,0 l0,60 l-60,0 z" fill="green"/>
<path d="M8577,4337 l117,-5.5" stroke="black" stroke-width="5"/>
<path d="M3125,9138 l60,0 l0,60 l-60,0 z" fill="green"/>
<path d="M3155,9168 l-178,-58" stroke="black" stroke-width="5"/>
<path d="M7793,4374 l60,0 l0,60 l-60,0 z" fill="green"/>
<path d="M7823,4404 l-79,56" stroke="black" stroke-width="5"/>
<path d="M9421,80 l60,0 l0,60 l-60,0 z" fill="green"/>
<path d="M9451,110 l-45.5,204" stroke="black" stroke-width="5"/>
<path d="M7001,1359 l60,0 l0,60 l-60,0 z" fill="green"/>
<path d="M7031,1389 l-78.5,-87" stroke="black" stroke-width="5"/>
<path d="M1811,2307 l60,0 l0,60 l-60,0 z" fill="green"/>
<path d="M1841,2337 l-211.5,-48" stroke="black" stroke-width="5"/>
<path d="M46,8334 l60,0 l0,60 l-60,0 z" fill="green"/>
<path d="M76,8364 l345.5,-118.5" stroke="black" stroke-width="5"/>
<path d="M3513,3901 l60,0 l0,60 l-60,0 z" fill="green"/>
<path d="M3543,3931 l-385,184" stroke="black" stroke-width="5"/>
<path d="M3897,8798 l60,0 l0,60 l-60,0 z" fill="green"/>
<path d="M3927,8828 l275,158" stroke="black" stroke-width="5"/>
<path d="M5641,3275 l60,0 l0,60 l-60,0 z" fill="green"/>
<path d="M5671,3305 l47.5,193" stroke="black" stroke-width="5"/>
<path d="M5512,4557 l60,0 l0,60 l-60,0 z" fill="green"/>
<path d="M5542,4587 l-229,132" stroke="black" stroke-width="5"/>
<path d="M4000,7702 l60,0 l0,60 l-60,0 z" fill="green"/>
<path d="M4030,7732 l-581,-446" stroke="black" stroke-width="5"/>
<path d="M8545,8170 l60,0 l0,60 l-60,0 z" fill="green"/>
<path d="M8575,8200 l-245.5,149.5" stroke="black" stroke-width="5"/>
<path d="M1109,3709 l60,0 l0,60 l-60,0 z" fill="green"/>
<path d="M1139,3739 l76.5,-95" stroke="black" stroke-width="5"/>
<path d="M20,7385 l60,0 l0,60 l-60,0 z" fill="green"/>
<path d="M50,7415 l331.5,-89.5" stroke="black" stroke-width="5"/>
<path d="M904,4026 l60,0 l0,60 l-60,0 z" fill="green"/>
<path d="M934,4056 l71,140" stroke="black" stroke-width="5"/>
<path d="M8771,7148 l60,0 l0,60 l-60,0 z" fill="green"/>
<path d="M8801,7178 l-222.5,-46" stroke="black" stroke-width="5"/>
<path d="M4469,6177 l60,0 l0,60 l-60,0 z" fill="green"/>
<path d="M4499,6207 l173,-101" stroke="black" stroke-width="5"/>
<path d="M3066,3345 l60,0 l0,60 l-60,0 z" fill="green"/>
<path d="M3096,3375 l-105,-189.5" stroke="black" stroke-width="5"/>
<path d="M5222,3251 l60,0 l0,60 l-60,0 z" fill="green"/>
<path d="M5252,3281 l-180,-98.5" stroke="black" stroke-width="5"/>
<path d="M2217,1416 l60,0 l0,60 l-60,0 z" fill="green"/>
<path d="M2247,1446 l-539,-80.5" stroke="black" stroke-width="5"/>
<path d="M3317,8471 l60,0 l0,60 l-60,0 z" fill="green"/>
<path d="M3347,8501 l-529,-146" stroke="black" stroke-width="5"/>
<path d="M5761,8570 l60,0 l0,60 l-60,0 z" fill="green"/>
<path d="M5791,8600 l-42.5,593.5" stroke="black" stroke-width="5"/>
<path d="M8003,8962 l60,0 l0,60 l-60,0 z" fill="green"/>
<path d="M8033,8992 l-126.5,-167" stroke="black" stroke-width="5"/>
<path d="M2267,9224 l60,0 l0,60 l-60,0 z" fill="green"/>
<path d="M2297,9254 l-53,45" stroke="black" stroke-width="5"/>
<path d="M4282,6146 l60,0 l0,60 l-60,0 z" fill="green"/>
<path d="M4312,6176 l0.5,0.5" stroke="black" stroke-width="5"/>
<text font-size="200" text-anchor="middle" x="1854" y="508.5">
0
</text>
<text font-size="200" text-anchor="middle" x="6181" y="6513">
1
</text>
<text font-size="200" text-anchor="middle" x="5344" y="358.5">
2
</text>
<text font-size="200" text-anchor="middle" x="5717" y="2786">
3
</text>
<text font-size="200" text-anchor="middle" x="6520.5" y="3272">
4
</text>
<text font-size="200" text-anchor="middle" x="4180" y="1619">
5
</text>
<text font-size="200" text-anchor="middle" x="7847.5" y="9592">
6
</text>
<text font-size="200" text-anchor="middle" x="7715.5" y="538.5">
7
</text>
<text font-size="200" text-anchor="middle" x="8963.5" y="5236.5">
8
</text>
<text font-size="200" text-anchor="middle" x="7094.5" y="9106.5">
9
</text>
<text font-size="200" text-anchor="middle" x="7591.5" y="2448.5">
10
</text>
<text font-size="200" text-anchor="middle" x="738.5" y="5204.5">
11
</text>
<text font-size="200" text-anchor="middle" x="7243.5" y="4145">
12
</text>
<text font-size="200" text-anchor="middle" x="5378.5" y="2249">
13
</text>
<text font-size="200" text-anchor="middle" x="5392" y="1103.5">
14
</text>
<text font-size="200" text-anchor="middle" x="3386.5" y="5306">
15
</text>
<text font-size="200" text-anchor="middle" x="4685.5" y="3370.5">
16
</text>
<text font-size="200" text-anchor="middle" x="5798.5" y="7919">
17
</text>
<text font-size="200" text-anchor="middle" x="2435" y="9808.5">
18
</text>
<text font-size="200" text-anchor="middle" x="9184" y="3838.5">
19
</text>
<text font-size="200" text-anchor="middle" x="8885" y="9102">
20
</text>
<text font-size="200" text-anchor="middle" x="3102.5" y="1824.5">
21
</text>
<text font-size="200" text-anchor="middle" x="6899" y="4842.5">
22
</text>
<text font-size="200" text-anchor="middle" x="8586.5" y="8004.5">
23
</text>
<text font-size="200" text-anchor="middle" x="8694" y="4401.5">
24
</text>
<text font-size="200" text-anchor="middle" x="2977" y="9180">
25
</text>
<text font-size="200" text-anchor="middle" x="7744" y="4530">
26
</text>
<text font-size="200" text-anchor="middle" x="9405.5" y="384">
27
</text>
<text font-size="200" text-anchor="middle" x="6952.5" y="1372">
28
</text>
<text font-size="200" text-anchor="middle" x="1629.5" y="2359">
29
</text>
<text font-size="200" text-anchor="middle" x="421.5" y="8315.5">
30
</text>
<text font-size="200" text-anchor="middle" x="3158" y="4185">
31
</text>
<text font-size="200" text-anchor="middle" x="4202" y="9056">
32
</text>
<text font-size="200" text-anchor="middle" x="5718.5" y="3568">
33
</text>
<text font-size="200" text-anchor="middle" x="5313" y="4789">
34
</text>
<text font-size="200" text-anchor="middle" x="3449" y="7356">
35
</text>
<text font-size="200" text-anchor="middle" x="8329.5" y="8419.5">
36
</text>
<text font-size="200" text-anchor="middle" x="1215.5" y="3714">
37
</text>
<text font-size="200" text-anchor="middle" x="381.5" y="7395.5">
38
</text>
<text font-size="200" text-anchor="middle" x="1005" y="4266">
39
</text>
<text font-size="200" text-anchor="middle" x="8578.5" y="7202">
40
</text>
<text font-size="200" text-anchor="middle" x="4672" y="6176">
41
</text>
<text font-size="200" text-anchor="middle" x="2991" y="3255.5">
42
</text>
<text font-size="200" text-anchor="middle" x="5072" y="3252.5">
43
</text>
<text font-size="200" text-anchor="middle" x="1708" y="1435.5">
44
</text>
<text font-size="200" text-anchor="middle" x="2818" y="8425">
45
</text>
<text font-size="200" text-anchor="middle" x="5748.5" y="9263.5">
46
</text>
<text font-size="200" text-anchor="middle" x="7906.5" y="8895">
47
</text>
<text font-size="200" text-anchor="middle" x="2244" y="9369">
48
</text>
<text font-size="200" text-anchor="middle" x="4312.5" y="6246.5">
49
</text>
</svg>