<svg viewBox="-100 -100 10200 10200" xmlns="http://www.w3.org/2000/svg">
<path d="M0,0 l10000,0 l0,10000 l-10000,0 z" fill="white"/>
<path d="M1,1 l3531,0 l0,920 l-3531,0 z" fill="#8000ff" stroke="black" stroke-width="5"/>
<path d="M5034,5641 l2867,0 l0,1626 l-2867,0 z" fill="#ff00fe" stroke="black" stroke-width="5"/>
<path d="M3535,2 l3539,0 l0,568 l-3539,0 z" fill="#ff00fe" stroke="black" stroke-width="5"/>
<path d="M5462,2031 l614,0 l0,1110 l-614,0 z" fill="#ff00fe" stroke="black" stroke-width="5"/>
<path d="M6102,2679 l917,0 l0,1004 l-917,0 z" fill="#ff00fe" stroke="black" stroke-width="5"/>
<path d="M3539,579 l1282,0 l0,1940 l-1282,0 z" fill="#fe00ff" stroke="black" stroke-width="5"/>
<path d="M7493,9295 l650,0 l0,677 l-650,0 z" fill="#fe00ff" stroke="black" stroke-width="5"/>
<path d="M7303,147 l803,0 l0,730 l-803,0 z" fill="#ff00fe" stroke="black" stroke-width="5"/>
<path d="M8184,4692 l1675,0 l0,1078 l-1675,0 z" fill="#ff00fe" stroke="black" stroke-width="5"/>
<path d="M6733,8692 l691,0 l0,737 l-691,0 z" fill="#ff00fe" stroke="black" stroke-width="5"/>
<path d="M7028,1687 l1127,0 l0,1383 l-1127,0 z" fill="#ff00fe" stroke="black" stroke-width="5"/>
<path d="M5,4518 l1467,0 l0,1233 l-1467,0 z" fill="#ff00fe" stroke="black" stroke-width="5"/>
<path d="M6748,4058 l562,0 l0,62 l-562,0 z" fill="#fe00ff" stroke="black" stroke-width="5"/>
<path d="M5170,1962 l228,0 l0,344 l-228,0 z" fill="#fe00ff" stroke="black" stroke-width="5"/>
<path d="M4875,577 l1110,0 l0,875 l-1110,0 z" fill="#fe00ff" stroke="black" stroke-width="5"/>
<path d="M2654,4665 l1475,0 l0,1269 l-1475,0 z" fill="#fe00ff" stroke="black" stroke-width="5"/>
<path d="M4472,3240 l196,0 l0,147 l-196,0 z" fill="#ff00fe" stroke="black" stroke-width="5"/>
<path d="M4856,7268 l2139,0 l0,1178 l-2139,0 z" fill="#dc00ff" stroke="black" stroke-width="5"/>
<path d="M175,9487 l3390,0 l0,513 l-3390,0 z" fill="#fe00ff" stroke="black" stroke-width="5"/>
<path d="M8763,3446 l715,0 l0,468 l-715,0 z" fill="#ff00ff" stroke="black" stroke-width="5"/>
<path d="M8356,8604 l1080,0 l0,1025 l-1080,0 z" fill="#fe00ff" stroke="black" stroke-width="5"/>
<path d="M2741,1145 l770,0 l0,870 l-770,0 z" fill="#ff00fe" stroke="black" stroke-width="5"/>
<path d="M6429,4122 l972,0 l0,1519 l-972,0 z" fill="#cb00ff" stroke="black" stroke-width="5"/>
<path d="M7083,7580 l2824,0 l0,617 l-2824,0 z" fill="#fe00ff" stroke="black" stroke-width="5"/>
<path d="M8097,3918 l1896,0 l0,772 l-1896,0 z" fill="#3e00ff" stroke="black" stroke-width="5"/>
<path d="M2299,8760 l1313,0 l0,726 l-1313,0 z" fill="#fe00ff" stroke="black" stroke-width="5"/>
<path d="M7401,3785 l693,0 l0,1365 l-693,0 z" fill="#ff00fe" stroke="black" stroke-width="5"/>
<path d="M8623,87 l1301,0 l0,438 l-1301,0 z" fill="#fe00ff" stroke="black" stroke-width="5"/>
<path d="M6410,881 l1097,0 l0,718 l-1097,0 z" fill="#fe00ff" stroke="black" stroke-width="5"/>
<path d="M726,2098 l1507,0 l0,625 l-1507,0 z" fill="#fe00ff" stroke="black" stroke-width="5"/>
<path d="M34,7808 l729,0 l0,974 l-729,0 z" fill="#fe00ff" stroke="black" stroke-width="5"/>
<path d="M1939,3634 l2195,0 l0,1029 l-2195,0 z" fill="#a200ff" stroke="black" stroke-width="5"/>
<path d="M3613,7972 l1172,0 l0,2019 l-1172,0 z" fill="#e800ff" stroke="black" stroke-width="5"/>
<path d="M5434,3145 l664,0 l0,724 l-664,0 z" fill="#3900ff" stroke="black" stroke-width="5"/>
<path d="M4138,3870 l2289,0 l0,1770 l-2289,0 z" fill="#b700ff" stroke="black" stroke-width="5"/>
<path d="M1889,6635 l2964,0 l0,1337 l-2964,0 z" fill="#ff00fe" stroke="black" stroke-width="5"/>
<path d="M6995,8200 l3004,0 l0,404 l-3004,0 z" fill="#3f00ff" stroke="black" stroke-width="5"/>
<path d="M706,3392 l730,0 l0,348 l-730,0 z" fill="#ff00fe" stroke="black" stroke-width="5"/>
<path d="M39,6902 l838,0 l0,773 l-838,0 z" fill="#ff00fe" stroke="black" stroke-width="5"/>
<path d="M3,3742 l1933,0 l0,774 l-1933,0 z" fill="#ed00ff" stroke="black" stroke-width="5"/>
<path d="M7948,6605 l1251,0 l0,974 l-1251,0 z" fill="#fe00ff" stroke="black" stroke-width="5"/>
<path d="M4349,5640 l681,0 l0,970 l-681,0 z" fill="#ff00fe" stroke="black" stroke-width="5"/>
<path d="M1437,2724 l2979,0 l0,905 l-2979,0 z" fill="#ff00fe" stroke="black" stroke-width="5"/>
<path d="M4669,2521 l762,0 l0,1344 l-762,0 z" fill="#fe00ff" stroke="black" stroke-width="5"/>
<path d="M8,924 l2728,0 l0,1173 l-2728,0 z" fill="#6a00ff" stroke="black" stroke-width="5"/>
<path d="M770,7972 l2843,0 l0,783 l-2843,0 z" fill="#3200ff" stroke="black" stroke-width="5"/>
<path d="M4789,8446 l1938,0 l0,1554 l-1938,0 z" fill="#df00ff" stroke="black" stroke-width="5"/>
<path d="M7425,8606 l921,0 l0,688 l-921,0 z" fill="#1500ff" stroke="black" stroke-width="5"/>
<path d="M1705,9231 l594,0 l0,40 l-594,0 z" fill="#fe00ff" stroke="black" stroke-width="5"/>
<path d="M4312,6176 l1,0 l0,1 l-1,0 z" fill="#0000ff" stroke="black" stroke-width="5"/>
<path d="M1879,330 l60,0 l0,60 l-60,0 z" fill="green"/>
<path d="M1909,360 l-142.5,101" stroke="black" stroke-width="5"/>
<path d="M5780,7061 l60,0 l0,60 l-60,0 z" fill="green"/>
<path d="M5810,7091 l657.5,-637" stroke="black" stroke-width="5"/>
<path d="M5377,392 l60,0 l0,60 l-60,0 z" fill="green"/>
<path d="M5407,422 l-102.5,-136" stroke="black" stroke-width="5"/>
<path d="M5737,3110 l60,0 l0,60 l-60,0 z" fill="green"/>
<path d="M5767,3140 l2,-554" stroke="black" stroke-width="5"/>
<path d="M6629,3204 l60,0 l0,60 l-60,0 z" fill="green"/>
<path d="M6659,3234 l-98.5,-53" stroke="black" stroke-width="5"/>
<path d="M4176,1590 l60,0 l0,60 l-60,0 z" fill="green"/>
<path d="M4206,1620 l-26,-71" stroke="black" stroke-width="5"/>
<path d="M7823,9462 l60,0 l0,60 l-60,0 z" fill="green"/>
<path d="M7853,9492 l-35,141.5" stroke="black" stroke-width="5"/>
<path d="M7845,402 l60,0 l0,60 l-60,0 z" fill="green"/>
<path d="M7875,432 l-170.5,80" stroke="black" stroke-width="5"/>
<path d="M9018,5029 l60,0 l0,60 l-60,0 z" fill="green"/>
<path d="M9048,5059 l-26.5,172" stroke="black" stroke-width="5"/>
<path d="M7262,9040 l60,0 l0,60 l-60,0 z" fill="green"/>
<path d="M7292,9070 l-213.5,-9.5" stroke="black" stroke-width="5"/>
<path d="M7603,2466 l60,0 l0,60 l-60,0 z" fill="green"/>
<path d="M7633,2496 l-41.5,-117.5" stroke="black" stroke-width="5"/>
<path d="M391,4805 l60,0 l0,60 l-60,0 z" fill="green"/>
<path d="M421,4835 l317.5,299.5" stroke="black" stroke-width="5"/>
<path d="M7134,4079 l60,0 l0,60 l-60,0 z" fill="green"/>
<path d="M7164,4109 l-135,-20" stroke="black" stroke-width="5"/>
<path d="M5326,2241 l60,0 l0,60 l-60,0 z" fill="green"/>
<path d="M5356,2271 l-72,-137" stroke="black" stroke-width="5"/>
<path d="M5231,547 l60,0 l0,60 l-60,0 z" fill="green"/>
<path d="M5261,577 l169,437.5" stroke="black" stroke-width="5"/>
<path d="M3516,5195 l60,0 l0,60 l-60,0 z" fill="green"/>
<path d="M3546,5225 l-154.5,74.5" stroke="black" stroke-width="5"/>
<path d="M4637,3356 l60,0 l0,60 l-60,0 z" fill="green"/>
<path d="M4667,3386 l-97,-72.5" stroke="black" stroke-width="5"/>
<path d="M5566,7866 l60,0 l0,60 l-60,0 z" fill="green"/>
<path d="M5596,7896 l329.5,-39" stroke="black" stroke-width="5"/>
<path d="M2488,9783 l60,0 l0,60 l-60,0 z" fill="green"/>
<path d="M2518,9813 l-648,-69.5" stroke="black" stroke-width="5"/>
<path d="M8972,3883 l60,0 l0,60 l-60,0 z" fill="green"/>
<path d="M9002,3913 l118.5,-233" stroke="black" stroke-width="5"/>
<path d="M8544,8917 l60,0 l0,60 l-60,0 z" fill="green"/>
<path d="M8574,8947 l322,169.5" stroke="black" stroke-width="5"/>
<path d="M3088,1743 l60,0 l0,60 l-60,0 z" fill="green"/>
<path d="M3118,1773 l8,-193" stroke="black" stroke-width="5"/>
<path d="M7110,4358 l60,0 l0,60 l-60,0 z" fill="green"/>
<path d="M7140,4388 l-225,493.5" stroke="black" stroke-width="5"/>
<path d="M8514,8166 l60,0 l0,60 l-60,0 z" fill="green"/>
<path d="M8544,8196 l-49,-307.5" stroke="black" stroke-width="5"/>
<path d="M8547,4307 l60,0 l0,60 l-60,0 z" fill="green"/>
<path d="M8577,4337 l468,-33" stroke="black" stroke-width="5"/>
<path d="M3125,9138 l60,0 l0,60 l-60,0 z" fill="green"/>
<path d="M3155,9168 l-199.5,-45" stroke="black" stroke-width="5"/>
<path d="M7793,4374 l60,0 l0,60 l-60,0 z" fill="green"/>
<path d="M7823,4404 l-75.5,63.5" stroke="black" stroke-width="5"/>
<path d="M9421,80 l60,0 l0,60 l-60,0 z" fill="green"/>
<path d="M9451,110 l-177.5,196" stroke="black" stroke-width="5"/>
<path d="M7001,1359 l60,0 l0,60 l-60,0 z" fill="green"/>
<path d="M7031,1389 l-72.5,-149" stroke="black" stroke-width="5"/>
<path d="M1811,2307 l60,0 l0,60 l-60,0 z" fill="green"/>
<path d="M1841,2337 l-361.5,73.5" stroke="black" stroke-width="5"/>
<path d="M46,8334 l60,0 l0,60 l-60,0 z" fill="green"/>
<path d="M76,8364 l322.5,-69" stroke="black" stroke-width="5"/>
<path d="M3513,3901 l60,0 l0,60 l-60,0 z" fill="green"/>
<path d="M3543,3931 l-506.5,217.5" stroke="black" stroke-width="5"/>
<path d="M3897,8798 l60,0 l0,60 l-60,0 z" fill="green"/>
<path d="M3927,8828 l272,153.5" stroke="black" stroke-width="5"/>
<path d="M5641,3275 l60,0 l0,60 l-60,0 z" fill="green"/>
<path d="M5671,3305 l95,202" stroke="black" stroke-width="5"/>
<path d="M5512,4557 l60,0 l0,60 l-60,0 z" fill="green"/>
<path d="M5542,4587 l-259.5,168" stroke="black" stroke-width="5"/>
<path d="M4000,7702 l60,0 l0,60 l-60,0 z" fill="green"/>
<path d="M4030,7732 l-659,-428.5" stroke="black" stroke-width="5"/>
<path d="M8545,8170 l60,0 l0,60 l-60,0 z" fill="green"/>
<path d="M8575,8200 l-78,202" stroke="black" stroke-width="5"/>
<path d="M1109,3709 l60,0 l0,60 l-60,0 z" fill="green"/>
<path d="M1139,3739 l-68,-173" stroke="black" stroke-width="5"/>
<path d="M20,7385 l60,0 l0,60 l-60,0 z" fill="green"/>
<path d="M50,7415 l408,-126.5" stroke="black" stroke-width="5"/>
<path d="M904,4026 l60,0 l0,60 l-60,0 z" fill="green"/>
<path d="M934,4056 l35.5,73" stroke="black" stroke-width="5"/>
<path d="M8771,7148 l60,0 l0,60 l-60,0 z" fill="green"/>
<path d="M8801,7178 l-227.5,-86" stroke="black" stroke-width="5"/>
<path d="M4469,6177 l60,0 l0,60 l-60,0 z" fill="green"/>
<path d="M4499,6207 l190.5,-82" stroke="black" stroke-width="5"/>
<path d="M3066,3345 l60,0 l0,60 l-60,0 z" fill="green"/>
<path d="M3096,3375 l-169.5,-198.5" stroke="black" stroke-width="5"/>
<path d="M5222,3251 l60,0 l0,60 l-60,0 z" fill="green"/>
<path d="M5252,3281 l-202,-88" stroke="black" stroke-width="5"/>
<path d="M2217,1416 l60,0 l0,60 l-60,0 z" fill="green"/>
<path d="M2247,1446 l-875,64.5" stroke="black" stroke-width="5"/>
<path d="M3317,8471 l60,0 l0,60 l-60,0 z" fill="green"/>
<path d="M3347,8501 l-1155.5,-137.5" stroke="black" stroke-width="5"/>
<path d="M5761,8570 l60,0 l0,60 l-60,0 z" fill="green"/>
<path d="M5791,8600 l-33,623" stroke="black" stroke-width="5"/>
<path d="M8003,8962 l60,0 l0,60 l-60,0 z" fill="green"/>
<path d="M8033,8992 l-147.5,-42" stroke="black" stroke-width="5"/>
<path d="M2267,9224 l60,0 l0,60 l-60,0 z" fill="green"/>
<path d="M2297,9254 l-295,-3" stroke="black" stroke-width="5"/>
<path d="M4282,6146 l60,0 l0,60 l-60,0 z" fill="green"/>
<path d="M4312,6176 l0.5,0.5" stroke="black" stroke-width="5"/>
<text font-size="200" text-anchor="middle" x="1766.5" y="531">
0
</text>
<text font-size="200" text-anchor="middle" x="6467.5" y="6524">
1
</text>
<text font-size="200" text-anchor="middle" x="5304.5" y="356">
2
</text>
<text font-size="200" text-anchor="middle" x="5769" y="2656">
3
</text>
<text font-size="200" text-anchor="middle" x="6560.5" y="3251">
4
</text>
<text font-size="200" text-anchor="middle" x="4180" y="1619">
5
</text>
<text font-size="200" text-anchor="middle" x="7818" y="9703.5">
6
</text>
<text font-size="200" text-anchor="middle" x="7704.5" y="582">
7
</text>
<text font-size="200" text-anchor="middle" x="9021.5" y="5301">
8
</text>
<text font-size="200" text-anchor="middle" x="7078.5" y="9130.5">
9
</text>
<text font-size="200" text-anchor="middle" x="7591.5" y="2448.5">
10
</text>
<text font-size="200" text-anchor="middle" x="738.5" y="5204.5">
11
</text>
<text font-size="200" text-anchor="middle" x="7029" y="4159">
12
</text>
<text font-size="200" text-anchor="middle" x="5284" y="2204">
13
</text>
<text font-size="200" text-anchor="middle" x="5430" y="1084.5">
14
</text>
<text font-size="200" text-anchor="middle" x="3391.5" y="5369.5">
15
</text>
<text font-size="200" text-anchor="middle" x="4570" y="3383.5">
16
</text>
<text font-size="200" text-anchor="middle" x="5925.5" y="7927">
17
</text>
<text font-size="200" text-anchor="middle" x="1870" y="9813.5">
18
</text>
<text font-size="200" text-anchor="middle" x="9120.5" y="3750">
19
</text>
<text font-size="200" text-anchor="middle" x="8896" y="9186.5">
20
</text>
<text font-size="200" text-anchor="middle" x="3126" y="1650">
21
</text>
<text font-size="200" text-anchor="middle" x="6915" y="4951.5">
22
</text>
<text font-size="200" text-anchor="middle" x="8495" y="7958.5">
23
</text>
<text font-size="200" text-anchor="middle" x="9045" y="4374">
24
</text>
<text font-size="200" text-anchor="middle" x="2955.5" y="9193">
25
</text>
<text font-size="200" text-anchor="middle" x="7747.5" y="4537.5">
26
</text>
<text font-size="200" text-anchor="middle" x="9273.5" y="376">
27
</text>
<text font-size="200" text-anchor="middle" x="6958.5" y="1310">
28
</text>
<text font-size="200" text-anchor="middle" x="1479.5" y="2480.5">
29
</text>
<text font-size="200" text-anchor="middle" x="398.5" y="8365">
30
</text>
<text font-size="200" text-anchor="middle" x="3036.5" y="4218.5">
31
</text>
<text font-size="200" text-anchor="middle" x="4199" y="9051.5">
32
</text>
<text font-size="200" text-anchor="middle" x="5766" y="3577">
33
</text>
<text font-size="200" text-anchor="middle" x="5282.5" y="4825">
34
</text>
<text font-size="200" text-anchor="middle" x="3371" y="7373.5">
35
</text>
<text font-size="200" text-anchor="middle" x="8497" y="8472">
36
</text>
<text font-size="200" text-anchor="middle" x="1071" y="3636">
37
</text>
<text font-size="200" text-anchor="middle" x="458" y="7358.5">
38
</text>
<text font-size="200" text-anchor="middle" x="969.5" y="4199">
39
</text>
<text font-size="200" text-anchor="middle" x="8573.5" y="7162">
40
</text>
<text font-size="200" text-anchor="middle" x="4689.5" y="6195">
41
</text>
<text font-size="200" text-anchor="middle" x="2926.5" y="3246.5">
42
</text>
<text font-size="200" text-anchor="middle" x="5050" y="3263">
43
</text>
<text font-size="200" text-anchor="middle" x="1372" y="1580.5">
44
</text>
<text font-size="200" text-anchor="middle" x="2191.5" y="8433.5">
45
</text>
<text font-size="200" text-anchor="middle" x="5758" y="9293">
46
</text>
<text font-size="200" text-anchor="middle" x="7885.5" y="9020">
47
</text>
<text font-size="200" text-anchor="middle" x="2002" y="9321">
48
</text>
<text font-size="200" text-anchor="middle" x="4312.5" y="6246.5">
49
</text>
</svg>