<svg viewBox="-100 -100 10200 10200" xmlns="http://www.w3.org/2000/svg">
<path d="M0,0 l10000,0 l0,10000 l-10000,0 z" fill="white"/>
<path d="M6,2 l3526,0 l0,907 l-3526,0 z" fill="#7d00ff" stroke="black" stroke-width="5"/>
<path d="M5034,5641 l2867,0 l0,1626 l-2867,0 z" fill="#ff00fe" stroke="black" stroke-width="5"/>
<path d="M3535,2 l3539,0 l0,568 l-3539,0 z" fill="#ff00fe" stroke="black" stroke-width="5"/>
<path d="M5431,1980 l587,0 l0,1161 l-587,0 z" fill="#ff00fe" stroke="black" stroke-width="5"/>
<path d="M6102,2679 l917,0 l0,1004 l-917,0 z" fill="#ff00fe" stroke="black" stroke-width="5"/>
<path d="M3539,579 l1282,0 l0,1940 l-1282,0 z" fill="#fe00ff" stroke="black" stroke-width="5"/>
<path d="M7433,9359 l689,0 l0,639 l-689,0 z" fill="#ff00fe" stroke="black" stroke-width="5"/>
<path d="M7230,146 l926,0 l0,633 l-926,0 z" fill="#fe00ff" stroke="black" stroke-width="5"/>
<path d="M8184,4692 l1675,0 l0,1078 l-1675,0 z" fill="#ff00fe" stroke="black" stroke-width="5"/>
<path d="M6733,8692 l691,0 l0,737 l-691,0 z" fill="#ff00fe" stroke="black" stroke-width="5"/>
<path d="M7028,1687 l1127,0 l0,1383 l-1127,0 z" fill="#ff00fe" stroke="black" stroke-width="5"/>
<path d="M5,4518 l1467,0 l0,1233 l-1467,0 z" fill="#ff00fe" stroke="black" stroke-width="5"/>
<path d="M6915,4000 l316,0 l0,111 l-316,0 z" fill="#fe00ff" stroke="black" stroke-width="5"/>
<path d="M5170,1983 l232,0 l0,338 l-232,0 z" fill="#fe00ff" stroke="black" stroke-width="5"/>
<path d="M4875,577 l1110,0 l0,875 l-1110,0 z" fill="#fe00ff" stroke="black" stroke-width="5"/>
<path d="M2654,4665 l1475,0 l0,1269 l-1475,0 z" fill="#fe00ff" stroke="black" stroke-width="5"/>
<path d="M4480,3274 l188,0 l0,153 l-188,0 z" fill="#fe00ff" stroke="black" stroke-width="5"/>
<path d="M4856,7268 l2139,0 l0,1178 l-2139,0 z" fill="#dc00ff" stroke="black" stroke-width="5"/>
<path d="M175,9487 l3390,0 l0,513 l-3390,0 z" fill="#fe00ff" stroke="black" stroke-width="5"/>
<path d="M8763,3446 l715,0 l0,468 l-715,0 z" fill="#ff00ff" stroke="black" stroke-width="5"/>
<path d="M8356,8604 l1080,0 l0,1025 l-1080,0 z" fill="#fe00ff" stroke="black" stroke-width="5"/>
<path d="M2762,1155 l762,0 l0,879 l-762,0 z" fill="#fe00ff" stroke="black" stroke-width="5"/>
<path d="M6430,4115 l971,0 l0,1524 l-971,0 z" fill="#cc00ff" stroke="black" stroke-width="5"/>
<path d="M7083,7580 l2824,0 l0,617 l-2824,0 z" fill="#fe00ff" stroke="black" stroke-width="5"/>
<path d="M8097,3918 l1896,0 l0,772 l-1896,0 z" fill="#3e00ff" stroke="black" stroke-width="5"/>
<path d="M2299,8763 l1299,0 l0,721 l-1299,0 z" fill="#fd00ff" stroke="black" stroke-width="5"/>
<path d="M7401,3785 l693,0 l0,1365 l-693,0 z" fill="#ff00fe" stroke="black" stroke-width="5"/>
<path d="M8576,87 l1319,0 l0,432 l-1319,0 z" fill="#fe00ff" stroke="black" stroke-width="5"/>
<path d="M6410,881 l1097,0 l0,718 l-1097,0 z" fill="#fe00ff" stroke="black" stroke-width="5"/>
<path d="M731,2103 l1527,0 l0,617 l-1527,0 z" fill="#fe00ff" stroke="black" stroke-width="5"/>
<path d="M34,7808 l729,0 l0,974 l-729,0 z" fill="#fe00ff" stroke="black" stroke-width="5"/>
<path d="M1929,3630 l2220,0 l0,1029 l-2220,0 z" fill="#a400ff" stroke="black" stroke-width="5"/>
<path d="M3613,7972 l1172,0 l0,2019 l-1172,0 z" fill="#e800ff" stroke="black" stroke-width="5"/>
<path d="M5426,3142 l669,0 l0,722 l-669,0 z" fill="#3900ff" stroke="black" stroke-width="5"/>
<path d="M4164,3864 l2263,0 l0,1776 l-2263,0 z" fill="#b500ff" stroke="black" stroke-width="5"/>
<path d="M1889,6635 l2964,0 l0,1337 l-2964,0 z" fill="#ff00fe" stroke="black" stroke-width="5"/>
<path d="M6995,8200 l3004,0 l0,404 l-3004,0 z" fill="#3f00ff" stroke="black" stroke-width="5"/>
<path d="M706,3392 l730,0 l0,348 l-730,0 z" fill="#ff00fe" stroke="black" stroke-width="5"/>
<path d="M39,6902 l838,0 l0,773 l-838,0 z" fill="#ff00fe" stroke="black" stroke-width="5"/>
<path d="M4,3740 l1925,0 l0,778 l-1925,0 z" fill="#ed00ff" stroke="black" stroke-width="5"/>
<path d="M7948,6605 l1251,0 l0,974 l-1251,0 z" fill="#fe00ff" stroke="black" stroke-width="5"/>
<path d="M4349,5640 l681,0 l0,970 l-681,0 z" fill="#ff00fe" stroke="black" stroke-width="5"/>
<path d="M1437,2724 l2979,0 l0,905 l-2979,0 z" fill="#ff00fe" stroke="black" stroke-width="5"/>
<path d="M4668,2519 l756,0 l0,1345 l-756,0 z" fill="#fe00ff" stroke="black" stroke-width="5"/>
<path d="M11,910 l2749,0 l0,1192 l-2749,0 z" fill="#6e00ff" stroke="black" stroke-width="5"/>
<path d="M766,7974 l2843,0 l0,786 l-2843,0 z" fill="#3300ff" stroke="black" stroke-width="5"/>
<path d="M4789,8446 l1938,0 l0,1554 l-1938,0 z" fill="#df00ff" stroke="black" stroke-width="5"/>
<path d="M7427,8610 l917,0 l0,748 l-917,0 z" fill="#1900ff" stroke="black" stroke-width="5"/>
<path d="M1599,9231 l699,0 l0,34 l-699,0 z" fill="#fe00ff" stroke="black" stroke-width="5"/>
<path d="M4312,6176 l1,0 l0,1 l-1,0 z" fill="#0000ff" stroke="black" stroke-width="5"/>
<path d="M1879,330 l60,0 l0,60 l-60,0 z" fill="green"/>
<path d="M1909,360 l-140,95.5" stroke="black" stroke-width="5"/>
<path d="M5780,7061 l60,0 l0,60 l-60,0 z" fill="green"/>
<path d="M5810,7091 l657.5,-637" stroke="black" stroke-width="5"/>
<path d="M5377,392 l60,0 l0,60 l-60,0 z" fill="green"/>
<path d="M5407,422 l-102.5,-136" stroke="black" stroke-width="5"/>
<path d="M5737,3110 l60,0 l0,60 l-60,0 z" fill="green"/>
<path d="M5767,3140 l-42.5,-579.5" stroke="black" stroke-width="5"/>
<path d="M6629,3204 l60,0 l0,60 l-60,0 z" fill="green"/>
<path d="M6659,3234 l-98.5,-53" stroke="black" stroke-width="5"/>
<path d="M4176,1590 l60,0 l0,60 l-60,0 z" fill="green"/>
<path d="M4206,1620 l-26,-71" stroke="black" stroke-width="5"/>
<path d="M7823,9462 l60,0 l0,60 l-60,0 z" fill="green"/>
<path d="M7853,9492 l-75.5,186.5" stroke="black" stroke-width="5"/>
<path d="M7845,402 l60,0 l0,60 l-60,0 z" fill="green"/>
<path d="M7875,432 l-182,30.5" stroke="black" stroke-width="5"/>
<path d="M9018,5029 l60,0 l0,60 l-60,0 z" fill="green"/>
<path d="M9048,5059 l-26.5,172" stroke="black" stroke-width="5"/>
<path d="M7262,9040 l60,0 l0,60 l-60,0 z" fill="green"/>
<path d="M7292,9070 l-213.5,-9.5" stroke="black" stroke-width="5"/>
<path d="M7603,2466 l60,0 l0,60 l-60,0 z" fill="green"/>
<path d="M7633,2496 l-41.5,-117.5" stroke="black" stroke-width="5"/>
<path d="M391,4805 l60,0 l0,60 l-60,0 z" fill="green"/>
<path d="M421,4835 l317.5,299.5" stroke="black" stroke-width="5"/>
<path d="M7134,4079 l60,0 l0,60 l-60,0 z" fill="green"/>
<path d="M7164,4109 l-91,-53.5" stroke="black" stroke-width="5"/>
<path d="M5326,2241 l60,0 l0,60 l-60,0 z" fill="green"/>
<path d="M5356,2271 l-70,-119" stroke="black" stroke-width="5"/>
<path d="M5231,547 l60,0 l0,60 l-60,0 z" fill="green"/>
<path d="M5261,577 l169,437.5" stroke="black" stroke-width="5"/>
<path d="M3516,5195 l60,0 l0,60 l-60,0 z" fill="green"/>
<path d="M3546,5225 l-154.5,74.5" stroke="black" stroke-width="5"/>
<path d="M4637,3356 l60,0 l0,60 l-60,0 z" fill="green"/>
<path d="M4667,3386 l-93,-35.5" stroke="black" stroke-width="5"/>
<path d="M5566,7866 l60,0 l0,60 l-60,0 z" fill="green"/>
<path d="M5596,7896 l329.5,-39" stroke="black" stroke-width="5"/>
<path d="M2488,9783 l60,0 l0,60 l-60,0 z" fill="green"/>
<path d="M2518,9813 l-648,-69.5" stroke="black" stroke-width="5"/>
<path d="M8972,3883 l60,0 l0,60 l-60,0 z" fill="green"/>
<path d="M9002,3913 l118.5,-233" stroke="black" stroke-width="5"/>
<path d="M8544,8917 l60,0 l0,60 l-60,0 z" fill="green"/>
<path d="M8574,8947 l322,169.5" stroke="black" stroke-width="5"/>
<path d="M3088,1743 l60,0 l0,60 l-60,0 z" fill="green"/>
<path d="M3118,1773 l25,-178.5" stroke="black" stroke-width="5"/>
<path d="M7110,4358 l60,0 l0,60 l-60,0 z" fill="green"/>
<path d="M7140,4388 l-224.5,489" stroke="black" stroke-width="5"/>
<path d="M8514,8166 l60,0 l0,60 l-60,0 z" fill="green"/>
<path d="M8544,8196 l-49,-307.5" stroke="black" stroke-width="5"/>
<path d="M8547,4307 l60,0 l0,60 l-60,0 z" fill="green"/>
<path d="M8577,4337 l468,-33" stroke="black" stroke-width="5"/>
<path d="M3125,9138 l60,0 l0,60 l-60,0 z" fill="green"/>
<path d="M3155,9168 l-206.5,-44.5" stroke="black" stroke-width="5"/>
<path d="M7793,4374 l60,0 l0,60 l-60,0 z" fill="green"/>
<path d="M7823,4404 l-75.5,63.5" stroke="black" stroke-width="5"/>
<path d="M9421,80 l60,0 l0,60 l-60,0 z" fill="green"/>
<path d="M9451,110 l-215.5,193" stroke="black" stroke-width="5"/>
<path d="M7001,1359 l60,0 l0,60 l-60,0 z" fill="green"/>
<path d="M7031,1389 l-72.5,-149" stroke="black" stroke-width="5"/>
<path d="M1811,2307 l60,0 l0,60 l-60,0 z" fill="green"/>
<path d="M1841,2337 l-346.5,74.5" stroke="black" stroke-width="5"/>
<path d="M46,8334 l60,0 l0,60 l-60,0 z" fill="green"/>
<path d="M76,8364 l322.5,-69" stroke="black" stroke-width="5"/>
<path d="M3513,3901 l60,0 l0,60 l-60,0 z" fill="green"/>
<path d="M3543,3931 l-504,213.5" stroke="black" stroke-width="5"/>
<path d="M3897,8798 l60,0 l0,60 l-60,0 z" fill="green"/>
<path d="M3927,8828 l272,153.5" stroke="black" stroke-width="5"/>
<path d="M5641,3275 l60,0 l0,60 l-60,0 z" fill="green"/>
<path d="M5671,3305 l89.5,198" stroke="black" stroke-width="5"/>
<path d="M5512,4557 l60,0 l0,60 l-60,0 z" fill="green"/>
<path d="M5542,4587 l-246.5,165" stroke="black" stroke-width="5"/>
<path d="M4000,7702 l60,0 l0,60 l-60,0 z" fill="green"/>
<path d="M4030,7732 l-659,-428.5" stroke="black" stroke-width="5"/>
<path d="M8545,8170 l60,0 l0,60 l-60,0 z" fill="green"/>
<path d="M8575,8200 l-78,202" stroke="black" stroke-width="5"/>
<path d="M1109,3709 l60,0 l0,60 l-60,0 z" fill="green"/>
<path d="M1139,3739 l-68,-173" stroke="black" stroke-width="5"/>
<path d="M20,7385 l60,0 l0,60 l-60,0 z" fill="green"/>
<path d="M50,7415 l408,-126.5" stroke="black" stroke-width="5"/>
<path d="M904,4026 l60,0 l0,60 l-60,0 z" fill="green"/>
<path d="M934,4056 l32.5,73" stroke="black" stroke-width="5"/>
<path d="M8771,7148 l60,0 l0,60 l-60,0 z" fill="green"/>
<path d="M8801,7178 l-227.5,-86" stroke="black" stroke-width="5"/>
<path d="M4469,6177 l60,0 l0,60 l-60,0 z" fill="green"/>
<path d="M4499,6207 l190.5,-82" stroke="black" stroke-width="5"/>
<path d="M3066,3345 l60,0 l0,60 l-60,0 z" fill="green"/>
<path d="M3096,3375 l-169.5,-198.5" stroke="black" stroke-width="5"/>
<path d="M5222,3251 l60,0 l0,60 l-60,0 z" fill="green"/>
<path d="M5252,3281 l-206,-89.5" stroke="black" stroke-width="5"/>
<path d="M2217,1416 l60,0 l0,60 l-60,0 z" fill="green"/>
<path d="M2247,1446 l-861.5,60" stroke="black" stroke-width="5"/>
<path d="M3317,8471 l60,0 l0,60 l-60,0 z" fill="green"/>
<path d="M3347,8501 l-1159.5,-134" stroke="black" stroke-width="5"/>
<path d="M5761,8570 l60,0 l0,60 l-60,0 z" fill="green"/>
<path d="M5791,8600 l-33,623" stroke="black" stroke-width="5"/>
<path d="M8003,8962 l60,0 l0,60 l-60,0 z" fill="green"/>
<path d="M8033,8992 l-147.5,-8" stroke="black" stroke-width="5"/>
<path d="M2267,9224 l60,0 l0,60 l-60,0 z" fill="green"/>
<path d="M2297,9254 l-348.5,-6" stroke="black" stroke-width="5"/>
<path d="M4282,6146 l60,0 l0,60 l-60,0 z" fill="green"/>
<path d="M4312,6176 l0.5,0.5" stroke="black" stroke-width="5"/>
<text font-size="200" text-anchor="middle" x="1769" y="525.5">
0
</text>
<text font-size="200" text-anchor="middle" x="6467.5" y="6524">
1
</text>
<text font-size="200" text-anchor="middle" x="5304.5" y="356">
2
</text>
<text font-size="200" text-anchor="middle" x="5724.5" y="2630.5">
3
</text>
<text font-size="200" text-anchor="middle" x="6560.5" y="3251">
4
</text>
<text font-size="200" text-anchor="middle" x="4180" y="1619">
5
</text>
<text font-size="200" text-anchor="middle" x="7777.5" y="9748.5">
6
</text>
<text font-size="200" text-anchor="middle" x="7693" y="532.5">
7
</text>
<text font-size="200" text-anchor="middle" x="9021.5" y="5301">
8
</text>
<text font-size="200" text-anchor="middle" x="7078.5" y="9130.5">
9
</text>
<text font-size="200" text-anchor="middle" x="7591.5" y="2448.5">
10
</text>
<text font-size="200" text-anchor="middle" x="738.5" y="5204.5">
11
</text>
<text font-size="200" text-anchor="middle" x="7073" y="4125.5">
12
</text>
<text font-size="200" text-anchor="middle" x="5286" y="2222">
13
</text>
<text font-size="200" text-anchor="middle" x="5430" y="1084.5">
14
</text>
<text font-size="200" text-anchor="middle" x="3391.5" y="5369.5">
15
</text>
<text font-size="200" text-anchor="middle" x="4574" y="3420.5">
16
</text>
<text font-size="200" text-anchor="middle" x="5925.5" y="7927">
17
</text>
<text font-size="200" text-anchor="middle" x="1870" y="9813.5">
18
</text>
<text font-size="200" text-anchor="middle" x="9120.5" y="3750">
19
</text>
<text font-size="200" text-anchor="middle" x="8896" y="9186.5">
20
</text>
<text font-size="200" text-anchor="middle" x="3143" y="1664.5">
21
</text>
<text font-size="200" text-anchor="middle" x="6915.5" y="4947">
22
</text>
<text font-size="200" text-anchor="middle" x="8495" y="7958.5">
23
</text>
<text font-size="200" text-anchor="middle" x="9045" y="4374">
24
</text>
<text font-size="200" text-anchor="middle" x="2948.5" y="9193.5">
25
</text>
<text font-size="200" text-anchor="middle" x="7747.5" y="4537.5">
26
</text>
<text font-size="200" text-anchor="middle" x="9235.5" y="373">
27
</text>
<text font-size="200" text-anchor="middle" x="6958.5" y="1310">
28
</text>
<text font-size="200" text-anchor="middle" x="1494.5" y="2481.5">
29
</text>
<text font-size="200" text-anchor="middle" x="398.5" y="8365">
30
</text>
<text font-size="200" text-anchor="middle" x="3039" y="4214.5">
31
</text>
<text font-size="200" text-anchor="middle" x="4199" y="9051.5">
32
</text>
<text font-size="200" text-anchor="middle" x="5760.5" y="3573">
33
</text>
<text font-size="200" text-anchor="middle" x="5295.5" y="4822">
34
</text>
<text font-size="200" text-anchor="middle" x="3371" y="7373.5">
35
</text>
<text font-size="200" text-anchor="middle" x="8497" y="8472">
36
</text>
<text font-size="200" text-anchor="middle" x="1071" y="3636">
37
</text>
<text font-size="200" text-anchor="middle" x="458" y="7358.5">
38
</text>
<text font-size="200" text-anchor="middle" x="966.5" y="4199">
39
</text>
<text font-size="200" text-anchor="middle" x="8573.5" y="7162">
40
</text>
<text font-size="200" text-anchor="middle" x="4689.5" y="6195">
41
</text>
<text font-size="200" text-anchor="middle" x="2926.5" y="3246.5">
42
</text>
<text font-size="200" text-anchor="middle" x="5046" y="3261.5">
43
</text>
<text font-size="200" text-anchor="middle" x="1385.5" y="1576">
44
</text>
<text font-size="200" text-anchor="middle" x="2187.5" y="8437">
45
</text>
<text font-size="200" text-anchor="middle" x="5758" y="9293">
46
</text>
<text font-size="200" text-anchor="middle" x="7885.5" y="9054">
47
</text>
<text font-size="200" text-anchor="middle" x="1948.5" y="9318">
48
</text>
<text font-size="200" text-anchor="middle" x="4312.5" y="6246.5">
49
</text>
</svg>