<svg viewBox="-100 -100 10200 10200" xmlns="http://www.w3.org/2000/svg">
<path d="M0,0 l10000,0 l0,10000 l-10000,0 z" fill="white"/>
<path d="M1,0 l3533,0 l0,912 l-3533,0 z" fill="#7e00ff" stroke="black" stroke-width="5"/>
<path d="M5042,5646 l2906,0 l0,1604 l-2906,0 z" fill="#fe00ff" stroke="black" stroke-width="5"/>
<path d="M3535,2 l3539,0 l0,568 l-3539,0 z" fill="#ff00fe" stroke="black" stroke-width="5"/>
<path d="M5431,1980 l587,0 l0,1161 l-587,0 z" fill="#ff00fe" stroke="black" stroke-width="5"/>
<path d="M6102,2679 l917,0 l0,1004 l-917,0 z" fill="#ff00fe" stroke="black" stroke-width="5"/>
<path d="M3534,608 l1313,0 l0,1894 l-1313,0 z" fill="#fe00ff" stroke="black" stroke-width="5"/>
<path d="M7441,9407 l755,0 l0,583 l-755,0 z" fill="#ff00fe" stroke="black" stroke-width="5"/>
<path d="M7112,21 l1062,0 l0,552 l-1062,0 z" fill="#ff00fe" stroke="black" stroke-width="5"/>
<path d="M8184,4692 l1675,0 l0,1078 l-1675,0 z" fill="#ff00fe" stroke="black" stroke-width="5"/>
<path d="M6733,8692 l691,0 l0,737 l-691,0 z" fill="#ff00fe" stroke="black" stroke-width="5"/>
<path d="M7060,1678 l1051,0 l0,1483 l-1051,0 z" fill="#ff00fe" stroke="black" stroke-width="5"/>
<path d="M5,4518 l1467,0 l0,1233 l-1467,0 z" fill="#ff00fe" stroke="black" stroke-width="5"/>
<path d="M6783,4038 l418,0 l0,84 l-418,0 z" fill="#ff00fe" stroke="black" stroke-width="5"/>
<path d="M5085,2103 l280,0 l0,280 l-280,0 z" fill="#fe00ff" stroke="black" stroke-width="5"/>
<path d="M4849,572 l1162,0 l0,836 l-1162,0 z" fill="#ff00fe" stroke="black" stroke-width="5"/>
<path d="M2654,4665 l1475,0 l0,1269 l-1475,0 z" fill="#fe00ff" stroke="black" stroke-width="5"/>
<path d="M4476,3249 l192,0 l0,150 l-192,0 z" fill="#ff00fe" stroke="black" stroke-width="5"/>
<path d="M4865,7255 l2122,0 l0,1183 l-2122,0 z" fill="#db00ff" stroke="black" stroke-width="5"/>
<path d="M190,9488 l3405,0 l0,511 l-3405,0 z" fill="#ff00fe" stroke="black" stroke-width="5"/>
<path d="M8749,3427 l687,0 l0,487 l-687,0 z" fill="#fe00ff" stroke="black" stroke-width="5"/>
<path d="M8356,8604 l1080,0 l0,1025 l-1080,0 z" fill="#fe00ff" stroke="black" stroke-width="5"/>
<path d="M2783,1164 l732,0 l0,915 l-732,0 z" fill="#fe00ff" stroke="black" stroke-width="5"/>
<path d="M6420,4133 l997,0 l0,1505 l-997,0 z" fill="#cf00ff" stroke="black" stroke-width="5"/>
<path d="M7083,7580 l2824,0 l0,617 l-2824,0 z" fill="#fe00ff" stroke="black" stroke-width="5"/>
<path d="M8089,3921 l1908,0 l0,771 l-1908,0 z" fill="#3f00ff" stroke="black" stroke-width="5"/>
<path d="M2298,8765 l1313,0 l0,722 l-1313,0 z" fill="#fe00ff" stroke="black" stroke-width="5"/>
<path d="M7426,3691 l655,0 l0,1443 l-655,0 z" fill="#fe00ff" stroke="black" stroke-width="5"/>
<path d="M8576,87 l1319,0 l0,432 l-1319,0 z" fill="#fe00ff" stroke="black" stroke-width="5"/>
<path d="M6371,915 l1085,0 l0,726 l-1085,0 z" fill="#fe00ff" stroke="black" stroke-width="5"/>
<path d="M671,2130 l1630,0 l0,578 l-1630,0 z" fill="#fe00ff" stroke="black" stroke-width="5"/>
<path d="M24,7825 l742,0 l0,957 l-742,0 z" fill="#fe00ff" stroke="black" stroke-width="5"/>
<path d="M1935,3629 l2199,0 l0,1033 l-2199,0 z" fill="#a300ff" stroke="black" stroke-width="5"/>
<path d="M3613,7975 l1164,0 l0,2025 l-1164,0 z" fill="#e800ff" stroke="black" stroke-width="5"/>
<path d="M5437,3141 l664,0 l0,745 l-664,0 z" fill="#3c00ff" stroke="black" stroke-width="5"/>
<path d="M4134,3888 l2284,0 l0,1739 l-2284,0 z" fill="#b200ff" stroke="black" stroke-width="5"/>
<path d="M1889,6635 l2964,0 l0,1337 l-2964,0 z" fill="#ff00fe" stroke="black" stroke-width="5"/>
<path d="M6993,8200 l3006,0 l0,404 l-3006,0 z" fill="#3f00ff" stroke="black" stroke-width="5"/>
<path d="M566,3445 l861,0 l0,295 l-861,0 z" fill="#fe00ff" stroke="black" stroke-width="5"/>
<path d="M9,6896 l789,0 l0,821 l-789,0 z" fill="#ff00fe" stroke="black" stroke-width="5"/>
<path d="M5,3742 l1930,0 l0,774 l-1930,0 z" fill="#ed00ff" stroke="black" stroke-width="5"/>
<path d="M7948,6605 l1251,0 l0,974 l-1251,0 z" fill="#fe00ff" stroke="black" stroke-width="5"/>
<path d="M4349,5640 l681,0 l0,970 l-681,0 z" fill="#ff00fe" stroke="black" stroke-width="5"/>
<path d="M1437,2734 l3019,0 l0,893 l-3019,0 z" fill="#ff00fe" stroke="black" stroke-width="5"/>
<path d="M4677,2508 l751,0 l0,1376 l-751,0 z" fill="#fe00ff" stroke="black" stroke-width="5"/>
<path d="M5,914 l2768,0 l0,1216 l-2768,0 z" fill="#7300ff" stroke="black" stroke-width="5"/>
<path d="M768,7974 l2841,0 l0,790 l-2841,0 z" fill="#3300ff" stroke="black" stroke-width="5"/>
<path d="M4783,8439 l1950,0 l0,1554 l-1950,0 z" fill="#e000ff" stroke="black" stroke-width="5"/>
<path d="M7425,8605 l931,0 l0,792 l-931,0 z" fill="#1d00ff" stroke="black" stroke-width="5"/>
<path d="M2130,9183 l168,0 l0,142 l-168,0 z" fill="#ff00fe" stroke="black" stroke-width="5"/>
<path d="M4312,6176 l1,0 l0,1 l-1,0 z" fill="#0000ff" stroke="black" stroke-width="5"/>
<path d="M1879,330 l60,0 l0,60 l-60,0 z" fill="green"/>
<path d="M1909,360 l-141.5,96" stroke="black" stroke-width="5"/>
<path d="M5780,7061 l60,0 l0,60 l-60,0 z" fill="green"/>
<path d="M5810,7091 l685,-643" stroke="black" stroke-width="5"/>
<path d="M5377,392 l60,0 l0,60 l-60,0 z" fill="green"/>
<path d="M5407,422 l-102.5,-136" stroke="black" stroke-width="5"/>
<path d="M5737,3110 l60,0 l0,60 l-60,0 z" fill="green"/>
<path d="M5767,3140 l-42.5,-579.5" stroke="black" stroke-width="5"/>
<path d="M6629,3204 l60,0 l0,60 l-60,0 z" fill="green"/>
<path d="M6659,3234 l-98.5,-53" stroke="black" stroke-width="5"/>
<path d="M4176,1590 l60,0 l0,60 l-60,0 z" fill="green"/>
<path d="M4206,1620 l-15.5,-65" stroke="black" stroke-width="5"/>
<path d="M7823,9462 l60,0 l0,60 l-60,0 z" fill="green"/>
<path d="M7853,9492 l-34.5,206.5" stroke="black" stroke-width="5"/>
<path d="M7845,402 l60,0 l0,60 l-60,0 z" fill="green"/>
<path d="M7875,432 l-232,-135" stroke="black" stroke-width="5"/>
<path d="M9018,5029 l60,0 l0,60 l-60,0 z" fill="green"/>
<path d="M9048,5059 l-26.5,172" stroke="black" stroke-width="5"/>
<path d="M7262,9040 l60,0 l0,60 l-60,0 z" fill="green"/>
<path d="M7292,9070 l-213.5,-9.5" stroke="black" stroke-width="5"/>
<path d="M7603,2466 l60,0 l0,60 l-60,0 z" fill="green"/>
<path d="M7633,2496 l-47.5,-76.5" stroke="black" stroke-width="5"/>
<path d="M391,4805 l60,0 l0,60 l-60,0 z" fill="green"/>
<path d="M421,4835 l317.5,299.5" stroke="black" stroke-width="5"/>
<path d="M7134,4079 l60,0 l0,60 l-60,0 z" fill="green"/>
<path d="M7164,4109 l-172,-29" stroke="black" stroke-width="5"/>
<path d="M5326,2241 l60,0 l0,60 l-60,0 z" fill="green"/>
<path d="M5356,2271 l-131,-28" stroke="black" stroke-width="5"/>
<path d="M5231,547 l60,0 l0,60 l-60,0 z" fill="green"/>
<path d="M5261,577 l169,413" stroke="black" stroke-width="5"/>
<path d="M3516,5195 l60,0 l0,60 l-60,0 z" fill="green"/>
<path d="M3546,5225 l-154.5,74.5" stroke="black" stroke-width="5"/>
<path d="M4637,3356 l60,0 l0,60 l-60,0 z" fill="green"/>
<path d="M4667,3386 l-95,-62" stroke="black" stroke-width="5"/>
<path d="M5566,7866 l60,0 l0,60 l-60,0 z" fill="green"/>
<path d="M5596,7896 l330,-49.5" stroke="black" stroke-width="5"/>
<path d="M2488,9783 l60,0 l0,60 l-60,0 z" fill="green"/>
<path d="M2518,9813 l-625.5,-69.5" stroke="black" stroke-width="5"/>
<path d="M8972,3883 l60,0 l0,60 l-60,0 z" fill="green"/>
<path d="M9002,3913 l90.5,-242.5" stroke="black" stroke-width="5"/>
<path d="M8544,8917 l60,0 l0,60 l-60,0 z" fill="green"/>
<path d="M8574,8947 l322,169.5" stroke="black" stroke-width="5"/>
<path d="M3088,1743 l60,0 l0,60 l-60,0 z" fill="green"/>
<path d="M3118,1773 l31,-151.5" stroke="black" stroke-width="5"/>
<path d="M7110,4358 l60,0 l0,60 l-60,0 z" fill="green"/>
<path d="M7140,4388 l-221.5,497.5" stroke="black" stroke-width="5"/>
<path d="M8514,8166 l60,0 l0,60 l-60,0 z" fill="green"/>
<path d="M8544,8196 l-49,-307.5" stroke="black" stroke-width="5"/>
<path d="M8547,4307 l60,0 l0,60 l-60,0 z" fill="green"/>
<path d="M8577,4337 l466,-30.5" stroke="black" stroke-width="5"/>
<path d="M3125,9138 l60,0 l0,60 l-60,0 z" fill="green"/>
<path d="M3155,9168 l-200.5,-42" stroke="black" stroke-width="5"/>
<path d="M7793,4374 l60,0 l0,60 l-60,0 z" fill="green"/>
<path d="M7823,4404 l-69.5,8.5" stroke="black" stroke-width="5"/>
<path d="M9421,80 l60,0 l0,60 l-60,0 z" fill="green"/>
<path d="M9451,110 l-215.5,193" stroke="black" stroke-width="5"/>
<path d="M7001,1359 l60,0 l0,60 l-60,0 z" fill="green"/>
<path d="M7031,1389 l-117.5,-111" stroke="black" stroke-width="5"/>
<path d="M1811,2307 l60,0 l0,60 l-60,0 z" fill="green"/>
<path d="M1841,2337 l-355,82" stroke="black" stroke-width="5"/>
<path d="M46,8334 l60,0 l0,60 l-60,0 z" fill="green"/>
<path d="M76,8364 l319,-60.5" stroke="black" stroke-width="5"/>
<path d="M3513,3901 l60,0 l0,60 l-60,0 z" fill="green"/>
<path d="M3543,3931 l-508.5,214.5" stroke="black" stroke-width="5"/>
<path d="M3897,8798 l60,0 l0,60 l-60,0 z" fill="green"/>
<path d="M3927,8828 l268,159.5" stroke="black" stroke-width="5"/>
<path d="M5641,3275 l60,0 l0,60 l-60,0 z" fill="green"/>
<path d="M5671,3305 l98,208.5" stroke="black" stroke-width="5"/>
<path d="M5512,4557 l60,0 l0,60 l-60,0 z" fill="green"/>
<path d="M5542,4587 l-266,170.5" stroke="black" stroke-width="5"/>
<path d="M4000,7702 l60,0 l0,60 l-60,0 z" fill="green"/>
<path d="M4030,7732 l-659,-428.5" stroke="black" stroke-width="5"/>
<path d="M8545,8170 l60,0 l0,60 l-60,0 z" fill="green"/>
<path d="M8575,8200 l-79,202" stroke="black" stroke-width="5"/>
<path d="M1109,3709 l60,0 l0,60 l-60,0 z" fill="green"/>
<path d="M1139,3739 l-142.5,-146.5" stroke="black" stroke-width="5"/>
<path d="M20,7385 l60,0 l0,60 l-60,0 z" fill="green"/>
<path d="M50,7415 l353.5,-108.5" stroke="black" stroke-width="5"/>
<path d="M904,4026 l60,0 l0,60 l-60,0 z" fill="green"/>
<path d="M934,4056 l36,73" stroke="black" stroke-width="5"/>
<path d="M8771,7148 l60,0 l0,60 l-60,0 z" fill="green"/>
<path d="M8801,7178 l-227.5,-86" stroke="black" stroke-width="5"/>
<path d="M4469,6177 l60,0 l0,60 l-60,0 z" fill="green"/>
<path d="M4499,6207 l190.5,-82" stroke="black" stroke-width="5"/>
<path d="M3066,3345 l60,0 l0,60 l-60,0 z" fill="green"/>
<path d="M3096,3375 l-149.5,-194.5" stroke="black" stroke-width="5"/>
<path d="M5222,3251 l60,0 l0,60 l-60,0 z" fill="green"/>
<path d="M5252,3281 l-199.5,-85" stroke="black" stroke-width="5"/>
<path d="M2217,1416 l60,0 l0,60 l-60,0 z" fill="green"/>
<path d="M2247,1446 l-858,76" stroke="black" stroke-width="5"/>
<path d="M3317,8471 l60,0 l0,60 l-60,0 z" fill="green"/>
<path d="M3347,8501 l-1158.5,-132" stroke="black" stroke-width="5"/>
<path d="M5761,8570 l60,0 l0,60 l-60,0 z" fill="green"/>
<path d="M5791,8600 l-33,616" stroke="black" stroke-width="5"/>
<path d="M8003,8962 l60,0 l0,60 l-60,0 z" fill="green"/>
<path d="M8033,8992 l-142.5,9" stroke="black" stroke-width="5"/>
<path d="M2267,9224 l60,0 l0,60 l-60,0 z" fill="green"/>
<path d="M2297,9254 l-83,0" stroke="black" stroke-width="5"/>
<path d="M4282,6146 l60,0 l0,60 l-60,0 z" fill="green"/>
<path d="M4312,6176 l0.5,0.5" stroke="black" stroke-width="5"/>
<text font-size="200" text-anchor="middle" x="1767.5" y="526">
0
</text>
<text font-size="200" text-anchor="middle" x="6495" y="6518">
1
</text>
<text font-size="200" text-anchor="middle" x="5304.5" y="356">
2
</text>
<text font-size="200" text-anchor="middle" x="5724.5" y="2630.5">
3
</text>
<text font-size="200" text-anchor="middle" x="6560.5" y="3251">
4
</text>
<text font-size="200" text-anchor="middle" x="4190.5" y="1625">
5
</text>
<text font-size="200" text-anchor="middle" x="7818.5" y="9768.5">
6
</text>
<text font-size="200" text-anchor="middle" x="7643" y="367">
7
</text>
<text font-size="200" text-anchor="middle" x="9021.5" y="5301">
8
</text>
<text font-size="200" text-anchor="middle" x="7078.5" y="9130.5">
9
</text>
<text font-size="200" text-anchor="middle" x="7585.5" y="2489.5">
10
</text>
<text font-size="200" text-anchor="middle" x="738.5" y="5204.5">
11
</text>
<text font-size="200" text-anchor="middle" x="6992" y="4150">
12
</text>
<text font-size="200" text-anchor="middle" x="5225" y="2313">
13
</text>
<text font-size="200" text-anchor="middle" x="5430" y="1060">
14
</text>
<text font-size="200" text-anchor="middle" x="3391.5" y="5369.5">
15
</text>
<text font-size="200" text-anchor="middle" x="4572" y="3394">
16
</text>
<text font-size="200" text-anchor="middle" x="5926" y="7916.5">
17
</text>
<text font-size="200" text-anchor="middle" x="1892.5" y="9813.5">
18
</text>
<text font-size="200" text-anchor="middle" x="9092.5" y="3740.5">
19
</text>
<text font-size="200" text-anchor="middle" x="8896" y="9186.5">
20
</text>
<text font-size="200" text-anchor="middle" x="3149" y="1691.5">
21
</text>
<text font-size="200" text-anchor="middle" x="6918.5" y="4955.5">
22
</text>
<text font-size="200" text-anchor="middle" x="8495" y="7958.5">
23
</text>
<text font-size="200" text-anchor="middle" x="9043" y="4376.5">
24
</text>
<text font-size="200" text-anchor="middle" x="2954.5" y="9196">
25
</text>
<text font-size="200" text-anchor="middle" x="7753.5" y="4482.5">
26
</text>
<text font-size="200" text-anchor="middle" x="9235.5" y="373">
27
</text>
<text font-size="200" text-anchor="middle" x="6913.5" y="1348">
28
</text>
<text font-size="200" text-anchor="middle" x="1486" y="2489">
29
</text>
<text font-size="200" text-anchor="middle" x="395" y="8373.5">
30
</text>
<text font-size="200" text-anchor="middle" x="3034.5" y="4215.5">
31
</text>
<text font-size="200" text-anchor="middle" x="4195" y="9057.5">
32
</text>
<text font-size="200" text-anchor="middle" x="5769" y="3583.5">
33
</text>
<text font-size="200" text-anchor="middle" x="5276" y="4827.5">
34
</text>
<text font-size="200" text-anchor="middle" x="3371" y="7373.5">
35
</text>
<text font-size="200" text-anchor="middle" x="8496" y="8472">
36
</text>
<text font-size="200" text-anchor="middle" x="996.5" y="3662.5">
37
</text>
<text font-size="200" text-anchor="middle" x="403.5" y="7376.5">
38
</text>
<text font-size="200" text-anchor="middle" x="970" y="4199">
39
</text>
<text font-size="200" text-anchor="middle" x="8573.5" y="7162">
40
</text>
<text font-size="200" text-anchor="middle" x="4689.5" y="6195">
41
</text>
<text font-size="200" text-anchor="middle" x="2946.5" y="3250.5">
42
</text>
<text font-size="200" text-anchor="middle" x="5052.5" y="3266">
43
</text>
<text font-size="200" text-anchor="middle" x="1389" y="1592">
44
</text>
<text font-size="200" text-anchor="middle" x="2188.5" y="8439">
45
</text>
<text font-size="200" text-anchor="middle" x="5758" y="9286">
46
</text>
<text font-size="200" text-anchor="middle" x="7890.5" y="9071">
47
</text>
<text font-size="200" text-anchor="middle" x="2214" y="9324">
48
</text>
<text font-size="200" text-anchor="middle" x="4312.5" y="6246.5">
49
</text>
</svg>