<svg viewBox="-100 -100 10200 10200" xmlns="http://www.w3.org/2000/svg">
<path d="M0,0 l10000,0 l0,10000 l-10000,0 z" fill="white"/>
<path d="M6,1 l3533,0 l0,876 l-3533,0 z" fill="#7600ff" stroke="black" stroke-width="5"/>
<path d="M5034,5641 l2867,0 l0,1626 l-2867,0 z" fill="#ff00fe" stroke="black" stroke-width="5"/>
<path d="M3581,6 l3526,0 l0,570 l-3526,0 z" fill="#fe00ff" stroke="black" stroke-width="5"/>
<path d="M5413,2024 l610,0 l0,1117 l-610,0 z" fill="#fe00ff" stroke="black" stroke-width="5"/>
<path d="M6071,2693 l947,0 l0,972 l-947,0 z" fill="#fe00ff" stroke="black" stroke-width="5"/>
<path d="M3539,579 l1282,0 l0,1940 l-1282,0 z" fill="#fe00ff" stroke="black" stroke-width="5"/>
<path d="M7546,9157 l603,0 l0,730 l-603,0 z" fill="#ff00fe" stroke="black" stroke-width="5"/>
<path d="M7313,100 l835,0 l0,702 l-835,0 z" fill="#ff00fe" stroke="black" stroke-width="5"/>
<path d="M8133,4623 l1661,0 l0,1087 l-1661,0 z" fill="#ff00fe" stroke="black" stroke-width="5"/>
<path d="M6701,8713 l787,0 l0,647 l-787,0 z" fill="#fe00ff" stroke="black" stroke-width="5"/>
<path d="M7028,1687 l1127,0 l0,1383 l-1127,0 z" fill="#ff00fe" stroke="black" stroke-width="5"/>
<path d="M5,4518 l1467,0 l0,1233 l-1467,0 z" fill="#ff00fe" stroke="black" stroke-width="5"/>
<path d="M6616,4063 l747,0 l0,47 l-747,0 z" fill="#ff00fe" stroke="black" stroke-width="5"/>
<path d="M5120,2075 l237,0 l0,331 l-237,0 z" fill="#ff00fe" stroke="black" stroke-width="5"/>
<path d="M4940,577 l1048,0 l0,927 l-1048,0 z" fill="#ff00fe" stroke="black" stroke-width="5"/>
<path d="M2654,4665 l1475,0 l0,1269 l-1475,0 z" fill="#fe00ff" stroke="black" stroke-width="5"/>
<path d="M4619,2825 l49,0 l0,588 l-49,0 z" fill="#ff00fe" stroke="black" stroke-width="5"/>
<path d="M4853,7268 l2138,0 l0,1167 l-2138,0 z" fill="#da00ff" stroke="black" stroke-width="5"/>
<path d="M221,9482 l3383,0 l0,514 l-3383,0 z" fill="#fe00ff" stroke="black" stroke-width="5"/>
<path d="M8877,3496 l614,0 l0,545 l-614,0 z" fill="#ff00fe" stroke="black" stroke-width="5"/>
<path d="M8337,8568 l1081,0 l0,1024 l-1081,0 z" fill="#fe00ff" stroke="black" stroke-width="5"/>
<path d="M2730,1306 l808,0 l0,829 l-808,0 z" fill="#fe00ff" stroke="black" stroke-width="5"/>
<path d="M6450,4110 l938,0 l0,1531 l-938,0 z" fill="#c500ff" stroke="black" stroke-width="5"/>
<path d="M6997,7644 l3002,0 l0,553 l-3002,0 z" fill="#fd00ff" stroke="black" stroke-width="5"/>
<path d="M8099,4041 l1890,0 l0,581 l-1890,0 z" fill="#2400ff" stroke="black" stroke-width="5"/>
<path d="M2306,8750 l1299,0 l0,727 l-1299,0 z" fill="#fe00ff" stroke="black" stroke-width="5"/>
<path d="M7388,3761 l709,0 l0,1334 l-709,0 z" fill="#fe00ff" stroke="black" stroke-width="5"/>
<path d="M8740,57 l1228,0 l0,464 l-1228,0 z" fill="#fe00ff" stroke="black" stroke-width="5"/>
<path d="M6419,893 l1073,0 l0,734 l-1073,0 z" fill="#fe00ff" stroke="black" stroke-width="5"/>
<path d="M1005,1924 l1227,0 l0,768 l-1227,0 z" fill="#ff00fe" stroke="black" stroke-width="5"/>
<path d="M34,7808 l729,0 l0,974 l-729,0 z" fill="#fe00ff" stroke="black" stroke-width="5"/>
<path d="M1956,3655 l2206,0 l0,1007 l-2206,0 z" fill="#9e00ff" stroke="black" stroke-width="5"/>
<path d="M3606,7974 l1205,0 l0,2023 l-1205,0 z" fill="#ee00ff" stroke="black" stroke-width="5"/>
<path d="M5389,3141 l676,0 l0,730 l-676,0 z" fill="#3c00ff" stroke="black" stroke-width="5"/>
<path d="M4166,3874 l2283,0 l0,1760 l-2283,0 z" fill="#b500ff" stroke="black" stroke-width="5"/>
<path d="M1889,6635 l2964,0 l0,1337 l-2964,0 z" fill="#ff00fe" stroke="black" stroke-width="5"/>
<path d="M6993,8200 l3006,0 l0,363 l-3006,0 z" fill="#3300ff" stroke="black" stroke-width="5"/>
<path d="M798,3329 l618,0 l0,411 l-618,0 z" fill="#fe00ff" stroke="black" stroke-width="5"/>
<path d="M8,6892 l747,0 l0,867 l-747,0 z" fill="#fe00ff" stroke="black" stroke-width="5"/>
<path d="M2,3750 l1952,0 l0,768 l-1952,0 z" fill="#ed00ff" stroke="black" stroke-width="5"/>
<path d="M8004,6613 l1182,0 l0,1031 l-1182,0 z" fill="#ff00fe" stroke="black" stroke-width="5"/>
<path d="M4349,5640 l681,0 l0,970 l-681,0 z" fill="#ff00fe" stroke="black" stroke-width="5"/>
<path d="M1537,2713 l2862,0 l0,942 l-2862,0 z" fill="#ff00fe" stroke="black" stroke-width="5"/>
<path d="M4671,2524 l716,0 l0,1348 l-716,0 z" fill="#fb00ff" stroke="black" stroke-width="5"/>
<path d="M6,877 l2709,0 l0,1045 l-2709,0 z" fill="#5600ff" stroke="black" stroke-width="5"/>
<path d="M764,7972 l2835,0 l0,773 l-2835,0 z" fill="#3100ff" stroke="black" stroke-width="5"/>
<path d="M4812,8435 l1888,0 l0,1562 l-1888,0 z" fill="#da00ff" stroke="black" stroke-width="5"/>
<path d="M7494,8571 l841,0 l0,585 l-841,0 z" fill="#0d00ff" stroke="black" stroke-width="5"/>
<path d="M1601,9253 l697,0 l0,34 l-697,0 z" fill="#fe00ff" stroke="black" stroke-width="5"/>
<path d="M4312,6176 l1,0 l0,1 l-1,0 z" fill="#0000ff" stroke="black" stroke-width="5"/>
<path d="M1879,330 l60,0 l0,60 l-60,0 z" fill="green"/>
<path d="M1909,360 l-136.5,79" stroke="black" stroke-width="5"/>
<path d="M5780,7061 l60,0 l0,60 l-60,0 z" fill="green"/>
<path d="M5810,7091 l657.5,-637" stroke="black" stroke-width="5"/>
<path d="M5377,392 l60,0 l0,60 l-60,0 z" fill="green"/>
<path d="M5407,422 l-63,-131" stroke="black" stroke-width="5"/>
<path d="M5737,3110 l60,0 l0,60 l-60,0 z" fill="green"/>
<path d="M5767,3140 l-49,-557.5" stroke="black" stroke-width="5"/>
<path d="M6629,3204 l60,0 l0,60 l-60,0 z" fill="green"/>
<path d="M6659,3234 l-114.5,-55" stroke="black" stroke-width="5"/>
<path d="M4176,1590 l60,0 l0,60 l-60,0 z" fill="green"/>
<path d="M4206,1620 l-26,-71" stroke="black" stroke-width="5"/>
<path d="M7823,9462 l60,0 l0,60 l-60,0 z" fill="green"/>
<path d="M7853,9492 l-5.5,30" stroke="black" stroke-width="5"/>
<path d="M7845,402 l60,0 l0,60 l-60,0 z" fill="green"/>
<path d="M7875,432 l-144.5,19" stroke="black" stroke-width="5"/>
<path d="M9018,5029 l60,0 l0,60 l-60,0 z" fill="green"/>
<path d="M9048,5059 l-84.5,107.5" stroke="black" stroke-width="5"/>
<path d="M7262,9040 l60,0 l0,60 l-60,0 z" fill="green"/>
<path d="M7292,9070 l-197.5,-33.5" stroke="black" stroke-width="5"/>
<path d="M7603,2466 l60,0 l0,60 l-60,0 z" fill="green"/>
<path d="M7633,2496 l-41.5,-117.5" stroke="black" stroke-width="5"/>
<path d="M391,4805 l60,0 l0,60 l-60,0 z" fill="green"/>
<path d="M421,4835 l317.5,299.5" stroke="black" stroke-width="5"/>
<path d="M7134,4079 l60,0 l0,60 l-60,0 z" fill="green"/>
<path d="M7164,4109 l-174.5,-22.5" stroke="black" stroke-width="5"/>
<path d="M5326,2241 l60,0 l0,60 l-60,0 z" fill="green"/>
<path d="M5356,2271 l-117.5,-30.5" stroke="black" stroke-width="5"/>
<path d="M5231,547 l60,0 l0,60 l-60,0 z" fill="green"/>
<path d="M5261,577 l203,463.5" stroke="black" stroke-width="5"/>
<path d="M3516,5195 l60,0 l0,60 l-60,0 z" fill="green"/>
<path d="M3546,5225 l-154.5,74.5" stroke="black" stroke-width="5"/>
<path d="M4637,3356 l60,0 l0,60 l-60,0 z" fill="green"/>
<path d="M4667,3386 l-23.5,-267" stroke="black" stroke-width="5"/>
<path d="M5566,7866 l60,0 l0,60 l-60,0 z" fill="green"/>
<path d="M5596,7896 l326,-44.5" stroke="black" stroke-width="5"/>
<path d="M2488,9783 l60,0 l0,60 l-60,0 z" fill="green"/>
<path d="M2518,9813 l-605.5,-74" stroke="black" stroke-width="5"/>
<path d="M8972,3883 l60,0 l0,60 l-60,0 z" fill="green"/>
<path d="M9002,3913 l182,-144.5" stroke="black" stroke-width="5"/>
<path d="M8544,8917 l60,0 l0,60 l-60,0 z" fill="green"/>
<path d="M8574,8947 l303.5,133" stroke="black" stroke-width="5"/>
<path d="M3088,1743 l60,0 l0,60 l-60,0 z" fill="green"/>
<path d="M3118,1773 l16,-52.5" stroke="black" stroke-width="5"/>
<path d="M7110,4358 l60,0 l0,60 l-60,0 z" fill="green"/>
<path d="M7140,4388 l-221,487.5" stroke="black" stroke-width="5"/>
<path d="M8514,8166 l60,0 l0,60 l-60,0 z" fill="green"/>
<path d="M8544,8196 l-46,-275.5" stroke="black" stroke-width="5"/>
<path d="M8547,4307 l60,0 l0,60 l-60,0 z" fill="green"/>
<path d="M8577,4337 l467,-5.5" stroke="black" stroke-width="5"/>
<path d="M3125,9138 l60,0 l0,60 l-60,0 z" fill="green"/>
<path d="M3155,9168 l-199.5,-54.5" stroke="black" stroke-width="5"/>
<path d="M7793,4374 l60,0 l0,60 l-60,0 z" fill="green"/>
<path d="M7823,4404 l-80.5,24" stroke="black" stroke-width="5"/>
<path d="M9421,80 l60,0 l0,60 l-60,0 z" fill="green"/>
<path d="M9451,110 l-97,179" stroke="black" stroke-width="5"/>
<path d="M7001,1359 l60,0 l0,60 l-60,0 z" fill="green"/>
<path d="M7031,1389 l-75.5,-129" stroke="black" stroke-width="5"/>
<path d="M1811,2307 l60,0 l0,60 l-60,0 z" fill="green"/>
<path d="M1841,2337 l-222.5,-29" stroke="black" stroke-width="5"/>
<path d="M46,8334 l60,0 l0,60 l-60,0 z" fill="green"/>
<path d="M76,8364 l322.5,-69" stroke="black" stroke-width="5"/>
<path d="M3513,3901 l60,0 l0,60 l-60,0 z" fill="green"/>
<path d="M3543,3931 l-484,227.5" stroke="black" stroke-width="5"/>
<path d="M3897,8798 l60,0 l0,60 l-60,0 z" fill="green"/>
<path d="M3927,8828 l281.5,157.5" stroke="black" stroke-width="5"/>
<path d="M5641,3275 l60,0 l0,60 l-60,0 z" fill="green"/>
<path d="M5671,3305 l56,201" stroke="black" stroke-width="5"/>
<path d="M5512,4557 l60,0 l0,60 l-60,0 z" fill="green"/>
<path d="M5542,4587 l-234.5,167" stroke="black" stroke-width="5"/>
<path d="M4000,7702 l60,0 l0,60 l-60,0 z" fill="green"/>
<path d="M4030,7732 l-659,-428.5" stroke="black" stroke-width="5"/>
<path d="M8545,8170 l60,0 l0,60 l-60,0 z" fill="green"/>
<path d="M8575,8200 l-79,181.5" stroke="black" stroke-width="5"/>
<path d="M1109,3709 l60,0 l0,60 l-60,0 z" fill="green"/>
<path d="M1139,3739 l-32,-204.5" stroke="black" stroke-width="5"/>
<path d="M20,7385 l60,0 l0,60 l-60,0 z" fill="green"/>
<path d="M50,7415 l331.5,-89.5" stroke="black" stroke-width="5"/>
<path d="M904,4026 l60,0 l0,60 l-60,0 z" fill="green"/>
<path d="M934,4056 l44,78" stroke="black" stroke-width="5"/>
<path d="M8771,7148 l60,0 l0,60 l-60,0 z" fill="green"/>
<path d="M8801,7178 l-206,-49.5" stroke="black" stroke-width="5"/>
<path d="M4469,6177 l60,0 l0,60 l-60,0 z" fill="green"/>
<path d="M4499,6207 l190.5,-82" stroke="black" stroke-width="5"/>
<path d="M3066,3345 l60,0 l0,60 l-60,0 z" fill="green"/>
<path d="M3096,3375 l-128,-191" stroke="black" stroke-width="5"/>
<path d="M5222,3251 l60,0 l0,60 l-60,0 z" fill="green"/>
<path d="M5252,3281 l-223,-83" stroke="black" stroke-width="5"/>
<path d="M2217,1416 l60,0 l0,60 l-60,0 z" fill="green"/>
<path d="M2247,1446 l-886.5,-46.5" stroke="black" stroke-width="5"/>
<path d="M3317,8471 l60,0 l0,60 l-60,0 z" fill="green"/>
<path d="M3347,8501 l-1165.5,-142.5" stroke="black" stroke-width="5"/>
<path d="M5761,8570 l60,0 l0,60 l-60,0 z" fill="green"/>
<path d="M5791,8600 l-35,616" stroke="black" stroke-width="5"/>
<path d="M8003,8962 l60,0 l0,60 l-60,0 z" fill="green"/>
<path d="M8033,8992 l-118.5,-128.5" stroke="black" stroke-width="5"/>
<path d="M2267,9224 l60,0 l0,60 l-60,0 z" fill="green"/>
<path d="M2297,9254 l-347.5,16" stroke="black" stroke-width="5"/>
<path d="M4282,6146 l60,0 l0,60 l-60,0 z" fill="green"/>
<path d="M4312,6176 l0.5,0.5" stroke="black" stroke-width="5"/>
<text font-size="200" text-anchor="middle" x="1772.5" y="509">
0
</text>
<text font-size="200" text-anchor="middle" x="6467.5" y="6524">
1
</text>
<text font-size="200" text-anchor="middle" x="5344" y="361">
2
</text>
<text font-size="200" text-anchor="middle" x="5718" y="2652.5">
3
</text>
<text font-size="200" text-anchor="middle" x="6544.5" y="3249">
4
</text>
<text font-size="200" text-anchor="middle" x="4180" y="1619">
5
</text>
<text font-size="200" text-anchor="middle" x="7847.5" y="9592">
6
</text>
<text font-size="200" text-anchor="middle" x="7730.5" y="521">
7
</text>
<text font-size="200" text-anchor="middle" x="8963.5" y="5236.5">
8
</text>
<text font-size="200" text-anchor="middle" x="7094.5" y="9106.5">
9
</text>
<text font-size="200" text-anchor="middle" x="7591.5" y="2448.5">
10
</text>
<text font-size="200" text-anchor="middle" x="738.5" y="5204.5">
11
</text>
<text font-size="200" text-anchor="middle" x="6989.5" y="4156.5">
12
</text>
<text font-size="200" text-anchor="middle" x="5238.5" y="2310.5">
13
</text>
<text font-size="200" text-anchor="middle" x="5464" y="1110.5">
14
</text>
<text font-size="200" text-anchor="middle" x="3391.5" y="5369.5">
15
</text>
<text font-size="200" text-anchor="middle" x="4643.5" y="3189">
16
</text>
<text font-size="200" text-anchor="middle" x="5922" y="7921.5">
17
</text>
<text font-size="200" text-anchor="middle" x="1912.5" y="9809">
18
</text>
<text font-size="200" text-anchor="middle" x="9184" y="3838.5">
19
</text>
<text font-size="200" text-anchor="middle" x="8877.5" y="9150">
20
</text>
<text font-size="200" text-anchor="middle" x="3134" y="1790.5">
21
</text>
<text font-size="200" text-anchor="middle" x="6919" y="4945.5">
22
</text>
<text font-size="200" text-anchor="middle" x="8498" y="7990.5">
23
</text>
<text font-size="200" text-anchor="middle" x="9044" y="4401.5">
24
</text>
<text font-size="200" text-anchor="middle" x="2955.5" y="9183.5">
25
</text>
<text font-size="200" text-anchor="middle" x="7742.5" y="4498">
26
</text>
<text font-size="200" text-anchor="middle" x="9354" y="359">
27
</text>
<text font-size="200" text-anchor="middle" x="6955.5" y="1330">
28
</text>
<text font-size="200" text-anchor="middle" x="1618.5" y="2378">
29
</text>
<text font-size="200" text-anchor="middle" x="398.5" y="8365">
30
</text>
<text font-size="200" text-anchor="middle" x="3059" y="4228.5">
31
</text>
<text font-size="200" text-anchor="middle" x="4208.5" y="9055.5">
32
</text>
<text font-size="200" text-anchor="middle" x="5727" y="3576">
33
</text>
<text font-size="200" text-anchor="middle" x="5307.5" y="4824">
34
</text>
<text font-size="200" text-anchor="middle" x="3371" y="7373.5">
35
</text>
<text font-size="200" text-anchor="middle" x="8496" y="8451.5">
36
</text>
<text font-size="200" text-anchor="middle" x="1107" y="3604.5">
37
</text>
<text font-size="200" text-anchor="middle" x="381.5" y="7395.5">
38
</text>
<text font-size="200" text-anchor="middle" x="978" y="4204">
39
</text>
<text font-size="200" text-anchor="middle" x="8595" y="7198.5">
40
</text>
<text font-size="200" text-anchor="middle" x="4689.5" y="6195">
41
</text>
<text font-size="200" text-anchor="middle" x="2968" y="3254">
42
</text>
<text font-size="200" text-anchor="middle" x="5029" y="3268">
43
</text>
<text font-size="200" text-anchor="middle" x="1360.5" y="1469.5">
44
</text>
<text font-size="200" text-anchor="middle" x="2181.5" y="8428.5">
45
</text>
<text font-size="200" text-anchor="middle" x="5756" y="9286">
46
</text>
<text font-size="200" text-anchor="middle" x="7914.5" y="8933.5">
47
</text>
<text font-size="200" text-anchor="middle" x="1949.5" y="9340">
48
</text>
<text font-size="200" text-anchor="middle" x="4312.5" y="6246.5">
49
</text>
</svg>