<svg viewBox="-100 -100 10200 10200" xmlns="http://www.w3.org/2000/svg">
<path d="M0,0 l10000,0 l0,10000 l-10000,0 z" fill="white"/>
<path d="M17,4 l3503,0 l0,879 l-3503,0 z" fill="#7500ff" stroke="black" stroke-width="5"/>
<path d="M5034,5641 l2867,0 l0,1626 l-2867,0 z" fill="#ff00fe" stroke="black" stroke-width="5"/>
<path d="M3535,1 l3509,0 l0,573 l-3509,0 z" fill="#ff00fe" stroke="black" stroke-width="5"/>
<path d="M5413,2024 l610,0 l0,1117 l-610,0 z" fill="#fe00ff" stroke="black" stroke-width="5"/>
<path d="M6102,2679 l917,0 l0,1004 l-917,0 z" fill="#ff00fe" stroke="black" stroke-width="5"/>
<path d="M3539,579 l1282,0 l0,1940 l-1282,0 z" fill="#fe00ff" stroke="black" stroke-width="5"/>
<path d="M7482,9270 l694,0 l0,634 l-694,0 z" fill="#fe00ff" stroke="black" stroke-width="5"/>
<path d="M7313,100 l835,0 l0,702 l-835,0 z" fill="#ff00fe" stroke="black" stroke-width="5"/>
<path d="M8184,4692 l1675,0 l0,1078 l-1675,0 z" fill="#ff00fe" stroke="black" stroke-width="5"/>
<path d="M6716,8687 l749,0 l0,680 l-749,0 z" fill="#ff00fe" stroke="black" stroke-width="5"/>
<path d="M7028,1687 l1127,0 l0,1383 l-1127,0 z" fill="#ff00fe" stroke="black" stroke-width="5"/>
<path d="M5,4518 l1467,0 l0,1233 l-1467,0 z" fill="#ff00fe" stroke="black" stroke-width="5"/>
<path d="M6661,4045 l540,0 l0,65 l-540,0 z" fill="#ff00fe" stroke="black" stroke-width="5"/>
<path d="M5070,2078 l310,0 l0,253 l-310,0 z" fill="#fe00ff" stroke="black" stroke-width="5"/>
<path d="M4940,577 l1048,0 l0,927 l-1048,0 z" fill="#ff00fe" stroke="black" stroke-width="5"/>
<path d="M2654,4665 l1475,0 l0,1269 l-1475,0 z" fill="#fe00ff" stroke="black" stroke-width="5"/>
<path d="M4633,2555 l35,0 l0,855 l-35,0 z" fill="#ff00fe" stroke="black" stroke-width="5"/>
<path d="M4854,7268 l2143,0 l0,1170 l-2143,0 z" fill="#db00ff" stroke="black" stroke-width="5"/>
<path d="M221,9482 l3383,0 l0,514 l-3383,0 z" fill="#fe00ff" stroke="black" stroke-width="5"/>
<path d="M8850,3434 l651,0 l0,514 l-651,0 z" fill="#fe00ff" stroke="black" stroke-width="5"/>
<path d="M8356,8604 l1080,0 l0,1025 l-1080,0 z" fill="#fe00ff" stroke="black" stroke-width="5"/>
<path d="M2730,1306 l808,0 l0,829 l-808,0 z" fill="#fe00ff" stroke="black" stroke-width="5"/>
<path d="M6455,4112 l933,0 l0,1528 l-933,0 z" fill="#c300ff" stroke="black" stroke-width="5"/>
<path d="M7004,7614 l2989,0 l0,583 l-2989,0 z" fill="#ff00fe" stroke="black" stroke-width="5"/>
<path d="M8100,3951 l1897,0 l0,741 l-1897,0 z" fill="#3a00ff" stroke="black" stroke-width="5"/>
<path d="M2300,8745 l1301,0 l0,735 l-1301,0 z" fill="#fe00ff" stroke="black" stroke-width="5"/>
<path d="M7388,3761 l709,0 l0,1334 l-709,0 z" fill="#fe00ff" stroke="black" stroke-width="5"/>
<path d="M8740,57 l1228,0 l0,464 l-1228,0 z" fill="#fe00ff" stroke="black" stroke-width="5"/>
<path d="M6405,894 l1091,0 l0,722 l-1091,0 z" fill="#fe00ff" stroke="black" stroke-width="5"/>
<path d="M1005,1924 l1227,0 l0,768 l-1227,0 z" fill="#ff00fe" stroke="black" stroke-width="5"/>
<path d="M34,7808 l729,0 l0,974 l-729,0 z" fill="#fe00ff" stroke="black" stroke-width="5"/>
<path d="M1960,3656 l2211,0 l0,1006 l-2211,0 z" fill="#9e00ff" stroke="black" stroke-width="5"/>
<path d="M3605,7982 l1203,0 l0,2017 l-1203,0 z" fill="#ed00ff" stroke="black" stroke-width="5"/>
<path d="M5415,3144 l680,0 l0,729 l-680,0 z" fill="#3c00ff" stroke="black" stroke-width="5"/>
<path d="M4171,3873 l2281,0 l0,1767 l-2281,0 z" fill="#b600ff" stroke="black" stroke-width="5"/>
<path d="M1889,6635 l2964,0 l0,1337 l-2964,0 z" fill="#ff00fe" stroke="black" stroke-width="5"/>
<path d="M6998,8200 l2996,0 l0,404 l-2996,0 z" fill="#3e00ff" stroke="black" stroke-width="5"/>
<path d="M706,3392 l730,0 l0,348 l-730,0 z" fill="#ff00fe" stroke="black" stroke-width="5"/>
<path d="M8,6892 l747,0 l0,867 l-747,0 z" fill="#fe00ff" stroke="black" stroke-width="5"/>
<path d="M0,3743 l1947,0 l0,775 l-1947,0 z" fill="#ee00ff" stroke="black" stroke-width="5"/>
<path d="M7982,6608 l1215,0 l0,1003 l-1215,0 z" fill="#ff00fe" stroke="black" stroke-width="5"/>
<path d="M4349,5640 l681,0 l0,970 l-681,0 z" fill="#ff00fe" stroke="black" stroke-width="5"/>
<path d="M1537,2713 l2862,0 l0,942 l-2862,0 z" fill="#ff00fe" stroke="black" stroke-width="5"/>
<path d="M4668,2529 l743,0 l0,1334 l-743,0 z" fill="#fd00ff" stroke="black" stroke-width="5"/>
<path d="M1,883 l2729,0 l0,1038 l-2729,0 z" fill="#5600ff" stroke="black" stroke-width="5"/>
<path d="M764,7974 l2818,0 l0,771 l-2818,0 z" fill="#3000ff" stroke="black" stroke-width="5"/>
<path d="M4811,8440 l1904,0 l0,1554 l-1904,0 z" fill="#db00ff" stroke="black" stroke-width="5"/>
<path d="M7472,8606 l884,0 l0,646 l-884,0 z" fill="#1100ff" stroke="black" stroke-width="5"/>
<path d="M1440,9227 l858,0 l0,28 l-858,0 z" fill="#ff00fe" stroke="black" stroke-width="5"/>
<path d="M4312,6176 l1,0 l0,1 l-1,0 z" fill="#0000ff" stroke="black" stroke-width="5"/>
<path d="M1879,330 l60,0 l0,60 l-60,0 z" fill="green"/>
<path d="M1909,360 l-140.5,83.5" stroke="black" stroke-width="5"/>
<path d="M5780,7061 l60,0 l0,60 l-60,0 z" fill="green"/>
<path d="M5810,7091 l657.5,-637" stroke="black" stroke-width="5"/>
<path d="M5377,392 l60,0 l0,60 l-60,0 z" fill="green"/>
<path d="M5407,422 l-117.5,-134.5" stroke="black" stroke-width="5"/>
<path d="M5737,3110 l60,0 l0,60 l-60,0 z" fill="green"/>
<path d="M5767,3140 l-49,-557.5" stroke="black" stroke-width="5"/>
<path d="M6629,3204 l60,0 l0,60 l-60,0 z" fill="green"/>
<path d="M6659,3234 l-98.5,-53" stroke="black" stroke-width="5"/>
<path d="M4176,1590 l60,0 l0,60 l-60,0 z" fill="green"/>
<path d="M4206,1620 l-26,-71" stroke="black" stroke-width="5"/>
<path d="M7823,9462 l60,0 l0,60 l-60,0 z" fill="green"/>
<path d="M7853,9492 l-24,95" stroke="black" stroke-width="5"/>
<path d="M7845,402 l60,0 l0,60 l-60,0 z" fill="green"/>
<path d="M7875,432 l-144.5,19" stroke="black" stroke-width="5"/>
<path d="M9018,5029 l60,0 l0,60 l-60,0 z" fill="green"/>
<path d="M9048,5059 l-26.5,172" stroke="black" stroke-width="5"/>
<path d="M7262,9040 l60,0 l0,60 l-60,0 z" fill="green"/>
<path d="M7292,9070 l-201.5,-43" stroke="black" stroke-width="5"/>
<path d="M7603,2466 l60,0 l0,60 l-60,0 z" fill="green"/>
<path d="M7633,2496 l-41.5,-117.5" stroke="black" stroke-width="5"/>
<path d="M391,4805 l60,0 l0,60 l-60,0 z" fill="green"/>
<path d="M421,4835 l317.5,299.5" stroke="black" stroke-width="5"/>
<path d="M7134,4079 l60,0 l0,60 l-60,0 z" fill="green"/>
<path d="M7164,4109 l-233,-31.5" stroke="black" stroke-width="5"/>
<path d="M5326,2241 l60,0 l0,60 l-60,0 z" fill="green"/>
<path d="M5356,2271 l-131,-66.5" stroke="black" stroke-width="5"/>
<path d="M5231,547 l60,0 l0,60 l-60,0 z" fill="green"/>
<path d="M5261,577 l203,463.5" stroke="black" stroke-width="5"/>
<path d="M3516,5195 l60,0 l0,60 l-60,0 z" fill="green"/>
<path d="M3546,5225 l-154.5,74.5" stroke="black" stroke-width="5"/>
<path d="M4637,3356 l60,0 l0,60 l-60,0 z" fill="green"/>
<path d="M4667,3386 l-16.5,-403.5" stroke="black" stroke-width="5"/>
<path d="M5566,7866 l60,0 l0,60 l-60,0 z" fill="green"/>
<path d="M5596,7896 l329.5,-43" stroke="black" stroke-width="5"/>
<path d="M2488,9783 l60,0 l0,60 l-60,0 z" fill="green"/>
<path d="M2518,9813 l-605.5,-74" stroke="black" stroke-width="5"/>
<path d="M8972,3883 l60,0 l0,60 l-60,0 z" fill="green"/>
<path d="M9002,3913 l173.5,-222" stroke="black" stroke-width="5"/>
<path d="M8544,8917 l60,0 l0,60 l-60,0 z" fill="green"/>
<path d="M8574,8947 l322,169.5" stroke="black" stroke-width="5"/>
<path d="M3088,1743 l60,0 l0,60 l-60,0 z" fill="green"/>
<path d="M3118,1773 l16,-52.5" stroke="black" stroke-width="5"/>
<path d="M7110,4358 l60,0 l0,60 l-60,0 z" fill="green"/>
<path d="M7140,4388 l-218.5,488" stroke="black" stroke-width="5"/>
<path d="M8514,8166 l60,0 l0,60 l-60,0 z" fill="green"/>
<path d="M8544,8196 l-45.5,-290.5" stroke="black" stroke-width="5"/>
<path d="M8547,4307 l60,0 l0,60 l-60,0 z" fill="green"/>
<path d="M8577,4337 l471.5,-15.5" stroke="black" stroke-width="5"/>
<path d="M3125,9138 l60,0 l0,60 l-60,0 z" fill="green"/>
<path d="M3155,9168 l-204.5,-55.5" stroke="black" stroke-width="5"/>
<path d="M7793,4374 l60,0 l0,60 l-60,0 z" fill="green"/>
<path d="M7823,4404 l-80.5,24" stroke="black" stroke-width="5"/>
<path d="M9421,80 l60,0 l0,60 l-60,0 z" fill="green"/>
<path d="M9451,110 l-97,179" stroke="black" stroke-width="5"/>
<path d="M7001,1359 l60,0 l0,60 l-60,0 z" fill="green"/>
<path d="M7031,1389 l-80.5,-134" stroke="black" stroke-width="5"/>
<path d="M1811,2307 l60,0 l0,60 l-60,0 z" fill="green"/>
<path d="M1841,2337 l-222.5,-29" stroke="black" stroke-width="5"/>
<path d="M46,8334 l60,0 l0,60 l-60,0 z" fill="green"/>
<path d="M76,8364 l322.5,-69" stroke="black" stroke-width="5"/>
<path d="M3513,3901 l60,0 l0,60 l-60,0 z" fill="green"/>
<path d="M3543,3931 l-477.5,228" stroke="black" stroke-width="5"/>
<path d="M3897,8798 l60,0 l0,60 l-60,0 z" fill="green"/>
<path d="M3927,8828 l279.5,162.5" stroke="black" stroke-width="5"/>
<path d="M5641,3275 l60,0 l0,60 l-60,0 z" fill="green"/>
<path d="M5671,3305 l84,203.5" stroke="black" stroke-width="5"/>
<path d="M5512,4557 l60,0 l0,60 l-60,0 z" fill="green"/>
<path d="M5542,4587 l-230.5,169.5" stroke="black" stroke-width="5"/>
<path d="M4000,7702 l60,0 l0,60 l-60,0 z" fill="green"/>
<path d="M4030,7732 l-659,-428.5" stroke="black" stroke-width="5"/>
<path d="M8545,8170 l60,0 l0,60 l-60,0 z" fill="green"/>
<path d="M8575,8200 l-79,202" stroke="black" stroke-width="5"/>
<path d="M1109,3709 l60,0 l0,60 l-60,0 z" fill="green"/>
<path d="M1139,3739 l-68,-173" stroke="black" stroke-width="5"/>
<path d="M20,7385 l60,0 l0,60 l-60,0 z" fill="green"/>
<path d="M50,7415 l331.5,-89.5" stroke="black" stroke-width="5"/>
<path d="M904,4026 l60,0 l0,60 l-60,0 z" fill="green"/>
<path d="M934,4056 l39.5,74.5" stroke="black" stroke-width="5"/>
<path d="M8771,7148 l60,0 l0,60 l-60,0 z" fill="green"/>
<path d="M8801,7178 l-211.5,-68.5" stroke="black" stroke-width="5"/>
<path d="M4469,6177 l60,0 l0,60 l-60,0 z" fill="green"/>
<path d="M4499,6207 l190.5,-82" stroke="black" stroke-width="5"/>
<path d="M3066,3345 l60,0 l0,60 l-60,0 z" fill="green"/>
<path d="M3096,3375 l-128,-191" stroke="black" stroke-width="5"/>
<path d="M5222,3251 l60,0 l0,60 l-60,0 z" fill="green"/>
<path d="M5252,3281 l-212.5,-85" stroke="black" stroke-width="5"/>
<path d="M2217,1416 l60,0 l0,60 l-60,0 z" fill="green"/>
<path d="M2247,1446 l-881.5,-44" stroke="black" stroke-width="5"/>
<path d="M3317,8471 l60,0 l0,60 l-60,0 z" fill="green"/>
<path d="M3347,8501 l-1174,-141.5" stroke="black" stroke-width="5"/>
<path d="M5761,8570 l60,0 l0,60 l-60,0 z" fill="green"/>
<path d="M5791,8600 l-28,617" stroke="black" stroke-width="5"/>
<path d="M8003,8962 l60,0 l0,60 l-60,0 z" fill="green"/>
<path d="M8033,8992 l-119,-63" stroke="black" stroke-width="5"/>
<path d="M2267,9224 l60,0 l0,60 l-60,0 z" fill="green"/>
<path d="M2297,9254 l-428,-13" stroke="black" stroke-width="5"/>
<path d="M4282,6146 l60,0 l0,60 l-60,0 z" fill="green"/>
<path d="M4312,6176 l0.5,0.5" stroke="black" stroke-width="5"/>
<text font-size="200" text-anchor="middle" x="1768.5" y="513.5">
0
</text>
<text font-size="200" text-anchor="middle" x="6467.5" y="6524">
1
</text>
<text font-size="200" text-anchor="middle" x="5289.5" y="357.5">
2
</text>
<text font-size="200" text-anchor="middle" x="5718" y="2652.5">
3
</text>
<text font-size="200" text-anchor="middle" x="6560.5" y="3251">
4
</text>
<text font-size="200" text-anchor="middle" x="4180" y="1619">
5
</text>
<text font-size="200" text-anchor="middle" x="7829" y="9657">
6
</text>
<text font-size="200" text-anchor="middle" x="7730.5" y="521">
7
</text>
<text font-size="200" text-anchor="middle" x="9021.5" y="5301">
8
</text>
<text font-size="200" text-anchor="middle" x="7090.5" y="9097">
9
</text>
<text font-size="200" text-anchor="middle" x="7591.5" y="2448.5">
10
</text>
<text font-size="200" text-anchor="middle" x="738.5" y="5204.5">
11
</text>
<text font-size="200" text-anchor="middle" x="6931" y="4147.5">
12
</text>
<text font-size="200" text-anchor="middle" x="5225" y="2274.5">
13
</text>
<text font-size="200" text-anchor="middle" x="5464" y="1110.5">
14
</text>
<text font-size="200" text-anchor="middle" x="3391.5" y="5369.5">
15
</text>
<text font-size="200" text-anchor="middle" x="4650.5" y="3052.5">
16
</text>
<text font-size="200" text-anchor="middle" x="5925.5" y="7923">
17
</text>
<text font-size="200" text-anchor="middle" x="1912.5" y="9809">
18
</text>
<text font-size="200" text-anchor="middle" x="9175.5" y="3761">
19
</text>
<text font-size="200" text-anchor="middle" x="8896" y="9186.5">
20
</text>
<text font-size="200" text-anchor="middle" x="3134" y="1790.5">
21
</text>
<text font-size="200" text-anchor="middle" x="6921.5" y="4946">
22
</text>
<text font-size="200" text-anchor="middle" x="8498.5" y="7975.5">
23
</text>
<text font-size="200" text-anchor="middle" x="9048.5" y="4391.5">
24
</text>
<text font-size="200" text-anchor="middle" x="2950.5" y="9182.5">
25
</text>
<text font-size="200" text-anchor="middle" x="7742.5" y="4498">
26
</text>
<text font-size="200" text-anchor="middle" x="9354" y="359">
27
</text>
<text font-size="200" text-anchor="middle" x="6950.5" y="1325">
28
</text>
<text font-size="200" text-anchor="middle" x="1618.5" y="2378">
29
</text>
<text font-size="200" text-anchor="middle" x="398.5" y="8365">
30
</text>
<text font-size="200" text-anchor="middle" x="3065.5" y="4229">
31
</text>
<text font-size="200" text-anchor="middle" x="4206.5" y="9060.5">
32
</text>
<text font-size="200" text-anchor="middle" x="5755" y="3578.5">
33
</text>
<text font-size="200" text-anchor="middle" x="5311.5" y="4826.5">
34
</text>
<text font-size="200" text-anchor="middle" x="3371" y="7373.5">
35
</text>
<text font-size="200" text-anchor="middle" x="8496" y="8472">
36
</text>
<text font-size="200" text-anchor="middle" x="1071" y="3636">
37
</text>
<text font-size="200" text-anchor="middle" x="381.5" y="7395.5">
38
</text>
<text font-size="200" text-anchor="middle" x="973.5" y="4200.5">
39
</text>
<text font-size="200" text-anchor="middle" x="8589.5" y="7179.5">
40
</text>
<text font-size="200" text-anchor="middle" x="4689.5" y="6195">
41
</text>
<text font-size="200" text-anchor="middle" x="2968" y="3254">
42
</text>
<text font-size="200" text-anchor="middle" x="5039.5" y="3266">
43
</text>
<text font-size="200" text-anchor="middle" x="1365.5" y="1472">
44
</text>
<text font-size="200" text-anchor="middle" x="2173" y="8429.5">
45
</text>
<text font-size="200" text-anchor="middle" x="5763" y="9287">
46
</text>
<text font-size="200" text-anchor="middle" x="7914" y="8999">
47
</text>
<text font-size="200" text-anchor="middle" x="1869" y="9311">
48
</text>
<text font-size="200" text-anchor="middle" x="4312.5" y="6246.5">
49
</text>
</svg>