<svg viewBox="-100 -100 10200 10200" xmlns="http://www.w3.org/2000/svg">
<path d="M0,0 l10000,0 l0,10000 l-10000,0 z" fill="white"/>
<path d="M7,3 l3486,0 l0,922 l-3486,0 z" fill="#7e00ff" stroke="black" stroke-width="5"/>
<path d="M5035,5660 l2948,0 l0,1581 l-2948,0 z" fill="#fe00ff" stroke="black" stroke-width="5"/>
<path d="M3498,3 l3545,0 l0,567 l-3545,0 z" fill="#fe00ff" stroke="black" stroke-width="5"/>
<path d="M5453,1501 l415,0 l0,1640 l-415,0 z" fill="#fe00ff" stroke="black" stroke-width="5"/>
<path d="M6443,2242 l620,0 l0,1485 l-620,0 z" fill="#ff00fe" stroke="black" stroke-width="5"/>
<path d="M3559,572 l1349,0 l0,1844 l-1349,0 z" fill="#ff00fe" stroke="black" stroke-width="5"/>
<path d="M7305,9492 l875,0 l0,503 l-875,0 z" fill="#fe00ff" stroke="black" stroke-width="5"/>
<path d="M7050,3 l888,0 l0,660 l-888,0 z" fill="#fe00ff" stroke="black" stroke-width="5"/>
<path d="M8133,4777 l1731,0 l0,1043 l-1731,0 z" fill="#ff00fe" stroke="black" stroke-width="5"/>
<path d="M6827,8693 l466,0 l0,1093 l-466,0 z" fill="#ff00fe" stroke="black" stroke-width="5"/>
<path d="M7086,1647 l997,0 l0,1563 l-997,0 z" fill="#fe00ff" stroke="black" stroke-width="5"/>
<path d="M4,4579 l1485,0 l0,1218 l-1485,0 z" fill="#fe00ff" stroke="black" stroke-width="5"/>
<path d="M7139,3245 l44,0 l0,865 l-44,0 z" fill="#ff00fb" stroke="black" stroke-width="5"/>
<path d="M5155,1980 l240,0 l0,325 l-240,0 z" fill="#fe00ff" stroke="black" stroke-width="5"/>
<path d="M4916,577 l1095,0 l0,887 l-1095,0 z" fill="#fe00ff" stroke="black" stroke-width="5"/>
<path d="M2509,4869 l1569,0 l0,1193 l-1569,0 z" fill="#fe00ff" stroke="black" stroke-width="5"/>
<path d="M4647,2474 l23,0 l0,1226 l-23,0 z" fill="#fe00ff" stroke="black" stroke-width="5"/>
<path d="M4836,7249 l2193,0 l0,1262 l-2193,0 z" fill="#ee00ff" stroke="black" stroke-width="5"/>
<path d="M5,9488 l3470,0 l0,501 l-3470,0 z" fill="#fe00ff" stroke="black" stroke-width="5"/>
<path d="M8124,3533 l879,0 l0,381 l-879,0 z" fill="#ff00fe" stroke="black" stroke-width="5"/>
<path d="M8574,8644 l1078,0 l0,1027 l-1078,0 z" fill="#ff00fe" stroke="black" stroke-width="5"/>
<path d="M2954,1079 l563,0 l0,1188 l-563,0 z" fill="#fe00ff" stroke="black" stroke-width="5"/>
<path d="M6271,4111 l1368,0 l0,1534 l-1368,0 z" fill="#ff00fe" stroke="black" stroke-width="5"/>
<path d="M7031,7610 l2964,0 l0,588 l-2964,0 z" fill="#ff00fe" stroke="black" stroke-width="5"/>
<path d="M8134,3915 l1866,0 l0,857 l-1866,0 z" fill="#4900ff" stroke="black" stroke-width="5"/>
<path d="M2298,8801 l1329,0 l0,679 l-1329,0 z" fill="#fb00ff" stroke="black" stroke-width="5"/>
<path d="M7648,3340 l466,0 l0,2029 l-466,0 z" fill="#fe00ff" stroke="black" stroke-width="5"/>
<path d="M7938,33 l2050,0 l0,278 l-2050,0 z" fill="#ff00fe" stroke="black" stroke-width="5"/>
<path d="M6074,1059 l1819,0 l0,433 l-1819,0 z" fill="#fe00ff" stroke="black" stroke-width="5"/>
<path d="M74,2337 l2707,0 l0,348 l-2707,0 z" fill="#fe00ff" stroke="black" stroke-width="5"/>
<path d="M27,7651 l633,0 l0,1122 l-633,0 z" fill="#ff00fe" stroke="black" stroke-width="5"/>
<path d="M1998,3473 l2077,0 l0,1392 l-2077,0 z" fill="#da00ff" stroke="black" stroke-width="5"/>
<path d="M3638,7927 l1170,0 l0,2068 l-1170,0 z" fill="#ec00ff" stroke="black" stroke-width="5"/>
<path d="M5414,3145 l1020,0 l0,734 l-1020,0 z" fill="#7b00ff" stroke="black" stroke-width="5"/>
<path d="M4090,3881 l2180,0 l0,1778 l-2180,0 z" fill="#ad00ff" stroke="black" stroke-width="5"/>
<path d="M1773,6624 l3053,0 l0,1298 l-3053,0 z" fill="#ff00fe" stroke="black" stroke-width="5"/>
<path d="M7042,8198 l2948,0 l0,445 l-2948,0 z" fill="#4800ff" stroke="black" stroke-width="5"/>
<path d="M133,3559 l1407,0 l0,181 l-1407,0 z" fill="#ff00fe" stroke="black" stroke-width="5"/>
<path d="M38,6829 l880,0 l0,736 l-880,0 z" fill="#fe00ff" stroke="black" stroke-width="5"/>
<path d="M20,3741 l1971,0 l0,837 l-1971,0 z" fill="#fa00ff" stroke="black" stroke-width="5"/>
<path d="M7997,6516 l1141,0 l0,1068 l-1141,0 z" fill="#fe00ff" stroke="black" stroke-width="5"/>
<path d="M4320,5659 l691,0 l0,956 l-691,0 z" fill="#ff00fe" stroke="black" stroke-width="5"/>
<path d="M1118,2701 l3515,0 l0,767 l-3515,0 z" fill="#ff00fe" stroke="black" stroke-width="5"/>
<path d="M4685,2428 l720,0 l0,1453 l-720,0 z" fill="#ff00fe" stroke="black" stroke-width="5"/>
<path d="M7,928 l2944,0 l0,1409 l-2944,0 z" fill="#9f00ff" stroke="black" stroke-width="5"/>
<path d="M660,7923 l2973,0 l0,873 l-2973,0 z" fill="#4300ff" stroke="black" stroke-width="5"/>
<path d="M4808,8519 l2015,0 l0,1480 l-2015,0 z" fill="#dd00ff" stroke="black" stroke-width="5"/>
<path d="M7301,8650 l1264,0 l0,829 l-1264,0 z" fill="#3800ff" stroke="black" stroke-width="5"/>
<path d="M2246,8905 l52,0 l0,507 l-52,0 z" fill="#ff00f9" stroke="black" stroke-width="5"/>
<path d="M4312,6176 l1,0 l0,1 l-1,0 z" fill="#0000ff" stroke="black" stroke-width="5"/>
<path d="M1879,330 l60,0 l0,60 l-60,0 z" fill="green"/>
<path d="M1909,360 l-159,104" stroke="black" stroke-width="5"/>
<path d="M5780,7061 l60,0 l0,60 l-60,0 z" fill="green"/>
<path d="M5810,7091 l699,-640.5" stroke="black" stroke-width="5"/>
<path d="M5377,392 l60,0 l0,60 l-60,0 z" fill="green"/>
<path d="M5407,422 l-136.5,-135.5" stroke="black" stroke-width="5"/>
<path d="M5737,3110 l60,0 l0,60 l-60,0 z" fill="green"/>
<path d="M5767,3140 l-106.5,-819" stroke="black" stroke-width="5"/>
<path d="M6629,3204 l60,0 l0,60 l-60,0 z" fill="green"/>
<path d="M6659,3234 l94,-249.5" stroke="black" stroke-width="5"/>
<path d="M4176,1590 l60,0 l0,60 l-60,0 z" fill="green"/>
<path d="M4206,1620 l27.5,-126" stroke="black" stroke-width="5"/>
<path d="M7823,9462 l60,0 l0,60 l-60,0 z" fill="green"/>
<path d="M7853,9492 l-110.5,251.5" stroke="black" stroke-width="5"/>
<path d="M7845,402 l60,0 l0,60 l-60,0 z" fill="green"/>
<path d="M7875,432 l-381,-99" stroke="black" stroke-width="5"/>
<path d="M9018,5029 l60,0 l0,60 l-60,0 z" fill="green"/>
<path d="M9048,5059 l-49.5,239.5" stroke="black" stroke-width="5"/>
<path d="M7262,9040 l60,0 l0,60 l-60,0 z" fill="green"/>
<path d="M7292,9070 l-232,169.5" stroke="black" stroke-width="5"/>
<path d="M7603,2466 l60,0 l0,60 l-60,0 z" fill="green"/>
<path d="M7633,2496 l-48.5,-67.5" stroke="black" stroke-width="5"/>
<path d="M391,4805 l60,0 l0,60 l-60,0 z" fill="green"/>
<path d="M421,4835 l325.5,353" stroke="black" stroke-width="5"/>
<path d="M7134,4079 l60,0 l0,60 l-60,0 z" fill="green"/>
<path d="M7164,4109 l-3,-431.5" stroke="black" stroke-width="5"/>
<path d="M5326,2241 l60,0 l0,60 l-60,0 z" fill="green"/>
<path d="M5356,2271 l-81,-128.5" stroke="black" stroke-width="5"/>
<path d="M5231,547 l60,0 l0,60 l-60,0 z" fill="green"/>
<path d="M5261,577 l202.5,443.5" stroke="black" stroke-width="5"/>
<path d="M3516,5195 l60,0 l0,60 l-60,0 z" fill="green"/>
<path d="M3546,5225 l-252.5,240.5" stroke="black" stroke-width="5"/>
<path d="M4637,3356 l60,0 l0,60 l-60,0 z" fill="green"/>
<path d="M4667,3386 l-8.5,-299" stroke="black" stroke-width="5"/>
<path d="M5566,7866 l60,0 l0,60 l-60,0 z" fill="green"/>
<path d="M5596,7896 l336.5,-16" stroke="black" stroke-width="5"/>
<path d="M2488,9783 l60,0 l0,60 l-60,0 z" fill="green"/>
<path d="M2518,9813 l-778,-74.5" stroke="black" stroke-width="5"/>
<path d="M8972,3883 l60,0 l0,60 l-60,0 z" fill="green"/>
<path d="M9002,3913 l-438.5,-189.5" stroke="black" stroke-width="5"/>
<path d="M8544,8917 l60,0 l0,60 l-60,0 z" fill="green"/>
<path d="M8574,8947 l539,210.5" stroke="black" stroke-width="5"/>
<path d="M3088,1743 l60,0 l0,60 l-60,0 z" fill="green"/>
<path d="M3118,1773 l117.5,-100" stroke="black" stroke-width="5"/>
<path d="M7110,4358 l60,0 l0,60 l-60,0 z" fill="green"/>
<path d="M7140,4388 l-185,490" stroke="black" stroke-width="5"/>
<path d="M8514,8166 l60,0 l0,60 l-60,0 z" fill="green"/>
<path d="M8544,8196 l-31,-292" stroke="black" stroke-width="5"/>
<path d="M8547,4307 l60,0 l0,60 l-60,0 z" fill="green"/>
<path d="M8577,4337 l490,6.5" stroke="black" stroke-width="5"/>
<path d="M3125,9138 l60,0 l0,60 l-60,0 z" fill="green"/>
<path d="M3155,9168 l-192.5,-27.5" stroke="black" stroke-width="5"/>
<path d="M7793,4374 l60,0 l0,60 l-60,0 z" fill="green"/>
<path d="M7823,4404 l58,-49.5" stroke="black" stroke-width="5"/>
<path d="M9421,80 l60,0 l0,60 l-60,0 z" fill="green"/>
<path d="M9451,110 l-488,62" stroke="black" stroke-width="5"/>
<path d="M7001,1359 l60,0 l0,60 l-60,0 z" fill="green"/>
<path d="M7031,1389 l-47.5,-113.5" stroke="black" stroke-width="5"/>
<path d="M1811,2307 l60,0 l0,60 l-60,0 z" fill="green"/>
<path d="M1841,2337 l-413.5,174" stroke="black" stroke-width="5"/>
<path d="M46,8334 l60,0 l0,60 l-60,0 z" fill="green"/>
<path d="M76,8364 l267.5,-152" stroke="black" stroke-width="5"/>
<path d="M3513,3901 l60,0 l0,60 l-60,0 z" fill="green"/>
<path d="M3543,3931 l-506.5,238" stroke="black" stroke-width="5"/>
<path d="M3897,8798 l60,0 l0,60 l-60,0 z" fill="green"/>
<path d="M3927,8828 l296,133" stroke="black" stroke-width="5"/>
<path d="M5641,3275 l60,0 l0,60 l-60,0 z" fill="green"/>
<path d="M5671,3305 l253,207" stroke="black" stroke-width="5"/>
<path d="M5512,4557 l60,0 l0,60 l-60,0 z" fill="green"/>
<path d="M5542,4587 l-362,183" stroke="black" stroke-width="5"/>
<path d="M4000,7702 l60,0 l0,60 l-60,0 z" fill="green"/>
<path d="M4030,7732 l-730.5,-459" stroke="black" stroke-width="5"/>
<path d="M8545,8170 l60,0 l0,60 l-60,0 z" fill="green"/>
<path d="M8575,8200 l-59,220.5" stroke="black" stroke-width="5"/>
<path d="M1109,3709 l60,0 l0,60 l-60,0 z" fill="green"/>
<path d="M1139,3739 l-302.5,-89.5" stroke="black" stroke-width="5"/>
<path d="M20,7385 l60,0 l0,60 l-60,0 z" fill="green"/>
<path d="M50,7415 l428,-218" stroke="black" stroke-width="5"/>
<path d="M904,4026 l60,0 l0,60 l-60,0 z" fill="green"/>
<path d="M934,4056 l71.5,103.5" stroke="black" stroke-width="5"/>
<path d="M8771,7148 l60,0 l0,60 l-60,0 z" fill="green"/>
<path d="M8801,7178 l-233.5,-128" stroke="black" stroke-width="5"/>
<path d="M4469,6177 l60,0 l0,60 l-60,0 z" fill="green"/>
<path d="M4499,6207 l166.5,-70" stroke="black" stroke-width="5"/>
<path d="M3066,3345 l60,0 l0,60 l-60,0 z" fill="green"/>
<path d="M3096,3375 l-220.5,-290.5" stroke="black" stroke-width="5"/>
<path d="M5222,3251 l60,0 l0,60 l-60,0 z" fill="green"/>
<path d="M5252,3281 l-207,-126.5" stroke="black" stroke-width="5"/>
<path d="M2217,1416 l60,0 l0,60 l-60,0 z" fill="green"/>
<path d="M2247,1446 l-768,186.5" stroke="black" stroke-width="5"/>
<path d="M3317,8471 l60,0 l0,60 l-60,0 z" fill="green"/>
<path d="M3347,8501 l-1200.5,-141.5" stroke="black" stroke-width="5"/>
<path d="M5761,8570 l60,0 l0,60 l-60,0 z" fill="green"/>
<path d="M5791,8600 l24.5,659" stroke="black" stroke-width="5"/>
<path d="M8003,8962 l60,0 l0,60 l-60,0 z" fill="green"/>
<path d="M8033,8992 l-100,72.5" stroke="black" stroke-width="5"/>
<path d="M2267,9224 l60,0 l0,60 l-60,0 z" fill="green"/>
<path d="M2297,9254 l-25,-95.5" stroke="black" stroke-width="5"/>
<path d="M4282,6146 l60,0 l0,60 l-60,0 z" fill="green"/>
<path d="M4312,6176 l0.5,0.5" stroke="black" stroke-width="5"/>
<text font-size="200" text-anchor="middle" x="1750" y="534">
0
</text>
<text font-size="200" text-anchor="middle" x="6509" y="6520.5">
1
</text>
<text font-size="200" text-anchor="middle" x="5270.5" y="356.5">
2
</text>
<text font-size="200" text-anchor="middle" x="5660.5" y="2391">
3
</text>
<text font-size="200" text-anchor="middle" x="6753" y="3054.5">
4
</text>
<text font-size="200" text-anchor="middle" x="4233.5" y="1564">
5
</text>
<text font-size="200" text-anchor="middle" x="7742.5" y="9813.5">
6
</text>
<text font-size="200" text-anchor="middle" x="7494" y="403">
7
</text>
<text font-size="200" text-anchor="middle" x="8998.5" y="5368.5">
8
</text>
<text font-size="200" text-anchor="middle" x="7060" y="9309.5">
9
</text>
<text font-size="200" text-anchor="middle" x="7584.5" y="2498.5">
10
</text>
<text font-size="200" text-anchor="middle" x="746.5" y="5258">
11
</text>
<text font-size="200" text-anchor="middle" x="7161" y="3747.5">
12
</text>
<text font-size="200" text-anchor="middle" x="5275" y="2212.5">
13
</text>
<text font-size="200" text-anchor="middle" x="5463.5" y="1090.5">
14
</text>
<text font-size="200" text-anchor="middle" x="3293.5" y="5535.5">
15
</text>
<text font-size="200" text-anchor="middle" x="4658.5" y="3157">
16
</text>
<text font-size="200" text-anchor="middle" x="5932.5" y="7950">
17
</text>
<text font-size="200" text-anchor="middle" x="1740" y="9808.5">
18
</text>
<text font-size="200" text-anchor="middle" x="8563.5" y="3793.5">
19
</text>
<text font-size="200" text-anchor="middle" x="9113" y="9227.5">
20
</text>
<text font-size="200" text-anchor="middle" x="3235.5" y="1743">
21
</text>
<text font-size="200" text-anchor="middle" x="6955" y="4948">
22
</text>
<text font-size="200" text-anchor="middle" x="8513" y="7974">
23
</text>
<text font-size="200" text-anchor="middle" x="9067" y="4413.5">
24
</text>
<text font-size="200" text-anchor="middle" x="2962.5" y="9210.5">
25
</text>
<text font-size="200" text-anchor="middle" x="7881" y="4424.5">
26
</text>
<text font-size="200" text-anchor="middle" x="8963" y="242">
27
</text>
<text font-size="200" text-anchor="middle" x="6983.5" y="1345.5">
28
</text>
<text font-size="200" text-anchor="middle" x="1427.5" y="2581">
29
</text>
<text font-size="200" text-anchor="middle" x="343.5" y="8282">
30
</text>
<text font-size="200" text-anchor="middle" x="3036.5" y="4239">
31
</text>
<text font-size="200" text-anchor="middle" x="4223" y="9031">
32
</text>
<text font-size="200" text-anchor="middle" x="5924" y="3582">
33
</text>
<text font-size="200" text-anchor="middle" x="5180" y="4840">
34
</text>
<text font-size="200" text-anchor="middle" x="3299.5" y="7343">
35
</text>
<text font-size="200" text-anchor="middle" x="8516" y="8490.5">
36
</text>
<text font-size="200" text-anchor="middle" x="836.5" y="3719.5">
37
</text>
<text font-size="200" text-anchor="middle" x="478" y="7267">
38
</text>
<text font-size="200" text-anchor="middle" x="1005.5" y="4229.5">
39
</text>
<text font-size="200" text-anchor="middle" x="8567.5" y="7120">
40
</text>
<text font-size="200" text-anchor="middle" x="4665.5" y="6207">
41
</text>
<text font-size="200" text-anchor="middle" x="2875.5" y="3154.5">
42
</text>
<text font-size="200" text-anchor="middle" x="5045" y="3224.5">
43
</text>
<text font-size="200" text-anchor="middle" x="1479" y="1702.5">
44
</text>
<text font-size="200" text-anchor="middle" x="2146.5" y="8429.5">
45
</text>
<text font-size="200" text-anchor="middle" x="5815.5" y="9329">
46
</text>
<text font-size="200" text-anchor="middle" x="7933" y="9134.5">
47
</text>
<text font-size="200" text-anchor="middle" x="2272" y="9228.5">
48
</text>
<text font-size="200" text-anchor="middle" x="4312.5" y="6246.5">
49
</text>
</svg>