<svg viewBox="-100 -100 10200 10200" xmlns="http://www.w3.org/2000/svg">
<path d="M0,0 l10000,0 l0,10000 l-10000,0 z" fill="white"/>
<path d="M2,0 l3522,0 l0,1017 l-3522,0 z" fill="#9400ff" stroke="black" stroke-width="5"/>
<path d="M5042,5646 l2906,0 l0,1604 l-2906,0 z" fill="#fe00ff" stroke="black" stroke-width="5"/>
<path d="M3535,2 l3539,0 l0,568 l-3539,0 z" fill="#ff00fe" stroke="black" stroke-width="5"/>
<path d="M5449,1963 l576,0 l0,1183 l-576,0 z" fill="#fe00ff" stroke="black" stroke-width="5"/>
<path d="M6201,2604 l843,0 l0,1092 l-843,0 z" fill="#fe00ff" stroke="black" stroke-width="5"/>
<path d="M3539,603 l1343,0 l0,1852 l-1343,0 z" fill="#fe00ff" stroke="black" stroke-width="5"/>
<path d="M7362,9492 l891,0 l0,494 l-891,0 z" fill="#ff00fe" stroke="black" stroke-width="5"/>
<path d="M7102,107 l1045,0 l0,561 l-1045,0 z" fill="#ff00fe" stroke="black" stroke-width="5"/>
<path d="M8170,4711 l1726,0 l0,1046 l-1726,0 z" fill="#fe00ff" stroke="black" stroke-width="5"/>
<path d="M6770,8623 l584,0 l0,872 l-584,0 z" fill="#ff00fe" stroke="black" stroke-width="5"/>
<path d="M7072,1691 l1020,0 l0,1528 l-1020,0 z" fill="#ff00fe" stroke="black" stroke-width="5"/>
<path d="M5,4518 l1467,0 l0,1233 l-1467,0 z" fill="#ff00fe" stroke="black" stroke-width="5"/>
<path d="M7164,3535 l63,0 l0,575 l-63,0 z" fill="#ff00fe" stroke="black" stroke-width="5"/>
<path d="M5064,2092 l352,0 l0,223 l-352,0 z" fill="#ff00fe" stroke="black" stroke-width="5"/>
<path d="M4902,577 l1110,0 l0,875 l-1110,0 z" fill="#fe00ff" stroke="black" stroke-width="5"/>
<path d="M2654,4665 l1475,0 l0,1269 l-1475,0 z" fill="#fe00ff" stroke="black" stroke-width="5"/>
<path d="M4638,2465 l30,0 l0,922 l-30,0 z" fill="#fe00ff" stroke="black" stroke-width="5"/>
<path d="M4856,7250 l2167,0 l0,1181 l-2167,0 z" fill="#df00ff" stroke="black" stroke-width="5"/>
<path d="M9,9535 l3597,0 l0,465 l-3597,0 z" fill="#fe00ff" stroke="black" stroke-width="5"/>
<path d="M8598,3485 l780,0 l0,429 l-780,0 z" fill="#ff00ff" stroke="black" stroke-width="5"/>
<path d="M8477,8622 l1107,0 l0,1000 l-1107,0 z" fill="#fe00ff" stroke="black" stroke-width="5"/>
<path d="M2795,1115 l692,0 l0,968 l-692,0 z" fill="#ff00fe" stroke="black" stroke-width="5"/>
<path d="M6434,4112 l1066,0 l0,1534 l-1066,0 z" fill="#e100ff" stroke="black" stroke-width="5"/>
<path d="M7033,7607 l2948,0 l0,591 l-2948,0 z" fill="#fe00ff" stroke="black" stroke-width="5"/>
<path d="M8088,3914 l1897,0 l0,795 l-1897,0 z" fill="#4200ff" stroke="black" stroke-width="5"/>
<path d="M2306,8742 l1303,0 l0,749 l-1303,0 z" fill="#fe00ff" stroke="black" stroke-width="5"/>
<path d="M7501,3562 l581,0 l0,1628 l-581,0 z" fill="#ff00fe" stroke="black" stroke-width="5"/>
<path d="M8312,99 l1614,0 l0,353 l-1614,0 z" fill="#fe00ff" stroke="black" stroke-width="5"/>
<path d="M6250,962 l1111,0 l0,709 l-1111,0 z" fill="#fe00ff" stroke="black" stroke-width="5"/>
<path d="M494,2265 l2022,0 l0,466 l-2022,0 z" fill="#ff00fe" stroke="black" stroke-width="5"/>
<path d="M3,7756 l633,0 l0,1122 l-633,0 z" fill="#ff00fe" stroke="black" stroke-width="5"/>
<path d="M1990,3578 l2128,0 l0,1082 l-2128,0 z" fill="#a600ff" stroke="black" stroke-width="5"/>
<path d="M3613,7987 l1166,0 l0,2007 l-1166,0 z" fill="#e600ff" stroke="black" stroke-width="5"/>
<path d="M5409,3152 l780,0 l0,732 l-780,0 z" fill="#4e00ff" stroke="black" stroke-width="5"/>
<path d="M4133,3887 l2295,0 l0,1757 l-2295,0 z" fill="#b600ff" stroke="black" stroke-width="5"/>
<path d="M1889,6635 l2964,0 l0,1337 l-2964,0 z" fill="#ff00fe" stroke="black" stroke-width="5"/>
<path d="M7038,8200 l2951,0 l0,422 l-2951,0 z" fill="#4200ff" stroke="black" stroke-width="5"/>
<path d="M287,3491 l1022,0 l0,249 l-1022,0 z" fill="#ff00fe" stroke="black" stroke-width="5"/>
<path d="M49,6927 l788,0 l0,822 l-788,0 z" fill="#ff00fe" stroke="black" stroke-width="5"/>
<path d="M8,3742 l1976,0 l0,771 l-1976,0 z" fill="#f000ff" stroke="black" stroke-width="5"/>
<path d="M7954,6503 l1242,0 l0,981 l-1242,0 z" fill="#fe00ff" stroke="black" stroke-width="5"/>
<path d="M4323,5647 l716,0 l0,923 l-716,0 z" fill="#ff00fe" stroke="black" stroke-width="5"/>
<path d="M1332,2731 l3190,0 l0,845 l-3190,0 z" fill="#fe00ff" stroke="black" stroke-width="5"/>
<path d="M4675,2460 l733,0 l0,1427 l-733,0 z" fill="#fe00ff" stroke="black" stroke-width="5"/>
<path d="M5,1028 l2790,0 l0,1237 l-2790,0 z" fill="#7800ff" stroke="black" stroke-width="5"/>
<path d="M643,7972 l2967,0 l0,763 l-2967,0 z" fill="#3400ff" stroke="black" stroke-width="5"/>
<path d="M4784,8436 l1985,0 l0,1564 l-1985,0 z" fill="#e500ff" stroke="black" stroke-width="5"/>
<path d="M7356,8633 l1118,0 l0,859 l-1118,0 z" fill="#2f00ff" stroke="black" stroke-width="5"/>
<path d="M2217,9107 l81,0 l0,292 l-81,0 z" fill="#fe00ff" stroke="black" stroke-width="5"/>
<path d="M4312,6176 l1,0 l0,1 l-1,0 z" fill="#0000ff" stroke="black" stroke-width="5"/>
<path d="M1879,330 l60,0 l0,60 l-60,0 z" fill="green"/>
<path d="M1909,360 l-146,148.5" stroke="black" stroke-width="5"/>
<path d="M5780,7061 l60,0 l0,60 l-60,0 z" fill="green"/>
<path d="M5810,7091 l685,-643" stroke="black" stroke-width="5"/>
<path d="M5377,392 l60,0 l0,60 l-60,0 z" fill="green"/>
<path d="M5407,422 l-102.5,-136" stroke="black" stroke-width="5"/>
<path d="M5737,3110 l60,0 l0,60 l-60,0 z" fill="green"/>
<path d="M5767,3140 l-30,-585.5" stroke="black" stroke-width="5"/>
<path d="M6629,3204 l60,0 l0,60 l-60,0 z" fill="green"/>
<path d="M6659,3234 l-36.5,-84" stroke="black" stroke-width="5"/>
<path d="M4176,1590 l60,0 l0,60 l-60,0 z" fill="green"/>
<path d="M4206,1620 l4.5,-91" stroke="black" stroke-width="5"/>
<path d="M7823,9462 l60,0 l0,60 l-60,0 z" fill="green"/>
<path d="M7853,9492 l-45.5,247" stroke="black" stroke-width="5"/>
<path d="M7845,402 l60,0 l0,60 l-60,0 z" fill="green"/>
<path d="M7875,432 l-250.5,-44.5" stroke="black" stroke-width="5"/>
<path d="M9018,5029 l60,0 l0,60 l-60,0 z" fill="green"/>
<path d="M9048,5059 l-15,175" stroke="black" stroke-width="5"/>
<path d="M7262,9040 l60,0 l0,60 l-60,0 z" fill="green"/>
<path d="M7292,9070 l-230,-11" stroke="black" stroke-width="5"/>
<path d="M7603,2466 l60,0 l0,60 l-60,0 z" fill="green"/>
<path d="M7633,2496 l-51,-41" stroke="black" stroke-width="5"/>
<path d="M391,4805 l60,0 l0,60 l-60,0 z" fill="green"/>
<path d="M421,4835 l317.5,299.5" stroke="black" stroke-width="5"/>
<path d="M7134,4079 l60,0 l0,60 l-60,0 z" fill="green"/>
<path d="M7164,4109 l31.5,-286.5" stroke="black" stroke-width="5"/>
<path d="M5326,2241 l60,0 l0,60 l-60,0 z" fill="green"/>
<path d="M5356,2271 l-116,-67.5" stroke="black" stroke-width="5"/>
<path d="M5231,547 l60,0 l0,60 l-60,0 z" fill="green"/>
<path d="M5261,577 l196,437.5" stroke="black" stroke-width="5"/>
<path d="M3516,5195 l60,0 l0,60 l-60,0 z" fill="green"/>
<path d="M3546,5225 l-154.5,74.5" stroke="black" stroke-width="5"/>
<path d="M4637,3356 l60,0 l0,60 l-60,0 z" fill="green"/>
<path d="M4667,3386 l-14,-460" stroke="black" stroke-width="5"/>
<path d="M5566,7866 l60,0 l0,60 l-60,0 z" fill="green"/>
<path d="M5596,7896 l343.5,-55.5" stroke="black" stroke-width="5"/>
<path d="M2488,9783 l60,0 l0,60 l-60,0 z" fill="green"/>
<path d="M2518,9813 l-710.5,-45.5" stroke="black" stroke-width="5"/>
<path d="M8972,3883 l60,0 l0,60 l-60,0 z" fill="green"/>
<path d="M9002,3913 l-14,-213.5" stroke="black" stroke-width="5"/>
<path d="M8544,8917 l60,0 l0,60 l-60,0 z" fill="green"/>
<path d="M8574,8947 l456.5,175" stroke="black" stroke-width="5"/>
<path d="M3088,1743 l60,0 l0,60 l-60,0 z" fill="green"/>
<path d="M3118,1773 l23,-174" stroke="black" stroke-width="5"/>
<path d="M7110,4358 l60,0 l0,60 l-60,0 z" fill="green"/>
<path d="M7140,4388 l-173,491" stroke="black" stroke-width="5"/>
<path d="M8514,8166 l60,0 l0,60 l-60,0 z" fill="green"/>
<path d="M8544,8196 l-37,-293.5" stroke="black" stroke-width="5"/>
<path d="M8547,4307 l60,0 l0,60 l-60,0 z" fill="green"/>
<path d="M8577,4337 l459.5,-25.5" stroke="black" stroke-width="5"/>
<path d="M3125,9138 l60,0 l0,60 l-60,0 z" fill="green"/>
<path d="M3155,9168 l-197.5,-51.5" stroke="black" stroke-width="5"/>
<path d="M7793,4374 l60,0 l0,60 l-60,0 z" fill="green"/>
<path d="M7823,4404 l-31.5,-28" stroke="black" stroke-width="5"/>
<path d="M9421,80 l60,0 l0,60 l-60,0 z" fill="green"/>
<path d="M9451,110 l-332,165.5" stroke="black" stroke-width="5"/>
<path d="M7001,1359 l60,0 l0,60 l-60,0 z" fill="green"/>
<path d="M7031,1389 l-225.5,-72.5" stroke="black" stroke-width="5"/>
<path d="M1811,2307 l60,0 l0,60 l-60,0 z" fill="green"/>
<path d="M1841,2337 l-336,161" stroke="black" stroke-width="5"/>
<path d="M46,8334 l60,0 l0,60 l-60,0 z" fill="green"/>
<path d="M76,8364 l243.5,-47" stroke="black" stroke-width="5"/>
<path d="M3513,3901 l60,0 l0,60 l-60,0 z" fill="green"/>
<path d="M3543,3931 l-489,188" stroke="black" stroke-width="5"/>
<path d="M3897,8798 l60,0 l0,60 l-60,0 z" fill="green"/>
<path d="M3927,8828 l269,162.5" stroke="black" stroke-width="5"/>
<path d="M5641,3275 l60,0 l0,60 l-60,0 z" fill="green"/>
<path d="M5671,3305 l128,213" stroke="black" stroke-width="5"/>
<path d="M5512,4557 l60,0 l0,60 l-60,0 z" fill="green"/>
<path d="M5542,4587 l-261.5,178.5" stroke="black" stroke-width="5"/>
<path d="M4000,7702 l60,0 l0,60 l-60,0 z" fill="green"/>
<path d="M4030,7732 l-659,-428.5" stroke="black" stroke-width="5"/>
<path d="M8545,8170 l60,0 l0,60 l-60,0 z" fill="green"/>
<path d="M8575,8200 l-61.5,211" stroke="black" stroke-width="5"/>
<path d="M1109,3709 l60,0 l0,60 l-60,0 z" fill="green"/>
<path d="M1139,3739 l-341,-123.5" stroke="black" stroke-width="5"/>
<path d="M20,7385 l60,0 l0,60 l-60,0 z" fill="green"/>
<path d="M50,7415 l393,-77" stroke="black" stroke-width="5"/>
<path d="M904,4026 l60,0 l0,60 l-60,0 z" fill="green"/>
<path d="M934,4056 l62,71.5" stroke="black" stroke-width="5"/>
<path d="M8771,7148 l60,0 l0,60 l-60,0 z" fill="green"/>
<path d="M8801,7178 l-226,-184.5" stroke="black" stroke-width="5"/>
<path d="M4469,6177 l60,0 l0,60 l-60,0 z" fill="green"/>
<path d="M4499,6207 l182,-98.5" stroke="black" stroke-width="5"/>
<path d="M3066,3345 l60,0 l0,60 l-60,0 z" fill="green"/>
<path d="M3096,3375 l-169,-221.5" stroke="black" stroke-width="5"/>
<path d="M5222,3251 l60,0 l0,60 l-60,0 z" fill="green"/>
<path d="M5252,3281 l-210.5,-107.5" stroke="black" stroke-width="5"/>
<path d="M2217,1416 l60,0 l0,60 l-60,0 z" fill="green"/>
<path d="M2247,1446 l-847,200.5" stroke="black" stroke-width="5"/>
<path d="M3317,8471 l60,0 l0,60 l-60,0 z" fill="green"/>
<path d="M3347,8501 l-1220.5,-147.5" stroke="black" stroke-width="5"/>
<path d="M5761,8570 l60,0 l0,60 l-60,0 z" fill="green"/>
<path d="M5791,8600 l-14.5,618" stroke="black" stroke-width="5"/>
<path d="M8003,8962 l60,0 l0,60 l-60,0 z" fill="green"/>
<path d="M8033,8992 l-118,70.5" stroke="black" stroke-width="5"/>
<path d="M2267,9224 l60,0 l0,60 l-60,0 z" fill="green"/>
<path d="M2297,9254 l-39.5,-1" stroke="black" stroke-width="5"/>
<path d="M4282,6146 l60,0 l0,60 l-60,0 z" fill="green"/>
<path d="M4312,6176 l0.5,0.5" stroke="black" stroke-width="5"/>
<text font-size="200" text-anchor="middle" x="1763" y="578.5">
0
</text>
<text font-size="200" text-anchor="middle" x="6495" y="6518">
1
</text>
<text font-size="200" text-anchor="middle" x="5304.5" y="356">
2
</text>
<text font-size="200" text-anchor="middle" x="5737" y="2624.5">
3
</text>
<text font-size="200" text-anchor="middle" x="6622.5" y="3220">
4
</text>
<text font-size="200" text-anchor="middle" x="4210.5" y="1599">
5
</text>
<text font-size="200" text-anchor="middle" x="7807.5" y="9809">
6
</text>
<text font-size="200" text-anchor="middle" x="7624.5" y="457.5">
7
</text>
<text font-size="200" text-anchor="middle" x="9033" y="5304">
8
</text>
<text font-size="200" text-anchor="middle" x="7062" y="9129">
9
</text>
<text font-size="200" text-anchor="middle" x="7582" y="2525">
10
</text>
<text font-size="200" text-anchor="middle" x="738.5" y="5204.5">
11
</text>
<text font-size="200" text-anchor="middle" x="7195.5" y="3892.5">
12
</text>
<text font-size="200" text-anchor="middle" x="5240" y="2273.5">
13
</text>
<text font-size="200" text-anchor="middle" x="5457" y="1084.5">
14
</text>
<text font-size="200" text-anchor="middle" x="3391.5" y="5369.5">
15
</text>
<text font-size="200" text-anchor="middle" x="4653" y="2996">
16
</text>
<text font-size="200" text-anchor="middle" x="5939.5" y="7910.5">
17
</text>
<text font-size="200" text-anchor="middle" x="1807.5" y="9837.5">
18
</text>
<text font-size="200" text-anchor="middle" x="8988" y="3769.5">
19
</text>
<text font-size="200" text-anchor="middle" x="9030.5" y="9192">
20
</text>
<text font-size="200" text-anchor="middle" x="3141" y="1669">
21
</text>
<text font-size="200" text-anchor="middle" x="6967" y="4949">
22
</text>
<text font-size="200" text-anchor="middle" x="8507" y="7972.5">
23
</text>
<text font-size="200" text-anchor="middle" x="9036.5" y="4381.5">
24
</text>
<text font-size="200" text-anchor="middle" x="2957.5" y="9186.5">
25
</text>
<text font-size="200" text-anchor="middle" x="7791.5" y="4446">
26
</text>
<text font-size="200" text-anchor="middle" x="9119" y="345.5">
27
</text>
<text font-size="200" text-anchor="middle" x="6805.5" y="1386.5">
28
</text>
<text font-size="200" text-anchor="middle" x="1505" y="2568">
29
</text>
<text font-size="200" text-anchor="middle" x="319.5" y="8387">
30
</text>
<text font-size="200" text-anchor="middle" x="3054" y="4189">
31
</text>
<text font-size="200" text-anchor="middle" x="4196" y="9060.5">
32
</text>
<text font-size="200" text-anchor="middle" x="5799" y="3588">
33
</text>
<text font-size="200" text-anchor="middle" x="5280.5" y="4835.5">
34
</text>
<text font-size="200" text-anchor="middle" x="3371" y="7373.5">
35
</text>
<text font-size="200" text-anchor="middle" x="8513.5" y="8481">
36
</text>
<text font-size="200" text-anchor="middle" x="798" y="3685.5">
37
</text>
<text font-size="200" text-anchor="middle" x="443" y="7408">
38
</text>
<text font-size="200" text-anchor="middle" x="996" y="4197.5">
39
</text>
<text font-size="200" text-anchor="middle" x="8575" y="7063.5">
40
</text>
<text font-size="200" text-anchor="middle" x="4681" y="6178.5">
41
</text>
<text font-size="200" text-anchor="middle" x="2927" y="3223.5">
42
</text>
<text font-size="200" text-anchor="middle" x="5041.5" y="3243.5">
43
</text>
<text font-size="200" text-anchor="middle" x="1400" y="1716.5">
44
</text>
<text font-size="200" text-anchor="middle" x="2126.5" y="8423.5">
45
</text>
<text font-size="200" text-anchor="middle" x="5776.5" y="9288">
46
</text>
<text font-size="200" text-anchor="middle" x="7915" y="9132.5">
47
</text>
<text font-size="200" text-anchor="middle" x="2257.5" y="9323">
48
</text>
<text font-size="200" text-anchor="middle" x="4312.5" y="6246.5">
49
</text>
</svg>