<svg viewBox="-100 -100 10200 10200" xmlns="http://www.w3.org/2000/svg">
<path d="M0,0 l10000,0 l0,10000 l-10000,0 z" fill="white"/>
<path d="M12,1 l3503,0 l0,927 l-3503,0 z" fill="#8000ff" stroke="black" stroke-width="5"/>
<path d="M5017,5661 l3011,0 l0,1548 l-3011,0 z" fill="#fe00ff" stroke="black" stroke-width="5"/>
<path d="M3516,15 l3711,0 l0,542 l-3711,0 z" fill="#ff00fe" stroke="black" stroke-width="5"/>
<path d="M5472,1761 l491,0 l0,1388 l-491,0 z" fill="#ff00fe" stroke="black" stroke-width="5"/>
<path d="M6394,2290 l721,0 l0,1277 l-721,0 z" fill="#ff00fe" stroke="black" stroke-width="5"/>
<path d="M3563,570 l1355,0 l0,1836 l-1355,0 z" fill="#ff00fe" stroke="black" stroke-width="5"/>
<path d="M7389,9487 l911,0 l0,483 l-911,0 z" fill="#fe00ff" stroke="black" stroke-width="5"/>
<path d="M7360,38 l661,0 l0,889 l-661,0 z" fill="#ff00fe" stroke="black" stroke-width="5"/>
<path d="M8162,4837 l1809,0 l0,998 l-1809,0 z" fill="#fe00ff" stroke="black" stroke-width="5"/>
<path d="M6919,8744 l423,0 l0,1207 l-423,0 z" fill="#ff00fe" stroke="black" stroke-width="5"/>
<path d="M7116,1588 l920,0 l0,1694 l-920,0 z" fill="#ff00fe" stroke="black" stroke-width="5"/>
<path d="M25,4628 l1455,0 l0,1243 l-1455,0 z" fill="#fe00ff" stroke="black" stroke-width="5"/>
<path d="M7151,3543 l59,0 l0,591 l-59,0 z" fill="#fe00ff" stroke="black" stroke-width="5"/>
<path d="M5232,1683 l125,0 l0,637 l-125,0 z" fill="#ff00fe" stroke="black" stroke-width="5"/>
<path d="M4925,561 l1064,0 l0,913 l-1064,0 z" fill="#ff00fe" stroke="black" stroke-width="5"/>
<path d="M2444,4962 l1664,0 l0,1125 l-1664,0 z" fill="#ff00fe" stroke="black" stroke-width="5"/>
<path d="M4648,2411 l20,0 l0,1454 l-20,0 z" fill="#ff00fe" stroke="black" stroke-width="5"/>
<path d="M4853,7210 l2133,0 l0,1330 l-2133,0 z" fill="#f200ff" stroke="black" stroke-width="5"/>
<path d="M13,9503 l3550,0 l0,490 l-3550,0 z" fill="#ff00fe" stroke="black" stroke-width="5"/>
<path d="M8228,3552 l881,0 l0,380 l-881,0 z" fill="#ff00fe" stroke="black" stroke-width="5"/>
<path d="M8556,8701 l1096,0 l0,1010 l-1096,0 z" fill="#fe00ff" stroke="black" stroke-width="5"/>
<path d="M3054,968 l504,0 l0,1329 l-504,0 z" fill="#fe00ff" stroke="black" stroke-width="5"/>
<path d="M6303,4135 l1376,0 l0,1525 l-1376,0 z" fill="#ff00fe" stroke="black" stroke-width="5"/>
<path d="M7025,7603 l2933,0 l0,594 l-2933,0 z" fill="#fe00ff" stroke="black" stroke-width="5"/>
<path d="M8102,3938 l1897,0 l0,883 l-1897,0 z" fill="#4f00ff" stroke="black" stroke-width="5"/>
<path d="M2315,8763 l1334,0 l0,732 l-1334,0 z" fill="#ff00fe" stroke="black" stroke-width="5"/>
<path d="M7694,3298 l402,0 l0,2358 l-402,0 z" fill="#ff00fe" stroke="black" stroke-width="5"/>
<path d="M8034,17 l1810,0 l0,315 l-1810,0 z" fill="#ff00fe" stroke="black" stroke-width="5"/>
<path d="M6067,1015 l1743,0 l0,456 l-1743,0 z" fill="#ff00fe" stroke="black" stroke-width="5"/>
<path d="M263,2337 l2846,0 l0,331 l-2846,0 z" fill="#fe00ff" stroke="black" stroke-width="5"/>
<path d="M12,7711 l576,0 l0,1233 l-576,0 z" fill="#ff00fe" stroke="black" stroke-width="5"/>
<path d="M2002,3402 l2192,0 l0,1557 l-2192,0 z" fill="#f700ff" stroke="black" stroke-width="5"/>
<path d="M3653,7925 l1194,0 l0,2045 l-1194,0 z" fill="#ee00ff" stroke="black" stroke-width="5"/>
<path d="M5378,3169 l1013,0 l0,802 l-1013,0 z" fill="#8c00ff" stroke="black" stroke-width="5"/>
<path d="M4194,3971 l2107,0 l0,1690 l-2107,0 z" fill="#9900ff" stroke="black" stroke-width="5"/>
<path d="M1773,6624 l3053,0 l0,1298 l-3053,0 z" fill="#ff00fe" stroke="black" stroke-width="5"/>
<path d="M6994,8197 l2991,0 l0,501 l-2991,0 z" fill="#5b00ff" stroke="black" stroke-width="5"/>
<path d="M189,3524 l1176,0 l0,216 l-1176,0 z" fill="#ff00fe" stroke="black" stroke-width="5"/>
<path d="M24,6795 l822,0 l0,788 l-822,0 z" fill="#ff00fe" stroke="black" stroke-width="5"/>
<path d="M1,3740 l2001,0 l0,886 l-2001,0 z" fill="#fe00ff" stroke="black" stroke-width="5"/>
<path d="M8113,6400 l1092,0 l0,1116 l-1092,0 z" fill="#ff00fe" stroke="black" stroke-width="5"/>
<path d="M4313,5673 l702,0 l0,941 l-702,0 z" fill="#ff00fe" stroke="black" stroke-width="5"/>
<path d="M780,2678 l3771,0 l0,715 l-3771,0 z" fill="#ff00fe" stroke="black" stroke-width="5"/>
<path d="M4669,2426 l703,0 l0,1491 l-703,0 z" fill="#ff00fe" stroke="black" stroke-width="5"/>
<path d="M5,937 l3040,0 l0,1386 l-3040,0 z" fill="#a200ff" stroke="black" stroke-width="5"/>
<path d="M598,7924 l3054,0 l0,838 l-3054,0 z" fill="#4100ff" stroke="black" stroke-width="5"/>
<path d="M4849,8542 l2056,0 l0,1457 l-2056,0 z" fill="#de00ff" stroke="black" stroke-width="5"/>
<path d="M7343,8698 l1206,0 l0,783 l-1206,0 z" fill="#2e00ff" stroke="black" stroke-width="5"/>
<path d="M2179,9055 l119,0 l0,200 l-119,0 z" fill="#fe00ff" stroke="black" stroke-width="5"/>
<path d="M4312,6176 l1,0 l0,1 l-1,0 z" fill="#0000ff" stroke="black" stroke-width="5"/>
<path d="M1879,330 l60,0 l0,60 l-60,0 z" fill="green"/>
<path d="M1909,360 l-145.5,104.5" stroke="black" stroke-width="5"/>
<path d="M5780,7061 l60,0 l0,60 l-60,0 z" fill="green"/>
<path d="M5810,7091 l712.5,-656" stroke="black" stroke-width="5"/>
<path d="M5377,392 l60,0 l0,60 l-60,0 z" fill="green"/>
<path d="M5407,422 l-35.5,-136" stroke="black" stroke-width="5"/>
<path d="M5737,3110 l60,0 l0,60 l-60,0 z" fill="green"/>
<path d="M5767,3140 l-49.5,-685" stroke="black" stroke-width="5"/>
<path d="M6629,3204 l60,0 l0,60 l-60,0 z" fill="green"/>
<path d="M6659,3234 l95.5,-305.5" stroke="black" stroke-width="5"/>
<path d="M4176,1590 l60,0 l0,60 l-60,0 z" fill="green"/>
<path d="M4206,1620 l34.5,-132" stroke="black" stroke-width="5"/>
<path d="M7823,9462 l60,0 l0,60 l-60,0 z" fill="green"/>
<path d="M7853,9492 l-8.5,236.5" stroke="black" stroke-width="5"/>
<path d="M7845,402 l60,0 l0,60 l-60,0 z" fill="green"/>
<path d="M7875,432 l-184.5,50.5" stroke="black" stroke-width="5"/>
<path d="M9018,5029 l60,0 l0,60 l-60,0 z" fill="green"/>
<path d="M9048,5059 l18.5,277" stroke="black" stroke-width="5"/>
<path d="M7262,9040 l60,0 l0,60 l-60,0 z" fill="green"/>
<path d="M7292,9070 l-161.5,277.5" stroke="black" stroke-width="5"/>
<path d="M7603,2466 l60,0 l0,60 l-60,0 z" fill="green"/>
<path d="M7633,2496 l-57,-61" stroke="black" stroke-width="5"/>
<path d="M391,4805 l60,0 l0,60 l-60,0 z" fill="green"/>
<path d="M421,4835 l331.5,414.5" stroke="black" stroke-width="5"/>
<path d="M7134,4079 l60,0 l0,60 l-60,0 z" fill="green"/>
<path d="M7164,4109 l16.5,-270.5" stroke="black" stroke-width="5"/>
<path d="M5326,2241 l60,0 l0,60 l-60,0 z" fill="green"/>
<path d="M5356,2271 l-61.5,-269.5" stroke="black" stroke-width="5"/>
<path d="M5231,547 l60,0 l0,60 l-60,0 z" fill="green"/>
<path d="M5261,577 l196,440.5" stroke="black" stroke-width="5"/>
<path d="M3516,5195 l60,0 l0,60 l-60,0 z" fill="green"/>
<path d="M3546,5225 l-270,299.5" stroke="black" stroke-width="5"/>
<path d="M4637,3356 l60,0 l0,60 l-60,0 z" fill="green"/>
<path d="M4667,3386 l-9,-248" stroke="black" stroke-width="5"/>
<path d="M5566,7866 l60,0 l0,60 l-60,0 z" fill="green"/>
<path d="M5596,7896 l323.5,-21" stroke="black" stroke-width="5"/>
<path d="M2488,9783 l60,0 l0,60 l-60,0 z" fill="green"/>
<path d="M2518,9813 l-730,-65" stroke="black" stroke-width="5"/>
<path d="M8972,3883 l60,0 l0,60 l-60,0 z" fill="green"/>
<path d="M9002,3913 l-333.5,-171" stroke="black" stroke-width="5"/>
<path d="M8544,8917 l60,0 l0,60 l-60,0 z" fill="green"/>
<path d="M8574,8947 l530,259" stroke="black" stroke-width="5"/>
<path d="M3088,1743 l60,0 l0,60 l-60,0 z" fill="green"/>
<path d="M3118,1773 l188,-140.5" stroke="black" stroke-width="5"/>
<path d="M7110,4358 l60,0 l0,60 l-60,0 z" fill="green"/>
<path d="M7140,4388 l-149,509.5" stroke="black" stroke-width="5"/>
<path d="M8514,8166 l60,0 l0,60 l-60,0 z" fill="green"/>
<path d="M8544,8196 l-52.5,-296" stroke="black" stroke-width="5"/>
<path d="M8547,4307 l60,0 l0,60 l-60,0 z" fill="green"/>
<path d="M8577,4337 l473.5,42.5" stroke="black" stroke-width="5"/>
<path d="M3125,9138 l60,0 l0,60 l-60,0 z" fill="green"/>
<path d="M3155,9168 l-173,-39" stroke="black" stroke-width="5"/>
<path d="M7793,4374 l60,0 l0,60 l-60,0 z" fill="green"/>
<path d="M7823,4404 l72,73" stroke="black" stroke-width="5"/>
<path d="M9421,80 l60,0 l0,60 l-60,0 z" fill="green"/>
<path d="M9451,110 l-512,64.5" stroke="black" stroke-width="5"/>
<path d="M7001,1359 l60,0 l0,60 l-60,0 z" fill="green"/>
<path d="M7031,1389 l-92.5,-146" stroke="black" stroke-width="5"/>
<path d="M1811,2307 l60,0 l0,60 l-60,0 z" fill="green"/>
<path d="M1841,2337 l-155,165.5" stroke="black" stroke-width="5"/>
<path d="M46,8334 l60,0 l0,60 l-60,0 z" fill="green"/>
<path d="M76,8364 l224,-36.5" stroke="black" stroke-width="5"/>
<path d="M3513,3901 l60,0 l0,60 l-60,0 z" fill="green"/>
<path d="M3543,3931 l-445,249.5" stroke="black" stroke-width="5"/>
<path d="M3897,8798 l60,0 l0,60 l-60,0 z" fill="green"/>
<path d="M3927,8828 l323,119.5" stroke="black" stroke-width="5"/>
<path d="M5641,3275 l60,0 l0,60 l-60,0 z" fill="green"/>
<path d="M5671,3305 l213.5,265" stroke="black" stroke-width="5"/>
<path d="M5512,4557 l60,0 l0,60 l-60,0 z" fill="green"/>
<path d="M5542,4587 l-294.5,229" stroke="black" stroke-width="5"/>
<path d="M4000,7702 l60,0 l0,60 l-60,0 z" fill="green"/>
<path d="M4030,7732 l-730.5,-459" stroke="black" stroke-width="5"/>
<path d="M8545,8170 l60,0 l0,60 l-60,0 z" fill="green"/>
<path d="M8575,8200 l-85.5,247.5" stroke="black" stroke-width="5"/>
<path d="M1109,3709 l60,0 l0,60 l-60,0 z" fill="green"/>
<path d="M1139,3739 l-362,-107" stroke="black" stroke-width="5"/>
<path d="M20,7385 l60,0 l0,60 l-60,0 z" fill="green"/>
<path d="M50,7415 l385,-226" stroke="black" stroke-width="5"/>
<path d="M904,4026 l60,0 l0,60 l-60,0 z" fill="green"/>
<path d="M934,4056 l67.5,127" stroke="black" stroke-width="5"/>
<path d="M8771,7148 l60,0 l0,60 l-60,0 z" fill="green"/>
<path d="M8801,7178 l-142,-220" stroke="black" stroke-width="5"/>
<path d="M4469,6177 l60,0 l0,60 l-60,0 z" fill="green"/>
<path d="M4499,6207 l165,-63.5" stroke="black" stroke-width="5"/>
<path d="M3066,3345 l60,0 l0,60 l-60,0 z" fill="green"/>
<path d="M3096,3375 l-430.5,-339.5" stroke="black" stroke-width="5"/>
<path d="M5222,3251 l60,0 l0,60 l-60,0 z" fill="green"/>
<path d="M5252,3281 l-231.5,-109.5" stroke="black" stroke-width="5"/>
<path d="M2217,1416 l60,0 l0,60 l-60,0 z" fill="green"/>
<path d="M2247,1446 l-722,184" stroke="black" stroke-width="5"/>
<path d="M3317,8471 l60,0 l0,60 l-60,0 z" fill="green"/>
<path d="M3347,8501 l-1222,-158" stroke="black" stroke-width="5"/>
<path d="M5761,8570 l60,0 l0,60 l-60,0 z" fill="green"/>
<path d="M5791,8600 l86,670.5" stroke="black" stroke-width="5"/>
<path d="M8003,8962 l60,0 l0,60 l-60,0 z" fill="green"/>
<path d="M8033,8992 l-87,97.5" stroke="black" stroke-width="5"/>
<path d="M2267,9224 l60,0 l0,60 l-60,0 z" fill="green"/>
<path d="M2297,9254 l-58.5,-99" stroke="black" stroke-width="5"/>
<path d="M4282,6146 l60,0 l0,60 l-60,0 z" fill="green"/>
<path d="M4312,6176 l0.5,0.5" stroke="black" stroke-width="5"/>
<text font-size="200" text-anchor="middle" x="1763.5" y="534.5">
0
</text>
<text font-size="200" text-anchor="middle" x="6522.5" y="6505">
1
</text>
<text font-size="200" text-anchor="middle" x="5371.5" y="356">
2
</text>
<text font-size="200" text-anchor="middle" x="5717.5" y="2525">
3
</text>
<text font-size="200" text-anchor="middle" x="6754.5" y="2998.5">
4
</text>
<text font-size="200" text-anchor="middle" x="4240.5" y="1558">
5
</text>
<text font-size="200" text-anchor="middle" x="7844.5" y="9798.5">
6
</text>
<text font-size="200" text-anchor="middle" x="7690.5" y="552.5">
7
</text>
<text font-size="200" text-anchor="middle" x="9066.5" y="5406">
8
</text>
<text font-size="200" text-anchor="middle" x="7130.5" y="9417.5">
9
</text>
<text font-size="200" text-anchor="middle" x="7576" y="2505">
10
</text>
<text font-size="200" text-anchor="middle" x="752.5" y="5319.5">
11
</text>
<text font-size="200" text-anchor="middle" x="7180.5" y="3908.5">
12
</text>
<text font-size="200" text-anchor="middle" x="5294.5" y="2071.5">
13
</text>
<text font-size="200" text-anchor="middle" x="5457" y="1087.5">
14
</text>
<text font-size="200" text-anchor="middle" x="3276" y="5594.5">
15
</text>
<text font-size="200" text-anchor="middle" x="4658" y="3208">
16
</text>
<text font-size="200" text-anchor="middle" x="5919.5" y="7945">
17
</text>
<text font-size="200" text-anchor="middle" x="1788" y="9818">
18
</text>
<text font-size="200" text-anchor="middle" x="8668.5" y="3812">
19
</text>
<text font-size="200" text-anchor="middle" x="9104" y="9276">
20
</text>
<text font-size="200" text-anchor="middle" x="3306" y="1702.5">
21
</text>
<text font-size="200" text-anchor="middle" x="6991" y="4967.5">
22
</text>
<text font-size="200" text-anchor="middle" x="8491.5" y="7970">
23
</text>
<text font-size="200" text-anchor="middle" x="9050.5" y="4449.5">
24
</text>
<text font-size="200" text-anchor="middle" x="2982" y="9199">
25
</text>
<text font-size="200" text-anchor="middle" x="7895" y="4547">
26
</text>
<text font-size="200" text-anchor="middle" x="8939" y="244.5">
27
</text>
<text font-size="200" text-anchor="middle" x="6938.5" y="1313">
28
</text>
<text font-size="200" text-anchor="middle" x="1686" y="2572.5">
29
</text>
<text font-size="200" text-anchor="middle" x="300" y="8397.5">
30
</text>
<text font-size="200" text-anchor="middle" x="3098" y="4250.5">
31
</text>
<text font-size="200" text-anchor="middle" x="4250" y="9017.5">
32
</text>
<text font-size="200" text-anchor="middle" x="5884.5" y="3640">
33
</text>
<text font-size="200" text-anchor="middle" x="5247.5" y="4886">
34
</text>
<text font-size="200" text-anchor="middle" x="3299.5" y="7343">
35
</text>
<text font-size="200" text-anchor="middle" x="8489.5" y="8517.5">
36
</text>
<text font-size="200" text-anchor="middle" x="777" y="3702">
37
</text>
<text font-size="200" text-anchor="middle" x="435" y="7259">
38
</text>
<text font-size="200" text-anchor="middle" x="1001.5" y="4253">
39
</text>
<text font-size="200" text-anchor="middle" x="8659" y="7028">
40
</text>
<text font-size="200" text-anchor="middle" x="4664" y="6213.5">
41
</text>
<text font-size="200" text-anchor="middle" x="2665.5" y="3105.5">
42
</text>
<text font-size="200" text-anchor="middle" x="5020.5" y="3241.5">
43
</text>
<text font-size="200" text-anchor="middle" x="1525" y="1700">
44
</text>
<text font-size="200" text-anchor="middle" x="2125" y="8413">
45
</text>
<text font-size="200" text-anchor="middle" x="5877" y="9340.5">
46
</text>
<text font-size="200" text-anchor="middle" x="7946" y="9159.5">
47
</text>
<text font-size="200" text-anchor="middle" x="2238.5" y="9225">
48
</text>
<text font-size="200" text-anchor="middle" x="4312.5" y="6246.5">
49
</text>
</svg>