<svg viewBox="-100 -100 10200 10200" xmlns="http://www.w3.org/2000/svg">
<path d="M0,0 l10000,0 l0,10000 l-10000,0 z" fill="white"/>
<path d="M4,0 l3541,0 l0,1065 l-3541,0 z" fill="#a000ff" stroke="black" stroke-width="5"/>
<path d="M5042,5646 l2906,0 l0,1604 l-2906,0 z" fill="#fe00ff" stroke="black" stroke-width="5"/>
<path d="M3549,2 l3527,0 l0,571 l-3527,0 z" fill="#ff00fe" stroke="black" stroke-width="5"/>
<path d="M5431,1962 l578,0 l0,1179 l-578,0 z" fill="#fe00ff" stroke="black" stroke-width="5"/>
<path d="M6205,2538 l799,0 l0,1152 l-799,0 z" fill="#fe00ff" stroke="black" stroke-width="5"/>
<path d="M3568,588 l1330,0 l0,1870 l-1330,0 z" fill="#fe00ff" stroke="black" stroke-width="5"/>
<path d="M7362,9492 l913,0 l0,482 l-913,0 z" fill="#fe00ff" stroke="black" stroke-width="5"/>
<path d="M7077,132 l961,0 l0,610 l-961,0 z" fill="#ff00fe" stroke="black" stroke-width="5"/>
<path d="M8170,4711 l1726,0 l0,1046 l-1726,0 z" fill="#fe00ff" stroke="black" stroke-width="5"/>
<path d="M6800,8639 l547,0 l0,931 l-547,0 z" fill="#ff00fe" stroke="black" stroke-width="5"/>
<path d="M7071,1714 l1016,0 l0,1534 l-1016,0 z" fill="#ff00fe" stroke="black" stroke-width="5"/>
<path d="M5,4518 l1467,0 l0,1233 l-1467,0 z" fill="#ff00fe" stroke="black" stroke-width="5"/>
<path d="M7125,3323 l46,0 l0,790 l-46,0 z" fill="#ff00fe" stroke="black" stroke-width="5"/>
<path d="M4991,2221 l366,0 l0,217 l-366,0 z" fill="#ff00fe" stroke="black" stroke-width="5"/>
<path d="M4902,577 l1110,0 l0,875 l-1110,0 z" fill="#fe00ff" stroke="black" stroke-width="5"/>
<path d="M2702,4663 l1418,0 l0,1320 l-1418,0 z" fill="#fe00ff" stroke="black" stroke-width="5"/>
<path d="M4636,2607 l34,0 l0,864 l-34,0 z" fill="#ff00fe" stroke="black" stroke-width="5"/>
<path d="M4818,7251 l2178,0 l0,1145 l-2178,0 z" fill="#da00ff" stroke="black" stroke-width="5"/>
<path d="M106,9490 l3446,0 l0,505 l-3446,0 z" fill="#ff00fe" stroke="black" stroke-width="5"/>
<path d="M8588,3451 l715,0 l0,468 l-715,0 z" fill="#ff00ff" stroke="black" stroke-width="5"/>
<path d="M8462,8632 l1139,0 l0,972 l-1139,0 z" fill="#ff00fe" stroke="black" stroke-width="5"/>
<path d="M2797,1086 l660,0 l0,1015 l-660,0 z" fill="#ff00fe" stroke="black" stroke-width="5"/>
<path d="M6367,4115 l1198,0 l0,1526 l-1198,0 z" fill="#f400ff" stroke="black" stroke-width="5"/>
<path d="M7033,7607 l2948,0 l0,591 l-2948,0 z" fill="#fe00ff" stroke="black" stroke-width="5"/>
<path d="M8133,3920 l1837,0 l0,790 l-1837,0 z" fill="#3d00ff" stroke="black" stroke-width="5"/>
<path d="M2299,8755 l1330,0 l0,730 l-1330,0 z" fill="#fe00ff" stroke="black" stroke-width="5"/>
<path d="M7566,3586 l564,0 l0,1677 l-564,0 z" fill="#fe00ff" stroke="black" stroke-width="5"/>
<path d="M8093,63 l1880,0 l0,303 l-1880,0 z" fill="#fe00ff" stroke="black" stroke-width="5"/>
<path d="M6252,971 l1300,0 l0,606 l-1300,0 z" fill="#ff00fe" stroke="black" stroke-width="5"/>
<path d="M184,2337 l2470,0 l0,381 l-2470,0 z" fill="#fe00ff" stroke="black" stroke-width="5"/>
<path d="M14,7773 l645,0 l0,1101 l-645,0 z" fill="#ff00fe" stroke="black" stroke-width="5"/>
<path d="M2021,3535 l2112,0 l0,1117 l-2112,0 z" fill="#ac00ff" stroke="black" stroke-width="5"/>
<path d="M3632,7949 l1180,0 l0,2043 l-1180,0 z" fill="#ec00ff" stroke="black" stroke-width="5"/>
<path d="M5429,3149 l770,0 l0,794 l-770,0 z" fill="#5800ff" stroke="black" stroke-width="5"/>
<path d="M4133,3943 l2225,0 l0,1700 l-2225,0 z" fill="#a700ff" stroke="black" stroke-width="5"/>
<path d="M1845,6615 l2973,0 l0,1333 l-2973,0 z" fill="#ff00fe" stroke="black" stroke-width="5"/>
<path d="M7001,8200 l2973,0 l0,432 l-2973,0 z" fill="#4500ff" stroke="black" stroke-width="5"/>
<path d="M2,3545 l1305,0 l0,195 l-1305,0 z" fill="#ff00fe" stroke="black" stroke-width="5"/>
<path d="M50,6914 l773,0 l0,838 l-773,0 z" fill="#ff00fe" stroke="black" stroke-width="5"/>
<path d="M9,3742 l2009,0 l0,768 l-2009,0 z" fill="#f200ff" stroke="black" stroke-width="5"/>
<path d="M8032,6474 l1237,0 l0,985 l-1237,0 z" fill="#fe00ff" stroke="black" stroke-width="5"/>
<path d="M4342,5644 l692,0 l0,953 l-692,0 z" fill="#fe00ff" stroke="black" stroke-width="5"/>
<path d="M1278,2721 l3321,0 l0,812 l-3321,0 z" fill="#ff00fe" stroke="black" stroke-width="5"/>
<path d="M4682,2483 l742,0 l0,1410 l-742,0 z" fill="#ff00fe" stroke="black" stroke-width="5"/>
<path d="M5,1066 l2787,0 l0,1236 l-2787,0 z" fill="#7800ff" stroke="black" stroke-width="5"/>
<path d="M675,7948 l2955,0 l0,807 l-2955,0 z" fill="#3900ff" stroke="black" stroke-width="5"/>
<path d="M4815,8397 l1983,0 l0,1599 l-1983,0 z" fill="#e900ff" stroke="black" stroke-width="5"/>
<path d="M7358,8636 l1098,0 l0,852 l-1098,0 z" fill="#2d00ff" stroke="black" stroke-width="5"/>
<path d="M2204,9002 l94,0 l0,253 l-94,0 z" fill="#fe00ff" stroke="black" stroke-width="5"/>
<path d="M4312,6176 l1,0 l0,1 l-1,0 z" fill="#0000ff" stroke="black" stroke-width="5"/>
<path d="M1879,330 l60,0 l0,60 l-60,0 z" fill="green"/>
<path d="M1909,360 l-134.5,172.5" stroke="black" stroke-width="5"/>
<path d="M5780,7061 l60,0 l0,60 l-60,0 z" fill="green"/>
<path d="M5810,7091 l685,-643" stroke="black" stroke-width="5"/>
<path d="M5377,392 l60,0 l0,60 l-60,0 z" fill="green"/>
<path d="M5407,422 l-94.5,-134.5" stroke="black" stroke-width="5"/>
<path d="M5737,3110 l60,0 l0,60 l-60,0 z" fill="green"/>
<path d="M5767,3140 l-47,-588.5" stroke="black" stroke-width="5"/>
<path d="M6629,3204 l60,0 l0,60 l-60,0 z" fill="green"/>
<path d="M6659,3234 l-54.5,-120" stroke="black" stroke-width="5"/>
<path d="M4176,1590 l60,0 l0,60 l-60,0 z" fill="green"/>
<path d="M4206,1620 l27,-97" stroke="black" stroke-width="5"/>
<path d="M7823,9462 l60,0 l0,60 l-60,0 z" fill="green"/>
<path d="M7853,9492 l-34.5,241" stroke="black" stroke-width="5"/>
<path d="M7845,402 l60,0 l0,60 l-60,0 z" fill="green"/>
<path d="M7875,432 l-317.5,5" stroke="black" stroke-width="5"/>
<path d="M9018,5029 l60,0 l0,60 l-60,0 z" fill="green"/>
<path d="M9048,5059 l-15,175" stroke="black" stroke-width="5"/>
<path d="M7262,9040 l60,0 l0,60 l-60,0 z" fill="green"/>
<path d="M7292,9070 l-218.5,34.5" stroke="black" stroke-width="5"/>
<path d="M7603,2466 l60,0 l0,60 l-60,0 z" fill="green"/>
<path d="M7633,2496 l-54,-15" stroke="black" stroke-width="5"/>
<path d="M391,4805 l60,0 l0,60 l-60,0 z" fill="green"/>
<path d="M421,4835 l317.5,299.5" stroke="black" stroke-width="5"/>
<path d="M7134,4079 l60,0 l0,60 l-60,0 z" fill="green"/>
<path d="M7164,4109 l-16,-391" stroke="black" stroke-width="5"/>
<path d="M5326,2241 l60,0 l0,60 l-60,0 z" fill="green"/>
<path d="M5356,2271 l-182,58.5" stroke="black" stroke-width="5"/>
<path d="M5231,547 l60,0 l0,60 l-60,0 z" fill="green"/>
<path d="M5261,577 l196,437.5" stroke="black" stroke-width="5"/>
<path d="M3516,5195 l60,0 l0,60 l-60,0 z" fill="green"/>
<path d="M3546,5225 l-135,98" stroke="black" stroke-width="5"/>
<path d="M4637,3356 l60,0 l0,60 l-60,0 z" fill="green"/>
<path d="M4667,3386 l-14,-347" stroke="black" stroke-width="5"/>
<path d="M5566,7866 l60,0 l0,60 l-60,0 z" fill="green"/>
<path d="M5596,7896 l311,-72.5" stroke="black" stroke-width="5"/>
<path d="M2488,9783 l60,0 l0,60 l-60,0 z" fill="green"/>
<path d="M2518,9813 l-689,-70.5" stroke="black" stroke-width="5"/>
<path d="M8972,3883 l60,0 l0,60 l-60,0 z" fill="green"/>
<path d="M9002,3913 l-56.5,-228" stroke="black" stroke-width="5"/>
<path d="M8544,8917 l60,0 l0,60 l-60,0 z" fill="green"/>
<path d="M8574,8947 l457.5,171" stroke="black" stroke-width="5"/>
<path d="M3088,1743 l60,0 l0,60 l-60,0 z" fill="green"/>
<path d="M3118,1773 l9,-179.5" stroke="black" stroke-width="5"/>
<path d="M7110,4358 l60,0 l0,60 l-60,0 z" fill="green"/>
<path d="M7140,4388 l-174,490" stroke="black" stroke-width="5"/>
<path d="M8514,8166 l60,0 l0,60 l-60,0 z" fill="green"/>
<path d="M8544,8196 l-37,-293.5" stroke="black" stroke-width="5"/>
<path d="M8547,4307 l60,0 l0,60 l-60,0 z" fill="green"/>
<path d="M8577,4337 l474.5,-22" stroke="black" stroke-width="5"/>
<path d="M3125,9138 l60,0 l0,60 l-60,0 z" fill="green"/>
<path d="M3155,9168 l-191,-48" stroke="black" stroke-width="5"/>
<path d="M7793,4374 l60,0 l0,60 l-60,0 z" fill="green"/>
<path d="M7823,4404 l25,20.5" stroke="black" stroke-width="5"/>
<path d="M9421,80 l60,0 l0,60 l-60,0 z" fill="green"/>
<path d="M9451,110 l-418,104.5" stroke="black" stroke-width="5"/>
<path d="M7001,1359 l60,0 l0,60 l-60,0 z" fill="green"/>
<path d="M7031,1389 l-129,-115" stroke="black" stroke-width="5"/>
<path d="M1811,2307 l60,0 l0,60 l-60,0 z" fill="green"/>
<path d="M1841,2337 l-422,190.5" stroke="black" stroke-width="5"/>
<path d="M46,8334 l60,0 l0,60 l-60,0 z" fill="green"/>
<path d="M76,8364 l260.5,-40.5" stroke="black" stroke-width="5"/>
<path d="M3513,3901 l60,0 l0,60 l-60,0 z" fill="green"/>
<path d="M3543,3931 l-466,162.5" stroke="black" stroke-width="5"/>
<path d="M3897,8798 l60,0 l0,60 l-60,0 z" fill="green"/>
<path d="M3927,8828 l295,142.5" stroke="black" stroke-width="5"/>
<path d="M5641,3275 l60,0 l0,60 l-60,0 z" fill="green"/>
<path d="M5671,3305 l143,241" stroke="black" stroke-width="5"/>
<path d="M5512,4557 l60,0 l0,60 l-60,0 z" fill="green"/>
<path d="M5542,4587 l-296.5,206" stroke="black" stroke-width="5"/>
<path d="M4000,7702 l60,0 l0,60 l-60,0 z" fill="green"/>
<path d="M4030,7732 l-698.5,-450.5" stroke="black" stroke-width="5"/>
<path d="M8545,8170 l60,0 l0,60 l-60,0 z" fill="green"/>
<path d="M8575,8200 l-87.5,216" stroke="black" stroke-width="5"/>
<path d="M1109,3709 l60,0 l0,60 l-60,0 z" fill="green"/>
<path d="M1139,3739 l-484.5,-96.5" stroke="black" stroke-width="5"/>
<path d="M20,7385 l60,0 l0,60 l-60,0 z" fill="green"/>
<path d="M50,7415 l386.5,-82" stroke="black" stroke-width="5"/>
<path d="M904,4026 l60,0 l0,60 l-60,0 z" fill="green"/>
<path d="M934,4056 l79.5,70" stroke="black" stroke-width="5"/>
<path d="M8771,7148 l60,0 l0,60 l-60,0 z" fill="green"/>
<path d="M8801,7178 l-150.5,-211.5" stroke="black" stroke-width="5"/>
<path d="M4469,6177 l60,0 l0,60 l-60,0 z" fill="green"/>
<path d="M4499,6207 l189,-86.5" stroke="black" stroke-width="5"/>
<path d="M3066,3345 l60,0 l0,60 l-60,0 z" fill="green"/>
<path d="M3096,3375 l-157.5,-248" stroke="black" stroke-width="5"/>
<path d="M5222,3251 l60,0 l0,60 l-60,0 z" fill="green"/>
<path d="M5252,3281 l-199,-93" stroke="black" stroke-width="5"/>
<path d="M2217,1416 l60,0 l0,60 l-60,0 z" fill="green"/>
<path d="M2247,1446 l-848.5,238" stroke="black" stroke-width="5"/>
<path d="M3317,8471 l60,0 l0,60 l-60,0 z" fill="green"/>
<path d="M3347,8501 l-1194.5,-149.5" stroke="black" stroke-width="5"/>
<path d="M5761,8570 l60,0 l0,60 l-60,0 z" fill="green"/>
<path d="M5791,8600 l15.5,596.5" stroke="black" stroke-width="5"/>
<path d="M8003,8962 l60,0 l0,60 l-60,0 z" fill="green"/>
<path d="M8033,8992 l-126,70" stroke="black" stroke-width="5"/>
<path d="M2267,9224 l60,0 l0,60 l-60,0 z" fill="green"/>
<path d="M2297,9254 l-46,-125.5" stroke="black" stroke-width="5"/>
<path d="M4282,6146 l60,0 l0,60 l-60,0 z" fill="green"/>
<path d="M4312,6176 l0.5,0.5" stroke="black" stroke-width="5"/>
<text font-size="200" text-anchor="middle" x="1774.5" y="602.5">
0
</text>
<text font-size="200" text-anchor="middle" x="6495" y="6518">
1
</text>
<text font-size="200" text-anchor="middle" x="5312.5" y="357.5">
2
</text>
<text font-size="200" text-anchor="middle" x="5720" y="2621.5">
3
</text>
<text font-size="200" text-anchor="middle" x="6604.5" y="3184">
4
</text>
<text font-size="200" text-anchor="middle" x="4233" y="1593">
5
</text>
<text font-size="200" text-anchor="middle" x="7818.5" y="9803">
6
</text>
<text font-size="200" text-anchor="middle" x="7557.5" y="507">
7
</text>
<text font-size="200" text-anchor="middle" x="9033" y="5304">
8
</text>
<text font-size="200" text-anchor="middle" x="7073.5" y="9174.5">
9
</text>
<text font-size="200" text-anchor="middle" x="7579" y="2551">
10
</text>
<text font-size="200" text-anchor="middle" x="738.5" y="5204.5">
11
</text>
<text font-size="200" text-anchor="middle" x="7148" y="3788">
12
</text>
<text font-size="200" text-anchor="middle" x="5174" y="2399.5">
13
</text>
<text font-size="200" text-anchor="middle" x="5457" y="1084.5">
14
</text>
<text font-size="200" text-anchor="middle" x="3411" y="5393">
15
</text>
<text font-size="200" text-anchor="middle" x="4653" y="3109">
16
</text>
<text font-size="200" text-anchor="middle" x="5907" y="7893.5">
17
</text>
<text font-size="200" text-anchor="middle" x="1829" y="9812.5">
18
</text>
<text font-size="200" text-anchor="middle" x="8945.5" y="3755">
19
</text>
<text font-size="200" text-anchor="middle" x="9031.5" y="9188">
20
</text>
<text font-size="200" text-anchor="middle" x="3127" y="1663.5">
21
</text>
<text font-size="200" text-anchor="middle" x="6966" y="4948">
22
</text>
<text font-size="200" text-anchor="middle" x="8507" y="7972.5">
23
</text>
<text font-size="200" text-anchor="middle" x="9051.5" y="4385">
24
</text>
<text font-size="200" text-anchor="middle" x="2964" y="9190">
25
</text>
<text font-size="200" text-anchor="middle" x="7848" y="4494.5">
26
</text>
<text font-size="200" text-anchor="middle" x="9033" y="284.5">
27
</text>
<text font-size="200" text-anchor="middle" x="6902" y="1344">
28
</text>
<text font-size="200" text-anchor="middle" x="1419" y="2597.5">
29
</text>
<text font-size="200" text-anchor="middle" x="336.5" y="8393.5">
30
</text>
<text font-size="200" text-anchor="middle" x="3077" y="4163.5">
31
</text>
<text font-size="200" text-anchor="middle" x="4222" y="9040.5">
32
</text>
<text font-size="200" text-anchor="middle" x="5814" y="3616">
33
</text>
<text font-size="200" text-anchor="middle" x="5245.5" y="4863">
34
</text>
<text font-size="200" text-anchor="middle" x="3331.5" y="7351.5">
35
</text>
<text font-size="200" text-anchor="middle" x="8487.5" y="8486">
36
</text>
<text font-size="200" text-anchor="middle" x="654.5" y="3712.5">
37
</text>
<text font-size="200" text-anchor="middle" x="436.5" y="7403">
38
</text>
<text font-size="200" text-anchor="middle" x="1013.5" y="4196">
39
</text>
<text font-size="200" text-anchor="middle" x="8650.5" y="7036.5">
40
</text>
<text font-size="200" text-anchor="middle" x="4688" y="6190.5">
41
</text>
<text font-size="200" text-anchor="middle" x="2938.5" y="3197">
42
</text>
<text font-size="200" text-anchor="middle" x="5053" y="3258">
43
</text>
<text font-size="200" text-anchor="middle" x="1398.5" y="1754">
44
</text>
<text font-size="200" text-anchor="middle" x="2152.5" y="8421.5">
45
</text>
<text font-size="200" text-anchor="middle" x="5806.5" y="9266.5">
46
</text>
<text font-size="200" text-anchor="middle" x="7907" y="9132">
47
</text>
<text font-size="200" text-anchor="middle" x="2251" y="9198.5">
48
</text>
<text font-size="200" text-anchor="middle" x="4312.5" y="6246.5">
49
</text>
</svg>