<svg viewBox="-100 -100 10200 10200" xmlns="http://www.w3.org/2000/svg">
<path d="M0,0 l10000,0 l0,10000 l-10000,0 z" fill="white"/>
<path d="M3,3 l3526,0 l0,866 l-3526,0 z" fill="#7400ff" stroke="black" stroke-width="5"/>
<path d="M5053,5657 l3033,0 l0,1537 l-3033,0 z" fill="#ff00fe" stroke="black" stroke-width="5"/>
<path d="M3569,7 l3778,0 l0,532 l-3778,0 z" fill="#fe00ff" stroke="black" stroke-width="5"/>
<path d="M5422,1715 l478,0 l0,1426 l-478,0 z" fill="#ff00fe" stroke="black" stroke-width="5"/>
<path d="M6486,2254 l586,0 l0,1571 l-586,0 z" fill="#ff00fe" stroke="black" stroke-width="5"/>
<path d="M3560,539 l1352,0 l0,1841 l-1352,0 z" fill="#ff00fe" stroke="black" stroke-width="5"/>
<path d="M7459,9492 l870,0 l0,506 l-870,0 z" fill="#ff00fe" stroke="black" stroke-width="5"/>
<path d="M7383,10 l621,0 l0,944 l-621,0 z" fill="#ff00fe" stroke="black" stroke-width="5"/>
<path d="M8144,4838 l1844,0 l0,979 l-1844,0 z" fill="#fe00ff" stroke="black" stroke-width="5"/>
<path d="M6948,8767 l424,0 l0,1203 l-424,0 z" fill="#ff00fe" stroke="black" stroke-width="5"/>
<path d="M7165,1490 l959,0 l0,1625 l-959,0 z" fill="#fe00ff" stroke="black" stroke-width="5"/>
<path d="M1,4708 l1506,0 l0,1201 l-1506,0 z" fill="#fe00ff" stroke="black" stroke-width="5"/>
<path d="M7161,3292 l39,0 l0,818 l-39,0 z" fill="#f900ff" stroke="black" stroke-width="5"/>
<path d="M5182,1868 l175,0 l0,448 l-175,0 z" fill="#fe00ff" stroke="black" stroke-width="5"/>
<path d="M4936,573 l908,0 l0,1070 l-908,0 z" fill="#ff00fe" stroke="black" stroke-width="5"/>
<path d="M2162,5175 l1934,0 l0,968 l-1934,0 z" fill="#ff00fe" stroke="black" stroke-width="5"/>
<path d="M4642,2470 l28,0 l0,1011 l-28,0 z" fill="#fe00ff" stroke="black" stroke-width="5"/>
<path d="M4857,7199 l2181,0 l0,1347 l-2181,0 z" fill="#f700ff" stroke="black" stroke-width="5"/>
<path d="M119,9503 l3499,0 l0,497 l-3499,0 z" fill="#fe00ff" stroke="black" stroke-width="5"/>
<path d="M8154,3523 l855,0 l0,391 l-855,0 z" fill="#fe00ff" stroke="black" stroke-width="5"/>
<path d="M8543,8712 l1080,0 l0,1025 l-1080,0 z" fill="#fe00ff" stroke="black" stroke-width="5"/>
<path d="M3065,882 l477,0 l0,1406 l-477,0 z" fill="#ff00fe" stroke="black" stroke-width="5"/>
<path d="M6360,4114 l1375,0 l0,1526 l-1375,0 z" fill="#ff00fe" stroke="black" stroke-width="5"/>
<path d="M7039,7591 l2875,0 l0,606 l-2875,0 z" fill="#fe00ff" stroke="black" stroke-width="5"/>
<path d="M8138,3915 l1835,0 l0,911 l-1835,0 z" fill="#4f00ff" stroke="black" stroke-width="5"/>
<path d="M2321,8848 l1313,0 l0,650 l-1313,0 z" fill="#f500ff" stroke="black" stroke-width="5"/>
<path d="M7739,3163 l390,0 l0,2425 l-390,0 z" fill="#fe00ff" stroke="black" stroke-width="5"/>
<path d="M8261,29 l1397,0 l0,408 l-1397,0 z" fill="#ff00fe" stroke="black" stroke-width="5"/>
<path d="M6039,980 l1655,0 l0,476 l-1655,0 z" fill="#ff00fe" stroke="black" stroke-width="5"/>
<path d="M327,2333 l2954,0 l0,319 l-2954,0 z" fill="#ff00fe" stroke="black" stroke-width="5"/>
<path d="M10,7595 l520,0 l0,1366 l-520,0 z" fill="#ff00fe" stroke="black" stroke-width="5"/>
<path d="M1968,3396 l2282,0 l0,1683 l-2282,0 z" fill="#fe00ff" stroke="black" stroke-width="5"/>
<path d="M3635,7909 l1222,0 l0,2091 l-1222,0 z" fill="#f500ff" stroke="black" stroke-width="5"/>
<path d="M5320,3144 l1163,0 l0,774 l-1163,0 z" fill="#a200ff" stroke="black" stroke-width="5"/>
<path d="M4255,3946 l2105,0 l0,1709 l-2105,0 z" fill="#9c00ff" stroke="black" stroke-width="5"/>
<path d="M1657,6642 l3198,0 l0,1239 l-3198,0 z" fill="#fe00ff" stroke="black" stroke-width="5"/>
<path d="M7041,8198 l2946,0 l0,512 l-2946,0 z" fill="#5c00ff" stroke="black" stroke-width="5"/>
<path d="M311,3509 l1019,0 l0,250 l-1019,0 z" fill="#ff00fe" stroke="black" stroke-width="5"/>
<path d="M14,6663 l843,0 l0,767 l-843,0 z" fill="#fe00ff" stroke="black" stroke-width="5"/>
<path d="M1,3761 l1946,0 l0,925 l-1946,0 z" fill="#fe00ff" stroke="black" stroke-width="5"/>
<path d="M8151,6406 l1072,0 l0,1137 l-1072,0 z" fill="#ff00fe" stroke="black" stroke-width="5"/>
<path d="M4316,5656 l696,0 l0,949 l-696,0 z" fill="#fe00ff" stroke="black" stroke-width="5"/>
<path d="M757,2668 l3797,0 l0,710 l-3797,0 z" fill="#ff00fe" stroke="black" stroke-width="5"/>
<path d="M4676,2403 l638,0 l0,1517 l-638,0 z" fill="#fb00ff" stroke="black" stroke-width="5"/>
<path d="M20,876 l3032,0 l0,1454 l-3032,0 z" fill="#ad00ff" stroke="black" stroke-width="5"/>
<path d="M540,7884 l3081,0 l0,960 l-3081,0 z" fill="#5500ff" stroke="black" stroke-width="5"/>
<path d="M4862,8547 l2084,0 l0,1447 l-2084,0 z" fill="#df00ff" stroke="black" stroke-width="5"/>
<path d="M7383,8727 l1143,0 l0,764 l-1143,0 z" fill="#2800ff" stroke="black" stroke-width="5"/>
<path d="M2222,9189 l84,0 l0,273 l-84,0 z" fill="#fe00ff" stroke="black" stroke-width="5"/>
<path d="M4312,6176 l1,0 l0,1 l-1,0 z" fill="#0000ff" stroke="black" stroke-width="5"/>
<path d="M1879,330 l60,0 l0,60 l-60,0 z" fill="green"/>
<path d="M1909,360 l-143,76" stroke="black" stroke-width="5"/>
<path d="M5780,7061 l60,0 l0,60 l-60,0 z" fill="green"/>
<path d="M5810,7091 l759.5,-665.5" stroke="black" stroke-width="5"/>
<path d="M5377,392 l60,0 l0,60 l-60,0 z" fill="green"/>
<path d="M5407,422 l51,-149" stroke="black" stroke-width="5"/>
<path d="M5737,3110 l60,0 l0,60 l-60,0 z" fill="green"/>
<path d="M5767,3140 l-106,-712" stroke="black" stroke-width="5"/>
<path d="M6629,3204 l60,0 l0,60 l-60,0 z" fill="green"/>
<path d="M6659,3234 l120,-194.5" stroke="black" stroke-width="5"/>
<path d="M4176,1590 l60,0 l0,60 l-60,0 z" fill="green"/>
<path d="M4206,1620 l30,-160.5" stroke="black" stroke-width="5"/>
<path d="M7823,9462 l60,0 l0,60 l-60,0 z" fill="green"/>
<path d="M7853,9492 l41,253" stroke="black" stroke-width="5"/>
<path d="M7845,402 l60,0 l0,60 l-60,0 z" fill="green"/>
<path d="M7875,432 l-181.5,50" stroke="black" stroke-width="5"/>
<path d="M9018,5029 l60,0 l0,60 l-60,0 z" fill="green"/>
<path d="M9048,5059 l18,268.5" stroke="black" stroke-width="5"/>
<path d="M7262,9040 l60,0 l0,60 l-60,0 z" fill="green"/>
<path d="M7292,9070 l-132,298.5" stroke="black" stroke-width="5"/>
<path d="M7603,2466 l60,0 l0,60 l-60,0 z" fill="green"/>
<path d="M7633,2496 l11.5,-193.5" stroke="black" stroke-width="5"/>
<path d="M391,4805 l60,0 l0,60 l-60,0 z" fill="green"/>
<path d="M421,4835 l333,473.5" stroke="black" stroke-width="5"/>
<path d="M7134,4079 l60,0 l0,60 l-60,0 z" fill="green"/>
<path d="M7164,4109 l16.5,-408" stroke="black" stroke-width="5"/>
<path d="M5326,2241 l60,0 l0,60 l-60,0 z" fill="green"/>
<path d="M5356,2271 l-86.5,-179" stroke="black" stroke-width="5"/>
<path d="M5231,547 l60,0 l0,60 l-60,0 z" fill="green"/>
<path d="M5261,577 l129,531" stroke="black" stroke-width="5"/>
<path d="M3516,5195 l60,0 l0,60 l-60,0 z" fill="green"/>
<path d="M3546,5225 l-417,434" stroke="black" stroke-width="5"/>
<path d="M4637,3356 l60,0 l0,60 l-60,0 z" fill="green"/>
<path d="M4667,3386 l-11,-410.5" stroke="black" stroke-width="5"/>
<path d="M5566,7866 l60,0 l0,60 l-60,0 z" fill="green"/>
<path d="M5596,7896 l351.5,-23.5" stroke="black" stroke-width="5"/>
<path d="M2488,9783 l60,0 l0,60 l-60,0 z" fill="green"/>
<path d="M2518,9813 l-649.5,-61.5" stroke="black" stroke-width="5"/>
<path d="M8972,3883 l60,0 l0,60 l-60,0 z" fill="green"/>
<path d="M9002,3913 l-420.5,-194.5" stroke="black" stroke-width="5"/>
<path d="M8544,8917 l60,0 l0,60 l-60,0 z" fill="green"/>
<path d="M8574,8947 l509,277.5" stroke="black" stroke-width="5"/>
<path d="M3088,1743 l60,0 l0,60 l-60,0 z" fill="green"/>
<path d="M3118,1773 l185.5,-188" stroke="black" stroke-width="5"/>
<path d="M7110,4358 l60,0 l0,60 l-60,0 z" fill="green"/>
<path d="M7140,4388 l-92.5,489" stroke="black" stroke-width="5"/>
<path d="M8514,8166 l60,0 l0,60 l-60,0 z" fill="green"/>
<path d="M8544,8196 l-67.5,-302" stroke="black" stroke-width="5"/>
<path d="M8547,4307 l60,0 l0,60 l-60,0 z" fill="green"/>
<path d="M8577,4337 l478.5,33.5" stroke="black" stroke-width="5"/>
<path d="M3125,9138 l60,0 l0,60 l-60,0 z" fill="green"/>
<path d="M3155,9168 l-177.5,5" stroke="black" stroke-width="5"/>
<path d="M7793,4374 l60,0 l0,60 l-60,0 z" fill="green"/>
<path d="M7823,4404 l111,-28.5" stroke="black" stroke-width="5"/>
<path d="M9421,80 l60,0 l0,60 l-60,0 z" fill="green"/>
<path d="M9451,110 l-491.5,123" stroke="black" stroke-width="5"/>
<path d="M7001,1359 l60,0 l0,60 l-60,0 z" fill="green"/>
<path d="M7031,1389 l-164.5,-171" stroke="black" stroke-width="5"/>
<path d="M1811,2307 l60,0 l0,60 l-60,0 z" fill="green"/>
<path d="M1841,2337 l-37,155.5" stroke="black" stroke-width="5"/>
<path d="M46,8334 l60,0 l0,60 l-60,0 z" fill="green"/>
<path d="M76,8364 l194,-86" stroke="black" stroke-width="5"/>
<path d="M3513,3901 l60,0 l0,60 l-60,0 z" fill="green"/>
<path d="M3543,3931 l-434,306.5" stroke="black" stroke-width="5"/>
<path d="M3897,8798 l60,0 l0,60 l-60,0 z" fill="green"/>
<path d="M3927,8828 l319,126.5" stroke="black" stroke-width="5"/>
<path d="M5641,3275 l60,0 l0,60 l-60,0 z" fill="green"/>
<path d="M5671,3305 l230.5,226" stroke="black" stroke-width="5"/>
<path d="M5512,4557 l60,0 l0,60 l-60,0 z" fill="green"/>
<path d="M5542,4587 l-234.5,213.5" stroke="black" stroke-width="5"/>
<path d="M4000,7702 l60,0 l0,60 l-60,0 z" fill="green"/>
<path d="M4030,7732 l-774,-470.5" stroke="black" stroke-width="5"/>
<path d="M8545,8170 l60,0 l0,60 l-60,0 z" fill="green"/>
<path d="M8575,8200 l-61,254" stroke="black" stroke-width="5"/>
<path d="M1109,3709 l60,0 l0,60 l-60,0 z" fill="green"/>
<path d="M1139,3739 l-318.5,-105" stroke="black" stroke-width="5"/>
<path d="M20,7385 l60,0 l0,60 l-60,0 z" fill="green"/>
<path d="M50,7415 l385.5,-368.5" stroke="black" stroke-width="5"/>
<path d="M904,4026 l60,0 l0,60 l-60,0 z" fill="green"/>
<path d="M934,4056 l40,167.5" stroke="black" stroke-width="5"/>
<path d="M8771,7148 l60,0 l0,60 l-60,0 z" fill="green"/>
<path d="M8801,7178 l-114,-203.5" stroke="black" stroke-width="5"/>
<path d="M4469,6177 l60,0 l0,60 l-60,0 z" fill="green"/>
<path d="M4499,6207 l165,-76.5" stroke="black" stroke-width="5"/>
<path d="M3066,3345 l60,0 l0,60 l-60,0 z" fill="green"/>
<path d="M3096,3375 l-440.5,-352" stroke="black" stroke-width="5"/>
<path d="M5222,3251 l60,0 l0,60 l-60,0 z" fill="green"/>
<path d="M5252,3281 l-257,-119.5" stroke="black" stroke-width="5"/>
<path d="M2217,1416 l60,0 l0,60 l-60,0 z" fill="green"/>
<path d="M2247,1446 l-711,157" stroke="black" stroke-width="5"/>
<path d="M3317,8471 l60,0 l0,60 l-60,0 z" fill="green"/>
<path d="M3347,8501 l-1266.5,-137" stroke="black" stroke-width="5"/>
<path d="M5761,8570 l60,0 l0,60 l-60,0 z" fill="green"/>
<path d="M5791,8600 l113,670.5" stroke="black" stroke-width="5"/>
<path d="M8003,8962 l60,0 l0,60 l-60,0 z" fill="green"/>
<path d="M8033,8992 l-78.5,117" stroke="black" stroke-width="5"/>
<path d="M2267,9224 l60,0 l0,60 l-60,0 z" fill="green"/>
<path d="M2297,9254 l-33,71.5" stroke="black" stroke-width="5"/>
<path d="M4282,6146 l60,0 l0,60 l-60,0 z" fill="green"/>
<path d="M4312,6176 l0.5,0.5" stroke="black" stroke-width="5"/>
<text font-size="200" text-anchor="middle" x="1766" y="506">
0
</text>
<text font-size="200" text-anchor="middle" x="6569.5" y="6495.5">
1
</text>
<text font-size="200" text-anchor="middle" x="5458" y="343">
2
</text>
<text font-size="200" text-anchor="middle" x="5661" y="2498">
3
</text>
<text font-size="200" text-anchor="middle" x="6779" y="3109.5">
4
</text>
<text font-size="200" text-anchor="middle" x="4236" y="1529.5">
5
</text>
<text font-size="200" text-anchor="middle" x="7894" y="9815">
6
</text>
<text font-size="200" text-anchor="middle" x="7693.5" y="552">
7
</text>
<text font-size="200" text-anchor="middle" x="9066" y="5397.5">
8
</text>
<text font-size="200" text-anchor="middle" x="7160" y="9438.5">
9
</text>
<text font-size="200" text-anchor="middle" x="7644.5" y="2372.5">
10
</text>
<text font-size="200" text-anchor="middle" x="754" y="5378.5">
11
</text>
<text font-size="200" text-anchor="middle" x="7180.5" y="3771">
12
</text>
<text font-size="200" text-anchor="middle" x="5269.5" y="2162">
13
</text>
<text font-size="200" text-anchor="middle" x="5390" y="1178">
14
</text>
<text font-size="200" text-anchor="middle" x="3129" y="5729">
15
</text>
<text font-size="200" text-anchor="middle" x="4656" y="3045.5">
16
</text>
<text font-size="200" text-anchor="middle" x="5947.5" y="7942.5">
17
</text>
<text font-size="200" text-anchor="middle" x="1868.5" y="9821.5">
18
</text>
<text font-size="200" text-anchor="middle" x="8581.5" y="3788.5">
19
</text>
<text font-size="200" text-anchor="middle" x="9083" y="9294.5">
20
</text>
<text font-size="200" text-anchor="middle" x="3303.5" y="1655">
21
</text>
<text font-size="200" text-anchor="middle" x="7047.5" y="4947">
22
</text>
<text font-size="200" text-anchor="middle" x="8476.5" y="7964">
23
</text>
<text font-size="200" text-anchor="middle" x="9055.5" y="4440.5">
24
</text>
<text font-size="200" text-anchor="middle" x="2977.5" y="9243">
25
</text>
<text font-size="200" text-anchor="middle" x="7934" y="4445.5">
26
</text>
<text font-size="200" text-anchor="middle" x="8959.5" y="303">
27
</text>
<text font-size="200" text-anchor="middle" x="6866.5" y="1288">
28
</text>
<text font-size="200" text-anchor="middle" x="1804" y="2562.5">
29
</text>
<text font-size="200" text-anchor="middle" x="270" y="8348">
30
</text>
<text font-size="200" text-anchor="middle" x="3109" y="4307.5">
31
</text>
<text font-size="200" text-anchor="middle" x="4246" y="9024.5">
32
</text>
<text font-size="200" text-anchor="middle" x="5901.5" y="3601">
33
</text>
<text font-size="200" text-anchor="middle" x="5307.5" y="4870.5">
34
</text>
<text font-size="200" text-anchor="middle" x="3256" y="7331.5">
35
</text>
<text font-size="200" text-anchor="middle" x="8514" y="8524">
36
</text>
<text font-size="200" text-anchor="middle" x="820.5" y="3704">
37
</text>
<text font-size="200" text-anchor="middle" x="435.5" y="7116.5">
38
</text>
<text font-size="200" text-anchor="middle" x="974" y="4293.5">
39
</text>
<text font-size="200" text-anchor="middle" x="8687" y="7044.5">
40
</text>
<text font-size="200" text-anchor="middle" x="4664" y="6200.5">
41
</text>
<text font-size="200" text-anchor="middle" x="2655.5" y="3093">
42
</text>
<text font-size="200" text-anchor="middle" x="4995" y="3231.5">
43
</text>
<text font-size="200" text-anchor="middle" x="1536" y="1673">
44
</text>
<text font-size="200" text-anchor="middle" x="2080.5" y="8434">
45
</text>
<text font-size="200" text-anchor="middle" x="5904" y="9340.5">
46
</text>
<text font-size="200" text-anchor="middle" x="7954.5" y="9179">
47
</text>
<text font-size="200" text-anchor="middle" x="2264" y="9395.5">
48
</text>
<text font-size="200" text-anchor="middle" x="4312.5" y="6246.5">
49
</text>
</svg>