<svg viewBox="-100 -100 10200 10200" xmlns="http://www.w3.org/2000/svg">
<path d="M0,0 l10000,0 l0,10000 l-10000,0 z" fill="white"/>
<path d="M22,6 l3457,0 l0,1011 l-3457,0 z" fill="#8f00ff" stroke="black" stroke-width="5"/>
<path d="M5035,5660 l2948,0 l0,1581 l-2948,0 z" fill="#fe00ff" stroke="black" stroke-width="5"/>
<path d="M3573,7 l3475,0 l0,558 l-3475,0 z" fill="#fe00ff" stroke="black" stroke-width="5"/>
<path d="M5477,1503 l416,0 l0,1638 l-416,0 z" fill="#fe00ff" stroke="black" stroke-width="5"/>
<path d="M6423,2226 l606,0 l0,1519 l-606,0 z" fill="#fe00ff" stroke="black" stroke-width="5"/>
<path d="M3559,572 l1349,0 l0,1844 l-1349,0 z" fill="#ff00fe" stroke="black" stroke-width="5"/>
<path d="M7305,9492 l875,0 l0,503 l-875,0 z" fill="#fe00ff" stroke="black" stroke-width="5"/>
<path d="M7070,62 l908,0 l0,645 l-908,0 z" fill="#fe00ff" stroke="black" stroke-width="5"/>
<path d="M8199,4799 l1784,0 l0,1012 l-1784,0 z" fill="#fe00ff" stroke="black" stroke-width="5"/>
<path d="M6842,8677 l453,0 l0,1124 l-453,0 z" fill="#fe00ff" stroke="black" stroke-width="5"/>
<path d="M7086,1647 l997,0 l0,1563 l-997,0 z" fill="#fe00ff" stroke="black" stroke-width="5"/>
<path d="M4,4579 l1485,0 l0,1218 l-1485,0 z" fill="#fe00ff" stroke="black" stroke-width="5"/>
<path d="M7111,3442 l54,0 l0,668 l-54,0 z" fill="#ff00fe" stroke="black" stroke-width="5"/>
<path d="M5148,1961 l253,0 l0,311 l-253,0 z" fill="#ff00fe" stroke="black" stroke-width="5"/>
<path d="M4921,577 l1106,0 l0,878 l-1106,0 z" fill="#fe00ff" stroke="black" stroke-width="5"/>
<path d="M2509,4869 l1569,0 l0,1193 l-1569,0 z" fill="#fe00ff" stroke="black" stroke-width="5"/>
<path d="M4667,2701 l24,0 l0,1161 l-24,0 z" fill="#fe00ff" stroke="black" stroke-width="5"/>
<path d="M4828,7246 l2193,0 l0,1290 l-2193,0 z" fill="#f100ff" stroke="black" stroke-width="5"/>
<path d="M16,9500 l3520,0 l0,494 l-3520,0 z" fill="#fe00ff" stroke="black" stroke-width="5"/>
<path d="M8243,3552 l924,0 l0,362 l-924,0 z" fill="#fe00ff" stroke="black" stroke-width="5"/>
<path d="M8574,8644 l1078,0 l0,1027 l-1078,0 z" fill="#ff00fe" stroke="black" stroke-width="5"/>
<path d="M3011,1045 l535,0 l0,1252 l-535,0 z" fill="#fe00ff" stroke="black" stroke-width="5"/>
<path d="M6288,4117 l1362,0 l0,1540 l-1362,0 z" fill="#fe00ff" stroke="black" stroke-width="5"/>
<path d="M7031,7610 l2964,0 l0,588 l-2964,0 z" fill="#ff00fe" stroke="black" stroke-width="5"/>
<path d="M8162,3915 l1832,0 l0,879 l-1832,0 z" fill="#4a00ff" stroke="black" stroke-width="5"/>
<path d="M2310,8763 l1326,0 l0,736 l-1326,0 z" fill="#fe00ff" stroke="black" stroke-width="5"/>
<path d="M7657,3379 l465,0 l0,2033 l-465,0 z" fill="#fe00ff" stroke="black" stroke-width="5"/>
<path d="M7980,110 l2005,0 l0,284 l-2005,0 z" fill="#fe00ff" stroke="black" stroke-width="5"/>
<path d="M6027,1106 l1858,0 l0,424 l-1858,0 z" fill="#ff00fe" stroke="black" stroke-width="5"/>
<path d="M126,2337 l2723,0 l0,345 l-2723,0 z" fill="#fe00ff" stroke="black" stroke-width="5"/>
<path d="M0,7609 l628,0 l0,1131 l-628,0 z" fill="#ff00fe" stroke="black" stroke-width="5"/>
<path d="M2006,3436 l2074,0 l0,1428 l-2074,0 z" fill="#df00ff" stroke="black" stroke-width="5"/>
<path d="M3652,7931 l1168,0 l0,2061 l-1168,0 z" fill="#ec00ff" stroke="black" stroke-width="5"/>
<path d="M5406,3154 l1010,0 l0,726 l-1010,0 z" fill="#7700ff" stroke="black" stroke-width="5"/>
<path d="M4082,3886 l2192,0 l0,1768 l-2192,0 z" fill="#ad00ff" stroke="black" stroke-width="5"/>
<path d="M1773,6624 l3053,0 l0,1298 l-3053,0 z" fill="#ff00fe" stroke="black" stroke-width="5"/>
<path d="M7023,8200 l2971,0 l0,444 l-2971,0 z" fill="#4900ff" stroke="black" stroke-width="5"/>
<path d="M112,3561 l1419,0 l0,179 l-1419,0 z" fill="#ff00fe" stroke="black" stroke-width="5"/>
<path d="M34,6829 l924,0 l0,701 l-924,0 z" fill="#fe00ff" stroke="black" stroke-width="5"/>
<path d="M3,3741 l1997,0 l0,829 l-1997,0 z" fill="#fa00ff" stroke="black" stroke-width="5"/>
<path d="M7998,6468 l1121,0 l0,1087 l-1121,0 z" fill="#fe00ff" stroke="black" stroke-width="5"/>
<path d="M4320,5659 l691,0 l0,956 l-691,0 z" fill="#ff00fe" stroke="black" stroke-width="5"/>
<path d="M1039,2692 l3627,0 l0,743 l-3627,0 z" fill="#fe00ff" stroke="black" stroke-width="5"/>
<path d="M4692,2428 l714,0 l0,1455 l-714,0 z" fill="#fe00ff" stroke="black" stroke-width="5"/>
<path d="M15,1017 l2942,0 l0,1318 l-2942,0 z" fill="#9000ff" stroke="black" stroke-width="5"/>
<path d="M668,7925 l2978,0 l0,838 l-2978,0 z" fill="#3e00ff" stroke="black" stroke-width="5"/>
<path d="M4821,8536 l2021,0 l0,1463 l-2021,0 z" fill="#db00ff" stroke="black" stroke-width="5"/>
<path d="M7304,8647 l1255,0 l0,844 l-1255,0 z" fill="#3900ff" stroke="black" stroke-width="5"/>
<path d="M2225,9078 l85,0 l0,281 l-85,0 z" fill="#ff00fe" stroke="black" stroke-width="5"/>
<path d="M4312,6176 l1,0 l0,1 l-1,0 z" fill="#0000ff" stroke="black" stroke-width="5"/>
<path d="M1879,330 l60,0 l0,60 l-60,0 z" fill="green"/>
<path d="M1909,360 l-158.5,151.5" stroke="black" stroke-width="5"/>
<path d="M5780,7061 l60,0 l0,60 l-60,0 z" fill="green"/>
<path d="M5810,7091 l699,-640.5" stroke="black" stroke-width="5"/>
<path d="M5377,392 l60,0 l0,60 l-60,0 z" fill="green"/>
<path d="M5407,422 l-96.5,-136" stroke="black" stroke-width="5"/>
<path d="M5737,3110 l60,0 l0,60 l-60,0 z" fill="green"/>
<path d="M5767,3140 l-82,-818" stroke="black" stroke-width="5"/>
<path d="M6629,3204 l60,0 l0,60 l-60,0 z" fill="green"/>
<path d="M6659,3234 l67,-248.5" stroke="black" stroke-width="5"/>
<path d="M4176,1590 l60,0 l0,60 l-60,0 z" fill="green"/>
<path d="M4206,1620 l27.5,-126" stroke="black" stroke-width="5"/>
<path d="M7823,9462 l60,0 l0,60 l-60,0 z" fill="green"/>
<path d="M7853,9492 l-110.5,251.5" stroke="black" stroke-width="5"/>
<path d="M7845,402 l60,0 l0,60 l-60,0 z" fill="green"/>
<path d="M7875,432 l-351,-47.5" stroke="black" stroke-width="5"/>
<path d="M9018,5029 l60,0 l0,60 l-60,0 z" fill="green"/>
<path d="M9048,5059 l43,246" stroke="black" stroke-width="5"/>
<path d="M7262,9040 l60,0 l0,60 l-60,0 z" fill="green"/>
<path d="M7292,9070 l-223.5,169" stroke="black" stroke-width="5"/>
<path d="M7603,2466 l60,0 l0,60 l-60,0 z" fill="green"/>
<path d="M7633,2496 l-48.5,-67.5" stroke="black" stroke-width="5"/>
<path d="M391,4805 l60,0 l0,60 l-60,0 z" fill="green"/>
<path d="M421,4835 l325.5,353" stroke="black" stroke-width="5"/>
<path d="M7134,4079 l60,0 l0,60 l-60,0 z" fill="green"/>
<path d="M7164,4109 l-26,-333" stroke="black" stroke-width="5"/>
<path d="M5326,2241 l60,0 l0,60 l-60,0 z" fill="green"/>
<path d="M5356,2271 l-81.5,-154.5" stroke="black" stroke-width="5"/>
<path d="M5231,547 l60,0 l0,60 l-60,0 z" fill="green"/>
<path d="M5261,577 l213,439" stroke="black" stroke-width="5"/>
<path d="M3516,5195 l60,0 l0,60 l-60,0 z" fill="green"/>
<path d="M3546,5225 l-252.5,240.5" stroke="black" stroke-width="5"/>
<path d="M4637,3356 l60,0 l0,60 l-60,0 z" fill="green"/>
<path d="M4667,3386 l12,-104.5" stroke="black" stroke-width="5"/>
<path d="M5566,7866 l60,0 l0,60 l-60,0 z" fill="green"/>
<path d="M5596,7896 l328.5,-5" stroke="black" stroke-width="5"/>
<path d="M2488,9783 l60,0 l0,60 l-60,0 z" fill="green"/>
<path d="M2518,9813 l-742,-66" stroke="black" stroke-width="5"/>
<path d="M8972,3883 l60,0 l0,60 l-60,0 z" fill="green"/>
<path d="M9002,3913 l-297,-180" stroke="black" stroke-width="5"/>
<path d="M8544,8917 l60,0 l0,60 l-60,0 z" fill="green"/>
<path d="M8574,8947 l539,210.5" stroke="black" stroke-width="5"/>
<path d="M3088,1743 l60,0 l0,60 l-60,0 z" fill="green"/>
<path d="M3118,1773 l160.5,-102" stroke="black" stroke-width="5"/>
<path d="M7110,4358 l60,0 l0,60 l-60,0 z" fill="green"/>
<path d="M7140,4388 l-171,499" stroke="black" stroke-width="5"/>
<path d="M8514,8166 l60,0 l0,60 l-60,0 z" fill="green"/>
<path d="M8544,8196 l-31,-292" stroke="black" stroke-width="5"/>
<path d="M8547,4307 l60,0 l0,60 l-60,0 z" fill="green"/>
<path d="M8577,4337 l501,17.5" stroke="black" stroke-width="5"/>
<path d="M3125,9138 l60,0 l0,60 l-60,0 z" fill="green"/>
<path d="M3155,9168 l-182,-37" stroke="black" stroke-width="5"/>
<path d="M7793,4374 l60,0 l0,60 l-60,0 z" fill="green"/>
<path d="M7823,4404 l66.5,-8.5" stroke="black" stroke-width="5"/>
<path d="M9421,80 l60,0 l0,60 l-60,0 z" fill="green"/>
<path d="M9451,110 l-468.5,142" stroke="black" stroke-width="5"/>
<path d="M7001,1359 l60,0 l0,60 l-60,0 z" fill="green"/>
<path d="M7031,1389 l-75,-71" stroke="black" stroke-width="5"/>
<path d="M1811,2307 l60,0 l0,60 l-60,0 z" fill="green"/>
<path d="M1841,2337 l-353.5,172.5" stroke="black" stroke-width="5"/>
<path d="M46,8334 l60,0 l0,60 l-60,0 z" fill="green"/>
<path d="M76,8364 l238,-189.5" stroke="black" stroke-width="5"/>
<path d="M3513,3901 l60,0 l0,60 l-60,0 z" fill="green"/>
<path d="M3543,3931 l-500,219" stroke="black" stroke-width="5"/>
<path d="M3897,8798 l60,0 l0,60 l-60,0 z" fill="green"/>
<path d="M3927,8828 l309,133.5" stroke="black" stroke-width="5"/>
<path d="M5641,3275 l60,0 l0,60 l-60,0 z" fill="green"/>
<path d="M5671,3305 l240,212" stroke="black" stroke-width="5"/>
<path d="M5512,4557 l60,0 l0,60 l-60,0 z" fill="green"/>
<path d="M5542,4587 l-364,183" stroke="black" stroke-width="5"/>
<path d="M4000,7702 l60,0 l0,60 l-60,0 z" fill="green"/>
<path d="M4030,7732 l-730.5,-459" stroke="black" stroke-width="5"/>
<path d="M8545,8170 l60,0 l0,60 l-60,0 z" fill="green"/>
<path d="M8575,8200 l-66.5,222" stroke="black" stroke-width="5"/>
<path d="M1109,3709 l60,0 l0,60 l-60,0 z" fill="green"/>
<path d="M1139,3739 l-317.5,-88.5" stroke="black" stroke-width="5"/>
<path d="M20,7385 l60,0 l0,60 l-60,0 z" fill="green"/>
<path d="M50,7415 l446,-235.5" stroke="black" stroke-width="5"/>
<path d="M904,4026 l60,0 l0,60 l-60,0 z" fill="green"/>
<path d="M934,4056 l67.5,99.5" stroke="black" stroke-width="5"/>
<path d="M8771,7148 l60,0 l0,60 l-60,0 z" fill="green"/>
<path d="M8801,7178 l-242.5,-166.5" stroke="black" stroke-width="5"/>
<path d="M4469,6177 l60,0 l0,60 l-60,0 z" fill="green"/>
<path d="M4499,6207 l166.5,-70" stroke="black" stroke-width="5"/>
<path d="M3066,3345 l60,0 l0,60 l-60,0 z" fill="green"/>
<path d="M3096,3375 l-243.5,-311.5" stroke="black" stroke-width="5"/>
<path d="M5222,3251 l60,0 l0,60 l-60,0 z" fill="green"/>
<path d="M5252,3281 l-203,-125.5" stroke="black" stroke-width="5"/>
<path d="M2217,1416 l60,0 l0,60 l-60,0 z" fill="green"/>
<path d="M2247,1446 l-761,230" stroke="black" stroke-width="5"/>
<path d="M3317,8471 l60,0 l0,60 l-60,0 z" fill="green"/>
<path d="M3347,8501 l-1190,-157" stroke="black" stroke-width="5"/>
<path d="M5761,8570 l60,0 l0,60 l-60,0 z" fill="green"/>
<path d="M5791,8600 l40.5,667.5" stroke="black" stroke-width="5"/>
<path d="M8003,8962 l60,0 l0,60 l-60,0 z" fill="green"/>
<path d="M8033,8992 l-101.5,77" stroke="black" stroke-width="5"/>
<path d="M2267,9224 l60,0 l0,60 l-60,0 z" fill="green"/>
<path d="M2297,9254 l-29.5,-35.5" stroke="black" stroke-width="5"/>
<path d="M4282,6146 l60,0 l0,60 l-60,0 z" fill="green"/>
<path d="M4312,6176 l0.5,0.5" stroke="black" stroke-width="5"/>
<text font-size="200" text-anchor="middle" x="1750.5" y="581.5">
0
</text>
<text font-size="200" text-anchor="middle" x="6509" y="6520.5">
1
</text>
<text font-size="200" text-anchor="middle" x="5310.5" y="356">
2
</text>
<text font-size="200" text-anchor="middle" x="5685" y="2392">
3
</text>
<text font-size="200" text-anchor="middle" x="6726" y="3055.5">
4
</text>
<text font-size="200" text-anchor="middle" x="4233.5" y="1564">
5
</text>
<text font-size="200" text-anchor="middle" x="7742.5" y="9813.5">
6
</text>
<text font-size="200" text-anchor="middle" x="7524" y="454.5">
7
</text>
<text font-size="200" text-anchor="middle" x="9091" y="5375">
8
</text>
<text font-size="200" text-anchor="middle" x="7068.5" y="9309">
9
</text>
<text font-size="200" text-anchor="middle" x="7584.5" y="2498.5">
10
</text>
<text font-size="200" text-anchor="middle" x="746.5" y="5258">
11
</text>
<text font-size="200" text-anchor="middle" x="7138" y="3846">
12
</text>
<text font-size="200" text-anchor="middle" x="5274.5" y="2186.5">
13
</text>
<text font-size="200" text-anchor="middle" x="5474" y="1086">
14
</text>
<text font-size="200" text-anchor="middle" x="3293.5" y="5535.5">
15
</text>
<text font-size="200" text-anchor="middle" x="4679" y="3351.5">
16
</text>
<text font-size="200" text-anchor="middle" x="5924.5" y="7961">
17
</text>
<text font-size="200" text-anchor="middle" x="1776" y="9817">
18
</text>
<text font-size="200" text-anchor="middle" x="8705" y="3803">
19
</text>
<text font-size="200" text-anchor="middle" x="9113" y="9227.5">
20
</text>
<text font-size="200" text-anchor="middle" x="3278.5" y="1741">
21
</text>
<text font-size="200" text-anchor="middle" x="6969" y="4957">
22
</text>
<text font-size="200" text-anchor="middle" x="8513" y="7974">
23
</text>
<text font-size="200" text-anchor="middle" x="9078" y="4424.5">
24
</text>
<text font-size="200" text-anchor="middle" x="2973" y="9201">
25
</text>
<text font-size="200" text-anchor="middle" x="7889.5" y="4465.5">
26
</text>
<text font-size="200" text-anchor="middle" x="8982.5" y="322">
27
</text>
<text font-size="200" text-anchor="middle" x="6956" y="1388">
28
</text>
<text font-size="200" text-anchor="middle" x="1487.5" y="2579.5">
29
</text>
<text font-size="200" text-anchor="middle" x="314" y="8244.5">
30
</text>
<text font-size="200" text-anchor="middle" x="3043" y="4220">
31
</text>
<text font-size="200" text-anchor="middle" x="4236" y="9031.5">
32
</text>
<text font-size="200" text-anchor="middle" x="5911" y="3587">
33
</text>
<text font-size="200" text-anchor="middle" x="5178" y="4840">
34
</text>
<text font-size="200" text-anchor="middle" x="3299.5" y="7343">
35
</text>
<text font-size="200" text-anchor="middle" x="8508.5" y="8492">
36
</text>
<text font-size="200" text-anchor="middle" x="821.5" y="3720.5">
37
</text>
<text font-size="200" text-anchor="middle" x="496" y="7249.5">
38
</text>
<text font-size="200" text-anchor="middle" x="1001.5" y="4225.5">
39
</text>
<text font-size="200" text-anchor="middle" x="8558.5" y="7081.5">
40
</text>
<text font-size="200" text-anchor="middle" x="4665.5" y="6207">
41
</text>
<text font-size="200" text-anchor="middle" x="2852.5" y="3133.5">
42
</text>
<text font-size="200" text-anchor="middle" x="5049" y="3225.5">
43
</text>
<text font-size="200" text-anchor="middle" x="1486" y="1746">
44
</text>
<text font-size="200" text-anchor="middle" x="2157" y="8414">
45
</text>
<text font-size="200" text-anchor="middle" x="5831.5" y="9337.5">
46
</text>
<text font-size="200" text-anchor="middle" x="7931.5" y="9139">
47
</text>
<text font-size="200" text-anchor="middle" x="2267.5" y="9288.5">
48
</text>
<text font-size="200" text-anchor="middle" x="4312.5" y="6246.5">
49
</text>
</svg>