<svg viewBox="-100 -100 10200 10200" xmlns="http://www.w3.org/2000/svg">
<path d="M0,0 l10000,0 l0,10000 l-10000,0 z" fill="white"/>
<path d="M3,1 l3537,0 l0,970 l-3537,0 z" fill="#8b00ff" stroke="black" stroke-width="5"/>
<path d="M5035,5660 l2948,0 l0,1581 l-2948,0 z" fill="#fe00ff" stroke="black" stroke-width="5"/>
<path d="M3573,1 l3477,0 l0,573 l-3477,0 z" fill="#fe00ff" stroke="black" stroke-width="5"/>
<path d="M5468,1677 l466,0 l0,1464 l-466,0 z" fill="#ff00fe" stroke="black" stroke-width="5"/>
<path d="M6327,2436 l707,0 l0,1302 l-707,0 z" fill="#fe00ff" stroke="black" stroke-width="5"/>
<path d="M3541,593 l1348,0 l0,1845 l-1348,0 z" fill="#fe00ff" stroke="black" stroke-width="5"/>
<path d="M7299,9492 l904,0 l0,487 l-904,0 z" fill="#ff00fe" stroke="black" stroke-width="5"/>
<path d="M7053,19 l899,0 l0,652 l-899,0 z" fill="#fe00ff" stroke="black" stroke-width="5"/>
<path d="M8170,4711 l1726,0 l0,1046 l-1726,0 z" fill="#fe00ff" stroke="black" stroke-width="5"/>
<path d="M6809,8647 l484,0 l0,1052 l-484,0 z" fill="#fe00ff" stroke="black" stroke-width="5"/>
<path d="M7114,1708 l1012,0 l0,1540 l-1012,0 z" fill="#ff00fe" stroke="black" stroke-width="5"/>
<path d="M4,4579 l1485,0 l0,1218 l-1485,0 z" fill="#fe00ff" stroke="black" stroke-width="5"/>
<path d="M7133,3261 l42,0 l0,849 l-42,0 z" fill="#ff00fe" stroke="black" stroke-width="5"/>
<path d="M4933,2218 l493,0 l0,159 l-493,0 z" fill="#fe00ff" stroke="black" stroke-width="5"/>
<path d="M4946,577 l1064,0 l0,913 l-1064,0 z" fill="#ff00fe" stroke="black" stroke-width="5"/>
<path d="M2588,4809 l1500,0 l0,1248 l-1500,0 z" fill="#ff00fe" stroke="black" stroke-width="5"/>
<path d="M4640,2463 l28,0 l0,1069 l-28,0 z" fill="#ff00fe" stroke="black" stroke-width="5"/>
<path d="M4854,7250 l2197,0 l0,1182 l-2197,0 z" fill="#e200ff" stroke="black" stroke-width="5"/>
<path d="M85,9479 l3420,0 l0,508 l-3420,0 z" fill="#fe00ff" stroke="black" stroke-width="5"/>
<path d="M8422,3429 l690,0 l0,485 l-690,0 z" fill="#ff00fe" stroke="black" stroke-width="5"/>
<path d="M8478,8643 l1125,0 l0,984 l-1125,0 z" fill="#fe00ff" stroke="black" stroke-width="5"/>
<path d="M2892,1118 l581,0 l0,1153 l-581,0 z" fill="#ff00fe" stroke="black" stroke-width="5"/>
<path d="M6271,4111 l1368,0 l0,1534 l-1368,0 z" fill="#ff00fe" stroke="black" stroke-width="5"/>
<path d="M7054,7599 l2914,0 l0,598 l-2914,0 z" fill="#ff00fe" stroke="black" stroke-width="5"/>
<path d="M8087,3914 l1910,0 l0,795 l-1910,0 z" fill="#4200ff" stroke="black" stroke-width="5"/>
<path d="M2305,8767 l1373,0 l0,711 l-1373,0 z" fill="#ff00fe" stroke="black" stroke-width="5"/>
<path d="M7641,3251 l435,0 l0,2178 l-435,0 z" fill="#ff00fe" stroke="black" stroke-width="5"/>
<path d="M7957,99 l1906,0 l0,301 l-1906,0 z" fill="#ff00fe" stroke="black" stroke-width="5"/>
<path d="M6051,1167 l1521,0 l0,518 l-1521,0 z" fill="#ff00fe" stroke="black" stroke-width="5"/>
<path d="M48,2337 l2669,0 l0,353 l-2669,0 z" fill="#fe00ff" stroke="black" stroke-width="5"/>
<path d="M4,7630 l610,0 l0,1163 l-610,0 z" fill="#fe00ff" stroke="black" stroke-width="5"/>
<path d="M2048,3470 l2065,0 l0,1327 l-2065,0 z" fill="#ce00ff" stroke="black" stroke-width="5"/>
<path d="M3684,7964 l1161,0 l0,2028 l-1161,0 z" fill="#e800ff" stroke="black" stroke-width="5"/>
<path d="M5384,3150 l941,0 l0,768 l-941,0 z" fill="#7400ff" stroke="black" stroke-width="5"/>
<path d="M4117,3920 l2154,0 l0,1725 l-2154,0 z" fill="#a300ff" stroke="black" stroke-width="5"/>
<path d="M1845,6615 l2973,0 l0,1333 l-2973,0 z" fill="#ff00fe" stroke="black" stroke-width="5"/>
<path d="M7051,8200 l2937,0 l0,443 l-2937,0 z" fill="#4700ff" stroke="black" stroke-width="5"/>
<path d="M88,3534 l1233,0 l0,206 l-1233,0 z" fill="#fe00ff" stroke="black" stroke-width="5"/>
<path d="M17,6895 l896,0 l0,723 l-896,0 z" fill="#ff00fe" stroke="black" stroke-width="5"/>
<path d="M3,3748 l2044,0 l0,831 l-2044,0 z" fill="#fc00ff" stroke="black" stroke-width="5"/>
<path d="M7990,6541 l1182,0 l0,1031 l-1182,0 z" fill="#ff00fe" stroke="black" stroke-width="5"/>
<path d="M4322,5648 l691,0 l0,956 l-691,0 z" fill="#ff00fe" stroke="black" stroke-width="5"/>
<path d="M1118,2701 l3515,0 l0,767 l-3515,0 z" fill="#ff00fe" stroke="black" stroke-width="5"/>
<path d="M4668,2440 l713,0 l0,1467 l-713,0 z" fill="#fe00ff" stroke="black" stroke-width="5"/>
<path d="M4,979 l2887,0 l0,1356 l-2887,0 z" fill="#9200ff" stroke="black" stroke-width="5"/>
<path d="M634,7950 l3028,0 l0,815 l-3028,0 z" fill="#3d00ff" stroke="black" stroke-width="5"/>
<path d="M4847,8434 l1940,0 l0,1566 l-1940,0 z" fill="#e000ff" stroke="black" stroke-width="5"/>
<path d="M7296,8660 l1175,0 l0,831 l-1175,0 z" fill="#3100ff" stroke="black" stroke-width="5"/>
<path d="M2135,9129 l163,0 l0,142 l-163,0 z" fill="#fe00ff" stroke="black" stroke-width="5"/>
<path d="M4312,6176 l1,0 l0,1 l-1,0 z" fill="#0000ff" stroke="black" stroke-width="5"/>
<path d="M1879,330 l60,0 l0,60 l-60,0 z" fill="green"/>
<path d="M1909,360 l-137.5,126" stroke="black" stroke-width="5"/>
<path d="M5780,7061 l60,0 l0,60 l-60,0 z" fill="green"/>
<path d="M5810,7091 l699,-640.5" stroke="black" stroke-width="5"/>
<path d="M5377,392 l60,0 l0,60 l-60,0 z" fill="green"/>
<path d="M5407,422 l-95.5,-134.5" stroke="black" stroke-width="5"/>
<path d="M5737,3110 l60,0 l0,60 l-60,0 z" fill="green"/>
<path d="M5767,3140 l-66,-731" stroke="black" stroke-width="5"/>
<path d="M6629,3204 l60,0 l0,60 l-60,0 z" fill="green"/>
<path d="M6659,3234 l21.5,-147" stroke="black" stroke-width="5"/>
<path d="M4176,1590 l60,0 l0,60 l-60,0 z" fill="green"/>
<path d="M4206,1620 l9,-104.5" stroke="black" stroke-width="5"/>
<path d="M7823,9462 l60,0 l0,60 l-60,0 z" fill="green"/>
<path d="M7853,9492 l-102,243.5" stroke="black" stroke-width="5"/>
<path d="M7845,402 l60,0 l0,60 l-60,0 z" fill="green"/>
<path d="M7875,432 l-372.5,-87" stroke="black" stroke-width="5"/>
<path d="M9018,5029 l60,0 l0,60 l-60,0 z" fill="green"/>
<path d="M9048,5059 l-15,175" stroke="black" stroke-width="5"/>
<path d="M7262,9040 l60,0 l0,60 l-60,0 z" fill="green"/>
<path d="M7292,9070 l-241,103" stroke="black" stroke-width="5"/>
<path d="M7603,2466 l60,0 l0,60 l-60,0 z" fill="green"/>
<path d="M7633,2496 l-13,-18" stroke="black" stroke-width="5"/>
<path d="M391,4805 l60,0 l0,60 l-60,0 z" fill="green"/>
<path d="M421,4835 l325.5,353" stroke="black" stroke-width="5"/>
<path d="M7134,4079 l60,0 l0,60 l-60,0 z" fill="green"/>
<path d="M7164,4109 l-10,-423.5" stroke="black" stroke-width="5"/>
<path d="M5326,2241 l60,0 l0,60 l-60,0 z" fill="green"/>
<path d="M5356,2271 l-176.5,26.5" stroke="black" stroke-width="5"/>
<path d="M5231,547 l60,0 l0,60 l-60,0 z" fill="green"/>
<path d="M5261,577 l217,456.5" stroke="black" stroke-width="5"/>
<path d="M3516,5195 l60,0 l0,60 l-60,0 z" fill="green"/>
<path d="M3546,5225 l-208,208" stroke="black" stroke-width="5"/>
<path d="M4637,3356 l60,0 l0,60 l-60,0 z" fill="green"/>
<path d="M4667,3386 l-13,-388.5" stroke="black" stroke-width="5"/>
<path d="M5566,7866 l60,0 l0,60 l-60,0 z" fill="green"/>
<path d="M5596,7896 l356.5,-55" stroke="black" stroke-width="5"/>
<path d="M2488,9783 l60,0 l0,60 l-60,0 z" fill="green"/>
<path d="M2518,9813 l-723,-80" stroke="black" stroke-width="5"/>
<path d="M8972,3883 l60,0 l0,60 l-60,0 z" fill="green"/>
<path d="M9002,3913 l-235,-241.5" stroke="black" stroke-width="5"/>
<path d="M8544,8917 l60,0 l0,60 l-60,0 z" fill="green"/>
<path d="M8574,8947 l466.5,188" stroke="black" stroke-width="5"/>
<path d="M3088,1743 l60,0 l0,60 l-60,0 z" fill="green"/>
<path d="M3118,1773 l64.5,-78.5" stroke="black" stroke-width="5"/>
<path d="M7110,4358 l60,0 l0,60 l-60,0 z" fill="green"/>
<path d="M7140,4388 l-185,490" stroke="black" stroke-width="5"/>
<path d="M8514,8166 l60,0 l0,60 l-60,0 z" fill="green"/>
<path d="M8544,8196 l-33,-298" stroke="black" stroke-width="5"/>
<path d="M8547,4307 l60,0 l0,60 l-60,0 z" fill="green"/>
<path d="M8577,4337 l465,-25.5" stroke="black" stroke-width="5"/>
<path d="M3125,9138 l60,0 l0,60 l-60,0 z" fill="green"/>
<path d="M3155,9168 l-163.5,-45.5" stroke="black" stroke-width="5"/>
<path d="M7793,4374 l60,0 l0,60 l-60,0 z" fill="green"/>
<path d="M7823,4404 l35.5,-64" stroke="black" stroke-width="5"/>
<path d="M9421,80 l60,0 l0,60 l-60,0 z" fill="green"/>
<path d="M9451,110 l-541,139.5" stroke="black" stroke-width="5"/>
<path d="M7001,1359 l60,0 l0,60 l-60,0 z" fill="green"/>
<path d="M7031,1389 l-219.5,37" stroke="black" stroke-width="5"/>
<path d="M1811,2307 l60,0 l0,60 l-60,0 z" fill="green"/>
<path d="M1841,2337 l-458.5,176.5" stroke="black" stroke-width="5"/>
<path d="M46,8334 l60,0 l0,60 l-60,0 z" fill="green"/>
<path d="M76,8364 l233,-152.5" stroke="black" stroke-width="5"/>
<path d="M3513,3901 l60,0 l0,60 l-60,0 z" fill="green"/>
<path d="M3543,3931 l-462.5,202.5" stroke="black" stroke-width="5"/>
<path d="M3897,8798 l60,0 l0,60 l-60,0 z" fill="green"/>
<path d="M3927,8828 l337.5,150" stroke="black" stroke-width="5"/>
<path d="M5641,3275 l60,0 l0,60 l-60,0 z" fill="green"/>
<path d="M5671,3305 l183.5,229" stroke="black" stroke-width="5"/>
<path d="M5512,4557 l60,0 l0,60 l-60,0 z" fill="green"/>
<path d="M5542,4587 l-348,195.5" stroke="black" stroke-width="5"/>
<path d="M4000,7702 l60,0 l0,60 l-60,0 z" fill="green"/>
<path d="M4030,7732 l-698.5,-450.5" stroke="black" stroke-width="5"/>
<path d="M8545,8170 l60,0 l0,60 l-60,0 z" fill="green"/>
<path d="M8575,8200 l-55.5,221.5" stroke="black" stroke-width="5"/>
<path d="M1109,3709 l60,0 l0,60 l-60,0 z" fill="green"/>
<path d="M1139,3739 l-434.5,-102" stroke="black" stroke-width="5"/>
<path d="M20,7385 l60,0 l0,60 l-60,0 z" fill="green"/>
<path d="M50,7415 l415,-158.5" stroke="black" stroke-width="5"/>
<path d="M904,4026 l60,0 l0,60 l-60,0 z" fill="green"/>
<path d="M934,4056 l91,107.5" stroke="black" stroke-width="5"/>
<path d="M8771,7148 l60,0 l0,60 l-60,0 z" fill="green"/>
<path d="M8801,7178 l-220,-121.5" stroke="black" stroke-width="5"/>
<path d="M4469,6177 l60,0 l0,60 l-60,0 z" fill="green"/>
<path d="M4499,6207 l168.5,-81" stroke="black" stroke-width="5"/>
<path d="M3066,3345 l60,0 l0,60 l-60,0 z" fill="green"/>
<path d="M3096,3375 l-220.5,-290.5" stroke="black" stroke-width="5"/>
<path d="M5222,3251 l60,0 l0,60 l-60,0 z" fill="green"/>
<path d="M5252,3281 l-227.5,-107.5" stroke="black" stroke-width="5"/>
<path d="M2217,1416 l60,0 l0,60 l-60,0 z" fill="green"/>
<path d="M2247,1446 l-799.5,211" stroke="black" stroke-width="5"/>
<path d="M3317,8471 l60,0 l0,60 l-60,0 z" fill="green"/>
<path d="M3347,8501 l-1199,-143.5" stroke="black" stroke-width="5"/>
<path d="M5761,8570 l60,0 l0,60 l-60,0 z" fill="green"/>
<path d="M5791,8600 l26,617" stroke="black" stroke-width="5"/>
<path d="M8003,8962 l60,0 l0,60 l-60,0 z" fill="green"/>
<path d="M8033,8992 l-149.5,83.5" stroke="black" stroke-width="5"/>
<path d="M2267,9224 l60,0 l0,60 l-60,0 z" fill="green"/>
<path d="M2297,9254 l-80.5,-54" stroke="black" stroke-width="5"/>
<path d="M4282,6146 l60,0 l0,60 l-60,0 z" fill="green"/>
<path d="M4312,6176 l0.5,0.5" stroke="black" stroke-width="5"/>
<text font-size="200" text-anchor="middle" x="1771.5" y="556">
0
</text>
<text font-size="200" text-anchor="middle" x="6509" y="6520.5">
1
</text>
<text font-size="200" text-anchor="middle" x="5311.5" y="357.5">
2
</text>
<text font-size="200" text-anchor="middle" x="5701" y="2479">
3
</text>
<text font-size="200" text-anchor="middle" x="6680.5" y="3157">
4
</text>
<text font-size="200" text-anchor="middle" x="4215" y="1585.5">
5
</text>
<text font-size="200" text-anchor="middle" x="7751" y="9805.5">
6
</text>
<text font-size="200" text-anchor="middle" x="7502.5" y="415">
7
</text>
<text font-size="200" text-anchor="middle" x="9033" y="5304">
8
</text>
<text font-size="200" text-anchor="middle" x="7051" y="9243">
9
</text>
<text font-size="200" text-anchor="middle" x="7620" y="2548">
10
</text>
<text font-size="200" text-anchor="middle" x="746.5" y="5258">
11
</text>
<text font-size="200" text-anchor="middle" x="7154" y="3755.5">
12
</text>
<text font-size="200" text-anchor="middle" x="5179.5" y="2367.5">
13
</text>
<text font-size="200" text-anchor="middle" x="5478" y="1103.5">
14
</text>
<text font-size="200" text-anchor="middle" x="3338" y="5503">
15
</text>
<text font-size="200" text-anchor="middle" x="4654" y="3067.5">
16
</text>
<text font-size="200" text-anchor="middle" x="5952.5" y="7911">
17
</text>
<text font-size="200" text-anchor="middle" x="1795" y="9803">
18
</text>
<text font-size="200" text-anchor="middle" x="8767" y="3741.5">
19
</text>
<text font-size="200" text-anchor="middle" x="9040.5" y="9205">
20
</text>
<text font-size="200" text-anchor="middle" x="3182.5" y="1764.5">
21
</text>
<text font-size="200" text-anchor="middle" x="6955" y="4948">
22
</text>
<text font-size="200" text-anchor="middle" x="8511" y="7968">
23
</text>
<text font-size="200" text-anchor="middle" x="9042" y="4381.5">
24
</text>
<text font-size="200" text-anchor="middle" x="2991.5" y="9192.5">
25
</text>
<text font-size="200" text-anchor="middle" x="7858.5" y="4410">
26
</text>
<text font-size="200" text-anchor="middle" x="8910" y="319.5">
27
</text>
<text font-size="200" text-anchor="middle" x="6811.5" y="1496">
28
</text>
<text font-size="200" text-anchor="middle" x="1382.5" y="2583.5">
29
</text>
<text font-size="200" text-anchor="middle" x="309" y="8281.5">
30
</text>
<text font-size="200" text-anchor="middle" x="3080.5" y="4203.5">
31
</text>
<text font-size="200" text-anchor="middle" x="4264.5" y="9048">
32
</text>
<text font-size="200" text-anchor="middle" x="5854.5" y="3604">
33
</text>
<text font-size="200" text-anchor="middle" x="5194" y="4852.5">
34
</text>
<text font-size="200" text-anchor="middle" x="3331.5" y="7351.5">
35
</text>
<text font-size="200" text-anchor="middle" x="8519.5" y="8491.5">
36
</text>
<text font-size="200" text-anchor="middle" x="704.5" y="3707">
37
</text>
<text font-size="200" text-anchor="middle" x="465" y="7326.5">
38
</text>
<text font-size="200" text-anchor="middle" x="1025" y="4233.5">
39
</text>
<text font-size="200" text-anchor="middle" x="8581" y="7126.5">
40
</text>
<text font-size="200" text-anchor="middle" x="4667.5" y="6196">
41
</text>
<text font-size="200" text-anchor="middle" x="2875.5" y="3154.5">
42
</text>
<text font-size="200" text-anchor="middle" x="5024.5" y="3243.5">
43
</text>
<text font-size="200" text-anchor="middle" x="1447.5" y="1727">
44
</text>
<text font-size="200" text-anchor="middle" x="2148" y="8427.5">
45
</text>
<text font-size="200" text-anchor="middle" x="5817" y="9287">
46
</text>
<text font-size="200" text-anchor="middle" x="7883.5" y="9145.5">
47
</text>
<text font-size="200" text-anchor="middle" x="2216.5" y="9270">
48
</text>
<text font-size="200" text-anchor="middle" x="4312.5" y="6246.5">
49
</text>
</svg>