<svg viewBox="-100 -100 10200 10200" xmlns="http://www.w3.org/2000/svg">
<path d="M0,0 l10000,0 l0,10000 l-10000,0 z" fill="white"/>
<path d="M45,0 l3535,0 l0,792 l-3535,0 z" fill="#6400ff" stroke="black" stroke-width="5"/>
<path d="M5039,5665 l3048,0 l0,1529 l-3048,0 z" fill="#fe00ff" stroke="black" stroke-width="5"/>
<path d="M3580,0 l3748,0 l0,529 l-3748,0 z" fill="#fe00ff" stroke="black" stroke-width="5"/>
<path d="M5473,1673 l464,0 l0,1468 l-464,0 z" fill="#fe00ff" stroke="black" stroke-width="5"/>
<path d="M6503,2325 l623,0 l0,1478 l-623,0 z" fill="#ff00fe" stroke="black" stroke-width="5"/>
<path d="M3583,537 l1340,0 l0,1856 l-1340,0 z" fill="#fe00ff" stroke="black" stroke-width="5"/>
<path d="M7379,9492 l872,0 l0,505 l-872,0 z" fill="#ff00fe" stroke="black" stroke-width="5"/>
<path d="M7336,18 l704,0 l0,830 l-704,0 z" fill="#fe00ff" stroke="black" stroke-width="5"/>
<path d="M8144,4838 l1844,0 l0,979 l-1844,0 z" fill="#fe00ff" stroke="black" stroke-width="5"/>
<path d="M6987,8773 l342,0 l0,1224 l-342,0 z" fill="#eb00ff" stroke="black" stroke-width="5"/>
<path d="M7126,1524 l935,0 l0,1667 l-935,0 z" fill="#ff00fe" stroke="black" stroke-width="5"/>
<path d="M4,4663 l1486,0 l0,1217 l-1486,0 z" fill="#fe00ff" stroke="black" stroke-width="5"/>
<path d="M7126,3192 l39,0 l0,918 l-39,0 z" fill="#ff00fe" stroke="black" stroke-width="5"/>
<path d="M5318,1624 l117,0 l0,668 l-117,0 z" fill="#fe00ff" stroke="black" stroke-width="5"/>
<path d="M4927,544 l955,0 l0,1017 l-955,0 z" fill="#fe00ff" stroke="black" stroke-width="5"/>
<path d="M2342,4996 l1694,0 l0,1105 l-1694,0 z" fill="#fe00ff" stroke="black" stroke-width="5"/>
<path d="M4638,2417 l30,0 l0,982 l-30,0 z" fill="#ff00fe" stroke="black" stroke-width="5"/>
<path d="M4855,7200 l2160,0 l0,1328 l-2160,0 z" fill="#f300ff" stroke="black" stroke-width="5"/>
<path d="M89,9506 l3535,0 l0,492 l-3535,0 z" fill="#ff00fe" stroke="black" stroke-width="5"/>
<path d="M8263,3498 l740,0 l0,416 l-740,0 z" fill="#fa00ff" stroke="black" stroke-width="5"/>
<path d="M8555,8712 l1093,0 l0,1012 l-1093,0 z" fill="#fe00ff" stroke="black" stroke-width="5"/>
<path d="M3035,998 l509,0 l0,1316 l-509,0 z" fill="#fe00ff" stroke="black" stroke-width="5"/>
<path d="M6339,4111 l1356,0 l0,1546 l-1356,0 z" fill="#fe00ff" stroke="black" stroke-width="5"/>
<path d="M7039,7591 l2875,0 l0,606 l-2875,0 z" fill="#fe00ff" stroke="black" stroke-width="5"/>
<path d="M8103,3919 l1890,0 l0,917 l-1890,0 z" fill="#5400ff" stroke="black" stroke-width="5"/>
<path d="M2301,8820 l1359,0 l0,686 l-1359,0 z" fill="#fd00ff" stroke="black" stroke-width="5"/>
<path d="M7699,3254 l403,0 l0,2347 l-403,0 z" fill="#ff00fe" stroke="black" stroke-width="5"/>
<path d="M8040,81 l1918,0 l0,307 l-1918,0 z" fill="#ff00fe" stroke="black" stroke-width="5"/>
<path d="M5936,1002 l1843,0 l0,427 l-1843,0 z" fill="#fe00ff" stroke="black" stroke-width="5"/>
<path d="M260,2336 l2890,0 l0,326 l-2890,0 z" fill="#fe00ff" stroke="black" stroke-width="5"/>
<path d="M14,7757 l530,0 l0,1341 l-530,0 z" fill="#ff00fe" stroke="black" stroke-width="5"/>
<path d="M2016,3384 l2251,0 l0,1599 l-2251,0 z" fill="#fc00ff" stroke="black" stroke-width="5"/>
<path d="M3660,7898 l1194,0 l0,2091 l-1194,0 z" fill="#f100ff" stroke="black" stroke-width="5"/>
<path d="M5389,3160 l1110,0 l0,774 l-1110,0 z" fill="#9800ff" stroke="black" stroke-width="5"/>
<path d="M4272,3937 l2060,0 l0,1710 l-2060,0 z" fill="#9700ff" stroke="black" stroke-width="5"/>
<path d="M1657,6642 l3198,0 l0,1239 l-3198,0 z" fill="#fe00ff" stroke="black" stroke-width="5"/>
<path d="M7035,8200 l2965,0 l0,507 l-2965,0 z" fill="#5c00ff" stroke="black" stroke-width="5"/>
<path d="M233,3531 l1213,0 l0,209 l-1213,0 z" fill="#fe00ff" stroke="black" stroke-width="5"/>
<path d="M3,6731 l906,0 l0,715 l-906,0 z" fill="#ff00fe" stroke="black" stroke-width="5"/>
<path d="M5,3762 l2011,0 l0,895 l-2011,0 z" fill="#fe00ff" stroke="black" stroke-width="5"/>
<path d="M8137,6447 l1066,0 l0,1143 l-1066,0 z" fill="#fe00ff" stroke="black" stroke-width="5"/>
<path d="M4322,5711 l716,0 l0,922 l-716,0 z" fill="#fe00ff" stroke="black" stroke-width="5"/>
<path d="M757,2668 l3797,0 l0,710 l-3797,0 z" fill="#ff00fe" stroke="black" stroke-width="5"/>
<path d="M4672,2469 l714,0 l0,1465 l-714,0 z" fill="#fe00ff" stroke="black" stroke-width="5"/>
<path d="M4,793 l3029,0 l0,1537 l-3029,0 z" fill="#b900ff" stroke="black" stroke-width="5"/>
<path d="M569,7884 l3061,0 l0,936 l-3061,0 z" fill="#5000ff" stroke="black" stroke-width="5"/>
<path d="M4856,8533 l2126,0 l0,1465 l-2126,0 z" fill="#e500ff" stroke="black" stroke-width="5"/>
<path d="M7343,8712 l1199,0 l0,778 l-1199,0 z" fill="#2d00ff" stroke="black" stroke-width="5"/>
<path d="M2135,9169 l163,0 l0,146 l-163,0 z" fill="#fe00ff" stroke="black" stroke-width="5"/>
<path d="M4312,6176 l1,0 l0,1 l-1,0 z" fill="#0000ff" stroke="black" stroke-width="5"/>
<path d="M1879,330 l60,0 l0,60 l-60,0 z" fill="green"/>
<path d="M1909,360 l-96.5,36" stroke="black" stroke-width="5"/>
<path d="M5780,7061 l60,0 l0,60 l-60,0 z" fill="green"/>
<path d="M5810,7091 l753,-661.5" stroke="black" stroke-width="5"/>
<path d="M5377,392 l60,0 l0,60 l-60,0 z" fill="green"/>
<path d="M5407,422 l47,-157.5" stroke="black" stroke-width="5"/>
<path d="M5737,3110 l60,0 l0,60 l-60,0 z" fill="green"/>
<path d="M5767,3140 l-62,-733" stroke="black" stroke-width="5"/>
<path d="M6629,3204 l60,0 l0,60 l-60,0 z" fill="green"/>
<path d="M6659,3234 l155.5,-170" stroke="black" stroke-width="5"/>
<path d="M4176,1590 l60,0 l0,60 l-60,0 z" fill="green"/>
<path d="M4206,1620 l47,-155" stroke="black" stroke-width="5"/>
<path d="M7823,9462 l60,0 l0,60 l-60,0 z" fill="green"/>
<path d="M7853,9492 l-38,252.5" stroke="black" stroke-width="5"/>
<path d="M7845,402 l60,0 l0,60 l-60,0 z" fill="green"/>
<path d="M7875,432 l-187,1" stroke="black" stroke-width="5"/>
<path d="M9018,5029 l60,0 l0,60 l-60,0 z" fill="green"/>
<path d="M9048,5059 l18,268.5" stroke="black" stroke-width="5"/>
<path d="M7262,9040 l60,0 l0,60 l-60,0 z" fill="green"/>
<path d="M7292,9070 l-134,315" stroke="black" stroke-width="5"/>
<path d="M7603,2466 l60,0 l0,60 l-60,0 z" fill="green"/>
<path d="M7633,2496 l-39.5,-138.5" stroke="black" stroke-width="5"/>
<path d="M391,4805 l60,0 l0,60 l-60,0 z" fill="green"/>
<path d="M421,4835 l326,436.5" stroke="black" stroke-width="5"/>
<path d="M7134,4079 l60,0 l0,60 l-60,0 z" fill="green"/>
<path d="M7164,4109 l-18.5,-458" stroke="black" stroke-width="5"/>
<path d="M5326,2241 l60,0 l0,60 l-60,0 z" fill="green"/>
<path d="M5356,2271 l20.5,-313" stroke="black" stroke-width="5"/>
<path d="M5231,547 l60,0 l0,60 l-60,0 z" fill="green"/>
<path d="M5261,577 l143.5,475.5" stroke="black" stroke-width="5"/>
<path d="M3516,5195 l60,0 l0,60 l-60,0 z" fill="green"/>
<path d="M3546,5225 l-357,323.5" stroke="black" stroke-width="5"/>
<path d="M4637,3356 l60,0 l0,60 l-60,0 z" fill="green"/>
<path d="M4667,3386 l-14,-478" stroke="black" stroke-width="5"/>
<path d="M5566,7866 l60,0 l0,60 l-60,0 z" fill="green"/>
<path d="M5596,7896 l339,-32" stroke="black" stroke-width="5"/>
<path d="M2488,9783 l60,0 l0,60 l-60,0 z" fill="green"/>
<path d="M2518,9813 l-661.5,-61" stroke="black" stroke-width="5"/>
<path d="M8972,3883 l60,0 l0,60 l-60,0 z" fill="green"/>
<path d="M9002,3913 l-369,-207" stroke="black" stroke-width="5"/>
<path d="M8544,8917 l60,0 l0,60 l-60,0 z" fill="green"/>
<path d="M8574,8947 l527.5,271" stroke="black" stroke-width="5"/>
<path d="M3088,1743 l60,0 l0,60 l-60,0 z" fill="green"/>
<path d="M3118,1773 l171.5,-117" stroke="black" stroke-width="5"/>
<path d="M7110,4358 l60,0 l0,60 l-60,0 z" fill="green"/>
<path d="M7140,4388 l-123,496" stroke="black" stroke-width="5"/>
<path d="M8514,8166 l60,0 l0,60 l-60,0 z" fill="green"/>
<path d="M8544,8196 l-67.5,-302" stroke="black" stroke-width="5"/>
<path d="M8547,4307 l60,0 l0,60 l-60,0 z" fill="green"/>
<path d="M8577,4337 l471,40.5" stroke="black" stroke-width="5"/>
<path d="M3125,9138 l60,0 l0,60 l-60,0 z" fill="green"/>
<path d="M3155,9168 l-174.5,-5" stroke="black" stroke-width="5"/>
<path d="M7793,4374 l60,0 l0,60 l-60,0 z" fill="green"/>
<path d="M7823,4404 l77.5,23.5" stroke="black" stroke-width="5"/>
<path d="M9421,80 l60,0 l0,60 l-60,0 z" fill="green"/>
<path d="M9451,110 l-452,124.5" stroke="black" stroke-width="5"/>
<path d="M7001,1359 l60,0 l0,60 l-60,0 z" fill="green"/>
<path d="M7031,1389 l-173.5,-173.5" stroke="black" stroke-width="5"/>
<path d="M1811,2307 l60,0 l0,60 l-60,0 z" fill="green"/>
<path d="M1841,2337 l-136,162" stroke="black" stroke-width="5"/>
<path d="M46,8334 l60,0 l0,60 l-60,0 z" fill="green"/>
<path d="M76,8364 l203,63.5" stroke="black" stroke-width="5"/>
<path d="M3513,3901 l60,0 l0,60 l-60,0 z" fill="green"/>
<path d="M3543,3931 l-401.5,252.5" stroke="black" stroke-width="5"/>
<path d="M3897,8798 l60,0 l0,60 l-60,0 z" fill="green"/>
<path d="M3927,8828 l330,115.5" stroke="black" stroke-width="5"/>
<path d="M5641,3275 l60,0 l0,60 l-60,0 z" fill="green"/>
<path d="M5671,3305 l273,242" stroke="black" stroke-width="5"/>
<path d="M5512,4557 l60,0 l0,60 l-60,0 z" fill="green"/>
<path d="M5542,4587 l-240,205" stroke="black" stroke-width="5"/>
<path d="M4000,7702 l60,0 l0,60 l-60,0 z" fill="green"/>
<path d="M4030,7732 l-774,-470.5" stroke="black" stroke-width="5"/>
<path d="M8545,8170 l60,0 l0,60 l-60,0 z" fill="green"/>
<path d="M8575,8200 l-57.5,253.5" stroke="black" stroke-width="5"/>
<path d="M1109,3709 l60,0 l0,60 l-60,0 z" fill="green"/>
<path d="M1139,3739 l-299.5,-103.5" stroke="black" stroke-width="5"/>
<path d="M20,7385 l60,0 l0,60 l-60,0 z" fill="green"/>
<path d="M50,7415 l406,-326.5" stroke="black" stroke-width="5"/>
<path d="M904,4026 l60,0 l0,60 l-60,0 z" fill="green"/>
<path d="M934,4056 l76.5,153.5" stroke="black" stroke-width="5"/>
<path d="M8771,7148 l60,0 l0,60 l-60,0 z" fill="green"/>
<path d="M8801,7178 l-131,-159.5" stroke="black" stroke-width="5"/>
<path d="M4469,6177 l60,0 l0,60 l-60,0 z" fill="green"/>
<path d="M4499,6207 l181,-35" stroke="black" stroke-width="5"/>
<path d="M3066,3345 l60,0 l0,60 l-60,0 z" fill="green"/>
<path d="M3096,3375 l-440.5,-352" stroke="black" stroke-width="5"/>
<path d="M5222,3251 l60,0 l0,60 l-60,0 z" fill="green"/>
<path d="M5252,3281 l-223,-79.5" stroke="black" stroke-width="5"/>
<path d="M2217,1416 l60,0 l0,60 l-60,0 z" fill="green"/>
<path d="M2247,1446 l-728.5,115.5" stroke="black" stroke-width="5"/>
<path d="M3317,8471 l60,0 l0,60 l-60,0 z" fill="green"/>
<path d="M3347,8501 l-1247.5,-149" stroke="black" stroke-width="5"/>
<path d="M5761,8570 l60,0 l0,60 l-60,0 z" fill="green"/>
<path d="M5791,8600 l128,665.5" stroke="black" stroke-width="5"/>
<path d="M8003,8962 l60,0 l0,60 l-60,0 z" fill="green"/>
<path d="M8033,8992 l-90.5,109" stroke="black" stroke-width="5"/>
<path d="M2267,9224 l60,0 l0,60 l-60,0 z" fill="green"/>
<path d="M2297,9254 l-80.5,-12" stroke="black" stroke-width="5"/>
<path d="M4282,6146 l60,0 l0,60 l-60,0 z" fill="green"/>
<path d="M4312,6176 l0.5,0.5" stroke="black" stroke-width="5"/>
<text font-size="200" text-anchor="middle" x="1812.5" y="466">
0
</text>
<text font-size="200" text-anchor="middle" x="6563" y="6499.5">
1
</text>
<text font-size="200" text-anchor="middle" x="5454" y="334.5">
2
</text>
<text font-size="200" text-anchor="middle" x="5705" y="2477">
3
</text>
<text font-size="200" text-anchor="middle" x="6814.5" y="3134">
4
</text>
<text font-size="200" text-anchor="middle" x="4253" y="1535">
5
</text>
<text font-size="200" text-anchor="middle" x="7815" y="9814.5">
6
</text>
<text font-size="200" text-anchor="middle" x="7688" y="503">
7
</text>
<text font-size="200" text-anchor="middle" x="9066" y="5397.5">
8
</text>
<text font-size="200" text-anchor="middle" x="7158" y="9455">
9
</text>
<text font-size="200" text-anchor="middle" x="7593.5" y="2427.5">
10
</text>
<text font-size="200" text-anchor="middle" x="747" y="5341.5">
11
</text>
<text font-size="200" text-anchor="middle" x="7145.5" y="3721">
12
</text>
<text font-size="200" text-anchor="middle" x="5376.5" y="2028">
13
</text>
<text font-size="200" text-anchor="middle" x="5404.5" y="1122.5">
14
</text>
<text font-size="200" text-anchor="middle" x="3189" y="5618.5">
15
</text>
<text font-size="200" text-anchor="middle" x="4653" y="2978">
16
</text>
<text font-size="200" text-anchor="middle" x="5935" y="7934">
17
</text>
<text font-size="200" text-anchor="middle" x="1856.5" y="9822">
18
</text>
<text font-size="200" text-anchor="middle" x="8633" y="3776">
19
</text>
<text font-size="200" text-anchor="middle" x="9101.5" y="9288">
20
</text>
<text font-size="200" text-anchor="middle" x="3289.5" y="1726">
21
</text>
<text font-size="200" text-anchor="middle" x="7017" y="4954">
22
</text>
<text font-size="200" text-anchor="middle" x="8476.5" y="7964">
23
</text>
<text font-size="200" text-anchor="middle" x="9048" y="4447.5">
24
</text>
<text font-size="200" text-anchor="middle" x="2980.5" y="9233">
25
</text>
<text font-size="200" text-anchor="middle" x="7900.5" y="4497.5">
26
</text>
<text font-size="200" text-anchor="middle" x="8999" y="304.5">
27
</text>
<text font-size="200" text-anchor="middle" x="6857.5" y="1285.5">
28
</text>
<text font-size="200" text-anchor="middle" x="1705" y="2569">
29
</text>
<text font-size="200" text-anchor="middle" x="279" y="8497.5">
30
</text>
<text font-size="200" text-anchor="middle" x="3141.5" y="4253.5">
31
</text>
<text font-size="200" text-anchor="middle" x="4257" y="9013.5">
32
</text>
<text font-size="200" text-anchor="middle" x="5944" y="3617">
33
</text>
<text font-size="200" text-anchor="middle" x="5302" y="4862">
34
</text>
<text font-size="200" text-anchor="middle" x="3256" y="7331.5">
35
</text>
<text font-size="200" text-anchor="middle" x="8517.5" y="8523.5">
36
</text>
<text font-size="200" text-anchor="middle" x="839.5" y="3705.5">
37
</text>
<text font-size="200" text-anchor="middle" x="456" y="7158.5">
38
</text>
<text font-size="200" text-anchor="middle" x="1010.5" y="4279.5">
39
</text>
<text font-size="200" text-anchor="middle" x="8670" y="7088.5">
40
</text>
<text font-size="200" text-anchor="middle" x="4680" y="6242">
41
</text>
<text font-size="200" text-anchor="middle" x="2655.5" y="3093">
42
</text>
<text font-size="200" text-anchor="middle" x="5029" y="3271.5">
43
</text>
<text font-size="200" text-anchor="middle" x="1518.5" y="1631.5">
44
</text>
<text font-size="200" text-anchor="middle" x="2099.5" y="8422">
45
</text>
<text font-size="200" text-anchor="middle" x="5919" y="9335.5">
46
</text>
<text font-size="200" text-anchor="middle" x="7942.5" y="9171">
47
</text>
<text font-size="200" text-anchor="middle" x="2216.5" y="9312">
48
</text>
<text font-size="200" text-anchor="middle" x="4312.5" y="6246.5">
49
</text>
</svg>