<svg viewBox="-100 -100 10200 10200" xmlns="http://www.w3.org/2000/svg">
<path d="M0,0 l10000,0 l0,10000 l-10000,0 z" fill="white"/>
<path d="M6,10 l3529,0 l0,1065 l-3529,0 z" fill="#9f00ff" stroke="black" stroke-width="5"/>
<path d="M5042,5646 l2906,0 l0,1604 l-2906,0 z" fill="#fe00ff" stroke="black" stroke-width="5"/>
<path d="M3547,1 l3483,0 l0,570 l-3483,0 z" fill="#fe00ff" stroke="black" stroke-width="5"/>
<path d="M5431,1962 l578,0 l0,1179 l-578,0 z" fill="#fe00ff" stroke="black" stroke-width="5"/>
<path d="M6243,2532 l827,0 l0,1113 l-827,0 z" fill="#fe00ff" stroke="black" stroke-width="5"/>
<path d="M3568,588 l1330,0 l0,1870 l-1330,0 z" fill="#fe00ff" stroke="black" stroke-width="5"/>
<path d="M7362,9492 l913,0 l0,482 l-913,0 z" fill="#fe00ff" stroke="black" stroke-width="5"/>
<path d="M7077,132 l961,0 l0,610 l-961,0 z" fill="#ff00fe" stroke="black" stroke-width="5"/>
<path d="M8170,4711 l1726,0 l0,1046 l-1726,0 z" fill="#fe00ff" stroke="black" stroke-width="5"/>
<path d="M6800,8639 l547,0 l0,931 l-547,0 z" fill="#ff00fe" stroke="black" stroke-width="5"/>
<path d="M7071,1714 l1016,0 l0,1534 l-1016,0 z" fill="#ff00fe" stroke="black" stroke-width="5"/>
<path d="M20,4557 l1465,0 l0,1235 l-1465,0 z" fill="#ff00fe" stroke="black" stroke-width="5"/>
<path d="M7149,3289 l43,0 l0,821 l-43,0 z" fill="#ff00fe" stroke="black" stroke-width="5"/>
<path d="M5003,2164 l376,0 l0,213 l-376,0 z" fill="#ff00fe" stroke="black" stroke-width="5"/>
<path d="M4945,577 l1071,0 l0,907 l-1071,0 z" fill="#fe00ff" stroke="black" stroke-width="5"/>
<path d="M2680,4695 l1450,0 l0,1291 l-1450,0 z" fill="#fe00ff" stroke="black" stroke-width="5"/>
<path d="M4634,2658 l34,0 l0,840 l-34,0 z" fill="#fe00ff" stroke="black" stroke-width="5"/>
<path d="M4818,7251 l2178,0 l0,1145 l-2178,0 z" fill="#da00ff" stroke="black" stroke-width="5"/>
<path d="M57,9495 l3443,0 l0,505 l-3443,0 z" fill="#fe00ff" stroke="black" stroke-width="5"/>
<path d="M8507,3466 l747,0 l0,448 l-747,0 z" fill="#ff00fe" stroke="black" stroke-width="5"/>
<path d="M8462,8632 l1139,0 l0,972 l-1139,0 z" fill="#ff00fe" stroke="black" stroke-width="5"/>
<path d="M2817,1082 l632,0 l0,1060 l-632,0 z" fill="#ff00fe" stroke="black" stroke-width="5"/>
<path d="M6359,4112 l1207,0 l0,1534 l-1207,0 z" fill="#f600ff" stroke="black" stroke-width="5"/>
<path d="M7033,7607 l2948,0 l0,591 l-2948,0 z" fill="#fe00ff" stroke="black" stroke-width="5"/>
<path d="M8165,3914 l1827,0 l0,795 l-1827,0 z" fill="#3d00ff" stroke="black" stroke-width="5"/>
<path d="M2299,8755 l1330,0 l0,730 l-1330,0 z" fill="#fe00ff" stroke="black" stroke-width="5"/>
<path d="M7567,3632 l587,0 l0,1611 l-587,0 z" fill="#fe00ff" stroke="black" stroke-width="5"/>
<path d="M8067,86 l1893,0 l0,301 l-1893,0 z" fill="#fe00ff" stroke="black" stroke-width="5"/>
<path d="M6252,971 l1300,0 l0,606 l-1300,0 z" fill="#ff00fe" stroke="black" stroke-width="5"/>
<path d="M145,2337 l2526,0 l0,373 l-2526,0 z" fill="#fe00ff" stroke="black" stroke-width="5"/>
<path d="M14,7773 l645,0 l0,1101 l-645,0 z" fill="#ff00fe" stroke="black" stroke-width="5"/>
<path d="M2048,3525 l2080,0 l0,1169 l-2080,0 z" fill="#b300ff" stroke="black" stroke-width="5"/>
<path d="M3629,7973 l1181,0 l0,2022 l-1181,0 z" fill="#ea00ff" stroke="black" stroke-width="5"/>
<path d="M5431,3145 l806,0 l0,797 l-806,0 z" fill="#6000ff" stroke="black" stroke-width="5"/>
<path d="M4133,3943 l2225,0 l0,1700 l-2225,0 z" fill="#a700ff" stroke="black" stroke-width="5"/>
<path d="M1845,6615 l2973,0 l0,1333 l-2973,0 z" fill="#ff00fe" stroke="black" stroke-width="5"/>
<path d="M6998,8200 l2977,0 l0,432 l-2977,0 z" fill="#4600ff" stroke="black" stroke-width="5"/>
<path d="M27,3547 l1316,0 l0,193 l-1316,0 z" fill="#fe00ff" stroke="black" stroke-width="5"/>
<path d="M50,6914 l773,0 l0,838 l-773,0 z" fill="#ff00fe" stroke="black" stroke-width="5"/>
<path d="M66,3746 l1982,0 l0,808 l-1982,0 z" fill="#f700ff" stroke="black" stroke-width="5"/>
<path d="M8032,6474 l1237,0 l0,985 l-1237,0 z" fill="#fe00ff" stroke="black" stroke-width="5"/>
<path d="M4329,5646 l711,0 l0,929 l-711,0 z" fill="#fe00ff" stroke="black" stroke-width="5"/>
<path d="M1276,2713 l3336,0 l0,808 l-3336,0 z" fill="#fe00ff" stroke="black" stroke-width="5"/>
<path d="M4682,2483 l742,0 l0,1410 l-742,0 z" fill="#ff00fe" stroke="black" stroke-width="5"/>
<path d="M2,1076 l2807,0 l0,1260 l-2807,0 z" fill="#7d00ff" stroke="black" stroke-width="5"/>
<path d="M675,7952 l2954,0 l0,803 l-2954,0 z" fill="#3900ff" stroke="black" stroke-width="5"/>
<path d="M4815,8397 l1983,0 l0,1599 l-1983,0 z" fill="#e900ff" stroke="black" stroke-width="5"/>
<path d="M7350,8641 l1101,0 l0,832 l-1101,0 z" fill="#2b00ff" stroke="black" stroke-width="5"/>
<path d="M2170,9183 l128,0 l0,189 l-128,0 z" fill="#ff00fe" stroke="black" stroke-width="5"/>
<path d="M4312,6176 l1,0 l0,1 l-1,0 z" fill="#0000ff" stroke="black" stroke-width="5"/>
<path d="M1879,330 l60,0 l0,60 l-60,0 z" fill="green"/>
<path d="M1909,360 l-138.5,182.5" stroke="black" stroke-width="5"/>
<path d="M5780,7061 l60,0 l0,60 l-60,0 z" fill="green"/>
<path d="M5810,7091 l685,-643" stroke="black" stroke-width="5"/>
<path d="M5377,392 l60,0 l0,60 l-60,0 z" fill="green"/>
<path d="M5407,422 l-118.5,-136" stroke="black" stroke-width="5"/>
<path d="M5737,3110 l60,0 l0,60 l-60,0 z" fill="green"/>
<path d="M5767,3140 l-47,-588.5" stroke="black" stroke-width="5"/>
<path d="M6629,3204 l60,0 l0,60 l-60,0 z" fill="green"/>
<path d="M6659,3234 l-2.5,-145.5" stroke="black" stroke-width="5"/>
<path d="M4176,1590 l60,0 l0,60 l-60,0 z" fill="green"/>
<path d="M4206,1620 l27,-97" stroke="black" stroke-width="5"/>
<path d="M7823,9462 l60,0 l0,60 l-60,0 z" fill="green"/>
<path d="M7853,9492 l-34.5,241" stroke="black" stroke-width="5"/>
<path d="M7845,402 l60,0 l0,60 l-60,0 z" fill="green"/>
<path d="M7875,432 l-317.5,5" stroke="black" stroke-width="5"/>
<path d="M9018,5029 l60,0 l0,60 l-60,0 z" fill="green"/>
<path d="M9048,5059 l-15,175" stroke="black" stroke-width="5"/>
<path d="M7262,9040 l60,0 l0,60 l-60,0 z" fill="green"/>
<path d="M7292,9070 l-218.5,34.5" stroke="black" stroke-width="5"/>
<path d="M7603,2466 l60,0 l0,60 l-60,0 z" fill="green"/>
<path d="M7633,2496 l-54,-15" stroke="black" stroke-width="5"/>
<path d="M391,4805 l60,0 l0,60 l-60,0 z" fill="green"/>
<path d="M421,4835 l331.5,339.5" stroke="black" stroke-width="5"/>
<path d="M7134,4079 l60,0 l0,60 l-60,0 z" fill="green"/>
<path d="M7164,4109 l6.5,-409.5" stroke="black" stroke-width="5"/>
<path d="M5326,2241 l60,0 l0,60 l-60,0 z" fill="green"/>
<path d="M5356,2271 l-165,-0.5" stroke="black" stroke-width="5"/>
<path d="M5231,547 l60,0 l0,60 l-60,0 z" fill="green"/>
<path d="M5261,577 l219.5,453.5" stroke="black" stroke-width="5"/>
<path d="M3516,5195 l60,0 l0,60 l-60,0 z" fill="green"/>
<path d="M3546,5225 l-141,115.5" stroke="black" stroke-width="5"/>
<path d="M4637,3356 l60,0 l0,60 l-60,0 z" fill="green"/>
<path d="M4667,3386 l-16,-308" stroke="black" stroke-width="5"/>
<path d="M5566,7866 l60,0 l0,60 l-60,0 z" fill="green"/>
<path d="M5596,7896 l311,-72.5" stroke="black" stroke-width="5"/>
<path d="M2488,9783 l60,0 l0,60 l-60,0 z" fill="green"/>
<path d="M2518,9813 l-739.5,-65.5" stroke="black" stroke-width="5"/>
<path d="M8972,3883 l60,0 l0,60 l-60,0 z" fill="green"/>
<path d="M9002,3913 l-121.5,-223" stroke="black" stroke-width="5"/>
<path d="M8544,8917 l60,0 l0,60 l-60,0 z" fill="green"/>
<path d="M8574,8947 l457.5,171" stroke="black" stroke-width="5"/>
<path d="M3088,1743 l60,0 l0,60 l-60,0 z" fill="green"/>
<path d="M3118,1773 l15,-161" stroke="black" stroke-width="5"/>
<path d="M7110,4358 l60,0 l0,60 l-60,0 z" fill="green"/>
<path d="M7140,4388 l-177.5,491" stroke="black" stroke-width="5"/>
<path d="M8514,8166 l60,0 l0,60 l-60,0 z" fill="green"/>
<path d="M8544,8196 l-37,-293.5" stroke="black" stroke-width="5"/>
<path d="M8547,4307 l60,0 l0,60 l-60,0 z" fill="green"/>
<path d="M8577,4337 l501.5,-25.5" stroke="black" stroke-width="5"/>
<path d="M3125,9138 l60,0 l0,60 l-60,0 z" fill="green"/>
<path d="M3155,9168 l-191,-48" stroke="black" stroke-width="5"/>
<path d="M7793,4374 l60,0 l0,60 l-60,0 z" fill="green"/>
<path d="M7823,4404 l37.5,33.5" stroke="black" stroke-width="5"/>
<path d="M9421,80 l60,0 l0,60 l-60,0 z" fill="green"/>
<path d="M9451,110 l-437.5,126.5" stroke="black" stroke-width="5"/>
<path d="M7001,1359 l60,0 l0,60 l-60,0 z" fill="green"/>
<path d="M7031,1389 l-129,-115" stroke="black" stroke-width="5"/>
<path d="M1811,2307 l60,0 l0,60 l-60,0 z" fill="green"/>
<path d="M1841,2337 l-433,186.5" stroke="black" stroke-width="5"/>
<path d="M46,8334 l60,0 l0,60 l-60,0 z" fill="green"/>
<path d="M76,8364 l260.5,-40.5" stroke="black" stroke-width="5"/>
<path d="M3513,3901 l60,0 l0,60 l-60,0 z" fill="green"/>
<path d="M3543,3931 l-455,178.5" stroke="black" stroke-width="5"/>
<path d="M3897,8798 l60,0 l0,60 l-60,0 z" fill="green"/>
<path d="M3927,8828 l292.5,156" stroke="black" stroke-width="5"/>
<path d="M5641,3275 l60,0 l0,60 l-60,0 z" fill="green"/>
<path d="M5671,3305 l163,238.5" stroke="black" stroke-width="5"/>
<path d="M5512,4557 l60,0 l0,60 l-60,0 z" fill="green"/>
<path d="M5542,4587 l-296.5,206" stroke="black" stroke-width="5"/>
<path d="M4000,7702 l60,0 l0,60 l-60,0 z" fill="green"/>
<path d="M4030,7732 l-698.5,-450.5" stroke="black" stroke-width="5"/>
<path d="M8545,8170 l60,0 l0,60 l-60,0 z" fill="green"/>
<path d="M8575,8200 l-88.5,216" stroke="black" stroke-width="5"/>
<path d="M1109,3709 l60,0 l0,60 l-60,0 z" fill="green"/>
<path d="M1139,3739 l-454,-95.5" stroke="black" stroke-width="5"/>
<path d="M20,7385 l60,0 l0,60 l-60,0 z" fill="green"/>
<path d="M50,7415 l386.5,-82" stroke="black" stroke-width="5"/>
<path d="M904,4026 l60,0 l0,60 l-60,0 z" fill="green"/>
<path d="M934,4056 l123,94" stroke="black" stroke-width="5"/>
<path d="M8771,7148 l60,0 l0,60 l-60,0 z" fill="green"/>
<path d="M8801,7178 l-150.5,-211.5" stroke="black" stroke-width="5"/>
<path d="M4469,6177 l60,0 l0,60 l-60,0 z" fill="green"/>
<path d="M4499,6207 l185.5,-96.5" stroke="black" stroke-width="5"/>
<path d="M3066,3345 l60,0 l0,60 l-60,0 z" fill="green"/>
<path d="M3096,3375 l-152,-258" stroke="black" stroke-width="5"/>
<path d="M5222,3251 l60,0 l0,60 l-60,0 z" fill="green"/>
<path d="M5252,3281 l-199,-93" stroke="black" stroke-width="5"/>
<path d="M2217,1416 l60,0 l0,60 l-60,0 z" fill="green"/>
<path d="M2247,1446 l-841.5,260" stroke="black" stroke-width="5"/>
<path d="M3317,8471 l60,0 l0,60 l-60,0 z" fill="green"/>
<path d="M3347,8501 l-1195,-147.5" stroke="black" stroke-width="5"/>
<path d="M5761,8570 l60,0 l0,60 l-60,0 z" fill="green"/>
<path d="M5791,8600 l15.5,596.5" stroke="black" stroke-width="5"/>
<path d="M8003,8962 l60,0 l0,60 l-60,0 z" fill="green"/>
<path d="M8033,8992 l-132.5,65" stroke="black" stroke-width="5"/>
<path d="M2267,9224 l60,0 l0,60 l-60,0 z" fill="green"/>
<path d="M2297,9254 l-63,23.5" stroke="black" stroke-width="5"/>
<path d="M4282,6146 l60,0 l0,60 l-60,0 z" fill="green"/>
<path d="M4312,6176 l0.5,0.5" stroke="black" stroke-width="5"/>
<text font-size="200" text-anchor="middle" x="1770.5" y="612.5">
0
</text>
<text font-size="200" text-anchor="middle" x="6495" y="6518">
1
</text>
<text font-size="200" text-anchor="middle" x="5288.5" y="356">
2
</text>
<text font-size="200" text-anchor="middle" x="5720" y="2621.5">
3
</text>
<text font-size="200" text-anchor="middle" x="6656.5" y="3158.5">
4
</text>
<text font-size="200" text-anchor="middle" x="4233" y="1593">
5
</text>
<text font-size="200" text-anchor="middle" x="7818.5" y="9803">
6
</text>
<text font-size="200" text-anchor="middle" x="7557.5" y="507">
7
</text>
<text font-size="200" text-anchor="middle" x="9033" y="5304">
8
</text>
<text font-size="200" text-anchor="middle" x="7073.5" y="9174.5">
9
</text>
<text font-size="200" text-anchor="middle" x="7579" y="2551">
10
</text>
<text font-size="200" text-anchor="middle" x="752.5" y="5244.5">
11
</text>
<text font-size="200" text-anchor="middle" x="7170.5" y="3769.5">
12
</text>
<text font-size="200" text-anchor="middle" x="5191" y="2340.5">
13
</text>
<text font-size="200" text-anchor="middle" x="5480.5" y="1100.5">
14
</text>
<text font-size="200" text-anchor="middle" x="3405" y="5410.5">
15
</text>
<text font-size="200" text-anchor="middle" x="4651" y="3148">
16
</text>
<text font-size="200" text-anchor="middle" x="5907" y="7893.5">
17
</text>
<text font-size="200" text-anchor="middle" x="1778.5" y="9817.5">
18
</text>
<text font-size="200" text-anchor="middle" x="8880.5" y="3760">
19
</text>
<text font-size="200" text-anchor="middle" x="9031.5" y="9188">
20
</text>
<text font-size="200" text-anchor="middle" x="3133" y="1682">
21
</text>
<text font-size="200" text-anchor="middle" x="6962.5" y="4949">
22
</text>
<text font-size="200" text-anchor="middle" x="8507" y="7972.5">
23
</text>
<text font-size="200" text-anchor="middle" x="9078.5" y="4381.5">
24
</text>
<text font-size="200" text-anchor="middle" x="2964" y="9190">
25
</text>
<text font-size="200" text-anchor="middle" x="7860.5" y="4507.5">
26
</text>
<text font-size="200" text-anchor="middle" x="9013.5" y="306.5">
27
</text>
<text font-size="200" text-anchor="middle" x="6902" y="1344">
28
</text>
<text font-size="200" text-anchor="middle" x="1408" y="2593.5">
29
</text>
<text font-size="200" text-anchor="middle" x="336.5" y="8393.5">
30
</text>
<text font-size="200" text-anchor="middle" x="3088" y="4179.5">
31
</text>
<text font-size="200" text-anchor="middle" x="4219.5" y="9054">
32
</text>
<text font-size="200" text-anchor="middle" x="5834" y="3613.5">
33
</text>
<text font-size="200" text-anchor="middle" x="5245.5" y="4863">
34
</text>
<text font-size="200" text-anchor="middle" x="3331.5" y="7351.5">
35
</text>
<text font-size="200" text-anchor="middle" x="8486.5" y="8486">
36
</text>
<text font-size="200" text-anchor="middle" x="685" y="3713.5">
37
</text>
<text font-size="200" text-anchor="middle" x="436.5" y="7403">
38
</text>
<text font-size="200" text-anchor="middle" x="1057" y="4220">
39
</text>
<text font-size="200" text-anchor="middle" x="8650.5" y="7036.5">
40
</text>
<text font-size="200" text-anchor="middle" x="4684.5" y="6180.5">
41
</text>
<text font-size="200" text-anchor="middle" x="2944" y="3187">
42
</text>
<text font-size="200" text-anchor="middle" x="5053" y="3258">
43
</text>
<text font-size="200" text-anchor="middle" x="1405.5" y="1776">
44
</text>
<text font-size="200" text-anchor="middle" x="2152" y="8423.5">
45
</text>
<text font-size="200" text-anchor="middle" x="5806.5" y="9266.5">
46
</text>
<text font-size="200" text-anchor="middle" x="7900.5" y="9127">
47
</text>
<text font-size="200" text-anchor="middle" x="2234" y="9347.5">
48
</text>
<text font-size="200" text-anchor="middle" x="4312.5" y="6246.5">
49
</text>
</svg>