<svg viewBox="-100 -100 10200 10200" xmlns="http://www.w3.org/2000/svg">
<path d="M0,0 l10000,0 l0,10000 l-10000,0 z" fill="white"/>
<path d="M15,6 l3531,0 l0,1031 l-3531,0 z" fill="#9800ff" stroke="black" stroke-width="5"/>
<path d="M5035,5660 l2948,0 l0,1581 l-2948,0 z" fill="#fe00ff" stroke="black" stroke-width="5"/>
<path d="M3554,2 l3537,0 l0,568 l-3537,0 z" fill="#fe00ff" stroke="black" stroke-width="5"/>
<path d="M5419,1530 l423,0 l0,1611 l-423,0 z" fill="#fe00ff" stroke="black" stroke-width="5"/>
<path d="M6423,2260 l612,0 l0,1504 l-612,0 z" fill="#fe00ff" stroke="black" stroke-width="5"/>
<path d="M3559,572 l1349,0 l0,1844 l-1349,0 z" fill="#ff00fe" stroke="black" stroke-width="5"/>
<path d="M7320,9492 l868,0 l0,507 l-868,0 z" fill="#fe00ff" stroke="black" stroke-width="5"/>
<path d="M7114,42 l841,0 l0,697 l-841,0 z" fill="#ff00fe" stroke="black" stroke-width="5"/>
<path d="M8154,4805 l1802,0 l0,1002 l-1802,0 z" fill="#ff00fe" stroke="black" stroke-width="5"/>
<path d="M6879,8683 l414,0 l0,1228 l-414,0 z" fill="#fe00ff" stroke="black" stroke-width="5"/>
<path d="M7037,1586 l893,0 l0,1745 l-893,0 z" fill="#fe00ff" stroke="black" stroke-width="5"/>
<path d="M4,4579 l1485,0 l0,1218 l-1485,0 z" fill="#fe00ff" stroke="black" stroke-width="5"/>
<path d="M7145,3452 l53,0 l0,658 l-53,0 z" fill="#fe00ff" stroke="black" stroke-width="5"/>
<path d="M5149,1895 l208,0 l0,377 l-208,0 z" fill="#fe00ff" stroke="black" stroke-width="5"/>
<path d="M4914,577 l1104,0 l0,880 l-1104,0 z" fill="#ff00fe" stroke="black" stroke-width="5"/>
<path d="M2452,4950 l1658,0 l0,1129 l-1658,0 z" fill="#fe00ff" stroke="black" stroke-width="5"/>
<path d="M4636,2492 l32,0 l0,895 l-32,0 z" fill="#fe00ff" stroke="black" stroke-width="5"/>
<path d="M4835,7261 l2199,0 l0,1285 l-2199,0 z" fill="#f100ff" stroke="black" stroke-width="5"/>
<path d="M5,9505 l3536,0 l0,492 l-3536,0 z" fill="#ff00fe" stroke="black" stroke-width="5"/>
<path d="M8308,3562 l950,0 l0,352 l-950,0 z" fill="#fe00ff" stroke="black" stroke-width="5"/>
<path d="M8568,8710 l1095,0 l0,1011 l-1095,0 z" fill="#fe00ff" stroke="black" stroke-width="5"/>
<path d="M2998,1041 l506,0 l0,1324 l-506,0 z" fill="#ff00fe" stroke="black" stroke-width="5"/>
<path d="M6278,4117 l1373,0 l0,1528 l-1373,0 z" fill="#fe00ff" stroke="black" stroke-width="5"/>
<path d="M7047,7604 l2939,0 l0,593 l-2939,0 z" fill="#ff00fe" stroke="black" stroke-width="5"/>
<path d="M8150,3932 l1827,0 l0,872 l-1827,0 z" fill="#4800ff" stroke="black" stroke-width="5"/>
<path d="M2300,8760 l1324,0 l0,740 l-1324,0 z" fill="#ff00fe" stroke="black" stroke-width="5"/>
<path d="M7652,3522 l493,0 l0,1919 l-493,0 z" fill="#ff00fe" stroke="black" stroke-width="5"/>
<path d="M8027,11 l1887,0 l0,302 l-1887,0 z" fill="#ff00fe" stroke="black" stroke-width="5"/>
<path d="M6027,1106 l1858,0 l0,424 l-1858,0 z" fill="#ff00fe" stroke="black" stroke-width="5"/>
<path d="M140,2337 l2708,0 l0,348 l-2708,0 z" fill="#ff00fe" stroke="black" stroke-width="5"/>
<path d="M12,7591 l618,0 l0,1149 l-618,0 z" fill="#fe00ff" stroke="black" stroke-width="5"/>
<path d="M2037,3458 l2071,0 l0,1488 l-2071,0 z" fill="#e700ff" stroke="black" stroke-width="5"/>
<path d="M3627,7922 l1203,0 l0,2044 l-1203,0 z" fill="#ef00ff" stroke="black" stroke-width="5"/>
<path d="M5395,3144 l1010,0 l0,792 l-1010,0 z" fill="#8900ff" stroke="black" stroke-width="5"/>
<path d="M4127,3939 l2145,0 l0,1718 l-2145,0 z" fill="#a100ff" stroke="black" stroke-width="5"/>
<path d="M1773,6624 l3053,0 l0,1298 l-3053,0 z" fill="#ff00fe" stroke="black" stroke-width="5"/>
<path d="M7053,8200 l2946,0 l0,466 l-2946,0 z" fill="#4e00ff" stroke="black" stroke-width="5"/>
<path d="M158,3505 l1081,0 l0,235 l-1081,0 z" fill="#ff00fe" stroke="black" stroke-width="5"/>
<path d="M43,6777 l806,0 l0,804 l-806,0 z" fill="#ff00fe" stroke="black" stroke-width="5"/>
<path d="M7,3740 l2024,0 l0,838 l-2024,0 z" fill="#fc00ff" stroke="black" stroke-width="5"/>
<path d="M7998,6468 l1121,0 l0,1087 l-1121,0 z" fill="#fe00ff" stroke="black" stroke-width="5"/>
<path d="M4320,5659 l691,0 l0,956 l-691,0 z" fill="#ff00fe" stroke="black" stroke-width="5"/>
<path d="M1003,2712 l3624,0 l0,744 l-3624,0 z" fill="#ff00fe" stroke="black" stroke-width="5"/>
<path d="M4677,2421 l716,0 l0,1461 l-716,0 z" fill="#fe00ff" stroke="black" stroke-width="5"/>
<path d="M0,1052 l2983,0 l0,1281 l-2983,0 z" fill="#8d00ff" stroke="black" stroke-width="5"/>
<path d="M715,7923 l2912,0 l0,836 l-2912,0 z" fill="#3c00ff" stroke="black" stroke-width="5"/>
<path d="M4830,8556 l2048,0 l0,1439 l-2048,0 z" fill="#da00ff" stroke="black" stroke-width="5"/>
<path d="M7299,8667 l1263,0 l0,821 l-1263,0 z" fill="#3700ff" stroke="black" stroke-width="5"/>
<path d="M2230,8916 l68,0 l0,355 l-68,0 z" fill="#ff00fe" stroke="black" stroke-width="5"/>
<path d="M4312,6176 l1,0 l0,1 l-1,0 z" fill="#0000ff" stroke="black" stroke-width="5"/>
<path d="M1879,330 l60,0 l0,60 l-60,0 z" fill="green"/>
<path d="M1909,360 l-128.5,161.5" stroke="black" stroke-width="5"/>
<path d="M5780,7061 l60,0 l0,60 l-60,0 z" fill="green"/>
<path d="M5810,7091 l699,-640.5" stroke="black" stroke-width="5"/>
<path d="M5377,392 l60,0 l0,60 l-60,0 z" fill="green"/>
<path d="M5407,422 l-84.5,-136" stroke="black" stroke-width="5"/>
<path d="M5737,3110 l60,0 l0,60 l-60,0 z" fill="green"/>
<path d="M5767,3140 l-136.5,-804.5" stroke="black" stroke-width="5"/>
<path d="M6629,3204 l60,0 l0,60 l-60,0 z" fill="green"/>
<path d="M6659,3234 l70,-222" stroke="black" stroke-width="5"/>
<path d="M4176,1590 l60,0 l0,60 l-60,0 z" fill="green"/>
<path d="M4206,1620 l27.5,-126" stroke="black" stroke-width="5"/>
<path d="M7823,9462 l60,0 l0,60 l-60,0 z" fill="green"/>
<path d="M7853,9492 l-99,253.5" stroke="black" stroke-width="5"/>
<path d="M7845,402 l60,0 l0,60 l-60,0 z" fill="green"/>
<path d="M7875,432 l-340.5,-41.5" stroke="black" stroke-width="5"/>
<path d="M9018,5029 l60,0 l0,60 l-60,0 z" fill="green"/>
<path d="M9048,5059 l7,247" stroke="black" stroke-width="5"/>
<path d="M7262,9040 l60,0 l0,60 l-60,0 z" fill="green"/>
<path d="M7292,9070 l-206,227" stroke="black" stroke-width="5"/>
<path d="M7603,2466 l60,0 l0,60 l-60,0 z" fill="green"/>
<path d="M7633,2496 l-149.5,-37.5" stroke="black" stroke-width="5"/>
<path d="M391,4805 l60,0 l0,60 l-60,0 z" fill="green"/>
<path d="M421,4835 l325.5,353" stroke="black" stroke-width="5"/>
<path d="M7134,4079 l60,0 l0,60 l-60,0 z" fill="green"/>
<path d="M7164,4109 l7.5,-328" stroke="black" stroke-width="5"/>
<path d="M5326,2241 l60,0 l0,60 l-60,0 z" fill="green"/>
<path d="M5356,2271 l-103,-187.5" stroke="black" stroke-width="5"/>
<path d="M5231,547 l60,0 l0,60 l-60,0 z" fill="green"/>
<path d="M5261,577 l205,440" stroke="black" stroke-width="5"/>
<path d="M3516,5195 l60,0 l0,60 l-60,0 z" fill="green"/>
<path d="M3546,5225 l-265,289.5" stroke="black" stroke-width="5"/>
<path d="M4637,3356 l60,0 l0,60 l-60,0 z" fill="green"/>
<path d="M4667,3386 l-15,-446.5" stroke="black" stroke-width="5"/>
<path d="M5566,7866 l60,0 l0,60 l-60,0 z" fill="green"/>
<path d="M5596,7896 l338.5,7.5" stroke="black" stroke-width="5"/>
<path d="M2488,9783 l60,0 l0,60 l-60,0 z" fill="green"/>
<path d="M2518,9813 l-745,-62" stroke="black" stroke-width="5"/>
<path d="M8972,3883 l60,0 l0,60 l-60,0 z" fill="green"/>
<path d="M9002,3913 l-219,-175" stroke="black" stroke-width="5"/>
<path d="M8544,8917 l60,0 l0,60 l-60,0 z" fill="green"/>
<path d="M8574,8947 l541.5,268.5" stroke="black" stroke-width="5"/>
<path d="M3088,1743 l60,0 l0,60 l-60,0 z" fill="green"/>
<path d="M3118,1773 l133,-70" stroke="black" stroke-width="5"/>
<path d="M7110,4358 l60,0 l0,60 l-60,0 z" fill="green"/>
<path d="M7140,4388 l-175.5,493" stroke="black" stroke-width="5"/>
<path d="M8514,8166 l60,0 l0,60 l-60,0 z" fill="green"/>
<path d="M8544,8196 l-27.5,-295.5" stroke="black" stroke-width="5"/>
<path d="M8547,4307 l60,0 l0,60 l-60,0 z" fill="green"/>
<path d="M8577,4337 l486.5,31" stroke="black" stroke-width="5"/>
<path d="M3125,9138 l60,0 l0,60 l-60,0 z" fill="green"/>
<path d="M3155,9168 l-193,-38" stroke="black" stroke-width="5"/>
<path d="M7793,4374 l60,0 l0,60 l-60,0 z" fill="green"/>
<path d="M7823,4404 l75.5,77.5" stroke="black" stroke-width="5"/>
<path d="M9421,80 l60,0 l0,60 l-60,0 z" fill="green"/>
<path d="M9451,110 l-480.5,52" stroke="black" stroke-width="5"/>
<path d="M7001,1359 l60,0 l0,60 l-60,0 z" fill="green"/>
<path d="M7031,1389 l-75,-71" stroke="black" stroke-width="5"/>
<path d="M1811,2307 l60,0 l0,60 l-60,0 z" fill="green"/>
<path d="M1841,2337 l-347,174" stroke="black" stroke-width="5"/>
<path d="M46,8334 l60,0 l0,60 l-60,0 z" fill="green"/>
<path d="M76,8364 l245,-198.5" stroke="black" stroke-width="5"/>
<path d="M3513,3901 l60,0 l0,60 l-60,0 z" fill="green"/>
<path d="M3543,3931 l-470.5,271" stroke="black" stroke-width="5"/>
<path d="M3897,8798 l60,0 l0,60 l-60,0 z" fill="green"/>
<path d="M3927,8828 l301.5,116" stroke="black" stroke-width="5"/>
<path d="M5641,3275 l60,0 l0,60 l-60,0 z" fill="green"/>
<path d="M5671,3305 l229,235" stroke="black" stroke-width="5"/>
<path d="M5512,4557 l60,0 l0,60 l-60,0 z" fill="green"/>
<path d="M5542,4587 l-342.5,211" stroke="black" stroke-width="5"/>
<path d="M4000,7702 l60,0 l0,60 l-60,0 z" fill="green"/>
<path d="M4030,7732 l-730.5,-459" stroke="black" stroke-width="5"/>
<path d="M8545,8170 l60,0 l0,60 l-60,0 z" fill="green"/>
<path d="M8575,8200 l-49,233" stroke="black" stroke-width="5"/>
<path d="M1109,3709 l60,0 l0,60 l-60,0 z" fill="green"/>
<path d="M1139,3739 l-440.5,-116.5" stroke="black" stroke-width="5"/>
<path d="M20,7385 l60,0 l0,60 l-60,0 z" fill="green"/>
<path d="M50,7415 l396,-236" stroke="black" stroke-width="5"/>
<path d="M904,4026 l60,0 l0,60 l-60,0 z" fill="green"/>
<path d="M934,4056 l85,103" stroke="black" stroke-width="5"/>
<path d="M8771,7148 l60,0 l0,60 l-60,0 z" fill="green"/>
<path d="M8801,7178 l-242.5,-166.5" stroke="black" stroke-width="5"/>
<path d="M4469,6177 l60,0 l0,60 l-60,0 z" fill="green"/>
<path d="M4499,6207 l166.5,-70" stroke="black" stroke-width="5"/>
<path d="M3066,3345 l60,0 l0,60 l-60,0 z" fill="green"/>
<path d="M3096,3375 l-281,-291" stroke="black" stroke-width="5"/>
<path d="M5222,3251 l60,0 l0,60 l-60,0 z" fill="green"/>
<path d="M5252,3281 l-217,-129.5" stroke="black" stroke-width="5"/>
<path d="M2217,1416 l60,0 l0,60 l-60,0 z" fill="green"/>
<path d="M2247,1446 l-755.5,246.5" stroke="black" stroke-width="5"/>
<path d="M3317,8471 l60,0 l0,60 l-60,0 z" fill="green"/>
<path d="M3347,8501 l-1176,-160" stroke="black" stroke-width="5"/>
<path d="M5761,8570 l60,0 l0,60 l-60,0 z" fill="green"/>
<path d="M5791,8600 l63,675.5" stroke="black" stroke-width="5"/>
<path d="M8003,8962 l60,0 l0,60 l-60,0 z" fill="green"/>
<path d="M8033,8992 l-102.5,85.5" stroke="black" stroke-width="5"/>
<path d="M2267,9224 l60,0 l0,60 l-60,0 z" fill="green"/>
<path d="M2297,9254 l-33,-160.5" stroke="black" stroke-width="5"/>
<path d="M4282,6146 l60,0 l0,60 l-60,0 z" fill="green"/>
<path d="M4312,6176 l0.5,0.5" stroke="black" stroke-width="5"/>
<text font-size="200" text-anchor="middle" x="1780.5" y="591.5">
0
</text>
<text font-size="200" text-anchor="middle" x="6509" y="6520.5">
1
</text>
<text font-size="200" text-anchor="middle" x="5322.5" y="356">
2
</text>
<text font-size="200" text-anchor="middle" x="5630.5" y="2405.5">
3
</text>
<text font-size="200" text-anchor="middle" x="6729" y="3082">
4
</text>
<text font-size="200" text-anchor="middle" x="4233.5" y="1564">
5
</text>
<text font-size="200" text-anchor="middle" x="7754" y="9815.5">
6
</text>
<text font-size="200" text-anchor="middle" x="7534.5" y="460.5">
7
</text>
<text font-size="200" text-anchor="middle" x="9055" y="5376">
8
</text>
<text font-size="200" text-anchor="middle" x="7086" y="9367">
9
</text>
<text font-size="200" text-anchor="middle" x="7483.5" y="2528.5">
10
</text>
<text font-size="200" text-anchor="middle" x="746.5" y="5258">
11
</text>
<text font-size="200" text-anchor="middle" x="7171.5" y="3851">
12
</text>
<text font-size="200" text-anchor="middle" x="5253" y="2153.5">
13
</text>
<text font-size="200" text-anchor="middle" x="5466" y="1087">
14
</text>
<text font-size="200" text-anchor="middle" x="3281" y="5584.5">
15
</text>
<text font-size="200" text-anchor="middle" x="4652" y="3009.5">
16
</text>
<text font-size="200" text-anchor="middle" x="5934.5" y="7973.5">
17
</text>
<text font-size="200" text-anchor="middle" x="1773" y="9821">
18
</text>
<text font-size="200" text-anchor="middle" x="8783" y="3808">
19
</text>
<text font-size="200" text-anchor="middle" x="9115.5" y="9285.5">
20
</text>
<text font-size="200" text-anchor="middle" x="3251" y="1773">
21
</text>
<text font-size="200" text-anchor="middle" x="6964.5" y="4951">
22
</text>
<text font-size="200" text-anchor="middle" x="8516.5" y="7970.5">
23
</text>
<text font-size="200" text-anchor="middle" x="9063.5" y="4438">
24
</text>
<text font-size="200" text-anchor="middle" x="2962" y="9200">
25
</text>
<text font-size="200" text-anchor="middle" x="7898.5" y="4551.5">
26
</text>
<text font-size="200" text-anchor="middle" x="8970.5" y="232">
27
</text>
<text font-size="200" text-anchor="middle" x="6956" y="1388">
28
</text>
<text font-size="200" text-anchor="middle" x="1494" y="2581">
29
</text>
<text font-size="200" text-anchor="middle" x="321" y="8235.5">
30
</text>
<text font-size="200" text-anchor="middle" x="3072.5" y="4272">
31
</text>
<text font-size="200" text-anchor="middle" x="4228.5" y="9014">
32
</text>
<text font-size="200" text-anchor="middle" x="5900" y="3610">
33
</text>
<text font-size="200" text-anchor="middle" x="5199.5" y="4868">
34
</text>
<text font-size="200" text-anchor="middle" x="3299.5" y="7343">
35
</text>
<text font-size="200" text-anchor="middle" x="8526" y="8503">
36
</text>
<text font-size="200" text-anchor="middle" x="698.5" y="3692.5">
37
</text>
<text font-size="200" text-anchor="middle" x="446" y="7249">
38
</text>
<text font-size="200" text-anchor="middle" x="1019" y="4229">
39
</text>
<text font-size="200" text-anchor="middle" x="8558.5" y="7081.5">
40
</text>
<text font-size="200" text-anchor="middle" x="4665.5" y="6207">
41
</text>
<text font-size="200" text-anchor="middle" x="2815" y="3154">
42
</text>
<text font-size="200" text-anchor="middle" x="5035" y="3221.5">
43
</text>
<text font-size="200" text-anchor="middle" x="1491.5" y="1762.5">
44
</text>
<text font-size="200" text-anchor="middle" x="2171" y="8411">
45
</text>
<text font-size="200" text-anchor="middle" x="5854" y="9345.5">
46
</text>
<text font-size="200" text-anchor="middle" x="7930.5" y="9147.5">
47
</text>
<text font-size="200" text-anchor="middle" x="2264" y="9163.5">
48
</text>
<text font-size="200" text-anchor="middle" x="4312.5" y="6246.5">
49
</text>
</svg>