<svg viewBox="-100 -100 10200 10200" xmlns="http://www.w3.org/2000/svg">
<path d="M0,0 l10000,0 l0,10000 l-10000,0 z" fill="white"/>
<path d="M10,11 l3546,0 l0,1024 l-3546,0 z" fill="#9700ff" stroke="black" stroke-width="5"/>
<path d="M5017,5661 l3011,0 l0,1548 l-3011,0 z" fill="#fe00ff" stroke="black" stroke-width="5"/>
<path d="M3561,9 l3584,0 l0,561 l-3584,0 z" fill="#ff00fe" stroke="black" stroke-width="5"/>
<path d="M5426,1474 l407,0 l0,1674 l-407,0 z" fill="#fe00ff" stroke="black" stroke-width="5"/>
<path d="M6449,2285 l628,0 l0,1466 l-628,0 z" fill="#ff00fe" stroke="black" stroke-width="5"/>
<path d="M3559,572 l1349,0 l0,1844 l-1349,0 z" fill="#ff00fe" stroke="black" stroke-width="5"/>
<path d="M7338,9492 l900,0 l0,489 l-900,0 z" fill="#fe00ff" stroke="black" stroke-width="5"/>
<path d="M7169,23 l800,0 l0,733 l-800,0 z" fill="#ff00fe" stroke="black" stroke-width="5"/>
<path d="M8154,4805 l1802,0 l0,1002 l-1802,0 z" fill="#ff00fe" stroke="black" stroke-width="5"/>
<path d="M6862,8740 l432,0 l0,1179 l-432,0 z" fill="#ff00fe" stroke="black" stroke-width="5"/>
<path d="M7098,1595 l883,0 l0,1765 l-883,0 z" fill="#ff00fe" stroke="black" stroke-width="5"/>
<path d="M8,4633 l1496,0 l0,1209 l-1496,0 z" fill="#fe00ff" stroke="black" stroke-width="5"/>
<path d="M7153,3473 l57,0 l0,637 l-57,0 z" fill="#ff00fe" stroke="black" stroke-width="5"/>
<path d="M5292,1694 l128,0 l0,611 l-128,0 z" fill="#fe00ff" stroke="black" stroke-width="5"/>
<path d="M4914,577 l1104,0 l0,880 l-1104,0 z" fill="#ff00fe" stroke="black" stroke-width="5"/>
<path d="M2452,4950 l1658,0 l0,1129 l-1658,0 z" fill="#fe00ff" stroke="black" stroke-width="5"/>
<path d="M4662,2449 l30,0 l0,949 l-30,0 z" fill="#fe00ff" stroke="black" stroke-width="5"/>
<path d="M4828,7210 l2174,0 l0,1382 l-2174,0 z" fill="#f900ff" stroke="black" stroke-width="5"/>
<path d="M57,9504 l3506,0 l0,496 l-3506,0 z" fill="#fe00ff" stroke="black" stroke-width="5"/>
<path d="M8266,3601 l1067,0 l0,313 l-1067,0 z" fill="#fe00ff" stroke="black" stroke-width="5"/>
<path d="M8568,8710 l1095,0 l0,1011 l-1095,0 z" fill="#fe00ff" stroke="black" stroke-width="5"/>
<path d="M3036,1037 l509,0 l0,1315 l-509,0 z" fill="#fe00ff" stroke="black" stroke-width="5"/>
<path d="M6278,4117 l1373,0 l0,1528 l-1373,0 z" fill="#fe00ff" stroke="black" stroke-width="5"/>
<path d="M7018,7601 l2925,0 l0,596 l-2925,0 z" fill="#ff00fe" stroke="black" stroke-width="5"/>
<path d="M8147,3915 l1799,0 l0,887 l-1799,0 z" fill="#4900ff" stroke="black" stroke-width="5"/>
<path d="M2299,8759 l1327,0 l0,737 l-1327,0 z" fill="#ff00fe" stroke="black" stroke-width="5"/>
<path d="M7670,3411 l469,0 l0,2018 l-469,0 z" fill="#ff00fe" stroke="black" stroke-width="5"/>
<path d="M8222,65 l1719,0 l0,332 l-1719,0 z" fill="#ff00fe" stroke="black" stroke-width="5"/>
<path d="M6078,1099 l1871,0 l0,421 l-1871,0 z" fill="#fe00ff" stroke="black" stroke-width="5"/>
<path d="M91,2337 l2747,0 l0,343 l-2747,0 z" fill="#fe00ff" stroke="black" stroke-width="5"/>
<path d="M4,7597 l594,0 l0,1197 l-594,0 z" fill="#ff00fe" stroke="black" stroke-width="5"/>
<path d="M1997,3461 l2145,0 l0,1488 l-2145,0 z" fill="#ed00ff" stroke="black" stroke-width="5"/>
<path d="M3630,7947 l1193,0 l0,2053 l-1193,0 z" fill="#ee00ff" stroke="black" stroke-width="5"/>
<path d="M5411,3154 l1032,0 l0,747 l-1032,0 z" fill="#8100ff" stroke="black" stroke-width="5"/>
<path d="M4175,3906 l2101,0 l0,1748 l-2101,0 z" fill="#a000ff" stroke="black" stroke-width="5"/>
<path d="M1773,6624 l3053,0 l0,1298 l-3053,0 z" fill="#ff00fe" stroke="black" stroke-width="5"/>
<path d="M7005,8198 l2983,0 l0,512 l-2983,0 z" fill="#5e00ff" stroke="black" stroke-width="5"/>
<path d="M197,3484 l992,0 l0,256 l-992,0 z" fill="#fe00ff" stroke="black" stroke-width="5"/>
<path d="M2,6695 l789,0 l0,821 l-789,0 z" fill="#ff00fe" stroke="black" stroke-width="5"/>
<path d="M1,3744 l1992,0 l0,885 l-1992,0 z" fill="#fe00ff" stroke="black" stroke-width="5"/>
<path d="M8071,6423 l1116,0 l0,1092 l-1116,0 z" fill="#ff00fe" stroke="black" stroke-width="5"/>
<path d="M4320,5659 l691,0 l0,956 l-691,0 z" fill="#ff00fe" stroke="black" stroke-width="5"/>
<path d="M1003,2712 l3624,0 l0,744 l-3624,0 z" fill="#ff00fe" stroke="black" stroke-width="5"/>
<path d="M4701,2420 l704,0 l0,1483 l-704,0 z" fill="#fe00ff" stroke="black" stroke-width="5"/>
<path d="M12,1038 l3006,0 l0,1297 l-3006,0 z" fill="#9100ff" stroke="black" stroke-width="5"/>
<path d="M624,7932 l2990,0 l0,827 l-2990,0 z" fill="#3d00ff" stroke="black" stroke-width="5"/>
<path d="M4825,8600 l2034,0 l0,1400 l-2034,0 z" fill="#d300ff" stroke="black" stroke-width="5"/>
<path d="M7301,8716 l1266,0 l0,774 l-1266,0 z" fill="#3100ff" stroke="black" stroke-width="5"/>
<path d="M2239,8899 l59,0 l0,401 l-59,0 z" fill="#fe00ff" stroke="black" stroke-width="5"/>
<path d="M4312,6176 l1,0 l0,1 l-1,0 z" fill="#0000ff" stroke="black" stroke-width="5"/>
<path d="M1879,330 l60,0 l0,60 l-60,0 z" fill="green"/>
<path d="M1909,360 l-126,163" stroke="black" stroke-width="5"/>
<path d="M5780,7061 l60,0 l0,60 l-60,0 z" fill="green"/>
<path d="M5810,7091 l712.5,-656" stroke="black" stroke-width="5"/>
<path d="M5377,392 l60,0 l0,60 l-60,0 z" fill="green"/>
<path d="M5407,422 l-54,-132.5" stroke="black" stroke-width="5"/>
<path d="M5737,3110 l60,0 l0,60 l-60,0 z" fill="green"/>
<path d="M5767,3140 l-137.5,-829" stroke="black" stroke-width="5"/>
<path d="M6629,3204 l60,0 l0,60 l-60,0 z" fill="green"/>
<path d="M6659,3234 l104,-216" stroke="black" stroke-width="5"/>
<path d="M4176,1590 l60,0 l0,60 l-60,0 z" fill="green"/>
<path d="M4206,1620 l27.5,-126" stroke="black" stroke-width="5"/>
<path d="M7823,9462 l60,0 l0,60 l-60,0 z" fill="green"/>
<path d="M7853,9492 l-65,244.5" stroke="black" stroke-width="5"/>
<path d="M7845,402 l60,0 l0,60 l-60,0 z" fill="green"/>
<path d="M7875,432 l-306,-42.5" stroke="black" stroke-width="5"/>
<path d="M9018,5029 l60,0 l0,60 l-60,0 z" fill="green"/>
<path d="M9048,5059 l7,247" stroke="black" stroke-width="5"/>
<path d="M7262,9040 l60,0 l0,60 l-60,0 z" fill="green"/>
<path d="M7292,9070 l-214,259.5" stroke="black" stroke-width="5"/>
<path d="M7603,2466 l60,0 l0,60 l-60,0 z" fill="green"/>
<path d="M7633,2496 l-93.5,-18.5" stroke="black" stroke-width="5"/>
<path d="M391,4805 l60,0 l0,60 l-60,0 z" fill="green"/>
<path d="M421,4835 l335,402.5" stroke="black" stroke-width="5"/>
<path d="M7134,4079 l60,0 l0,60 l-60,0 z" fill="green"/>
<path d="M7164,4109 l17.5,-317.5" stroke="black" stroke-width="5"/>
<path d="M5326,2241 l60,0 l0,60 l-60,0 z" fill="green"/>
<path d="M5356,2271 l0,-271.5" stroke="black" stroke-width="5"/>
<path d="M5231,547 l60,0 l0,60 l-60,0 z" fill="green"/>
<path d="M5261,577 l205,440" stroke="black" stroke-width="5"/>
<path d="M3516,5195 l60,0 l0,60 l-60,0 z" fill="green"/>
<path d="M3546,5225 l-265,289.5" stroke="black" stroke-width="5"/>
<path d="M4637,3356 l60,0 l0,60 l-60,0 z" fill="green"/>
<path d="M4667,3386 l10,-462.5" stroke="black" stroke-width="5"/>
<path d="M5566,7866 l60,0 l0,60 l-60,0 z" fill="green"/>
<path d="M5596,7896 l319,5" stroke="black" stroke-width="5"/>
<path d="M2488,9783 l60,0 l0,60 l-60,0 z" fill="green"/>
<path d="M2518,9813 l-708,-61" stroke="black" stroke-width="5"/>
<path d="M8972,3883 l60,0 l0,60 l-60,0 z" fill="green"/>
<path d="M9002,3913 l-202.5,-155.5" stroke="black" stroke-width="5"/>
<path d="M8544,8917 l60,0 l0,60 l-60,0 z" fill="green"/>
<path d="M8574,8947 l541.5,268.5" stroke="black" stroke-width="5"/>
<path d="M3088,1743 l60,0 l0,60 l-60,0 z" fill="green"/>
<path d="M3118,1773 l172.5,-78.5" stroke="black" stroke-width="5"/>
<path d="M7110,4358 l60,0 l0,60 l-60,0 z" fill="green"/>
<path d="M7140,4388 l-175.5,493" stroke="black" stroke-width="5"/>
<path d="M8514,8166 l60,0 l0,60 l-60,0 z" fill="green"/>
<path d="M8544,8196 l-63.5,-297" stroke="black" stroke-width="5"/>
<path d="M8547,4307 l60,0 l0,60 l-60,0 z" fill="green"/>
<path d="M8577,4337 l469.5,21.5" stroke="black" stroke-width="5"/>
<path d="M3125,9138 l60,0 l0,60 l-60,0 z" fill="green"/>
<path d="M3155,9168 l-192.5,-40.5" stroke="black" stroke-width="5"/>
<path d="M7793,4374 l60,0 l0,60 l-60,0 z" fill="green"/>
<path d="M7823,4404 l81.5,16" stroke="black" stroke-width="5"/>
<path d="M9421,80 l60,0 l0,60 l-60,0 z" fill="green"/>
<path d="M9451,110 l-369.5,121" stroke="black" stroke-width="5"/>
<path d="M7001,1359 l60,0 l0,60 l-60,0 z" fill="green"/>
<path d="M7031,1389 l-17.5,-79.5" stroke="black" stroke-width="5"/>
<path d="M1811,2307 l60,0 l0,60 l-60,0 z" fill="green"/>
<path d="M1841,2337 l-376.5,171.5" stroke="black" stroke-width="5"/>
<path d="M46,8334 l60,0 l0,60 l-60,0 z" fill="green"/>
<path d="M76,8364 l225,-168.5" stroke="black" stroke-width="5"/>
<path d="M3513,3901 l60,0 l0,60 l-60,0 z" fill="green"/>
<path d="M3543,3931 l-473.5,274" stroke="black" stroke-width="5"/>
<path d="M3897,8798 l60,0 l0,60 l-60,0 z" fill="green"/>
<path d="M3927,8828 l299.5,145.5" stroke="black" stroke-width="5"/>
<path d="M5641,3275 l60,0 l0,60 l-60,0 z" fill="green"/>
<path d="M5671,3305 l256,222.5" stroke="black" stroke-width="5"/>
<path d="M5512,4557 l60,0 l0,60 l-60,0 z" fill="green"/>
<path d="M5542,4587 l-316.5,193" stroke="black" stroke-width="5"/>
<path d="M4000,7702 l60,0 l0,60 l-60,0 z" fill="green"/>
<path d="M4030,7732 l-730.5,-459" stroke="black" stroke-width="5"/>
<path d="M8545,8170 l60,0 l0,60 l-60,0 z" fill="green"/>
<path d="M8575,8200 l-78.5,254" stroke="black" stroke-width="5"/>
<path d="M1109,3709 l60,0 l0,60 l-60,0 z" fill="green"/>
<path d="M1139,3739 l-446,-127" stroke="black" stroke-width="5"/>
<path d="M20,7385 l60,0 l0,60 l-60,0 z" fill="green"/>
<path d="M50,7415 l346.5,-309.5" stroke="black" stroke-width="5"/>
<path d="M904,4026 l60,0 l0,60 l-60,0 z" fill="green"/>
<path d="M934,4056 l63,130.5" stroke="black" stroke-width="5"/>
<path d="M8771,7148 l60,0 l0,60 l-60,0 z" fill="green"/>
<path d="M8801,7178 l-172,-209" stroke="black" stroke-width="5"/>
<path d="M4469,6177 l60,0 l0,60 l-60,0 z" fill="green"/>
<path d="M4499,6207 l166.5,-70" stroke="black" stroke-width="5"/>
<path d="M3066,3345 l60,0 l0,60 l-60,0 z" fill="green"/>
<path d="M3096,3375 l-281,-291" stroke="black" stroke-width="5"/>
<path d="M5222,3251 l60,0 l0,60 l-60,0 z" fill="green"/>
<path d="M5252,3281 l-199,-119.5" stroke="black" stroke-width="5"/>
<path d="M2217,1416 l60,0 l0,60 l-60,0 z" fill="green"/>
<path d="M2247,1446 l-732,240.5" stroke="black" stroke-width="5"/>
<path d="M3317,8471 l60,0 l0,60 l-60,0 z" fill="green"/>
<path d="M3347,8501 l-1228,-155.5" stroke="black" stroke-width="5"/>
<path d="M5761,8570 l60,0 l0,60 l-60,0 z" fill="green"/>
<path d="M5791,8600 l51,700" stroke="black" stroke-width="5"/>
<path d="M8003,8962 l60,0 l0,60 l-60,0 z" fill="green"/>
<path d="M8033,8992 l-99,111" stroke="black" stroke-width="5"/>
<path d="M2267,9224 l60,0 l0,60 l-60,0 z" fill="green"/>
<path d="M2297,9254 l-28.5,-154.5" stroke="black" stroke-width="5"/>
<path d="M4282,6146 l60,0 l0,60 l-60,0 z" fill="green"/>
<path d="M4312,6176 l0.5,0.5" stroke="black" stroke-width="5"/>
<text font-size="200" text-anchor="middle" x="1783" y="593">
0
</text>
<text font-size="200" text-anchor="middle" x="6522.5" y="6505">
1
</text>
<text font-size="200" text-anchor="middle" x="5353" y="359.5">
2
</text>
<text font-size="200" text-anchor="middle" x="5629.5" y="2381">
3
</text>
<text font-size="200" text-anchor="middle" x="6763" y="3088">
4
</text>
<text font-size="200" text-anchor="middle" x="4233.5" y="1564">
5
</text>
<text font-size="200" text-anchor="middle" x="7788" y="9806.5">
6
</text>
<text font-size="200" text-anchor="middle" x="7569" y="459.5">
7
</text>
<text font-size="200" text-anchor="middle" x="9055" y="5376">
8
</text>
<text font-size="200" text-anchor="middle" x="7078" y="9399.5">
9
</text>
<text font-size="200" text-anchor="middle" x="7539.5" y="2547.5">
10
</text>
<text font-size="200" text-anchor="middle" x="756" y="5307.5">
11
</text>
<text font-size="200" text-anchor="middle" x="7181.5" y="3861.5">
12
</text>
<text font-size="200" text-anchor="middle" x="5356" y="2069.5">
13
</text>
<text font-size="200" text-anchor="middle" x="5466" y="1087">
14
</text>
<text font-size="200" text-anchor="middle" x="3281" y="5584.5">
15
</text>
<text font-size="200" text-anchor="middle" x="4677" y="2993.5">
16
</text>
<text font-size="200" text-anchor="middle" x="5915" y="7971">
17
</text>
<text font-size="200" text-anchor="middle" x="1810" y="9822">
18
</text>
<text font-size="200" text-anchor="middle" x="8799.5" y="3827.5">
19
</text>
<text font-size="200" text-anchor="middle" x="9115.5" y="9285.5">
20
</text>
<text font-size="200" text-anchor="middle" x="3290.5" y="1764.5">
21
</text>
<text font-size="200" text-anchor="middle" x="6964.5" y="4951">
22
</text>
<text font-size="200" text-anchor="middle" x="8480.5" y="7969">
23
</text>
<text font-size="200" text-anchor="middle" x="9046.5" y="4428.5">
24
</text>
<text font-size="200" text-anchor="middle" x="2962.5" y="9197.5">
25
</text>
<text font-size="200" text-anchor="middle" x="7904.5" y="4490">
26
</text>
<text font-size="200" text-anchor="middle" x="9081.5" y="301">
27
</text>
<text font-size="200" text-anchor="middle" x="7013.5" y="1379.5">
28
</text>
<text font-size="200" text-anchor="middle" x="1464.5" y="2578.5">
29
</text>
<text font-size="200" text-anchor="middle" x="301" y="8265.5">
30
</text>
<text font-size="200" text-anchor="middle" x="3069.5" y="4275">
31
</text>
<text font-size="200" text-anchor="middle" x="4226.5" y="9043.5">
32
</text>
<text font-size="200" text-anchor="middle" x="5927" y="3597.5">
33
</text>
<text font-size="200" text-anchor="middle" x="5225.5" y="4850">
34
</text>
<text font-size="200" text-anchor="middle" x="3299.5" y="7343">
35
</text>
<text font-size="200" text-anchor="middle" x="8496.5" y="8524">
36
</text>
<text font-size="200" text-anchor="middle" x="693" y="3682">
37
</text>
<text font-size="200" text-anchor="middle" x="396.5" y="7175.5">
38
</text>
<text font-size="200" text-anchor="middle" x="997" y="4256.5">
39
</text>
<text font-size="200" text-anchor="middle" x="8629" y="7039">
40
</text>
<text font-size="200" text-anchor="middle" x="4665.5" y="6207">
41
</text>
<text font-size="200" text-anchor="middle" x="2815" y="3154">
42
</text>
<text font-size="200" text-anchor="middle" x="5053" y="3231.5">
43
</text>
<text font-size="200" text-anchor="middle" x="1515" y="1756.5">
44
</text>
<text font-size="200" text-anchor="middle" x="2119" y="8415.5">
45
</text>
<text font-size="200" text-anchor="middle" x="5842" y="9370">
46
</text>
<text font-size="200" text-anchor="middle" x="7934" y="9173">
47
</text>
<text font-size="200" text-anchor="middle" x="2268.5" y="9169.5">
48
</text>
<text font-size="200" text-anchor="middle" x="4312.5" y="6246.5">
49
</text>
</svg>