<svg viewBox="-100 -100 10200 10200" xmlns="http://www.w3.org/2000/svg">
<path d="M0,0 l10000,0 l0,10000 l-10000,0 z" fill="white"/>
<path d="M0,0 l3533,0 l0,953 l-3533,0 z" fill="#8700ff" stroke="black" stroke-width="5"/>
<path d="M5042,5646 l2906,0 l0,1604 l-2906,0 z" fill="#fe00ff" stroke="black" stroke-width="5"/>
<path d="M3535,2 l3539,0 l0,568 l-3539,0 z" fill="#ff00fe" stroke="black" stroke-width="5"/>
<path d="M5424,1985 l590,0 l0,1156 l-590,0 z" fill="#ff00fe" stroke="black" stroke-width="5"/>
<path d="M6142,2706 l908,0 l0,1014 l-908,0 z" fill="#ff00fe" stroke="black" stroke-width="5"/>
<path d="M3539,603 l1343,0 l0,1852 l-1343,0 z" fill="#fe00ff" stroke="black" stroke-width="5"/>
<path d="M7352,9492 l893,0 l0,493 l-893,0 z" fill="#ff00fe" stroke="black" stroke-width="5"/>
<path d="M7075,5 l1163,0 l0,504 l-1163,0 z" fill="#fe00ff" stroke="black" stroke-width="5"/>
<path d="M8184,4692 l1675,0 l0,1078 l-1675,0 z" fill="#ff00fe" stroke="black" stroke-width="5"/>
<path d="M6763,8627 l657,0 l0,775 l-657,0 z" fill="#fe00ff" stroke="black" stroke-width="5"/>
<path d="M7089,1717 l1055,0 l0,1477 l-1055,0 z" fill="#fe00ff" stroke="black" stroke-width="5"/>
<path d="M5,4518 l1467,0 l0,1233 l-1467,0 z" fill="#ff00fe" stroke="black" stroke-width="5"/>
<path d="M7127,3931 l196,0 l0,179 l-196,0 z" fill="#ff00fe" stroke="black" stroke-width="5"/>
<path d="M4928,2148 l444,0 l0,176 l-444,0 z" fill="#fe00ff" stroke="black" stroke-width="5"/>
<path d="M4888,577 l1089,0 l0,892 l-1089,0 z" fill="#fe00ff" stroke="black" stroke-width="5"/>
<path d="M2654,4665 l1475,0 l0,1269 l-1475,0 z" fill="#fe00ff" stroke="black" stroke-width="5"/>
<path d="M4584,3111 l84,0 l0,343 l-84,0 z" fill="#ff00fe" stroke="black" stroke-width="5"/>
<path d="M4853,7258 l2163,0 l0,1169 l-2163,0 z" fill="#dd00ff" stroke="black" stroke-width="5"/>
<path d="M71,9500 l3528,0 l0,493 l-3528,0 z" fill="#ff00fe" stroke="black" stroke-width="5"/>
<path d="M8749,3427 l687,0 l0,487 l-687,0 z" fill="#fe00ff" stroke="black" stroke-width="5"/>
<path d="M8406,8627 l1076,0 l0,1029 l-1076,0 z" fill="#ff00fe" stroke="black" stroke-width="5"/>
<path d="M2783,1164 l732,0 l0,915 l-732,0 z" fill="#fe00ff" stroke="black" stroke-width="5"/>
<path d="M6428,4112 l1023,0 l0,1525 l-1023,0 z" fill="#d700ff" stroke="black" stroke-width="5"/>
<path d="M7051,7599 l2914,0 l0,598 l-2914,0 z" fill="#ff00fe" stroke="black" stroke-width="5"/>
<path d="M8084,3914 l1902,0 l0,778 l-1902,0 z" fill="#3f00ff" stroke="black" stroke-width="5"/>
<path d="M2316,8752 l1292,0 l0,746 l-1292,0 z" fill="#fe00ff" stroke="black" stroke-width="5"/>
<path d="M7452,3661 l631,0 l0,1499 l-631,0 z" fill="#ff00fe" stroke="black" stroke-width="5"/>
<path d="M8563,110 l1344,0 l0,424 l-1344,0 z" fill="#ff00fe" stroke="black" stroke-width="5"/>
<path d="M6364,929 l1056,0 l0,746 l-1056,0 z" fill="#ff00fe" stroke="black" stroke-width="5"/>
<path d="M691,2169 l1668,0 l0,565 l-1668,0 z" fill="#ff00fe" stroke="black" stroke-width="5"/>
<path d="M3,7765 l668,0 l0,1063 l-668,0 z" fill="#fe00ff" stroke="black" stroke-width="5"/>
<path d="M1906,3600 l2226,0 l0,1060 l-2226,0 z" fill="#ac00ff" stroke="black" stroke-width="5"/>
<path d="M3612,7975 l1180,0 l0,2015 l-1180,0 z" fill="#e900ff" stroke="black" stroke-width="5"/>
<path d="M5424,3148 l717,0 l0,747 l-717,0 z" fill="#4500ff" stroke="black" stroke-width="5"/>
<path d="M4134,3895 l2290,0 l0,1751 l-2290,0 z" fill="#b500ff" stroke="black" stroke-width="5"/>
<path d="M1889,6635 l2964,0 l0,1337 l-2964,0 z" fill="#ff00fe" stroke="black" stroke-width="5"/>
<path d="M7016,8200 l2984,0 l0,427 l-2984,0 z" fill="#4400ff" stroke="black" stroke-width="5"/>
<path d="M451,3428 l814,0 l0,312 l-814,0 z" fill="#fe00ff" stroke="black" stroke-width="5"/>
<path d="M9,6896 l789,0 l0,821 l-789,0 z" fill="#ff00fe" stroke="black" stroke-width="5"/>
<path d="M5,3744 l1899,0 l0,769 l-1899,0 z" fill="#e900ff" stroke="black" stroke-width="5"/>
<path d="M7962,6529 l1197,0 l0,1018 l-1197,0 z" fill="#fe00ff" stroke="black" stroke-width="5"/>
<path d="M4329,5695 l708,0 l0,933 l-708,0 z" fill="#ff00fe" stroke="black" stroke-width="5"/>
<path d="M1373,2741 l3146,0 l0,857 l-3146,0 z" fill="#ff00fe" stroke="black" stroke-width="5"/>
<path d="M4676,2464 l742,0 l0,1410 l-742,0 z" fill="#ff00fe" stroke="black" stroke-width="5"/>
<path d="M2,957 l2777,0 l0,1211 l-2777,0 z" fill="#7300ff" stroke="black" stroke-width="5"/>
<path d="M673,7973 l2936,0 l0,777 l-2936,0 z" fill="#3500ff" stroke="black" stroke-width="5"/>
<path d="M4793,8427 l1968,0 l0,1568 l-1968,0 z" fill="#e400ff" stroke="black" stroke-width="5"/>
<path d="M7424,8628 l980,0 l0,860 l-980,0 z" fill="#2500ff" stroke="black" stroke-width="5"/>
<path d="M2129,9254 l169,0 l0,141 l-169,0 z" fill="#fe00ff" stroke="black" stroke-width="5"/>
<path d="M4312,6176 l1,0 l0,1 l-1,0 z" fill="#0000ff" stroke="black" stroke-width="5"/>
<path d="M1879,330 l60,0 l0,60 l-60,0 z" fill="green"/>
<path d="M1909,360 l-142.5,116.5" stroke="black" stroke-width="5"/>
<path d="M5780,7061 l60,0 l0,60 l-60,0 z" fill="green"/>
<path d="M5810,7091 l685,-643" stroke="black" stroke-width="5"/>
<path d="M5377,392 l60,0 l0,60 l-60,0 z" fill="green"/>
<path d="M5407,422 l-102.5,-136" stroke="black" stroke-width="5"/>
<path d="M5737,3110 l60,0 l0,60 l-60,0 z" fill="green"/>
<path d="M5767,3140 l-48,-577" stroke="black" stroke-width="5"/>
<path d="M6629,3204 l60,0 l0,60 l-60,0 z" fill="green"/>
<path d="M6659,3234 l-63,-21" stroke="black" stroke-width="5"/>
<path d="M4176,1590 l60,0 l0,60 l-60,0 z" fill="green"/>
<path d="M4206,1620 l4.5,-91" stroke="black" stroke-width="5"/>
<path d="M7823,9462 l60,0 l0,60 l-60,0 z" fill="green"/>
<path d="M7853,9492 l-54.5,246.5" stroke="black" stroke-width="5"/>
<path d="M7845,402 l60,0 l0,60 l-60,0 z" fill="green"/>
<path d="M7875,432 l-218.5,-175" stroke="black" stroke-width="5"/>
<path d="M9018,5029 l60,0 l0,60 l-60,0 z" fill="green"/>
<path d="M9048,5059 l-26.5,172" stroke="black" stroke-width="5"/>
<path d="M7262,9040 l60,0 l0,60 l-60,0 z" fill="green"/>
<path d="M7292,9070 l-200.5,-55.5" stroke="black" stroke-width="5"/>
<path d="M7603,2466 l60,0 l0,60 l-60,0 z" fill="green"/>
<path d="M7633,2496 l-16.5,-40.5" stroke="black" stroke-width="5"/>
<path d="M391,4805 l60,0 l0,60 l-60,0 z" fill="green"/>
<path d="M421,4835 l317.5,299.5" stroke="black" stroke-width="5"/>
<path d="M7134,4079 l60,0 l0,60 l-60,0 z" fill="green"/>
<path d="M7164,4109 l61,-88.5" stroke="black" stroke-width="5"/>
<path d="M5326,2241 l60,0 l0,60 l-60,0 z" fill="green"/>
<path d="M5356,2271 l-206,-35" stroke="black" stroke-width="5"/>
<path d="M5231,547 l60,0 l0,60 l-60,0 z" fill="green"/>
<path d="M5261,577 l171.5,446" stroke="black" stroke-width="5"/>
<path d="M3516,5195 l60,0 l0,60 l-60,0 z" fill="green"/>
<path d="M3546,5225 l-154.5,74.5" stroke="black" stroke-width="5"/>
<path d="M4637,3356 l60,0 l0,60 l-60,0 z" fill="green"/>
<path d="M4667,3386 l-41,-103.5" stroke="black" stroke-width="5"/>
<path d="M5566,7866 l60,0 l0,60 l-60,0 z" fill="green"/>
<path d="M5596,7896 l338.5,-53.5" stroke="black" stroke-width="5"/>
<path d="M2488,9783 l60,0 l0,60 l-60,0 z" fill="green"/>
<path d="M2518,9813 l-683,-66.5" stroke="black" stroke-width="5"/>
<path d="M8972,3883 l60,0 l0,60 l-60,0 z" fill="green"/>
<path d="M9002,3913 l90.5,-242.5" stroke="black" stroke-width="5"/>
<path d="M8544,8917 l60,0 l0,60 l-60,0 z" fill="green"/>
<path d="M8574,8947 l370,194.5" stroke="black" stroke-width="5"/>
<path d="M3088,1743 l60,0 l0,60 l-60,0 z" fill="green"/>
<path d="M3118,1773 l31,-151.5" stroke="black" stroke-width="5"/>
<path d="M7110,4358 l60,0 l0,60 l-60,0 z" fill="green"/>
<path d="M7140,4388 l-200.5,486.5" stroke="black" stroke-width="5"/>
<path d="M8514,8166 l60,0 l0,60 l-60,0 z" fill="green"/>
<path d="M8544,8196 l-36,-298" stroke="black" stroke-width="5"/>
<path d="M8547,4307 l60,0 l0,60 l-60,0 z" fill="green"/>
<path d="M8577,4337 l458,-34" stroke="black" stroke-width="5"/>
<path d="M3125,9138 l60,0 l0,60 l-60,0 z" fill="green"/>
<path d="M3155,9168 l-193,-43" stroke="black" stroke-width="5"/>
<path d="M7793,4374 l60,0 l0,60 l-60,0 z" fill="green"/>
<path d="M7823,4404 l-55.5,6.5" stroke="black" stroke-width="5"/>
<path d="M9421,80 l60,0 l0,60 l-60,0 z" fill="green"/>
<path d="M9451,110 l-216,212" stroke="black" stroke-width="5"/>
<path d="M7001,1359 l60,0 l0,60 l-60,0 z" fill="green"/>
<path d="M7031,1389 l-139,-87" stroke="black" stroke-width="5"/>
<path d="M1811,2307 l60,0 l0,60 l-60,0 z" fill="green"/>
<path d="M1841,2337 l-316,114.5" stroke="black" stroke-width="5"/>
<path d="M46,8334 l60,0 l0,60 l-60,0 z" fill="green"/>
<path d="M76,8364 l261,-67.5" stroke="black" stroke-width="5"/>
<path d="M3513,3901 l60,0 l0,60 l-60,0 z" fill="green"/>
<path d="M3543,3931 l-524,199" stroke="black" stroke-width="5"/>
<path d="M3897,8798 l60,0 l0,60 l-60,0 z" fill="green"/>
<path d="M3927,8828 l275,154.5" stroke="black" stroke-width="5"/>
<path d="M5641,3275 l60,0 l0,60 l-60,0 z" fill="green"/>
<path d="M5671,3305 l111.5,216.5" stroke="black" stroke-width="5"/>
<path d="M5512,4557 l60,0 l0,60 l-60,0 z" fill="green"/>
<path d="M5542,4587 l-263,183.5" stroke="black" stroke-width="5"/>
<path d="M4000,7702 l60,0 l0,60 l-60,0 z" fill="green"/>
<path d="M4030,7732 l-659,-428.5" stroke="black" stroke-width="5"/>
<path d="M8545,8170 l60,0 l0,60 l-60,0 z" fill="green"/>
<path d="M8575,8200 l-67,213.5" stroke="black" stroke-width="5"/>
<path d="M1109,3709 l60,0 l0,60 l-60,0 z" fill="green"/>
<path d="M1139,3739 l-281,-155" stroke="black" stroke-width="5"/>
<path d="M20,7385 l60,0 l0,60 l-60,0 z" fill="green"/>
<path d="M50,7415 l353.5,-108.5" stroke="black" stroke-width="5"/>
<path d="M904,4026 l60,0 l0,60 l-60,0 z" fill="green"/>
<path d="M934,4056 l20.5,72.5" stroke="black" stroke-width="5"/>
<path d="M8771,7148 l60,0 l0,60 l-60,0 z" fill="green"/>
<path d="M8801,7178 l-240.5,-140" stroke="black" stroke-width="5"/>
<path d="M4469,6177 l60,0 l0,60 l-60,0 z" fill="green"/>
<path d="M4499,6207 l184,-45.5" stroke="black" stroke-width="5"/>
<path d="M3066,3345 l60,0 l0,60 l-60,0 z" fill="green"/>
<path d="M3096,3375 l-150,-205.5" stroke="black" stroke-width="5"/>
<path d="M5222,3251 l60,0 l0,60 l-60,0 z" fill="green"/>
<path d="M5252,3281 l-205,-112" stroke="black" stroke-width="5"/>
<path d="M2217,1416 l60,0 l0,60 l-60,0 z" fill="green"/>
<path d="M2247,1446 l-856.5,116.5" stroke="black" stroke-width="5"/>
<path d="M3317,8471 l60,0 l0,60 l-60,0 z" fill="green"/>
<path d="M3347,8501 l-1206,-139.5" stroke="black" stroke-width="5"/>
<path d="M5761,8570 l60,0 l0,60 l-60,0 z" fill="green"/>
<path d="M5791,8600 l-14,611" stroke="black" stroke-width="5"/>
<path d="M8003,8962 l60,0 l0,60 l-60,0 z" fill="green"/>
<path d="M8033,8992 l-119,66" stroke="black" stroke-width="5"/>
<path d="M2267,9224 l60,0 l0,60 l-60,0 z" fill="green"/>
<path d="M2297,9254 l-83.5,70.5" stroke="black" stroke-width="5"/>
<path d="M4282,6146 l60,0 l0,60 l-60,0 z" fill="green"/>
<path d="M4312,6176 l0.5,0.5" stroke="black" stroke-width="5"/>
<text font-size="200" text-anchor="middle" x="1766.5" y="546.5">
0
</text>
<text font-size="200" text-anchor="middle" x="6495" y="6518">
1
</text>
<text font-size="200" text-anchor="middle" x="5304.5" y="356">
2
</text>
<text font-size="200" text-anchor="middle" x="5719" y="2633">
3
</text>
<text font-size="200" text-anchor="middle" x="6596" y="3283">
4
</text>
<text font-size="200" text-anchor="middle" x="4210.5" y="1599">
5
</text>
<text font-size="200" text-anchor="middle" x="7798.5" y="9808.5">
6
</text>
<text font-size="200" text-anchor="middle" x="7656.5" y="327">
7
</text>
<text font-size="200" text-anchor="middle" x="9021.5" y="5301">
8
</text>
<text font-size="200" text-anchor="middle" x="7091.5" y="9084.5">
9
</text>
<text font-size="200" text-anchor="middle" x="7616.5" y="2525.5">
10
</text>
<text font-size="200" text-anchor="middle" x="738.5" y="5204.5">
11
</text>
<text font-size="200" text-anchor="middle" x="7225" y="4090.5">
12
</text>
<text font-size="200" text-anchor="middle" x="5150" y="2306">
13
</text>
<text font-size="200" text-anchor="middle" x="5432.5" y="1093">
14
</text>
<text font-size="200" text-anchor="middle" x="3391.5" y="5369.5">
15
</text>
<text font-size="200" text-anchor="middle" x="4626" y="3352.5">
16
</text>
<text font-size="200" text-anchor="middle" x="5934.5" y="7912.5">
17
</text>
<text font-size="200" text-anchor="middle" x="1835" y="9816.5">
18
</text>
<text font-size="200" text-anchor="middle" x="9092.5" y="3740.5">
19
</text>
<text font-size="200" text-anchor="middle" x="8944" y="9211.5">
20
</text>
<text font-size="200" text-anchor="middle" x="3149" y="1691.5">
21
</text>
<text font-size="200" text-anchor="middle" x="6939.5" y="4944.5">
22
</text>
<text font-size="200" text-anchor="middle" x="8508" y="7968">
23
</text>
<text font-size="200" text-anchor="middle" x="9035" y="4373">
24
</text>
<text font-size="200" text-anchor="middle" x="2962" y="9195">
25
</text>
<text font-size="200" text-anchor="middle" x="7767.5" y="4480.5">
26
</text>
<text font-size="200" text-anchor="middle" x="9235" y="392">
27
</text>
<text font-size="200" text-anchor="middle" x="6892" y="1372">
28
</text>
<text font-size="200" text-anchor="middle" x="1525" y="2521.5">
29
</text>
<text font-size="200" text-anchor="middle" x="337" y="8366.5">
30
</text>
<text font-size="200" text-anchor="middle" x="3019" y="4200">
31
</text>
<text font-size="200" text-anchor="middle" x="4202" y="9052.5">
32
</text>
<text font-size="200" text-anchor="middle" x="5782.5" y="3591.5">
33
</text>
<text font-size="200" text-anchor="middle" x="5279" y="4840.5">
34
</text>
<text font-size="200" text-anchor="middle" x="3371" y="7373.5">
35
</text>
<text font-size="200" text-anchor="middle" x="8508" y="8483.5">
36
</text>
<text font-size="200" text-anchor="middle" x="858" y="3654">
37
</text>
<text font-size="200" text-anchor="middle" x="403.5" y="7376.5">
38
</text>
<text font-size="200" text-anchor="middle" x="954.5" y="4198.5">
39
</text>
<text font-size="200" text-anchor="middle" x="8560.5" y="7108">
40
</text>
<text font-size="200" text-anchor="middle" x="4683" y="6231.5">
41
</text>
<text font-size="200" text-anchor="middle" x="2946" y="3239.5">
42
</text>
<text font-size="200" text-anchor="middle" x="5047" y="3239">
43
</text>
<text font-size="200" text-anchor="middle" x="1390.5" y="1632.5">
44
</text>
<text font-size="200" text-anchor="middle" x="2141" y="8431.5">
45
</text>
<text font-size="200" text-anchor="middle" x="5777" y="9281">
46
</text>
<text font-size="200" text-anchor="middle" x="7914" y="9128">
47
</text>
<text font-size="200" text-anchor="middle" x="2213.5" y="9394.5">
48
</text>
<text font-size="200" text-anchor="middle" x="4312.5" y="6246.5">
49
</text>
</svg>