<svg viewBox="-100 -100 10200 10200" xmlns="http://www.w3.org/2000/svg">
<path d="M0,0 l10000,0 l0,10000 l-10000,0 z" fill="white"/>
<path d="M2,2 l3560,0 l0,1069 l-3560,0 z" fill="#a200ff" stroke="black" stroke-width="5"/>
<path d="M5042,5646 l2906,0 l0,1604 l-2906,0 z" fill="#fe00ff" stroke="black" stroke-width="5"/>
<path d="M3564,2 l3503,0 l0,574 l-3503,0 z" fill="#ff00fe" stroke="black" stroke-width="5"/>
<path d="M5431,1962 l578,0 l0,1179 l-578,0 z" fill="#fe00ff" stroke="black" stroke-width="5"/>
<path d="M6205,2538 l799,0 l0,1152 l-799,0 z" fill="#fe00ff" stroke="black" stroke-width="5"/>
<path d="M3568,588 l1330,0 l0,1870 l-1330,0 z" fill="#fe00ff" stroke="black" stroke-width="5"/>
<path d="M7365,9492 l899,0 l0,490 l-899,0 z" fill="#ff00fe" stroke="black" stroke-width="5"/>
<path d="M7077,132 l961,0 l0,610 l-961,0 z" fill="#ff00fe" stroke="black" stroke-width="5"/>
<path d="M8170,4711 l1726,0 l0,1046 l-1726,0 z" fill="#fe00ff" stroke="black" stroke-width="5"/>
<path d="M6788,8647 l571,0 l0,892 l-571,0 z" fill="#ff00fe" stroke="black" stroke-width="5"/>
<path d="M7071,1714 l1016,0 l0,1534 l-1016,0 z" fill="#ff00fe" stroke="black" stroke-width="5"/>
<path d="M5,4518 l1467,0 l0,1233 l-1467,0 z" fill="#ff00fe" stroke="black" stroke-width="5"/>
<path d="M7164,3432 l51,0 l0,678 l-51,0 z" fill="#fe00ff" stroke="black" stroke-width="5"/>
<path d="M5007,2159 l350,0 l0,224 l-350,0 z" fill="#fe00ff" stroke="black" stroke-width="5"/>
<path d="M4902,577 l1110,0 l0,875 l-1110,0 z" fill="#fe00ff" stroke="black" stroke-width="5"/>
<path d="M2702,4663 l1418,0 l0,1320 l-1418,0 z" fill="#fe00ff" stroke="black" stroke-width="5"/>
<path d="M4651,2496 l31,0 l0,923 l-31,0 z" fill="#fe00ff" stroke="black" stroke-width="5"/>
<path d="M4818,7251 l2178,0 l0,1145 l-2178,0 z" fill="#da00ff" stroke="black" stroke-width="5"/>
<path d="M109,9495 l3455,0 l0,502 l-3455,0 z" fill="#fe00ff" stroke="black" stroke-width="5"/>
<path d="M8588,3451 l715,0 l0,468 l-715,0 z" fill="#ff00ff" stroke="black" stroke-width="5"/>
<path d="M8462,8632 l1139,0 l0,972 l-1139,0 z" fill="#ff00fe" stroke="black" stroke-width="5"/>
<path d="M2797,1086 l660,0 l0,1015 l-660,0 z" fill="#ff00fe" stroke="black" stroke-width="5"/>
<path d="M6397,4119 l1163,0 l0,1521 l-1163,0 z" fill="#ef00ff" stroke="black" stroke-width="5"/>
<path d="M7033,7607 l2948,0 l0,591 l-2948,0 z" fill="#fe00ff" stroke="black" stroke-width="5"/>
<path d="M8132,3920 l1844,0 l0,789 l-1844,0 z" fill="#3d00ff" stroke="black" stroke-width="5"/>
<path d="M2305,8763 l1318,0 l0,728 l-1318,0 z" fill="#fe00ff" stroke="black" stroke-width="5"/>
<path d="M7566,3586 l564,0 l0,1677 l-564,0 z" fill="#fe00ff" stroke="black" stroke-width="5"/>
<path d="M8215,110 l1758,0 l0,324 l-1758,0 z" fill="#fe00ff" stroke="black" stroke-width="5"/>
<path d="M6252,971 l1300,0 l0,606 l-1300,0 z" fill="#ff00fe" stroke="black" stroke-width="5"/>
<path d="M207,2329 l2460,0 l0,383 l-2460,0 z" fill="#fe00ff" stroke="black" stroke-width="5"/>
<path d="M14,7773 l645,0 l0,1101 l-645,0 z" fill="#ff00fe" stroke="black" stroke-width="5"/>
<path d="M1999,3533 l2122,0 l0,1128 l-2122,0 z" fill="#af00ff" stroke="black" stroke-width="5"/>
<path d="M3624,7953 l1149,0 l0,2024 l-1149,0 z" fill="#e500ff" stroke="black" stroke-width="5"/>
<path d="M5428,3152 l775,0 l0,741 l-775,0 z" fill="#4f00ff" stroke="black" stroke-width="5"/>
<path d="M4128,3900 l2257,0 l0,1734 l-2257,0 z" fill="#af00ff" stroke="black" stroke-width="5"/>
<path d="M1845,6615 l2973,0 l0,1333 l-2973,0 z" fill="#ff00fe" stroke="black" stroke-width="5"/>
<path d="M7005,8200 l2995,0 l0,427 l-2995,0 z" fill="#4500ff" stroke="black" stroke-width="5"/>
<path d="M31,3537 l1239,0 l0,205 l-1239,0 z" fill="#fe00ff" stroke="black" stroke-width="5"/>
<path d="M50,6914 l773,0 l0,838 l-773,0 z" fill="#ff00fe" stroke="black" stroke-width="5"/>
<path d="M7,3743 l1987,0 l0,773 l-1987,0 z" fill="#f100ff" stroke="black" stroke-width="5"/>
<path d="M7954,6545 l1339,0 l0,910 l-1339,0 z" fill="#fe00ff" stroke="black" stroke-width="5"/>
<path d="M4320,5647 l696,0 l0,949 l-696,0 z" fill="#fe00ff" stroke="black" stroke-width="5"/>
<path d="M1278,2721 l3321,0 l0,812 l-3321,0 z" fill="#ff00fe" stroke="black" stroke-width="5"/>
<path d="M4682,2483 l742,0 l0,1410 l-742,0 z" fill="#ff00fe" stroke="black" stroke-width="5"/>
<path d="M2,1071 l2786,0 l0,1258 l-2786,0 z" fill="#7b00ff" stroke="black" stroke-width="5"/>
<path d="M659,7951 l2964,0 l0,812 l-2964,0 z" fill="#3a00ff" stroke="black" stroke-width="5"/>
<path d="M4783,8396 l2004,0 l0,1600 l-2004,0 z" fill="#eb00ff" stroke="black" stroke-width="5"/>
<path d="M7359,8629 l1088,0 l0,863 l-1088,0 z" fill="#2d00ff" stroke="black" stroke-width="5"/>
<path d="M2185,9109 l113,0 l0,211 l-113,0 z" fill="#ff00fe" stroke="black" stroke-width="5"/>
<path d="M4312,6176 l1,0 l0,1 l-1,0 z" fill="#0000ff" stroke="black" stroke-width="5"/>
<path d="M1879,330 l60,0 l0,60 l-60,0 z" fill="green"/>
<path d="M1909,360 l-127,176.5" stroke="black" stroke-width="5"/>
<path d="M5780,7061 l60,0 l0,60 l-60,0 z" fill="green"/>
<path d="M5810,7091 l685,-643" stroke="black" stroke-width="5"/>
<path d="M5377,392 l60,0 l0,60 l-60,0 z" fill="green"/>
<path d="M5407,422 l-91.5,-133" stroke="black" stroke-width="5"/>
<path d="M5737,3110 l60,0 l0,60 l-60,0 z" fill="green"/>
<path d="M5767,3140 l-47,-588.5" stroke="black" stroke-width="5"/>
<path d="M6629,3204 l60,0 l0,60 l-60,0 z" fill="green"/>
<path d="M6659,3234 l-54.5,-120" stroke="black" stroke-width="5"/>
<path d="M4176,1590 l60,0 l0,60 l-60,0 z" fill="green"/>
<path d="M4206,1620 l27,-97" stroke="black" stroke-width="5"/>
<path d="M7823,9462 l60,0 l0,60 l-60,0 z" fill="green"/>
<path d="M7853,9492 l-38.5,245" stroke="black" stroke-width="5"/>
<path d="M7845,402 l60,0 l0,60 l-60,0 z" fill="green"/>
<path d="M7875,432 l-317.5,5" stroke="black" stroke-width="5"/>
<path d="M9018,5029 l60,0 l0,60 l-60,0 z" fill="green"/>
<path d="M9048,5059 l-15,175" stroke="black" stroke-width="5"/>
<path d="M7262,9040 l60,0 l0,60 l-60,0 z" fill="green"/>
<path d="M7292,9070 l-218.5,23" stroke="black" stroke-width="5"/>
<path d="M7603,2466 l60,0 l0,60 l-60,0 z" fill="green"/>
<path d="M7633,2496 l-54,-15" stroke="black" stroke-width="5"/>
<path d="M391,4805 l60,0 l0,60 l-60,0 z" fill="green"/>
<path d="M421,4835 l317.5,299.5" stroke="black" stroke-width="5"/>
<path d="M7134,4079 l60,0 l0,60 l-60,0 z" fill="green"/>
<path d="M7164,4109 l25.5,-338" stroke="black" stroke-width="5"/>
<path d="M5326,2241 l60,0 l0,60 l-60,0 z" fill="green"/>
<path d="M5356,2271 l-174,0" stroke="black" stroke-width="5"/>
<path d="M5231,547 l60,0 l0,60 l-60,0 z" fill="green"/>
<path d="M5261,577 l196,437.5" stroke="black" stroke-width="5"/>
<path d="M3516,5195 l60,0 l0,60 l-60,0 z" fill="green"/>
<path d="M3546,5225 l-135,98" stroke="black" stroke-width="5"/>
<path d="M4637,3356 l60,0 l0,60 l-60,0 z" fill="green"/>
<path d="M4667,3386 l-0.5,-428.5" stroke="black" stroke-width="5"/>
<path d="M5566,7866 l60,0 l0,60 l-60,0 z" fill="green"/>
<path d="M5596,7896 l311,-72.5" stroke="black" stroke-width="5"/>
<path d="M2488,9783 l60,0 l0,60 l-60,0 z" fill="green"/>
<path d="M2518,9813 l-681.5,-67" stroke="black" stroke-width="5"/>
<path d="M8972,3883 l60,0 l0,60 l-60,0 z" fill="green"/>
<path d="M9002,3913 l-56.5,-228" stroke="black" stroke-width="5"/>
<path d="M8544,8917 l60,0 l0,60 l-60,0 z" fill="green"/>
<path d="M8574,8947 l457.5,171" stroke="black" stroke-width="5"/>
<path d="M3088,1743 l60,0 l0,60 l-60,0 z" fill="green"/>
<path d="M3118,1773 l9,-179.5" stroke="black" stroke-width="5"/>
<path d="M7110,4358 l60,0 l0,60 l-60,0 z" fill="green"/>
<path d="M7140,4388 l-161.5,491.5" stroke="black" stroke-width="5"/>
<path d="M8514,8166 l60,0 l0,60 l-60,0 z" fill="green"/>
<path d="M8544,8196 l-37,-293.5" stroke="black" stroke-width="5"/>
<path d="M8547,4307 l60,0 l0,60 l-60,0 z" fill="green"/>
<path d="M8577,4337 l477,-22.5" stroke="black" stroke-width="5"/>
<path d="M3125,9138 l60,0 l0,60 l-60,0 z" fill="green"/>
<path d="M3155,9168 l-191,-41" stroke="black" stroke-width="5"/>
<path d="M7793,4374 l60,0 l0,60 l-60,0 z" fill="green"/>
<path d="M7823,4404 l25,20.5" stroke="black" stroke-width="5"/>
<path d="M9421,80 l60,0 l0,60 l-60,0 z" fill="green"/>
<path d="M9451,110 l-357,162" stroke="black" stroke-width="5"/>
<path d="M7001,1359 l60,0 l0,60 l-60,0 z" fill="green"/>
<path d="M7031,1389 l-129,-115" stroke="black" stroke-width="5"/>
<path d="M1811,2307 l60,0 l0,60 l-60,0 z" fill="green"/>
<path d="M1841,2337 l-404,183.5" stroke="black" stroke-width="5"/>
<path d="M46,8334 l60,0 l0,60 l-60,0 z" fill="green"/>
<path d="M76,8364 l260.5,-40.5" stroke="black" stroke-width="5"/>
<path d="M3513,3901 l60,0 l0,60 l-60,0 z" fill="green"/>
<path d="M3543,3931 l-483,166" stroke="black" stroke-width="5"/>
<path d="M3897,8798 l60,0 l0,60 l-60,0 z" fill="green"/>
<path d="M3927,8828 l271.5,137" stroke="black" stroke-width="5"/>
<path d="M5641,3275 l60,0 l0,60 l-60,0 z" fill="green"/>
<path d="M5671,3305 l144.5,217.5" stroke="black" stroke-width="5"/>
<path d="M5512,4557 l60,0 l0,60 l-60,0 z" fill="green"/>
<path d="M5542,4587 l-285.5,180" stroke="black" stroke-width="5"/>
<path d="M4000,7702 l60,0 l0,60 l-60,0 z" fill="green"/>
<path d="M4030,7732 l-698.5,-450.5" stroke="black" stroke-width="5"/>
<path d="M8545,8170 l60,0 l0,60 l-60,0 z" fill="green"/>
<path d="M8575,8200 l-72.5,213.5" stroke="black" stroke-width="5"/>
<path d="M1109,3709 l60,0 l0,60 l-60,0 z" fill="green"/>
<path d="M1139,3739 l-488.5,-99.5" stroke="black" stroke-width="5"/>
<path d="M20,7385 l60,0 l0,60 l-60,0 z" fill="green"/>
<path d="M50,7415 l386.5,-82" stroke="black" stroke-width="5"/>
<path d="M904,4026 l60,0 l0,60 l-60,0 z" fill="green"/>
<path d="M934,4056 l66.5,73.5" stroke="black" stroke-width="5"/>
<path d="M8771,7148 l60,0 l0,60 l-60,0 z" fill="green"/>
<path d="M8801,7178 l-177.5,-178" stroke="black" stroke-width="5"/>
<path d="M4469,6177 l60,0 l0,60 l-60,0 z" fill="green"/>
<path d="M4499,6207 l169,-85.5" stroke="black" stroke-width="5"/>
<path d="M3066,3345 l60,0 l0,60 l-60,0 z" fill="green"/>
<path d="M3096,3375 l-157.5,-248" stroke="black" stroke-width="5"/>
<path d="M5222,3251 l60,0 l0,60 l-60,0 z" fill="green"/>
<path d="M5252,3281 l-199,-93" stroke="black" stroke-width="5"/>
<path d="M2217,1416 l60,0 l0,60 l-60,0 z" fill="green"/>
<path d="M2247,1446 l-852,254" stroke="black" stroke-width="5"/>
<path d="M3317,8471 l60,0 l0,60 l-60,0 z" fill="green"/>
<path d="M3347,8501 l-1206,-144" stroke="black" stroke-width="5"/>
<path d="M5761,8570 l60,0 l0,60 l-60,0 z" fill="green"/>
<path d="M5791,8600 l-6,596" stroke="black" stroke-width="5"/>
<path d="M8003,8962 l60,0 l0,60 l-60,0 z" fill="green"/>
<path d="M8033,8992 l-130,68.5" stroke="black" stroke-width="5"/>
<path d="M2267,9224 l60,0 l0,60 l-60,0 z" fill="green"/>
<path d="M2297,9254 l-55.5,-39.5" stroke="black" stroke-width="5"/>
<path d="M4282,6146 l60,0 l0,60 l-60,0 z" fill="green"/>
<path d="M4312,6176 l0.5,0.5" stroke="black" stroke-width="5"/>
<text font-size="200" text-anchor="middle" x="1782" y="606.5">
0
</text>
<text font-size="200" text-anchor="middle" x="6495" y="6518">
1
</text>
<text font-size="200" text-anchor="middle" x="5315.5" y="359">
2
</text>
<text font-size="200" text-anchor="middle" x="5720" y="2621.5">
3
</text>
<text font-size="200" text-anchor="middle" x="6604.5" y="3184">
4
</text>
<text font-size="200" text-anchor="middle" x="4233" y="1593">
5
</text>
<text font-size="200" text-anchor="middle" x="7814.5" y="9807">
6
</text>
<text font-size="200" text-anchor="middle" x="7557.5" y="507">
7
</text>
<text font-size="200" text-anchor="middle" x="9033" y="5304">
8
</text>
<text font-size="200" text-anchor="middle" x="7073.5" y="9163">
9
</text>
<text font-size="200" text-anchor="middle" x="7579" y="2551">
10
</text>
<text font-size="200" text-anchor="middle" x="738.5" y="5204.5">
11
</text>
<text font-size="200" text-anchor="middle" x="7189.5" y="3841">
12
</text>
<text font-size="200" text-anchor="middle" x="5182" y="2341">
13
</text>
<text font-size="200" text-anchor="middle" x="5457" y="1084.5">
14
</text>
<text font-size="200" text-anchor="middle" x="3411" y="5393">
15
</text>
<text font-size="200" text-anchor="middle" x="4666.5" y="3027.5">
16
</text>
<text font-size="200" text-anchor="middle" x="5907" y="7893.5">
17
</text>
<text font-size="200" text-anchor="middle" x="1836.5" y="9816">
18
</text>
<text font-size="200" text-anchor="middle" x="8945.5" y="3755">
19
</text>
<text font-size="200" text-anchor="middle" x="9031.5" y="9188">
20
</text>
<text font-size="200" text-anchor="middle" x="3127" y="1663.5">
21
</text>
<text font-size="200" text-anchor="middle" x="6978.5" y="4949.5">
22
</text>
<text font-size="200" text-anchor="middle" x="8507" y="7972.5">
23
</text>
<text font-size="200" text-anchor="middle" x="9054" y="4384.5">
24
</text>
<text font-size="200" text-anchor="middle" x="2964" y="9197">
25
</text>
<text font-size="200" text-anchor="middle" x="7848" y="4494.5">
26
</text>
<text font-size="200" text-anchor="middle" x="9094" y="342">
27
</text>
<text font-size="200" text-anchor="middle" x="6902" y="1344">
28
</text>
<text font-size="200" text-anchor="middle" x="1437" y="2590.5">
29
</text>
<text font-size="200" text-anchor="middle" x="336.5" y="8393.5">
30
</text>
<text font-size="200" text-anchor="middle" x="3060" y="4167">
31
</text>
<text font-size="200" text-anchor="middle" x="4198.5" y="9035">
32
</text>
<text font-size="200" text-anchor="middle" x="5815.5" y="3592.5">
33
</text>
<text font-size="200" text-anchor="middle" x="5256.5" y="4837">
34
</text>
<text font-size="200" text-anchor="middle" x="3331.5" y="7351.5">
35
</text>
<text font-size="200" text-anchor="middle" x="8502.5" y="8483.5">
36
</text>
<text font-size="200" text-anchor="middle" x="650.5" y="3709.5">
37
</text>
<text font-size="200" text-anchor="middle" x="436.5" y="7403">
38
</text>
<text font-size="200" text-anchor="middle" x="1000.5" y="4199.5">
39
</text>
<text font-size="200" text-anchor="middle" x="8623.5" y="7070">
40
</text>
<text font-size="200" text-anchor="middle" x="4668" y="6191.5">
41
</text>
<text font-size="200" text-anchor="middle" x="2938.5" y="3197">
42
</text>
<text font-size="200" text-anchor="middle" x="5053" y="3258">
43
</text>
<text font-size="200" text-anchor="middle" x="1395" y="1770">
44
</text>
<text font-size="200" text-anchor="middle" x="2141" y="8427">
45
</text>
<text font-size="200" text-anchor="middle" x="5785" y="9266">
46
</text>
<text font-size="200" text-anchor="middle" x="7903" y="9130.5">
47
</text>
<text font-size="200" text-anchor="middle" x="2241.5" y="9284.5">
48
</text>
<text font-size="200" text-anchor="middle" x="4312.5" y="6246.5">
49
</text>
</svg>