<svg viewBox="-100 -100 10200 10200" xmlns="http://www.w3.org/2000/svg">
<path d="M0,0 l10000,0 l0,10000 l-10000,0 z" fill="white"/>
<path d="M14,3 l3503,0 l0,951 l-3503,0 z" fill="#8500ff" stroke="black" stroke-width="5"/>
<path d="M5017,5661 l3011,0 l0,1548 l-3011,0 z" fill="#fe00ff" stroke="black" stroke-width="5"/>
<path d="M3528,5 l3635,0 l0,553 l-3635,0 z" fill="#ff00fe" stroke="black" stroke-width="5"/>
<path d="M5602,1670 l461,0 l0,1478 l-461,0 z" fill="#fe00ff" stroke="black" stroke-width="5"/>
<path d="M6414,2272 l652,0 l0,1412 l-652,0 z" fill="#ff00fe" stroke="black" stroke-width="5"/>
<path d="M3559,572 l1349,0 l0,1844 l-1349,0 z" fill="#ff00fe" stroke="black" stroke-width="5"/>
<path d="M7396,9492 l902,0 l0,488 l-902,0 z" fill="#ff00fe" stroke="black" stroke-width="5"/>
<path d="M7294,16 l642,0 l0,913 l-642,0 z" fill="#fe00ff" stroke="black" stroke-width="5"/>
<path d="M8154,4805 l1802,0 l0,1002 l-1802,0 z" fill="#ff00fe" stroke="black" stroke-width="5"/>
<path d="M6888,8708 l406,0 l0,1254 l-406,0 z" fill="#fe00ff" stroke="black" stroke-width="5"/>
<path d="M7116,1588 l920,0 l0,1694 l-920,0 z" fill="#ff00fe" stroke="black" stroke-width="5"/>
<path d="M25,4628 l1455,0 l0,1243 l-1455,0 z" fill="#fe00ff" stroke="black" stroke-width="5"/>
<path d="M7119,3379 l47,0 l0,731 l-47,0 z" fill="#fe00ff" stroke="black" stroke-width="5"/>
<path d="M5303,1525 l108,0 l0,753 l-108,0 z" fill="#ff00fe" stroke="black" stroke-width="5"/>
<path d="M4921,562 l1070,0 l0,908 l-1070,0 z" fill="#ff00fe" stroke="black" stroke-width="5"/>
<path d="M2452,4950 l1658,0 l0,1129 l-1658,0 z" fill="#fe00ff" stroke="black" stroke-width="5"/>
<path d="M4643,2444 l25,0 l0,1075 l-25,0 z" fill="#fc00ff" stroke="black" stroke-width="5"/>
<path d="M4853,7210 l2182,0 l0,1371 l-2182,0 z" fill="#f900ff" stroke="black" stroke-width="5"/>
<path d="M3,9495 l3510,0 l0,496 l-3510,0 z" fill="#ff00fe" stroke="black" stroke-width="5"/>
<path d="M8165,3611 l1093,0 l0,306 l-1093,0 z" fill="#fe00ff" stroke="black" stroke-width="5"/>
<path d="M8568,8710 l1095,0 l0,1011 l-1095,0 z" fill="#fe00ff" stroke="black" stroke-width="5"/>
<path d="M3029,987 l523,0 l0,1281 l-523,0 z" fill="#ff00fe" stroke="black" stroke-width="5"/>
<path d="M6294,4117 l1365,0 l0,1537 l-1365,0 z" fill="#fe00ff" stroke="black" stroke-width="5"/>
<path d="M7040,7600 l2919,0 l0,597 l-2919,0 z" fill="#ff00fe" stroke="black" stroke-width="5"/>
<path d="M8101,3925 l1893,0 l0,875 l-1893,0 z" fill="#4e00ff" stroke="black" stroke-width="5"/>
<path d="M2300,8761 l1336,0 l0,730 l-1336,0 z" fill="#fe00ff" stroke="black" stroke-width="5"/>
<path d="M7663,3334 l435,0 l0,2166 l-435,0 z" fill="#fe00ff" stroke="black" stroke-width="5"/>
<path d="M8115,109 l1590,0 l0,359 l-1590,0 z" fill="#ff00fe" stroke="black" stroke-width="5"/>
<path d="M6108,980 l1762,0 l0,447 l-1762,0 z" fill="#fe00ff" stroke="black" stroke-width="5"/>
<path d="M127,2337 l2898,0 l0,325 l-2898,0 z" fill="#fe00ff" stroke="black" stroke-width="5"/>
<path d="M43,7701 l557,0 l0,1275 l-557,0 z" fill="#ff00fe" stroke="black" stroke-width="5"/>
<path d="M2016,3403 l2173,0 l0,1545 l-2173,0 z" fill="#f500ff" stroke="black" stroke-width="5"/>
<path d="M3643,7925 l1186,0 l0,2073 l-1186,0 z" fill="#ef00ff" stroke="black" stroke-width="5"/>
<path d="M5398,3154 l1015,0 l0,809 l-1015,0 z" fill="#8e00ff" stroke="black" stroke-width="5"/>
<path d="M4189,3974 l2105,0 l0,1677 l-2105,0 z" fill="#9800ff" stroke="black" stroke-width="5"/>
<path d="M1773,6624 l3053,0 l0,1298 l-3053,0 z" fill="#ff00fe" stroke="black" stroke-width="5"/>
<path d="M7042,8200 l2930,0 l0,487 l-2930,0 z" fill="#5400ff" stroke="black" stroke-width="5"/>
<path d="M209,3522 l1165,0 l0,218 l-1165,0 z" fill="#fe00ff" stroke="black" stroke-width="5"/>
<path d="M5,6790 l822,0 l0,788 l-822,0 z" fill="#ff00fe" stroke="black" stroke-width="5"/>
<path d="M1,3740 l1997,0 l0,885 l-1997,0 z" fill="#fe00ff" stroke="black" stroke-width="5"/>
<path d="M8045,6471 l1174,0 l0,1038 l-1174,0 z" fill="#ff00fe" stroke="black" stroke-width="5"/>
<path d="M4319,5652 l680,0 l0,971 l-680,0 z" fill="#fe00ff" stroke="black" stroke-width="5"/>
<path d="M768,2677 l3734,0 l0,722 l-3734,0 z" fill="#ff00fe" stroke="black" stroke-width="5"/>
<path d="M4678,2448 l716,0 l0,1461 l-716,0 z" fill="#fe00ff" stroke="black" stroke-width="5"/>
<path d="M20,955 l3004,0 l0,1382 l-3004,0 z" fill="#9f00ff" stroke="black" stroke-width="5"/>
<path d="M601,7929 l3041,0 l0,826 l-3041,0 z" fill="#3f00ff" stroke="black" stroke-width="5"/>
<path d="M4837,8582 l2038,0 l0,1418 l-2038,0 z" fill="#d600ff" stroke="black" stroke-width="5"/>
<path d="M7299,8690 l1264,0 l0,800 l-1264,0 z" fill="#3400ff" stroke="black" stroke-width="5"/>
<path d="M2204,9174 l94,0 l0,259 l-94,0 z" fill="#ff00fe" stroke="black" stroke-width="5"/>
<path d="M4312,6176 l1,0 l0,1 l-1,0 z" fill="#0000ff" stroke="black" stroke-width="5"/>
<path d="M1879,330 l60,0 l0,60 l-60,0 z" fill="green"/>
<path d="M1909,360 l-143.5,118.5" stroke="black" stroke-width="5"/>
<path d="M5780,7061 l60,0 l0,60 l-60,0 z" fill="green"/>
<path d="M5810,7091 l712.5,-656" stroke="black" stroke-width="5"/>
<path d="M5377,392 l60,0 l0,60 l-60,0 z" fill="green"/>
<path d="M5407,422 l-61.5,-140.5" stroke="black" stroke-width="5"/>
<path d="M5737,3110 l60,0 l0,60 l-60,0 z" fill="green"/>
<path d="M5767,3140 l65.5,-731" stroke="black" stroke-width="5"/>
<path d="M6629,3204 l60,0 l0,60 l-60,0 z" fill="green"/>
<path d="M6659,3234 l81,-256" stroke="black" stroke-width="5"/>
<path d="M4176,1590 l60,0 l0,60 l-60,0 z" fill="green"/>
<path d="M4206,1620 l27.5,-126" stroke="black" stroke-width="5"/>
<path d="M7823,9462 l60,0 l0,60 l-60,0 z" fill="green"/>
<path d="M7853,9492 l-6,244" stroke="black" stroke-width="5"/>
<path d="M7845,402 l60,0 l0,60 l-60,0 z" fill="green"/>
<path d="M7875,432 l-260,40.5" stroke="black" stroke-width="5"/>
<path d="M9018,5029 l60,0 l0,60 l-60,0 z" fill="green"/>
<path d="M9048,5059 l7,247" stroke="black" stroke-width="5"/>
<path d="M7262,9040 l60,0 l0,60 l-60,0 z" fill="green"/>
<path d="M7292,9070 l-201,265" stroke="black" stroke-width="5"/>
<path d="M7603,2466 l60,0 l0,60 l-60,0 z" fill="green"/>
<path d="M7633,2496 l-57,-61" stroke="black" stroke-width="5"/>
<path d="M391,4805 l60,0 l0,60 l-60,0 z" fill="green"/>
<path d="M421,4835 l331.5,414.5" stroke="black" stroke-width="5"/>
<path d="M7134,4079 l60,0 l0,60 l-60,0 z" fill="green"/>
<path d="M7164,4109 l-21.5,-364.5" stroke="black" stroke-width="5"/>
<path d="M5326,2241 l60,0 l0,60 l-60,0 z" fill="green"/>
<path d="M5356,2271 l1,-369.5" stroke="black" stroke-width="5"/>
<path d="M5231,547 l60,0 l0,60 l-60,0 z" fill="green"/>
<path d="M5261,577 l195,439" stroke="black" stroke-width="5"/>
<path d="M3516,5195 l60,0 l0,60 l-60,0 z" fill="green"/>
<path d="M3546,5225 l-265,289.5" stroke="black" stroke-width="5"/>
<path d="M4637,3356 l60,0 l0,60 l-60,0 z" fill="green"/>
<path d="M4667,3386 l-11.5,-404.5" stroke="black" stroke-width="5"/>
<path d="M5566,7866 l60,0 l0,60 l-60,0 z" fill="green"/>
<path d="M5596,7896 l348,-0.5" stroke="black" stroke-width="5"/>
<path d="M2488,9783 l60,0 l0,60 l-60,0 z" fill="green"/>
<path d="M2518,9813 l-760,-70" stroke="black" stroke-width="5"/>
<path d="M8972,3883 l60,0 l0,60 l-60,0 z" fill="green"/>
<path d="M9002,3913 l-290.5,-149" stroke="black" stroke-width="5"/>
<path d="M8544,8917 l60,0 l0,60 l-60,0 z" fill="green"/>
<path d="M8574,8947 l541.5,268.5" stroke="black" stroke-width="5"/>
<path d="M3088,1743 l60,0 l0,60 l-60,0 z" fill="green"/>
<path d="M3118,1773 l172.5,-145.5" stroke="black" stroke-width="5"/>
<path d="M7110,4358 l60,0 l0,60 l-60,0 z" fill="green"/>
<path d="M7140,4388 l-163.5,497.5" stroke="black" stroke-width="5"/>
<path d="M8514,8166 l60,0 l0,60 l-60,0 z" fill="green"/>
<path d="M8544,8196 l-44.5,-297.5" stroke="black" stroke-width="5"/>
<path d="M8547,4307 l60,0 l0,60 l-60,0 z" fill="green"/>
<path d="M8577,4337 l470.5,25.5" stroke="black" stroke-width="5"/>
<path d="M3125,9138 l60,0 l0,60 l-60,0 z" fill="green"/>
<path d="M3155,9168 l-187,-42" stroke="black" stroke-width="5"/>
<path d="M7793,4374 l60,0 l0,60 l-60,0 z" fill="green"/>
<path d="M7823,4404 l57.5,13" stroke="black" stroke-width="5"/>
<path d="M9421,80 l60,0 l0,60 l-60,0 z" fill="green"/>
<path d="M9451,110 l-541,178.5" stroke="black" stroke-width="5"/>
<path d="M7001,1359 l60,0 l0,60 l-60,0 z" fill="green"/>
<path d="M7031,1389 l-42,-185.5" stroke="black" stroke-width="5"/>
<path d="M1811,2307 l60,0 l0,60 l-60,0 z" fill="green"/>
<path d="M1841,2337 l-265,162.5" stroke="black" stroke-width="5"/>
<path d="M46,8334 l60,0 l0,60 l-60,0 z" fill="green"/>
<path d="M76,8364 l245.5,-25.5" stroke="black" stroke-width="5"/>
<path d="M3513,3901 l60,0 l0,60 l-60,0 z" fill="green"/>
<path d="M3543,3931 l-440.5,244.5" stroke="black" stroke-width="5"/>
<path d="M3897,8798 l60,0 l0,60 l-60,0 z" fill="green"/>
<path d="M3927,8828 l309,133.5" stroke="black" stroke-width="5"/>
<path d="M5641,3275 l60,0 l0,60 l-60,0 z" fill="green"/>
<path d="M5671,3305 l234.5,253.5" stroke="black" stroke-width="5"/>
<path d="M5512,4557 l60,0 l0,60 l-60,0 z" fill="green"/>
<path d="M5542,4587 l-300.5,225.5" stroke="black" stroke-width="5"/>
<path d="M4000,7702 l60,0 l0,60 l-60,0 z" fill="green"/>
<path d="M4030,7732 l-730.5,-459" stroke="black" stroke-width="5"/>
<path d="M8545,8170 l60,0 l0,60 l-60,0 z" fill="green"/>
<path d="M8575,8200 l-68,243.5" stroke="black" stroke-width="5"/>
<path d="M1109,3709 l60,0 l0,60 l-60,0 z" fill="green"/>
<path d="M1139,3739 l-347.5,-108" stroke="black" stroke-width="5"/>
<path d="M20,7385 l60,0 l0,60 l-60,0 z" fill="green"/>
<path d="M50,7415 l366,-231" stroke="black" stroke-width="5"/>
<path d="M904,4026 l60,0 l0,60 l-60,0 z" fill="green"/>
<path d="M934,4056 l65.5,126.5" stroke="black" stroke-width="5"/>
<path d="M8771,7148 l60,0 l0,60 l-60,0 z" fill="green"/>
<path d="M8801,7178 l-169,-188" stroke="black" stroke-width="5"/>
<path d="M4469,6177 l60,0 l0,60 l-60,0 z" fill="green"/>
<path d="M4499,6207 l160,-69.5" stroke="black" stroke-width="5"/>
<path d="M3066,3345 l60,0 l0,60 l-60,0 z" fill="green"/>
<path d="M3096,3375 l-461,-337" stroke="black" stroke-width="5"/>
<path d="M5222,3251 l60,0 l0,60 l-60,0 z" fill="green"/>
<path d="M5252,3281 l-216,-102.5" stroke="black" stroke-width="5"/>
<path d="M2217,1416 l60,0 l0,60 l-60,0 z" fill="green"/>
<path d="M2247,1446 l-725,200" stroke="black" stroke-width="5"/>
<path d="M3317,8471 l60,0 l0,60 l-60,0 z" fill="green"/>
<path d="M3347,8501 l-1225.5,-159" stroke="black" stroke-width="5"/>
<path d="M5761,8570 l60,0 l0,60 l-60,0 z" fill="green"/>
<path d="M5791,8600 l65,691" stroke="black" stroke-width="5"/>
<path d="M8003,8962 l60,0 l0,60 l-60,0 z" fill="green"/>
<path d="M8033,8992 l-102,98" stroke="black" stroke-width="5"/>
<path d="M2267,9224 l60,0 l0,60 l-60,0 z" fill="green"/>
<path d="M2297,9254 l-46,49.5" stroke="black" stroke-width="5"/>
<path d="M4282,6146 l60,0 l0,60 l-60,0 z" fill="green"/>
<path d="M4312,6176 l0.5,0.5" stroke="black" stroke-width="5"/>
<text font-size="200" text-anchor="middle" x="1765.5" y="548.5">
0
</text>
<text font-size="200" text-anchor="middle" x="6522.5" y="6505">
1
</text>
<text font-size="200" text-anchor="middle" x="5345.5" y="351.5">
2
</text>
<text font-size="200" text-anchor="middle" x="5832.5" y="2479">
3
</text>
<text font-size="200" text-anchor="middle" x="6740" y="3048">
4
</text>
<text font-size="200" text-anchor="middle" x="4233.5" y="1564">
5
</text>
<text font-size="200" text-anchor="middle" x="7847" y="9806">
6
</text>
<text font-size="200" text-anchor="middle" x="7615" y="542.5">
7
</text>
<text font-size="200" text-anchor="middle" x="9055" y="5376">
8
</text>
<text font-size="200" text-anchor="middle" x="7091" y="9405">
9
</text>
<text font-size="200" text-anchor="middle" x="7576" y="2505">
10
</text>
<text font-size="200" text-anchor="middle" x="752.5" y="5319.5">
11
</text>
<text font-size="200" text-anchor="middle" x="7142.5" y="3814.5">
12
</text>
<text font-size="200" text-anchor="middle" x="5357" y="1971.5">
13
</text>
<text font-size="200" text-anchor="middle" x="5456" y="1086">
14
</text>
<text font-size="200" text-anchor="middle" x="3281" y="5584.5">
15
</text>
<text font-size="200" text-anchor="middle" x="4655.5" y="3051.5">
16
</text>
<text font-size="200" text-anchor="middle" x="5944" y="7965.5">
17
</text>
<text font-size="200" text-anchor="middle" x="1758" y="9813">
18
</text>
<text font-size="200" text-anchor="middle" x="8711.5" y="3834">
19
</text>
<text font-size="200" text-anchor="middle" x="9115.5" y="9285.5">
20
</text>
<text font-size="200" text-anchor="middle" x="3290.5" y="1697.5">
21
</text>
<text font-size="200" text-anchor="middle" x="6976.5" y="4955.5">
22
</text>
<text font-size="200" text-anchor="middle" x="8499.5" y="7968.5">
23
</text>
<text font-size="200" text-anchor="middle" x="9047.5" y="4432.5">
24
</text>
<text font-size="200" text-anchor="middle" x="2968" y="9196">
25
</text>
<text font-size="200" text-anchor="middle" x="7880.5" y="4487">
26
</text>
<text font-size="200" text-anchor="middle" x="8910" y="358.5">
27
</text>
<text font-size="200" text-anchor="middle" x="6989" y="1273.5">
28
</text>
<text font-size="200" text-anchor="middle" x="1576" y="2569.5">
29
</text>
<text font-size="200" text-anchor="middle" x="321.5" y="8408.5">
30
</text>
<text font-size="200" text-anchor="middle" x="3102.5" y="4245.5">
31
</text>
<text font-size="200" text-anchor="middle" x="4236" y="9031.5">
32
</text>
<text font-size="200" text-anchor="middle" x="5905.5" y="3628.5">
33
</text>
<text font-size="200" text-anchor="middle" x="5241.5" y="4882.5">
34
</text>
<text font-size="200" text-anchor="middle" x="3299.5" y="7343">
35
</text>
<text font-size="200" text-anchor="middle" x="8507" y="8513.5">
36
</text>
<text font-size="200" text-anchor="middle" x="791.5" y="3701">
37
</text>
<text font-size="200" text-anchor="middle" x="416" y="7254">
38
</text>
<text font-size="200" text-anchor="middle" x="999.5" y="4252.5">
39
</text>
<text font-size="200" text-anchor="middle" x="8632" y="7060">
40
</text>
<text font-size="200" text-anchor="middle" x="4659" y="6207.5">
41
</text>
<text font-size="200" text-anchor="middle" x="2635" y="3108">
42
</text>
<text font-size="200" text-anchor="middle" x="5036" y="3248.5">
43
</text>
<text font-size="200" text-anchor="middle" x="1522" y="1716">
44
</text>
<text font-size="200" text-anchor="middle" x="2121.5" y="8412">
45
</text>
<text font-size="200" text-anchor="middle" x="5856" y="9361">
46
</text>
<text font-size="200" text-anchor="middle" x="7931" y="9160">
47
</text>
<text font-size="200" text-anchor="middle" x="2251" y="9373.5">
48
</text>
<text font-size="200" text-anchor="middle" x="4312.5" y="6246.5">
49
</text>
</svg>