<svg viewBox="-100 -100 10200 10200" xmlns="http://www.w3.org/2000/svg">
<path d="M0,0 l10000,0 l0,10000 l-10000,0 z" fill="white"/>
<path d="M18,1 l3467,0 l0,928 l-3467,0 z" fill="#7e00ff" stroke="black" stroke-width="5"/>
<path d="M5035,5660 l2948,0 l0,1581 l-2948,0 z" fill="#fe00ff" stroke="black" stroke-width="5"/>
<path d="M3508,4 l3542,0 l0,568 l-3542,0 z" fill="#ff00fe" stroke="black" stroke-width="5"/>
<path d="M5480,1494 l414,0 l0,1647 l-414,0 z" fill="#ff00fe" stroke="black" stroke-width="5"/>
<path d="M6443,2242 l620,0 l0,1485 l-620,0 z" fill="#ff00fe" stroke="black" stroke-width="5"/>
<path d="M3559,572 l1349,0 l0,1844 l-1349,0 z" fill="#ff00fe" stroke="black" stroke-width="5"/>
<path d="M7305,9492 l875,0 l0,503 l-875,0 z" fill="#fe00ff" stroke="black" stroke-width="5"/>
<path d="M7050,3 l888,0 l0,660 l-888,0 z" fill="#fe00ff" stroke="black" stroke-width="5"/>
<path d="M8133,4777 l1731,0 l0,1043 l-1731,0 z" fill="#ff00fe" stroke="black" stroke-width="5"/>
<path d="M6849,8660 l444,0 l0,1147 l-444,0 z" fill="#ff00fe" stroke="black" stroke-width="5"/>
<path d="M7079,1630 l974,0 l0,1600 l-974,0 z" fill="#fe00ff" stroke="black" stroke-width="5"/>
<path d="M4,4579 l1485,0 l0,1218 l-1485,0 z" fill="#fe00ff" stroke="black" stroke-width="5"/>
<path d="M7134,3321 l42,0 l0,789 l-42,0 z" fill="#fd00ff" stroke="black" stroke-width="5"/>
<path d="M5201,1981 l217,0 l0,361 l-217,0 z" fill="#fe00ff" stroke="black" stroke-width="5"/>
<path d="M4916,577 l1095,0 l0,887 l-1095,0 z" fill="#fe00ff" stroke="black" stroke-width="5"/>
<path d="M2509,4869 l1569,0 l0,1193 l-1569,0 z" fill="#fe00ff" stroke="black" stroke-width="5"/>
<path d="M4655,2560 l24,0 l0,1325 l-24,0 z" fill="#ff00f9" stroke="black" stroke-width="5"/>
<path d="M4836,7242 l2183,0 l0,1270 l-2183,0 z" fill="#ee00ff" stroke="black" stroke-width="5"/>
<path d="M83,9485 l3385,0 l0,514 l-3385,0 z" fill="#ff00fe" stroke="black" stroke-width="5"/>
<path d="M8135,3529 l868,0 l0,385 l-868,0 z" fill="#fe00ff" stroke="black" stroke-width="5"/>
<path d="M8574,8644 l1078,0 l0,1027 l-1078,0 z" fill="#ff00fe" stroke="black" stroke-width="5"/>
<path d="M2944,1056 l578,0 l0,1159 l-578,0 z" fill="#ff00fe" stroke="black" stroke-width="5"/>
<path d="M6271,4111 l1368,0 l0,1534 l-1368,0 z" fill="#ff00fe" stroke="black" stroke-width="5"/>
<path d="M7031,7610 l2964,0 l0,588 l-2964,0 z" fill="#ff00fe" stroke="black" stroke-width="5"/>
<path d="M8108,3914 l1866,0 l0,840 l-1866,0 z" fill="#4600ff" stroke="black" stroke-width="5"/>
<path d="M2300,8802 l1277,0 l0,679 l-1277,0 z" fill="#f700ff" stroke="black" stroke-width="5"/>
<path d="M7641,3324 l448,0 l0,2111 l-448,0 z" fill="#fe00ff" stroke="black" stroke-width="5"/>
<path d="M7959,41 l2007,0 l0,284 l-2007,0 z" fill="#ff00fe" stroke="black" stroke-width="5"/>
<path d="M6043,1078 l1867,0 l0,422 l-1867,0 z" fill="#ff00fe" stroke="black" stroke-width="5"/>
<path d="M74,2337 l2707,0 l0,348 l-2707,0 z" fill="#fe00ff" stroke="black" stroke-width="5"/>
<path d="M27,7651 l633,0 l0,1122 l-633,0 z" fill="#ff00fe" stroke="black" stroke-width="5"/>
<path d="M2040,3469 l2055,0 l0,1386 l-2055,0 z" fill="#d700ff" stroke="black" stroke-width="5"/>
<path d="M3619,7926 l1217,0 l0,2074 l-1217,0 z" fill="#f300ff" stroke="black" stroke-width="5"/>
<path d="M5412,3146 l1029,0 l0,738 l-1029,0 z" fill="#7e00ff" stroke="black" stroke-width="5"/>
<path d="M4096,3888 l2174,0 l0,1770 l-2174,0 z" fill="#ab00ff" stroke="black" stroke-width="5"/>
<path d="M1773,6624 l3053,0 l0,1298 l-3053,0 z" fill="#ff00fe" stroke="black" stroke-width="5"/>
<path d="M7033,8200 l2941,0 l0,407 l-2941,0 z" fill="#3d00ff" stroke="black" stroke-width="5"/>
<path d="M42,3568 l1472,0 l0,172 l-1472,0 z" fill="#fe00ff" stroke="black" stroke-width="5"/>
<path d="M5,6829 l902,0 l0,718 l-902,0 z" fill="#fe00ff" stroke="black" stroke-width="5"/>
<path d="M27,3745 l1986,0 l0,827 l-1986,0 z" fill="#fa00ff" stroke="black" stroke-width="5"/>
<path d="M7997,6516 l1141,0 l0,1068 l-1141,0 z" fill="#fe00ff" stroke="black" stroke-width="5"/>
<path d="M4320,5659 l691,0 l0,956 l-691,0 z" fill="#ff00fe" stroke="black" stroke-width="5"/>
<path d="M1118,2701 l3515,0 l0,767 l-3515,0 z" fill="#ff00fe" stroke="black" stroke-width="5"/>
<path d="M4685,2428 l720,0 l0,1453 l-720,0 z" fill="#ff00fe" stroke="black" stroke-width="5"/>
<path d="M0,929 l2943,0 l0,1402 l-2943,0 z" fill="#9e00ff" stroke="black" stroke-width="5"/>
<path d="M670,7936 l2943,0 l0,864 l-2943,0 z" fill="#4100ff" stroke="black" stroke-width="5"/>
<path d="M4844,8515 l1997,0 l0,1485 l-1997,0 z" fill="#dc00ff" stroke="black" stroke-width="5"/>
<path d="M7302,8607 l1268,0 l0,883 l-1268,0 z" fill="#3f00ff" stroke="black" stroke-width="5"/>
<path d="M2239,8868 l59,0 l0,405 l-59,0 z" fill="#ff00fe" stroke="black" stroke-width="5"/>
<path d="M4312,6176 l1,0 l0,1 l-1,0 z" fill="#0000ff" stroke="black" stroke-width="5"/>
<path d="M1879,330 l60,0 l0,60 l-60,0 z" fill="green"/>
<path d="M1909,360 l-157.5,105" stroke="black" stroke-width="5"/>
<path d="M5780,7061 l60,0 l0,60 l-60,0 z" fill="green"/>
<path d="M5810,7091 l699,-640.5" stroke="black" stroke-width="5"/>
<path d="M5377,392 l60,0 l0,60 l-60,0 z" fill="green"/>
<path d="M5407,422 l-128,-134" stroke="black" stroke-width="5"/>
<path d="M5737,3110 l60,0 l0,60 l-60,0 z" fill="green"/>
<path d="M5767,3140 l-80,-822.5" stroke="black" stroke-width="5"/>
<path d="M6629,3204 l60,0 l0,60 l-60,0 z" fill="green"/>
<path d="M6659,3234 l94,-249.5" stroke="black" stroke-width="5"/>
<path d="M4176,1590 l60,0 l0,60 l-60,0 z" fill="green"/>
<path d="M4206,1620 l27.5,-126" stroke="black" stroke-width="5"/>
<path d="M7823,9462 l60,0 l0,60 l-60,0 z" fill="green"/>
<path d="M7853,9492 l-110.5,251.5" stroke="black" stroke-width="5"/>
<path d="M7845,402 l60,0 l0,60 l-60,0 z" fill="green"/>
<path d="M7875,432 l-381,-99" stroke="black" stroke-width="5"/>
<path d="M9018,5029 l60,0 l0,60 l-60,0 z" fill="green"/>
<path d="M9048,5059 l-49.5,239.5" stroke="black" stroke-width="5"/>
<path d="M7262,9040 l60,0 l0,60 l-60,0 z" fill="green"/>
<path d="M7292,9070 l-221,163.5" stroke="black" stroke-width="5"/>
<path d="M7603,2466 l60,0 l0,60 l-60,0 z" fill="green"/>
<path d="M7633,2496 l-67,-66" stroke="black" stroke-width="5"/>
<path d="M391,4805 l60,0 l0,60 l-60,0 z" fill="green"/>
<path d="M421,4835 l325.5,353" stroke="black" stroke-width="5"/>
<path d="M7134,4079 l60,0 l0,60 l-60,0 z" fill="green"/>
<path d="M7164,4109 l-9,-393.5" stroke="black" stroke-width="5"/>
<path d="M5326,2241 l60,0 l0,60 l-60,0 z" fill="green"/>
<path d="M5356,2271 l-46.5,-109.5" stroke="black" stroke-width="5"/>
<path d="M5231,547 l60,0 l0,60 l-60,0 z" fill="green"/>
<path d="M5261,577 l202.5,443.5" stroke="black" stroke-width="5"/>
<path d="M3516,5195 l60,0 l0,60 l-60,0 z" fill="green"/>
<path d="M3546,5225 l-252.5,240.5" stroke="black" stroke-width="5"/>
<path d="M4637,3356 l60,0 l0,60 l-60,0 z" fill="green"/>
<path d="M4667,3386 l0,-163.5" stroke="black" stroke-width="5"/>
<path d="M5566,7866 l60,0 l0,60 l-60,0 z" fill="green"/>
<path d="M5596,7896 l331.5,-19" stroke="black" stroke-width="5"/>
<path d="M2488,9783 l60,0 l0,60 l-60,0 z" fill="green"/>
<path d="M2518,9813 l-742.5,-71" stroke="black" stroke-width="5"/>
<path d="M8972,3883 l60,0 l0,60 l-60,0 z" fill="green"/>
<path d="M9002,3913 l-433,-191.5" stroke="black" stroke-width="5"/>
<path d="M8544,8917 l60,0 l0,60 l-60,0 z" fill="green"/>
<path d="M8574,8947 l539,210.5" stroke="black" stroke-width="5"/>
<path d="M3088,1743 l60,0 l0,60 l-60,0 z" fill="green"/>
<path d="M3118,1773 l115,-137.5" stroke="black" stroke-width="5"/>
<path d="M7110,4358 l60,0 l0,60 l-60,0 z" fill="green"/>
<path d="M7140,4388 l-185,490" stroke="black" stroke-width="5"/>
<path d="M8514,8166 l60,0 l0,60 l-60,0 z" fill="green"/>
<path d="M8544,8196 l-31,-292" stroke="black" stroke-width="5"/>
<path d="M8547,4307 l60,0 l0,60 l-60,0 z" fill="green"/>
<path d="M8577,4337 l464,-3" stroke="black" stroke-width="5"/>
<path d="M3125,9138 l60,0 l0,60 l-60,0 z" fill="green"/>
<path d="M3155,9168 l-216.5,-26.5" stroke="black" stroke-width="5"/>
<path d="M7793,4374 l60,0 l0,60 l-60,0 z" fill="green"/>
<path d="M7823,4404 l42,-24.5" stroke="black" stroke-width="5"/>
<path d="M9421,80 l60,0 l0,60 l-60,0 z" fill="green"/>
<path d="M9451,110 l-488.5,73" stroke="black" stroke-width="5"/>
<path d="M7001,1359 l60,0 l0,60 l-60,0 z" fill="green"/>
<path d="M7031,1389 l-54.5,-100" stroke="black" stroke-width="5"/>
<path d="M1811,2307 l60,0 l0,60 l-60,0 z" fill="green"/>
<path d="M1841,2337 l-413.5,174" stroke="black" stroke-width="5"/>
<path d="M46,8334 l60,0 l0,60 l-60,0 z" fill="green"/>
<path d="M76,8364 l267.5,-152" stroke="black" stroke-width="5"/>
<path d="M3513,3901 l60,0 l0,60 l-60,0 z" fill="green"/>
<path d="M3543,3931 l-475.5,231" stroke="black" stroke-width="5"/>
<path d="M3897,8798 l60,0 l0,60 l-60,0 z" fill="green"/>
<path d="M3927,8828 l300.5,135" stroke="black" stroke-width="5"/>
<path d="M5641,3275 l60,0 l0,60 l-60,0 z" fill="green"/>
<path d="M5671,3305 l255.5,210" stroke="black" stroke-width="5"/>
<path d="M5512,4557 l60,0 l0,60 l-60,0 z" fill="green"/>
<path d="M5542,4587 l-359,186" stroke="black" stroke-width="5"/>
<path d="M4000,7702 l60,0 l0,60 l-60,0 z" fill="green"/>
<path d="M4030,7732 l-730.5,-459" stroke="black" stroke-width="5"/>
<path d="M8545,8170 l60,0 l0,60 l-60,0 z" fill="green"/>
<path d="M8575,8200 l-71.5,203.5" stroke="black" stroke-width="5"/>
<path d="M1109,3709 l60,0 l0,60 l-60,0 z" fill="green"/>
<path d="M1139,3739 l-361,-85" stroke="black" stroke-width="5"/>
<path d="M20,7385 l60,0 l0,60 l-60,0 z" fill="green"/>
<path d="M50,7415 l406,-227" stroke="black" stroke-width="5"/>
<path d="M904,4026 l60,0 l0,60 l-60,0 z" fill="green"/>
<path d="M934,4056 l86,102.5" stroke="black" stroke-width="5"/>
<path d="M8771,7148 l60,0 l0,60 l-60,0 z" fill="green"/>
<path d="M8801,7178 l-233.5,-128" stroke="black" stroke-width="5"/>
<path d="M4469,6177 l60,0 l0,60 l-60,0 z" fill="green"/>
<path d="M4499,6207 l166.5,-70" stroke="black" stroke-width="5"/>
<path d="M3066,3345 l60,0 l0,60 l-60,0 z" fill="green"/>
<path d="M3096,3375 l-220.5,-290.5" stroke="black" stroke-width="5"/>
<path d="M5222,3251 l60,0 l0,60 l-60,0 z" fill="green"/>
<path d="M5252,3281 l-207,-126.5" stroke="black" stroke-width="5"/>
<path d="M2217,1416 l60,0 l0,60 l-60,0 z" fill="green"/>
<path d="M2247,1446 l-775.5,184" stroke="black" stroke-width="5"/>
<path d="M3317,8471 l60,0 l0,60 l-60,0 z" fill="green"/>
<path d="M3347,8501 l-1205.5,-133" stroke="black" stroke-width="5"/>
<path d="M5761,8570 l60,0 l0,60 l-60,0 z" fill="green"/>
<path d="M5791,8600 l51.5,657.5" stroke="black" stroke-width="5"/>
<path d="M8003,8962 l60,0 l0,60 l-60,0 z" fill="green"/>
<path d="M8033,8992 l-97,56.5" stroke="black" stroke-width="5"/>
<path d="M2267,9224 l60,0 l0,60 l-60,0 z" fill="green"/>
<path d="M2297,9254 l-28.5,-183.5" stroke="black" stroke-width="5"/>
<path d="M4282,6146 l60,0 l0,60 l-60,0 z" fill="green"/>
<path d="M4312,6176 l0.5,0.5" stroke="black" stroke-width="5"/>
<text font-size="200" text-anchor="middle" x="1751.5" y="535">
0
</text>
<text font-size="200" text-anchor="middle" x="6509" y="6520.5">
1
</text>
<text font-size="200" text-anchor="middle" x="5279" y="358">
2
</text>
<text font-size="200" text-anchor="middle" x="5687" y="2387.5">
3
</text>
<text font-size="200" text-anchor="middle" x="6753" y="3054.5">
4
</text>
<text font-size="200" text-anchor="middle" x="4233.5" y="1564">
5
</text>
<text font-size="200" text-anchor="middle" x="7742.5" y="9813.5">
6
</text>
<text font-size="200" text-anchor="middle" x="7494" y="403">
7
</text>
<text font-size="200" text-anchor="middle" x="8998.5" y="5368.5">
8
</text>
<text font-size="200" text-anchor="middle" x="7071" y="9303.5">
9
</text>
<text font-size="200" text-anchor="middle" x="7566" y="2500">
10
</text>
<text font-size="200" text-anchor="middle" x="746.5" y="5258">
11
</text>
<text font-size="200" text-anchor="middle" x="7155" y="3785.5">
12
</text>
<text font-size="200" text-anchor="middle" x="5309.5" y="2231.5">
13
</text>
<text font-size="200" text-anchor="middle" x="5463.5" y="1090.5">
14
</text>
<text font-size="200" text-anchor="middle" x="3293.5" y="5535.5">
15
</text>
<text font-size="200" text-anchor="middle" x="4667" y="3292.5">
16
</text>
<text font-size="200" text-anchor="middle" x="5927.5" y="7947">
17
</text>
<text font-size="200" text-anchor="middle" x="1775.5" y="9812">
18
</text>
<text font-size="200" text-anchor="middle" x="8569" y="3791.5">
19
</text>
<text font-size="200" text-anchor="middle" x="9113" y="9227.5">
20
</text>
<text font-size="200" text-anchor="middle" x="3233" y="1705.5">
21
</text>
<text font-size="200" text-anchor="middle" x="6955" y="4948">
22
</text>
<text font-size="200" text-anchor="middle" x="8513" y="7974">
23
</text>
<text font-size="200" text-anchor="middle" x="9041" y="4404">
24
</text>
<text font-size="200" text-anchor="middle" x="2938.5" y="9211.5">
25
</text>
<text font-size="200" text-anchor="middle" x="7865" y="4449.5">
26
</text>
<text font-size="200" text-anchor="middle" x="8962.5" y="253">
27
</text>
<text font-size="200" text-anchor="middle" x="6976.5" y="1359">
28
</text>
<text font-size="200" text-anchor="middle" x="1427.5" y="2581">
29
</text>
<text font-size="200" text-anchor="middle" x="343.5" y="8282">
30
</text>
<text font-size="200" text-anchor="middle" x="3067.5" y="4232">
31
</text>
<text font-size="200" text-anchor="middle" x="4227.5" y="9033">
32
</text>
<text font-size="200" text-anchor="middle" x="5926.5" y="3585">
33
</text>
<text font-size="200" text-anchor="middle" x="5183" y="4843">
34
</text>
<text font-size="200" text-anchor="middle" x="3299.5" y="7343">
35
</text>
<text font-size="200" text-anchor="middle" x="8503.5" y="8473.5">
36
</text>
<text font-size="200" text-anchor="middle" x="778" y="3724">
37
</text>
<text font-size="200" text-anchor="middle" x="456" y="7258">
38
</text>
<text font-size="200" text-anchor="middle" x="1020" y="4228.5">
39
</text>
<text font-size="200" text-anchor="middle" x="8567.5" y="7120">
40
</text>
<text font-size="200" text-anchor="middle" x="4665.5" y="6207">
41
</text>
<text font-size="200" text-anchor="middle" x="2875.5" y="3154.5">
42
</text>
<text font-size="200" text-anchor="middle" x="5045" y="3224.5">
43
</text>
<text font-size="200" text-anchor="middle" x="1471.5" y="1700">
44
</text>
<text font-size="200" text-anchor="middle" x="2141.5" y="8438">
45
</text>
<text font-size="200" text-anchor="middle" x="5842.5" y="9327.5">
46
</text>
<text font-size="200" text-anchor="middle" x="7936" y="9118.5">
47
</text>
<text font-size="200" text-anchor="middle" x="2268.5" y="9140.5">
48
</text>
<text font-size="200" text-anchor="middle" x="4312.5" y="6246.5">
49
</text>
</svg>