<svg viewBox="-100 -100 10200 10200" xmlns="http://www.w3.org/2000/svg">
<path d="M0,0 l10000,0 l0,10000 l-10000,0 z" fill="white"/>
<path d="M0,4 l3492,0 l0,880 l-3492,0 z" fill="#7500ff" stroke="black" stroke-width="5"/>
<path d="M5017,5661 l3011,0 l0,1548 l-3011,0 z" fill="#fe00ff" stroke="black" stroke-width="5"/>
<path d="M3537,1 l3766,0 l0,533 l-3766,0 z" fill="#fe00ff" stroke="black" stroke-width="5"/>
<path d="M5519,1652 l450,0 l0,1489 l-450,0 z" fill="#fe00ff" stroke="black" stroke-width="5"/>
<path d="M6481,2310 l625,0 l0,1474 l-625,0 z" fill="#ff00fe" stroke="black" stroke-width="5"/>
<path d="M3583,537 l1340,0 l0,1856 l-1340,0 z" fill="#fe00ff" stroke="black" stroke-width="5"/>
<path d="M7358,9492 l908,0 l0,482 l-908,0 z" fill="#fe00ff" stroke="black" stroke-width="5"/>
<path d="M7317,25 l714,0 l0,821 l-714,0 z" fill="#ff00fe" stroke="black" stroke-width="5"/>
<path d="M8162,4837 l1809,0 l0,998 l-1809,0 z" fill="#fe00ff" stroke="black" stroke-width="5"/>
<path d="M6923,8690 l396,0 l0,1286 l-396,0 z" fill="#ff00fe" stroke="black" stroke-width="5"/>
<path d="M7111,1578 l931,0 l0,1674 l-931,0 z" fill="#ff00fe" stroke="black" stroke-width="5"/>
<path d="M25,4628 l1455,0 l0,1243 l-1455,0 z" fill="#fe00ff" stroke="black" stroke-width="5"/>
<path d="M7125,3255 l40,0 l0,855 l-40,0 z" fill="#fe00ff" stroke="black" stroke-width="5"/>
<path d="M5350,1851 l153,0 l0,513 l-153,0 z" fill="#ff00fe" stroke="black" stroke-width="5"/>
<path d="M4925,561 l1064,0 l0,913 l-1064,0 z" fill="#ff00fe" stroke="black" stroke-width="5"/>
<path d="M2444,4962 l1664,0 l0,1125 l-1664,0 z" fill="#ff00fe" stroke="black" stroke-width="5"/>
<path d="M4645,2394 l23,0 l0,1298 l-23,0 z" fill="#ff00fe" stroke="black" stroke-width="5"/>
<path d="M4830,7210 l2181,0 l0,1315 l-2181,0 z" fill="#f300ff" stroke="black" stroke-width="5"/>
<path d="M8,9504 l3593,0 l0,484 l-3593,0 z" fill="#fe00ff" stroke="black" stroke-width="5"/>
<path d="M8228,3492 l793,0 l0,422 l-793,0 z" fill="#ff00fe" stroke="black" stroke-width="5"/>
<path d="M8570,8688 l1089,0 l0,1017 l-1089,0 z" fill="#ff00fe" stroke="black" stroke-width="5"/>
<path d="M3004,990 l524,0 l0,1278 l-524,0 z" fill="#fe00ff" stroke="black" stroke-width="5"/>
<path d="M6305,4113 l1378,0 l0,1523 l-1378,0 z" fill="#ff00fe" stroke="black" stroke-width="5"/>
<path d="M7045,7598 l2909,0 l0,599 l-2909,0 z" fill="#ff00ff" stroke="black" stroke-width="5"/>
<path d="M8150,3929 l1831,0 l0,898 l-1831,0 z" fill="#4d00ff" stroke="black" stroke-width="5"/>
<path d="M2303,8783 l1348,0 l0,721 l-1348,0 z" fill="#fe00ff" stroke="black" stroke-width="5"/>
<path d="M7697,3291 l441,0 l0,2145 l-441,0 z" fill="#ff00fe" stroke="black" stroke-width="5"/>
<path d="M8050,110 l1811,0 l0,314 l-1811,0 z" fill="#fe00ff" stroke="black" stroke-width="5"/>
<path d="M6050,980 l1778,0 l0,443 l-1778,0 z" fill="#fe00ff" stroke="black" stroke-width="5"/>
<path d="M265,2337 l2881,0 l0,327 l-2881,0 z" fill="#fe00ff" stroke="black" stroke-width="5"/>
<path d="M58,7841 l582,0 l0,1220 l-582,0 z" fill="#fe00ff" stroke="black" stroke-width="5"/>
<path d="M2002,3380 l2221,0 l0,1579 l-2221,0 z" fill="#fa00ff" stroke="black" stroke-width="5"/>
<path d="M3652,7933 l1163,0 l0,2060 l-1163,0 z" fill="#eb00ff" stroke="black" stroke-width="5"/>
<path d="M5340,3154 l1113,0 l0,807 l-1113,0 z" fill="#a200ff" stroke="black" stroke-width="5"/>
<path d="M4227,3963 l2074,0 l0,1682 l-2074,0 z" fill="#9500ff" stroke="black" stroke-width="5"/>
<path d="M1773,6624 l3053,0 l0,1298 l-3053,0 z" fill="#ff00fe" stroke="black" stroke-width="5"/>
<path d="M7016,8197 l2981,0 l0,483 l-2981,0 z" fill="#5500ff" stroke="black" stroke-width="5"/>
<path d="M158,3529 l1203,0 l0,211 l-1203,0 z" fill="#fe00ff" stroke="black" stroke-width="5"/>
<path d="M3,6759 l897,0 l0,722 l-897,0 z" fill="#fe00ff" stroke="black" stroke-width="5"/>
<path d="M1,3740 l2001,0 l0,886 l-2001,0 z" fill="#fe00ff" stroke="black" stroke-width="5"/>
<path d="M8146,6444 l1121,0 l0,1087 l-1121,0 z" fill="#fe00ff" stroke="black" stroke-width="5"/>
<path d="M4315,5650 l687,0 l0,968 l-687,0 z" fill="#ff00fe" stroke="black" stroke-width="5"/>
<path d="M757,2668 l3797,0 l0,710 l-3797,0 z" fill="#ff00fe" stroke="black" stroke-width="5"/>
<path d="M4675,2410 l659,0 l0,1538 l-659,0 z" fill="#fe00ff" stroke="black" stroke-width="5"/>
<path d="M2,884 l3002,0 l0,1453 l-3002,0 z" fill="#aa00ff" stroke="black" stroke-width="5"/>
<path d="M653,7922 l2994,0 l0,856 l-2994,0 z" fill="#4100ff" stroke="black" stroke-width="5"/>
<path d="M4824,8535 l2099,0 l0,1465 l-2099,0 z" fill="#e300ff" stroke="black" stroke-width="5"/>
<path d="M7321,8684 l1237,0 l0,800 l-1237,0 z" fill="#3200ff" stroke="black" stroke-width="5"/>
<path d="M2174,9062 l124,0 l0,194 l-124,0 z" fill="#ff00fe" stroke="black" stroke-width="5"/>
<path d="M4312,6176 l1,0 l0,1 l-1,0 z" fill="#0000ff" stroke="black" stroke-width="5"/>
<path d="M1879,330 l60,0 l0,60 l-60,0 z" fill="green"/>
<path d="M1909,360 l-163,84" stroke="black" stroke-width="5"/>
<path d="M5780,7061 l60,0 l0,60 l-60,0 z" fill="green"/>
<path d="M5810,7091 l712.5,-656" stroke="black" stroke-width="5"/>
<path d="M5377,392 l60,0 l0,60 l-60,0 z" fill="green"/>
<path d="M5407,422 l13,-154.5" stroke="black" stroke-width="5"/>
<path d="M5737,3110 l60,0 l0,60 l-60,0 z" fill="green"/>
<path d="M5767,3140 l-23,-743.5" stroke="black" stroke-width="5"/>
<path d="M6629,3204 l60,0 l0,60 l-60,0 z" fill="green"/>
<path d="M6659,3234 l134.5,-187" stroke="black" stroke-width="5"/>
<path d="M4176,1590 l60,0 l0,60 l-60,0 z" fill="green"/>
<path d="M4206,1620 l47,-155" stroke="black" stroke-width="5"/>
<path d="M7823,9462 l60,0 l0,60 l-60,0 z" fill="green"/>
<path d="M7853,9492 l-41,241" stroke="black" stroke-width="5"/>
<path d="M7845,402 l60,0 l0,60 l-60,0 z" fill="green"/>
<path d="M7875,432 l-201,3.5" stroke="black" stroke-width="5"/>
<path d="M9018,5029 l60,0 l0,60 l-60,0 z" fill="green"/>
<path d="M9048,5059 l18.5,277" stroke="black" stroke-width="5"/>
<path d="M7262,9040 l60,0 l0,60 l-60,0 z" fill="green"/>
<path d="M7292,9070 l-171,263" stroke="black" stroke-width="5"/>
<path d="M7603,2466 l60,0 l0,60 l-60,0 z" fill="green"/>
<path d="M7633,2496 l-56.5,-81" stroke="black" stroke-width="5"/>
<path d="M391,4805 l60,0 l0,60 l-60,0 z" fill="green"/>
<path d="M421,4835 l331.5,414.5" stroke="black" stroke-width="5"/>
<path d="M7134,4079 l60,0 l0,60 l-60,0 z" fill="green"/>
<path d="M7164,4109 l-19,-426.5" stroke="black" stroke-width="5"/>
<path d="M5326,2241 l60,0 l0,60 l-60,0 z" fill="green"/>
<path d="M5356,2271 l70.5,-163.5" stroke="black" stroke-width="5"/>
<path d="M5231,547 l60,0 l0,60 l-60,0 z" fill="green"/>
<path d="M5261,577 l196,440.5" stroke="black" stroke-width="5"/>
<path d="M3516,5195 l60,0 l0,60 l-60,0 z" fill="green"/>
<path d="M3546,5225 l-270,299.5" stroke="black" stroke-width="5"/>
<path d="M4637,3356 l60,0 l0,60 l-60,0 z" fill="green"/>
<path d="M4667,3386 l-10.5,-343" stroke="black" stroke-width="5"/>
<path d="M5566,7866 l60,0 l0,60 l-60,0 z" fill="green"/>
<path d="M5596,7896 l324.5,-28.5" stroke="black" stroke-width="5"/>
<path d="M2488,9783 l60,0 l0,60 l-60,0 z" fill="green"/>
<path d="M2518,9813 l-713.5,-67" stroke="black" stroke-width="5"/>
<path d="M8972,3883 l60,0 l0,60 l-60,0 z" fill="green"/>
<path d="M9002,3913 l-377.5,-210" stroke="black" stroke-width="5"/>
<path d="M8544,8917 l60,0 l0,60 l-60,0 z" fill="green"/>
<path d="M8574,8947 l540.5,249.5" stroke="black" stroke-width="5"/>
<path d="M3088,1743 l60,0 l0,60 l-60,0 z" fill="green"/>
<path d="M3118,1773 l148,-144" stroke="black" stroke-width="5"/>
<path d="M7110,4358 l60,0 l0,60 l-60,0 z" fill="green"/>
<path d="M7140,4388 l-146,486.5" stroke="black" stroke-width="5"/>
<path d="M8514,8166 l60,0 l0,60 l-60,0 z" fill="green"/>
<path d="M8544,8196 l-44.5,-298.5" stroke="black" stroke-width="5"/>
<path d="M8547,4307 l60,0 l0,60 l-60,0 z" fill="green"/>
<path d="M8577,4337 l488.5,41" stroke="black" stroke-width="5"/>
<path d="M3125,9138 l60,0 l0,60 l-60,0 z" fill="green"/>
<path d="M3155,9168 l-178,-24.5" stroke="black" stroke-width="5"/>
<path d="M7793,4374 l60,0 l0,60 l-60,0 z" fill="green"/>
<path d="M7823,4404 l94.5,-40.5" stroke="black" stroke-width="5"/>
<path d="M9421,80 l60,0 l0,60 l-60,0 z" fill="green"/>
<path d="M9451,110 l-495.5,157" stroke="black" stroke-width="5"/>
<path d="M7001,1359 l60,0 l0,60 l-60,0 z" fill="green"/>
<path d="M7031,1389 l-92,-187.5" stroke="black" stroke-width="5"/>
<path d="M1811,2307 l60,0 l0,60 l-60,0 z" fill="green"/>
<path d="M1841,2337 l-135.5,163.5" stroke="black" stroke-width="5"/>
<path d="M46,8334 l60,0 l0,60 l-60,0 z" fill="green"/>
<path d="M76,8364 l273,87" stroke="black" stroke-width="5"/>
<path d="M3513,3901 l60,0 l0,60 l-60,0 z" fill="green"/>
<path d="M3543,3931 l-430.5,238.5" stroke="black" stroke-width="5"/>
<path d="M3897,8798 l60,0 l0,60 l-60,0 z" fill="green"/>
<path d="M3927,8828 l306.5,135" stroke="black" stroke-width="5"/>
<path d="M5641,3275 l60,0 l0,60 l-60,0 z" fill="green"/>
<path d="M5671,3305 l225.5,252.5" stroke="black" stroke-width="5"/>
<path d="M5512,4557 l60,0 l0,60 l-60,0 z" fill="green"/>
<path d="M5542,4587 l-278,217" stroke="black" stroke-width="5"/>
<path d="M4000,7702 l60,0 l0,60 l-60,0 z" fill="green"/>
<path d="M4030,7732 l-730.5,-459" stroke="black" stroke-width="5"/>
<path d="M8545,8170 l60,0 l0,60 l-60,0 z" fill="green"/>
<path d="M8575,8200 l-68.5,238.5" stroke="black" stroke-width="5"/>
<path d="M1109,3709 l60,0 l0,60 l-60,0 z" fill="green"/>
<path d="M1139,3739 l-379.5,-104.5" stroke="black" stroke-width="5"/>
<path d="M20,7385 l60,0 l0,60 l-60,0 z" fill="green"/>
<path d="M50,7415 l401.5,-295" stroke="black" stroke-width="5"/>
<path d="M904,4026 l60,0 l0,60 l-60,0 z" fill="green"/>
<path d="M934,4056 l67.5,127" stroke="black" stroke-width="5"/>
<path d="M8771,7148 l60,0 l0,60 l-60,0 z" fill="green"/>
<path d="M8801,7178 l-94.5,-190.5" stroke="black" stroke-width="5"/>
<path d="M4469,6177 l60,0 l0,60 l-60,0 z" fill="green"/>
<path d="M4499,6207 l159.5,-73" stroke="black" stroke-width="5"/>
<path d="M3066,3345 l60,0 l0,60 l-60,0 z" fill="green"/>
<path d="M3096,3375 l-440.5,-352" stroke="black" stroke-width="5"/>
<path d="M5222,3251 l60,0 l0,60 l-60,0 z" fill="green"/>
<path d="M5252,3281 l-247.5,-102" stroke="black" stroke-width="5"/>
<path d="M2217,1416 l60,0 l0,60 l-60,0 z" fill="green"/>
<path d="M2247,1446 l-744,164.5" stroke="black" stroke-width="5"/>
<path d="M3317,8471 l60,0 l0,60 l-60,0 z" fill="green"/>
<path d="M3347,8501 l-1197,-151" stroke="black" stroke-width="5"/>
<path d="M5761,8570 l60,0 l0,60 l-60,0 z" fill="green"/>
<path d="M5791,8600 l82.5,667.5" stroke="black" stroke-width="5"/>
<path d="M8003,8962 l60,0 l0,60 l-60,0 z" fill="green"/>
<path d="M8033,8992 l-93.5,92" stroke="black" stroke-width="5"/>
<path d="M2267,9224 l60,0 l0,60 l-60,0 z" fill="green"/>
<path d="M2297,9254 l-61,-95" stroke="black" stroke-width="5"/>
<path d="M4282,6146 l60,0 l0,60 l-60,0 z" fill="green"/>
<path d="M4312,6176 l0.5,0.5" stroke="black" stroke-width="5"/>
<text font-size="200" text-anchor="middle" x="1746" y="514">
0
</text>
<text font-size="200" text-anchor="middle" x="6522.5" y="6505">
1
</text>
<text font-size="200" text-anchor="middle" x="5420" y="337.5">
2
</text>
<text font-size="200" text-anchor="middle" x="5744" y="2466.5">
3
</text>
<text font-size="200" text-anchor="middle" x="6793.5" y="3117">
4
</text>
<text font-size="200" text-anchor="middle" x="4253" y="1535">
5
</text>
<text font-size="200" text-anchor="middle" x="7812" y="9803">
6
</text>
<text font-size="200" text-anchor="middle" x="7674" y="505.5">
7
</text>
<text font-size="200" text-anchor="middle" x="9066.5" y="5406">
8
</text>
<text font-size="200" text-anchor="middle" x="7121" y="9403">
9
</text>
<text font-size="200" text-anchor="middle" x="7576.5" y="2485">
10
</text>
<text font-size="200" text-anchor="middle" x="752.5" y="5319.5">
11
</text>
<text font-size="200" text-anchor="middle" x="7145" y="3752.5">
12
</text>
<text font-size="200" text-anchor="middle" x="5426.5" y="2177.5">
13
</text>
<text font-size="200" text-anchor="middle" x="5457" y="1087.5">
14
</text>
<text font-size="200" text-anchor="middle" x="3276" y="5594.5">
15
</text>
<text font-size="200" text-anchor="middle" x="4656.5" y="3113">
16
</text>
<text font-size="200" text-anchor="middle" x="5920.5" y="7937.5">
17
</text>
<text font-size="200" text-anchor="middle" x="1804.5" y="9816">
18
</text>
<text font-size="200" text-anchor="middle" x="8624.5" y="3773">
19
</text>
<text font-size="200" text-anchor="middle" x="9114.5" y="9266.5">
20
</text>
<text font-size="200" text-anchor="middle" x="3266" y="1699">
21
</text>
<text font-size="200" text-anchor="middle" x="6994" y="4944.5">
22
</text>
<text font-size="200" text-anchor="middle" x="8499.5" y="7967.5">
23
</text>
<text font-size="200" text-anchor="middle" x="9065.5" y="4448">
24
</text>
<text font-size="200" text-anchor="middle" x="2977" y="9213.5">
25
</text>
<text font-size="200" text-anchor="middle" x="7917.5" y="4433.5">
26
</text>
<text font-size="200" text-anchor="middle" x="8955.5" y="337">
27
</text>
<text font-size="200" text-anchor="middle" x="6939" y="1271.5">
28
</text>
<text font-size="200" text-anchor="middle" x="1705.5" y="2570.5">
29
</text>
<text font-size="200" text-anchor="middle" x="349" y="8521">
30
</text>
<text font-size="200" text-anchor="middle" x="3112.5" y="4239.5">
31
</text>
<text font-size="200" text-anchor="middle" x="4233.5" y="9033">
32
</text>
<text font-size="200" text-anchor="middle" x="5896.5" y="3627.5">
33
</text>
<text font-size="200" text-anchor="middle" x="5264" y="4874">
34
</text>
<text font-size="200" text-anchor="middle" x="3299.5" y="7343">
35
</text>
<text font-size="200" text-anchor="middle" x="8506.5" y="8508.5">
36
</text>
<text font-size="200" text-anchor="middle" x="759.5" y="3704.5">
37
</text>
<text font-size="200" text-anchor="middle" x="451.5" y="7190">
38
</text>
<text font-size="200" text-anchor="middle" x="1001.5" y="4253">
39
</text>
<text font-size="200" text-anchor="middle" x="8706.5" y="7057.5">
40
</text>
<text font-size="200" text-anchor="middle" x="4658.5" y="6204">
41
</text>
<text font-size="200" text-anchor="middle" x="2655.5" y="3093">
42
</text>
<text font-size="200" text-anchor="middle" x="5004.5" y="3249">
43
</text>
<text font-size="200" text-anchor="middle" x="1503" y="1680.5">
44
</text>
<text font-size="200" text-anchor="middle" x="2150" y="8420">
45
</text>
<text font-size="200" text-anchor="middle" x="5873.5" y="9337.5">
46
</text>
<text font-size="200" text-anchor="middle" x="7939.5" y="9154">
47
</text>
<text font-size="200" text-anchor="middle" x="2236" y="9229">
48
</text>
<text font-size="200" text-anchor="middle" x="4312.5" y="6246.5">
49
</text>
</svg>