<svg viewBox="-100 -100 10200 10200" xmlns="http://www.w3.org/2000/svg">
<path d="M0,0 l10000,0 l0,10000 l-10000,0 z" fill="white"/>
<path d="M15,0 l3519,0 l0,1012 l-3519,0 z" fill="#9300ff" stroke="black" stroke-width="5"/>
<path d="M5042,5646 l2906,0 l0,1604 l-2906,0 z" fill="#fe00ff" stroke="black" stroke-width="5"/>
<path d="M3535,2 l3539,0 l0,568 l-3539,0 z" fill="#ff00fe" stroke="black" stroke-width="5"/>
<path d="M5448,1970 l581,0 l0,1173 l-581,0 z" fill="#ff00fe" stroke="black" stroke-width="5"/>
<path d="M6188,2685 l858,0 l0,1073 l-858,0 z" fill="#ff00fe" stroke="black" stroke-width="5"/>
<path d="M3539,603 l1343,0 l0,1852 l-1343,0 z" fill="#fe00ff" stroke="black" stroke-width="5"/>
<path d="M7353,9492 l882,0 l0,499 l-882,0 z" fill="#fe00ff" stroke="black" stroke-width="5"/>
<path d="M7074,73 l1156,0 l0,507 l-1156,0 z" fill="#fe00ff" stroke="black" stroke-width="5"/>
<path d="M8170,4711 l1726,0 l0,1046 l-1726,0 z" fill="#fe00ff" stroke="black" stroke-width="5"/>
<path d="M6762,8639 l585,0 l0,871 l-585,0 z" fill="#ff00fe" stroke="black" stroke-width="5"/>
<path d="M7072,1691 l1020,0 l0,1528 l-1020,0 z" fill="#ff00fe" stroke="black" stroke-width="5"/>
<path d="M5,4518 l1467,0 l0,1233 l-1467,0 z" fill="#ff00fe" stroke="black" stroke-width="5"/>
<path d="M7148,3289 l43,0 l0,821 l-43,0 z" fill="#ff00fe" stroke="black" stroke-width="5"/>
<path d="M4949,2088 l426,0 l0,184 l-426,0 z" fill="#fe00ff" stroke="black" stroke-width="5"/>
<path d="M4888,577 l1089,0 l0,892 l-1089,0 z" fill="#fe00ff" stroke="black" stroke-width="5"/>
<path d="M2654,4665 l1475,0 l0,1269 l-1475,0 z" fill="#fe00ff" stroke="black" stroke-width="5"/>
<path d="M4641,2564 l27,0 l0,1056 l-27,0 z" fill="#fe00ff" stroke="black" stroke-width="5"/>
<path d="M4858,7254 l2164,0 l0,1182 l-2164,0 z" fill="#df00ff" stroke="black" stroke-width="5"/>
<path d="M23,9512 l3586,0 l0,485 l-3586,0 z" fill="#ff00fe" stroke="black" stroke-width="5"/>
<path d="M8589,3493 l795,0 l0,421 l-795,0 z" fill="#ff00fe" stroke="black" stroke-width="5"/>
<path d="M8442,8638 l1125,0 l0,984 l-1125,0 z" fill="#fe00ff" stroke="black" stroke-width="5"/>
<path d="M2817,1136 l705,0 l0,950 l-705,0 z" fill="#fe00ff" stroke="black" stroke-width="5"/>
<path d="M6427,4113 l1025,0 l0,1533 l-1025,0 z" fill="#d900ff" stroke="black" stroke-width="5"/>
<path d="M7033,7607 l2948,0 l0,591 l-2948,0 z" fill="#fe00ff" stroke="black" stroke-width="5"/>
<path d="M8095,3914 l1887,0 l0,796 l-1887,0 z" fill="#4100ff" stroke="black" stroke-width="5"/>
<path d="M2306,8742 l1303,0 l0,749 l-1303,0 z" fill="#fe00ff" stroke="black" stroke-width="5"/>
<path d="M7452,3661 l631,0 l0,1499 l-631,0 z" fill="#ff00fe" stroke="black" stroke-width="5"/>
<path d="M8521,79 l1422,0 l0,401 l-1422,0 z" fill="#ff00fe" stroke="black" stroke-width="5"/>
<path d="M6259,956 l1100,0 l0,716 l-1100,0 z" fill="#fe00ff" stroke="black" stroke-width="5"/>
<path d="M603,2212 l1826,0 l0,516 l-1826,0 z" fill="#fe00ff" stroke="black" stroke-width="5"/>
<path d="M3,7765 l668,0 l0,1063 l-668,0 z" fill="#fe00ff" stroke="black" stroke-width="5"/>
<path d="M1949,3598 l2175,0 l0,1062 l-2175,0 z" fill="#a700ff" stroke="black" stroke-width="5"/>
<path d="M3612,7975 l1152,0 l0,2014 l-1152,0 z" fill="#e500ff" stroke="black" stroke-width="5"/>
<path d="M5416,3154 l772,0 l0,750 l-772,0 z" fill="#5000ff" stroke="black" stroke-width="5"/>
<path d="M4129,3904 l2296,0 l0,1738 l-2296,0 z" fill="#b300ff" stroke="black" stroke-width="5"/>
<path d="M1889,6635 l2964,0 l0,1337 l-2964,0 z" fill="#ff00fe" stroke="black" stroke-width="5"/>
<path d="M7041,8200 l2949,0 l0,438 l-2949,0 z" fill="#4600ff" stroke="black" stroke-width="5"/>
<path d="M380,3448 l870,0 l0,292 l-870,0 z" fill="#ff00fe" stroke="black" stroke-width="5"/>
<path d="M49,6927 l788,0 l0,822 l-788,0 z" fill="#ff00fe" stroke="black" stroke-width="5"/>
<path d="M12,3740 l1898,0 l0,773 l-1898,0 z" fill="#ea00ff" stroke="black" stroke-width="5"/>
<path d="M7978,6521 l1182,0 l0,1031 l-1182,0 z" fill="#ff00fe" stroke="black" stroke-width="5"/>
<path d="M4329,5695 l708,0 l0,933 l-708,0 z" fill="#ff00fe" stroke="black" stroke-width="5"/>
<path d="M1373,2741 l3146,0 l0,857 l-3146,0 z" fill="#ff00fe" stroke="black" stroke-width="5"/>
<path d="M4675,2460 l733,0 l0,1427 l-733,0 z" fill="#fe00ff" stroke="black" stroke-width="5"/>
<path d="M2,1012 l2813,0 l0,1199 l-2813,0 z" fill="#7400ff" stroke="black" stroke-width="5"/>
<path d="M680,7972 l2932,0 l0,770 l-2932,0 z" fill="#3400ff" stroke="black" stroke-width="5"/>
<path d="M4766,8436 l1995,0 l0,1564 l-1995,0 z" fill="#e600ff" stroke="black" stroke-width="5"/>
<path d="M7351,8646 l1078,0 l0,836 l-1078,0 z" fill="#2a00ff" stroke="black" stroke-width="5"/>
<path d="M2086,9177 l212,0 l0,113 l-212,0 z" fill="#ff00fe" stroke="black" stroke-width="5"/>
<path d="M4312,6176 l1,0 l0,1 l-1,0 z" fill="#0000ff" stroke="black" stroke-width="5"/>
<path d="M1879,330 l60,0 l0,60 l-60,0 z" fill="green"/>
<path d="M1909,360 l-134.5,146" stroke="black" stroke-width="5"/>
<path d="M5780,7061 l60,0 l0,60 l-60,0 z" fill="green"/>
<path d="M5810,7091 l685,-643" stroke="black" stroke-width="5"/>
<path d="M5377,392 l60,0 l0,60 l-60,0 z" fill="green"/>
<path d="M5407,422 l-102.5,-136" stroke="black" stroke-width="5"/>
<path d="M5737,3110 l60,0 l0,60 l-60,0 z" fill="green"/>
<path d="M5767,3140 l-28.5,-583.5" stroke="black" stroke-width="5"/>
<path d="M6629,3204 l60,0 l0,60 l-60,0 z" fill="green"/>
<path d="M6659,3234 l-42,-12.5" stroke="black" stroke-width="5"/>
<path d="M4176,1590 l60,0 l0,60 l-60,0 z" fill="green"/>
<path d="M4206,1620 l4.5,-91" stroke="black" stroke-width="5"/>
<path d="M7823,9462 l60,0 l0,60 l-60,0 z" fill="green"/>
<path d="M7853,9492 l-59,249.5" stroke="black" stroke-width="5"/>
<path d="M7845,402 l60,0 l0,60 l-60,0 z" fill="green"/>
<path d="M7875,432 l-223,-105.5" stroke="black" stroke-width="5"/>
<path d="M9018,5029 l60,0 l0,60 l-60,0 z" fill="green"/>
<path d="M9048,5059 l-15,175" stroke="black" stroke-width="5"/>
<path d="M7262,9040 l60,0 l0,60 l-60,0 z" fill="green"/>
<path d="M7292,9070 l-237.5,4.5" stroke="black" stroke-width="5"/>
<path d="M7603,2466 l60,0 l0,60 l-60,0 z" fill="green"/>
<path d="M7633,2496 l-51,-41" stroke="black" stroke-width="5"/>
<path d="M391,4805 l60,0 l0,60 l-60,0 z" fill="green"/>
<path d="M421,4835 l317.5,299.5" stroke="black" stroke-width="5"/>
<path d="M7134,4079 l60,0 l0,60 l-60,0 z" fill="green"/>
<path d="M7164,4109 l5.5,-409.5" stroke="black" stroke-width="5"/>
<path d="M5326,2241 l60,0 l0,60 l-60,0 z" fill="green"/>
<path d="M5356,2271 l-194,-91" stroke="black" stroke-width="5"/>
<path d="M5231,547 l60,0 l0,60 l-60,0 z" fill="green"/>
<path d="M5261,577 l171.5,446" stroke="black" stroke-width="5"/>
<path d="M3516,5195 l60,0 l0,60 l-60,0 z" fill="green"/>
<path d="M3546,5225 l-154.5,74.5" stroke="black" stroke-width="5"/>
<path d="M4637,3356 l60,0 l0,60 l-60,0 z" fill="green"/>
<path d="M4667,3386 l-12.5,-294" stroke="black" stroke-width="5"/>
<path d="M5566,7866 l60,0 l0,60 l-60,0 z" fill="green"/>
<path d="M5596,7896 l344,-51" stroke="black" stroke-width="5"/>
<path d="M2488,9783 l60,0 l0,60 l-60,0 z" fill="green"/>
<path d="M2518,9813 l-702,-58.5" stroke="black" stroke-width="5"/>
<path d="M8972,3883 l60,0 l0,60 l-60,0 z" fill="green"/>
<path d="M9002,3913 l-15.5,-209.5" stroke="black" stroke-width="5"/>
<path d="M8544,8917 l60,0 l0,60 l-60,0 z" fill="green"/>
<path d="M8574,8947 l430.5,183" stroke="black" stroke-width="5"/>
<path d="M3088,1743 l60,0 l0,60 l-60,0 z" fill="green"/>
<path d="M3118,1773 l51.5,-162" stroke="black" stroke-width="5"/>
<path d="M7110,4358 l60,0 l0,60 l-60,0 z" fill="green"/>
<path d="M7140,4388 l-200.5,491.5" stroke="black" stroke-width="5"/>
<path d="M8514,8166 l60,0 l0,60 l-60,0 z" fill="green"/>
<path d="M8544,8196 l-37,-293.5" stroke="black" stroke-width="5"/>
<path d="M8547,4307 l60,0 l0,60 l-60,0 z" fill="green"/>
<path d="M8577,4337 l461.5,-25" stroke="black" stroke-width="5"/>
<path d="M3125,9138 l60,0 l0,60 l-60,0 z" fill="green"/>
<path d="M3155,9168 l-197.5,-51.5" stroke="black" stroke-width="5"/>
<path d="M7793,4374 l60,0 l0,60 l-60,0 z" fill="green"/>
<path d="M7823,4404 l-55.5,6.5" stroke="black" stroke-width="5"/>
<path d="M9421,80 l60,0 l0,60 l-60,0 z" fill="green"/>
<path d="M9451,110 l-219,169.5" stroke="black" stroke-width="5"/>
<path d="M7001,1359 l60,0 l0,60 l-60,0 z" fill="green"/>
<path d="M7031,1389 l-222,-75" stroke="black" stroke-width="5"/>
<path d="M1811,2307 l60,0 l0,60 l-60,0 z" fill="green"/>
<path d="M1841,2337 l-325,133" stroke="black" stroke-width="5"/>
<path d="M46,8334 l60,0 l0,60 l-60,0 z" fill="green"/>
<path d="M76,8364 l261,-67.5" stroke="black" stroke-width="5"/>
<path d="M3513,3901 l60,0 l0,60 l-60,0 z" fill="green"/>
<path d="M3543,3931 l-506.5,198" stroke="black" stroke-width="5"/>
<path d="M3897,8798 l60,0 l0,60 l-60,0 z" fill="green"/>
<path d="M3927,8828 l261,154" stroke="black" stroke-width="5"/>
<path d="M5641,3275 l60,0 l0,60 l-60,0 z" fill="green"/>
<path d="M5671,3305 l131,224" stroke="black" stroke-width="5"/>
<path d="M5512,4557 l60,0 l0,60 l-60,0 z" fill="green"/>
<path d="M5542,4587 l-265,186" stroke="black" stroke-width="5"/>
<path d="M4000,7702 l60,0 l0,60 l-60,0 z" fill="green"/>
<path d="M4030,7732 l-659,-428.5" stroke="black" stroke-width="5"/>
<path d="M8545,8170 l60,0 l0,60 l-60,0 z" fill="green"/>
<path d="M8575,8200 l-59.5,219" stroke="black" stroke-width="5"/>
<path d="M1109,3709 l60,0 l0,60 l-60,0 z" fill="green"/>
<path d="M1139,3739 l-324,-145" stroke="black" stroke-width="5"/>
<path d="M20,7385 l60,0 l0,60 l-60,0 z" fill="green"/>
<path d="M50,7415 l393,-77" stroke="black" stroke-width="5"/>
<path d="M904,4026 l60,0 l0,60 l-60,0 z" fill="green"/>
<path d="M934,4056 l27,70.5" stroke="black" stroke-width="5"/>
<path d="M8771,7148 l60,0 l0,60 l-60,0 z" fill="green"/>
<path d="M8801,7178 l-232,-141.5" stroke="black" stroke-width="5"/>
<path d="M4469,6177 l60,0 l0,60 l-60,0 z" fill="green"/>
<path d="M4499,6207 l184,-45.5" stroke="black" stroke-width="5"/>
<path d="M3066,3345 l60,0 l0,60 l-60,0 z" fill="green"/>
<path d="M3096,3375 l-150,-205.5" stroke="black" stroke-width="5"/>
<path d="M5222,3251 l60,0 l0,60 l-60,0 z" fill="green"/>
<path d="M5252,3281 l-210.5,-107.5" stroke="black" stroke-width="5"/>
<path d="M2217,1416 l60,0 l0,60 l-60,0 z" fill="green"/>
<path d="M2247,1446 l-838.5,165.5" stroke="black" stroke-width="5"/>
<path d="M3317,8471 l60,0 l0,60 l-60,0 z" fill="green"/>
<path d="M3347,8501 l-1201,-144" stroke="black" stroke-width="5"/>
<path d="M5761,8570 l60,0 l0,60 l-60,0 z" fill="green"/>
<path d="M5791,8600 l-27.5,618" stroke="black" stroke-width="5"/>
<path d="M8003,8962 l60,0 l0,60 l-60,0 z" fill="green"/>
<path d="M8033,8992 l-143,72" stroke="black" stroke-width="5"/>
<path d="M2267,9224 l60,0 l0,60 l-60,0 z" fill="green"/>
<path d="M2297,9254 l-105,-20.5" stroke="black" stroke-width="5"/>
<path d="M4282,6146 l60,0 l0,60 l-60,0 z" fill="green"/>
<path d="M4312,6176 l0.5,0.5" stroke="black" stroke-width="5"/>
<text font-size="200" text-anchor="middle" x="1774.5" y="576">
0
</text>
<text font-size="200" text-anchor="middle" x="6495" y="6518">
1
</text>
<text font-size="200" text-anchor="middle" x="5304.5" y="356">
2
</text>
<text font-size="200" text-anchor="middle" x="5738.5" y="2626.5">
3
</text>
<text font-size="200" text-anchor="middle" x="6617" y="3291.5">
4
</text>
<text font-size="200" text-anchor="middle" x="4210.5" y="1599">
5
</text>
<text font-size="200" text-anchor="middle" x="7794" y="9811.5">
6
</text>
<text font-size="200" text-anchor="middle" x="7652" y="396.5">
7
</text>
<text font-size="200" text-anchor="middle" x="9033" y="5304">
8
</text>
<text font-size="200" text-anchor="middle" x="7054.5" y="9144.5">
9
</text>
<text font-size="200" text-anchor="middle" x="7582" y="2525">
10
</text>
<text font-size="200" text-anchor="middle" x="738.5" y="5204.5">
11
</text>
<text font-size="200" text-anchor="middle" x="7169.5" y="3769.5">
12
</text>
<text font-size="200" text-anchor="middle" x="5162" y="2250">
13
</text>
<text font-size="200" text-anchor="middle" x="5432.5" y="1093">
14
</text>
<text font-size="200" text-anchor="middle" x="3391.5" y="5369.5">
15
</text>
<text font-size="200" text-anchor="middle" x="4654.5" y="3162">
16
</text>
<text font-size="200" text-anchor="middle" x="5940" y="7915">
17
</text>
<text font-size="200" text-anchor="middle" x="1816" y="9824.5">
18
</text>
<text font-size="200" text-anchor="middle" x="8986.5" y="3773.5">
19
</text>
<text font-size="200" text-anchor="middle" x="9004.5" y="9200">
20
</text>
<text font-size="200" text-anchor="middle" x="3169.5" y="1681">
21
</text>
<text font-size="200" text-anchor="middle" x="6939.5" y="4949.5">
22
</text>
<text font-size="200" text-anchor="middle" x="8507" y="7972.5">
23
</text>
<text font-size="200" text-anchor="middle" x="9038.5" y="4382">
24
</text>
<text font-size="200" text-anchor="middle" x="2957.5" y="9186.5">
25
</text>
<text font-size="200" text-anchor="middle" x="7767.5" y="4480.5">
26
</text>
<text font-size="200" text-anchor="middle" x="9232" y="349.5">
27
</text>
<text font-size="200" text-anchor="middle" x="6809" y="1384">
28
</text>
<text font-size="200" text-anchor="middle" x="1516" y="2540">
29
</text>
<text font-size="200" text-anchor="middle" x="337" y="8366.5">
30
</text>
<text font-size="200" text-anchor="middle" x="3036.5" y="4199">
31
</text>
<text font-size="200" text-anchor="middle" x="4188" y="9052">
32
</text>
<text font-size="200" text-anchor="middle" x="5802" y="3599">
33
</text>
<text font-size="200" text-anchor="middle" x="5277" y="4843">
34
</text>
<text font-size="200" text-anchor="middle" x="3371" y="7373.5">
35
</text>
<text font-size="200" text-anchor="middle" x="8515.5" y="8489">
36
</text>
<text font-size="200" text-anchor="middle" x="815" y="3664">
37
</text>
<text font-size="200" text-anchor="middle" x="443" y="7408">
38
</text>
<text font-size="200" text-anchor="middle" x="961" y="4196.5">
39
</text>
<text font-size="200" text-anchor="middle" x="8569" y="7106.5">
40
</text>
<text font-size="200" text-anchor="middle" x="4683" y="6231.5">
41
</text>
<text font-size="200" text-anchor="middle" x="2946" y="3239.5">
42
</text>
<text font-size="200" text-anchor="middle" x="5041.5" y="3243.5">
43
</text>
<text font-size="200" text-anchor="middle" x="1408.5" y="1681.5">
44
</text>
<text font-size="200" text-anchor="middle" x="2146" y="8427">
45
</text>
<text font-size="200" text-anchor="middle" x="5763.5" y="9288">
46
</text>
<text font-size="200" text-anchor="middle" x="7890" y="9134">
47
</text>
<text font-size="200" text-anchor="middle" x="2192" y="9303.5">
48
</text>
<text font-size="200" text-anchor="middle" x="4312.5" y="6246.5">
49
</text>
</svg>