<svg viewBox="-100 -100 10200 10200" xmlns="http://www.w3.org/2000/svg">
<path d="M0,0 l10000,0 l0,10000 l-10000,0 z" fill="white"/>
<path d="M12,0 l3516,0 l0,976 l-3516,0 z" fill="#8b00ff" stroke="black" stroke-width="5"/>
<path d="M5042,5646 l2906,0 l0,1604 l-2906,0 z" fill="#fe00ff" stroke="black" stroke-width="5"/>
<path d="M3537,1 l3494,0 l0,576 l-3494,0 z" fill="#ff00fe" stroke="black" stroke-width="5"/>
<path d="M5432,1748 l489,0 l0,1395 l-489,0 z" fill="#ff00fe" stroke="black" stroke-width="5"/>
<path d="M6283,2468 l769,0 l0,1197 l-769,0 z" fill="#fe00ff" stroke="black" stroke-width="5"/>
<path d="M3541,593 l1348,0 l0,1845 l-1348,0 z" fill="#fe00ff" stroke="black" stroke-width="5"/>
<path d="M7336,9492 l863,0 l0,508 l-863,0 z" fill="#fe00ff" stroke="black" stroke-width="5"/>
<path d="M7050,20 l935,0 l0,627 l-935,0 z" fill="#ff00fe" stroke="black" stroke-width="5"/>
<path d="M8170,4711 l1726,0 l0,1046 l-1726,0 z" fill="#fe00ff" stroke="black" stroke-width="5"/>
<path d="M6800,8678 l499,0 l0,1020 l-499,0 z" fill="#fe00ff" stroke="black" stroke-width="5"/>
<path d="M7105,1700 l990,0 l0,1574 l-990,0 z" fill="#fe00ff" stroke="black" stroke-width="5"/>
<path d="M4,4579 l1485,0 l0,1218 l-1485,0 z" fill="#fe00ff" stroke="black" stroke-width="5"/>
<path d="M7163,3358 l47,0 l0,752 l-47,0 z" fill="#ff00fe" stroke="black" stroke-width="5"/>
<path d="M4961,2184 l426,0 l0,183 l-426,0 z" fill="#fe00ff" stroke="black" stroke-width="5"/>
<path d="M4946,577 l1064,0 l0,913 l-1064,0 z" fill="#ff00fe" stroke="black" stroke-width="5"/>
<path d="M2618,4798 l1487,0 l0,1259 l-1487,0 z" fill="#ff00fe" stroke="black" stroke-width="5"/>
<path d="M4633,2528 l35,0 l0,862 l-35,0 z" fill="#ff00fd" stroke="black" stroke-width="5"/>
<path d="M4835,7252 l2211,0 l0,1151 l-2211,0 z" fill="#de00ff" stroke="black" stroke-width="5"/>
<path d="M45,9483 l3457,0 l0,503 l-3457,0 z" fill="#fe00ff" stroke="black" stroke-width="5"/>
<path d="M8466,3453 l725,0 l0,461 l-725,0 z" fill="#fe00ff" stroke="black" stroke-width="5"/>
<path d="M8471,8640 l1132,0 l0,978 l-1132,0 z" fill="#ff00fe" stroke="black" stroke-width="5"/>
<path d="M2876,1125 l598,0 l0,1120 l-598,0 z" fill="#fe00ff" stroke="black" stroke-width="5"/>
<path d="M6262,4112 l1367,0 l0,1523 l-1367,0 z" fill="#fe00ff" stroke="black" stroke-width="5"/>
<path d="M7054,7599 l2914,0 l0,598 l-2914,0 z" fill="#ff00fe" stroke="black" stroke-width="5"/>
<path d="M8137,3914 l1834,0 l0,797 l-1834,0 z" fill="#3e00ff" stroke="black" stroke-width="5"/>
<path d="M2307,8763 l1363,0 l0,716 l-1363,0 z" fill="#fe00ff" stroke="black" stroke-width="5"/>
<path d="M7635,3431 l498,0 l0,1899 l-498,0 z" fill="#fe00ff" stroke="black" stroke-width="5"/>
<path d="M8020,0 l1862,0 l0,306 l-1862,0 z" fill="#fe00ff" stroke="black" stroke-width="5"/>
<path d="M6144,1075 l1475,0 l0,534 l-1475,0 z" fill="#fe00ff" stroke="black" stroke-width="5"/>
<path d="M38,2337 l2670,0 l0,353 l-2670,0 z" fill="#ff00fe" stroke="black" stroke-width="5"/>
<path d="M10,7675 l634,0 l0,1120 l-634,0 z" fill="#fe00ff" stroke="black" stroke-width="5"/>
<path d="M2051,3513 l2062,0 l0,1283 l-2062,0 z" fill="#c600ff" stroke="black" stroke-width="5"/>
<path d="M3671,7948 l1150,0 l0,2040 l-1150,0 z" fill="#e700ff" stroke="black" stroke-width="5"/>
<path d="M5404,3145 l866,0 l0,782 l-866,0 z" fill="#6900ff" stroke="black" stroke-width="5"/>
<path d="M4113,3928 l2144,0 l0,1717 l-2144,0 z" fill="#a100ff" stroke="black" stroke-width="5"/>
<path d="M1845,6615 l2973,0 l0,1333 l-2973,0 z" fill="#ff00fe" stroke="black" stroke-width="5"/>
<path d="M7051,8200 l2941,0 l0,439 l-2941,0 z" fill="#4600ff" stroke="black" stroke-width="5"/>
<path d="M140,3539 l1263,0 l0,201 l-1263,0 z" fill="#fe00ff" stroke="black" stroke-width="5"/>
<path d="M26,6898 l858,0 l0,755 l-858,0 z" fill="#ff00fe" stroke="black" stroke-width="5"/>
<path d="M8,3742 l2025,0 l0,835 l-2025,0 z" fill="#fc00ff" stroke="black" stroke-width="5"/>
<path d="M7984,6553 l1175,0 l0,1037 l-1175,0 z" fill="#fe00ff" stroke="black" stroke-width="5"/>
<path d="M4326,5659 l693,0 l0,953 l-693,0 z" fill="#fe00ff" stroke="black" stroke-width="5"/>
<path d="M1224,2720 l3404,0 l0,792 l-3404,0 z" fill="#ff00fe" stroke="black" stroke-width="5"/>
<path d="M4675,2485 l729,0 l0,1435 l-729,0 z" fill="#fe00ff" stroke="black" stroke-width="5"/>
<path d="M9,976 l2866,0 l0,1355 l-2866,0 z" fill="#9000ff" stroke="black" stroke-width="5"/>
<path d="M645,7949 l2980,0 l0,811 l-2980,0 z" fill="#3b00ff" stroke="black" stroke-width="5"/>
<path d="M4821,8404 l1977,0 l0,1589 l-1977,0 z" fill="#e700ff" stroke="black" stroke-width="5"/>
<path d="M7318,8639 l1151,0 l0,852 l-1151,0 z" fill="#3100ff" stroke="black" stroke-width="5"/>
<path d="M2125,9128 l173,0 l0,138 l-173,0 z" fill="#ff00fe" stroke="black" stroke-width="5"/>
<path d="M4312,6176 l1,0 l0,1 l-1,0 z" fill="#0000ff" stroke="black" stroke-width="5"/>
<path d="M1879,330 l60,0 l0,60 l-60,0 z" fill="green"/>
<path d="M1909,360 l-139,128" stroke="black" stroke-width="5"/>
<path d="M5780,7061 l60,0 l0,60 l-60,0 z" fill="green"/>
<path d="M5810,7091 l685,-643" stroke="black" stroke-width="5"/>
<path d="M5377,392 l60,0 l0,60 l-60,0 z" fill="green"/>
<path d="M5407,422 l-123,-133" stroke="black" stroke-width="5"/>
<path d="M5737,3110 l60,0 l0,60 l-60,0 z" fill="green"/>
<path d="M5767,3140 l-90.5,-694.5" stroke="black" stroke-width="5"/>
<path d="M6629,3204 l60,0 l0,60 l-60,0 z" fill="green"/>
<path d="M6659,3234 l8.5,-167.5" stroke="black" stroke-width="5"/>
<path d="M4176,1590 l60,0 l0,60 l-60,0 z" fill="green"/>
<path d="M4206,1620 l9,-104.5" stroke="black" stroke-width="5"/>
<path d="M7823,9462 l60,0 l0,60 l-60,0 z" fill="green"/>
<path d="M7853,9492 l-85.5,254" stroke="black" stroke-width="5"/>
<path d="M7845,402 l60,0 l0,60 l-60,0 z" fill="green"/>
<path d="M7875,432 l-357.5,-98.5" stroke="black" stroke-width="5"/>
<path d="M9018,5029 l60,0 l0,60 l-60,0 z" fill="green"/>
<path d="M9048,5059 l-15,175" stroke="black" stroke-width="5"/>
<path d="M7262,9040 l60,0 l0,60 l-60,0 z" fill="green"/>
<path d="M7292,9070 l-242.5,118" stroke="black" stroke-width="5"/>
<path d="M7603,2466 l60,0 l0,60 l-60,0 z" fill="green"/>
<path d="M7633,2496 l-33,-9" stroke="black" stroke-width="5"/>
<path d="M391,4805 l60,0 l0,60 l-60,0 z" fill="green"/>
<path d="M421,4835 l325.5,353" stroke="black" stroke-width="5"/>
<path d="M7134,4079 l60,0 l0,60 l-60,0 z" fill="green"/>
<path d="M7164,4109 l22.5,-375" stroke="black" stroke-width="5"/>
<path d="M5326,2241 l60,0 l0,60 l-60,0 z" fill="green"/>
<path d="M5356,2271 l-182,4.5" stroke="black" stroke-width="5"/>
<path d="M5231,547 l60,0 l0,60 l-60,0 z" fill="green"/>
<path d="M5261,577 l217,456.5" stroke="black" stroke-width="5"/>
<path d="M3516,5195 l60,0 l0,60 l-60,0 z" fill="green"/>
<path d="M3546,5225 l-184.5,202.5" stroke="black" stroke-width="5"/>
<path d="M4637,3356 l60,0 l0,60 l-60,0 z" fill="green"/>
<path d="M4667,3386 l-16.5,-427" stroke="black" stroke-width="5"/>
<path d="M5566,7866 l60,0 l0,60 l-60,0 z" fill="green"/>
<path d="M5596,7896 l344.5,-68.5" stroke="black" stroke-width="5"/>
<path d="M2488,9783 l60,0 l0,60 l-60,0 z" fill="green"/>
<path d="M2518,9813 l-744.5,-78.5" stroke="black" stroke-width="5"/>
<path d="M8972,3883 l60,0 l0,60 l-60,0 z" fill="green"/>
<path d="M9002,3913 l-173.5,-229.5" stroke="black" stroke-width="5"/>
<path d="M8544,8917 l60,0 l0,60 l-60,0 z" fill="green"/>
<path d="M8574,8947 l463,182" stroke="black" stroke-width="5"/>
<path d="M3088,1743 l60,0 l0,60 l-60,0 z" fill="green"/>
<path d="M3118,1773 l57,-88" stroke="black" stroke-width="5"/>
<path d="M7110,4358 l60,0 l0,60 l-60,0 z" fill="green"/>
<path d="M7140,4388 l-194.5,485.5" stroke="black" stroke-width="5"/>
<path d="M8514,8166 l60,0 l0,60 l-60,0 z" fill="green"/>
<path d="M8544,8196 l-33,-298" stroke="black" stroke-width="5"/>
<path d="M8547,4307 l60,0 l0,60 l-60,0 z" fill="green"/>
<path d="M8577,4337 l477,-24.5" stroke="black" stroke-width="5"/>
<path d="M3125,9138 l60,0 l0,60 l-60,0 z" fill="green"/>
<path d="M3155,9168 l-166.5,-47" stroke="black" stroke-width="5"/>
<path d="M7793,4374 l60,0 l0,60 l-60,0 z" fill="green"/>
<path d="M7823,4404 l61,-23.5" stroke="black" stroke-width="5"/>
<path d="M9421,80 l60,0 l0,60 l-60,0 z" fill="green"/>
<path d="M9451,110 l-500,43" stroke="black" stroke-width="5"/>
<path d="M7001,1359 l60,0 l0,60 l-60,0 z" fill="green"/>
<path d="M7031,1389 l-149.5,-47" stroke="black" stroke-width="5"/>
<path d="M1811,2307 l60,0 l0,60 l-60,0 z" fill="green"/>
<path d="M1841,2337 l-468,176.5" stroke="black" stroke-width="5"/>
<path d="M46,8334 l60,0 l0,60 l-60,0 z" fill="green"/>
<path d="M76,8364 l251,-129" stroke="black" stroke-width="5"/>
<path d="M3513,3901 l60,0 l0,60 l-60,0 z" fill="green"/>
<path d="M3543,3931 l-461,223.5" stroke="black" stroke-width="5"/>
<path d="M3897,8798 l60,0 l0,60 l-60,0 z" fill="green"/>
<path d="M3927,8828 l319,140" stroke="black" stroke-width="5"/>
<path d="M5641,3275 l60,0 l0,60 l-60,0 z" fill="green"/>
<path d="M5671,3305 l166,231" stroke="black" stroke-width="5"/>
<path d="M5512,4557 l60,0 l0,60 l-60,0 z" fill="green"/>
<path d="M5542,4587 l-357,199.5" stroke="black" stroke-width="5"/>
<path d="M4000,7702 l60,0 l0,60 l-60,0 z" fill="green"/>
<path d="M4030,7732 l-698.5,-450.5" stroke="black" stroke-width="5"/>
<path d="M8545,8170 l60,0 l0,60 l-60,0 z" fill="green"/>
<path d="M8575,8200 l-53.5,219.5" stroke="black" stroke-width="5"/>
<path d="M1109,3709 l60,0 l0,60 l-60,0 z" fill="green"/>
<path d="M1139,3739 l-367.5,-99.5" stroke="black" stroke-width="5"/>
<path d="M20,7385 l60,0 l0,60 l-60,0 z" fill="green"/>
<path d="M50,7415 l405,-139.5" stroke="black" stroke-width="5"/>
<path d="M904,4026 l60,0 l0,60 l-60,0 z" fill="green"/>
<path d="M934,4056 l86.5,103.5" stroke="black" stroke-width="5"/>
<path d="M8771,7148 l60,0 l0,60 l-60,0 z" fill="green"/>
<path d="M8801,7178 l-229.5,-106.5" stroke="black" stroke-width="5"/>
<path d="M4469,6177 l60,0 l0,60 l-60,0 z" fill="green"/>
<path d="M4499,6207 l173.5,-71.5" stroke="black" stroke-width="5"/>
<path d="M3066,3345 l60,0 l0,60 l-60,0 z" fill="green"/>
<path d="M3096,3375 l-170,-259" stroke="black" stroke-width="5"/>
<path d="M5222,3251 l60,0 l0,60 l-60,0 z" fill="green"/>
<path d="M5252,3281 l-212.5,-78.5" stroke="black" stroke-width="5"/>
<path d="M2217,1416 l60,0 l0,60 l-60,0 z" fill="green"/>
<path d="M2247,1446 l-805,207.5" stroke="black" stroke-width="5"/>
<path d="M3317,8471 l60,0 l0,60 l-60,0 z" fill="green"/>
<path d="M3347,8501 l-1212,-146.5" stroke="black" stroke-width="5"/>
<path d="M5761,8570 l60,0 l0,60 l-60,0 z" fill="green"/>
<path d="M5791,8600 l18.5,598.5" stroke="black" stroke-width="5"/>
<path d="M8003,8962 l60,0 l0,60 l-60,0 z" fill="green"/>
<path d="M8033,8992 l-139.5,73" stroke="black" stroke-width="5"/>
<path d="M2267,9224 l60,0 l0,60 l-60,0 z" fill="green"/>
<path d="M2297,9254 l-85.5,-57" stroke="black" stroke-width="5"/>
<path d="M4282,6146 l60,0 l0,60 l-60,0 z" fill="green"/>
<path d="M4312,6176 l0.5,0.5" stroke="black" stroke-width="5"/>
<text font-size="200" text-anchor="middle" x="1770" y="558">
0
</text>
<text font-size="200" text-anchor="middle" x="6495" y="6518">
1
</text>
<text font-size="200" text-anchor="middle" x="5284" y="359">
2
</text>
<text font-size="200" text-anchor="middle" x="5676.5" y="2515.5">
3
</text>
<text font-size="200" text-anchor="middle" x="6667.5" y="3136.5">
4
</text>
<text font-size="200" text-anchor="middle" x="4215" y="1585.5">
5
</text>
<text font-size="200" text-anchor="middle" x="7767.5" y="9816">
6
</text>
<text font-size="200" text-anchor="middle" x="7517.5" y="403.5">
7
</text>
<text font-size="200" text-anchor="middle" x="9033" y="5304">
8
</text>
<text font-size="200" text-anchor="middle" x="7049.5" y="9258">
9
</text>
<text font-size="200" text-anchor="middle" x="7600" y="2557">
10
</text>
<text font-size="200" text-anchor="middle" x="746.5" y="5258">
11
</text>
<text font-size="200" text-anchor="middle" x="7186.5" y="3804">
12
</text>
<text font-size="200" text-anchor="middle" x="5174" y="2345.5">
13
</text>
<text font-size="200" text-anchor="middle" x="5478" y="1103.5">
14
</text>
<text font-size="200" text-anchor="middle" x="3361.5" y="5497.5">
15
</text>
<text font-size="200" text-anchor="middle" x="4650.5" y="3029">
16
</text>
<text font-size="200" text-anchor="middle" x="5940.5" y="7897.5">
17
</text>
<text font-size="200" text-anchor="middle" x="1773.5" y="9804.5">
18
</text>
<text font-size="200" text-anchor="middle" x="8828.5" y="3753.5">
19
</text>
<text font-size="200" text-anchor="middle" x="9037" y="9199">
20
</text>
<text font-size="200" text-anchor="middle" x="3175" y="1755">
21
</text>
<text font-size="200" text-anchor="middle" x="6945.5" y="4943.5">
22
</text>
<text font-size="200" text-anchor="middle" x="8511" y="7968">
23
</text>
<text font-size="200" text-anchor="middle" x="9054" y="4382.5">
24
</text>
<text font-size="200" text-anchor="middle" x="2988.5" y="9191">
25
</text>
<text font-size="200" text-anchor="middle" x="7884" y="4450.5">
26
</text>
<text font-size="200" text-anchor="middle" x="8951" y="223">
27
</text>
<text font-size="200" text-anchor="middle" x="6881.5" y="1412">
28
</text>
<text font-size="200" text-anchor="middle" x="1373" y="2583.5">
29
</text>
<text font-size="200" text-anchor="middle" x="327" y="8305">
30
</text>
<text font-size="200" text-anchor="middle" x="3082" y="4224.5">
31
</text>
<text font-size="200" text-anchor="middle" x="4246" y="9038">
32
</text>
<text font-size="200" text-anchor="middle" x="5837" y="3606">
33
</text>
<text font-size="200" text-anchor="middle" x="5185" y="4856.5">
34
</text>
<text font-size="200" text-anchor="middle" x="3331.5" y="7351.5">
35
</text>
<text font-size="200" text-anchor="middle" x="8521.5" y="8489.5">
36
</text>
<text font-size="200" text-anchor="middle" x="771.5" y="3709.5">
37
</text>
<text font-size="200" text-anchor="middle" x="455" y="7345.5">
38
</text>
<text font-size="200" text-anchor="middle" x="1020.5" y="4229.5">
39
</text>
<text font-size="200" text-anchor="middle" x="8571.5" y="7141.5">
40
</text>
<text font-size="200" text-anchor="middle" x="4672.5" y="6205.5">
41
</text>
<text font-size="200" text-anchor="middle" x="2926" y="3186">
42
</text>
<text font-size="200" text-anchor="middle" x="5039.5" y="3272.5">
43
</text>
<text font-size="200" text-anchor="middle" x="1442" y="1723.5">
44
</text>
<text font-size="200" text-anchor="middle" x="2135" y="8424.5">
45
</text>
<text font-size="200" text-anchor="middle" x="5809.5" y="9268.5">
46
</text>
<text font-size="200" text-anchor="middle" x="7893.5" y="9135">
47
</text>
<text font-size="200" text-anchor="middle" x="2211.5" y="9267">
48
</text>
<text font-size="200" text-anchor="middle" x="4312.5" y="6246.5">
49
</text>
</svg>