<svg viewBox="-100 -100 10200 10200" xmlns="http://www.w3.org/2000/svg">
<path d="M0,0 l10000,0 l0,10000 l-10000,0 z" fill="white"/>
<path d="M5,7 l3481,0 l0,984 l-3481,0 z" fill="#8b00ff" stroke="black" stroke-width="5"/>
<path d="M5035,5660 l2948,0 l0,1581 l-2948,0 z" fill="#fe00ff" stroke="black" stroke-width="5"/>
<path d="M3498,3 l3545,0 l0,567 l-3545,0 z" fill="#fe00ff" stroke="black" stroke-width="5"/>
<path d="M5422,1503 l416,0 l0,1638 l-416,0 z" fill="#fe00ff" stroke="black" stroke-width="5"/>
<path d="M6423,2226 l606,0 l0,1519 l-606,0 z" fill="#fe00ff" stroke="black" stroke-width="5"/>
<path d="M3559,572 l1349,0 l0,1844 l-1349,0 z" fill="#ff00fe" stroke="black" stroke-width="5"/>
<path d="M7305,9492 l875,0 l0,503 l-875,0 z" fill="#fe00ff" stroke="black" stroke-width="5"/>
<path d="M7049,4 l881,0 l0,666 l-881,0 z" fill="#ff00fe" stroke="black" stroke-width="5"/>
<path d="M8133,4777 l1731,0 l0,1043 l-1731,0 z" fill="#ff00fe" stroke="black" stroke-width="5"/>
<path d="M6848,8673 l445,0 l0,1144 l-445,0 z" fill="#fe00ff" stroke="black" stroke-width="5"/>
<path d="M7086,1647 l997,0 l0,1563 l-997,0 z" fill="#fe00ff" stroke="black" stroke-width="5"/>
<path d="M4,4579 l1485,0 l0,1218 l-1485,0 z" fill="#fe00ff" stroke="black" stroke-width="5"/>
<path d="M7148,3217 l40,0 l0,893 l-40,0 z" fill="#ff00fe" stroke="black" stroke-width="5"/>
<path d="M5125,1959 l237,0 l0,331 l-237,0 z" fill="#ff00fe" stroke="black" stroke-width="5"/>
<path d="M4916,577 l1095,0 l0,887 l-1095,0 z" fill="#fe00ff" stroke="black" stroke-width="5"/>
<path d="M2509,4869 l1569,0 l0,1193 l-1569,0 z" fill="#fe00ff" stroke="black" stroke-width="5"/>
<path d="M4655,2726 l27,0 l0,997 l-27,0 z" fill="#fc00ff" stroke="black" stroke-width="5"/>
<path d="M4828,7249 l2193,0 l0,1286 l-2193,0 z" fill="#f100ff" stroke="black" stroke-width="5"/>
<path d="M16,9500 l3520,0 l0,494 l-3520,0 z" fill="#fe00ff" stroke="black" stroke-width="5"/>
<path d="M8199,3545 l907,0 l0,369 l-907,0 z" fill="#ff00fe" stroke="black" stroke-width="5"/>
<path d="M8574,8644 l1078,0 l0,1027 l-1078,0 z" fill="#ff00fe" stroke="black" stroke-width="5"/>
<path d="M2982,1090 l575,0 l0,1165 l-575,0 z" fill="#ff00fe" stroke="black" stroke-width="5"/>
<path d="M6288,4117 l1362,0 l0,1540 l-1362,0 z" fill="#fe00ff" stroke="black" stroke-width="5"/>
<path d="M7031,7610 l2964,0 l0,588 l-2964,0 z" fill="#ff00fe" stroke="black" stroke-width="5"/>
<path d="M8125,3915 l1867,0 l0,859 l-1867,0 z" fill="#4900ff" stroke="black" stroke-width="5"/>
<path d="M2300,8771 l1334,0 l0,729 l-1334,0 z" fill="#fe00ff" stroke="black" stroke-width="5"/>
<path d="M7650,3377 l467,0 l0,2032 l-467,0 z" fill="#ff00fe" stroke="black" stroke-width="5"/>
<path d="M7991,67 l1976,0 l0,286 l-1976,0 z" fill="#fe00ff" stroke="black" stroke-width="5"/>
<path d="M6031,1113 l1876,0 l0,420 l-1876,0 z" fill="#ff00fe" stroke="black" stroke-width="5"/>
<path d="M91,2337 l2700,0 l0,349 l-2700,0 z" fill="#ff00fe" stroke="black" stroke-width="5"/>
<path d="M22,7593 l592,0 l0,1200 l-592,0 z" fill="#ff00fe" stroke="black" stroke-width="5"/>
<path d="M2002,3442 l2067,0 l0,1423 l-2067,0 z" fill="#de00ff" stroke="black" stroke-width="5"/>
<path d="M3647,7931 l1162,0 l0,2068 l-1162,0 z" fill="#eb00ff" stroke="black" stroke-width="5"/>
<path d="M5426,3141 l969,0 l0,762 l-969,0 z" fill="#7800ff" stroke="black" stroke-width="5"/>
<path d="M4080,3908 l2205,0 l0,1751 l-2205,0 z" fill="#ac00ff" stroke="black" stroke-width="5"/>
<path d="M1773,6624 l3053,0 l0,1298 l-3053,0 z" fill="#ff00fe" stroke="black" stroke-width="5"/>
<path d="M7025,8198 l2956,0 l0,443 l-2956,0 z" fill="#4800ff" stroke="black" stroke-width="5"/>
<path d="M152,3555 l1373,0 l0,185 l-1373,0 z" fill="#ff00fe" stroke="black" stroke-width="5"/>
<path d="M38,6829 l880,0 l0,736 l-880,0 z" fill="#fe00ff" stroke="black" stroke-width="5"/>
<path d="M3,3741 l1997,0 l0,829 l-1997,0 z" fill="#fa00ff" stroke="black" stroke-width="5"/>
<path d="M7998,6483 l1119,0 l0,1089 l-1119,0 z" fill="#fe00ff" stroke="black" stroke-width="5"/>
<path d="M4320,5659 l691,0 l0,956 l-691,0 z" fill="#ff00fe" stroke="black" stroke-width="5"/>
<path d="M1026,2696 l3626,0 l0,743 l-3626,0 z" fill="#fe00ff" stroke="black" stroke-width="5"/>
<path d="M4685,2428 l720,0 l0,1453 l-720,0 z" fill="#ff00fe" stroke="black" stroke-width="5"/>
<path d="M0,994 l2977,0 l0,1337 l-2977,0 z" fill="#9600ff" stroke="black" stroke-width="5"/>
<path d="M656,7933 l2986,0 l0,837 l-2986,0 z" fill="#3f00ff" stroke="black" stroke-width="5"/>
<path d="M4821,8536 l2021,0 l0,1463 l-2021,0 z" fill="#db00ff" stroke="black" stroke-width="5"/>
<path d="M7309,8644 l1257,0 l0,844 l-1257,0 z" fill="#3900ff" stroke="black" stroke-width="5"/>
<path d="M2206,9053 l92,0 l0,241 l-92,0 z" fill="#fb00ff" stroke="black" stroke-width="5"/>
<path d="M4312,6176 l1,0 l0,1 l-1,0 z" fill="#0000ff" stroke="black" stroke-width="5"/>
<path d="M1879,330 l60,0 l0,60 l-60,0 z" fill="green"/>
<path d="M1909,360 l-163.5,139" stroke="black" stroke-width="5"/>
<path d="M5780,7061 l60,0 l0,60 l-60,0 z" fill="green"/>
<path d="M5810,7091 l699,-640.5" stroke="black" stroke-width="5"/>
<path d="M5377,392 l60,0 l0,60 l-60,0 z" fill="green"/>
<path d="M5407,422 l-136.5,-135.5" stroke="black" stroke-width="5"/>
<path d="M5737,3110 l60,0 l0,60 l-60,0 z" fill="green"/>
<path d="M5767,3140 l-137,-818" stroke="black" stroke-width="5"/>
<path d="M6629,3204 l60,0 l0,60 l-60,0 z" fill="green"/>
<path d="M6659,3234 l67,-248.5" stroke="black" stroke-width="5"/>
<path d="M4176,1590 l60,0 l0,60 l-60,0 z" fill="green"/>
<path d="M4206,1620 l27.5,-126" stroke="black" stroke-width="5"/>
<path d="M7823,9462 l60,0 l0,60 l-60,0 z" fill="green"/>
<path d="M7853,9492 l-110.5,251.5" stroke="black" stroke-width="5"/>
<path d="M7845,402 l60,0 l0,60 l-60,0 z" fill="green"/>
<path d="M7875,432 l-385.5,-95" stroke="black" stroke-width="5"/>
<path d="M9018,5029 l60,0 l0,60 l-60,0 z" fill="green"/>
<path d="M9048,5059 l-49.5,239.5" stroke="black" stroke-width="5"/>
<path d="M7262,9040 l60,0 l0,60 l-60,0 z" fill="green"/>
<path d="M7292,9070 l-221.5,175" stroke="black" stroke-width="5"/>
<path d="M7603,2466 l60,0 l0,60 l-60,0 z" fill="green"/>
<path d="M7633,2496 l-48.5,-67.5" stroke="black" stroke-width="5"/>
<path d="M391,4805 l60,0 l0,60 l-60,0 z" fill="green"/>
<path d="M421,4835 l325.5,353" stroke="black" stroke-width="5"/>
<path d="M7134,4079 l60,0 l0,60 l-60,0 z" fill="green"/>
<path d="M7164,4109 l4,-445.5" stroke="black" stroke-width="5"/>
<path d="M5326,2241 l60,0 l0,60 l-60,0 z" fill="green"/>
<path d="M5356,2271 l-112.5,-146.5" stroke="black" stroke-width="5"/>
<path d="M5231,547 l60,0 l0,60 l-60,0 z" fill="green"/>
<path d="M5261,577 l202.5,443.5" stroke="black" stroke-width="5"/>
<path d="M3516,5195 l60,0 l0,60 l-60,0 z" fill="green"/>
<path d="M3546,5225 l-252.5,240.5" stroke="black" stroke-width="5"/>
<path d="M4637,3356 l60,0 l0,60 l-60,0 z" fill="green"/>
<path d="M4667,3386 l1.5,-161.5" stroke="black" stroke-width="5"/>
<path d="M5566,7866 l60,0 l0,60 l-60,0 z" fill="green"/>
<path d="M5596,7896 l328.5,-4" stroke="black" stroke-width="5"/>
<path d="M2488,9783 l60,0 l0,60 l-60,0 z" fill="green"/>
<path d="M2518,9813 l-742,-66" stroke="black" stroke-width="5"/>
<path d="M8972,3883 l60,0 l0,60 l-60,0 z" fill="green"/>
<path d="M9002,3913 l-349.5,-183.5" stroke="black" stroke-width="5"/>
<path d="M8544,8917 l60,0 l0,60 l-60,0 z" fill="green"/>
<path d="M8574,8947 l539,210.5" stroke="black" stroke-width="5"/>
<path d="M3088,1743 l60,0 l0,60 l-60,0 z" fill="green"/>
<path d="M3118,1773 l151.5,-100.5" stroke="black" stroke-width="5"/>
<path d="M7110,4358 l60,0 l0,60 l-60,0 z" fill="green"/>
<path d="M7140,4388 l-171,499" stroke="black" stroke-width="5"/>
<path d="M8514,8166 l60,0 l0,60 l-60,0 z" fill="green"/>
<path d="M8544,8196 l-31,-292" stroke="black" stroke-width="5"/>
<path d="M8547,4307 l60,0 l0,60 l-60,0 z" fill="green"/>
<path d="M8577,4337 l481.5,7.5" stroke="black" stroke-width="5"/>
<path d="M3125,9138 l60,0 l0,60 l-60,0 z" fill="green"/>
<path d="M3155,9168 l-188,-32.5" stroke="black" stroke-width="5"/>
<path d="M7793,4374 l60,0 l0,60 l-60,0 z" fill="green"/>
<path d="M7823,4404 l60.5,-11" stroke="black" stroke-width="5"/>
<path d="M9421,80 l60,0 l0,60 l-60,0 z" fill="green"/>
<path d="M9451,110 l-472,100" stroke="black" stroke-width="5"/>
<path d="M7001,1359 l60,0 l0,60 l-60,0 z" fill="green"/>
<path d="M7031,1389 l-62,-66" stroke="black" stroke-width="5"/>
<path d="M1811,2307 l60,0 l0,60 l-60,0 z" fill="green"/>
<path d="M1841,2337 l-400,174.5" stroke="black" stroke-width="5"/>
<path d="M46,8334 l60,0 l0,60 l-60,0 z" fill="green"/>
<path d="M76,8364 l242,-171" stroke="black" stroke-width="5"/>
<path d="M3513,3901 l60,0 l0,60 l-60,0 z" fill="green"/>
<path d="M3543,3931 l-507.5,222.5" stroke="black" stroke-width="5"/>
<path d="M3897,8798 l60,0 l0,60 l-60,0 z" fill="green"/>
<path d="M3927,8828 l301,137" stroke="black" stroke-width="5"/>
<path d="M5641,3275 l60,0 l0,60 l-60,0 z" fill="green"/>
<path d="M5671,3305 l239.5,217" stroke="black" stroke-width="5"/>
<path d="M5512,4557 l60,0 l0,60 l-60,0 z" fill="green"/>
<path d="M5542,4587 l-359.5,196.5" stroke="black" stroke-width="5"/>
<path d="M4000,7702 l60,0 l0,60 l-60,0 z" fill="green"/>
<path d="M4030,7732 l-730.5,-459" stroke="black" stroke-width="5"/>
<path d="M8545,8170 l60,0 l0,60 l-60,0 z" fill="green"/>
<path d="M8575,8200 l-72,219.5" stroke="black" stroke-width="5"/>
<path d="M1109,3709 l60,0 l0,60 l-60,0 z" fill="green"/>
<path d="M1139,3739 l-300.5,-91.5" stroke="black" stroke-width="5"/>
<path d="M20,7385 l60,0 l0,60 l-60,0 z" fill="green"/>
<path d="M50,7415 l428,-218" stroke="black" stroke-width="5"/>
<path d="M904,4026 l60,0 l0,60 l-60,0 z" fill="green"/>
<path d="M934,4056 l67.5,99.5" stroke="black" stroke-width="5"/>
<path d="M8771,7148 l60,0 l0,60 l-60,0 z" fill="green"/>
<path d="M8801,7178 l-243.5,-150.5" stroke="black" stroke-width="5"/>
<path d="M4469,6177 l60,0 l0,60 l-60,0 z" fill="green"/>
<path d="M4499,6207 l166.5,-70" stroke="black" stroke-width="5"/>
<path d="M3066,3345 l60,0 l0,60 l-60,0 z" fill="green"/>
<path d="M3096,3375 l-257,-307.5" stroke="black" stroke-width="5"/>
<path d="M5222,3251 l60,0 l0,60 l-60,0 z" fill="green"/>
<path d="M5252,3281 l-207,-126.5" stroke="black" stroke-width="5"/>
<path d="M2217,1416 l60,0 l0,60 l-60,0 z" fill="green"/>
<path d="M2247,1446 l-758.5,216.5" stroke="black" stroke-width="5"/>
<path d="M3317,8471 l60,0 l0,60 l-60,0 z" fill="green"/>
<path d="M3347,8501 l-1198,-149.5" stroke="black" stroke-width="5"/>
<path d="M5761,8570 l60,0 l0,60 l-60,0 z" fill="green"/>
<path d="M5791,8600 l40.5,667.5" stroke="black" stroke-width="5"/>
<path d="M8003,8962 l60,0 l0,60 l-60,0 z" fill="green"/>
<path d="M8033,8992 l-95.5,74" stroke="black" stroke-width="5"/>
<path d="M2267,9224 l60,0 l0,60 l-60,0 z" fill="green"/>
<path d="M2297,9254 l-45,-80.5" stroke="black" stroke-width="5"/>
<path d="M4282,6146 l60,0 l0,60 l-60,0 z" fill="green"/>
<path d="M4312,6176 l0.5,0.5" stroke="black" stroke-width="5"/>
<text font-size="200" text-anchor="middle" x="1745.5" y="569">
0
</text>
<text font-size="200" text-anchor="middle" x="6509" y="6520.5">
1
</text>
<text font-size="200" text-anchor="middle" x="5270.5" y="356.5">
2
</text>
<text font-size="200" text-anchor="middle" x="5630" y="2392">
3
</text>
<text font-size="200" text-anchor="middle" x="6726" y="3055.5">
4
</text>
<text font-size="200" text-anchor="middle" x="4233.5" y="1564">
5
</text>
<text font-size="200" text-anchor="middle" x="7742.5" y="9813.5">
6
</text>
<text font-size="200" text-anchor="middle" x="7489.5" y="407">
7
</text>
<text font-size="200" text-anchor="middle" x="8998.5" y="5368.5">
8
</text>
<text font-size="200" text-anchor="middle" x="7070.5" y="9315">
9
</text>
<text font-size="200" text-anchor="middle" x="7584.5" y="2498.5">
10
</text>
<text font-size="200" text-anchor="middle" x="746.5" y="5258">
11
</text>
<text font-size="200" text-anchor="middle" x="7168" y="3733.5">
12
</text>
<text font-size="200" text-anchor="middle" x="5243.5" y="2194.5">
13
</text>
<text font-size="200" text-anchor="middle" x="5463.5" y="1090.5">
14
</text>
<text font-size="200" text-anchor="middle" x="3293.5" y="5535.5">
15
</text>
<text font-size="200" text-anchor="middle" x="4668.5" y="3294.5">
16
</text>
<text font-size="200" text-anchor="middle" x="5924.5" y="7962">
17
</text>
<text font-size="200" text-anchor="middle" x="1776" y="9817">
18
</text>
<text font-size="200" text-anchor="middle" x="8652.5" y="3799.5">
19
</text>
<text font-size="200" text-anchor="middle" x="9113" y="9227.5">
20
</text>
<text font-size="200" text-anchor="middle" x="3269.5" y="1742.5">
21
</text>
<text font-size="200" text-anchor="middle" x="6969" y="4957">
22
</text>
<text font-size="200" text-anchor="middle" x="8513" y="7974">
23
</text>
<text font-size="200" text-anchor="middle" x="9058.5" y="4414.5">
24
</text>
<text font-size="200" text-anchor="middle" x="2967" y="9205.5">
25
</text>
<text font-size="200" text-anchor="middle" x="7883.5" y="4463">
26
</text>
<text font-size="200" text-anchor="middle" x="8979" y="280">
27
</text>
<text font-size="200" text-anchor="middle" x="6969" y="1393">
28
</text>
<text font-size="200" text-anchor="middle" x="1441" y="2581.5">
29
</text>
<text font-size="200" text-anchor="middle" x="318" y="8263">
30
</text>
<text font-size="200" text-anchor="middle" x="3035.5" y="4223.5">
31
</text>
<text font-size="200" text-anchor="middle" x="4228" y="9035">
32
</text>
<text font-size="200" text-anchor="middle" x="5910.5" y="3592">
33
</text>
<text font-size="200" text-anchor="middle" x="5182.5" y="4853.5">
34
</text>
<text font-size="200" text-anchor="middle" x="3299.5" y="7343">
35
</text>
<text font-size="200" text-anchor="middle" x="8503" y="8489.5">
36
</text>
<text font-size="200" text-anchor="middle" x="838.5" y="3717.5">
37
</text>
<text font-size="200" text-anchor="middle" x="478" y="7267">
38
</text>
<text font-size="200" text-anchor="middle" x="1001.5" y="4225.5">
39
</text>
<text font-size="200" text-anchor="middle" x="8557.5" y="7097.5">
40
</text>
<text font-size="200" text-anchor="middle" x="4665.5" y="6207">
41
</text>
<text font-size="200" text-anchor="middle" x="2839" y="3137.5">
42
</text>
<text font-size="200" text-anchor="middle" x="5045" y="3224.5">
43
</text>
<text font-size="200" text-anchor="middle" x="1488.5" y="1732.5">
44
</text>
<text font-size="200" text-anchor="middle" x="2149" y="8421.5">
45
</text>
<text font-size="200" text-anchor="middle" x="5831.5" y="9337.5">
46
</text>
<text font-size="200" text-anchor="middle" x="7937.5" y="9136">
47
</text>
<text font-size="200" text-anchor="middle" x="2252" y="9243.5">
48
</text>
<text font-size="200" text-anchor="middle" x="4312.5" y="6246.5">
49
</text>
</svg>