<svg viewBox="-100 -100 10200 10200" xmlns="http://www.w3.org/2000/svg">
<path d="M0,0 l10000,0 l0,10000 l-10000,0 z" fill="white"/>
<path d="M11,9 l3522,0 l0,970 l-3522,0 z" fill="#8a00ff" stroke="black" stroke-width="5"/>
<path d="M5026,5643 l2914,0 l0,1599 l-2914,0 z" fill="#fe00ff" stroke="black" stroke-width="5"/>
<path d="M3558,0 l3484,0 l0,577 l-3484,0 z" fill="#ff00fe" stroke="black" stroke-width="5"/>
<path d="M5439,1723 l483,0 l0,1418 l-483,0 z" fill="#ff00fe" stroke="black" stroke-width="5"/>
<path d="M6311,2461 l714,0 l0,1289 l-714,0 z" fill="#fe00ff" stroke="black" stroke-width="5"/>
<path d="M3541,593 l1348,0 l0,1845 l-1348,0 z" fill="#fe00ff" stroke="black" stroke-width="5"/>
<path d="M7299,9492 l904,0 l0,487 l-904,0 z" fill="#ff00fe" stroke="black" stroke-width="5"/>
<path d="M7053,19 l899,0 l0,652 l-899,0 z" fill="#fe00ff" stroke="black" stroke-width="5"/>
<path d="M8170,4711 l1726,0 l0,1046 l-1726,0 z" fill="#fe00ff" stroke="black" stroke-width="5"/>
<path d="M6809,8647 l484,0 l0,1052 l-484,0 z" fill="#fe00ff" stroke="black" stroke-width="5"/>
<path d="M7114,1708 l1012,0 l0,1540 l-1012,0 z" fill="#ff00fe" stroke="black" stroke-width="5"/>
<path d="M4,4579 l1485,0 l0,1218 l-1485,0 z" fill="#fe00ff" stroke="black" stroke-width="5"/>
<path d="M7127,3260 l38,0 l0,853 l-38,0 z" fill="#fb00ff" stroke="black" stroke-width="5"/>
<path d="M4889,2175 l468,0 l0,177 l-468,0 z" fill="#ff00fd" stroke="black" stroke-width="5"/>
<path d="M4946,577 l1064,0 l0,913 l-1064,0 z" fill="#ff00fe" stroke="black" stroke-width="5"/>
<path d="M2618,4798 l1487,0 l0,1259 l-1487,0 z" fill="#ff00fe" stroke="black" stroke-width="5"/>
<path d="M4641,2498 l27,0 l0,1147 l-27,0 z" fill="#ff00fb" stroke="black" stroke-width="5"/>
<path d="M4854,7250 l2197,0 l0,1182 l-2197,0 z" fill="#e200ff" stroke="black" stroke-width="5"/>
<path d="M45,9483 l3457,0 l0,503 l-3457,0 z" fill="#fe00ff" stroke="black" stroke-width="5"/>
<path d="M8422,3429 l690,0 l0,485 l-690,0 z" fill="#ff00fe" stroke="black" stroke-width="5"/>
<path d="M8471,8640 l1132,0 l0,978 l-1132,0 z" fill="#ff00fe" stroke="black" stroke-width="5"/>
<path d="M2876,1125 l598,0 l0,1120 l-598,0 z" fill="#fe00ff" stroke="black" stroke-width="5"/>
<path d="M6257,4115 l1381,0 l0,1516 l-1381,0 z" fill="#fe00ff" stroke="black" stroke-width="5"/>
<path d="M7054,7599 l2914,0 l0,598 l-2914,0 z" fill="#ff00fe" stroke="black" stroke-width="5"/>
<path d="M8091,3917 l1873,0 l0,793 l-1873,0 z" fill="#4000ff" stroke="black" stroke-width="5"/>
<path d="M2305,8767 l1373,0 l0,711 l-1373,0 z" fill="#ff00fe" stroke="black" stroke-width="5"/>
<path d="M7640,3292 l442,0 l0,2140 l-442,0 z" fill="#ff00fe" stroke="black" stroke-width="5"/>
<path d="M7973,19 l1906,0 l0,299 l-1906,0 z" fill="#ff00fe" stroke="black" stroke-width="5"/>
<path d="M6027,1160 l1552,0 l0,507 l-1552,0 z" fill="#fe00ff" stroke="black" stroke-width="5"/>
<path d="M48,2337 l2669,0 l0,353 l-2669,0 z" fill="#fe00ff" stroke="black" stroke-width="5"/>
<path d="M10,7626 l606,0 l0,1172 l-606,0 z" fill="#ff00fe" stroke="black" stroke-width="5"/>
<path d="M2025,3473 l2085,0 l0,1319 l-2085,0 z" fill="#cf00ff" stroke="black" stroke-width="5"/>
<path d="M3682,7952 l1167,0 l0,2021 l-1167,0 z" fill="#e800ff" stroke="black" stroke-width="5"/>
<path d="M5420,3151 l889,0 l0,781 l-889,0 z" fill="#6d00ff" stroke="black" stroke-width="5"/>
<path d="M4120,3934 l2133,0 l0,1708 l-2133,0 z" fill="#9f00ff" stroke="black" stroke-width="5"/>
<path d="M1845,6615 l2973,0 l0,1333 l-2973,0 z" fill="#ff00fe" stroke="black" stroke-width="5"/>
<path d="M7051,8200 l2923,0 l0,440 l-2923,0 z" fill="#4600ff" stroke="black" stroke-width="5"/>
<path d="M99,3531 l1215,0 l0,209 l-1215,0 z" fill="#fe00ff" stroke="black" stroke-width="5"/>
<path d="M17,6895 l896,0 l0,723 l-896,0 z" fill="#ff00fe" stroke="black" stroke-width="5"/>
<path d="M4,3740 l2021,0 l0,830 l-2021,0 z" fill="#fc00ff" stroke="black" stroke-width="5"/>
<path d="M7990,6541 l1182,0 l0,1031 l-1182,0 z" fill="#ff00fe" stroke="black" stroke-width="5"/>
<path d="M4322,5648 l691,0 l0,956 l-691,0 z" fill="#ff00fe" stroke="black" stroke-width="5"/>
<path d="M1124,2698 l3499,0 l0,770 l-3499,0 z" fill="#fe00ff" stroke="black" stroke-width="5"/>
<path d="M4675,2485 l729,0 l0,1435 l-729,0 z" fill="#fe00ff" stroke="black" stroke-width="5"/>
<path d="M0,980 l2874,0 l0,1349 l-2874,0 z" fill="#9000ff" stroke="black" stroke-width="5"/>
<path d="M624,7953 l3035,0 l0,812 l-3035,0 z" fill="#3d00ff" stroke="black" stroke-width="5"/>
<path d="M4863,8432 l1933,0 l0,1567 l-1933,0 z" fill="#e000ff" stroke="black" stroke-width="5"/>
<path d="M7295,8641 l1169,0 l0,837 l-1169,0 z" fill="#3100ff" stroke="black" stroke-width="5"/>
<path d="M2094,9203 l204,0 l0,114 l-204,0 z" fill="#fe00ff" stroke="black" stroke-width="5"/>
<path d="M4312,6176 l1,0 l0,1 l-1,0 z" fill="#0000ff" stroke="black" stroke-width="5"/>
<path d="M1879,330 l60,0 l0,60 l-60,0 z" fill="green"/>
<path d="M1909,360 l-137,134" stroke="black" stroke-width="5"/>
<path d="M5780,7061 l60,0 l0,60 l-60,0 z" fill="green"/>
<path d="M5810,7091 l673,-648.5" stroke="black" stroke-width="5"/>
<path d="M5377,392 l60,0 l0,60 l-60,0 z" fill="green"/>
<path d="M5407,422 l-107,-133.5" stroke="black" stroke-width="5"/>
<path d="M5737,3110 l60,0 l0,60 l-60,0 z" fill="green"/>
<path d="M5767,3140 l-86.5,-708" stroke="black" stroke-width="5"/>
<path d="M6629,3204 l60,0 l0,60 l-60,0 z" fill="green"/>
<path d="M6659,3234 l9,-128.5" stroke="black" stroke-width="5"/>
<path d="M4176,1590 l60,0 l0,60 l-60,0 z" fill="green"/>
<path d="M4206,1620 l9,-104.5" stroke="black" stroke-width="5"/>
<path d="M7823,9462 l60,0 l0,60 l-60,0 z" fill="green"/>
<path d="M7853,9492 l-102,243.5" stroke="black" stroke-width="5"/>
<path d="M7845,402 l60,0 l0,60 l-60,0 z" fill="green"/>
<path d="M7875,432 l-372.5,-87" stroke="black" stroke-width="5"/>
<path d="M9018,5029 l60,0 l0,60 l-60,0 z" fill="green"/>
<path d="M9048,5059 l-15,175" stroke="black" stroke-width="5"/>
<path d="M7262,9040 l60,0 l0,60 l-60,0 z" fill="green"/>
<path d="M7292,9070 l-241,103" stroke="black" stroke-width="5"/>
<path d="M7603,2466 l60,0 l0,60 l-60,0 z" fill="green"/>
<path d="M7633,2496 l-13,-18" stroke="black" stroke-width="5"/>
<path d="M391,4805 l60,0 l0,60 l-60,0 z" fill="green"/>
<path d="M421,4835 l325.5,353" stroke="black" stroke-width="5"/>
<path d="M7134,4079 l60,0 l0,60 l-60,0 z" fill="green"/>
<path d="M7164,4109 l-18,-422.5" stroke="black" stroke-width="5"/>
<path d="M5326,2241 l60,0 l0,60 l-60,0 z" fill="green"/>
<path d="M5356,2271 l-233,-7.5" stroke="black" stroke-width="5"/>
<path d="M5231,547 l60,0 l0,60 l-60,0 z" fill="green"/>
<path d="M5261,577 l217,456.5" stroke="black" stroke-width="5"/>
<path d="M3516,5195 l60,0 l0,60 l-60,0 z" fill="green"/>
<path d="M3546,5225 l-184.5,202.5" stroke="black" stroke-width="5"/>
<path d="M4637,3356 l60,0 l0,60 l-60,0 z" fill="green"/>
<path d="M4667,3386 l-12.5,-314.5" stroke="black" stroke-width="5"/>
<path d="M5566,7866 l60,0 l0,60 l-60,0 z" fill="green"/>
<path d="M5596,7896 l356.5,-55" stroke="black" stroke-width="5"/>
<path d="M2488,9783 l60,0 l0,60 l-60,0 z" fill="green"/>
<path d="M2518,9813 l-744.5,-78.5" stroke="black" stroke-width="5"/>
<path d="M8972,3883 l60,0 l0,60 l-60,0 z" fill="green"/>
<path d="M9002,3913 l-235,-241.5" stroke="black" stroke-width="5"/>
<path d="M8544,8917 l60,0 l0,60 l-60,0 z" fill="green"/>
<path d="M8574,8947 l463,182" stroke="black" stroke-width="5"/>
<path d="M3088,1743 l60,0 l0,60 l-60,0 z" fill="green"/>
<path d="M3118,1773 l57,-88" stroke="black" stroke-width="5"/>
<path d="M7110,4358 l60,0 l0,60 l-60,0 z" fill="green"/>
<path d="M7140,4388 l-192.5,485" stroke="black" stroke-width="5"/>
<path d="M8514,8166 l60,0 l0,60 l-60,0 z" fill="green"/>
<path d="M8544,8196 l-33,-298" stroke="black" stroke-width="5"/>
<path d="M8547,4307 l60,0 l0,60 l-60,0 z" fill="green"/>
<path d="M8577,4337 l450.5,-23.5" stroke="black" stroke-width="5"/>
<path d="M3125,9138 l60,0 l0,60 l-60,0 z" fill="green"/>
<path d="M3155,9168 l-163.5,-45.5" stroke="black" stroke-width="5"/>
<path d="M7793,4374 l60,0 l0,60 l-60,0 z" fill="green"/>
<path d="M7823,4404 l38,-42" stroke="black" stroke-width="5"/>
<path d="M9421,80 l60,0 l0,60 l-60,0 z" fill="green"/>
<path d="M9451,110 l-525,58.5" stroke="black" stroke-width="5"/>
<path d="M7001,1359 l60,0 l0,60 l-60,0 z" fill="green"/>
<path d="M7031,1389 l-228,24.5" stroke="black" stroke-width="5"/>
<path d="M1811,2307 l60,0 l0,60 l-60,0 z" fill="green"/>
<path d="M1841,2337 l-458.5,176.5" stroke="black" stroke-width="5"/>
<path d="M46,8334 l60,0 l0,60 l-60,0 z" fill="green"/>
<path d="M76,8364 l237,-152" stroke="black" stroke-width="5"/>
<path d="M3513,3901 l60,0 l0,60 l-60,0 z" fill="green"/>
<path d="M3543,3931 l-475.5,201.5" stroke="black" stroke-width="5"/>
<path d="M3897,8798 l60,0 l0,60 l-60,0 z" fill="green"/>
<path d="M3927,8828 l338.5,134.5" stroke="black" stroke-width="5"/>
<path d="M5641,3275 l60,0 l0,60 l-60,0 z" fill="green"/>
<path d="M5671,3305 l193.5,236.5" stroke="black" stroke-width="5"/>
<path d="M5512,4557 l60,0 l0,60 l-60,0 z" fill="green"/>
<path d="M5542,4587 l-355.5,201" stroke="black" stroke-width="5"/>
<path d="M4000,7702 l60,0 l0,60 l-60,0 z" fill="green"/>
<path d="M4030,7732 l-698.5,-450.5" stroke="black" stroke-width="5"/>
<path d="M8545,8170 l60,0 l0,60 l-60,0 z" fill="green"/>
<path d="M8575,8200 l-62.5,220" stroke="black" stroke-width="5"/>
<path d="M1109,3709 l60,0 l0,60 l-60,0 z" fill="green"/>
<path d="M1139,3739 l-432.5,-103.5" stroke="black" stroke-width="5"/>
<path d="M20,7385 l60,0 l0,60 l-60,0 z" fill="green"/>
<path d="M50,7415 l415,-158.5" stroke="black" stroke-width="5"/>
<path d="M904,4026 l60,0 l0,60 l-60,0 z" fill="green"/>
<path d="M934,4056 l80.5,99" stroke="black" stroke-width="5"/>
<path d="M8771,7148 l60,0 l0,60 l-60,0 z" fill="green"/>
<path d="M8801,7178 l-220,-121.5" stroke="black" stroke-width="5"/>
<path d="M4469,6177 l60,0 l0,60 l-60,0 z" fill="green"/>
<path d="M4499,6207 l168.5,-81" stroke="black" stroke-width="5"/>
<path d="M3066,3345 l60,0 l0,60 l-60,0 z" fill="green"/>
<path d="M3096,3375 l-222.5,-292" stroke="black" stroke-width="5"/>
<path d="M5222,3251 l60,0 l0,60 l-60,0 z" fill="green"/>
<path d="M5252,3281 l-212.5,-78.5" stroke="black" stroke-width="5"/>
<path d="M2217,1416 l60,0 l0,60 l-60,0 z" fill="green"/>
<path d="M2247,1446 l-810,208.5" stroke="black" stroke-width="5"/>
<path d="M3317,8471 l60,0 l0,60 l-60,0 z" fill="green"/>
<path d="M3347,8501 l-1205.5,-142" stroke="black" stroke-width="5"/>
<path d="M5761,8570 l60,0 l0,60 l-60,0 z" fill="green"/>
<path d="M5791,8600 l38.5,615.5" stroke="black" stroke-width="5"/>
<path d="M8003,8962 l60,0 l0,60 l-60,0 z" fill="green"/>
<path d="M8033,8992 l-153.5,67.5" stroke="black" stroke-width="5"/>
<path d="M2267,9224 l60,0 l0,60 l-60,0 z" fill="green"/>
<path d="M2297,9254 l-101,6" stroke="black" stroke-width="5"/>
<path d="M4282,6146 l60,0 l0,60 l-60,0 z" fill="green"/>
<path d="M4312,6176 l0.5,0.5" stroke="black" stroke-width="5"/>
<text font-size="200" text-anchor="middle" x="1772" y="564">
0
</text>
<text font-size="200" text-anchor="middle" x="6483" y="6512.5">
1
</text>
<text font-size="200" text-anchor="middle" x="5300" y="358.5">
2
</text>
<text font-size="200" text-anchor="middle" x="5680.5" y="2502">
3
</text>
<text font-size="200" text-anchor="middle" x="6668" y="3175.5">
4
</text>
<text font-size="200" text-anchor="middle" x="4215" y="1585.5">
5
</text>
<text font-size="200" text-anchor="middle" x="7751" y="9805.5">
6
</text>
<text font-size="200" text-anchor="middle" x="7502.5" y="415">
7
</text>
<text font-size="200" text-anchor="middle" x="9033" y="5304">
8
</text>
<text font-size="200" text-anchor="middle" x="7051" y="9243">
9
</text>
<text font-size="200" text-anchor="middle" x="7620" y="2548">
10
</text>
<text font-size="200" text-anchor="middle" x="746.5" y="5258">
11
</text>
<text font-size="200" text-anchor="middle" x="7146" y="3756.5">
12
</text>
<text font-size="200" text-anchor="middle" x="5123" y="2333.5">
13
</text>
<text font-size="200" text-anchor="middle" x="5478" y="1103.5">
14
</text>
<text font-size="200" text-anchor="middle" x="3361.5" y="5497.5">
15
</text>
<text font-size="200" text-anchor="middle" x="4654.5" y="3141.5">
16
</text>
<text font-size="200" text-anchor="middle" x="5952.5" y="7911">
17
</text>
<text font-size="200" text-anchor="middle" x="1773.5" y="9804.5">
18
</text>
<text font-size="200" text-anchor="middle" x="8767" y="3741.5">
19
</text>
<text font-size="200" text-anchor="middle" x="9037" y="9199">
20
</text>
<text font-size="200" text-anchor="middle" x="3175" y="1755">
21
</text>
<text font-size="200" text-anchor="middle" x="6947.5" y="4943">
22
</text>
<text font-size="200" text-anchor="middle" x="8511" y="7968">
23
</text>
<text font-size="200" text-anchor="middle" x="9027.5" y="4383.5">
24
</text>
<text font-size="200" text-anchor="middle" x="2991.5" y="9192.5">
25
</text>
<text font-size="200" text-anchor="middle" x="7861" y="4432">
26
</text>
<text font-size="200" text-anchor="middle" x="8926" y="238.5">
27
</text>
<text font-size="200" text-anchor="middle" x="6803" y="1483.5">
28
</text>
<text font-size="200" text-anchor="middle" x="1382.5" y="2583.5">
29
</text>
<text font-size="200" text-anchor="middle" x="313" y="8282">
30
</text>
<text font-size="200" text-anchor="middle" x="3067.5" y="4202.5">
31
</text>
<text font-size="200" text-anchor="middle" x="4265.5" y="9032.5">
32
</text>
<text font-size="200" text-anchor="middle" x="5864.5" y="3611.5">
33
</text>
<text font-size="200" text-anchor="middle" x="5186.5" y="4858">
34
</text>
<text font-size="200" text-anchor="middle" x="3331.5" y="7351.5">
35
</text>
<text font-size="200" text-anchor="middle" x="8512.5" y="8490">
36
</text>
<text font-size="200" text-anchor="middle" x="706.5" y="3705.5">
37
</text>
<text font-size="200" text-anchor="middle" x="465" y="7326.5">
38
</text>
<text font-size="200" text-anchor="middle" x="1014.5" y="4225">
39
</text>
<text font-size="200" text-anchor="middle" x="8581" y="7126.5">
40
</text>
<text font-size="200" text-anchor="middle" x="4667.5" y="6196">
41
</text>
<text font-size="200" text-anchor="middle" x="2873.5" y="3153">
42
</text>
<text font-size="200" text-anchor="middle" x="5039.5" y="3272.5">
43
</text>
<text font-size="200" text-anchor="middle" x="1437" y="1724.5">
44
</text>
<text font-size="200" text-anchor="middle" x="2141.5" y="8429">
45
</text>
<text font-size="200" text-anchor="middle" x="5829.5" y="9285.5">
46
</text>
<text font-size="200" text-anchor="middle" x="7879.5" y="9129.5">
47
</text>
<text font-size="200" text-anchor="middle" x="2196" y="9330">
48
</text>
<text font-size="200" text-anchor="middle" x="4312.5" y="6246.5">
49
</text>
</svg>