<svg viewBox="-100 -100 10200 10200" xmlns="http://www.w3.org/2000/svg">
<path d="M0,0 l10000,0 l0,10000 l-10000,0 z" fill="white"/>
<path d="M17,5 l3523,0 l0,973 l-3523,0 z" fill="#8b00ff" stroke="black" stroke-width="5"/>
<path d="M5035,5660 l2948,0 l0,1581 l-2948,0 z" fill="#fe00ff" stroke="black" stroke-width="5"/>
<path d="M3562,0 l3486,0 l0,576 l-3486,0 z" fill="#fe00ff" stroke="black" stroke-width="5"/>
<path d="M5458,1666 l462,0 l0,1475 l-462,0 z" fill="#fe00ff" stroke="black" stroke-width="5"/>
<path d="M6385,2327 l690,0 l0,1334 l-690,0 z" fill="#fe00ff" stroke="black" stroke-width="5"/>
<path d="M3541,593 l1348,0 l0,1845 l-1348,0 z" fill="#fe00ff" stroke="black" stroke-width="5"/>
<path d="M7308,9492 l872,0 l0,505 l-872,0 z" fill="#ff00fe" stroke="black" stroke-width="5"/>
<path d="M7053,19 l899,0 l0,652 l-899,0 z" fill="#fe00ff" stroke="black" stroke-width="5"/>
<path d="M8170,4711 l1726,0 l0,1046 l-1726,0 z" fill="#fe00ff" stroke="black" stroke-width="5"/>
<path d="M6809,8647 l484,0 l0,1052 l-484,0 z" fill="#fe00ff" stroke="black" stroke-width="5"/>
<path d="M7114,1708 l1012,0 l0,1540 l-1012,0 z" fill="#ff00fe" stroke="black" stroke-width="5"/>
<path d="M4,4579 l1485,0 l0,1218 l-1485,0 z" fill="#fe00ff" stroke="black" stroke-width="5"/>
<path d="M7159,3475 l55,0 l0,635 l-55,0 z" fill="#fe00ff" stroke="black" stroke-width="5"/>
<path d="M5057,2159 l401,0 l0,195 l-401,0 z" fill="#fe00ff" stroke="black" stroke-width="5"/>
<path d="M4946,577 l1064,0 l0,913 l-1064,0 z" fill="#ff00fe" stroke="black" stroke-width="5"/>
<path d="M2588,4809 l1500,0 l0,1248 l-1500,0 z" fill="#ff00fe" stroke="black" stroke-width="5"/>
<path d="M4639,2541 l29,0 l0,999 l-29,0 z" fill="#ff00fe" stroke="black" stroke-width="5"/>
<path d="M4851,7245 l2197,0 l0,1160 l-2197,0 z" fill="#df00ff" stroke="black" stroke-width="5"/>
<path d="M62,9475 l3465,0 l0,502 l-3465,0 z" fill="#ff00fe" stroke="black" stroke-width="5"/>
<path d="M8422,3429 l690,0 l0,485 l-690,0 z" fill="#ff00fe" stroke="black" stroke-width="5"/>
<path d="M8478,8643 l1125,0 l0,984 l-1125,0 z" fill="#fe00ff" stroke="black" stroke-width="5"/>
<path d="M2892,1118 l581,0 l0,1153 l-581,0 z" fill="#ff00fe" stroke="black" stroke-width="5"/>
<path d="M6271,4111 l1368,0 l0,1534 l-1368,0 z" fill="#ff00fe" stroke="black" stroke-width="5"/>
<path d="M7054,7599 l2914,0 l0,598 l-2914,0 z" fill="#ff00fe" stroke="black" stroke-width="5"/>
<path d="M8082,3919 l1891,0 l0,791 l-1891,0 z" fill="#4100ff" stroke="black" stroke-width="5"/>
<path d="M2305,8783 l1357,0 l0,692 l-1357,0 z" fill="#fe00ff" stroke="black" stroke-width="5"/>
<path d="M7643,3258 l436,0 l0,2170 l-436,0 z" fill="#ff00fe" stroke="black" stroke-width="5"/>
<path d="M7962,108 l1942,0 l0,293 l-1942,0 z" fill="#fe00ff" stroke="black" stroke-width="5"/>
<path d="M6021,1197 l1591,0 l0,495 l-1591,0 z" fill="#fe00ff" stroke="black" stroke-width="5"/>
<path d="M48,2337 l2669,0 l0,353 l-2669,0 z" fill="#fe00ff" stroke="black" stroke-width="5"/>
<path d="M4,7630 l610,0 l0,1163 l-610,0 z" fill="#fe00ff" stroke="black" stroke-width="5"/>
<path d="M2047,3472 l2044,0 l0,1333 l-2044,0 z" fill="#cd00ff" stroke="black" stroke-width="5"/>
<path d="M3664,7949 l1186,0 l0,2051 l-1186,0 z" fill="#ed00ff" stroke="black" stroke-width="5"/>
<path d="M5388,3141 l979,0 l0,780 l-979,0 z" fill="#7f00ff" stroke="black" stroke-width="5"/>
<path d="M4093,3924 l2176,0 l0,1729 l-2176,0 z" fill="#a600ff" stroke="black" stroke-width="5"/>
<path d="M1845,6615 l2973,0 l0,1333 l-2973,0 z" fill="#ff00fe" stroke="black" stroke-width="5"/>
<path d="M7062,8200 l2938,0 l0,443 l-2938,0 z" fill="#4700ff" stroke="black" stroke-width="5"/>
<path d="M88,3534 l1233,0 l0,206 l-1233,0 z" fill="#fe00ff" stroke="black" stroke-width="5"/>
<path d="M17,6895 l896,0 l0,723 l-896,0 z" fill="#ff00fe" stroke="black" stroke-width="5"/>
<path d="M3,3748 l2044,0 l0,831 l-2044,0 z" fill="#fc00ff" stroke="black" stroke-width="5"/>
<path d="M7990,6541 l1182,0 l0,1031 l-1182,0 z" fill="#ff00fe" stroke="black" stroke-width="5"/>
<path d="M4317,5656 l694,0 l0,952 l-694,0 z" fill="#ff00fe" stroke="black" stroke-width="5"/>
<path d="M1118,2701 l3515,0 l0,767 l-3515,0 z" fill="#ff00fe" stroke="black" stroke-width="5"/>
<path d="M4668,2440 l713,0 l0,1467 l-713,0 z" fill="#fe00ff" stroke="black" stroke-width="5"/>
<path d="M4,979 l2887,0 l0,1356 l-2887,0 z" fill="#9200ff" stroke="black" stroke-width="5"/>
<path d="M622,7949 l3041,0 l0,833 l-3041,0 z" fill="#4000ff" stroke="black" stroke-width="5"/>
<path d="M4850,8406 l1953,0 l0,1593 l-1953,0 z" fill="#e500ff" stroke="black" stroke-width="5"/>
<path d="M7294,8655 l1181,0 l0,832 l-1181,0 z" fill="#3100ff" stroke="black" stroke-width="5"/>
<path d="M2163,9163 l137,0 l0,174 l-137,0 z" fill="#ff00fe" stroke="black" stroke-width="5"/>
<path d="M4312,6176 l1,0 l0,1 l-1,0 z" fill="#0000ff" stroke="black" stroke-width="5"/>
<path d="M1879,330 l60,0 l0,60 l-60,0 z" fill="green"/>
<path d="M1909,360 l-130.5,131.5" stroke="black" stroke-width="5"/>
<path d="M5780,7061 l60,0 l0,60 l-60,0 z" fill="green"/>
<path d="M5810,7091 l699,-640.5" stroke="black" stroke-width="5"/>
<path d="M5377,392 l60,0 l0,60 l-60,0 z" fill="green"/>
<path d="M5407,422 l-102,-134" stroke="black" stroke-width="5"/>
<path d="M5737,3110 l60,0 l0,60 l-60,0 z" fill="green"/>
<path d="M5767,3140 l-78,-736.5" stroke="black" stroke-width="5"/>
<path d="M6629,3204 l60,0 l0,60 l-60,0 z" fill="green"/>
<path d="M6659,3234 l71,-240" stroke="black" stroke-width="5"/>
<path d="M4176,1590 l60,0 l0,60 l-60,0 z" fill="green"/>
<path d="M4206,1620 l9,-104.5" stroke="black" stroke-width="5"/>
<path d="M7823,9462 l60,0 l0,60 l-60,0 z" fill="green"/>
<path d="M7853,9492 l-109,252.5" stroke="black" stroke-width="5"/>
<path d="M7845,402 l60,0 l0,60 l-60,0 z" fill="green"/>
<path d="M7875,432 l-372.5,-87" stroke="black" stroke-width="5"/>
<path d="M9018,5029 l60,0 l0,60 l-60,0 z" fill="green"/>
<path d="M9048,5059 l-15,175" stroke="black" stroke-width="5"/>
<path d="M7262,9040 l60,0 l0,60 l-60,0 z" fill="green"/>
<path d="M7292,9070 l-241,103" stroke="black" stroke-width="5"/>
<path d="M7603,2466 l60,0 l0,60 l-60,0 z" fill="green"/>
<path d="M7633,2496 l-13,-18" stroke="black" stroke-width="5"/>
<path d="M391,4805 l60,0 l0,60 l-60,0 z" fill="green"/>
<path d="M421,4835 l325.5,353" stroke="black" stroke-width="5"/>
<path d="M7134,4079 l60,0 l0,60 l-60,0 z" fill="green"/>
<path d="M7164,4109 l22.5,-316.5" stroke="black" stroke-width="5"/>
<path d="M5326,2241 l60,0 l0,60 l-60,0 z" fill="green"/>
<path d="M5356,2271 l-98.5,-14.5" stroke="black" stroke-width="5"/>
<path d="M5231,547 l60,0 l0,60 l-60,0 z" fill="green"/>
<path d="M5261,577 l217,456.5" stroke="black" stroke-width="5"/>
<path d="M3516,5195 l60,0 l0,60 l-60,0 z" fill="green"/>
<path d="M3546,5225 l-208,208" stroke="black" stroke-width="5"/>
<path d="M4637,3356 l60,0 l0,60 l-60,0 z" fill="green"/>
<path d="M4667,3386 l-13.5,-345.5" stroke="black" stroke-width="5"/>
<path d="M5566,7866 l60,0 l0,60 l-60,0 z" fill="green"/>
<path d="M5596,7896 l353.5,-71" stroke="black" stroke-width="5"/>
<path d="M2488,9783 l60,0 l0,60 l-60,0 z" fill="green"/>
<path d="M2518,9813 l-723.5,-87" stroke="black" stroke-width="5"/>
<path d="M8972,3883 l60,0 l0,60 l-60,0 z" fill="green"/>
<path d="M9002,3913 l-235,-241.5" stroke="black" stroke-width="5"/>
<path d="M8544,8917 l60,0 l0,60 l-60,0 z" fill="green"/>
<path d="M8574,8947 l466.5,188" stroke="black" stroke-width="5"/>
<path d="M3088,1743 l60,0 l0,60 l-60,0 z" fill="green"/>
<path d="M3118,1773 l64.5,-78.5" stroke="black" stroke-width="5"/>
<path d="M7110,4358 l60,0 l0,60 l-60,0 z" fill="green"/>
<path d="M7140,4388 l-185,490" stroke="black" stroke-width="5"/>
<path d="M8514,8166 l60,0 l0,60 l-60,0 z" fill="green"/>
<path d="M8544,8196 l-33,-298" stroke="black" stroke-width="5"/>
<path d="M8547,4307 l60,0 l0,60 l-60,0 z" fill="green"/>
<path d="M8577,4337 l450.5,-22.5" stroke="black" stroke-width="5"/>
<path d="M3125,9138 l60,0 l0,60 l-60,0 z" fill="green"/>
<path d="M3155,9168 l-171.5,-39" stroke="black" stroke-width="5"/>
<path d="M7793,4374 l60,0 l0,60 l-60,0 z" fill="green"/>
<path d="M7823,4404 l38,-61" stroke="black" stroke-width="5"/>
<path d="M9421,80 l60,0 l0,60 l-60,0 z" fill="green"/>
<path d="M9451,110 l-518,144.5" stroke="black" stroke-width="5"/>
<path d="M7001,1359 l60,0 l0,60 l-60,0 z" fill="green"/>
<path d="M7031,1389 l-214.5,55.5" stroke="black" stroke-width="5"/>
<path d="M1811,2307 l60,0 l0,60 l-60,0 z" fill="green"/>
<path d="M1841,2337 l-458.5,176.5" stroke="black" stroke-width="5"/>
<path d="M46,8334 l60,0 l0,60 l-60,0 z" fill="green"/>
<path d="M76,8364 l233,-152.5" stroke="black" stroke-width="5"/>
<path d="M3513,3901 l60,0 l0,60 l-60,0 z" fill="green"/>
<path d="M3543,3931 l-474,207.5" stroke="black" stroke-width="5"/>
<path d="M3897,8798 l60,0 l0,60 l-60,0 z" fill="green"/>
<path d="M3927,8828 l330,146.5" stroke="black" stroke-width="5"/>
<path d="M5641,3275 l60,0 l0,60 l-60,0 z" fill="green"/>
<path d="M5671,3305 l206.5,226" stroke="black" stroke-width="5"/>
<path d="M5512,4557 l60,0 l0,60 l-60,0 z" fill="green"/>
<path d="M5542,4587 l-361,201.5" stroke="black" stroke-width="5"/>
<path d="M4000,7702 l60,0 l0,60 l-60,0 z" fill="green"/>
<path d="M4030,7732 l-698.5,-450.5" stroke="black" stroke-width="5"/>
<path d="M8545,8170 l60,0 l0,60 l-60,0 z" fill="green"/>
<path d="M8575,8200 l-44,221.5" stroke="black" stroke-width="5"/>
<path d="M1109,3709 l60,0 l0,60 l-60,0 z" fill="green"/>
<path d="M1139,3739 l-434.5,-102" stroke="black" stroke-width="5"/>
<path d="M20,7385 l60,0 l0,60 l-60,0 z" fill="green"/>
<path d="M50,7415 l415,-158.5" stroke="black" stroke-width="5"/>
<path d="M904,4026 l60,0 l0,60 l-60,0 z" fill="green"/>
<path d="M934,4056 l91,107.5" stroke="black" stroke-width="5"/>
<path d="M8771,7148 l60,0 l0,60 l-60,0 z" fill="green"/>
<path d="M8801,7178 l-220,-121.5" stroke="black" stroke-width="5"/>
<path d="M4469,6177 l60,0 l0,60 l-60,0 z" fill="green"/>
<path d="M4499,6207 l165,-75" stroke="black" stroke-width="5"/>
<path d="M3066,3345 l60,0 l0,60 l-60,0 z" fill="green"/>
<path d="M3096,3375 l-220.5,-290.5" stroke="black" stroke-width="5"/>
<path d="M5222,3251 l60,0 l0,60 l-60,0 z" fill="green"/>
<path d="M5252,3281 l-227.5,-107.5" stroke="black" stroke-width="5"/>
<path d="M2217,1416 l60,0 l0,60 l-60,0 z" fill="green"/>
<path d="M2247,1446 l-799.5,211" stroke="black" stroke-width="5"/>
<path d="M3317,8471 l60,0 l0,60 l-60,0 z" fill="green"/>
<path d="M3347,8501 l-1204.5,-135.5" stroke="black" stroke-width="5"/>
<path d="M5761,8570 l60,0 l0,60 l-60,0 z" fill="green"/>
<path d="M5791,8600 l35.5,602.5" stroke="black" stroke-width="5"/>
<path d="M8003,8962 l60,0 l0,60 l-60,0 z" fill="green"/>
<path d="M8033,8992 l-148.5,79" stroke="black" stroke-width="5"/>
<path d="M2267,9224 l60,0 l0,60 l-60,0 z" fill="green"/>
<path d="M2297,9254 l-65.5,-4" stroke="black" stroke-width="5"/>
<path d="M4282,6146 l60,0 l0,60 l-60,0 z" fill="green"/>
<path d="M4312,6176 l0.5,0.5" stroke="black" stroke-width="5"/>
<text font-size="200" text-anchor="middle" x="1778.5" y="561.5">
0
</text>
<text font-size="200" text-anchor="middle" x="6509" y="6520.5">
1
</text>
<text font-size="200" text-anchor="middle" x="5305" y="358">
2
</text>
<text font-size="200" text-anchor="middle" x="5689" y="2473.5">
3
</text>
<text font-size="200" text-anchor="middle" x="6730" y="3064">
4
</text>
<text font-size="200" text-anchor="middle" x="4215" y="1585.5">
5
</text>
<text font-size="200" text-anchor="middle" x="7744" y="9814.5">
6
</text>
<text font-size="200" text-anchor="middle" x="7502.5" y="415">
7
</text>
<text font-size="200" text-anchor="middle" x="9033" y="5304">
8
</text>
<text font-size="200" text-anchor="middle" x="7051" y="9243">
9
</text>
<text font-size="200" text-anchor="middle" x="7620" y="2548">
10
</text>
<text font-size="200" text-anchor="middle" x="746.5" y="5258">
11
</text>
<text font-size="200" text-anchor="middle" x="7186.5" y="3862.5">
12
</text>
<text font-size="200" text-anchor="middle" x="5257.5" y="2326.5">
13
</text>
<text font-size="200" text-anchor="middle" x="5478" y="1103.5">
14
</text>
<text font-size="200" text-anchor="middle" x="3338" y="5503">
15
</text>
<text font-size="200" text-anchor="middle" x="4653.5" y="3110.5">
16
</text>
<text font-size="200" text-anchor="middle" x="5949.5" y="7895">
17
</text>
<text font-size="200" text-anchor="middle" x="1794.5" y="9796">
18
</text>
<text font-size="200" text-anchor="middle" x="8767" y="3741.5">
19
</text>
<text font-size="200" text-anchor="middle" x="9040.5" y="9205">
20
</text>
<text font-size="200" text-anchor="middle" x="3182.5" y="1764.5">
21
</text>
<text font-size="200" text-anchor="middle" x="6955" y="4948">
22
</text>
<text font-size="200" text-anchor="middle" x="8511" y="7968">
23
</text>
<text font-size="200" text-anchor="middle" x="9027.5" y="4384.5">
24
</text>
<text font-size="200" text-anchor="middle" x="2983.5" y="9199">
25
</text>
<text font-size="200" text-anchor="middle" x="7861" y="4413">
26
</text>
<text font-size="200" text-anchor="middle" x="8933" y="324.5">
27
</text>
<text font-size="200" text-anchor="middle" x="6816.5" y="1514.5">
28
</text>
<text font-size="200" text-anchor="middle" x="1382.5" y="2583.5">
29
</text>
<text font-size="200" text-anchor="middle" x="309" y="8281.5">
30
</text>
<text font-size="200" text-anchor="middle" x="3069" y="4208.5">
31
</text>
<text font-size="200" text-anchor="middle" x="4257" y="9044.5">
32
</text>
<text font-size="200" text-anchor="middle" x="5877.5" y="3601">
33
</text>
<text font-size="200" text-anchor="middle" x="5181" y="4858.5">
34
</text>
<text font-size="200" text-anchor="middle" x="3331.5" y="7351.5">
35
</text>
<text font-size="200" text-anchor="middle" x="8531" y="8491.5">
36
</text>
<text font-size="200" text-anchor="middle" x="704.5" y="3707">
37
</text>
<text font-size="200" text-anchor="middle" x="465" y="7326.5">
38
</text>
<text font-size="200" text-anchor="middle" x="1025" y="4233.5">
39
</text>
<text font-size="200" text-anchor="middle" x="8581" y="7126.5">
40
</text>
<text font-size="200" text-anchor="middle" x="4664" y="6202">
41
</text>
<text font-size="200" text-anchor="middle" x="2875.5" y="3154.5">
42
</text>
<text font-size="200" text-anchor="middle" x="5024.5" y="3243.5">
43
</text>
<text font-size="200" text-anchor="middle" x="1447.5" y="1727">
44
</text>
<text font-size="200" text-anchor="middle" x="2142.5" y="8435.5">
45
</text>
<text font-size="200" text-anchor="middle" x="5826.5" y="9272.5">
46
</text>
<text font-size="200" text-anchor="middle" x="7884.5" y="9141">
47
</text>
<text font-size="200" text-anchor="middle" x="2231.5" y="9320">
48
</text>
<text font-size="200" text-anchor="middle" x="4312.5" y="6246.5">
49
</text>
</svg>