<svg viewBox="-100 -100 10200 10200" xmlns="http://www.w3.org/2000/svg">
<path d="M0,0 l10000,0 l0,10000 l-10000,0 z" fill="white"/>
<path d="M5,0 l3552,0 l0,1081 l-3552,0 z" fill="#a400ff" stroke="black" stroke-width="5"/>
<path d="M5042,5646 l2906,0 l0,1604 l-2906,0 z" fill="#fe00ff" stroke="black" stroke-width="5"/>
<path d="M3564,2 l3503,0 l0,574 l-3503,0 z" fill="#ff00fe" stroke="black" stroke-width="5"/>
<path d="M5431,1962 l578,0 l0,1179 l-578,0 z" fill="#fe00ff" stroke="black" stroke-width="5"/>
<path d="M6201,2604 l843,0 l0,1092 l-843,0 z" fill="#fe00ff" stroke="black" stroke-width="5"/>
<path d="M3568,588 l1330,0 l0,1870 l-1330,0 z" fill="#fe00ff" stroke="black" stroke-width="5"/>
<path d="M7362,9492 l891,0 l0,494 l-891,0 z" fill="#ff00fe" stroke="black" stroke-width="5"/>
<path d="M7077,132 l961,0 l0,610 l-961,0 z" fill="#ff00fe" stroke="black" stroke-width="5"/>
<path d="M8170,4711 l1726,0 l0,1046 l-1726,0 z" fill="#fe00ff" stroke="black" stroke-width="5"/>
<path d="M6770,8623 l584,0 l0,872 l-584,0 z" fill="#ff00fe" stroke="black" stroke-width="5"/>
<path d="M7071,1714 l1016,0 l0,1534 l-1016,0 z" fill="#ff00fe" stroke="black" stroke-width="5"/>
<path d="M5,4518 l1467,0 l0,1233 l-1467,0 z" fill="#ff00fe" stroke="black" stroke-width="5"/>
<path d="M7164,3337 l45,0 l0,773 l-45,0 z" fill="#fe00ff" stroke="black" stroke-width="5"/>
<path d="M4954,2129 l403,0 l0,195 l-403,0 z" fill="#ff00fe" stroke="black" stroke-width="5"/>
<path d="M4902,577 l1110,0 l0,875 l-1110,0 z" fill="#fe00ff" stroke="black" stroke-width="5"/>
<path d="M2702,4663 l1418,0 l0,1320 l-1418,0 z" fill="#fe00ff" stroke="black" stroke-width="5"/>
<path d="M4606,3053 l68,0 l0,428 l-68,0 z" fill="#ff00fe" stroke="black" stroke-width="5"/>
<path d="M4821,7251 l2177,0 l0,1132 l-2177,0 z" fill="#d800ff" stroke="black" stroke-width="5"/>
<path d="M116,9493 l3464,0 l0,502 l-3464,0 z" fill="#fe00ff" stroke="black" stroke-width="5"/>
<path d="M8527,3487 l784,0 l0,427 l-784,0 z" fill="#ff00fe" stroke="black" stroke-width="5"/>
<path d="M8472,8651 l1131,0 l0,979 l-1131,0 z" fill="#ff00fe" stroke="black" stroke-width="5"/>
<path d="M2797,1086 l660,0 l0,1015 l-660,0 z" fill="#ff00fe" stroke="black" stroke-width="5"/>
<path d="M6426,4115 l1083,0 l0,1529 l-1083,0 z" fill="#e400ff" stroke="black" stroke-width="5"/>
<path d="M7033,7607 l2948,0 l0,591 l-2948,0 z" fill="#fe00ff" stroke="black" stroke-width="5"/>
<path d="M8077,3916 l1907,0 l0,795 l-1907,0 z" fill="#4200ff" stroke="black" stroke-width="5"/>
<path d="M2306,8742 l1303,0 l0,749 l-1303,0 z" fill="#fe00ff" stroke="black" stroke-width="5"/>
<path d="M7511,3519 l561,0 l0,1686 l-561,0 z" fill="#ff00fe" stroke="black" stroke-width="5"/>
<path d="M8158,81 l1792,0 l0,318 l-1792,0 z" fill="#ff00fe" stroke="black" stroke-width="5"/>
<path d="M6343,953 l1135,0 l0,694 l-1135,0 z" fill="#fe00ff" stroke="black" stroke-width="5"/>
<path d="M260,2324 l2373,0 l0,396 l-2373,0 z" fill="#fe00ff" stroke="black" stroke-width="5"/>
<path d="M6,7795 l655,0 l0,1084 l-655,0 z" fill="#fe00ff" stroke="black" stroke-width="5"/>
<path d="M1987,3567 l2148,0 l0,1091 l-2148,0 z" fill="#aa00ff" stroke="black" stroke-width="5"/>
<path d="M3626,7959 l1129,0 l0,2041 l-1129,0 z" fill="#e300ff" stroke="black" stroke-width="5"/>
<path d="M5433,3146 l768,0 l0,749 l-768,0 z" fill="#4f00ff" stroke="black" stroke-width="5"/>
<path d="M4138,3895 l2287,0 l0,1748 l-2287,0 z" fill="#b400ff" stroke="black" stroke-width="5"/>
<path d="M1845,6615 l2973,0 l0,1333 l-2973,0 z" fill="#ff00fe" stroke="black" stroke-width="5"/>
<path d="M6999,8200 l3000,0 l0,423 l-3000,0 z" fill="#4400ff" stroke="black" stroke-width="5"/>
<path d="M122,3529 l1204,0 l0,211 l-1204,0 z" fill="#ff00fe" stroke="black" stroke-width="5"/>
<path d="M36,6900 l824,0 l0,786 l-824,0 z" fill="#fe00ff" stroke="black" stroke-width="5"/>
<path d="M13,3742 l1974,0 l0,775 l-1974,0 z" fill="#f100ff" stroke="black" stroke-width="5"/>
<path d="M7954,6545 l1339,0 l0,910 l-1339,0 z" fill="#fe00ff" stroke="black" stroke-width="5"/>
<path d="M4320,5647 l696,0 l0,949 l-696,0 z" fill="#fe00ff" stroke="black" stroke-width="5"/>
<path d="M1330,2724 l3202,0 l0,842 l-3202,0 z" fill="#ff00fe" stroke="black" stroke-width="5"/>
<path d="M4682,2483 l742,0 l0,1410 l-742,0 z" fill="#ff00fe" stroke="black" stroke-width="5"/>
<path d="M3,1081 l2791,0 l0,1242 l-2791,0 z" fill="#7900ff" stroke="black" stroke-width="5"/>
<path d="M662,7953 l2957,0 l0,789 l-2957,0 z" fill="#3700ff" stroke="black" stroke-width="5"/>
<path d="M4765,8383 l2005,0 l0,1610 l-2005,0 z" fill="#ec00ff" stroke="black" stroke-width="5"/>
<path d="M7356,8626 l1111,0 l0,853 l-1111,0 z" fill="#2e00ff" stroke="black" stroke-width="5"/>
<path d="M2123,9210 l175,0 l0,136 l-175,0 z" fill="#fe00ff" stroke="black" stroke-width="5"/>
<path d="M4312,6176 l1,0 l0,1 l-1,0 z" fill="#0000ff" stroke="black" stroke-width="5"/>
<path d="M1879,330 l60,0 l0,60 l-60,0 z" fill="green"/>
<path d="M1909,360 l-128,180.5" stroke="black" stroke-width="5"/>
<path d="M5780,7061 l60,0 l0,60 l-60,0 z" fill="green"/>
<path d="M5810,7091 l685,-643" stroke="black" stroke-width="5"/>
<path d="M5377,392 l60,0 l0,60 l-60,0 z" fill="green"/>
<path d="M5407,422 l-91.5,-133" stroke="black" stroke-width="5"/>
<path d="M5737,3110 l60,0 l0,60 l-60,0 z" fill="green"/>
<path d="M5767,3140 l-47,-588.5" stroke="black" stroke-width="5"/>
<path d="M6629,3204 l60,0 l0,60 l-60,0 z" fill="green"/>
<path d="M6659,3234 l-36.5,-84" stroke="black" stroke-width="5"/>
<path d="M4176,1590 l60,0 l0,60 l-60,0 z" fill="green"/>
<path d="M4206,1620 l27,-97" stroke="black" stroke-width="5"/>
<path d="M7823,9462 l60,0 l0,60 l-60,0 z" fill="green"/>
<path d="M7853,9492 l-45.5,247" stroke="black" stroke-width="5"/>
<path d="M7845,402 l60,0 l0,60 l-60,0 z" fill="green"/>
<path d="M7875,432 l-317.5,5" stroke="black" stroke-width="5"/>
<path d="M9018,5029 l60,0 l0,60 l-60,0 z" fill="green"/>
<path d="M9048,5059 l-15,175" stroke="black" stroke-width="5"/>
<path d="M7262,9040 l60,0 l0,60 l-60,0 z" fill="green"/>
<path d="M7292,9070 l-230,-11" stroke="black" stroke-width="5"/>
<path d="M7603,2466 l60,0 l0,60 l-60,0 z" fill="green"/>
<path d="M7633,2496 l-54,-15" stroke="black" stroke-width="5"/>
<path d="M391,4805 l60,0 l0,60 l-60,0 z" fill="green"/>
<path d="M421,4835 l317.5,299.5" stroke="black" stroke-width="5"/>
<path d="M7134,4079 l60,0 l0,60 l-60,0 z" fill="green"/>
<path d="M7164,4109 l22.5,-385.5" stroke="black" stroke-width="5"/>
<path d="M5326,2241 l60,0 l0,60 l-60,0 z" fill="green"/>
<path d="M5356,2271 l-200.5,-44.5" stroke="black" stroke-width="5"/>
<path d="M5231,547 l60,0 l0,60 l-60,0 z" fill="green"/>
<path d="M5261,577 l196,437.5" stroke="black" stroke-width="5"/>
<path d="M3516,5195 l60,0 l0,60 l-60,0 z" fill="green"/>
<path d="M3546,5225 l-135,98" stroke="black" stroke-width="5"/>
<path d="M4637,3356 l60,0 l0,60 l-60,0 z" fill="green"/>
<path d="M4667,3386 l-27,-119" stroke="black" stroke-width="5"/>
<path d="M5566,7866 l60,0 l0,60 l-60,0 z" fill="green"/>
<path d="M5596,7896 l313.5,-79" stroke="black" stroke-width="5"/>
<path d="M2488,9783 l60,0 l0,60 l-60,0 z" fill="green"/>
<path d="M2518,9813 l-670,-69" stroke="black" stroke-width="5"/>
<path d="M8972,3883 l60,0 l0,60 l-60,0 z" fill="green"/>
<path d="M9002,3913 l-83,-212.5" stroke="black" stroke-width="5"/>
<path d="M8544,8917 l60,0 l0,60 l-60,0 z" fill="green"/>
<path d="M8574,8947 l463.5,193.5" stroke="black" stroke-width="5"/>
<path d="M3088,1743 l60,0 l0,60 l-60,0 z" fill="green"/>
<path d="M3118,1773 l9,-179.5" stroke="black" stroke-width="5"/>
<path d="M7110,4358 l60,0 l0,60 l-60,0 z" fill="green"/>
<path d="M7140,4388 l-172.5,491.5" stroke="black" stroke-width="5"/>
<path d="M8514,8166 l60,0 l0,60 l-60,0 z" fill="green"/>
<path d="M8544,8196 l-37,-293.5" stroke="black" stroke-width="5"/>
<path d="M8547,4307 l60,0 l0,60 l-60,0 z" fill="green"/>
<path d="M8577,4337 l453.5,-23.5" stroke="black" stroke-width="5"/>
<path d="M3125,9138 l60,0 l0,60 l-60,0 z" fill="green"/>
<path d="M3155,9168 l-197.5,-51.5" stroke="black" stroke-width="5"/>
<path d="M7793,4374 l60,0 l0,60 l-60,0 z" fill="green"/>
<path d="M7823,4404 l-31.5,-42" stroke="black" stroke-width="5"/>
<path d="M9421,80 l60,0 l0,60 l-60,0 z" fill="green"/>
<path d="M9451,110 l-397,130" stroke="black" stroke-width="5"/>
<path d="M7001,1359 l60,0 l0,60 l-60,0 z" fill="green"/>
<path d="M7031,1389 l-120.5,-89" stroke="black" stroke-width="5"/>
<path d="M1811,2307 l60,0 l0,60 l-60,0 z" fill="green"/>
<path d="M1841,2337 l-394.5,185" stroke="black" stroke-width="5"/>
<path d="M46,8334 l60,0 l0,60 l-60,0 z" fill="green"/>
<path d="M76,8364 l257.5,-27" stroke="black" stroke-width="5"/>
<path d="M3513,3901 l60,0 l0,60 l-60,0 z" fill="green"/>
<path d="M3543,3931 l-482,181.5" stroke="black" stroke-width="5"/>
<path d="M3897,8798 l60,0 l0,60 l-60,0 z" fill="green"/>
<path d="M3927,8828 l263.5,151.5" stroke="black" stroke-width="5"/>
<path d="M5641,3275 l60,0 l0,60 l-60,0 z" fill="green"/>
<path d="M5671,3305 l146,215.5" stroke="black" stroke-width="5"/>
<path d="M5512,4557 l60,0 l0,60 l-60,0 z" fill="green"/>
<path d="M5542,4587 l-260.5,182" stroke="black" stroke-width="5"/>
<path d="M4000,7702 l60,0 l0,60 l-60,0 z" fill="green"/>
<path d="M4030,7732 l-698.5,-450.5" stroke="black" stroke-width="5"/>
<path d="M8545,8170 l60,0 l0,60 l-60,0 z" fill="green"/>
<path d="M8575,8200 l-76,211.5" stroke="black" stroke-width="5"/>
<path d="M1109,3709 l60,0 l0,60 l-60,0 z" fill="green"/>
<path d="M1139,3739 l-415,-104.5" stroke="black" stroke-width="5"/>
<path d="M20,7385 l60,0 l0,60 l-60,0 z" fill="green"/>
<path d="M50,7415 l398,-122" stroke="black" stroke-width="5"/>
<path d="M904,4026 l60,0 l0,60 l-60,0 z" fill="green"/>
<path d="M934,4056 l66,73.5" stroke="black" stroke-width="5"/>
<path d="M8771,7148 l60,0 l0,60 l-60,0 z" fill="green"/>
<path d="M8801,7178 l-177.5,-178" stroke="black" stroke-width="5"/>
<path d="M4469,6177 l60,0 l0,60 l-60,0 z" fill="green"/>
<path d="M4499,6207 l169,-85.5" stroke="black" stroke-width="5"/>
<path d="M3066,3345 l60,0 l0,60 l-60,0 z" fill="green"/>
<path d="M3096,3375 l-165,-230" stroke="black" stroke-width="5"/>
<path d="M5222,3251 l60,0 l0,60 l-60,0 z" fill="green"/>
<path d="M5252,3281 l-199,-93" stroke="black" stroke-width="5"/>
<path d="M2217,1416 l60,0 l0,60 l-60,0 z" fill="green"/>
<path d="M2247,1446 l-848.5,256" stroke="black" stroke-width="5"/>
<path d="M3317,8471 l60,0 l0,60 l-60,0 z" fill="green"/>
<path d="M3347,8501 l-1206.5,-153.5" stroke="black" stroke-width="5"/>
<path d="M5761,8570 l60,0 l0,60 l-60,0 z" fill="green"/>
<path d="M5791,8600 l-23.5,588" stroke="black" stroke-width="5"/>
<path d="M8003,8962 l60,0 l0,60 l-60,0 z" fill="green"/>
<path d="M8033,8992 l-121.5,60.5" stroke="black" stroke-width="5"/>
<path d="M2267,9224 l60,0 l0,60 l-60,0 z" fill="green"/>
<path d="M2297,9254 l-86.5,24" stroke="black" stroke-width="5"/>
<path d="M4282,6146 l60,0 l0,60 l-60,0 z" fill="green"/>
<path d="M4312,6176 l0.5,0.5" stroke="black" stroke-width="5"/>
<text font-size="200" text-anchor="middle" x="1781" y="610.5">
0
</text>
<text font-size="200" text-anchor="middle" x="6495" y="6518">
1
</text>
<text font-size="200" text-anchor="middle" x="5315.5" y="359">
2
</text>
<text font-size="200" text-anchor="middle" x="5720" y="2621.5">
3
</text>
<text font-size="200" text-anchor="middle" x="6622.5" y="3220">
4
</text>
<text font-size="200" text-anchor="middle" x="4233" y="1593">
5
</text>
<text font-size="200" text-anchor="middle" x="7807.5" y="9809">
6
</text>
<text font-size="200" text-anchor="middle" x="7557.5" y="507">
7
</text>
<text font-size="200" text-anchor="middle" x="9033" y="5304">
8
</text>
<text font-size="200" text-anchor="middle" x="7062" y="9129">
9
</text>
<text font-size="200" text-anchor="middle" x="7579" y="2551">
10
</text>
<text font-size="200" text-anchor="middle" x="738.5" y="5204.5">
11
</text>
<text font-size="200" text-anchor="middle" x="7186.5" y="3793.5">
12
</text>
<text font-size="200" text-anchor="middle" x="5155.5" y="2296.5">
13
</text>
<text font-size="200" text-anchor="middle" x="5457" y="1084.5">
14
</text>
<text font-size="200" text-anchor="middle" x="3411" y="5393">
15
</text>
<text font-size="200" text-anchor="middle" x="4640" y="3337">
16
</text>
<text font-size="200" text-anchor="middle" x="5909.5" y="7887">
17
</text>
<text font-size="200" text-anchor="middle" x="1848" y="9814">
18
</text>
<text font-size="200" text-anchor="middle" x="8919" y="3770.5">
19
</text>
<text font-size="200" text-anchor="middle" x="9037.5" y="9210.5">
20
</text>
<text font-size="200" text-anchor="middle" x="3127" y="1663.5">
21
</text>
<text font-size="200" text-anchor="middle" x="6967.5" y="4949.5">
22
</text>
<text font-size="200" text-anchor="middle" x="8507" y="7972.5">
23
</text>
<text font-size="200" text-anchor="middle" x="9030.5" y="4383.5">
24
</text>
<text font-size="200" text-anchor="middle" x="2957.5" y="9186.5">
25
</text>
<text font-size="200" text-anchor="middle" x="7791.5" y="4432">
26
</text>
<text font-size="200" text-anchor="middle" x="9054" y="310">
27
</text>
<text font-size="200" text-anchor="middle" x="6910.5" y="1370">
28
</text>
<text font-size="200" text-anchor="middle" x="1446.5" y="2592">
29
</text>
<text font-size="200" text-anchor="middle" x="333.5" y="8407">
30
</text>
<text font-size="200" text-anchor="middle" x="3061" y="4182.5">
31
</text>
<text font-size="200" text-anchor="middle" x="4190.5" y="9049.5">
32
</text>
<text font-size="200" text-anchor="middle" x="5817" y="3590.5">
33
</text>
<text font-size="200" text-anchor="middle" x="5281.5" y="4839">
34
</text>
<text font-size="200" text-anchor="middle" x="3331.5" y="7351.5">
35
</text>
<text font-size="200" text-anchor="middle" x="8499" y="8481.5">
36
</text>
<text font-size="200" text-anchor="middle" x="724" y="3704.5">
37
</text>
<text font-size="200" text-anchor="middle" x="448" y="7363">
38
</text>
<text font-size="200" text-anchor="middle" x="1000" y="4199.5">
39
</text>
<text font-size="200" text-anchor="middle" x="8623.5" y="7070">
40
</text>
<text font-size="200" text-anchor="middle" x="4668" y="6191.5">
41
</text>
<text font-size="200" text-anchor="middle" x="2931" y="3215">
42
</text>
<text font-size="200" text-anchor="middle" x="5053" y="3258">
43
</text>
<text font-size="200" text-anchor="middle" x="1398.5" y="1772">
44
</text>
<text font-size="200" text-anchor="middle" x="2140.5" y="8417.5">
45
</text>
<text font-size="200" text-anchor="middle" x="5767.5" y="9258">
46
</text>
<text font-size="200" text-anchor="middle" x="7911.5" y="9122.5">
47
</text>
<text font-size="200" text-anchor="middle" x="2210.5" y="9348">
48
</text>
<text font-size="200" text-anchor="middle" x="4312.5" y="6246.5">
49
</text>
</svg>