<svg viewBox="-100 -100 10200 10200" xmlns="http://www.w3.org/2000/svg">
<path d="M0,0 l10000,0 l0,10000 l-10000,0 z" fill="white"/>
<path d="M5,6 l3528,0 l0,1024 l-3528,0 z" fill="#9600ff" stroke="black" stroke-width="5"/>
<path d="M5017,5661 l3011,0 l0,1548 l-3011,0 z" fill="#fe00ff" stroke="black" stroke-width="5"/>
<path d="M3561,9 l3584,0 l0,561 l-3584,0 z" fill="#ff00fe" stroke="black" stroke-width="5"/>
<path d="M5412,1596 l442,0 l0,1547 l-442,0 z" fill="#ff00fe" stroke="black" stroke-width="5"/>
<path d="M6452,2314 l646,0 l0,1427 l-646,0 z" fill="#ff00fe" stroke="black" stroke-width="5"/>
<path d="M3559,572 l1349,0 l0,1844 l-1349,0 z" fill="#ff00fe" stroke="black" stroke-width="5"/>
<path d="M7338,9492 l900,0 l0,489 l-900,0 z" fill="#fe00ff" stroke="black" stroke-width="5"/>
<path d="M7164,51 l791,0 l0,741 l-791,0 z" fill="#fe00ff" stroke="black" stroke-width="5"/>
<path d="M8154,4805 l1802,0 l0,1002 l-1802,0 z" fill="#ff00fe" stroke="black" stroke-width="5"/>
<path d="M6864,8743 l430,0 l0,1184 l-430,0 z" fill="#fe00ff" stroke="black" stroke-width="5"/>
<path d="M7098,1595 l883,0 l0,1765 l-883,0 z" fill="#ff00fe" stroke="black" stroke-width="5"/>
<path d="M8,4633 l1496,0 l0,1209 l-1496,0 z" fill="#fe00ff" stroke="black" stroke-width="5"/>
<path d="M7117,3366 l48,0 l0,747 l-48,0 z" fill="#ff00fe" stroke="black" stroke-width="5"/>
<path d="M5274,1492 l100,0 l0,809 l-100,0 z" fill="#ff00fe" stroke="black" stroke-width="5"/>
<path d="M4914,577 l1104,0 l0,880 l-1104,0 z" fill="#ff00fe" stroke="black" stroke-width="5"/>
<path d="M2452,4950 l1658,0 l0,1129 l-1658,0 z" fill="#fe00ff" stroke="black" stroke-width="5"/>
<path d="M4651,2469 l25,0 l0,1100 l-25,0 z" fill="#fd00ff" stroke="black" stroke-width="5"/>
<path d="M4828,7210 l2174,0 l0,1382 l-2174,0 z" fill="#f900ff" stroke="black" stroke-width="5"/>
<path d="M71,9500 l3533,0 l0,492 l-3533,0 z" fill="#fe00ff" stroke="black" stroke-width="5"/>
<path d="M8241,3614 l1106,0 l0,303 l-1106,0 z" fill="#ff00fe" stroke="black" stroke-width="5"/>
<path d="M8568,8710 l1095,0 l0,1011 l-1095,0 z" fill="#fe00ff" stroke="black" stroke-width="5"/>
<path d="M3027,1077 l524,0 l0,1278 l-524,0 z" fill="#fe00ff" stroke="black" stroke-width="5"/>
<path d="M6278,4117 l1373,0 l0,1528 l-1373,0 z" fill="#fe00ff" stroke="black" stroke-width="5"/>
<path d="M7006,7613 l2984,0 l0,584 l-2984,0 z" fill="#ff00fe" stroke="black" stroke-width="5"/>
<path d="M8153,3919 l1832,0 l0,886 l-1832,0 z" fill="#4b00ff" stroke="black" stroke-width="5"/>
<path d="M2299,8759 l1327,0 l0,737 l-1327,0 z" fill="#ff00fe" stroke="black" stroke-width="5"/>
<path d="M7653,3427 l478,0 l0,1979 l-478,0 z" fill="#ff00fe" stroke="black" stroke-width="5"/>
<path d="M8199,3 l1696,0 l0,336 l-1696,0 z" fill="#ff00fe" stroke="black" stroke-width="5"/>
<path d="M6078,1099 l1871,0 l0,421 l-1871,0 z" fill="#fe00ff" stroke="black" stroke-width="5"/>
<path d="M96,2337 l2771,0 l0,340 l-2771,0 z" fill="#fe00ff" stroke="black" stroke-width="5"/>
<path d="M20,7541 l541,0 l0,1310 l-541,0 z" fill="#fe00ff" stroke="black" stroke-width="5"/>
<path d="M2012,3434 l2146,0 l0,1514 l-2146,0 z" fill="#f000ff" stroke="black" stroke-width="5"/>
<path d="M3626,7963 l1196,0 l0,2033 l-1196,0 z" fill="#ed00ff" stroke="black" stroke-width="5"/>
<path d="M5406,3145 l1039,0 l0,786 l-1039,0 z" fill="#8d00ff" stroke="black" stroke-width="5"/>
<path d="M4161,3932 l2115,0 l0,1716 l-2115,0 z" fill="#9e00ff" stroke="black" stroke-width="5"/>
<path d="M1773,6624 l3053,0 l0,1298 l-3053,0 z" fill="#ff00fe" stroke="black" stroke-width="5"/>
<path d="M7080,8200 l2918,0 l0,509 l-2918,0 z" fill="#5a00ff" stroke="black" stroke-width="5"/>
<path d="M196,3485 l994,0 l0,255 l-994,0 z" fill="#fe00ff" stroke="black" stroke-width="5"/>
<path d="M2,6718 l787,0 l0,823 l-787,0 z" fill="#fe00ff" stroke="black" stroke-width="5"/>
<path d="M17,3747 l1962,0 l0,885 l-1962,0 z" fill="#fe00ff" stroke="black" stroke-width="5"/>
<path d="M8071,6423 l1116,0 l0,1092 l-1116,0 z" fill="#ff00fe" stroke="black" stroke-width="5"/>
<path d="M4320,5659 l691,0 l0,956 l-691,0 z" fill="#ff00fe" stroke="black" stroke-width="5"/>
<path d="M929,2680 l3629,0 l0,743 l-3629,0 z" fill="#ff00fe" stroke="black" stroke-width="5"/>
<path d="M4683,2438 l718,0 l0,1456 l-718,0 z" fill="#fe00ff" stroke="black" stroke-width="5"/>
<path d="M4,1031 l2985,0 l0,1300 l-2985,0 z" fill="#9000ff" stroke="black" stroke-width="5"/>
<path d="M578,7927 l3044,0 l0,832 l-3044,0 z" fill="#4000ff" stroke="black" stroke-width="5"/>
<path d="M4834,8598 l2015,0 l0,1390 l-2015,0 z" fill="#cf00ff" stroke="black" stroke-width="5"/>
<path d="M7302,8711 l1256,0 l0,780 l-1256,0 z" fill="#3100ff" stroke="black" stroke-width="5"/>
<path d="M2230,8952 l68,0 l0,345 l-68,0 z" fill="#fe00ff" stroke="black" stroke-width="5"/>
<path d="M4312,6176 l1,0 l0,1 l-1,0 z" fill="#0000ff" stroke="black" stroke-width="5"/>
<path d="M1879,330 l60,0 l0,60 l-60,0 z" fill="green"/>
<path d="M1909,360 l-140,158" stroke="black" stroke-width="5"/>
<path d="M5780,7061 l60,0 l0,60 l-60,0 z" fill="green"/>
<path d="M5810,7091 l712.5,-656" stroke="black" stroke-width="5"/>
<path d="M5377,392 l60,0 l0,60 l-60,0 z" fill="green"/>
<path d="M5407,422 l-54,-132.5" stroke="black" stroke-width="5"/>
<path d="M5737,3110 l60,0 l0,60 l-60,0 z" fill="green"/>
<path d="M5767,3140 l-134,-770.5" stroke="black" stroke-width="5"/>
<path d="M6629,3204 l60,0 l0,60 l-60,0 z" fill="green"/>
<path d="M6659,3234 l116,-206.5" stroke="black" stroke-width="5"/>
<path d="M4176,1590 l60,0 l0,60 l-60,0 z" fill="green"/>
<path d="M4206,1620 l27.5,-126" stroke="black" stroke-width="5"/>
<path d="M7823,9462 l60,0 l0,60 l-60,0 z" fill="green"/>
<path d="M7853,9492 l-65,244.5" stroke="black" stroke-width="5"/>
<path d="M7845,402 l60,0 l0,60 l-60,0 z" fill="green"/>
<path d="M7875,432 l-315.5,-10.5" stroke="black" stroke-width="5"/>
<path d="M9018,5029 l60,0 l0,60 l-60,0 z" fill="green"/>
<path d="M9048,5059 l7,247" stroke="black" stroke-width="5"/>
<path d="M7262,9040 l60,0 l0,60 l-60,0 z" fill="green"/>
<path d="M7292,9070 l-213,265" stroke="black" stroke-width="5"/>
<path d="M7603,2466 l60,0 l0,60 l-60,0 z" fill="green"/>
<path d="M7633,2496 l-93.5,-18.5" stroke="black" stroke-width="5"/>
<path d="M391,4805 l60,0 l0,60 l-60,0 z" fill="green"/>
<path d="M421,4835 l335,402.5" stroke="black" stroke-width="5"/>
<path d="M7134,4079 l60,0 l0,60 l-60,0 z" fill="green"/>
<path d="M7164,4109 l-23,-369.5" stroke="black" stroke-width="5"/>
<path d="M5326,2241 l60,0 l0,60 l-60,0 z" fill="green"/>
<path d="M5356,2271 l-32,-374.5" stroke="black" stroke-width="5"/>
<path d="M5231,547 l60,0 l0,60 l-60,0 z" fill="green"/>
<path d="M5261,577 l205,440" stroke="black" stroke-width="5"/>
<path d="M3516,5195 l60,0 l0,60 l-60,0 z" fill="green"/>
<path d="M3546,5225 l-265,289.5" stroke="black" stroke-width="5"/>
<path d="M4637,3356 l60,0 l0,60 l-60,0 z" fill="green"/>
<path d="M4667,3386 l-3.5,-367" stroke="black" stroke-width="5"/>
<path d="M5566,7866 l60,0 l0,60 l-60,0 z" fill="green"/>
<path d="M5596,7896 l319,5" stroke="black" stroke-width="5"/>
<path d="M2488,9783 l60,0 l0,60 l-60,0 z" fill="green"/>
<path d="M2518,9813 l-680.5,-67" stroke="black" stroke-width="5"/>
<path d="M8972,3883 l60,0 l0,60 l-60,0 z" fill="green"/>
<path d="M9002,3913 l-208,-147.5" stroke="black" stroke-width="5"/>
<path d="M8544,8917 l60,0 l0,60 l-60,0 z" fill="green"/>
<path d="M8574,8947 l541.5,268.5" stroke="black" stroke-width="5"/>
<path d="M3088,1743 l60,0 l0,60 l-60,0 z" fill="green"/>
<path d="M3118,1773 l171,-57" stroke="black" stroke-width="5"/>
<path d="M7110,4358 l60,0 l0,60 l-60,0 z" fill="green"/>
<path d="M7140,4388 l-175.5,493" stroke="black" stroke-width="5"/>
<path d="M8514,8166 l60,0 l0,60 l-60,0 z" fill="green"/>
<path d="M8544,8196 l-46,-291" stroke="black" stroke-width="5"/>
<path d="M8547,4307 l60,0 l0,60 l-60,0 z" fill="green"/>
<path d="M8577,4337 l492,25" stroke="black" stroke-width="5"/>
<path d="M3125,9138 l60,0 l0,60 l-60,0 z" fill="green"/>
<path d="M3155,9168 l-192.5,-40.5" stroke="black" stroke-width="5"/>
<path d="M7793,4374 l60,0 l0,60 l-60,0 z" fill="green"/>
<path d="M7823,4404 l69,12.5" stroke="black" stroke-width="5"/>
<path d="M9421,80 l60,0 l0,60 l-60,0 z" fill="green"/>
<path d="M9451,110 l-404,61" stroke="black" stroke-width="5"/>
<path d="M7001,1359 l60,0 l0,60 l-60,0 z" fill="green"/>
<path d="M7031,1389 l-17.5,-79.5" stroke="black" stroke-width="5"/>
<path d="M1811,2307 l60,0 l0,60 l-60,0 z" fill="green"/>
<path d="M1841,2337 l-359.5,170" stroke="black" stroke-width="5"/>
<path d="M46,8334 l60,0 l0,60 l-60,0 z" fill="green"/>
<path d="M76,8364 l214.5,-168" stroke="black" stroke-width="5"/>
<path d="M3513,3901 l60,0 l0,60 l-60,0 z" fill="green"/>
<path d="M3543,3931 l-458,260" stroke="black" stroke-width="5"/>
<path d="M3897,8798 l60,0 l0,60 l-60,0 z" fill="green"/>
<path d="M3927,8828 l297,151.5" stroke="black" stroke-width="5"/>
<path d="M5641,3275 l60,0 l0,60 l-60,0 z" fill="green"/>
<path d="M5671,3305 l254.5,233" stroke="black" stroke-width="5"/>
<path d="M5512,4557 l60,0 l0,60 l-60,0 z" fill="green"/>
<path d="M5542,4587 l-323.5,203" stroke="black" stroke-width="5"/>
<path d="M4000,7702 l60,0 l0,60 l-60,0 z" fill="green"/>
<path d="M4030,7732 l-730.5,-459" stroke="black" stroke-width="5"/>
<path d="M8545,8170 l60,0 l0,60 l-60,0 z" fill="green"/>
<path d="M8575,8200 l-36,254.5" stroke="black" stroke-width="5"/>
<path d="M1109,3709 l60,0 l0,60 l-60,0 z" fill="green"/>
<path d="M1139,3739 l-446,-126.5" stroke="black" stroke-width="5"/>
<path d="M20,7385 l60,0 l0,60 l-60,0 z" fill="green"/>
<path d="M50,7415 l345.5,-285.5" stroke="black" stroke-width="5"/>
<path d="M904,4026 l60,0 l0,60 l-60,0 z" fill="green"/>
<path d="M934,4056 l64,133.5" stroke="black" stroke-width="5"/>
<path d="M8771,7148 l60,0 l0,60 l-60,0 z" fill="green"/>
<path d="M8801,7178 l-172,-209" stroke="black" stroke-width="5"/>
<path d="M4469,6177 l60,0 l0,60 l-60,0 z" fill="green"/>
<path d="M4499,6207 l166.5,-70" stroke="black" stroke-width="5"/>
<path d="M3066,3345 l60,0 l0,60 l-60,0 z" fill="green"/>
<path d="M3096,3375 l-352.5,-323.5" stroke="black" stroke-width="5"/>
<path d="M5222,3251 l60,0 l0,60 l-60,0 z" fill="green"/>
<path d="M5252,3281 l-210,-115" stroke="black" stroke-width="5"/>
<path d="M2217,1416 l60,0 l0,60 l-60,0 z" fill="green"/>
<path d="M2247,1446 l-750.5,235" stroke="black" stroke-width="5"/>
<path d="M3317,8471 l60,0 l0,60 l-60,0 z" fill="green"/>
<path d="M3347,8501 l-1247,-158" stroke="black" stroke-width="5"/>
<path d="M5761,8570 l60,0 l0,60 l-60,0 z" fill="green"/>
<path d="M5791,8600 l50.5,693" stroke="black" stroke-width="5"/>
<path d="M8003,8962 l60,0 l0,60 l-60,0 z" fill="green"/>
<path d="M8033,8992 l-103,109" stroke="black" stroke-width="5"/>
<path d="M2267,9224 l60,0 l0,60 l-60,0 z" fill="green"/>
<path d="M2297,9254 l-33,-129.5" stroke="black" stroke-width="5"/>
<path d="M4282,6146 l60,0 l0,60 l-60,0 z" fill="green"/>
<path d="M4312,6176 l0.5,0.5" stroke="black" stroke-width="5"/>
<text font-size="200" text-anchor="middle" x="1769" y="588">
0
</text>
<text font-size="200" text-anchor="middle" x="6522.5" y="6505">
1
</text>
<text font-size="200" text-anchor="middle" x="5353" y="359.5">
2
</text>
<text font-size="200" text-anchor="middle" x="5633" y="2439.5">
3
</text>
<text font-size="200" text-anchor="middle" x="6775" y="3097.5">
4
</text>
<text font-size="200" text-anchor="middle" x="4233.5" y="1564">
5
</text>
<text font-size="200" text-anchor="middle" x="7788" y="9806.5">
6
</text>
<text font-size="200" text-anchor="middle" x="7559.5" y="491.5">
7
</text>
<text font-size="200" text-anchor="middle" x="9055" y="5376">
8
</text>
<text font-size="200" text-anchor="middle" x="7079" y="9405">
9
</text>
<text font-size="200" text-anchor="middle" x="7539.5" y="2547.5">
10
</text>
<text font-size="200" text-anchor="middle" x="756" y="5307.5">
11
</text>
<text font-size="200" text-anchor="middle" x="7141" y="3809.5">
12
</text>
<text font-size="200" text-anchor="middle" x="5324" y="1966.5">
13
</text>
<text font-size="200" text-anchor="middle" x="5466" y="1087">
14
</text>
<text font-size="200" text-anchor="middle" x="3281" y="5584.5">
15
</text>
<text font-size="200" text-anchor="middle" x="4663.5" y="3089">
16
</text>
<text font-size="200" text-anchor="middle" x="5915" y="7971">
17
</text>
<text font-size="200" text-anchor="middle" x="1837.5" y="9816">
18
</text>
<text font-size="200" text-anchor="middle" x="8794" y="3835.5">
19
</text>
<text font-size="200" text-anchor="middle" x="9115.5" y="9285.5">
20
</text>
<text font-size="200" text-anchor="middle" x="3289" y="1786">
21
</text>
<text font-size="200" text-anchor="middle" x="6964.5" y="4951">
22
</text>
<text font-size="200" text-anchor="middle" x="8498" y="7975">
23
</text>
<text font-size="200" text-anchor="middle" x="9069" y="4432">
24
</text>
<text font-size="200" text-anchor="middle" x="2962.5" y="9197.5">
25
</text>
<text font-size="200" text-anchor="middle" x="7892" y="4486.5">
26
</text>
<text font-size="200" text-anchor="middle" x="9047" y="241">
27
</text>
<text font-size="200" text-anchor="middle" x="7013.5" y="1379.5">
28
</text>
<text font-size="200" text-anchor="middle" x="1481.5" y="2577">
29
</text>
<text font-size="200" text-anchor="middle" x="290.5" y="8266">
30
</text>
<text font-size="200" text-anchor="middle" x="3085" y="4261">
31
</text>
<text font-size="200" text-anchor="middle" x="4224" y="9049.5">
32
</text>
<text font-size="200" text-anchor="middle" x="5925.5" y="3608">
33
</text>
<text font-size="200" text-anchor="middle" x="5218.5" y="4860">
34
</text>
<text font-size="200" text-anchor="middle" x="3299.5" y="7343">
35
</text>
<text font-size="200" text-anchor="middle" x="8539" y="8524.5">
36
</text>
<text font-size="200" text-anchor="middle" x="693" y="3682.5">
37
</text>
<text font-size="200" text-anchor="middle" x="395.5" y="7199.5">
38
</text>
<text font-size="200" text-anchor="middle" x="998" y="4259.5">
39
</text>
<text font-size="200" text-anchor="middle" x="8629" y="7039">
40
</text>
<text font-size="200" text-anchor="middle" x="4665.5" y="6207">
41
</text>
<text font-size="200" text-anchor="middle" x="2743.5" y="3121.5">
42
</text>
<text font-size="200" text-anchor="middle" x="5042" y="3236">
43
</text>
<text font-size="200" text-anchor="middle" x="1496.5" y="1751">
44
</text>
<text font-size="200" text-anchor="middle" x="2100" y="8413">
45
</text>
<text font-size="200" text-anchor="middle" x="5841.5" y="9363">
46
</text>
<text font-size="200" text-anchor="middle" x="7930" y="9171">
47
</text>
<text font-size="200" text-anchor="middle" x="2264" y="9194.5">
48
</text>
<text font-size="200" text-anchor="middle" x="4312.5" y="6246.5">
49
</text>
</svg>