<svg viewBox="-100 -100 10200 10200" xmlns="http://www.w3.org/2000/svg">
<path d="M0,0 l10000,0 l0,10000 l-10000,0 z" fill="white"/>
<path d="M13,1 l3512,0 l0,1008 l-3512,0 z" fill="#9200ff" stroke="black" stroke-width="5"/>
<path d="M5042,5646 l2906,0 l0,1604 l-2906,0 z" fill="#fe00ff" stroke="black" stroke-width="5"/>
<path d="M3535,2 l3539,0 l0,568 l-3539,0 z" fill="#ff00fe" stroke="black" stroke-width="5"/>
<path d="M5448,1970 l581,0 l0,1173 l-581,0 z" fill="#ff00fe" stroke="black" stroke-width="5"/>
<path d="M6201,2604 l843,0 l0,1092 l-843,0 z" fill="#fe00ff" stroke="black" stroke-width="5"/>
<path d="M3539,603 l1343,0 l0,1852 l-1343,0 z" fill="#fe00ff" stroke="black" stroke-width="5"/>
<path d="M7353,9492 l882,0 l0,499 l-882,0 z" fill="#fe00ff" stroke="black" stroke-width="5"/>
<path d="M7102,107 l1045,0 l0,561 l-1045,0 z" fill="#ff00fe" stroke="black" stroke-width="5"/>
<path d="M8170,4711 l1726,0 l0,1046 l-1726,0 z" fill="#fe00ff" stroke="black" stroke-width="5"/>
<path d="M6771,8619 l576,0 l0,884 l-576,0 z" fill="#fe00ff" stroke="black" stroke-width="5"/>
<path d="M7072,1691 l1020,0 l0,1528 l-1020,0 z" fill="#ff00fe" stroke="black" stroke-width="5"/>
<path d="M5,4518 l1467,0 l0,1233 l-1467,0 z" fill="#ff00fe" stroke="black" stroke-width="5"/>
<path d="M7159,3534 l58,0 l0,576 l-58,0 z" fill="#fd00ff" stroke="black" stroke-width="5"/>
<path d="M4964,2103 l424,0 l0,185 l-424,0 z" fill="#ff00fe" stroke="black" stroke-width="5"/>
<path d="M4888,577 l1089,0 l0,892 l-1089,0 z" fill="#fe00ff" stroke="black" stroke-width="5"/>
<path d="M2654,4665 l1475,0 l0,1269 l-1475,0 z" fill="#fe00ff" stroke="black" stroke-width="5"/>
<path d="M4637,2516 l31,0 l0,912 l-31,0 z" fill="#fe00ff" stroke="black" stroke-width="5"/>
<path d="M4857,7253 l2176,0 l0,1179 l-2176,0 z" fill="#e000ff" stroke="black" stroke-width="5"/>
<path d="M23,9512 l3586,0 l0,485 l-3586,0 z" fill="#ff00fe" stroke="black" stroke-width="5"/>
<path d="M8598,3485 l780,0 l0,429 l-780,0 z" fill="#ff00ff" stroke="black" stroke-width="5"/>
<path d="M8477,8622 l1107,0 l0,1000 l-1107,0 z" fill="#fe00ff" stroke="black" stroke-width="5"/>
<path d="M2812,1103 l674,0 l0,994 l-674,0 z" fill="#ff00fe" stroke="black" stroke-width="5"/>
<path d="M6436,4111 l1034,0 l0,1534 l-1034,0 z" fill="#db00ff" stroke="black" stroke-width="5"/>
<path d="M7033,7607 l2948,0 l0,591 l-2948,0 z" fill="#fe00ff" stroke="black" stroke-width="5"/>
<path d="M8076,3914 l1921,0 l0,793 l-1921,0 z" fill="#4300ff" stroke="black" stroke-width="5"/>
<path d="M2306,8742 l1303,0 l0,749 l-1303,0 z" fill="#fe00ff" stroke="black" stroke-width="5"/>
<path d="M7475,3566 l599,0 l0,1579 l-599,0 z" fill="#fe00ff" stroke="black" stroke-width="5"/>
<path d="M8498,110 l1450,0 l0,393 l-1450,0 z" fill="#fe00ff" stroke="black" stroke-width="5"/>
<path d="M6250,962 l1111,0 l0,709 l-1111,0 z" fill="#fe00ff" stroke="black" stroke-width="5"/>
<path d="M589,2248 l1918,0 l0,491 l-1918,0 z" fill="#fe00ff" stroke="black" stroke-width="5"/>
<path d="M25,7788 l629,0 l0,1129 l-629,0 z" fill="#ff00fe" stroke="black" stroke-width="5"/>
<path d="M1974,3600 l2157,0 l0,1059 l-2157,0 z" fill="#a400ff" stroke="black" stroke-width="5"/>
<path d="M3614,7982 l1160,0 l0,2017 l-1160,0 z" fill="#e600ff" stroke="black" stroke-width="5"/>
<path d="M5432,3143 l768,0 l0,741 l-768,0 z" fill="#4d00ff" stroke="black" stroke-width="5"/>
<path d="M4133,3887 l2295,0 l0,1757 l-2295,0 z" fill="#b600ff" stroke="black" stroke-width="5"/>
<path d="M1889,6635 l2964,0 l0,1337 l-2964,0 z" fill="#ff00fe" stroke="black" stroke-width="5"/>
<path d="M7049,8198 l2945,0 l0,414 l-2945,0 z" fill="#3f00ff" stroke="black" stroke-width="5"/>
<path d="M386,3468 l934,0 l0,272 l-934,0 z" fill="#ff00fe" stroke="black" stroke-width="5"/>
<path d="M49,6927 l788,0 l0,822 l-788,0 z" fill="#ff00fe" stroke="black" stroke-width="5"/>
<path d="M7,3741 l1966,0 l0,776 l-1966,0 z" fill="#f000ff" stroke="black" stroke-width="5"/>
<path d="M7998,6483 l1174,0 l0,1038 l-1174,0 z" fill="#ff00fe" stroke="black" stroke-width="5"/>
<path d="M4326,5651 l690,0 l0,956 l-690,0 z" fill="#fe00ff" stroke="black" stroke-width="5"/>
<path d="M1373,2741 l3146,0 l0,857 l-3146,0 z" fill="#ff00fe" stroke="black" stroke-width="5"/>
<path d="M4675,2460 l733,0 l0,1427 l-733,0 z" fill="#fe00ff" stroke="black" stroke-width="5"/>
<path d="M3,1022 l2803,0 l0,1225 l-2803,0 z" fill="#7700ff" stroke="black" stroke-width="5"/>
<path d="M673,7973 l2936,0 l0,765 l-2936,0 z" fill="#3300ff" stroke="black" stroke-width="5"/>
<path d="M4775,8432 l1987,0 l0,1561 l-1987,0 z" fill="#e500ff" stroke="black" stroke-width="5"/>
<path d="M7350,8612 l1115,0 l0,877 l-1115,0 z" fill="#3100ff" stroke="black" stroke-width="5"/>
<path d="M2194,9125 l104,0 l0,229 l-104,0 z" fill="#fe00ff" stroke="black" stroke-width="5"/>
<path d="M4312,6176 l1,0 l0,1 l-1,0 z" fill="#0000ff" stroke="black" stroke-width="5"/>
<path d="M1879,330 l60,0 l0,60 l-60,0 z" fill="green"/>
<path d="M1909,360 l-140,145" stroke="black" stroke-width="5"/>
<path d="M5780,7061 l60,0 l0,60 l-60,0 z" fill="green"/>
<path d="M5810,7091 l685,-643" stroke="black" stroke-width="5"/>
<path d="M5377,392 l60,0 l0,60 l-60,0 z" fill="green"/>
<path d="M5407,422 l-102.5,-136" stroke="black" stroke-width="5"/>
<path d="M5737,3110 l60,0 l0,60 l-60,0 z" fill="green"/>
<path d="M5767,3140 l-28.5,-583.5" stroke="black" stroke-width="5"/>
<path d="M6629,3204 l60,0 l0,60 l-60,0 z" fill="green"/>
<path d="M6659,3234 l-36.5,-84" stroke="black" stroke-width="5"/>
<path d="M4176,1590 l60,0 l0,60 l-60,0 z" fill="green"/>
<path d="M4206,1620 l4.5,-91" stroke="black" stroke-width="5"/>
<path d="M7823,9462 l60,0 l0,60 l-60,0 z" fill="green"/>
<path d="M7853,9492 l-59,249.5" stroke="black" stroke-width="5"/>
<path d="M7845,402 l60,0 l0,60 l-60,0 z" fill="green"/>
<path d="M7875,432 l-250.5,-44.5" stroke="black" stroke-width="5"/>
<path d="M9018,5029 l60,0 l0,60 l-60,0 z" fill="green"/>
<path d="M9048,5059 l-15,175" stroke="black" stroke-width="5"/>
<path d="M7262,9040 l60,0 l0,60 l-60,0 z" fill="green"/>
<path d="M7292,9070 l-233,-9" stroke="black" stroke-width="5"/>
<path d="M7603,2466 l60,0 l0,60 l-60,0 z" fill="green"/>
<path d="M7633,2496 l-51,-41" stroke="black" stroke-width="5"/>
<path d="M391,4805 l60,0 l0,60 l-60,0 z" fill="green"/>
<path d="M421,4835 l317.5,299.5" stroke="black" stroke-width="5"/>
<path d="M7134,4079 l60,0 l0,60 l-60,0 z" fill="green"/>
<path d="M7164,4109 l24,-287" stroke="black" stroke-width="5"/>
<path d="M5326,2241 l60,0 l0,60 l-60,0 z" fill="green"/>
<path d="M5356,2271 l-180,-75.5" stroke="black" stroke-width="5"/>
<path d="M5231,547 l60,0 l0,60 l-60,0 z" fill="green"/>
<path d="M5261,577 l171.5,446" stroke="black" stroke-width="5"/>
<path d="M3516,5195 l60,0 l0,60 l-60,0 z" fill="green"/>
<path d="M3546,5225 l-154.5,74.5" stroke="black" stroke-width="5"/>
<path d="M4637,3356 l60,0 l0,60 l-60,0 z" fill="green"/>
<path d="M4667,3386 l-14.5,-414" stroke="black" stroke-width="5"/>
<path d="M5566,7866 l60,0 l0,60 l-60,0 z" fill="green"/>
<path d="M5596,7896 l349,-53.5" stroke="black" stroke-width="5"/>
<path d="M2488,9783 l60,0 l0,60 l-60,0 z" fill="green"/>
<path d="M2518,9813 l-702,-58.5" stroke="black" stroke-width="5"/>
<path d="M8972,3883 l60,0 l0,60 l-60,0 z" fill="green"/>
<path d="M9002,3913 l-14,-213.5" stroke="black" stroke-width="5"/>
<path d="M8544,8917 l60,0 l0,60 l-60,0 z" fill="green"/>
<path d="M8574,8947 l456.5,175" stroke="black" stroke-width="5"/>
<path d="M3088,1743 l60,0 l0,60 l-60,0 z" fill="green"/>
<path d="M3118,1773 l31,-173" stroke="black" stroke-width="5"/>
<path d="M7110,4358 l60,0 l0,60 l-60,0 z" fill="green"/>
<path d="M7140,4388 l-187,490" stroke="black" stroke-width="5"/>
<path d="M8514,8166 l60,0 l0,60 l-60,0 z" fill="green"/>
<path d="M8544,8196 l-37,-293.5" stroke="black" stroke-width="5"/>
<path d="M8547,4307 l60,0 l0,60 l-60,0 z" fill="green"/>
<path d="M8577,4337 l459.5,-26.5" stroke="black" stroke-width="5"/>
<path d="M3125,9138 l60,0 l0,60 l-60,0 z" fill="green"/>
<path d="M3155,9168 l-197.5,-51.5" stroke="black" stroke-width="5"/>
<path d="M7793,4374 l60,0 l0,60 l-60,0 z" fill="green"/>
<path d="M7823,4404 l-48.5,-48.5" stroke="black" stroke-width="5"/>
<path d="M9421,80 l60,0 l0,60 l-60,0 z" fill="green"/>
<path d="M9451,110 l-228,196.5" stroke="black" stroke-width="5"/>
<path d="M7001,1359 l60,0 l0,60 l-60,0 z" fill="green"/>
<path d="M7031,1389 l-225.5,-72.5" stroke="black" stroke-width="5"/>
<path d="M1811,2307 l60,0 l0,60 l-60,0 z" fill="green"/>
<path d="M1841,2337 l-293,156.5" stroke="black" stroke-width="5"/>
<path d="M46,8334 l60,0 l0,60 l-60,0 z" fill="green"/>
<path d="M76,8364 l263.5,-11.5" stroke="black" stroke-width="5"/>
<path d="M3513,3901 l60,0 l0,60 l-60,0 z" fill="green"/>
<path d="M3543,3931 l-490.5,198.5" stroke="black" stroke-width="5"/>
<path d="M3897,8798 l60,0 l0,60 l-60,0 z" fill="green"/>
<path d="M3927,8828 l267,162.5" stroke="black" stroke-width="5"/>
<path d="M5641,3275 l60,0 l0,60 l-60,0 z" fill="green"/>
<path d="M5671,3305 l145,208.5" stroke="black" stroke-width="5"/>
<path d="M5512,4557 l60,0 l0,60 l-60,0 z" fill="green"/>
<path d="M5542,4587 l-261.5,178.5" stroke="black" stroke-width="5"/>
<path d="M4000,7702 l60,0 l0,60 l-60,0 z" fill="green"/>
<path d="M4030,7732 l-659,-428.5" stroke="black" stroke-width="5"/>
<path d="M8545,8170 l60,0 l0,60 l-60,0 z" fill="green"/>
<path d="M8575,8200 l-53.5,205" stroke="black" stroke-width="5"/>
<path d="M1109,3709 l60,0 l0,60 l-60,0 z" fill="green"/>
<path d="M1139,3739 l-286,-135" stroke="black" stroke-width="5"/>
<path d="M20,7385 l60,0 l0,60 l-60,0 z" fill="green"/>
<path d="M50,7415 l393,-77" stroke="black" stroke-width="5"/>
<path d="M904,4026 l60,0 l0,60 l-60,0 z" fill="green"/>
<path d="M934,4056 l56,73" stroke="black" stroke-width="5"/>
<path d="M8771,7148 l60,0 l0,60 l-60,0 z" fill="green"/>
<path d="M8801,7178 l-216,-176" stroke="black" stroke-width="5"/>
<path d="M4469,6177 l60,0 l0,60 l-60,0 z" fill="green"/>
<path d="M4499,6207 l172,-78" stroke="black" stroke-width="5"/>
<path d="M3066,3345 l60,0 l0,60 l-60,0 z" fill="green"/>
<path d="M3096,3375 l-150,-205.5" stroke="black" stroke-width="5"/>
<path d="M5222,3251 l60,0 l0,60 l-60,0 z" fill="green"/>
<path d="M5252,3281 l-210.5,-107.5" stroke="black" stroke-width="5"/>
<path d="M2217,1416 l60,0 l0,60 l-60,0 z" fill="green"/>
<path d="M2247,1446 l-842.5,188.5" stroke="black" stroke-width="5"/>
<path d="M3317,8471 l60,0 l0,60 l-60,0 z" fill="green"/>
<path d="M3347,8501 l-1206,-145.5" stroke="black" stroke-width="5"/>
<path d="M5761,8570 l60,0 l0,60 l-60,0 z" fill="green"/>
<path d="M5791,8600 l-22.5,612.5" stroke="black" stroke-width="5"/>
<path d="M8003,8962 l60,0 l0,60 l-60,0 z" fill="green"/>
<path d="M8033,8992 l-125.5,58.5" stroke="black" stroke-width="5"/>
<path d="M2267,9224 l60,0 l0,60 l-60,0 z" fill="green"/>
<path d="M2297,9254 l-51,-14.5" stroke="black" stroke-width="5"/>
<path d="M4282,6146 l60,0 l0,60 l-60,0 z" fill="green"/>
<path d="M4312,6176 l0.5,0.5" stroke="black" stroke-width="5"/>
<text font-size="200" text-anchor="middle" x="1769" y="575">
0
</text>
<text font-size="200" text-anchor="middle" x="6495" y="6518">
1
</text>
<text font-size="200" text-anchor="middle" x="5304.5" y="356">
2
</text>
<text font-size="200" text-anchor="middle" x="5738.5" y="2626.5">
3
</text>
<text font-size="200" text-anchor="middle" x="6622.5" y="3220">
4
</text>
<text font-size="200" text-anchor="middle" x="4210.5" y="1599">
5
</text>
<text font-size="200" text-anchor="middle" x="7794" y="9811.5">
6
</text>
<text font-size="200" text-anchor="middle" x="7624.5" y="457.5">
7
</text>
<text font-size="200" text-anchor="middle" x="9033" y="5304">
8
</text>
<text font-size="200" text-anchor="middle" x="7059" y="9131">
9
</text>
<text font-size="200" text-anchor="middle" x="7582" y="2525">
10
</text>
<text font-size="200" text-anchor="middle" x="738.5" y="5204.5">
11
</text>
<text font-size="200" text-anchor="middle" x="7188" y="3892">
12
</text>
<text font-size="200" text-anchor="middle" x="5176" y="2265.5">
13
</text>
<text font-size="200" text-anchor="middle" x="5432.5" y="1093">
14
</text>
<text font-size="200" text-anchor="middle" x="3391.5" y="5369.5">
15
</text>
<text font-size="200" text-anchor="middle" x="4652.5" y="3042">
16
</text>
<text font-size="200" text-anchor="middle" x="5945" y="7912.5">
17
</text>
<text font-size="200" text-anchor="middle" x="1816" y="9824.5">
18
</text>
<text font-size="200" text-anchor="middle" x="8988" y="3769.5">
19
</text>
<text font-size="200" text-anchor="middle" x="9030.5" y="9192">
20
</text>
<text font-size="200" text-anchor="middle" x="3149" y="1670">
21
</text>
<text font-size="200" text-anchor="middle" x="6953" y="4948">
22
</text>
<text font-size="200" text-anchor="middle" x="8507" y="7972.5">
23
</text>
<text font-size="200" text-anchor="middle" x="9036.5" y="4380.5">
24
</text>
<text font-size="200" text-anchor="middle" x="2957.5" y="9186.5">
25
</text>
<text font-size="200" text-anchor="middle" x="7774.5" y="4425.5">
26
</text>
<text font-size="200" text-anchor="middle" x="9223" y="376.5">
27
</text>
<text font-size="200" text-anchor="middle" x="6805.5" y="1386.5">
28
</text>
<text font-size="200" text-anchor="middle" x="1548" y="2563.5">
29
</text>
<text font-size="200" text-anchor="middle" x="339.5" y="8422.5">
30
</text>
<text font-size="200" text-anchor="middle" x="3052.5" y="4199.5">
31
</text>
<text font-size="200" text-anchor="middle" x="4194" y="9060.5">
32
</text>
<text font-size="200" text-anchor="middle" x="5816" y="3583.5">
33
</text>
<text font-size="200" text-anchor="middle" x="5280.5" y="4835.5">
34
</text>
<text font-size="200" text-anchor="middle" x="3371" y="7373.5">
35
</text>
<text font-size="200" text-anchor="middle" x="8521.5" y="8475">
36
</text>
<text font-size="200" text-anchor="middle" x="853" y="3674">
37
</text>
<text font-size="200" text-anchor="middle" x="443" y="7408">
38
</text>
<text font-size="200" text-anchor="middle" x="990" y="4199">
39
</text>
<text font-size="200" text-anchor="middle" x="8585" y="7072">
40
</text>
<text font-size="200" text-anchor="middle" x="4671" y="6199">
41
</text>
<text font-size="200" text-anchor="middle" x="2946" y="3239.5">
42
</text>
<text font-size="200" text-anchor="middle" x="5041.5" y="3243.5">
43
</text>
<text font-size="200" text-anchor="middle" x="1404.5" y="1704.5">
44
</text>
<text font-size="200" text-anchor="middle" x="2141" y="8425.5">
45
</text>
<text font-size="200" text-anchor="middle" x="5768.5" y="9282.5">
46
</text>
<text font-size="200" text-anchor="middle" x="7907.5" y="9120.5">
47
</text>
<text font-size="200" text-anchor="middle" x="2246" y="9309.5">
48
</text>
<text font-size="200" text-anchor="middle" x="4312.5" y="6246.5">
49
</text>
</svg>