<svg viewBox="-100 -100 10200 10200" xmlns="http://www.w3.org/2000/svg">
<path d="M0,0 l10000,0 l0,10000 l-10000,0 z" fill="white"/>
<path d="M3,0 l3517,0 l0,1003 l-3517,0 z" fill="#9100ff" stroke="black" stroke-width="5"/>
<path d="M5042,5646 l2906,0 l0,1604 l-2906,0 z" fill="#fe00ff" stroke="black" stroke-width="5"/>
<path d="M3535,2 l3539,0 l0,568 l-3539,0 z" fill="#ff00fe" stroke="black" stroke-width="5"/>
<path d="M5448,1970 l581,0 l0,1173 l-581,0 z" fill="#ff00fe" stroke="black" stroke-width="5"/>
<path d="M6188,2685 l858,0 l0,1073 l-858,0 z" fill="#ff00fe" stroke="black" stroke-width="5"/>
<path d="M3539,603 l1343,0 l0,1852 l-1343,0 z" fill="#fe00ff" stroke="black" stroke-width="5"/>
<path d="M7330,9492 l910,0 l0,484 l-910,0 z" fill="#ff00fe" stroke="black" stroke-width="5"/>
<path d="M7075,5 l1163,0 l0,504 l-1163,0 z" fill="#fe00ff" stroke="black" stroke-width="5"/>
<path d="M8170,4711 l1726,0 l0,1046 l-1726,0 z" fill="#fe00ff" stroke="black" stroke-width="5"/>
<path d="M6763,8627 l657,0 l0,775 l-657,0 z" fill="#fe00ff" stroke="black" stroke-width="5"/>
<path d="M7072,1691 l1020,0 l0,1528 l-1020,0 z" fill="#ff00fe" stroke="black" stroke-width="5"/>
<path d="M5,4518 l1467,0 l0,1233 l-1467,0 z" fill="#ff00fe" stroke="black" stroke-width="5"/>
<path d="M7099,3646 l75,0 l0,464 l-75,0 z" fill="#fe00ff" stroke="black" stroke-width="5"/>
<path d="M5005,2136 l408,0 l0,192 l-408,0 z" fill="#fe00ff" stroke="black" stroke-width="5"/>
<path d="M4888,577 l1089,0 l0,892 l-1089,0 z" fill="#fe00ff" stroke="black" stroke-width="5"/>
<path d="M2654,4665 l1475,0 l0,1269 l-1475,0 z" fill="#fe00ff" stroke="black" stroke-width="5"/>
<path d="M4645,2496 l23,0 l0,1265 l-23,0 z" fill="#ff00fe" stroke="black" stroke-width="5"/>
<path d="M4855,7250 l2156,0 l0,1174 l-2156,0 z" fill="#dd00ff" stroke="black" stroke-width="5"/>
<path d="M71,9500 l3528,0 l0,493 l-3528,0 z" fill="#ff00fe" stroke="black" stroke-width="5"/>
<path d="M8696,3491 l791,0 l0,423 l-791,0 z" fill="#fe00ff" stroke="black" stroke-width="5"/>
<path d="M8442,8638 l1125,0 l0,984 l-1125,0 z" fill="#fe00ff" stroke="black" stroke-width="5"/>
<path d="M2817,1136 l705,0 l0,950 l-705,0 z" fill="#fe00ff" stroke="black" stroke-width="5"/>
<path d="M6426,4115 l1025,0 l0,1519 l-1025,0 z" fill="#d700ff" stroke="black" stroke-width="5"/>
<path d="M7033,7607 l2948,0 l0,591 l-2948,0 z" fill="#fe00ff" stroke="black" stroke-width="5"/>
<path d="M8085,3914 l1909,0 l0,788 l-1909,0 z" fill="#4100ff" stroke="black" stroke-width="5"/>
<path d="M2303,8753 l1309,0 l0,746 l-1309,0 z" fill="#ff00fe" stroke="black" stroke-width="5"/>
<path d="M7452,3661 l631,0 l0,1499 l-631,0 z" fill="#ff00fe" stroke="black" stroke-width="5"/>
<path d="M8500,91 l1470,0 l0,387 l-1470,0 z" fill="#fe00ff" stroke="black" stroke-width="5"/>
<path d="M6311,921 l1082,0 l0,728 l-1082,0 z" fill="#fe00ff" stroke="black" stroke-width="5"/>
<path d="M711,2167 l1650,0 l0,571 l-1650,0 z" fill="#fe00ff" stroke="black" stroke-width="5"/>
<path d="M3,7765 l668,0 l0,1063 l-668,0 z" fill="#fe00ff" stroke="black" stroke-width="5"/>
<path d="M1924,3603 l2205,0 l0,1059 l-2205,0 z" fill="#a900ff" stroke="black" stroke-width="5"/>
<path d="M3618,7973 l1175,0 l0,2027 l-1175,0 z" fill="#ea00ff" stroke="black" stroke-width="5"/>
<path d="M5409,3145 l778,0 l0,744 l-778,0 z" fill="#5000ff" stroke="black" stroke-width="5"/>
<path d="M4134,3895 l2290,0 l0,1751 l-2290,0 z" fill="#b500ff" stroke="black" stroke-width="5"/>
<path d="M1889,6635 l2964,0 l0,1337 l-2964,0 z" fill="#ff00fe" stroke="black" stroke-width="5"/>
<path d="M7011,8200 l2984,0 l0,427 l-2984,0 z" fill="#4400ff" stroke="black" stroke-width="5"/>
<path d="M406,3437 l838,0 l0,303 l-838,0 z" fill="#fe00ff" stroke="black" stroke-width="5"/>
<path d="M49,6927 l788,0 l0,822 l-788,0 z" fill="#ff00fe" stroke="black" stroke-width="5"/>
<path d="M5,3744 l1918,0 l0,772 l-1918,0 z" fill="#eb00ff" stroke="black" stroke-width="5"/>
<path d="M7978,6521 l1182,0 l0,1031 l-1182,0 z" fill="#ff00fe" stroke="black" stroke-width="5"/>
<path d="M4329,5695 l708,0 l0,933 l-708,0 z" fill="#ff00fe" stroke="black" stroke-width="5"/>
<path d="M1373,2741 l3146,0 l0,857 l-3146,0 z" fill="#ff00fe" stroke="black" stroke-width="5"/>
<path d="M4675,2460 l733,0 l0,1427 l-733,0 z" fill="#fe00ff" stroke="black" stroke-width="5"/>
<path d="M0,1003 l2817,0 l0,1155 l-2817,0 z" fill="#6d00ff" stroke="black" stroke-width="5"/>
<path d="M673,7973 l2936,0 l0,777 l-2936,0 z" fill="#3500ff" stroke="black" stroke-width="5"/>
<path d="M4793,8427 l1968,0 l0,1568 l-1968,0 z" fill="#e400ff" stroke="black" stroke-width="5"/>
<path d="M7422,8634 l1019,0 l0,858 l-1019,0 z" fill="#2800ff" stroke="black" stroke-width="5"/>
<path d="M2083,9148 l215,0 l0,111 l-215,0 z" fill="#ff00fe" stroke="black" stroke-width="5"/>
<path d="M4312,6176 l1,0 l0,1 l-1,0 z" fill="#0000ff" stroke="black" stroke-width="5"/>
<path d="M1879,330 l60,0 l0,60 l-60,0 z" fill="green"/>
<path d="M1909,360 l-147.5,141.5" stroke="black" stroke-width="5"/>
<path d="M5780,7061 l60,0 l0,60 l-60,0 z" fill="green"/>
<path d="M5810,7091 l685,-643" stroke="black" stroke-width="5"/>
<path d="M5377,392 l60,0 l0,60 l-60,0 z" fill="green"/>
<path d="M5407,422 l-102.5,-136" stroke="black" stroke-width="5"/>
<path d="M5737,3110 l60,0 l0,60 l-60,0 z" fill="green"/>
<path d="M5767,3140 l-28.5,-583.5" stroke="black" stroke-width="5"/>
<path d="M6629,3204 l60,0 l0,60 l-60,0 z" fill="green"/>
<path d="M6659,3234 l-42,-12.5" stroke="black" stroke-width="5"/>
<path d="M4176,1590 l60,0 l0,60 l-60,0 z" fill="green"/>
<path d="M4206,1620 l4.5,-91" stroke="black" stroke-width="5"/>
<path d="M7823,9462 l60,0 l0,60 l-60,0 z" fill="green"/>
<path d="M7853,9492 l-68,242" stroke="black" stroke-width="5"/>
<path d="M7845,402 l60,0 l0,60 l-60,0 z" fill="green"/>
<path d="M7875,432 l-218.5,-175" stroke="black" stroke-width="5"/>
<path d="M9018,5029 l60,0 l0,60 l-60,0 z" fill="green"/>
<path d="M9048,5059 l-15,175" stroke="black" stroke-width="5"/>
<path d="M7262,9040 l60,0 l0,60 l-60,0 z" fill="green"/>
<path d="M7292,9070 l-200.5,-55.5" stroke="black" stroke-width="5"/>
<path d="M7603,2466 l60,0 l0,60 l-60,0 z" fill="green"/>
<path d="M7633,2496 l-51,-41" stroke="black" stroke-width="5"/>
<path d="M391,4805 l60,0 l0,60 l-60,0 z" fill="green"/>
<path d="M421,4835 l317.5,299.5" stroke="black" stroke-width="5"/>
<path d="M7134,4079 l60,0 l0,60 l-60,0 z" fill="green"/>
<path d="M7164,4109 l-27.5,-231" stroke="black" stroke-width="5"/>
<path d="M5326,2241 l60,0 l0,60 l-60,0 z" fill="green"/>
<path d="M5356,2271 l-147,-39" stroke="black" stroke-width="5"/>
<path d="M5231,547 l60,0 l0,60 l-60,0 z" fill="green"/>
<path d="M5261,577 l171.5,446" stroke="black" stroke-width="5"/>
<path d="M3516,5195 l60,0 l0,60 l-60,0 z" fill="green"/>
<path d="M3546,5225 l-154.5,74.5" stroke="black" stroke-width="5"/>
<path d="M4637,3356 l60,0 l0,60 l-60,0 z" fill="green"/>
<path d="M4667,3386 l-10.5,-257.5" stroke="black" stroke-width="5"/>
<path d="M5566,7866 l60,0 l0,60 l-60,0 z" fill="green"/>
<path d="M5596,7896 l337,-59" stroke="black" stroke-width="5"/>
<path d="M2488,9783 l60,0 l0,60 l-60,0 z" fill="green"/>
<path d="M2518,9813 l-683,-66.5" stroke="black" stroke-width="5"/>
<path d="M8972,3883 l60,0 l0,60 l-60,0 z" fill="green"/>
<path d="M9002,3913 l89.5,-210.5" stroke="black" stroke-width="5"/>
<path d="M8544,8917 l60,0 l0,60 l-60,0 z" fill="green"/>
<path d="M8574,8947 l430.5,183" stroke="black" stroke-width="5"/>
<path d="M3088,1743 l60,0 l0,60 l-60,0 z" fill="green"/>
<path d="M3118,1773 l51.5,-162" stroke="black" stroke-width="5"/>
<path d="M7110,4358 l60,0 l0,60 l-60,0 z" fill="green"/>
<path d="M7140,4388 l-201.5,486.5" stroke="black" stroke-width="5"/>
<path d="M8514,8166 l60,0 l0,60 l-60,0 z" fill="green"/>
<path d="M8544,8196 l-37,-293.5" stroke="black" stroke-width="5"/>
<path d="M8547,4307 l60,0 l0,60 l-60,0 z" fill="green"/>
<path d="M8577,4337 l462.5,-29" stroke="black" stroke-width="5"/>
<path d="M3125,9138 l60,0 l0,60 l-60,0 z" fill="green"/>
<path d="M3155,9168 l-197.5,-42" stroke="black" stroke-width="5"/>
<path d="M7793,4374 l60,0 l0,60 l-60,0 z" fill="green"/>
<path d="M7823,4404 l-55.5,6.5" stroke="black" stroke-width="5"/>
<path d="M9421,80 l60,0 l0,60 l-60,0 z" fill="green"/>
<path d="M9451,110 l-216,174.5" stroke="black" stroke-width="5"/>
<path d="M7001,1359 l60,0 l0,60 l-60,0 z" fill="green"/>
<path d="M7031,1389 l-179,-104" stroke="black" stroke-width="5"/>
<path d="M1811,2307 l60,0 l0,60 l-60,0 z" fill="green"/>
<path d="M1841,2337 l-305,115.5" stroke="black" stroke-width="5"/>
<path d="M46,8334 l60,0 l0,60 l-60,0 z" fill="green"/>
<path d="M76,8364 l261,-67.5" stroke="black" stroke-width="5"/>
<path d="M3513,3901 l60,0 l0,60 l-60,0 z" fill="green"/>
<path d="M3543,3931 l-516.5,201.5" stroke="black" stroke-width="5"/>
<path d="M3897,8798 l60,0 l0,60 l-60,0 z" fill="green"/>
<path d="M3927,8828 l278.5,158.5" stroke="black" stroke-width="5"/>
<path d="M5641,3275 l60,0 l0,60 l-60,0 z" fill="green"/>
<path d="M5671,3305 l127,212" stroke="black" stroke-width="5"/>
<path d="M5512,4557 l60,0 l0,60 l-60,0 z" fill="green"/>
<path d="M5542,4587 l-263,183.5" stroke="black" stroke-width="5"/>
<path d="M4000,7702 l60,0 l0,60 l-60,0 z" fill="green"/>
<path d="M4030,7732 l-659,-428.5" stroke="black" stroke-width="5"/>
<path d="M8545,8170 l60,0 l0,60 l-60,0 z" fill="green"/>
<path d="M8575,8200 l-72,213.5" stroke="black" stroke-width="5"/>
<path d="M1109,3709 l60,0 l0,60 l-60,0 z" fill="green"/>
<path d="M1139,3739 l-314,-150.5" stroke="black" stroke-width="5"/>
<path d="M20,7385 l60,0 l0,60 l-60,0 z" fill="green"/>
<path d="M50,7415 l393,-77" stroke="black" stroke-width="5"/>
<path d="M904,4026 l60,0 l0,60 l-60,0 z" fill="green"/>
<path d="M934,4056 l30,74" stroke="black" stroke-width="5"/>
<path d="M8771,7148 l60,0 l0,60 l-60,0 z" fill="green"/>
<path d="M8801,7178 l-232,-141.5" stroke="black" stroke-width="5"/>
<path d="M4469,6177 l60,0 l0,60 l-60,0 z" fill="green"/>
<path d="M4499,6207 l184,-45.5" stroke="black" stroke-width="5"/>
<path d="M3066,3345 l60,0 l0,60 l-60,0 z" fill="green"/>
<path d="M3096,3375 l-150,-205.5" stroke="black" stroke-width="5"/>
<path d="M5222,3251 l60,0 l0,60 l-60,0 z" fill="green"/>
<path d="M5252,3281 l-210.5,-107.5" stroke="black" stroke-width="5"/>
<path d="M2217,1416 l60,0 l0,60 l-60,0 z" fill="green"/>
<path d="M2247,1446 l-838.5,134.5" stroke="black" stroke-width="5"/>
<path d="M3317,8471 l60,0 l0,60 l-60,0 z" fill="green"/>
<path d="M3347,8501 l-1206,-139.5" stroke="black" stroke-width="5"/>
<path d="M5761,8570 l60,0 l0,60 l-60,0 z" fill="green"/>
<path d="M5791,8600 l-14,611" stroke="black" stroke-width="5"/>
<path d="M8003,8962 l60,0 l0,60 l-60,0 z" fill="green"/>
<path d="M8033,8992 l-101.5,71" stroke="black" stroke-width="5"/>
<path d="M2267,9224 l60,0 l0,60 l-60,0 z" fill="green"/>
<path d="M2297,9254 l-106.5,-50.5" stroke="black" stroke-width="5"/>
<path d="M4282,6146 l60,0 l0,60 l-60,0 z" fill="green"/>
<path d="M4312,6176 l0.5,0.5" stroke="black" stroke-width="5"/>
<text font-size="200" text-anchor="middle" x="1761.5" y="571.5">
0
</text>
<text font-size="200" text-anchor="middle" x="6495" y="6518">
1
</text>
<text font-size="200" text-anchor="middle" x="5304.5" y="356">
2
</text>
<text font-size="200" text-anchor="middle" x="5738.5" y="2626.5">
3
</text>
<text font-size="200" text-anchor="middle" x="6617" y="3291.5">
4
</text>
<text font-size="200" text-anchor="middle" x="4210.5" y="1599">
5
</text>
<text font-size="200" text-anchor="middle" x="7785" y="9804">
6
</text>
<text font-size="200" text-anchor="middle" x="7656.5" y="327">
7
</text>
<text font-size="200" text-anchor="middle" x="9033" y="5304">
8
</text>
<text font-size="200" text-anchor="middle" x="7091.5" y="9084.5">
9
</text>
<text font-size="200" text-anchor="middle" x="7582" y="2525">
10
</text>
<text font-size="200" text-anchor="middle" x="738.5" y="5204.5">
11
</text>
<text font-size="200" text-anchor="middle" x="7136.5" y="3948">
12
</text>
<text font-size="200" text-anchor="middle" x="5209" y="2302">
13
</text>
<text font-size="200" text-anchor="middle" x="5432.5" y="1093">
14
</text>
<text font-size="200" text-anchor="middle" x="3391.5" y="5369.5">
15
</text>
<text font-size="200" text-anchor="middle" x="4656.5" y="3198.5">
16
</text>
<text font-size="200" text-anchor="middle" x="5933" y="7907">
17
</text>
<text font-size="200" text-anchor="middle" x="1835" y="9816.5">
18
</text>
<text font-size="200" text-anchor="middle" x="9091.5" y="3772.5">
19
</text>
<text font-size="200" text-anchor="middle" x="9004.5" y="9200">
20
</text>
<text font-size="200" text-anchor="middle" x="3169.5" y="1681">
21
</text>
<text font-size="200" text-anchor="middle" x="6938.5" y="4944.5">
22
</text>
<text font-size="200" text-anchor="middle" x="8507" y="7972.5">
23
</text>
<text font-size="200" text-anchor="middle" x="9039.5" y="4378">
24
</text>
<text font-size="200" text-anchor="middle" x="2957.5" y="9196">
25
</text>
<text font-size="200" text-anchor="middle" x="7767.5" y="4480.5">
26
</text>
<text font-size="200" text-anchor="middle" x="9235" y="354.5">
27
</text>
<text font-size="200" text-anchor="middle" x="6852" y="1355">
28
</text>
<text font-size="200" text-anchor="middle" x="1536" y="2522.5">
29
</text>
<text font-size="200" text-anchor="middle" x="337" y="8366.5">
30
</text>
<text font-size="200" text-anchor="middle" x="3026.5" y="4202.5">
31
</text>
<text font-size="200" text-anchor="middle" x="4205.5" y="9056.5">
32
</text>
<text font-size="200" text-anchor="middle" x="5798" y="3587">
33
</text>
<text font-size="200" text-anchor="middle" x="5279" y="4840.5">
34
</text>
<text font-size="200" text-anchor="middle" x="3371" y="7373.5">
35
</text>
<text font-size="200" text-anchor="middle" x="8503" y="8483.5">
36
</text>
<text font-size="200" text-anchor="middle" x="825" y="3658.5">
37
</text>
<text font-size="200" text-anchor="middle" x="443" y="7408">
38
</text>
<text font-size="200" text-anchor="middle" x="964" y="4200">
39
</text>
<text font-size="200" text-anchor="middle" x="8569" y="7106.5">
40
</text>
<text font-size="200" text-anchor="middle" x="4683" y="6231.5">
41
</text>
<text font-size="200" text-anchor="middle" x="2946" y="3239.5">
42
</text>
<text font-size="200" text-anchor="middle" x="5041.5" y="3243.5">
43
</text>
<text font-size="200" text-anchor="middle" x="1408.5" y="1650.5">
44
</text>
<text font-size="200" text-anchor="middle" x="2141" y="8431.5">
45
</text>
<text font-size="200" text-anchor="middle" x="5777" y="9281">
46
</text>
<text font-size="200" text-anchor="middle" x="7931.5" y="9133">
47
</text>
<text font-size="200" text-anchor="middle" x="2190.5" y="9273.5">
48
</text>
<text font-size="200" text-anchor="middle" x="4312.5" y="6246.5">
49
</text>
</svg>