<svg viewBox="-100 -100 10200 10200" xmlns="http://www.w3.org/2000/svg">
<path d="M0,0 l10000,0 l0,10000 l-10000,0 z" fill="white"/>
<path d="M2,3 l3518,0 l0,1010 l-3518,0 z" fill="#9300ff" stroke="black" stroke-width="5"/>
<path d="M5042,5646 l2906,0 l0,1604 l-2906,0 z" fill="#fe00ff" stroke="black" stroke-width="5"/>
<path d="M3535,2 l3539,0 l0,568 l-3539,0 z" fill="#ff00fe" stroke="black" stroke-width="5"/>
<path d="M5449,1963 l576,0 l0,1183 l-576,0 z" fill="#fe00ff" stroke="black" stroke-width="5"/>
<path d="M6201,2604 l843,0 l0,1092 l-843,0 z" fill="#fe00ff" stroke="black" stroke-width="5"/>
<path d="M3539,603 l1343,0 l0,1852 l-1343,0 z" fill="#fe00ff" stroke="black" stroke-width="5"/>
<path d="M7362,9492 l891,0 l0,494 l-891,0 z" fill="#ff00fe" stroke="black" stroke-width="5"/>
<path d="M7146,163 l958,0 l0,612 l-958,0 z" fill="#ff00fe" stroke="black" stroke-width="5"/>
<path d="M8170,4711 l1726,0 l0,1046 l-1726,0 z" fill="#fe00ff" stroke="black" stroke-width="5"/>
<path d="M6770,8623 l584,0 l0,872 l-584,0 z" fill="#ff00fe" stroke="black" stroke-width="5"/>
<path d="M7072,1691 l1020,0 l0,1528 l-1020,0 z" fill="#ff00fe" stroke="black" stroke-width="5"/>
<path d="M5,4518 l1467,0 l0,1233 l-1467,0 z" fill="#ff00fe" stroke="black" stroke-width="5"/>
<path d="M7137,3545 l62,0 l0,565 l-62,0 z" fill="#fe00ff" stroke="black" stroke-width="5"/>
<path d="M5079,2139 l299,0 l0,262 l-299,0 z" fill="#fe00ff" stroke="black" stroke-width="5"/>
<path d="M4902,577 l1110,0 l0,875 l-1110,0 z" fill="#fe00ff" stroke="black" stroke-width="5"/>
<path d="M2654,4665 l1475,0 l0,1269 l-1475,0 z" fill="#fe00ff" stroke="black" stroke-width="5"/>
<path d="M4634,2544 l34,0 l0,852 l-34,0 z" fill="#ff00fe" stroke="black" stroke-width="5"/>
<path d="M4854,7258 l2169,0 l0,1139 l-2169,0 z" fill="#d800ff" stroke="black" stroke-width="5"/>
<path d="M22,9508 l3549,0 l0,490 l-3549,0 z" fill="#fe00ff" stroke="black" stroke-width="5"/>
<path d="M8598,3485 l780,0 l0,429 l-780,0 z" fill="#ff00ff" stroke="black" stroke-width="5"/>
<path d="M8477,8622 l1107,0 l0,1000 l-1107,0 z" fill="#fe00ff" stroke="black" stroke-width="5"/>
<path d="M2795,1115 l692,0 l0,968 l-692,0 z" fill="#ff00fe" stroke="black" stroke-width="5"/>
<path d="M6438,4116 l1062,0 l0,1520 l-1062,0 z" fill="#de00ff" stroke="black" stroke-width="5"/>
<path d="M7033,7607 l2948,0 l0,591 l-2948,0 z" fill="#fe00ff" stroke="black" stroke-width="5"/>
<path d="M8096,3925 l1903,0 l0,786 l-1903,0 z" fill="#4100ff" stroke="black" stroke-width="5"/>
<path d="M2306,8742 l1303,0 l0,749 l-1303,0 z" fill="#fe00ff" stroke="black" stroke-width="5"/>
<path d="M7501,3562 l581,0 l0,1628 l-581,0 z" fill="#ff00fe" stroke="black" stroke-width="5"/>
<path d="M8238,70 l1699,0 l0,336 l-1699,0 z" fill="#ff00fe" stroke="black" stroke-width="5"/>
<path d="M6349,957 l1111,0 l0,709 l-1111,0 z" fill="#fe00ff" stroke="black" stroke-width="5"/>
<path d="M349,2312 l2259,0 l0,416 l-2259,0 z" fill="#fe00ff" stroke="black" stroke-width="5"/>
<path d="M7,7772 l644,0 l0,1103 l-644,0 z" fill="#ff00fe" stroke="black" stroke-width="5"/>
<path d="M2002,3576 l2142,0 l0,1081 l-2142,0 z" fill="#a700ff" stroke="black" stroke-width="5"/>
<path d="M3615,7983 l1155,0 l0,2017 l-1155,0 z" fill="#e600ff" stroke="black" stroke-width="5"/>
<path d="M5413,3161 l785,0 l0,740 l-785,0 z" fill="#5000ff" stroke="black" stroke-width="5"/>
<path d="M4144,3904 l2287,0 l0,1741 l-2287,0 z" fill="#b300ff" stroke="black" stroke-width="5"/>
<path d="M1889,6635 l2964,0 l0,1337 l-2964,0 z" fill="#ff00fe" stroke="black" stroke-width="5"/>
<path d="M7024,8200 l2967,0 l0,422 l-2967,0 z" fill="#4200ff" stroke="black" stroke-width="5"/>
<path d="M211,3505 l1081,0 l0,235 l-1081,0 z" fill="#ff00fe" stroke="black" stroke-width="5"/>
<path d="M49,6927 l788,0 l0,822 l-788,0 z" fill="#ff00fe" stroke="black" stroke-width="5"/>
<path d="M1,3749 l1997,0 l0,767 l-1997,0 z" fill="#f100ff" stroke="black" stroke-width="5"/>
<path d="M7954,6503 l1242,0 l0,981 l-1242,0 z" fill="#fe00ff" stroke="black" stroke-width="5"/>
<path d="M4316,5684 l709,0 l0,929 l-709,0 z" fill="#fe00ff" stroke="black" stroke-width="5"/>
<path d="M1332,2731 l3190,0 l0,845 l-3190,0 z" fill="#fe00ff" stroke="black" stroke-width="5"/>
<path d="M4675,2460 l733,0 l0,1427 l-733,0 z" fill="#fe00ff" stroke="black" stroke-width="5"/>
<path d="M15,1015 l2772,0 l0,1295 l-2772,0 z" fill="#8000ff" stroke="black" stroke-width="5"/>
<path d="M683,7972 l2924,0 l0,765 l-2924,0 z" fill="#3300ff" stroke="black" stroke-width="5"/>
<path d="M4782,8399 l1985,0 l0,1593 l-1985,0 z" fill="#e800ff" stroke="black" stroke-width="5"/>
<path d="M7360,8629 l1116,0 l0,855 l-1116,0 z" fill="#2f00ff" stroke="black" stroke-width="5"/>
<path d="M2145,9133 l155,0 l0,153 l-155,0 z" fill="#fe00ff" stroke="black" stroke-width="5"/>
<path d="M4312,6176 l1,0 l0,1 l-1,0 z" fill="#0000ff" stroke="black" stroke-width="5"/>
<path d="M1879,330 l60,0 l0,60 l-60,0 z" fill="green"/>
<path d="M1909,360 l-148,148" stroke="black" stroke-width="5"/>
<path d="M5780,7061 l60,0 l0,60 l-60,0 z" fill="green"/>
<path d="M5810,7091 l685,-643" stroke="black" stroke-width="5"/>
<path d="M5377,392 l60,0 l0,60 l-60,0 z" fill="green"/>
<path d="M5407,422 l-102.5,-136" stroke="black" stroke-width="5"/>
<path d="M5737,3110 l60,0 l0,60 l-60,0 z" fill="green"/>
<path d="M5767,3140 l-30,-585.5" stroke="black" stroke-width="5"/>
<path d="M6629,3204 l60,0 l0,60 l-60,0 z" fill="green"/>
<path d="M6659,3234 l-36.5,-84" stroke="black" stroke-width="5"/>
<path d="M4176,1590 l60,0 l0,60 l-60,0 z" fill="green"/>
<path d="M4206,1620 l4.5,-91" stroke="black" stroke-width="5"/>
<path d="M7823,9462 l60,0 l0,60 l-60,0 z" fill="green"/>
<path d="M7853,9492 l-45.5,247" stroke="black" stroke-width="5"/>
<path d="M7845,402 l60,0 l0,60 l-60,0 z" fill="green"/>
<path d="M7875,432 l-250,37" stroke="black" stroke-width="5"/>
<path d="M9018,5029 l60,0 l0,60 l-60,0 z" fill="green"/>
<path d="M9048,5059 l-15,175" stroke="black" stroke-width="5"/>
<path d="M7262,9040 l60,0 l0,60 l-60,0 z" fill="green"/>
<path d="M7292,9070 l-230,-11" stroke="black" stroke-width="5"/>
<path d="M7603,2466 l60,0 l0,60 l-60,0 z" fill="green"/>
<path d="M7633,2496 l-51,-41" stroke="black" stroke-width="5"/>
<path d="M391,4805 l60,0 l0,60 l-60,0 z" fill="green"/>
<path d="M421,4835 l317.5,299.5" stroke="black" stroke-width="5"/>
<path d="M7134,4079 l60,0 l0,60 l-60,0 z" fill="green"/>
<path d="M7164,4109 l4,-281.5" stroke="black" stroke-width="5"/>
<path d="M5326,2241 l60,0 l0,60 l-60,0 z" fill="green"/>
<path d="M5356,2271 l-127.5,-1" stroke="black" stroke-width="5"/>
<path d="M5231,547 l60,0 l0,60 l-60,0 z" fill="green"/>
<path d="M5261,577 l196,437.5" stroke="black" stroke-width="5"/>
<path d="M3516,5195 l60,0 l0,60 l-60,0 z" fill="green"/>
<path d="M3546,5225 l-154.5,74.5" stroke="black" stroke-width="5"/>
<path d="M4637,3356 l60,0 l0,60 l-60,0 z" fill="green"/>
<path d="M4667,3386 l-16,-416" stroke="black" stroke-width="5"/>
<path d="M5566,7866 l60,0 l0,60 l-60,0 z" fill="green"/>
<path d="M5596,7896 l342.5,-68.5" stroke="black" stroke-width="5"/>
<path d="M2488,9783 l60,0 l0,60 l-60,0 z" fill="green"/>
<path d="M2518,9813 l-721.5,-60" stroke="black" stroke-width="5"/>
<path d="M8972,3883 l60,0 l0,60 l-60,0 z" fill="green"/>
<path d="M9002,3913 l-14,-213.5" stroke="black" stroke-width="5"/>
<path d="M8544,8917 l60,0 l0,60 l-60,0 z" fill="green"/>
<path d="M8574,8947 l456.5,175" stroke="black" stroke-width="5"/>
<path d="M3088,1743 l60,0 l0,60 l-60,0 z" fill="green"/>
<path d="M3118,1773 l23,-174" stroke="black" stroke-width="5"/>
<path d="M7110,4358 l60,0 l0,60 l-60,0 z" fill="green"/>
<path d="M7140,4388 l-171,488" stroke="black" stroke-width="5"/>
<path d="M8514,8166 l60,0 l0,60 l-60,0 z" fill="green"/>
<path d="M8544,8196 l-37,-293.5" stroke="black" stroke-width="5"/>
<path d="M8547,4307 l60,0 l0,60 l-60,0 z" fill="green"/>
<path d="M8577,4337 l470.5,-19" stroke="black" stroke-width="5"/>
<path d="M3125,9138 l60,0 l0,60 l-60,0 z" fill="green"/>
<path d="M3155,9168 l-197.5,-51.5" stroke="black" stroke-width="5"/>
<path d="M7793,4374 l60,0 l0,60 l-60,0 z" fill="green"/>
<path d="M7823,4404 l-31.5,-28" stroke="black" stroke-width="5"/>
<path d="M9421,80 l60,0 l0,60 l-60,0 z" fill="green"/>
<path d="M9451,110 l-363.5,128" stroke="black" stroke-width="5"/>
<path d="M7001,1359 l60,0 l0,60 l-60,0 z" fill="green"/>
<path d="M7031,1389 l-126.5,-77.5" stroke="black" stroke-width="5"/>
<path d="M1811,2307 l60,0 l0,60 l-60,0 z" fill="green"/>
<path d="M1841,2337 l-362.5,183" stroke="black" stroke-width="5"/>
<path d="M46,8334 l60,0 l0,60 l-60,0 z" fill="green"/>
<path d="M76,8364 l253,-40.5" stroke="black" stroke-width="5"/>
<path d="M3513,3901 l60,0 l0,60 l-60,0 z" fill="green"/>
<path d="M3543,3931 l-470,185.5" stroke="black" stroke-width="5"/>
<path d="M3897,8798 l60,0 l0,60 l-60,0 z" fill="green"/>
<path d="M3927,8828 l265.5,163.5" stroke="black" stroke-width="5"/>
<path d="M5641,3275 l60,0 l0,60 l-60,0 z" fill="green"/>
<path d="M5671,3305 l134.5,226" stroke="black" stroke-width="5"/>
<path d="M5512,4557 l60,0 l0,60 l-60,0 z" fill="green"/>
<path d="M5542,4587 l-254.5,187.5" stroke="black" stroke-width="5"/>
<path d="M4000,7702 l60,0 l0,60 l-60,0 z" fill="green"/>
<path d="M4030,7732 l-659,-428.5" stroke="black" stroke-width="5"/>
<path d="M8545,8170 l60,0 l0,60 l-60,0 z" fill="green"/>
<path d="M8575,8200 l-67.5,211" stroke="black" stroke-width="5"/>
<path d="M1109,3709 l60,0 l0,60 l-60,0 z" fill="green"/>
<path d="M1139,3739 l-387.5,-116.5" stroke="black" stroke-width="5"/>
<path d="M20,7385 l60,0 l0,60 l-60,0 z" fill="green"/>
<path d="M50,7415 l393,-77" stroke="black" stroke-width="5"/>
<path d="M904,4026 l60,0 l0,60 l-60,0 z" fill="green"/>
<path d="M934,4056 l65.5,76.5" stroke="black" stroke-width="5"/>
<path d="M8771,7148 l60,0 l0,60 l-60,0 z" fill="green"/>
<path d="M8801,7178 l-226,-184.5" stroke="black" stroke-width="5"/>
<path d="M4469,6177 l60,0 l0,60 l-60,0 z" fill="green"/>
<path d="M4499,6207 l171.5,-58.5" stroke="black" stroke-width="5"/>
<path d="M3066,3345 l60,0 l0,60 l-60,0 z" fill="green"/>
<path d="M3096,3375 l-169,-221.5" stroke="black" stroke-width="5"/>
<path d="M5222,3251 l60,0 l0,60 l-60,0 z" fill="green"/>
<path d="M5252,3281 l-210.5,-107.5" stroke="black" stroke-width="5"/>
<path d="M2217,1416 l60,0 l0,60 l-60,0 z" fill="green"/>
<path d="M2247,1446 l-846,216.5" stroke="black" stroke-width="5"/>
<path d="M3317,8471 l60,0 l0,60 l-60,0 z" fill="green"/>
<path d="M3347,8501 l-1202,-146.5" stroke="black" stroke-width="5"/>
<path d="M5761,8570 l60,0 l0,60 l-60,0 z" fill="green"/>
<path d="M5791,8600 l-16.5,595.5" stroke="black" stroke-width="5"/>
<path d="M8003,8962 l60,0 l0,60 l-60,0 z" fill="green"/>
<path d="M8033,8992 l-115,64.5" stroke="black" stroke-width="5"/>
<path d="M2267,9224 l60,0 l0,60 l-60,0 z" fill="green"/>
<path d="M2297,9254 l-74.5,-44.5" stroke="black" stroke-width="5"/>
<path d="M4282,6146 l60,0 l0,60 l-60,0 z" fill="green"/>
<path d="M4312,6176 l0.5,0.5" stroke="black" stroke-width="5"/>
<text font-size="200" text-anchor="middle" x="1761" y="578">
0
</text>
<text font-size="200" text-anchor="middle" x="6495" y="6518">
1
</text>
<text font-size="200" text-anchor="middle" x="5304.5" y="356">
2
</text>
<text font-size="200" text-anchor="middle" x="5737" y="2624.5">
3
</text>
<text font-size="200" text-anchor="middle" x="6622.5" y="3220">
4
</text>
<text font-size="200" text-anchor="middle" x="4210.5" y="1599">
5
</text>
<text font-size="200" text-anchor="middle" x="7807.5" y="9809">
6
</text>
<text font-size="200" text-anchor="middle" x="7625" y="539">
7
</text>
<text font-size="200" text-anchor="middle" x="9033" y="5304">
8
</text>
<text font-size="200" text-anchor="middle" x="7062" y="9129">
9
</text>
<text font-size="200" text-anchor="middle" x="7582" y="2525">
10
</text>
<text font-size="200" text-anchor="middle" x="738.5" y="5204.5">
11
</text>
<text font-size="200" text-anchor="middle" x="7168" y="3897.5">
12
</text>
<text font-size="200" text-anchor="middle" x="5228.5" y="2340">
13
</text>
<text font-size="200" text-anchor="middle" x="5457" y="1084.5">
14
</text>
<text font-size="200" text-anchor="middle" x="3391.5" y="5369.5">
15
</text>
<text font-size="200" text-anchor="middle" x="4651" y="3040">
16
</text>
<text font-size="200" text-anchor="middle" x="5938.5" y="7897.5">
17
</text>
<text font-size="200" text-anchor="middle" x="1796.5" y="9823">
18
</text>
<text font-size="200" text-anchor="middle" x="8988" y="3769.5">
19
</text>
<text font-size="200" text-anchor="middle" x="9030.5" y="9192">
20
</text>
<text font-size="200" text-anchor="middle" x="3141" y="1669">
21
</text>
<text font-size="200" text-anchor="middle" x="6969" y="4946">
22
</text>
<text font-size="200" text-anchor="middle" x="8507" y="7972.5">
23
</text>
<text font-size="200" text-anchor="middle" x="9047.5" y="4388">
24
</text>
<text font-size="200" text-anchor="middle" x="2957.5" y="9186.5">
25
</text>
<text font-size="200" text-anchor="middle" x="7791.5" y="4446">
26
</text>
<text font-size="200" text-anchor="middle" x="9087.5" y="308">
27
</text>
<text font-size="200" text-anchor="middle" x="6904.5" y="1381.5">
28
</text>
<text font-size="200" text-anchor="middle" x="1478.5" y="2590">
29
</text>
<text font-size="200" text-anchor="middle" x="329" y="8393.5">
30
</text>
<text font-size="200" text-anchor="middle" x="3073" y="4186.5">
31
</text>
<text font-size="200" text-anchor="middle" x="4192.5" y="9061.5">
32
</text>
<text font-size="200" text-anchor="middle" x="5805.5" y="3601">
33
</text>
<text font-size="200" text-anchor="middle" x="5287.5" y="4844.5">
34
</text>
<text font-size="200" text-anchor="middle" x="3371" y="7373.5">
35
</text>
<text font-size="200" text-anchor="middle" x="8507.5" y="8481">
36
</text>
<text font-size="200" text-anchor="middle" x="751.5" y="3692.5">
37
</text>
<text font-size="200" text-anchor="middle" x="443" y="7408">
38
</text>
<text font-size="200" text-anchor="middle" x="999.5" y="4202.5">
39
</text>
<text font-size="200" text-anchor="middle" x="8575" y="7063.5">
40
</text>
<text font-size="200" text-anchor="middle" x="4670.5" y="6218.5">
41
</text>
<text font-size="200" text-anchor="middle" x="2927" y="3223.5">
42
</text>
<text font-size="200" text-anchor="middle" x="5041.5" y="3243.5">
43
</text>
<text font-size="200" text-anchor="middle" x="1401" y="1732.5">
44
</text>
<text font-size="200" text-anchor="middle" x="2145" y="8424.5">
45
</text>
<text font-size="200" text-anchor="middle" x="5774.5" y="9265.5">
46
</text>
<text font-size="200" text-anchor="middle" x="7918" y="9126.5">
47
</text>
<text font-size="200" text-anchor="middle" x="2222.5" y="9279.5">
48
</text>
<text font-size="200" text-anchor="middle" x="4312.5" y="6246.5">
49
</text>
</svg>