<svg viewBox="-100 -100 10200 10200" xmlns="http://www.w3.org/2000/svg">
<path d="M0,0 l10000,0 l0,10000 l-10000,0 z" fill="white"/>
<path d="M24,2 l3529,0 l0,1075 l-3529,0 z" fill="#a100ff" stroke="black" stroke-width="5"/>
<path d="M5042,5646 l2906,0 l0,1604 l-2906,0 z" fill="#fe00ff" stroke="black" stroke-width="5"/>
<path d="M3555,0 l3481,0 l0,577 l-3481,0 z" fill="#fe00ff" stroke="black" stroke-width="5"/>
<path d="M5451,1888 l544,0 l0,1253 l-544,0 z" fill="#ff00fe" stroke="black" stroke-width="5"/>
<path d="M6243,2532 l827,0 l0,1113 l-827,0 z" fill="#fe00ff" stroke="black" stroke-width="5"/>
<path d="M3568,588 l1330,0 l0,1870 l-1330,0 z" fill="#fe00ff" stroke="black" stroke-width="5"/>
<path d="M7362,9492 l913,0 l0,482 l-913,0 z" fill="#fe00ff" stroke="black" stroke-width="5"/>
<path d="M7052,70 l946,0 l0,620 l-946,0 z" fill="#ff00fe" stroke="black" stroke-width="5"/>
<path d="M8170,4711 l1726,0 l0,1046 l-1726,0 z" fill="#fe00ff" stroke="black" stroke-width="5"/>
<path d="M6800,8639 l547,0 l0,931 l-547,0 z" fill="#ff00fe" stroke="black" stroke-width="5"/>
<path d="M7071,1714 l1016,0 l0,1534 l-1016,0 z" fill="#ff00fe" stroke="black" stroke-width="5"/>
<path d="M14,4569 l1486,0 l0,1217 l-1486,0 z" fill="#fe00ff" stroke="black" stroke-width="5"/>
<path d="M7133,3302 l45,0 l0,808 l-45,0 z" fill="#ff00fe" stroke="black" stroke-width="5"/>
<path d="M4985,2083 l415,0 l0,189 l-415,0 z" fill="#fe00ff" stroke="black" stroke-width="5"/>
<path d="M4945,577 l1071,0 l0,907 l-1071,0 z" fill="#fe00ff" stroke="black" stroke-width="5"/>
<path d="M2603,4790 l1493,0 l0,1254 l-1493,0 z" fill="#ff00fe" stroke="black" stroke-width="5"/>
<path d="M4633,2615 l35,0 l0,820 l-35,0 z" fill="#fe00ff" stroke="black" stroke-width="5"/>
<path d="M4825,7260 l2197,0 l0,1130 l-2197,0 z" fill="#d900ff" stroke="black" stroke-width="5"/>
<path d="M27,9499 l3534,0 l0,492 l-3534,0 z" fill="#fe00ff" stroke="black" stroke-width="5"/>
<path d="M8456,3492 l792,0 l0,422 l-792,0 z" fill="#fe00ff" stroke="black" stroke-width="5"/>
<path d="M8462,8632 l1139,0 l0,972 l-1139,0 z" fill="#ff00fe" stroke="black" stroke-width="5"/>
<path d="M2817,1082 l632,0 l0,1060 l-632,0 z" fill="#ff00fe" stroke="black" stroke-width="5"/>
<path d="M6343,4119 l1251,0 l0,1521 l-1251,0 z" fill="#f900ff" stroke="black" stroke-width="5"/>
<path d="M7033,7607 l2948,0 l0,591 l-2948,0 z" fill="#fe00ff" stroke="black" stroke-width="5"/>
<path d="M8135,3914 l1863,0 l0,786 l-1863,0 z" fill="#3e00ff" stroke="black" stroke-width="5"/>
<path d="M2305,8774 l1356,0 l0,720 l-1356,0 z" fill="#ff00fe" stroke="black" stroke-width="5"/>
<path d="M7608,3445 l513,0 l0,1844 l-513,0 z" fill="#ff00fe" stroke="black" stroke-width="5"/>
<path d="M8033,14 l1844,0 l0,309 l-1844,0 z" fill="#fe00ff" stroke="black" stroke-width="5"/>
<path d="M6175,972 l1375,0 l0,573 l-1375,0 z" fill="#ff00fe" stroke="black" stroke-width="5"/>
<path d="M145,2337 l2526,0 l0,373 l-2526,0 z" fill="#fe00ff" stroke="black" stroke-width="5"/>
<path d="M14,7773 l645,0 l0,1101 l-645,0 z" fill="#ff00fe" stroke="black" stroke-width="5"/>
<path d="M2029,3523 l2066,0 l0,1265 l-2066,0 z" fill="#c300ff" stroke="black" stroke-width="5"/>
<path d="M3661,7975 l1150,0 l0,2020 l-1150,0 z" fill="#e500ff" stroke="black" stroke-width="5"/>
<path d="M5407,3142 l832,0 l0,809 l-832,0 z" fill="#6700ff" stroke="black" stroke-width="5"/>
<path d="M4103,3956 l2223,0 l0,1690 l-2223,0 z" fill="#a600ff" stroke="black" stroke-width="5"/>
<path d="M1845,6615 l2973,0 l0,1333 l-2973,0 z" fill="#ff00fe" stroke="black" stroke-width="5"/>
<path d="M7039,8200 l2955,0 l0,429 l-2955,0 z" fill="#4400ff" stroke="black" stroke-width="5"/>
<path d="M21,3561 l1419,0 l0,179 l-1419,0 z" fill="#ff00fe" stroke="black" stroke-width="5"/>
<path d="M0,6956 l885,0 l0,732 l-885,0 z" fill="#ff00fe" stroke="black" stroke-width="5"/>
<path d="M7,3743 l2022,0 l0,820 l-2022,0 z" fill="#fb00ff" stroke="black" stroke-width="5"/>
<path d="M7980,6499 l1173,0 l0,1039 l-1173,0 z" fill="#ff00fe" stroke="black" stroke-width="5"/>
<path d="M4329,5646 l711,0 l0,929 l-711,0 z" fill="#fe00ff" stroke="black" stroke-width="5"/>
<path d="M1276,2713 l3336,0 l0,808 l-3336,0 z" fill="#fe00ff" stroke="black" stroke-width="5"/>
<path d="M4675,2485 l729,0 l0,1435 l-729,0 z" fill="#fe00ff" stroke="black" stroke-width="5"/>
<path d="M3,1077 l2811,0 l0,1257 l-2811,0 z" fill="#7d00ff" stroke="black" stroke-width="5"/>
<path d="M670,7953 l2984,0 l0,821 l-2984,0 z" fill="#3c00ff" stroke="black" stroke-width="5"/>
<path d="M4814,8390 l1976,0 l0,1609 l-1976,0 z" fill="#e900ff" stroke="black" stroke-width="5"/>
<path d="M7356,8629 l1104,0 l0,852 l-1104,0 z" fill="#2e00ff" stroke="black" stroke-width="5"/>
<path d="M2104,9143 l194,0 l0,123 l-194,0 z" fill="#ff00fe" stroke="black" stroke-width="5"/>
<path d="M4312,6176 l1,0 l0,1 l-1,0 z" fill="#0000ff" stroke="black" stroke-width="5"/>
<path d="M1879,330 l60,0 l0,60 l-60,0 z" fill="green"/>
<path d="M1909,360 l-120.5,179.5" stroke="black" stroke-width="5"/>
<path d="M5780,7061 l60,0 l0,60 l-60,0 z" fill="green"/>
<path d="M5810,7091 l685,-643" stroke="black" stroke-width="5"/>
<path d="M5377,392 l60,0 l0,60 l-60,0 z" fill="green"/>
<path d="M5407,422 l-111.5,-133.5" stroke="black" stroke-width="5"/>
<path d="M5737,3110 l60,0 l0,60 l-60,0 z" fill="green"/>
<path d="M5767,3140 l-44,-625.5" stroke="black" stroke-width="5"/>
<path d="M6629,3204 l60,0 l0,60 l-60,0 z" fill="green"/>
<path d="M6659,3234 l-2.5,-145.5" stroke="black" stroke-width="5"/>
<path d="M4176,1590 l60,0 l0,60 l-60,0 z" fill="green"/>
<path d="M4206,1620 l27,-97" stroke="black" stroke-width="5"/>
<path d="M7823,9462 l60,0 l0,60 l-60,0 z" fill="green"/>
<path d="M7853,9492 l-34.5,241" stroke="black" stroke-width="5"/>
<path d="M7845,402 l60,0 l0,60 l-60,0 z" fill="green"/>
<path d="M7875,432 l-350,-52" stroke="black" stroke-width="5"/>
<path d="M9018,5029 l60,0 l0,60 l-60,0 z" fill="green"/>
<path d="M9048,5059 l-15,175" stroke="black" stroke-width="5"/>
<path d="M7262,9040 l60,0 l0,60 l-60,0 z" fill="green"/>
<path d="M7292,9070 l-218.5,34.5" stroke="black" stroke-width="5"/>
<path d="M7603,2466 l60,0 l0,60 l-60,0 z" fill="green"/>
<path d="M7633,2496 l-54,-15" stroke="black" stroke-width="5"/>
<path d="M391,4805 l60,0 l0,60 l-60,0 z" fill="green"/>
<path d="M421,4835 l336,342.5" stroke="black" stroke-width="5"/>
<path d="M7134,4079 l60,0 l0,60 l-60,0 z" fill="green"/>
<path d="M7164,4109 l-8.5,-403" stroke="black" stroke-width="5"/>
<path d="M5326,2241 l60,0 l0,60 l-60,0 z" fill="green"/>
<path d="M5356,2271 l-163.5,-93.5" stroke="black" stroke-width="5"/>
<path d="M5231,547 l60,0 l0,60 l-60,0 z" fill="green"/>
<path d="M5261,577 l219.5,453.5" stroke="black" stroke-width="5"/>
<path d="M3516,5195 l60,0 l0,60 l-60,0 z" fill="green"/>
<path d="M3546,5225 l-196.5,192" stroke="black" stroke-width="5"/>
<path d="M4637,3356 l60,0 l0,60 l-60,0 z" fill="green"/>
<path d="M4667,3386 l-16.5,-361" stroke="black" stroke-width="5"/>
<path d="M5566,7866 l60,0 l0,60 l-60,0 z" fill="green"/>
<path d="M5596,7896 l327.5,-71" stroke="black" stroke-width="5"/>
<path d="M2488,9783 l60,0 l0,60 l-60,0 z" fill="green"/>
<path d="M2518,9813 l-724,-68" stroke="black" stroke-width="5"/>
<path d="M8972,3883 l60,0 l0,60 l-60,0 z" fill="green"/>
<path d="M9002,3913 l-150,-210" stroke="black" stroke-width="5"/>
<path d="M8544,8917 l60,0 l0,60 l-60,0 z" fill="green"/>
<path d="M8574,8947 l457.5,171" stroke="black" stroke-width="5"/>
<path d="M3088,1743 l60,0 l0,60 l-60,0 z" fill="green"/>
<path d="M3118,1773 l15,-161" stroke="black" stroke-width="5"/>
<path d="M7110,4358 l60,0 l0,60 l-60,0 z" fill="green"/>
<path d="M7140,4388 l-171.5,491.5" stroke="black" stroke-width="5"/>
<path d="M8514,8166 l60,0 l0,60 l-60,0 z" fill="green"/>
<path d="M8544,8196 l-37,-293.5" stroke="black" stroke-width="5"/>
<path d="M8547,4307 l60,0 l0,60 l-60,0 z" fill="green"/>
<path d="M8577,4337 l489.5,-30" stroke="black" stroke-width="5"/>
<path d="M3125,9138 l60,0 l0,60 l-60,0 z" fill="green"/>
<path d="M3155,9168 l-172,-34" stroke="black" stroke-width="5"/>
<path d="M7793,4374 l60,0 l0,60 l-60,0 z" fill="green"/>
<path d="M7823,4404 l41.5,-37" stroke="black" stroke-width="5"/>
<path d="M9421,80 l60,0 l0,60 l-60,0 z" fill="green"/>
<path d="M9451,110 l-496,58.5" stroke="black" stroke-width="5"/>
<path d="M7001,1359 l60,0 l0,60 l-60,0 z" fill="green"/>
<path d="M7031,1389 l-168.5,-130.5" stroke="black" stroke-width="5"/>
<path d="M1811,2307 l60,0 l0,60 l-60,0 z" fill="green"/>
<path d="M1841,2337 l-433,186.5" stroke="black" stroke-width="5"/>
<path d="M46,8334 l60,0 l0,60 l-60,0 z" fill="green"/>
<path d="M76,8364 l260.5,-40.5" stroke="black" stroke-width="5"/>
<path d="M3513,3901 l60,0 l0,60 l-60,0 z" fill="green"/>
<path d="M3543,3931 l-481,224.5" stroke="black" stroke-width="5"/>
<path d="M3897,8798 l60,0 l0,60 l-60,0 z" fill="green"/>
<path d="M3927,8828 l309,157" stroke="black" stroke-width="5"/>
<path d="M5641,3275 l60,0 l0,60 l-60,0 z" fill="green"/>
<path d="M5671,3305 l152,241.5" stroke="black" stroke-width="5"/>
<path d="M5512,4557 l60,0 l0,60 l-60,0 z" fill="green"/>
<path d="M5542,4587 l-327.5,214" stroke="black" stroke-width="5"/>
<path d="M4000,7702 l60,0 l0,60 l-60,0 z" fill="green"/>
<path d="M4030,7732 l-698.5,-450.5" stroke="black" stroke-width="5"/>
<path d="M8545,8170 l60,0 l0,60 l-60,0 z" fill="green"/>
<path d="M8575,8200 l-58.5,214.5" stroke="black" stroke-width="5"/>
<path d="M1109,3709 l60,0 l0,60 l-60,0 z" fill="green"/>
<path d="M1139,3739 l-408.5,-88.5" stroke="black" stroke-width="5"/>
<path d="M20,7385 l60,0 l0,60 l-60,0 z" fill="green"/>
<path d="M50,7415 l392.5,-93" stroke="black" stroke-width="5"/>
<path d="M904,4026 l60,0 l0,60 l-60,0 z" fill="green"/>
<path d="M934,4056 l84,97" stroke="black" stroke-width="5"/>
<path d="M8771,7148 l60,0 l0,60 l-60,0 z" fill="green"/>
<path d="M8801,7178 l-234.5,-159.5" stroke="black" stroke-width="5"/>
<path d="M4469,6177 l60,0 l0,60 l-60,0 z" fill="green"/>
<path d="M4499,6207 l185.5,-96.5" stroke="black" stroke-width="5"/>
<path d="M3066,3345 l60,0 l0,60 l-60,0 z" fill="green"/>
<path d="M3096,3375 l-152,-258" stroke="black" stroke-width="5"/>
<path d="M5222,3251 l60,0 l0,60 l-60,0 z" fill="green"/>
<path d="M5252,3281 l-212.5,-78.5" stroke="black" stroke-width="5"/>
<path d="M2217,1416 l60,0 l0,60 l-60,0 z" fill="green"/>
<path d="M2247,1446 l-838.5,259.5" stroke="black" stroke-width="5"/>
<path d="M3317,8471 l60,0 l0,60 l-60,0 z" fill="green"/>
<path d="M3347,8501 l-1185,-137.5" stroke="black" stroke-width="5"/>
<path d="M5761,8570 l60,0 l0,60 l-60,0 z" fill="green"/>
<path d="M5791,8600 l11,594.5" stroke="black" stroke-width="5"/>
<path d="M8003,8962 l60,0 l0,60 l-60,0 z" fill="green"/>
<path d="M8033,8992 l-125,63" stroke="black" stroke-width="5"/>
<path d="M2267,9224 l60,0 l0,60 l-60,0 z" fill="green"/>
<path d="M2297,9254 l-96,-49.5" stroke="black" stroke-width="5"/>
<path d="M4282,6146 l60,0 l0,60 l-60,0 z" fill="green"/>
<path d="M4312,6176 l0.5,0.5" stroke="black" stroke-width="5"/>
<text font-size="200" text-anchor="middle" x="1788.5" y="609.5">
0
</text>
<text font-size="200" text-anchor="middle" x="6495" y="6518">
1
</text>
<text font-size="200" text-anchor="middle" x="5295.5" y="358.5">
2
</text>
<text font-size="200" text-anchor="middle" x="5723" y="2584.5">
3
</text>
<text font-size="200" text-anchor="middle" x="6656.5" y="3158.5">
4
</text>
<text font-size="200" text-anchor="middle" x="4233" y="1593">
5
</text>
<text font-size="200" text-anchor="middle" x="7818.5" y="9803">
6
</text>
<text font-size="200" text-anchor="middle" x="7525" y="450">
7
</text>
<text font-size="200" text-anchor="middle" x="9033" y="5304">
8
</text>
<text font-size="200" text-anchor="middle" x="7073.5" y="9174.5">
9
</text>
<text font-size="200" text-anchor="middle" x="7579" y="2551">
10
</text>
<text font-size="200" text-anchor="middle" x="757" y="5247.5">
11
</text>
<text font-size="200" text-anchor="middle" x="7155.5" y="3776">
12
</text>
<text font-size="200" text-anchor="middle" x="5192.5" y="2247.5">
13
</text>
<text font-size="200" text-anchor="middle" x="5480.5" y="1100.5">
14
</text>
<text font-size="200" text-anchor="middle" x="3349.5" y="5487">
15
</text>
<text font-size="200" text-anchor="middle" x="4650.5" y="3095">
16
</text>
<text font-size="200" text-anchor="middle" x="5923.5" y="7895">
17
</text>
<text font-size="200" text-anchor="middle" x="1794" y="9815">
18
</text>
<text font-size="200" text-anchor="middle" x="8852" y="3773">
19
</text>
<text font-size="200" text-anchor="middle" x="9031.5" y="9188">
20
</text>
<text font-size="200" text-anchor="middle" x="3133" y="1682">
21
</text>
<text font-size="200" text-anchor="middle" x="6968.5" y="4949.5">
22
</text>
<text font-size="200" text-anchor="middle" x="8507" y="7972.5">
23
</text>
<text font-size="200" text-anchor="middle" x="9066.5" y="4377">
24
</text>
<text font-size="200" text-anchor="middle" x="2983" y="9204">
25
</text>
<text font-size="200" text-anchor="middle" x="7864.5" y="4437">
26
</text>
<text font-size="200" text-anchor="middle" x="8955" y="238.5">
27
</text>
<text font-size="200" text-anchor="middle" x="6862.5" y="1328.5">
28
</text>
<text font-size="200" text-anchor="middle" x="1408" y="2593.5">
29
</text>
<text font-size="200" text-anchor="middle" x="336.5" y="8393.5">
30
</text>
<text font-size="200" text-anchor="middle" x="3062" y="4225.5">
31
</text>
<text font-size="200" text-anchor="middle" x="4236" y="9055">
32
</text>
<text font-size="200" text-anchor="middle" x="5823" y="3616.5">
33
</text>
<text font-size="200" text-anchor="middle" x="5214.5" y="4871">
34
</text>
<text font-size="200" text-anchor="middle" x="3331.5" y="7351.5">
35
</text>
<text font-size="200" text-anchor="middle" x="8516.5" y="8484.5">
36
</text>
<text font-size="200" text-anchor="middle" x="730.5" y="3720.5">
37
</text>
<text font-size="200" text-anchor="middle" x="442.5" y="7392">
38
</text>
<text font-size="200" text-anchor="middle" x="1018" y="4223">
39
</text>
<text font-size="200" text-anchor="middle" x="8566.5" y="7088.5">
40
</text>
<text font-size="200" text-anchor="middle" x="4684.5" y="6180.5">
41
</text>
<text font-size="200" text-anchor="middle" x="2944" y="3187">
42
</text>
<text font-size="200" text-anchor="middle" x="5039.5" y="3272.5">
43
</text>
<text font-size="200" text-anchor="middle" x="1408.5" y="1775.5">
44
</text>
<text font-size="200" text-anchor="middle" x="2162" y="8433.5">
45
</text>
<text font-size="200" text-anchor="middle" x="5802" y="9264.5">
46
</text>
<text font-size="200" text-anchor="middle" x="7908" y="9125">
47
</text>
<text font-size="200" text-anchor="middle" x="2201" y="9274.5">
48
</text>
<text font-size="200" text-anchor="middle" x="4312.5" y="6246.5">
49
</text>
</svg>