<svg viewBox="-100 -100 10200 10200" xmlns="http://www.w3.org/2000/svg">
<path d="M0,0 l10000,0 l0,10000 l-10000,0 z" fill="white"/>
<path d="M7,2 l3511,0 l0,961 l-3511,0 z" fill="#8800ff" stroke="black" stroke-width="5"/>
<path d="M5042,5646 l2906,0 l0,1604 l-2906,0 z" fill="#fe00ff" stroke="black" stroke-width="5"/>
<path d="M3535,2 l3539,0 l0,568 l-3539,0 z" fill="#ff00fe" stroke="black" stroke-width="5"/>
<path d="M5432,1998 l596,0 l0,1143 l-596,0 z" fill="#fe00ff" stroke="black" stroke-width="5"/>
<path d="M6142,2706 l908,0 l0,1014 l-908,0 z" fill="#ff00fe" stroke="black" stroke-width="5"/>
<path d="M3539,603 l1343,0 l0,1852 l-1343,0 z" fill="#fe00ff" stroke="black" stroke-width="5"/>
<path d="M7347,9492 l900,0 l0,489 l-900,0 z" fill="#fe00ff" stroke="black" stroke-width="5"/>
<path d="M7075,5 l1163,0 l0,504 l-1163,0 z" fill="#fe00ff" stroke="black" stroke-width="5"/>
<path d="M8184,4692 l1675,0 l0,1078 l-1675,0 z" fill="#ff00fe" stroke="black" stroke-width="5"/>
<path d="M6763,8627 l657,0 l0,775 l-657,0 z" fill="#fe00ff" stroke="black" stroke-width="5"/>
<path d="M7072,1691 l1020,0 l0,1528 l-1020,0 z" fill="#ff00fe" stroke="black" stroke-width="5"/>
<path d="M5,4518 l1467,0 l0,1233 l-1467,0 z" fill="#ff00fe" stroke="black" stroke-width="5"/>
<path d="M7164,3932 l197,0 l0,178 l-197,0 z" fill="#fe00ff" stroke="black" stroke-width="5"/>
<path d="M4906,2196 l484,0 l0,162 l-484,0 z" fill="#fe00ff" stroke="black" stroke-width="5"/>
<path d="M4888,577 l1089,0 l0,892 l-1089,0 z" fill="#fe00ff" stroke="black" stroke-width="5"/>
<path d="M2654,4665 l1475,0 l0,1269 l-1475,0 z" fill="#fe00ff" stroke="black" stroke-width="5"/>
<path d="M4611,3109 l57,0 l0,521 l-57,0 z" fill="#ff00fe" stroke="black" stroke-width="5"/>
<path d="M4853,7258 l2163,0 l0,1169 l-2163,0 z" fill="#dd00ff" stroke="black" stroke-width="5"/>
<path d="M71,9500 l3528,0 l0,493 l-3528,0 z" fill="#ff00fe" stroke="black" stroke-width="5"/>
<path d="M8764,3432 l694,0 l0,482 l-694,0 z" fill="#fe00ff" stroke="black" stroke-width="5"/>
<path d="M8442,8638 l1125,0 l0,984 l-1125,0 z" fill="#fe00ff" stroke="black" stroke-width="5"/>
<path d="M2817,1136 l705,0 l0,950 l-705,0 z" fill="#fe00ff" stroke="black" stroke-width="5"/>
<path d="M6424,4113 l1022,0 l0,1526 l-1022,0 z" fill="#d700ff" stroke="black" stroke-width="5"/>
<path d="M7051,7599 l2914,0 l0,598 l-2914,0 z" fill="#ff00fe" stroke="black" stroke-width="5"/>
<path d="M8084,3914 l1902,0 l0,778 l-1902,0 z" fill="#3f00ff" stroke="black" stroke-width="5"/>
<path d="M2313,8752 l1299,0 l0,747 l-1299,0 z" fill="#fe00ff" stroke="black" stroke-width="5"/>
<path d="M7452,3661 l631,0 l0,1499 l-631,0 z" fill="#ff00fe" stroke="black" stroke-width="5"/>
<path d="M8522,110 l1334,0 l0,427 l-1334,0 z" fill="#fe00ff" stroke="black" stroke-width="5"/>
<path d="M6344,941 l1060,0 l0,743 l-1060,0 z" fill="#fe00ff" stroke="black" stroke-width="5"/>
<path d="M691,2169 l1668,0 l0,565 l-1668,0 z" fill="#ff00fe" stroke="black" stroke-width="5"/>
<path d="M3,7765 l668,0 l0,1063 l-668,0 z" fill="#fe00ff" stroke="black" stroke-width="5"/>
<path d="M1906,3600 l2226,0 l0,1060 l-2226,0 z" fill="#ac00ff" stroke="black" stroke-width="5"/>
<path d="M3612,7975 l1180,0 l0,2015 l-1180,0 z" fill="#e900ff" stroke="black" stroke-width="5"/>
<path d="M5424,3148 l717,0 l0,747 l-717,0 z" fill="#4500ff" stroke="black" stroke-width="5"/>
<path d="M4134,3895 l2290,0 l0,1751 l-2290,0 z" fill="#b500ff" stroke="black" stroke-width="5"/>
<path d="M1889,6635 l2964,0 l0,1337 l-2964,0 z" fill="#ff00fe" stroke="black" stroke-width="5"/>
<path d="M7016,8200 l2984,0 l0,427 l-2984,0 z" fill="#4400ff" stroke="black" stroke-width="5"/>
<path d="M451,3428 l814,0 l0,312 l-814,0 z" fill="#fe00ff" stroke="black" stroke-width="5"/>
<path d="M9,6896 l789,0 l0,821 l-789,0 z" fill="#ff00fe" stroke="black" stroke-width="5"/>
<path d="M3,3743 l1895,0 l0,771 l-1895,0 z" fill="#e900ff" stroke="black" stroke-width="5"/>
<path d="M7962,6529 l1197,0 l0,1018 l-1197,0 z" fill="#fe00ff" stroke="black" stroke-width="5"/>
<path d="M4329,5695 l708,0 l0,933 l-708,0 z" fill="#ff00fe" stroke="black" stroke-width="5"/>
<path d="M1373,2741 l3146,0 l0,857 l-3146,0 z" fill="#ff00fe" stroke="black" stroke-width="5"/>
<path d="M4676,2464 l742,0 l0,1410 l-742,0 z" fill="#ff00fe" stroke="black" stroke-width="5"/>
<path d="M14,963 l2771,0 l0,1206 l-2771,0 z" fill="#7200ff" stroke="black" stroke-width="5"/>
<path d="M673,7973 l2936,0 l0,777 l-2936,0 z" fill="#3500ff" stroke="black" stroke-width="5"/>
<path d="M4793,8427 l1968,0 l0,1568 l-1968,0 z" fill="#e400ff" stroke="black" stroke-width="5"/>
<path d="M7433,8630 l995,0 l0,861 l-995,0 z" fill="#2600ff" stroke="black" stroke-width="5"/>
<path d="M2139,9207 l159,0 l0,150 l-159,0 z" fill="#ff00fe" stroke="black" stroke-width="5"/>
<path d="M4312,6176 l1,0 l0,1 l-1,0 z" fill="#0000ff" stroke="black" stroke-width="5"/>
<path d="M1879,330 l60,0 l0,60 l-60,0 z" fill="green"/>
<path d="M1909,360 l-146.5,122.5" stroke="black" stroke-width="5"/>
<path d="M5780,7061 l60,0 l0,60 l-60,0 z" fill="green"/>
<path d="M5810,7091 l685,-643" stroke="black" stroke-width="5"/>
<path d="M5377,392 l60,0 l0,60 l-60,0 z" fill="green"/>
<path d="M5407,422 l-102.5,-136" stroke="black" stroke-width="5"/>
<path d="M5737,3110 l60,0 l0,60 l-60,0 z" fill="green"/>
<path d="M5767,3140 l-37,-570.5" stroke="black" stroke-width="5"/>
<path d="M6629,3204 l60,0 l0,60 l-60,0 z" fill="green"/>
<path d="M6659,3234 l-63,-21" stroke="black" stroke-width="5"/>
<path d="M4176,1590 l60,0 l0,60 l-60,0 z" fill="green"/>
<path d="M4206,1620 l4.5,-91" stroke="black" stroke-width="5"/>
<path d="M7823,9462 l60,0 l0,60 l-60,0 z" fill="green"/>
<path d="M7853,9492 l-56,244.5" stroke="black" stroke-width="5"/>
<path d="M7845,402 l60,0 l0,60 l-60,0 z" fill="green"/>
<path d="M7875,432 l-218.5,-175" stroke="black" stroke-width="5"/>
<path d="M9018,5029 l60,0 l0,60 l-60,0 z" fill="green"/>
<path d="M9048,5059 l-26.5,172" stroke="black" stroke-width="5"/>
<path d="M7262,9040 l60,0 l0,60 l-60,0 z" fill="green"/>
<path d="M7292,9070 l-200.5,-55.5" stroke="black" stroke-width="5"/>
<path d="M7603,2466 l60,0 l0,60 l-60,0 z" fill="green"/>
<path d="M7633,2496 l-51,-41" stroke="black" stroke-width="5"/>
<path d="M391,4805 l60,0 l0,60 l-60,0 z" fill="green"/>
<path d="M421,4835 l317.5,299.5" stroke="black" stroke-width="5"/>
<path d="M7134,4079 l60,0 l0,60 l-60,0 z" fill="green"/>
<path d="M7164,4109 l98.5,-88" stroke="black" stroke-width="5"/>
<path d="M5326,2241 l60,0 l0,60 l-60,0 z" fill="green"/>
<path d="M5356,2271 l-208,6" stroke="black" stroke-width="5"/>
<path d="M5231,547 l60,0 l0,60 l-60,0 z" fill="green"/>
<path d="M5261,577 l171.5,446" stroke="black" stroke-width="5"/>
<path d="M3516,5195 l60,0 l0,60 l-60,0 z" fill="green"/>
<path d="M3546,5225 l-154.5,74.5" stroke="black" stroke-width="5"/>
<path d="M4637,3356 l60,0 l0,60 l-60,0 z" fill="green"/>
<path d="M4667,3386 l-27.5,-16.5" stroke="black" stroke-width="5"/>
<path d="M5566,7866 l60,0 l0,60 l-60,0 z" fill="green"/>
<path d="M5596,7896 l338.5,-53.5" stroke="black" stroke-width="5"/>
<path d="M2488,9783 l60,0 l0,60 l-60,0 z" fill="green"/>
<path d="M2518,9813 l-683,-66.5" stroke="black" stroke-width="5"/>
<path d="M8972,3883 l60,0 l0,60 l-60,0 z" fill="green"/>
<path d="M9002,3913 l109,-240" stroke="black" stroke-width="5"/>
<path d="M8544,8917 l60,0 l0,60 l-60,0 z" fill="green"/>
<path d="M8574,8947 l430.5,183" stroke="black" stroke-width="5"/>
<path d="M3088,1743 l60,0 l0,60 l-60,0 z" fill="green"/>
<path d="M3118,1773 l51.5,-162" stroke="black" stroke-width="5"/>
<path d="M7110,4358 l60,0 l0,60 l-60,0 z" fill="green"/>
<path d="M7140,4388 l-205,488" stroke="black" stroke-width="5"/>
<path d="M8514,8166 l60,0 l0,60 l-60,0 z" fill="green"/>
<path d="M8544,8196 l-36,-298" stroke="black" stroke-width="5"/>
<path d="M8547,4307 l60,0 l0,60 l-60,0 z" fill="green"/>
<path d="M8577,4337 l458,-34" stroke="black" stroke-width="5"/>
<path d="M3125,9138 l60,0 l0,60 l-60,0 z" fill="green"/>
<path d="M3155,9168 l-192.5,-42.5" stroke="black" stroke-width="5"/>
<path d="M7793,4374 l60,0 l0,60 l-60,0 z" fill="green"/>
<path d="M7823,4404 l-55.5,6.5" stroke="black" stroke-width="5"/>
<path d="M9421,80 l60,0 l0,60 l-60,0 z" fill="green"/>
<path d="M9451,110 l-262,213.5" stroke="black" stroke-width="5"/>
<path d="M7001,1359 l60,0 l0,60 l-60,0 z" fill="green"/>
<path d="M7031,1389 l-157,-76.5" stroke="black" stroke-width="5"/>
<path d="M1811,2307 l60,0 l0,60 l-60,0 z" fill="green"/>
<path d="M1841,2337 l-316,114.5" stroke="black" stroke-width="5"/>
<path d="M46,8334 l60,0 l0,60 l-60,0 z" fill="green"/>
<path d="M76,8364 l261,-67.5" stroke="black" stroke-width="5"/>
<path d="M3513,3901 l60,0 l0,60 l-60,0 z" fill="green"/>
<path d="M3543,3931 l-524,199" stroke="black" stroke-width="5"/>
<path d="M3897,8798 l60,0 l0,60 l-60,0 z" fill="green"/>
<path d="M3927,8828 l275,154.5" stroke="black" stroke-width="5"/>
<path d="M5641,3275 l60,0 l0,60 l-60,0 z" fill="green"/>
<path d="M5671,3305 l111.5,216.5" stroke="black" stroke-width="5"/>
<path d="M5512,4557 l60,0 l0,60 l-60,0 z" fill="green"/>
<path d="M5542,4587 l-263,183.5" stroke="black" stroke-width="5"/>
<path d="M4000,7702 l60,0 l0,60 l-60,0 z" fill="green"/>
<path d="M4030,7732 l-659,-428.5" stroke="black" stroke-width="5"/>
<path d="M8545,8170 l60,0 l0,60 l-60,0 z" fill="green"/>
<path d="M8575,8200 l-67,213.5" stroke="black" stroke-width="5"/>
<path d="M1109,3709 l60,0 l0,60 l-60,0 z" fill="green"/>
<path d="M1139,3739 l-281,-155" stroke="black" stroke-width="5"/>
<path d="M20,7385 l60,0 l0,60 l-60,0 z" fill="green"/>
<path d="M50,7415 l353.5,-108.5" stroke="black" stroke-width="5"/>
<path d="M904,4026 l60,0 l0,60 l-60,0 z" fill="green"/>
<path d="M934,4056 l16.5,72.5" stroke="black" stroke-width="5"/>
<path d="M8771,7148 l60,0 l0,60 l-60,0 z" fill="green"/>
<path d="M8801,7178 l-240.5,-140" stroke="black" stroke-width="5"/>
<path d="M4469,6177 l60,0 l0,60 l-60,0 z" fill="green"/>
<path d="M4499,6207 l184,-45.5" stroke="black" stroke-width="5"/>
<path d="M3066,3345 l60,0 l0,60 l-60,0 z" fill="green"/>
<path d="M3096,3375 l-150,-205.5" stroke="black" stroke-width="5"/>
<path d="M5222,3251 l60,0 l0,60 l-60,0 z" fill="green"/>
<path d="M5252,3281 l-205,-112" stroke="black" stroke-width="5"/>
<path d="M2217,1416 l60,0 l0,60 l-60,0 z" fill="green"/>
<path d="M2247,1446 l-847.5,120" stroke="black" stroke-width="5"/>
<path d="M3317,8471 l60,0 l0,60 l-60,0 z" fill="green"/>
<path d="M3347,8501 l-1206,-139.5" stroke="black" stroke-width="5"/>
<path d="M5761,8570 l60,0 l0,60 l-60,0 z" fill="green"/>
<path d="M5791,8600 l-14,611" stroke="black" stroke-width="5"/>
<path d="M8003,8962 l60,0 l0,60 l-60,0 z" fill="green"/>
<path d="M8033,8992 l-102.5,68.5" stroke="black" stroke-width="5"/>
<path d="M2267,9224 l60,0 l0,60 l-60,0 z" fill="green"/>
<path d="M2297,9254 l-78.5,28" stroke="black" stroke-width="5"/>
<path d="M4282,6146 l60,0 l0,60 l-60,0 z" fill="green"/>
<path d="M4312,6176 l0.5,0.5" stroke="black" stroke-width="5"/>
<text font-size="200" text-anchor="middle" x="1762.5" y="552.5">
0
</text>
<text font-size="200" text-anchor="middle" x="6495" y="6518">
1
</text>
<text font-size="200" text-anchor="middle" x="5304.5" y="356">
2
</text>
<text font-size="200" text-anchor="middle" x="5730" y="2639.5">
3
</text>
<text font-size="200" text-anchor="middle" x="6596" y="3283">
4
</text>
<text font-size="200" text-anchor="middle" x="4210.5" y="1599">
5
</text>
<text font-size="200" text-anchor="middle" x="7797" y="9806.5">
6
</text>
<text font-size="200" text-anchor="middle" x="7656.5" y="327">
7
</text>
<text font-size="200" text-anchor="middle" x="9021.5" y="5301">
8
</text>
<text font-size="200" text-anchor="middle" x="7091.5" y="9084.5">
9
</text>
<text font-size="200" text-anchor="middle" x="7582" y="2525">
10
</text>
<text font-size="200" text-anchor="middle" x="738.5" y="5204.5">
11
</text>
<text font-size="200" text-anchor="middle" x="7262.5" y="4091">
12
</text>
<text font-size="200" text-anchor="middle" x="5148" y="2347">
13
</text>
<text font-size="200" text-anchor="middle" x="5432.5" y="1093">
14
</text>
<text font-size="200" text-anchor="middle" x="3391.5" y="5369.5">
15
</text>
<text font-size="200" text-anchor="middle" x="4639.5" y="3439.5">
16
</text>
<text font-size="200" text-anchor="middle" x="5934.5" y="7912.5">
17
</text>
<text font-size="200" text-anchor="middle" x="1835" y="9816.5">
18
</text>
<text font-size="200" text-anchor="middle" x="9111" y="3743">
19
</text>
<text font-size="200" text-anchor="middle" x="9004.5" y="9200">
20
</text>
<text font-size="200" text-anchor="middle" x="3169.5" y="1681">
21
</text>
<text font-size="200" text-anchor="middle" x="6935" y="4946">
22
</text>
<text font-size="200" text-anchor="middle" x="8508" y="7968">
23
</text>
<text font-size="200" text-anchor="middle" x="9035" y="4373">
24
</text>
<text font-size="200" text-anchor="middle" x="2962.5" y="9195.5">
25
</text>
<text font-size="200" text-anchor="middle" x="7767.5" y="4480.5">
26
</text>
<text font-size="200" text-anchor="middle" x="9189" y="393.5">
27
</text>
<text font-size="200" text-anchor="middle" x="6874" y="1382.5">
28
</text>
<text font-size="200" text-anchor="middle" x="1525" y="2521.5">
29
</text>
<text font-size="200" text-anchor="middle" x="337" y="8366.5">
30
</text>
<text font-size="200" text-anchor="middle" x="3019" y="4200">
31
</text>
<text font-size="200" text-anchor="middle" x="4202" y="9052.5">
32
</text>
<text font-size="200" text-anchor="middle" x="5782.5" y="3591.5">
33
</text>
<text font-size="200" text-anchor="middle" x="5279" y="4840.5">
34
</text>
<text font-size="200" text-anchor="middle" x="3371" y="7373.5">
35
</text>
<text font-size="200" text-anchor="middle" x="8508" y="8483.5">
36
</text>
<text font-size="200" text-anchor="middle" x="858" y="3654">
37
</text>
<text font-size="200" text-anchor="middle" x="403.5" y="7376.5">
38
</text>
<text font-size="200" text-anchor="middle" x="950.5" y="4198.5">
39
</text>
<text font-size="200" text-anchor="middle" x="8560.5" y="7108">
40
</text>
<text font-size="200" text-anchor="middle" x="4683" y="6231.5">
41
</text>
<text font-size="200" text-anchor="middle" x="2946" y="3239.5">
42
</text>
<text font-size="200" text-anchor="middle" x="5047" y="3239">
43
</text>
<text font-size="200" text-anchor="middle" x="1399.5" y="1636">
44
</text>
<text font-size="200" text-anchor="middle" x="2141" y="8431.5">
45
</text>
<text font-size="200" text-anchor="middle" x="5777" y="9281">
46
</text>
<text font-size="200" text-anchor="middle" x="7930.5" y="9130.5">
47
</text>
<text font-size="200" text-anchor="middle" x="2218.5" y="9352">
48
</text>
<text font-size="200" text-anchor="middle" x="4312.5" y="6246.5">
49
</text>
</svg>