<svg viewBox="-100 -100 10200 10200" xmlns="http://www.w3.org/2000/svg">
<path d="M0,0 l10000,0 l0,10000 l-10000,0 z" fill="white"/>
<path d="M5,0 l3536,0 l0,1049 l-3536,0 z" fill="#9c00ff" stroke="black" stroke-width="5"/>
<path d="M5017,5671 l2994,0 l0,1556 l-2994,0 z" fill="#fe00ff" stroke="black" stroke-width="5"/>
<path d="M3561,9 l3584,0 l0,561 l-3584,0 z" fill="#ff00fe" stroke="black" stroke-width="5"/>
<path d="M5421,1514 l419,0 l0,1627 l-419,0 z" fill="#ff00fe" stroke="black" stroke-width="5"/>
<path d="M6442,2276 l602,0 l0,1529 l-602,0 z" fill="#fe00ff" stroke="black" stroke-width="5"/>
<path d="M3559,572 l1349,0 l0,1844 l-1349,0 z" fill="#ff00fe" stroke="black" stroke-width="5"/>
<path d="M7318,9492 l913,0 l0,482 l-913,0 z" fill="#fe00ff" stroke="black" stroke-width="5"/>
<path d="M7160,45 l813,0 l0,721 l-813,0 z" fill="#ff00fe" stroke="black" stroke-width="5"/>
<path d="M8154,4805 l1802,0 l0,1002 l-1802,0 z" fill="#ff00fe" stroke="black" stroke-width="5"/>
<path d="M6857,8739 l436,0 l0,1168 l-436,0 z" fill="#ff00fe" stroke="black" stroke-width="5"/>
<path d="M7105,1574 l903,0 l0,1726 l-903,0 z" fill="#ff00fe" stroke="black" stroke-width="5"/>
<path d="M8,4633 l1496,0 l0,1209 l-1496,0 z" fill="#fe00ff" stroke="black" stroke-width="5"/>
<path d="M7149,3340 l47,0 l0,770 l-47,0 z" fill="#ff00fe" stroke="black" stroke-width="5"/>
<path d="M5183,1853 l176,0 l0,443 l-176,0 z" fill="#fe00ff" stroke="black" stroke-width="5"/>
<path d="M4914,577 l1104,0 l0,880 l-1104,0 z" fill="#ff00fe" stroke="black" stroke-width="5"/>
<path d="M2452,4950 l1658,0 l0,1129 l-1658,0 z" fill="#fe00ff" stroke="black" stroke-width="5"/>
<path d="M4639,2427 l29,0 l0,964 l-29,0 z" fill="#fe00ff" stroke="black" stroke-width="5"/>
<path d="M4851,7232 l2111,0 l0,1340 l-2111,0 z" fill="#f100ff" stroke="black" stroke-width="5"/>
<path d="M6,9496 l3528,0 l0,493 l-3528,0 z" fill="#ff00fe" stroke="black" stroke-width="5"/>
<path d="M8293,3602 l1039,0 l0,322 l-1039,0 z" fill="#fe00ff" stroke="black" stroke-width="5"/>
<path d="M8568,8710 l1095,0 l0,1011 l-1095,0 z" fill="#fe00ff" stroke="black" stroke-width="5"/>
<path d="M3028,1058 l509,0 l0,1318 l-509,0 z" fill="#ff00fe" stroke="black" stroke-width="5"/>
<path d="M6278,4117 l1373,0 l0,1528 l-1373,0 z" fill="#fe00ff" stroke="black" stroke-width="5"/>
<path d="M7072,7591 l2875,0 l0,606 l-2875,0 z" fill="#fe00ff" stroke="black" stroke-width="5"/>
<path d="M8145,3926 l1853,0 l0,878 l-1853,0 z" fill="#4b00ff" stroke="black" stroke-width="5"/>
<path d="M2299,8759 l1327,0 l0,737 l-1327,0 z" fill="#ff00fe" stroke="black" stroke-width="5"/>
<path d="M7668,3472 l473,0 l0,2000 l-473,0 z" fill="#ff00fe" stroke="black" stroke-width="5"/>
<path d="M8134,7 l1798,0 l0,317 l-1798,0 z" fill="#ff00fe" stroke="black" stroke-width="5"/>
<path d="M6027,1106 l1858,0 l0,424 l-1858,0 z" fill="#ff00fe" stroke="black" stroke-width="5"/>
<path d="M154,2337 l2716,0 l0,347 l-2716,0 z" fill="#ff00fe" stroke="black" stroke-width="5"/>
<path d="M7,7617 l619,0 l0,1151 l-619,0 z" fill="#ff00fe" stroke="black" stroke-width="5"/>
<path d="M1989,3471 l2132,0 l0,1478 l-2132,0 z" fill="#eb00ff" stroke="black" stroke-width="5"/>
<path d="M3629,7928 l1211,0 l0,2071 l-1211,0 z" fill="#f200ff" stroke="black" stroke-width="5"/>
<path d="M5423,3163 l1018,0 l0,702 l-1018,0 z" fill="#7200ff" stroke="black" stroke-width="5"/>
<path d="M4128,3867 l2148,0 l0,1792 l-2148,0 z" fill="#ab00ff" stroke="black" stroke-width="5"/>
<path d="M1773,6624 l3053,0 l0,1298 l-3053,0 z" fill="#ff00fe" stroke="black" stroke-width="5"/>
<path d="M6980,8198 l3016,0 l0,479 l-3016,0 z" fill="#5600ff" stroke="black" stroke-width="5"/>
<path d="M234,3466 l927,0 l0,274 l-927,0 z" fill="#fe00ff" stroke="black" stroke-width="5"/>
<path d="M24,6700 l785,0 l0,825 l-785,0 z" fill="#fe00ff" stroke="black" stroke-width="5"/>
<path d="M19,3741 l1969,0 l0,892 l-1969,0 z" fill="#fe00ff" stroke="black" stroke-width="5"/>
<path d="M8056,6409 l1119,0 l0,1089 l-1119,0 z" fill="#fe00ff" stroke="black" stroke-width="5"/>
<path d="M4320,5659 l691,0 l0,956 l-691,0 z" fill="#ff00fe" stroke="black" stroke-width="5"/>
<path d="M1003,2712 l3624,0 l0,744 l-3624,0 z" fill="#ff00fe" stroke="black" stroke-width="5"/>
<path d="M4686,2433 l735,0 l0,1424 l-735,0 z" fill="#ff00fe" stroke="black" stroke-width="5"/>
<path d="M8,1051 l3012,0 l0,1286 l-3012,0 z" fill="#9000ff" stroke="black" stroke-width="5"/>
<path d="M626,7922 l2998,0 l0,835 l-2998,0 z" fill="#3f00ff" stroke="black" stroke-width="5"/>
<path d="M4851,8574 l2003,0 l0,1425 l-2003,0 z" fill="#d300ff" stroke="black" stroke-width="5"/>
<path d="M7298,8679 l1269,0 l0,810 l-1269,0 z" fill="#3600ff" stroke="black" stroke-width="5"/>
<path d="M2239,8869 l59,0 l0,400 l-59,0 z" fill="#fe00ff" stroke="black" stroke-width="5"/>
<path d="M4312,6176 l1,0 l0,1 l-1,0 z" fill="#0000ff" stroke="black" stroke-width="5"/>
<path d="M1879,330 l60,0 l0,60 l-60,0 z" fill="green"/>
<path d="M1909,360 l-136,164.5" stroke="black" stroke-width="5"/>
<path d="M5780,7061 l60,0 l0,60 l-60,0 z" fill="green"/>
<path d="M5810,7091 l704,-642" stroke="black" stroke-width="5"/>
<path d="M5377,392 l60,0 l0,60 l-60,0 z" fill="green"/>
<path d="M5407,422 l-54,-132.5" stroke="black" stroke-width="5"/>
<path d="M5737,3110 l60,0 l0,60 l-60,0 z" fill="green"/>
<path d="M5767,3140 l-136.5,-812.5" stroke="black" stroke-width="5"/>
<path d="M6629,3204 l60,0 l0,60 l-60,0 z" fill="green"/>
<path d="M6659,3234 l84,-193.5" stroke="black" stroke-width="5"/>
<path d="M4176,1590 l60,0 l0,60 l-60,0 z" fill="green"/>
<path d="M4206,1620 l27.5,-126" stroke="black" stroke-width="5"/>
<path d="M7823,9462 l60,0 l0,60 l-60,0 z" fill="green"/>
<path d="M7853,9492 l-78.5,241" stroke="black" stroke-width="5"/>
<path d="M7845,402 l60,0 l0,60 l-60,0 z" fill="green"/>
<path d="M7875,432 l-308.5,-26.5" stroke="black" stroke-width="5"/>
<path d="M9018,5029 l60,0 l0,60 l-60,0 z" fill="green"/>
<path d="M9048,5059 l7,247" stroke="black" stroke-width="5"/>
<path d="M7262,9040 l60,0 l0,60 l-60,0 z" fill="green"/>
<path d="M7292,9070 l-217,253" stroke="black" stroke-width="5"/>
<path d="M7603,2466 l60,0 l0,60 l-60,0 z" fill="green"/>
<path d="M7633,2496 l-76.5,-59" stroke="black" stroke-width="5"/>
<path d="M391,4805 l60,0 l0,60 l-60,0 z" fill="green"/>
<path d="M421,4835 l335,402.5" stroke="black" stroke-width="5"/>
<path d="M7134,4079 l60,0 l0,60 l-60,0 z" fill="green"/>
<path d="M7164,4109 l8.5,-384" stroke="black" stroke-width="5"/>
<path d="M5326,2241 l60,0 l0,60 l-60,0 z" fill="green"/>
<path d="M5356,2271 l-85,-196.5" stroke="black" stroke-width="5"/>
<path d="M5231,547 l60,0 l0,60 l-60,0 z" fill="green"/>
<path d="M5261,577 l205,440" stroke="black" stroke-width="5"/>
<path d="M3516,5195 l60,0 l0,60 l-60,0 z" fill="green"/>
<path d="M3546,5225 l-265,289.5" stroke="black" stroke-width="5"/>
<path d="M4637,3356 l60,0 l0,60 l-60,0 z" fill="green"/>
<path d="M4667,3386 l-13.5,-477" stroke="black" stroke-width="5"/>
<path d="M5566,7866 l60,0 l0,60 l-60,0 z" fill="green"/>
<path d="M5596,7896 l310.5,6" stroke="black" stroke-width="5"/>
<path d="M2488,9783 l60,0 l0,60 l-60,0 z" fill="green"/>
<path d="M2518,9813 l-748,-70.5" stroke="black" stroke-width="5"/>
<path d="M8972,3883 l60,0 l0,60 l-60,0 z" fill="green"/>
<path d="M9002,3913 l-189.5,-150" stroke="black" stroke-width="5"/>
<path d="M8544,8917 l60,0 l0,60 l-60,0 z" fill="green"/>
<path d="M8574,8947 l541.5,268.5" stroke="black" stroke-width="5"/>
<path d="M3088,1743 l60,0 l0,60 l-60,0 z" fill="green"/>
<path d="M3118,1773 l164.5,-56" stroke="black" stroke-width="5"/>
<path d="M7110,4358 l60,0 l0,60 l-60,0 z" fill="green"/>
<path d="M7140,4388 l-175.5,493" stroke="black" stroke-width="5"/>
<path d="M8514,8166 l60,0 l0,60 l-60,0 z" fill="green"/>
<path d="M8544,8196 l-34.5,-302" stroke="black" stroke-width="5"/>
<path d="M8547,4307 l60,0 l0,60 l-60,0 z" fill="green"/>
<path d="M8577,4337 l494.5,28" stroke="black" stroke-width="5"/>
<path d="M3125,9138 l60,0 l0,60 l-60,0 z" fill="green"/>
<path d="M3155,9168 l-192.5,-40.5" stroke="black" stroke-width="5"/>
<path d="M7793,4374 l60,0 l0,60 l-60,0 z" fill="green"/>
<path d="M7823,4404 l81.5,68" stroke="black" stroke-width="5"/>
<path d="M9421,80 l60,0 l0,60 l-60,0 z" fill="green"/>
<path d="M9451,110 l-418,55.5" stroke="black" stroke-width="5"/>
<path d="M7001,1359 l60,0 l0,60 l-60,0 z" fill="green"/>
<path d="M7031,1389 l-75,-71" stroke="black" stroke-width="5"/>
<path d="M1811,2307 l60,0 l0,60 l-60,0 z" fill="green"/>
<path d="M1841,2337 l-329,173.5" stroke="black" stroke-width="5"/>
<path d="M46,8334 l60,0 l0,60 l-60,0 z" fill="green"/>
<path d="M76,8364 l240.5,-171.5" stroke="black" stroke-width="5"/>
<path d="M3513,3901 l60,0 l0,60 l-60,0 z" fill="green"/>
<path d="M3543,3931 l-488,279" stroke="black" stroke-width="5"/>
<path d="M3897,8798 l60,0 l0,60 l-60,0 z" fill="green"/>
<path d="M3927,8828 l307.5,135.5" stroke="black" stroke-width="5"/>
<path d="M5641,3275 l60,0 l0,60 l-60,0 z" fill="green"/>
<path d="M5671,3305 l261,209" stroke="black" stroke-width="5"/>
<path d="M5512,4557 l60,0 l0,60 l-60,0 z" fill="green"/>
<path d="M5542,4587 l-340,176" stroke="black" stroke-width="5"/>
<path d="M4000,7702 l60,0 l0,60 l-60,0 z" fill="green"/>
<path d="M4030,7732 l-730.5,-459" stroke="black" stroke-width="5"/>
<path d="M8545,8170 l60,0 l0,60 l-60,0 z" fill="green"/>
<path d="M8575,8200 l-87,237.5" stroke="black" stroke-width="5"/>
<path d="M1109,3709 l60,0 l0,60 l-60,0 z" fill="green"/>
<path d="M1139,3739 l-441.5,-136" stroke="black" stroke-width="5"/>
<path d="M20,7385 l60,0 l0,60 l-60,0 z" fill="green"/>
<path d="M50,7415 l366.5,-302.5" stroke="black" stroke-width="5"/>
<path d="M904,4026 l60,0 l0,60 l-60,0 z" fill="green"/>
<path d="M934,4056 l69.5,131" stroke="black" stroke-width="5"/>
<path d="M8771,7148 l60,0 l0,60 l-60,0 z" fill="green"/>
<path d="M8801,7178 l-185.5,-224.5" stroke="black" stroke-width="5"/>
<path d="M4469,6177 l60,0 l0,60 l-60,0 z" fill="green"/>
<path d="M4499,6207 l166.5,-70" stroke="black" stroke-width="5"/>
<path d="M3066,3345 l60,0 l0,60 l-60,0 z" fill="green"/>
<path d="M3096,3375 l-281,-291" stroke="black" stroke-width="5"/>
<path d="M5222,3251 l60,0 l0,60 l-60,0 z" fill="green"/>
<path d="M5252,3281 l-198.5,-136" stroke="black" stroke-width="5"/>
<path d="M2217,1416 l60,0 l0,60 l-60,0 z" fill="green"/>
<path d="M2247,1446 l-733,248" stroke="black" stroke-width="5"/>
<path d="M3317,8471 l60,0 l0,60 l-60,0 z" fill="green"/>
<path d="M3347,8501 l-1222,-161.5" stroke="black" stroke-width="5"/>
<path d="M5761,8570 l60,0 l0,60 l-60,0 z" fill="green"/>
<path d="M5791,8600 l61.5,686.5" stroke="black" stroke-width="5"/>
<path d="M8003,8962 l60,0 l0,60 l-60,0 z" fill="green"/>
<path d="M8033,8992 l-100.5,92" stroke="black" stroke-width="5"/>
<path d="M2267,9224 l60,0 l0,60 l-60,0 z" fill="green"/>
<path d="M2297,9254 l-28.5,-185" stroke="black" stroke-width="5"/>
<path d="M4282,6146 l60,0 l0,60 l-60,0 z" fill="green"/>
<path d="M4312,6176 l0.5,0.5" stroke="black" stroke-width="5"/>
<text font-size="200" text-anchor="middle" x="1773" y="594.5">
0
</text>
<text font-size="200" text-anchor="middle" x="6514" y="6519">
1
</text>
<text font-size="200" text-anchor="middle" x="5353" y="359.5">
2
</text>
<text font-size="200" text-anchor="middle" x="5630.5" y="2397.5">
3
</text>
<text font-size="200" text-anchor="middle" x="6743" y="3110.5">
4
</text>
<text font-size="200" text-anchor="middle" x="4233.5" y="1564">
5
</text>
<text font-size="200" text-anchor="middle" x="7774.5" y="9803">
6
</text>
<text font-size="200" text-anchor="middle" x="7566.5" y="475.5">
7
</text>
<text font-size="200" text-anchor="middle" x="9055" y="5376">
8
</text>
<text font-size="200" text-anchor="middle" x="7075" y="9393">
9
</text>
<text font-size="200" text-anchor="middle" x="7556.5" y="2507">
10
</text>
<text font-size="200" text-anchor="middle" x="756" y="5307.5">
11
</text>
<text font-size="200" text-anchor="middle" x="7172.5" y="3795">
12
</text>
<text font-size="200" text-anchor="middle" x="5271" y="2144.5">
13
</text>
<text font-size="200" text-anchor="middle" x="5466" y="1087">
14
</text>
<text font-size="200" text-anchor="middle" x="3281" y="5584.5">
15
</text>
<text font-size="200" text-anchor="middle" x="4653.5" y="2979">
16
</text>
<text font-size="200" text-anchor="middle" x="5906.5" y="7972">
17
</text>
<text font-size="200" text-anchor="middle" x="1770" y="9812.5">
18
</text>
<text font-size="200" text-anchor="middle" x="8812.5" y="3833">
19
</text>
<text font-size="200" text-anchor="middle" x="9115.5" y="9285.5">
20
</text>
<text font-size="200" text-anchor="middle" x="3282.5" y="1787">
21
</text>
<text font-size="200" text-anchor="middle" x="6964.5" y="4951">
22
</text>
<text font-size="200" text-anchor="middle" x="8509.5" y="7964">
23
</text>
<text font-size="200" text-anchor="middle" x="9071.5" y="4435">
24
</text>
<text font-size="200" text-anchor="middle" x="2962.5" y="9197.5">
25
</text>
<text font-size="200" text-anchor="middle" x="7904.5" y="4542">
26
</text>
<text font-size="200" text-anchor="middle" x="9033" y="235.5">
27
</text>
<text font-size="200" text-anchor="middle" x="6956" y="1388">
28
</text>
<text font-size="200" text-anchor="middle" x="1512" y="2580.5">
29
</text>
<text font-size="200" text-anchor="middle" x="316.5" y="8262.5">
30
</text>
<text font-size="200" text-anchor="middle" x="3055" y="4280">
31
</text>
<text font-size="200" text-anchor="middle" x="4234.5" y="9033.5">
32
</text>
<text font-size="200" text-anchor="middle" x="5932" y="3584">
33
</text>
<text font-size="200" text-anchor="middle" x="5202" y="4833">
34
</text>
<text font-size="200" text-anchor="middle" x="3299.5" y="7343">
35
</text>
<text font-size="200" text-anchor="middle" x="8488" y="8507.5">
36
</text>
<text font-size="200" text-anchor="middle" x="697.5" y="3673">
37
</text>
<text font-size="200" text-anchor="middle" x="416.5" y="7182.5">
38
</text>
<text font-size="200" text-anchor="middle" x="1003.5" y="4257">
39
</text>
<text font-size="200" text-anchor="middle" x="8615.5" y="7023.5">
40
</text>
<text font-size="200" text-anchor="middle" x="4665.5" y="6207">
41
</text>
<text font-size="200" text-anchor="middle" x="2815" y="3154">
42
</text>
<text font-size="200" text-anchor="middle" x="5053.5" y="3215">
43
</text>
<text font-size="200" text-anchor="middle" x="1514" y="1764">
44
</text>
<text font-size="200" text-anchor="middle" x="2125" y="8409.5">
45
</text>
<text font-size="200" text-anchor="middle" x="5852.5" y="9356.5">
46
</text>
<text font-size="200" text-anchor="middle" x="7932.5" y="9154">
47
</text>
<text font-size="200" text-anchor="middle" x="2268.5" y="9139">
48
</text>
<text font-size="200" text-anchor="middle" x="4312.5" y="6246.5">
49
</text>
</svg>