<svg viewBox="-100 -100 10200 10200" xmlns="http://www.w3.org/2000/svg">
<path d="M0,0 l10000,0 l0,10000 l-10000,0 z" fill="white"/>
<path d="M2,0 l3477,0 l0,940 l-3477,0 z" fill="#8100ff" stroke="black" stroke-width="5"/>
<path d="M5035,5660 l2948,0 l0,1581 l-2948,0 z" fill="#fe00ff" stroke="black" stroke-width="5"/>
<path d="M3508,4 l3542,0 l0,568 l-3542,0 z" fill="#ff00fe" stroke="black" stroke-width="5"/>
<path d="M5441,1495 l414,0 l0,1646 l-414,0 z" fill="#fe00ff" stroke="black" stroke-width="5"/>
<path d="M6434,2229 l642,0 l0,1434 l-642,0 z" fill="#ff00fe" stroke="black" stroke-width="5"/>
<path d="M3559,572 l1349,0 l0,1844 l-1349,0 z" fill="#ff00fe" stroke="black" stroke-width="5"/>
<path d="M7305,9492 l875,0 l0,503 l-875,0 z" fill="#fe00ff" stroke="black" stroke-width="5"/>
<path d="M7050,3 l888,0 l0,660 l-888,0 z" fill="#fe00ff" stroke="black" stroke-width="5"/>
<path d="M8133,4777 l1731,0 l0,1043 l-1731,0 z" fill="#ff00fe" stroke="black" stroke-width="5"/>
<path d="M6840,8613 l453,0 l0,1123 l-453,0 z" fill="#fe00ff" stroke="black" stroke-width="5"/>
<path d="M7085,1674 l1022,0 l0,1525 l-1022,0 z" fill="#ff00fe" stroke="black" stroke-width="5"/>
<path d="M4,4579 l1485,0 l0,1218 l-1485,0 z" fill="#fe00ff" stroke="black" stroke-width="5"/>
<path d="M7142,3336 l49,0 l0,774 l-49,0 z" fill="#ff00fb" stroke="black" stroke-width="5"/>
<path d="M5140,2007 l231,0 l0,339 l-231,0 z" fill="#fe00ff" stroke="black" stroke-width="5"/>
<path d="M4916,577 l1095,0 l0,887 l-1095,0 z" fill="#fe00ff" stroke="black" stroke-width="5"/>
<path d="M2517,4807 l1552,0 l0,1207 l-1552,0 z" fill="#ff00fe" stroke="black" stroke-width="5"/>
<path d="M4641,2477 l27,0 l0,1107 l-27,0 z" fill="#ff00fe" stroke="black" stroke-width="5"/>
<path d="M4836,7241 l2187,0 l0,1263 l-2187,0 z" fill="#ee00ff" stroke="black" stroke-width="5"/>
<path d="M37,9475 l3423,0 l0,508 l-3423,0 z" fill="#fe00ff" stroke="black" stroke-width="5"/>
<path d="M8213,3541 l897,0 l0,373 l-897,0 z" fill="#fe00ff" stroke="black" stroke-width="5"/>
<path d="M8574,8644 l1078,0 l0,1027 l-1078,0 z" fill="#ff00fe" stroke="black" stroke-width="5"/>
<path d="M2909,1098 l577,0 l0,1161 l-577,0 z" fill="#ff00fe" stroke="black" stroke-width="5"/>
<path d="M6271,4111 l1368,0 l0,1534 l-1368,0 z" fill="#ff00fe" stroke="black" stroke-width="5"/>
<path d="M7031,7610 l2964,0 l0,588 l-2964,0 z" fill="#ff00fe" stroke="black" stroke-width="5"/>
<path d="M8090,3915 l1906,0 l0,856 l-1906,0 z" fill="#4c00ff" stroke="black" stroke-width="5"/>
<path d="M2311,8782 l1292,0 l0,693 l-1292,0 z" fill="#fa00ff" stroke="black" stroke-width="5"/>
<path d="M7661,3282 l426,0 l0,2187 l-426,0 z" fill="#fe00ff" stroke="black" stroke-width="5"/>
<path d="M8033,7 l1868,0 l0,305 l-1868,0 z" fill="#fe00ff" stroke="black" stroke-width="5"/>
<path d="M6087,1105 l1782,0 l0,442 l-1782,0 z" fill="#fe00ff" stroke="black" stroke-width="5"/>
<path d="M50,2337 l2715,0 l0,347 l-2715,0 z" fill="#fe00ff" stroke="black" stroke-width="5"/>
<path d="M30,7643 l599,0 l0,1185 l-599,0 z" fill="#fe00ff" stroke="black" stroke-width="5"/>
<path d="M2039,3469 l2059,0 l0,1332 l-2059,0 z" fill="#ce00ff" stroke="black" stroke-width="5"/>
<path d="M3624,7927 l1210,0 l0,2060 l-1210,0 z" fill="#f100ff" stroke="black" stroke-width="5"/>
<path d="M5408,3144 l1016,0 l0,748 l-1016,0 z" fill="#7e00ff" stroke="black" stroke-width="5"/>
<path d="M4098,3894 l2173,0 l0,1764 l-2173,0 z" fill="#aa00ff" stroke="black" stroke-width="5"/>
<path d="M1773,6624 l3053,0 l0,1298 l-3053,0 z" fill="#ff00fe" stroke="black" stroke-width="5"/>
<path d="M7033,8200 l2953,0 l0,400 l-2953,0 z" fill="#3c00ff" stroke="black" stroke-width="5"/>
<path d="M61,3563 l1434,0 l0,177 l-1434,0 z" fill="#fe00ff" stroke="black" stroke-width="5"/>
<path d="M5,6829 l902,0 l0,718 l-902,0 z" fill="#fe00ff" stroke="black" stroke-width="5"/>
<path d="M4,3746 l2030,0 l0,831 l-2030,0 z" fill="#fc00ff" stroke="black" stroke-width="5"/>
<path d="M7997,6516 l1141,0 l0,1068 l-1141,0 z" fill="#fe00ff" stroke="black" stroke-width="5"/>
<path d="M4320,5659 l691,0 l0,956 l-691,0 z" fill="#ff00fe" stroke="black" stroke-width="5"/>
<path d="M1118,2701 l3515,0 l0,767 l-3515,0 z" fill="#ff00fe" stroke="black" stroke-width="5"/>
<path d="M4685,2428 l720,0 l0,1453 l-720,0 z" fill="#ff00fe" stroke="black" stroke-width="5"/>
<path d="M1,942 l2908,0 l0,1372 l-2908,0 z" fill="#9600ff" stroke="black" stroke-width="5"/>
<path d="M639,7923 l2978,0 l0,849 l-2978,0 z" fill="#4000ff" stroke="black" stroke-width="5"/>
<path d="M4839,8507 l1983,0 l0,1483 l-1983,0 z" fill="#da00ff" stroke="black" stroke-width="5"/>
<path d="M7294,8601 l1264,0 l0,884 l-1264,0 z" fill="#3f00ff" stroke="black" stroke-width="5"/>
<path d="M2086,9154 l212,0 l0,110 l-212,0 z" fill="#fe00ff" stroke="black" stroke-width="5"/>
<path d="M4312,6176 l1,0 l0,1 l-1,0 z" fill="#0000ff" stroke="black" stroke-width="5"/>
<path d="M1879,330 l60,0 l0,60 l-60,0 z" fill="green"/>
<path d="M1909,360 l-168.5,110" stroke="black" stroke-width="5"/>
<path d="M5780,7061 l60,0 l0,60 l-60,0 z" fill="green"/>
<path d="M5810,7091 l699,-640.5" stroke="black" stroke-width="5"/>
<path d="M5377,392 l60,0 l0,60 l-60,0 z" fill="green"/>
<path d="M5407,422 l-128,-134" stroke="black" stroke-width="5"/>
<path d="M5737,3110 l60,0 l0,60 l-60,0 z" fill="green"/>
<path d="M5767,3140 l-119,-822" stroke="black" stroke-width="5"/>
<path d="M6629,3204 l60,0 l0,60 l-60,0 z" fill="green"/>
<path d="M6659,3234 l96,-288" stroke="black" stroke-width="5"/>
<path d="M4176,1590 l60,0 l0,60 l-60,0 z" fill="green"/>
<path d="M4206,1620 l27.5,-126" stroke="black" stroke-width="5"/>
<path d="M7823,9462 l60,0 l0,60 l-60,0 z" fill="green"/>
<path d="M7853,9492 l-110.5,251.5" stroke="black" stroke-width="5"/>
<path d="M7845,402 l60,0 l0,60 l-60,0 z" fill="green"/>
<path d="M7875,432 l-381,-99" stroke="black" stroke-width="5"/>
<path d="M9018,5029 l60,0 l0,60 l-60,0 z" fill="green"/>
<path d="M9048,5059 l-49.5,239.5" stroke="black" stroke-width="5"/>
<path d="M7262,9040 l60,0 l0,60 l-60,0 z" fill="green"/>
<path d="M7292,9070 l-225.5,104.5" stroke="black" stroke-width="5"/>
<path d="M7603,2466 l60,0 l0,60 l-60,0 z" fill="green"/>
<path d="M7633,2496 l-37,-59.5" stroke="black" stroke-width="5"/>
<path d="M391,4805 l60,0 l0,60 l-60,0 z" fill="green"/>
<path d="M421,4835 l325.5,353" stroke="black" stroke-width="5"/>
<path d="M7134,4079 l60,0 l0,60 l-60,0 z" fill="green"/>
<path d="M7164,4109 l2.5,-386" stroke="black" stroke-width="5"/>
<path d="M5326,2241 l60,0 l0,60 l-60,0 z" fill="green"/>
<path d="M5356,2271 l-100.5,-94.5" stroke="black" stroke-width="5"/>
<path d="M5231,547 l60,0 l0,60 l-60,0 z" fill="green"/>
<path d="M5261,577 l202.5,443.5" stroke="black" stroke-width="5"/>
<path d="M3516,5195 l60,0 l0,60 l-60,0 z" fill="green"/>
<path d="M3546,5225 l-253,185.5" stroke="black" stroke-width="5"/>
<path d="M4637,3356 l60,0 l0,60 l-60,0 z" fill="green"/>
<path d="M4667,3386 l-12.5,-355.5" stroke="black" stroke-width="5"/>
<path d="M5566,7866 l60,0 l0,60 l-60,0 z" fill="green"/>
<path d="M5596,7896 l333.5,-23.5" stroke="black" stroke-width="5"/>
<path d="M2488,9783 l60,0 l0,60 l-60,0 z" fill="green"/>
<path d="M2518,9813 l-769.5,-84" stroke="black" stroke-width="5"/>
<path d="M8972,3883 l60,0 l0,60 l-60,0 z" fill="green"/>
<path d="M9002,3913 l-340.5,-185.5" stroke="black" stroke-width="5"/>
<path d="M8544,8917 l60,0 l0,60 l-60,0 z" fill="green"/>
<path d="M8574,8947 l539,210.5" stroke="black" stroke-width="5"/>
<path d="M3088,1743 l60,0 l0,60 l-60,0 z" fill="green"/>
<path d="M3118,1773 l79.5,-94.5" stroke="black" stroke-width="5"/>
<path d="M7110,4358 l60,0 l0,60 l-60,0 z" fill="green"/>
<path d="M7140,4388 l-185,490" stroke="black" stroke-width="5"/>
<path d="M8514,8166 l60,0 l0,60 l-60,0 z" fill="green"/>
<path d="M8544,8196 l-31,-292" stroke="black" stroke-width="5"/>
<path d="M8547,4307 l60,0 l0,60 l-60,0 z" fill="green"/>
<path d="M8577,4337 l466,6" stroke="black" stroke-width="5"/>
<path d="M3125,9138 l60,0 l0,60 l-60,0 z" fill="green"/>
<path d="M3155,9168 l-198,-39.5" stroke="black" stroke-width="5"/>
<path d="M7793,4374 l60,0 l0,60 l-60,0 z" fill="green"/>
<path d="M7823,4404 l51,-28.5" stroke="black" stroke-width="5"/>
<path d="M9421,80 l60,0 l0,60 l-60,0 z" fill="green"/>
<path d="M9451,110 l-484,49.5" stroke="black" stroke-width="5"/>
<path d="M7001,1359 l60,0 l0,60 l-60,0 z" fill="green"/>
<path d="M7031,1389 l-53,-63" stroke="black" stroke-width="5"/>
<path d="M1811,2307 l60,0 l0,60 l-60,0 z" fill="green"/>
<path d="M1841,2337 l-433.5,173.5" stroke="black" stroke-width="5"/>
<path d="M46,8334 l60,0 l0,60 l-60,0 z" fill="green"/>
<path d="M76,8364 l253.5,-128.5" stroke="black" stroke-width="5"/>
<path d="M3513,3901 l60,0 l0,60 l-60,0 z" fill="green"/>
<path d="M3543,3931 l-474.5,204" stroke="black" stroke-width="5"/>
<path d="M3897,8798 l60,0 l0,60 l-60,0 z" fill="green"/>
<path d="M3927,8828 l302,129" stroke="black" stroke-width="5"/>
<path d="M5641,3275 l60,0 l0,60 l-60,0 z" fill="green"/>
<path d="M5671,3305 l245,213" stroke="black" stroke-width="5"/>
<path d="M5512,4557 l60,0 l0,60 l-60,0 z" fill="green"/>
<path d="M5542,4587 l-357.5,189" stroke="black" stroke-width="5"/>
<path d="M4000,7702 l60,0 l0,60 l-60,0 z" fill="green"/>
<path d="M4030,7732 l-730.5,-459" stroke="black" stroke-width="5"/>
<path d="M8545,8170 l60,0 l0,60 l-60,0 z" fill="green"/>
<path d="M8575,8200 l-65.5,200" stroke="black" stroke-width="5"/>
<path d="M1109,3709 l60,0 l0,60 l-60,0 z" fill="green"/>
<path d="M1139,3739 l-361,-87.5" stroke="black" stroke-width="5"/>
<path d="M20,7385 l60,0 l0,60 l-60,0 z" fill="green"/>
<path d="M50,7415 l406,-227" stroke="black" stroke-width="5"/>
<path d="M904,4026 l60,0 l0,60 l-60,0 z" fill="green"/>
<path d="M934,4056 l85,105.5" stroke="black" stroke-width="5"/>
<path d="M8771,7148 l60,0 l0,60 l-60,0 z" fill="green"/>
<path d="M8801,7178 l-233.5,-128" stroke="black" stroke-width="5"/>
<path d="M4469,6177 l60,0 l0,60 l-60,0 z" fill="green"/>
<path d="M4499,6207 l166.5,-70" stroke="black" stroke-width="5"/>
<path d="M3066,3345 l60,0 l0,60 l-60,0 z" fill="green"/>
<path d="M3096,3375 l-220.5,-290.5" stroke="black" stroke-width="5"/>
<path d="M5222,3251 l60,0 l0,60 l-60,0 z" fill="green"/>
<path d="M5252,3281 l-207,-126.5" stroke="black" stroke-width="5"/>
<path d="M2217,1416 l60,0 l0,60 l-60,0 z" fill="green"/>
<path d="M2247,1446 l-792,182" stroke="black" stroke-width="5"/>
<path d="M3317,8471 l60,0 l0,60 l-60,0 z" fill="green"/>
<path d="M3347,8501 l-1219,-153.5" stroke="black" stroke-width="5"/>
<path d="M5761,8570 l60,0 l0,60 l-60,0 z" fill="green"/>
<path d="M5791,8600 l39.5,648.5" stroke="black" stroke-width="5"/>
<path d="M8003,8962 l60,0 l0,60 l-60,0 z" fill="green"/>
<path d="M8033,8992 l-107,51" stroke="black" stroke-width="5"/>
<path d="M2267,9224 l60,0 l0,60 l-60,0 z" fill="green"/>
<path d="M2297,9254 l-105,-45" stroke="black" stroke-width="5"/>
<path d="M4282,6146 l60,0 l0,60 l-60,0 z" fill="green"/>
<path d="M4312,6176 l0.5,0.5" stroke="black" stroke-width="5"/>
<text font-size="200" text-anchor="middle" x="1740.5" y="540">
0
</text>
<text font-size="200" text-anchor="middle" x="6509" y="6520.5">
1
</text>
<text font-size="200" text-anchor="middle" x="5279" y="358">
2
</text>
<text font-size="200" text-anchor="middle" x="5648" y="2388">
3
</text>
<text font-size="200" text-anchor="middle" x="6755" y="3016">
4
</text>
<text font-size="200" text-anchor="middle" x="4233.5" y="1564">
5
</text>
<text font-size="200" text-anchor="middle" x="7742.5" y="9813.5">
6
</text>
<text font-size="200" text-anchor="middle" x="7494" y="403">
7
</text>
<text font-size="200" text-anchor="middle" x="8998.5" y="5368.5">
8
</text>
<text font-size="200" text-anchor="middle" x="7066.5" y="9244.5">
9
</text>
<text font-size="200" text-anchor="middle" x="7596" y="2506.5">
10
</text>
<text font-size="200" text-anchor="middle" x="746.5" y="5258">
11
</text>
<text font-size="200" text-anchor="middle" x="7166.5" y="3793">
12
</text>
<text font-size="200" text-anchor="middle" x="5255.5" y="2246.5">
13
</text>
<text font-size="200" text-anchor="middle" x="5463.5" y="1090.5">
14
</text>
<text font-size="200" text-anchor="middle" x="3293" y="5480.5">
15
</text>
<text font-size="200" text-anchor="middle" x="4654.5" y="3100.5">
16
</text>
<text font-size="200" text-anchor="middle" x="5929.5" y="7942.5">
17
</text>
<text font-size="200" text-anchor="middle" x="1748.5" y="9799">
18
</text>
<text font-size="200" text-anchor="middle" x="8661.5" y="3797.5">
19
</text>
<text font-size="200" text-anchor="middle" x="9113" y="9227.5">
20
</text>
<text font-size="200" text-anchor="middle" x="3197.5" y="1748.5">
21
</text>
<text font-size="200" text-anchor="middle" x="6955" y="4948">
22
</text>
<text font-size="200" text-anchor="middle" x="8513" y="7974">
23
</text>
<text font-size="200" text-anchor="middle" x="9043" y="4413">
24
</text>
<text font-size="200" text-anchor="middle" x="2957" y="9198.5">
25
</text>
<text font-size="200" text-anchor="middle" x="7874" y="4445.5">
26
</text>
<text font-size="200" text-anchor="middle" x="8967" y="229.5">
27
</text>
<text font-size="200" text-anchor="middle" x="6978" y="1396">
28
</text>
<text font-size="200" text-anchor="middle" x="1407.5" y="2580.5">
29
</text>
<text font-size="200" text-anchor="middle" x="329.5" y="8305.5">
30
</text>
<text font-size="200" text-anchor="middle" x="3068.5" y="4205">
31
</text>
<text font-size="200" text-anchor="middle" x="4229" y="9027">
32
</text>
<text font-size="200" text-anchor="middle" x="5916" y="3588">
33
</text>
<text font-size="200" text-anchor="middle" x="5184.5" y="4846">
34
</text>
<text font-size="200" text-anchor="middle" x="3299.5" y="7343">
35
</text>
<text font-size="200" text-anchor="middle" x="8509.5" y="8470">
36
</text>
<text font-size="200" text-anchor="middle" x="778" y="3721.5">
37
</text>
<text font-size="200" text-anchor="middle" x="456" y="7258">
38
</text>
<text font-size="200" text-anchor="middle" x="1019" y="4231.5">
39
</text>
<text font-size="200" text-anchor="middle" x="8567.5" y="7120">
40
</text>
<text font-size="200" text-anchor="middle" x="4665.5" y="6207">
41
</text>
<text font-size="200" text-anchor="middle" x="2875.5" y="3154.5">
42
</text>
<text font-size="200" text-anchor="middle" x="5045" y="3224.5">
43
</text>
<text font-size="200" text-anchor="middle" x="1455" y="1698">
44
</text>
<text font-size="200" text-anchor="middle" x="2128" y="8417.5">
45
</text>
<text font-size="200" text-anchor="middle" x="5830.5" y="9318.5">
46
</text>
<text font-size="200" text-anchor="middle" x="7926" y="9113">
47
</text>
<text font-size="200" text-anchor="middle" x="2192" y="9279">
48
</text>
<text font-size="200" text-anchor="middle" x="4312.5" y="6246.5">
49
</text>
</svg>