<svg viewBox="-100 -100 10200 10200" xmlns="http://www.w3.org/2000/svg">
<path d="M0,0 l10000,0 l0,10000 l-10000,0 z" fill="white"/>
<path d="M2,0 l3543,0 l0,987 l-3543,0 z" fill="#8f00ff" stroke="black" stroke-width="5"/>
<path d="M5042,5646 l2906,0 l0,1604 l-2906,0 z" fill="#fe00ff" stroke="black" stroke-width="5"/>
<path d="M3561,0 l3488,0 l0,573 l-3488,0 z" fill="#fe00ff" stroke="black" stroke-width="5"/>
<path d="M5530,1743 l484,0 l0,1408 l-484,0 z" fill="#fe00ff" stroke="black" stroke-width="5"/>
<path d="M6247,2480 l764,0 l0,1205 l-764,0 z" fill="#ff00fe" stroke="black" stroke-width="5"/>
<path d="M3555,602 l1323,0 l0,1880 l-1323,0 z" fill="#fe00ff" stroke="black" stroke-width="5"/>
<path d="M7338,9492 l882,0 l0,499 l-882,0 z" fill="#fe00ff" stroke="black" stroke-width="5"/>
<path d="M7050,20 l935,0 l0,627 l-935,0 z" fill="#ff00fe" stroke="black" stroke-width="5"/>
<path d="M8170,4711 l1726,0 l0,1046 l-1726,0 z" fill="#fe00ff" stroke="black" stroke-width="5"/>
<path d="M6799,8672 l535,0 l0,952 l-535,0 z" fill="#ff00fe" stroke="black" stroke-width="5"/>
<path d="M7092,1707 l1028,0 l0,1516 l-1028,0 z" fill="#ff00fe" stroke="black" stroke-width="5"/>
<path d="M4,4579 l1485,0 l0,1218 l-1485,0 z" fill="#fe00ff" stroke="black" stroke-width="5"/>
<path d="M7099,3578 l66,0 l0,532 l-66,0 z" fill="#ff00fe" stroke="black" stroke-width="5"/>
<path d="M5006,2104 l377,0 l0,208 l-377,0 z" fill="#fe00ff" stroke="black" stroke-width="5"/>
<path d="M4936,577 l1073,0 l0,905 l-1073,0 z" fill="#fe00ff" stroke="black" stroke-width="5"/>
<path d="M2603,4790 l1493,0 l0,1254 l-1493,0 z" fill="#ff00fe" stroke="black" stroke-width="5"/>
<path d="M4642,2493 l26,0 l0,1131 l-26,0 z" fill="#ff00fe" stroke="black" stroke-width="5"/>
<path d="M4819,7250 l2183,0 l0,1138 l-2183,0 z" fill="#d900ff" stroke="black" stroke-width="5"/>
<path d="M75,9482 l3470,0 l0,501 l-3470,0 z" fill="#fe00ff" stroke="black" stroke-width="5"/>
<path d="M8436,3491 l791,0 l0,423 l-791,0 z" fill="#fe00ff" stroke="black" stroke-width="5"/>
<path d="M8471,8640 l1132,0 l0,978 l-1132,0 z" fill="#ff00fe" stroke="black" stroke-width="5"/>
<path d="M2876,1125 l598,0 l0,1120 l-598,0 z" fill="#fe00ff" stroke="black" stroke-width="5"/>
<path d="M6277,4120 l1334,0 l0,1526 l-1334,0 z" fill="#fe00ff" stroke="black" stroke-width="5"/>
<path d="M7054,7599 l2914,0 l0,598 l-2914,0 z" fill="#ff00fe" stroke="black" stroke-width="5"/>
<path d="M8152,3914 l1838,0 l0,793 l-1838,0 z" fill="#3e00ff" stroke="black" stroke-width="5"/>
<path d="M2307,8763 l1363,0 l0,716 l-1363,0 z" fill="#fe00ff" stroke="black" stroke-width="5"/>
<path d="M7629,3450 l511,0 l0,1851 l-511,0 z" fill="#ff00fe" stroke="black" stroke-width="5"/>
<path d="M8041,40 l1902,0 l0,300 l-1902,0 z" fill="#ff00fe" stroke="black" stroke-width="5"/>
<path d="M6186,1029 l1435,0 l0,549 l-1435,0 z" fill="#ff00fe" stroke="black" stroke-width="5"/>
<path d="M145,2337 l2526,0 l0,373 l-2526,0 z" fill="#fe00ff" stroke="black" stroke-width="5"/>
<path d="M2,7702 l640,0 l0,1110 l-640,0 z" fill="#ff00fe" stroke="black" stroke-width="5"/>
<path d="M2039,3512 l2059,0 l0,1277 l-2059,0 z" fill="#c500ff" stroke="black" stroke-width="5"/>
<path d="M3672,7952 l1138,0 l0,2044 l-1138,0 z" fill="#e500ff" stroke="black" stroke-width="5"/>
<path d="M5407,3151 l836,0 l0,817 l-836,0 z" fill="#6a00ff" stroke="black" stroke-width="5"/>
<path d="M4106,3973 l2169,0 l0,1672 l-2169,0 z" fill="#9e00ff" stroke="black" stroke-width="5"/>
<path d="M1845,6615 l2973,0 l0,1333 l-2973,0 z" fill="#ff00fe" stroke="black" stroke-width="5"/>
<path d="M7024,8197 l2959,0 l0,437 l-2959,0 z" fill="#4600ff" stroke="black" stroke-width="5"/>
<path d="M72,3567 l1366,0 l0,186 l-1366,0 z" fill="#ff00fe" stroke="black" stroke-width="5"/>
<path d="M22,6920 l839,0 l0,772 l-839,0 z" fill="#fe00ff" stroke="black" stroke-width="5"/>
<path d="M5,3753 l2025,0 l0,826 l-2025,0 z" fill="#fb00ff" stroke="black" stroke-width="5"/>
<path d="M7984,6553 l1175,0 l0,1037 l-1175,0 z" fill="#fe00ff" stroke="black" stroke-width="5"/>
<path d="M4329,5646 l711,0 l0,929 l-711,0 z" fill="#fe00ff" stroke="black" stroke-width="5"/>
<path d="M1224,2720 l3404,0 l0,792 l-3404,0 z" fill="#ff00fe" stroke="black" stroke-width="5"/>
<path d="M4675,2485 l729,0 l0,1435 l-729,0 z" fill="#fe00ff" stroke="black" stroke-width="5"/>
<path d="M1,988 l2847,0 l0,1347 l-2847,0 z" fill="#8e00ff" stroke="black" stroke-width="5"/>
<path d="M657,7952 l3015,0 l0,809 l-3015,0 z" fill="#3c00ff" stroke="black" stroke-width="5"/>
<path d="M4814,8388 l1981,0 l0,1612 l-1981,0 z" fill="#ea00ff" stroke="black" stroke-width="5"/>
<path d="M7342,8634 l1127,0 l0,857 l-1127,0 z" fill="#3000ff" stroke="black" stroke-width="5"/>
<path d="M2144,9101 l154,0 l0,155 l-154,0 z" fill="#ff00fe" stroke="black" stroke-width="5"/>
<path d="M4312,6176 l1,0 l0,1 l-1,0 z" fill="#0000ff" stroke="black" stroke-width="5"/>
<path d="M1879,330 l60,0 l0,60 l-60,0 z" fill="green"/>
<path d="M1909,360 l-135.5,133.5" stroke="black" stroke-width="5"/>
<path d="M5780,7061 l60,0 l0,60 l-60,0 z" fill="green"/>
<path d="M5810,7091 l685,-643" stroke="black" stroke-width="5"/>
<path d="M5377,392 l60,0 l0,60 l-60,0 z" fill="green"/>
<path d="M5407,422 l-102,-135.5" stroke="black" stroke-width="5"/>
<path d="M5737,3110 l60,0 l0,60 l-60,0 z" fill="green"/>
<path d="M5767,3140 l5,-693" stroke="black" stroke-width="5"/>
<path d="M6629,3204 l60,0 l0,60 l-60,0 z" fill="green"/>
<path d="M6659,3234 l-30,-151.5" stroke="black" stroke-width="5"/>
<path d="M4176,1590 l60,0 l0,60 l-60,0 z" fill="green"/>
<path d="M4206,1620 l10.5,-78" stroke="black" stroke-width="5"/>
<path d="M7823,9462 l60,0 l0,60 l-60,0 z" fill="green"/>
<path d="M7853,9492 l-74,249.5" stroke="black" stroke-width="5"/>
<path d="M7845,402 l60,0 l0,60 l-60,0 z" fill="green"/>
<path d="M7875,432 l-357.5,-98.5" stroke="black" stroke-width="5"/>
<path d="M9018,5029 l60,0 l0,60 l-60,0 z" fill="green"/>
<path d="M9048,5059 l-15,175" stroke="black" stroke-width="5"/>
<path d="M7262,9040 l60,0 l0,60 l-60,0 z" fill="green"/>
<path d="M7292,9070 l-225.5,78" stroke="black" stroke-width="5"/>
<path d="M7603,2466 l60,0 l0,60 l-60,0 z" fill="green"/>
<path d="M7633,2496 l-27,-31" stroke="black" stroke-width="5"/>
<path d="M391,4805 l60,0 l0,60 l-60,0 z" fill="green"/>
<path d="M421,4835 l325.5,353" stroke="black" stroke-width="5"/>
<path d="M7134,4079 l60,0 l0,60 l-60,0 z" fill="green"/>
<path d="M7164,4109 l-32,-265" stroke="black" stroke-width="5"/>
<path d="M5326,2241 l60,0 l0,60 l-60,0 z" fill="green"/>
<path d="M5356,2271 l-161.5,-63" stroke="black" stroke-width="5"/>
<path d="M5231,547 l60,0 l0,60 l-60,0 z" fill="green"/>
<path d="M5261,577 l211.5,452.5" stroke="black" stroke-width="5"/>
<path d="M3516,5195 l60,0 l0,60 l-60,0 z" fill="green"/>
<path d="M3546,5225 l-196.5,192" stroke="black" stroke-width="5"/>
<path d="M4637,3356 l60,0 l0,60 l-60,0 z" fill="green"/>
<path d="M4667,3386 l-12,-327.5" stroke="black" stroke-width="5"/>
<path d="M5566,7866 l60,0 l0,60 l-60,0 z" fill="green"/>
<path d="M5596,7896 l314.5,-77" stroke="black" stroke-width="5"/>
<path d="M2488,9783 l60,0 l0,60 l-60,0 z" fill="green"/>
<path d="M2518,9813 l-708,-80.5" stroke="black" stroke-width="5"/>
<path d="M8972,3883 l60,0 l0,60 l-60,0 z" fill="green"/>
<path d="M9002,3913 l-170.5,-210.5" stroke="black" stroke-width="5"/>
<path d="M8544,8917 l60,0 l0,60 l-60,0 z" fill="green"/>
<path d="M8574,8947 l463,182" stroke="black" stroke-width="5"/>
<path d="M3088,1743 l60,0 l0,60 l-60,0 z" fill="green"/>
<path d="M3118,1773 l57,-88" stroke="black" stroke-width="5"/>
<path d="M7110,4358 l60,0 l0,60 l-60,0 z" fill="green"/>
<path d="M7140,4388 l-196,495" stroke="black" stroke-width="5"/>
<path d="M8514,8166 l60,0 l0,60 l-60,0 z" fill="green"/>
<path d="M8544,8196 l-33,-298" stroke="black" stroke-width="5"/>
<path d="M8547,4307 l60,0 l0,60 l-60,0 z" fill="green"/>
<path d="M8577,4337 l494,-26.5" stroke="black" stroke-width="5"/>
<path d="M3125,9138 l60,0 l0,60 l-60,0 z" fill="green"/>
<path d="M3155,9168 l-166.5,-47" stroke="black" stroke-width="5"/>
<path d="M7793,4374 l60,0 l0,60 l-60,0 z" fill="green"/>
<path d="M7823,4404 l61.5,-28.5" stroke="black" stroke-width="5"/>
<path d="M9421,80 l60,0 l0,60 l-60,0 z" fill="green"/>
<path d="M9451,110 l-459,80" stroke="black" stroke-width="5"/>
<path d="M7001,1359 l60,0 l0,60 l-60,0 z" fill="green"/>
<path d="M7031,1389 l-127.5,-85.5" stroke="black" stroke-width="5"/>
<path d="M1811,2307 l60,0 l0,60 l-60,0 z" fill="green"/>
<path d="M1841,2337 l-433,186.5" stroke="black" stroke-width="5"/>
<path d="M46,8334 l60,0 l0,60 l-60,0 z" fill="green"/>
<path d="M76,8364 l246,-107" stroke="black" stroke-width="5"/>
<path d="M3513,3901 l60,0 l0,60 l-60,0 z" fill="green"/>
<path d="M3543,3931 l-474.5,219.5" stroke="black" stroke-width="5"/>
<path d="M3897,8798 l60,0 l0,60 l-60,0 z" fill="green"/>
<path d="M3927,8828 l314,146" stroke="black" stroke-width="5"/>
<path d="M5641,3275 l60,0 l0,60 l-60,0 z" fill="green"/>
<path d="M5671,3305 l154,254.5" stroke="black" stroke-width="5"/>
<path d="M5512,4557 l60,0 l0,60 l-60,0 z" fill="green"/>
<path d="M5542,4587 l-351.5,222" stroke="black" stroke-width="5"/>
<path d="M4000,7702 l60,0 l0,60 l-60,0 z" fill="green"/>
<path d="M4030,7732 l-698.5,-450.5" stroke="black" stroke-width="5"/>
<path d="M8545,8170 l60,0 l0,60 l-60,0 z" fill="green"/>
<path d="M8575,8200 l-71.5,215.5" stroke="black" stroke-width="5"/>
<path d="M1109,3709 l60,0 l0,60 l-60,0 z" fill="green"/>
<path d="M1139,3739 l-384,-79" stroke="black" stroke-width="5"/>
<path d="M20,7385 l60,0 l0,60 l-60,0 z" fill="green"/>
<path d="M50,7415 l391.5,-109" stroke="black" stroke-width="5"/>
<path d="M904,4026 l60,0 l0,60 l-60,0 z" fill="green"/>
<path d="M934,4056 l83.5,110" stroke="black" stroke-width="5"/>
<path d="M8771,7148 l60,0 l0,60 l-60,0 z" fill="green"/>
<path d="M8801,7178 l-229.5,-106.5" stroke="black" stroke-width="5"/>
<path d="M4469,6177 l60,0 l0,60 l-60,0 z" fill="green"/>
<path d="M4499,6207 l185.5,-96.5" stroke="black" stroke-width="5"/>
<path d="M3066,3345 l60,0 l0,60 l-60,0 z" fill="green"/>
<path d="M3096,3375 l-170,-259" stroke="black" stroke-width="5"/>
<path d="M5222,3251 l60,0 l0,60 l-60,0 z" fill="green"/>
<path d="M5252,3281 l-212.5,-78.5" stroke="black" stroke-width="5"/>
<path d="M2217,1416 l60,0 l0,60 l-60,0 z" fill="green"/>
<path d="M2247,1446 l-822.5,215.5" stroke="black" stroke-width="5"/>
<path d="M3317,8471 l60,0 l0,60 l-60,0 z" fill="green"/>
<path d="M3347,8501 l-1182.5,-144.5" stroke="black" stroke-width="5"/>
<path d="M5761,8570 l60,0 l0,60 l-60,0 z" fill="green"/>
<path d="M5791,8600 l13.5,594" stroke="black" stroke-width="5"/>
<path d="M8003,8962 l60,0 l0,60 l-60,0 z" fill="green"/>
<path d="M8033,8992 l-127.5,70.5" stroke="black" stroke-width="5"/>
<path d="M2267,9224 l60,0 l0,60 l-60,0 z" fill="green"/>
<path d="M2297,9254 l-76,-75.5" stroke="black" stroke-width="5"/>
<path d="M4282,6146 l60,0 l0,60 l-60,0 z" fill="green"/>
<path d="M4312,6176 l0.5,0.5" stroke="black" stroke-width="5"/>
<text font-size="200" text-anchor="middle" x="1773.5" y="563.5">
0
</text>
<text font-size="200" text-anchor="middle" x="6495" y="6518">
1
</text>
<text font-size="200" text-anchor="middle" x="5305" y="356.5">
2
</text>
<text font-size="200" text-anchor="middle" x="5772" y="2517">
3
</text>
<text font-size="200" text-anchor="middle" x="6629" y="3152.5">
4
</text>
<text font-size="200" text-anchor="middle" x="4216.5" y="1612">
5
</text>
<text font-size="200" text-anchor="middle" x="7779" y="9811.5">
6
</text>
<text font-size="200" text-anchor="middle" x="7517.5" y="403.5">
7
</text>
<text font-size="200" text-anchor="middle" x="9033" y="5304">
8
</text>
<text font-size="200" text-anchor="middle" x="7066.5" y="9218">
9
</text>
<text font-size="200" text-anchor="middle" x="7606" y="2535">
10
</text>
<text font-size="200" text-anchor="middle" x="746.5" y="5258">
11
</text>
<text font-size="200" text-anchor="middle" x="7132" y="3914">
12
</text>
<text font-size="200" text-anchor="middle" x="5194.5" y="2278">
13
</text>
<text font-size="200" text-anchor="middle" x="5472.5" y="1099.5">
14
</text>
<text font-size="200" text-anchor="middle" x="3349.5" y="5487">
15
</text>
<text font-size="200" text-anchor="middle" x="4655" y="3128.5">
16
</text>
<text font-size="200" text-anchor="middle" x="5910.5" y="7889">
17
</text>
<text font-size="200" text-anchor="middle" x="1810" y="9802.5">
18
</text>
<text font-size="200" text-anchor="middle" x="8831.5" y="3772.5">
19
</text>
<text font-size="200" text-anchor="middle" x="9037" y="9199">
20
</text>
<text font-size="200" text-anchor="middle" x="3175" y="1755">
21
</text>
<text font-size="200" text-anchor="middle" x="6944" y="4953">
22
</text>
<text font-size="200" text-anchor="middle" x="8511" y="7968">
23
</text>
<text font-size="200" text-anchor="middle" x="9071" y="4380.5">
24
</text>
<text font-size="200" text-anchor="middle" x="2988.5" y="9191">
25
</text>
<text font-size="200" text-anchor="middle" x="7884.5" y="4445.5">
26
</text>
<text font-size="200" text-anchor="middle" x="8992" y="260">
27
</text>
<text font-size="200" text-anchor="middle" x="6903.5" y="1373.5">
28
</text>
<text font-size="200" text-anchor="middle" x="1408" y="2593.5">
29
</text>
<text font-size="200" text-anchor="middle" x="322" y="8327">
30
</text>
<text font-size="200" text-anchor="middle" x="3068.5" y="4220.5">
31
</text>
<text font-size="200" text-anchor="middle" x="4241" y="9044">
32
</text>
<text font-size="200" text-anchor="middle" x="5825" y="3629.5">
33
</text>
<text font-size="200" text-anchor="middle" x="5190.5" y="4879">
34
</text>
<text font-size="200" text-anchor="middle" x="3331.5" y="7351.5">
35
</text>
<text font-size="200" text-anchor="middle" x="8503.5" y="8485.5">
36
</text>
<text font-size="200" text-anchor="middle" x="755" y="3730">
37
</text>
<text font-size="200" text-anchor="middle" x="441.5" y="7376">
38
</text>
<text font-size="200" text-anchor="middle" x="1017.5" y="4236">
39
</text>
<text font-size="200" text-anchor="middle" x="8571.5" y="7141.5">
40
</text>
<text font-size="200" text-anchor="middle" x="4684.5" y="6180.5">
41
</text>
<text font-size="200" text-anchor="middle" x="2926" y="3186">
42
</text>
<text font-size="200" text-anchor="middle" x="5039.5" y="3272.5">
43
</text>
<text font-size="200" text-anchor="middle" x="1424.5" y="1731.5">
44
</text>
<text font-size="200" text-anchor="middle" x="2164.5" y="8426.5">
45
</text>
<text font-size="200" text-anchor="middle" x="5804.5" y="9264">
46
</text>
<text font-size="200" text-anchor="middle" x="7905.5" y="9132.5">
47
</text>
<text font-size="200" text-anchor="middle" x="2221" y="9248.5">
48
</text>
<text font-size="200" text-anchor="middle" x="4312.5" y="6246.5">
49
</text>
</svg>