<svg viewBox="-100 -100 10200 10200" xmlns="http://www.w3.org/2000/svg">
<path d="M0,0 l10000,0 l0,10000 l-10000,0 z" fill="white"/>
<path d="M13,5 l3467,0 l0,956 l-3467,0 z" fill="#8400ff" stroke="black" stroke-width="5"/>
<path d="M5035,5660 l2948,0 l0,1581 l-2948,0 z" fill="#fe00ff" stroke="black" stroke-width="5"/>
<path d="M3498,2 l3528,0 l0,568 l-3528,0 z" fill="#fe00ff" stroke="black" stroke-width="5"/>
<path d="M5441,1495 l414,0 l0,1646 l-414,0 z" fill="#fe00ff" stroke="black" stroke-width="5"/>
<path d="M6434,2229 l642,0 l0,1434 l-642,0 z" fill="#ff00fe" stroke="black" stroke-width="5"/>
<path d="M3559,572 l1349,0 l0,1844 l-1349,0 z" fill="#ff00fe" stroke="black" stroke-width="5"/>
<path d="M7305,9492 l875,0 l0,503 l-875,0 z" fill="#fe00ff" stroke="black" stroke-width="5"/>
<path d="M7050,3 l888,0 l0,660 l-888,0 z" fill="#fe00ff" stroke="black" stroke-width="5"/>
<path d="M8133,4777 l1731,0 l0,1043 l-1731,0 z" fill="#ff00fe" stroke="black" stroke-width="5"/>
<path d="M6809,8646 l484,0 l0,1052 l-484,0 z" fill="#fe00ff" stroke="black" stroke-width="5"/>
<path d="M7085,1674 l1022,0 l0,1525 l-1022,0 z" fill="#ff00fe" stroke="black" stroke-width="5"/>
<path d="M4,4579 l1485,0 l0,1218 l-1485,0 z" fill="#fe00ff" stroke="black" stroke-width="5"/>
<path d="M7125,3207 l40,0 l0,903 l-40,0 z" fill="#ff00fe" stroke="black" stroke-width="5"/>
<path d="M5076,2027 l321,0 l0,245 l-321,0 z" fill="#ff00fe" stroke="black" stroke-width="5"/>
<path d="M4916,577 l1095,0 l0,887 l-1095,0 z" fill="#fe00ff" stroke="black" stroke-width="5"/>
<path d="M2588,4809 l1500,0 l0,1248 l-1500,0 z" fill="#ff00fe" stroke="black" stroke-width="5"/>
<path d="M4643,2546 l25,0 l0,1143 l-25,0 z" fill="#fe00ff" stroke="black" stroke-width="5"/>
<path d="M4836,7241 l2187,0 l0,1263 l-2187,0 z" fill="#ee00ff" stroke="black" stroke-width="5"/>
<path d="M41,9484 l3400,0 l0,511 l-3400,0 z" fill="#fe00ff" stroke="black" stroke-width="5"/>
<path d="M8218,3538 l890,0 l0,376 l-890,0 z" fill="#ff00fe" stroke="black" stroke-width="5"/>
<path d="M8546,8633 l1107,0 l0,1000 l-1107,0 z" fill="#fe00ff" stroke="black" stroke-width="5"/>
<path d="M2932,1132 l598,0 l0,1120 l-598,0 z" fill="#fe00ff" stroke="black" stroke-width="5"/>
<path d="M6271,4111 l1368,0 l0,1534 l-1368,0 z" fill="#ff00fe" stroke="black" stroke-width="5"/>
<path d="M7057,7603 l2918,0 l0,597 l-2918,0 z" fill="#fe00ff" stroke="black" stroke-width="5"/>
<path d="M8082,3916 l1915,0 l0,845 l-1915,0 z" fill="#4a00ff" stroke="black" stroke-width="5"/>
<path d="M2309,8778 l1316,0 l0,691 l-1316,0 z" fill="#fc00ff" stroke="black" stroke-width="5"/>
<path d="M7640,3303 l441,0 l0,2147 l-441,0 z" fill="#ff00fe" stroke="black" stroke-width="5"/>
<path d="M8001,1 l1870,0 l0,305 l-1870,0 z" fill="#ff00fe" stroke="black" stroke-width="5"/>
<path d="M6054,1147 l1734,0 l0,453 l-1734,0 z" fill="#fe00ff" stroke="black" stroke-width="5"/>
<path d="M50,2337 l2715,0 l0,347 l-2715,0 z" fill="#fe00ff" stroke="black" stroke-width="5"/>
<path d="M20,7603 l595,0 l0,1194 l-595,0 z" fill="#ff00fe" stroke="black" stroke-width="5"/>
<path d="M2081,3471 l2017,0 l0,1333 l-2017,0 z" fill="#ca00ff" stroke="black" stroke-width="5"/>
<path d="M3631,7948 l1203,0 l0,2047 l-1203,0 z" fill="#ef00ff" stroke="black" stroke-width="5"/>
<path d="M5417,3162 l1012,0 l0,727 l-1012,0 z" fill="#7800ff" stroke="black" stroke-width="5"/>
<path d="M4098,3894 l2173,0 l0,1764 l-2173,0 z" fill="#aa00ff" stroke="black" stroke-width="5"/>
<path d="M1845,6615 l2973,0 l0,1333 l-2973,0 z" fill="#ff00fe" stroke="black" stroke-width="5"/>
<path d="M7030,8200 l2938,0 l0,430 l-2938,0 z" fill="#4300ff" stroke="black" stroke-width="5"/>
<path d="M10,3563 l1435,0 l0,177 l-1435,0 z" fill="#fe00ff" stroke="black" stroke-width="5"/>
<path d="M11,6898 l940,0 l0,689 l-940,0 z" fill="#fe00ff" stroke="black" stroke-width="5"/>
<path d="M3,3741 l2063,0 l0,837 l-2063,0 z" fill="#fd00ff" stroke="black" stroke-width="5"/>
<path d="M7997,6516 l1141,0 l0,1068 l-1141,0 z" fill="#fe00ff" stroke="black" stroke-width="5"/>
<path d="M4320,5659 l691,0 l0,956 l-691,0 z" fill="#ff00fe" stroke="black" stroke-width="5"/>
<path d="M1118,2701 l3515,0 l0,767 l-3515,0 z" fill="#ff00fe" stroke="black" stroke-width="5"/>
<path d="M4685,2428 l720,0 l0,1453 l-720,0 z" fill="#ff00fe" stroke="black" stroke-width="5"/>
<path d="M9,963 l2867,0 l0,1374 l-2867,0 z" fill="#9300ff" stroke="black" stroke-width="5"/>
<path d="M622,7952 l3005,0 l0,824 l-3005,0 z" fill="#3d00ff" stroke="black" stroke-width="5"/>
<path d="M4838,8506 l1952,0 l0,1494 l-1952,0 z" fill="#d800ff" stroke="black" stroke-width="5"/>
<path d="M7316,8631 l1228,0 l0,854 l-1228,0 z" fill="#3800ff" stroke="black" stroke-width="5"/>
<path d="M2189,9083 l116,0 l0,207 l-116,0 z" fill="#ff00fe" stroke="black" stroke-width="5"/>
<path d="M4312,6176 l1,0 l0,1 l-1,0 z" fill="#0000ff" stroke="black" stroke-width="5"/>
<path d="M1879,330 l60,0 l0,60 l-60,0 z" fill="green"/>
<path d="M1909,360 l-162.5,123" stroke="black" stroke-width="5"/>
<path d="M5780,7061 l60,0 l0,60 l-60,0 z" fill="green"/>
<path d="M5810,7091 l699,-640.5" stroke="black" stroke-width="5"/>
<path d="M5377,392 l60,0 l0,60 l-60,0 z" fill="green"/>
<path d="M5407,422 l-145,-136" stroke="black" stroke-width="5"/>
<path d="M5737,3110 l60,0 l0,60 l-60,0 z" fill="green"/>
<path d="M5767,3140 l-119,-822" stroke="black" stroke-width="5"/>
<path d="M6629,3204 l60,0 l0,60 l-60,0 z" fill="green"/>
<path d="M6659,3234 l96,-288" stroke="black" stroke-width="5"/>
<path d="M4176,1590 l60,0 l0,60 l-60,0 z" fill="green"/>
<path d="M4206,1620 l27.5,-126" stroke="black" stroke-width="5"/>
<path d="M7823,9462 l60,0 l0,60 l-60,0 z" fill="green"/>
<path d="M7853,9492 l-110.5,251.5" stroke="black" stroke-width="5"/>
<path d="M7845,402 l60,0 l0,60 l-60,0 z" fill="green"/>
<path d="M7875,432 l-381,-99" stroke="black" stroke-width="5"/>
<path d="M9018,5029 l60,0 l0,60 l-60,0 z" fill="green"/>
<path d="M9048,5059 l-49.5,239.5" stroke="black" stroke-width="5"/>
<path d="M7262,9040 l60,0 l0,60 l-60,0 z" fill="green"/>
<path d="M7292,9070 l-241,102" stroke="black" stroke-width="5"/>
<path d="M7603,2466 l60,0 l0,60 l-60,0 z" fill="green"/>
<path d="M7633,2496 l-37,-59.5" stroke="black" stroke-width="5"/>
<path d="M391,4805 l60,0 l0,60 l-60,0 z" fill="green"/>
<path d="M421,4835 l325.5,353" stroke="black" stroke-width="5"/>
<path d="M7134,4079 l60,0 l0,60 l-60,0 z" fill="green"/>
<path d="M7164,4109 l-19,-450.5" stroke="black" stroke-width="5"/>
<path d="M5326,2241 l60,0 l0,60 l-60,0 z" fill="green"/>
<path d="M5356,2271 l-119.5,-121.5" stroke="black" stroke-width="5"/>
<path d="M5231,547 l60,0 l0,60 l-60,0 z" fill="green"/>
<path d="M5261,577 l202.5,443.5" stroke="black" stroke-width="5"/>
<path d="M3516,5195 l60,0 l0,60 l-60,0 z" fill="green"/>
<path d="M3546,5225 l-208,208" stroke="black" stroke-width="5"/>
<path d="M4637,3356 l60,0 l0,60 l-60,0 z" fill="green"/>
<path d="M4667,3386 l-11.5,-268.5" stroke="black" stroke-width="5"/>
<path d="M5566,7866 l60,0 l0,60 l-60,0 z" fill="green"/>
<path d="M5596,7896 l333.5,-23.5" stroke="black" stroke-width="5"/>
<path d="M2488,9783 l60,0 l0,60 l-60,0 z" fill="green"/>
<path d="M2518,9813 l-777,-73.5" stroke="black" stroke-width="5"/>
<path d="M8972,3883 l60,0 l0,60 l-60,0 z" fill="green"/>
<path d="M9002,3913 l-339,-187" stroke="black" stroke-width="5"/>
<path d="M8544,8917 l60,0 l0,60 l-60,0 z" fill="green"/>
<path d="M8574,8947 l525.5,186" stroke="black" stroke-width="5"/>
<path d="M3088,1743 l60,0 l0,60 l-60,0 z" fill="green"/>
<path d="M3118,1773 l113,-81" stroke="black" stroke-width="5"/>
<path d="M7110,4358 l60,0 l0,60 l-60,0 z" fill="green"/>
<path d="M7140,4388 l-185,490" stroke="black" stroke-width="5"/>
<path d="M8514,8166 l60,0 l0,60 l-60,0 z" fill="green"/>
<path d="M8544,8196 l-28,-294.5" stroke="black" stroke-width="5"/>
<path d="M8547,4307 l60,0 l0,60 l-60,0 z" fill="green"/>
<path d="M8577,4337 l462.5,1.5" stroke="black" stroke-width="5"/>
<path d="M3125,9138 l60,0 l0,60 l-60,0 z" fill="green"/>
<path d="M3155,9168 l-188,-44.5" stroke="black" stroke-width="5"/>
<path d="M7793,4374 l60,0 l0,60 l-60,0 z" fill="green"/>
<path d="M7823,4404 l37.5,-27.5" stroke="black" stroke-width="5"/>
<path d="M9421,80 l60,0 l0,60 l-60,0 z" fill="green"/>
<path d="M9451,110 l-515,43.5" stroke="black" stroke-width="5"/>
<path d="M7001,1359 l60,0 l0,60 l-60,0 z" fill="green"/>
<path d="M7031,1389 l-110,-15.5" stroke="black" stroke-width="5"/>
<path d="M1811,2307 l60,0 l0,60 l-60,0 z" fill="green"/>
<path d="M1841,2337 l-433.5,173.5" stroke="black" stroke-width="5"/>
<path d="M46,8334 l60,0 l0,60 l-60,0 z" fill="green"/>
<path d="M76,8364 l241.5,-164" stroke="black" stroke-width="5"/>
<path d="M3513,3901 l60,0 l0,60 l-60,0 z" fill="green"/>
<path d="M3543,3931 l-453.5,206.5" stroke="black" stroke-width="5"/>
<path d="M3897,8798 l60,0 l0,60 l-60,0 z" fill="green"/>
<path d="M3927,8828 l305.5,143.5" stroke="black" stroke-width="5"/>
<path d="M5641,3275 l60,0 l0,60 l-60,0 z" fill="green"/>
<path d="M5671,3305 l252,220.5" stroke="black" stroke-width="5"/>
<path d="M5512,4557 l60,0 l0,60 l-60,0 z" fill="green"/>
<path d="M5542,4587 l-357.5,189" stroke="black" stroke-width="5"/>
<path d="M4000,7702 l60,0 l0,60 l-60,0 z" fill="green"/>
<path d="M4030,7732 l-698.5,-450.5" stroke="black" stroke-width="5"/>
<path d="M8545,8170 l60,0 l0,60 l-60,0 z" fill="green"/>
<path d="M8575,8200 l-76,215" stroke="black" stroke-width="5"/>
<path d="M1109,3709 l60,0 l0,60 l-60,0 z" fill="green"/>
<path d="M1139,3739 l-411.5,-87.5" stroke="black" stroke-width="5"/>
<path d="M20,7385 l60,0 l0,60 l-60,0 z" fill="green"/>
<path d="M50,7415 l431,-172.5" stroke="black" stroke-width="5"/>
<path d="M904,4026 l60,0 l0,60 l-60,0 z" fill="green"/>
<path d="M934,4056 l100.5,103.5" stroke="black" stroke-width="5"/>
<path d="M8771,7148 l60,0 l0,60 l-60,0 z" fill="green"/>
<path d="M8801,7178 l-233.5,-128" stroke="black" stroke-width="5"/>
<path d="M4469,6177 l60,0 l0,60 l-60,0 z" fill="green"/>
<path d="M4499,6207 l166.5,-70" stroke="black" stroke-width="5"/>
<path d="M3066,3345 l60,0 l0,60 l-60,0 z" fill="green"/>
<path d="M3096,3375 l-220.5,-290.5" stroke="black" stroke-width="5"/>
<path d="M5222,3251 l60,0 l0,60 l-60,0 z" fill="green"/>
<path d="M5252,3281 l-207,-126.5" stroke="black" stroke-width="5"/>
<path d="M2217,1416 l60,0 l0,60 l-60,0 z" fill="green"/>
<path d="M2247,1446 l-804.5,204" stroke="black" stroke-width="5"/>
<path d="M3317,8471 l60,0 l0,60 l-60,0 z" fill="green"/>
<path d="M3347,8501 l-1222.5,-137" stroke="black" stroke-width="5"/>
<path d="M5761,8570 l60,0 l0,60 l-60,0 z" fill="green"/>
<path d="M5791,8600 l23,653" stroke="black" stroke-width="5"/>
<path d="M8003,8962 l60,0 l0,60 l-60,0 z" fill="green"/>
<path d="M8033,8992 l-103,66" stroke="black" stroke-width="5"/>
<path d="M2267,9224 l60,0 l0,60 l-60,0 z" fill="green"/>
<path d="M2297,9254 l-50,-67.5" stroke="black" stroke-width="5"/>
<path d="M4282,6146 l60,0 l0,60 l-60,0 z" fill="green"/>
<path d="M4312,6176 l0.5,0.5" stroke="black" stroke-width="5"/>
<text font-size="200" text-anchor="middle" x="1746.5" y="553">
0
</text>
<text font-size="200" text-anchor="middle" x="6509" y="6520.5">
1
</text>
<text font-size="200" text-anchor="middle" x="5262" y="356">
2
</text>
<text font-size="200" text-anchor="middle" x="5648" y="2388">
3
</text>
<text font-size="200" text-anchor="middle" x="6755" y="3016">
4
</text>
<text font-size="200" text-anchor="middle" x="4233.5" y="1564">
5
</text>
<text font-size="200" text-anchor="middle" x="7742.5" y="9813.5">
6
</text>
<text font-size="200" text-anchor="middle" x="7494" y="403">
7
</text>
<text font-size="200" text-anchor="middle" x="8998.5" y="5368.5">
8
</text>
<text font-size="200" text-anchor="middle" x="7051" y="9242">
9
</text>
<text font-size="200" text-anchor="middle" x="7596" y="2506.5">
10
</text>
<text font-size="200" text-anchor="middle" x="746.5" y="5258">
11
</text>
<text font-size="200" text-anchor="middle" x="7145" y="3728.5">
12
</text>
<text font-size="200" text-anchor="middle" x="5236.5" y="2219.5">
13
</text>
<text font-size="200" text-anchor="middle" x="5463.5" y="1090.5">
14
</text>
<text font-size="200" text-anchor="middle" x="3338" y="5503">
15
</text>
<text font-size="200" text-anchor="middle" x="4655.5" y="3187.5">
16
</text>
<text font-size="200" text-anchor="middle" x="5929.5" y="7942.5">
17
</text>
<text font-size="200" text-anchor="middle" x="1741" y="9809.5">
18
</text>
<text font-size="200" text-anchor="middle" x="8663" y="3796">
19
</text>
<text font-size="200" text-anchor="middle" x="9099.5" y="9203">
20
</text>
<text font-size="200" text-anchor="middle" x="3231" y="1762">
21
</text>
<text font-size="200" text-anchor="middle" x="6955" y="4948">
22
</text>
<text font-size="200" text-anchor="middle" x="8516" y="7971.5">
23
</text>
<text font-size="200" text-anchor="middle" x="9039.5" y="4408.5">
24
</text>
<text font-size="200" text-anchor="middle" x="2967" y="9193.5">
25
</text>
<text font-size="200" text-anchor="middle" x="7860.5" y="4446.5">
26
</text>
<text font-size="200" text-anchor="middle" x="8936" y="223.5">
27
</text>
<text font-size="200" text-anchor="middle" x="6921" y="1443.5">
28
</text>
<text font-size="200" text-anchor="middle" x="1407.5" y="2580.5">
29
</text>
<text font-size="200" text-anchor="middle" x="317.5" y="8270">
30
</text>
<text font-size="200" text-anchor="middle" x="3089.5" y="4207.5">
31
</text>
<text font-size="200" text-anchor="middle" x="4232.5" y="9041.5">
32
</text>
<text font-size="200" text-anchor="middle" x="5923" y="3595.5">
33
</text>
<text font-size="200" text-anchor="middle" x="5184.5" y="4846">
34
</text>
<text font-size="200" text-anchor="middle" x="3331.5" y="7351.5">
35
</text>
<text font-size="200" text-anchor="middle" x="8499" y="8485">
36
</text>
<text font-size="200" text-anchor="middle" x="727.5" y="3721.5">
37
</text>
<text font-size="200" text-anchor="middle" x="481" y="7312.5">
38
</text>
<text font-size="200" text-anchor="middle" x="1034.5" y="4229.5">
39
</text>
<text font-size="200" text-anchor="middle" x="8567.5" y="7120">
40
</text>
<text font-size="200" text-anchor="middle" x="4665.5" y="6207">
41
</text>
<text font-size="200" text-anchor="middle" x="2875.5" y="3154.5">
42
</text>
<text font-size="200" text-anchor="middle" x="5045" y="3224.5">
43
</text>
<text font-size="200" text-anchor="middle" x="1442.5" y="1720">
44
</text>
<text font-size="200" text-anchor="middle" x="2124.5" y="8434">
45
</text>
<text font-size="200" text-anchor="middle" x="5814" y="9323">
46
</text>
<text font-size="200" text-anchor="middle" x="7930" y="9128">
47
</text>
<text font-size="200" text-anchor="middle" x="2247" y="9256.5">
48
</text>
<text font-size="200" text-anchor="middle" x="4312.5" y="6246.5">
49
</text>
</svg>