<svg viewBox="-100 -100 10200 10200" xmlns="http://www.w3.org/2000/svg">
<path d="M0,0 l10000,0 l0,10000 l-10000,0 z" fill="white"/>
<path d="M11,2 l3520,0 l0,1032 l-3520,0 z" fill="#9800ff" stroke="black" stroke-width="5"/>
<path d="M5035,5660 l2948,0 l0,1581 l-2948,0 z" fill="#fe00ff" stroke="black" stroke-width="5"/>
<path d="M3564,1 l3536,0 l0,568 l-3536,0 z" fill="#fe00ff" stroke="black" stroke-width="5"/>
<path d="M5473,1518 l420,0 l0,1623 l-420,0 z" fill="#ff00fe" stroke="black" stroke-width="5"/>
<path d="M6423,2226 l606,0 l0,1519 l-606,0 z" fill="#fe00ff" stroke="black" stroke-width="5"/>
<path d="M3559,572 l1349,0 l0,1844 l-1349,0 z" fill="#ff00fe" stroke="black" stroke-width="5"/>
<path d="M7304,9492 l887,0 l0,496 l-887,0 z" fill="#fe00ff" stroke="black" stroke-width="5"/>
<path d="M7103,85 l884,0 l0,663 l-884,0 z" fill="#fe00ff" stroke="black" stroke-width="5"/>
<path d="M8154,4805 l1802,0 l0,1002 l-1802,0 z" fill="#ff00fe" stroke="black" stroke-width="5"/>
<path d="M6849,8660 l448,0 l0,1137 l-448,0 z" fill="#ff00fe" stroke="black" stroke-width="5"/>
<path d="M7066,1536 l892,0 l0,1750 l-892,0 z" fill="#ff00fe" stroke="black" stroke-width="5"/>
<path d="M4,4579 l1485,0 l0,1218 l-1485,0 z" fill="#fe00ff" stroke="black" stroke-width="5"/>
<path d="M7135,3359 l46,0 l0,751 l-46,0 z" fill="#fe00ff" stroke="black" stroke-width="5"/>
<path d="M5214,1833 l146,0 l0,538 l-146,0 z" fill="#ff00fe" stroke="black" stroke-width="5"/>
<path d="M4914,577 l1104,0 l0,880 l-1104,0 z" fill="#ff00fe" stroke="black" stroke-width="5"/>
<path d="M2509,4869 l1569,0 l0,1193 l-1569,0 z" fill="#fe00ff" stroke="black" stroke-width="5"/>
<path d="M4644,2417 l24,0 l0,1177 l-24,0 z" fill="#fe00ff" stroke="black" stroke-width="5"/>
<path d="M4828,7246 l2193,0 l0,1290 l-2193,0 z" fill="#f100ff" stroke="black" stroke-width="5"/>
<path d="M4,9505 l3515,0 l0,495 l-3515,0 z" fill="#ff00fe" stroke="black" stroke-width="5"/>
<path d="M8296,3545 l907,0 l0,369 l-907,0 z" fill="#ff00fe" stroke="black" stroke-width="5"/>
<path d="M8568,8710 l1095,0 l0,1011 l-1095,0 z" fill="#fe00ff" stroke="black" stroke-width="5"/>
<path d="M3025,1044 l514,0 l0,1303 l-514,0 z" fill="#fe00ff" stroke="black" stroke-width="5"/>
<path d="M6274,4112 l1372,0 l0,1529 l-1372,0 z" fill="#fe00ff" stroke="black" stroke-width="5"/>
<path d="M7047,7604 l2939,0 l0,593 l-2939,0 z" fill="#ff00fe" stroke="black" stroke-width="5"/>
<path d="M8147,3914 l1852,0 l0,887 l-1852,0 z" fill="#4d00ff" stroke="black" stroke-width="5"/>
<path d="M2300,8771 l1302,0 l0,724 l-1302,0 z" fill="#fe00ff" stroke="black" stroke-width="5"/>
<path d="M7656,3527 l484,0 l0,1955 l-484,0 z" fill="#ff00fe" stroke="black" stroke-width="5"/>
<path d="M8014,110 l1969,0 l0,288 l-1969,0 z" fill="#fe00ff" stroke="black" stroke-width="5"/>
<path d="M6027,1106 l1858,0 l0,424 l-1858,0 z" fill="#ff00fe" stroke="black" stroke-width="5"/>
<path d="M125,2337 l2700,0 l0,349 l-2700,0 z" fill="#ff00fe" stroke="black" stroke-width="5"/>
<path d="M12,7591 l618,0 l0,1149 l-618,0 z" fill="#fe00ff" stroke="black" stroke-width="5"/>
<path d="M2006,3449 l2097,0 l0,1417 l-2097,0 z" fill="#e000ff" stroke="black" stroke-width="5"/>
<path d="M3617,7942 l1191,0 l0,2042 l-1191,0 z" fill="#ed00ff" stroke="black" stroke-width="5"/>
<path d="M5398,3143 l1023,0 l0,752 l-1023,0 z" fill="#8100ff" stroke="black" stroke-width="5"/>
<path d="M4104,3902 l2151,0 l0,1750 l-2151,0 z" fill="#a600ff" stroke="black" stroke-width="5"/>
<path d="M1773,6624 l3053,0 l0,1298 l-3053,0 z" fill="#ff00fe" stroke="black" stroke-width="5"/>
<path d="M7030,8200 l2965,0 l0,459 l-2965,0 z" fill="#4d00ff" stroke="black" stroke-width="5"/>
<path d="M112,3562 l1397,0 l0,181 l-1397,0 z" fill="#fe00ff" stroke="black" stroke-width="5"/>
<path d="M50,6817 l874,0 l0,741 l-874,0 z" fill="#fe00ff" stroke="black" stroke-width="5"/>
<path d="M2,3744 l2004,0 l0,832 l-2004,0 z" fill="#fb00ff" stroke="black" stroke-width="5"/>
<path d="M7998,6468 l1121,0 l0,1087 l-1121,0 z" fill="#fe00ff" stroke="black" stroke-width="5"/>
<path d="M4320,5659 l691,0 l0,956 l-691,0 z" fill="#ff00fe" stroke="black" stroke-width="5"/>
<path d="M1030,2694 l3610,0 l0,747 l-3610,0 z" fill="#ff00fe" stroke="black" stroke-width="5"/>
<path d="M4669,2424 l711,0 l0,1472 l-711,0 z" fill="#ff00fe" stroke="black" stroke-width="5"/>
<path d="M0,1055 l3003,0 l0,1279 l-3003,0 z" fill="#8e00ff" stroke="black" stroke-width="5"/>
<path d="M640,7928 l2977,0 l0,843 l-2977,0 z" fill="#3f00ff" stroke="black" stroke-width="5"/>
<path d="M4818,8542 l2004,0 l0,1449 l-2004,0 z" fill="#d700ff" stroke="black" stroke-width="5"/>
<path d="M7300,8660 l1244,0 l0,824 l-1244,0 z" fill="#3600ff" stroke="black" stroke-width="5"/>
<path d="M2203,9020 l95,0 l0,250 l-95,0 z" fill="#fe00ff" stroke="black" stroke-width="5"/>
<path d="M4312,6176 l1,0 l0,1 l-1,0 z" fill="#0000ff" stroke="black" stroke-width="5"/>
<path d="M1879,330 l60,0 l0,60 l-60,0 z" fill="green"/>
<path d="M1909,360 l-138,158" stroke="black" stroke-width="5"/>
<path d="M5780,7061 l60,0 l0,60 l-60,0 z" fill="green"/>
<path d="M5810,7091 l699,-640.5" stroke="black" stroke-width="5"/>
<path d="M5377,392 l60,0 l0,60 l-60,0 z" fill="green"/>
<path d="M5407,422 l-75,-137" stroke="black" stroke-width="5"/>
<path d="M5737,3110 l60,0 l0,60 l-60,0 z" fill="green"/>
<path d="M5767,3140 l-84,-810.5" stroke="black" stroke-width="5"/>
<path d="M6629,3204 l60,0 l0,60 l-60,0 z" fill="green"/>
<path d="M6659,3234 l67,-248.5" stroke="black" stroke-width="5"/>
<path d="M4176,1590 l60,0 l0,60 l-60,0 z" fill="green"/>
<path d="M4206,1620 l27.5,-126" stroke="black" stroke-width="5"/>
<path d="M7823,9462 l60,0 l0,60 l-60,0 z" fill="green"/>
<path d="M7853,9492 l-105.5,248" stroke="black" stroke-width="5"/>
<path d="M7845,402 l60,0 l0,60 l-60,0 z" fill="green"/>
<path d="M7875,432 l-330,-15.5" stroke="black" stroke-width="5"/>
<path d="M9018,5029 l60,0 l0,60 l-60,0 z" fill="green"/>
<path d="M9048,5059 l7,247" stroke="black" stroke-width="5"/>
<path d="M7262,9040 l60,0 l0,60 l-60,0 z" fill="green"/>
<path d="M7292,9070 l-219,158.5" stroke="black" stroke-width="5"/>
<path d="M7603,2466 l60,0 l0,60 l-60,0 z" fill="green"/>
<path d="M7633,2496 l-121,-85" stroke="black" stroke-width="5"/>
<path d="M391,4805 l60,0 l0,60 l-60,0 z" fill="green"/>
<path d="M421,4835 l325.5,353" stroke="black" stroke-width="5"/>
<path d="M7134,4079 l60,0 l0,60 l-60,0 z" fill="green"/>
<path d="M7164,4109 l-6,-374.5" stroke="black" stroke-width="5"/>
<path d="M5326,2241 l60,0 l0,60 l-60,0 z" fill="green"/>
<path d="M5356,2271 l-69,-169" stroke="black" stroke-width="5"/>
<path d="M5231,547 l60,0 l0,60 l-60,0 z" fill="green"/>
<path d="M5261,577 l205,440" stroke="black" stroke-width="5"/>
<path d="M3516,5195 l60,0 l0,60 l-60,0 z" fill="green"/>
<path d="M3546,5225 l-252.5,240.5" stroke="black" stroke-width="5"/>
<path d="M4637,3356 l60,0 l0,60 l-60,0 z" fill="green"/>
<path d="M4667,3386 l-11,-380.5" stroke="black" stroke-width="5"/>
<path d="M5566,7866 l60,0 l0,60 l-60,0 z" fill="green"/>
<path d="M5596,7896 l328.5,-5" stroke="black" stroke-width="5"/>
<path d="M2488,9783 l60,0 l0,60 l-60,0 z" fill="green"/>
<path d="M2518,9813 l-756.5,-60.5" stroke="black" stroke-width="5"/>
<path d="M8972,3883 l60,0 l0,60 l-60,0 z" fill="green"/>
<path d="M9002,3913 l-252.5,-183.5" stroke="black" stroke-width="5"/>
<path d="M8544,8917 l60,0 l0,60 l-60,0 z" fill="green"/>
<path d="M8574,8947 l541.5,268.5" stroke="black" stroke-width="5"/>
<path d="M3088,1743 l60,0 l0,60 l-60,0 z" fill="green"/>
<path d="M3118,1773 l164,-77.5" stroke="black" stroke-width="5"/>
<path d="M7110,4358 l60,0 l0,60 l-60,0 z" fill="green"/>
<path d="M7140,4388 l-180,488.5" stroke="black" stroke-width="5"/>
<path d="M8514,8166 l60,0 l0,60 l-60,0 z" fill="green"/>
<path d="M8544,8196 l-27.5,-295.5" stroke="black" stroke-width="5"/>
<path d="M8547,4307 l60,0 l0,60 l-60,0 z" fill="green"/>
<path d="M8577,4337 l496,20.5" stroke="black" stroke-width="5"/>
<path d="M3125,9138 l60,0 l0,60 l-60,0 z" fill="green"/>
<path d="M3155,9168 l-204,-35" stroke="black" stroke-width="5"/>
<path d="M7793,4374 l60,0 l0,60 l-60,0 z" fill="green"/>
<path d="M7823,4404 l75,100.5" stroke="black" stroke-width="5"/>
<path d="M9421,80 l60,0 l0,60 l-60,0 z" fill="green"/>
<path d="M9451,110 l-452.5,144" stroke="black" stroke-width="5"/>
<path d="M7001,1359 l60,0 l0,60 l-60,0 z" fill="green"/>
<path d="M7031,1389 l-75,-71" stroke="black" stroke-width="5"/>
<path d="M1811,2307 l60,0 l0,60 l-60,0 z" fill="green"/>
<path d="M1841,2337 l-366,174.5" stroke="black" stroke-width="5"/>
<path d="M46,8334 l60,0 l0,60 l-60,0 z" fill="green"/>
<path d="M76,8364 l245,-198.5" stroke="black" stroke-width="5"/>
<path d="M3513,3901 l60,0 l0,60 l-60,0 z" fill="green"/>
<path d="M3543,3931 l-488.5,226.5" stroke="black" stroke-width="5"/>
<path d="M3897,8798 l60,0 l0,60 l-60,0 z" fill="green"/>
<path d="M3927,8828 l285.5,135" stroke="black" stroke-width="5"/>
<path d="M5641,3275 l60,0 l0,60 l-60,0 z" fill="green"/>
<path d="M5671,3305 l238.5,214" stroke="black" stroke-width="5"/>
<path d="M5512,4557 l60,0 l0,60 l-60,0 z" fill="green"/>
<path d="M5542,4587 l-362.5,190" stroke="black" stroke-width="5"/>
<path d="M4000,7702 l60,0 l0,60 l-60,0 z" fill="green"/>
<path d="M4030,7732 l-730.5,-459" stroke="black" stroke-width="5"/>
<path d="M8545,8170 l60,0 l0,60 l-60,0 z" fill="green"/>
<path d="M8575,8200 l-62.5,229.5" stroke="black" stroke-width="5"/>
<path d="M1109,3709 l60,0 l0,60 l-60,0 z" fill="green"/>
<path d="M1139,3739 l-328.5,-86.5" stroke="black" stroke-width="5"/>
<path d="M20,7385 l60,0 l0,60 l-60,0 z" fill="green"/>
<path d="M50,7415 l437,-227.5" stroke="black" stroke-width="5"/>
<path d="M904,4026 l60,0 l0,60 l-60,0 z" fill="green"/>
<path d="M934,4056 l70,104" stroke="black" stroke-width="5"/>
<path d="M8771,7148 l60,0 l0,60 l-60,0 z" fill="green"/>
<path d="M8801,7178 l-242.5,-166.5" stroke="black" stroke-width="5"/>
<path d="M4469,6177 l60,0 l0,60 l-60,0 z" fill="green"/>
<path d="M4499,6207 l166.5,-70" stroke="black" stroke-width="5"/>
<path d="M3066,3345 l60,0 l0,60 l-60,0 z" fill="green"/>
<path d="M3096,3375 l-261,-307.5" stroke="black" stroke-width="5"/>
<path d="M5222,3251 l60,0 l0,60 l-60,0 z" fill="green"/>
<path d="M5252,3281 l-227.5,-121" stroke="black" stroke-width="5"/>
<path d="M2217,1416 l60,0 l0,60 l-60,0 z" fill="green"/>
<path d="M2247,1446 l-745.5,248.5" stroke="black" stroke-width="5"/>
<path d="M3317,8471 l60,0 l0,60 l-60,0 z" fill="green"/>
<path d="M3347,8501 l-1218.5,-151.5" stroke="black" stroke-width="5"/>
<path d="M5761,8570 l60,0 l0,60 l-60,0 z" fill="green"/>
<path d="M5791,8600 l29,666.5" stroke="black" stroke-width="5"/>
<path d="M8003,8962 l60,0 l0,60 l-60,0 z" fill="green"/>
<path d="M8033,8992 l-111,80" stroke="black" stroke-width="5"/>
<path d="M2267,9224 l60,0 l0,60 l-60,0 z" fill="green"/>
<path d="M2297,9254 l-46.5,-109" stroke="black" stroke-width="5"/>
<path d="M4282,6146 l60,0 l0,60 l-60,0 z" fill="green"/>
<path d="M4312,6176 l0.5,0.5" stroke="black" stroke-width="5"/>
<text font-size="200" text-anchor="middle" x="1771" y="588">
0
</text>
<text font-size="200" text-anchor="middle" x="6509" y="6520.5">
1
</text>
<text font-size="200" text-anchor="middle" x="5332" y="355">
2
</text>
<text font-size="200" text-anchor="middle" x="5683" y="2399.5">
3
</text>
<text font-size="200" text-anchor="middle" x="6726" y="3055.5">
4
</text>
<text font-size="200" text-anchor="middle" x="4233.5" y="1564">
5
</text>
<text font-size="200" text-anchor="middle" x="7747.5" y="9810">
6
</text>
<text font-size="200" text-anchor="middle" x="7545" y="486.5">
7
</text>
<text font-size="200" text-anchor="middle" x="9055" y="5376">
8
</text>
<text font-size="200" text-anchor="middle" x="7073" y="9298.5">
9
</text>
<text font-size="200" text-anchor="middle" x="7512" y="2481">
10
</text>
<text font-size="200" text-anchor="middle" x="746.5" y="5258">
11
</text>
<text font-size="200" text-anchor="middle" x="7158" y="3804.5">
12
</text>
<text font-size="200" text-anchor="middle" x="5287" y="2172">
13
</text>
<text font-size="200" text-anchor="middle" x="5466" y="1087">
14
</text>
<text font-size="200" text-anchor="middle" x="3293.5" y="5535.5">
15
</text>
<text font-size="200" text-anchor="middle" x="4656" y="3075.5">
16
</text>
<text font-size="200" text-anchor="middle" x="5924.5" y="7961">
17
</text>
<text font-size="200" text-anchor="middle" x="1761.5" y="9822.5">
18
</text>
<text font-size="200" text-anchor="middle" x="8749.5" y="3799.5">
19
</text>
<text font-size="200" text-anchor="middle" x="9115.5" y="9285.5">
20
</text>
<text font-size="200" text-anchor="middle" x="3282" y="1765.5">
21
</text>
<text font-size="200" text-anchor="middle" x="6960" y="4946.5">
22
</text>
<text font-size="200" text-anchor="middle" x="8516.5" y="7970.5">
23
</text>
<text font-size="200" text-anchor="middle" x="9073" y="4427.5">
24
</text>
<text font-size="200" text-anchor="middle" x="2951" y="9203">
25
</text>
<text font-size="200" text-anchor="middle" x="7898" y="4574.5">
26
</text>
<text font-size="200" text-anchor="middle" x="8998.5" y="324">
27
</text>
<text font-size="200" text-anchor="middle" x="6956" y="1388">
28
</text>
<text font-size="200" text-anchor="middle" x="1475" y="2581.5">
29
</text>
<text font-size="200" text-anchor="middle" x="321" y="8235.5">
30
</text>
<text font-size="200" text-anchor="middle" x="3054.5" y="4227.5">
31
</text>
<text font-size="200" text-anchor="middle" x="4212.5" y="9033">
32
</text>
<text font-size="200" text-anchor="middle" x="5909.5" y="3589">
33
</text>
<text font-size="200" text-anchor="middle" x="5179.5" y="4847">
34
</text>
<text font-size="200" text-anchor="middle" x="3299.5" y="7343">
35
</text>
<text font-size="200" text-anchor="middle" x="8512.5" y="8499.5">
36
</text>
<text font-size="200" text-anchor="middle" x="810.5" y="3722.5">
37
</text>
<text font-size="200" text-anchor="middle" x="487" y="7257.5">
38
</text>
<text font-size="200" text-anchor="middle" x="1004" y="4230">
39
</text>
<text font-size="200" text-anchor="middle" x="8558.5" y="7081.5">
40
</text>
<text font-size="200" text-anchor="middle" x="4665.5" y="6207">
41
</text>
<text font-size="200" text-anchor="middle" x="2835" y="3137.5">
42
</text>
<text font-size="200" text-anchor="middle" x="5024.5" y="3230">
43
</text>
<text font-size="200" text-anchor="middle" x="1501.5" y="1764.5">
44
</text>
<text font-size="200" text-anchor="middle" x="2128.5" y="8419.5">
45
</text>
<text font-size="200" text-anchor="middle" x="5820" y="9336.5">
46
</text>
<text font-size="200" text-anchor="middle" x="7922" y="9142">
47
</text>
<text font-size="200" text-anchor="middle" x="2250.5" y="9215">
48
</text>
<text font-size="200" text-anchor="middle" x="4312.5" y="6246.5">
49
</text>
</svg>