<svg viewBox="-100 -100 10200 10200" xmlns="http://www.w3.org/2000/svg">
<path d="M0,0 l10000,0 l0,10000 l-10000,0 z" fill="white"/>
<path d="M146,1 l3371,0 l0,794 l-3371,0 z" fill="#5d00ff" stroke="black" stroke-width="5"/>
<path d="M5089,5641 l3017,0 l0,1545 l-3017,0 z" fill="#fe00ff" stroke="black" stroke-width="5"/>
<path d="M3751,3 l3696,0 l0,543 l-3696,0 z" fill="#fe00ff" stroke="black" stroke-width="5"/>
<path d="M5506,1666 l462,0 l0,1475 l-462,0 z" fill="#fe00ff" stroke="black" stroke-width="5"/>
<path d="M6585,2306 l575,0 l0,1601 l-575,0 z" fill="#fe00ff" stroke="black" stroke-width="5"/>
<path d="M3519,549 l1398,0 l0,1779 l-1398,0 z" fill="#fe00ff" stroke="black" stroke-width="5"/>
<path d="M7373,9492 l993,0 l0,444 l-993,0 z" fill="#ff00fe" stroke="black" stroke-width="5"/>
<path d="M7492,70 l776,0 l0,755 l-776,0 z" fill="#fe00ff" stroke="black" stroke-width="5"/>
<path d="M8207,4907 l1770,0 l0,1020 l-1770,0 z" fill="#fe00ff" stroke="black" stroke-width="5"/>
<path d="M6840,8813 l453,0 l0,1124 l-453,0 z" fill="#fe00ff" stroke="black" stroke-width="5"/>
<path d="M7240,1409 l985,0 l0,1582 l-985,0 z" fill="#fe00ff" stroke="black" stroke-width="5"/>
<path d="M23,4783 l1558,0 l0,1161 l-1558,0 z" fill="#ff00fe" stroke="black" stroke-width="5"/>
<path d="M7164,1626 l14,0 l0,2485 l-14,0 z" fill="#fe00ff" stroke="black" stroke-width="5"/>
<path d="M5345,1729 l136,0 l0,575 l-136,0 z" fill="#fe00ff" stroke="black" stroke-width="5"/>
<path d="M4960,557 l888,0 l0,1094 l-888,0 z" fill="#ff00fe" stroke="black" stroke-width="5"/>
<path d="M2087,5225 l1952,0 l0,959 l-1952,0 z" fill="#fe00ff" stroke="black" stroke-width="5"/>
<path d="M4667,2371 l20,0 l0,1369 l-20,0 z" fill="#fd00ff" stroke="black" stroke-width="5"/>
<path d="M4889,7188 l2185,0 l0,1343 l-2185,0 z" fill="#f600ff" stroke="black" stroke-width="5"/>
<path d="M15,9492 l3463,0 l0,502 l-3463,0 z" fill="#fe00ff" stroke="black" stroke-width="5"/>
<path d="M8173,3526 l862,0 l0,388 l-862,0 z" fill="#fe00ff" stroke="black" stroke-width="5"/>
<path d="M8574,8833 l1310,0 l0,843 l-1310,0 z" fill="#fe00ff" stroke="black" stroke-width="5"/>
<path d="M3101,800 l418,0 l0,1535 l-418,0 z" fill="#fd00ff" stroke="black" stroke-width="5"/>
<path d="M6345,4118 l1408,0 l0,1490 l-1408,0 z" fill="#fe00ff" stroke="black" stroke-width="5"/>
<path d="M7096,7580 l2824,0 l0,617 l-2824,0 z" fill="#fe00ff" stroke="black" stroke-width="5"/>
<path d="M8180,3934 l1805,0 l0,966 l-1805,0 z" fill="#5500ff" stroke="black" stroke-width="5"/>
<path d="M2304,8889 l1250,0 l0,597 l-1250,0 z" fill="#dd00ff" stroke="black" stroke-width="5"/>
<path d="M7754,3072 l412,0 l0,2299 l-412,0 z" fill="#ff00fe" stroke="black" stroke-width="5"/>
<path d="M8433,57 l1202,0 l0,474 l-1202,0 z" fill="#fe00ff" stroke="black" stroke-width="5"/>
<path d="M5887,993 l1916,0 l0,411 l-1916,0 z" fill="#fe00ff" stroke="black" stroke-width="5"/>
<path d="M290,2337 l3003,0 l0,314 l-3003,0 z" fill="#ff00fe" stroke="black" stroke-width="5"/>
<path d="M33,7454 l532,0 l0,1335 l-532,0 z" fill="#ff00fe" stroke="black" stroke-width="5"/>
<path d="M1943,3430 l2273,0 l0,1690 l-2273,0 z" fill="#ff00fe" stroke="black" stroke-width="5"/>
<path d="M3566,7780 l1321,0 l0,2212 l-1321,0 z" fill="#ff00fe" stroke="black" stroke-width="5"/>
<path d="M5405,3151 l1176,0 l0,744 l-1176,0 z" fill="#9c00ff" stroke="black" stroke-width="5"/>
<path d="M4221,3908 l2104,0 l0,1701 l-2104,0 z" fill="#9b00ff" stroke="black" stroke-width="5"/>
<path d="M1614,6549 l3240,0 l0,1223 l-3240,0 z" fill="#ff00fe" stroke="black" stroke-width="5"/>
<path d="M7077,8200 l2910,0 l0,610 l-2910,0 z" fill="#7900ff" stroke="black" stroke-width="5"/>
<path d="M443,3398 l722,0 l0,352 l-722,0 z" fill="#ff00fe" stroke="black" stroke-width="5"/>
<path d="M17,6573 l766,0 l0,852 l-766,0 z" fill="#ff00fe" stroke="black" stroke-width="5"/>
<path d="M26,3770 l1801,0 l0,1000 l-1801,0 z" fill="#ff00fe" stroke="black" stroke-width="5"/>
<path d="M8136,6317 l1121,0 l0,1087 l-1121,0 z" fill="#fe00ff" stroke="black" stroke-width="5"/>
<path d="M4314,5609 l754,0 l0,876 l-754,0 z" fill="#fe00ff" stroke="black" stroke-width="5"/>
<path d="M785,2683 l3802,0 l0,709 l-3802,0 z" fill="#fe00ff" stroke="black" stroke-width="5"/>
<path d="M4689,2340 l706,0 l0,1482 l-706,0 z" fill="#ff00fe" stroke="black" stroke-width="5"/>
<path d="M6,797 l3082,0 l0,1539 l-3082,0 z" fill="#be00ff" stroke="black" stroke-width="5"/>
<path d="M585,7778 l2975,0 l0,1107 l-2975,0 z" fill="#6600ff" stroke="black" stroke-width="5"/>
<path d="M4887,8535 l1943,0 l0,1458 l-1943,0 z" fill="#d200ff" stroke="black" stroke-width="5"/>
<path d="M7294,8810 l1266,0 l0,670 l-1266,0 z" fill="#2500ff" stroke="black" stroke-width="5"/>
<path d="M2168,9108 l130,0 l0,176 l-130,0 z" fill="#fe00ff" stroke="black" stroke-width="5"/>
<path d="M4312,6176 l1,0 l0,1 l-1,0 z" fill="#0000ff" stroke="black" stroke-width="5"/>
<path d="M1879,330 l60,0 l0,60 l-60,0 z" fill="green"/>
<path d="M1909,360 l-77.5,38" stroke="black" stroke-width="5"/>
<path d="M5780,7061 l60,0 l0,60 l-60,0 z" fill="green"/>
<path d="M5810,7091 l787.5,-677.5" stroke="black" stroke-width="5"/>
<path d="M5377,392 l60,0 l0,60 l-60,0 z" fill="green"/>
<path d="M5407,422 l192,-147.5" stroke="black" stroke-width="5"/>
<path d="M5737,3110 l60,0 l0,60 l-60,0 z" fill="green"/>
<path d="M5767,3140 l-30,-736.5" stroke="black" stroke-width="5"/>
<path d="M6629,3204 l60,0 l0,60 l-60,0 z" fill="green"/>
<path d="M6659,3234 l213.5,-127.5" stroke="black" stroke-width="5"/>
<path d="M4176,1590 l60,0 l0,60 l-60,0 z" fill="green"/>
<path d="M4206,1620 l12,-181.5" stroke="black" stroke-width="5"/>
<path d="M7823,9462 l60,0 l0,60 l-60,0 z" fill="green"/>
<path d="M7853,9492 l16.5,222" stroke="black" stroke-width="5"/>
<path d="M7845,402 l60,0 l0,60 l-60,0 z" fill="green"/>
<path d="M7875,432 l5,15.5" stroke="black" stroke-width="5"/>
<path d="M9018,5029 l60,0 l0,60 l-60,0 z" fill="green"/>
<path d="M9048,5059 l44,358" stroke="black" stroke-width="5"/>
<path d="M7262,9040 l60,0 l0,60 l-60,0 z" fill="green"/>
<path d="M7292,9070 l-225.5,305" stroke="black" stroke-width="5"/>
<path d="M7603,2466 l60,0 l0,60 l-60,0 z" fill="green"/>
<path d="M7633,2496 l99.5,-296" stroke="black" stroke-width="5"/>
<path d="M391,4805 l60,0 l0,60 l-60,0 z" fill="green"/>
<path d="M421,4835 l381,528.5" stroke="black" stroke-width="5"/>
<path d="M7134,4079 l60,0 l0,60 l-60,0 z" fill="green"/>
<path d="M7164,4109 l7,-1240.5" stroke="black" stroke-width="5"/>
<path d="M5326,2241 l60,0 l0,60 l-60,0 z" fill="green"/>
<path d="M5356,2271 l57,-254.5" stroke="black" stroke-width="5"/>
<path d="M5231,547 l60,0 l0,60 l-60,0 z" fill="green"/>
<path d="M5261,577 l143,527" stroke="black" stroke-width="5"/>
<path d="M3516,5195 l60,0 l0,60 l-60,0 z" fill="green"/>
<path d="M3546,5225 l-483,479.5" stroke="black" stroke-width="5"/>
<path d="M4637,3356 l60,0 l0,60 l-60,0 z" fill="green"/>
<path d="M4667,3386 l10,-330.5" stroke="black" stroke-width="5"/>
<path d="M5566,7866 l60,0 l0,60 l-60,0 z" fill="green"/>
<path d="M5596,7896 l385.5,-36.5" stroke="black" stroke-width="5"/>
<path d="M2488,9783 l60,0 l0,60 l-60,0 z" fill="green"/>
<path d="M2518,9813 l-771.5,-70" stroke="black" stroke-width="5"/>
<path d="M8972,3883 l60,0 l0,60 l-60,0 z" fill="green"/>
<path d="M9002,3913 l-398,-193" stroke="black" stroke-width="5"/>
<path d="M8544,8917 l60,0 l0,60 l-60,0 z" fill="green"/>
<path d="M8574,8947 l655,307.5" stroke="black" stroke-width="5"/>
<path d="M3088,1743 l60,0 l0,60 l-60,0 z" fill="green"/>
<path d="M3118,1773 l192,-205.5" stroke="black" stroke-width="5"/>
<path d="M7110,4358 l60,0 l0,60 l-60,0 z" fill="green"/>
<path d="M7140,4388 l-91,475" stroke="black" stroke-width="5"/>
<path d="M8514,8166 l60,0 l0,60 l-60,0 z" fill="green"/>
<path d="M8544,8196 l-36,-307.5" stroke="black" stroke-width="5"/>
<path d="M8547,4307 l60,0 l0,60 l-60,0 z" fill="green"/>
<path d="M8577,4337 l505.5,80" stroke="black" stroke-width="5"/>
<path d="M3125,9138 l60,0 l0,60 l-60,0 z" fill="green"/>
<path d="M3155,9168 l-226,19.5" stroke="black" stroke-width="5"/>
<path d="M7793,4374 l60,0 l0,60 l-60,0 z" fill="green"/>
<path d="M7823,4404 l137,-182.5" stroke="black" stroke-width="5"/>
<path d="M9421,80 l60,0 l0,60 l-60,0 z" fill="green"/>
<path d="M9451,110 l-417,184" stroke="black" stroke-width="5"/>
<path d="M7001,1359 l60,0 l0,60 l-60,0 z" fill="green"/>
<path d="M7031,1389 l-186,-190.5" stroke="black" stroke-width="5"/>
<path d="M1811,2307 l60,0 l0,60 l-60,0 z" fill="green"/>
<path d="M1841,2337 l-49.5,157" stroke="black" stroke-width="5"/>
<path d="M46,8334 l60,0 l0,60 l-60,0 z" fill="green"/>
<path d="M76,8364 l223,-242.5" stroke="black" stroke-width="5"/>
<path d="M3513,3901 l60,0 l0,60 l-60,0 z" fill="green"/>
<path d="M3543,3931 l-463.5,344" stroke="black" stroke-width="5"/>
<path d="M3897,8798 l60,0 l0,60 l-60,0 z" fill="green"/>
<path d="M3927,8828 l299.5,58" stroke="black" stroke-width="5"/>
<path d="M5641,3275 l60,0 l0,60 l-60,0 z" fill="green"/>
<path d="M5671,3305 l322,218" stroke="black" stroke-width="5"/>
<path d="M5512,4557 l60,0 l0,60 l-60,0 z" fill="green"/>
<path d="M5542,4587 l-269,171.5" stroke="black" stroke-width="5"/>
<path d="M4000,7702 l60,0 l0,60 l-60,0 z" fill="green"/>
<path d="M4030,7732 l-796,-571.5" stroke="black" stroke-width="5"/>
<path d="M8545,8170 l60,0 l0,60 l-60,0 z" fill="green"/>
<path d="M8575,8200 l-43,305" stroke="black" stroke-width="5"/>
<path d="M1109,3709 l60,0 l0,60 l-60,0 z" fill="green"/>
<path d="M1139,3739 l-335,-165" stroke="black" stroke-width="5"/>
<path d="M20,7385 l60,0 l0,60 l-60,0 z" fill="green"/>
<path d="M50,7415 l350,-416" stroke="black" stroke-width="5"/>
<path d="M904,4026 l60,0 l0,60 l-60,0 z" fill="green"/>
<path d="M934,4056 l-7.5,214" stroke="black" stroke-width="5"/>
<path d="M8771,7148 l60,0 l0,60 l-60,0 z" fill="green"/>
<path d="M8801,7178 l-104.5,-317.5" stroke="black" stroke-width="5"/>
<path d="M4469,6177 l60,0 l0,60 l-60,0 z" fill="green"/>
<path d="M4499,6207 l192,-160" stroke="black" stroke-width="5"/>
<path d="M3066,3345 l60,0 l0,60 l-60,0 z" fill="green"/>
<path d="M3096,3375 l-410,-337.5" stroke="black" stroke-width="5"/>
<path d="M5222,3251 l60,0 l0,60 l-60,0 z" fill="green"/>
<path d="M5252,3281 l-210,-200" stroke="black" stroke-width="5"/>
<path d="M2217,1416 l60,0 l0,60 l-60,0 z" fill="green"/>
<path d="M2247,1446 l-700,120.5" stroke="black" stroke-width="5"/>
<path d="M3317,8471 l60,0 l0,60 l-60,0 z" fill="green"/>
<path d="M3347,8501 l-1274.5,-169.5" stroke="black" stroke-width="5"/>
<path d="M5761,8570 l60,0 l0,60 l-60,0 z" fill="green"/>
<path d="M5791,8600 l67.5,664" stroke="black" stroke-width="5"/>
<path d="M8003,8962 l60,0 l0,60 l-60,0 z" fill="green"/>
<path d="M8033,8992 l-106,153" stroke="black" stroke-width="5"/>
<path d="M2267,9224 l60,0 l0,60 l-60,0 z" fill="green"/>
<path d="M2297,9254 l-64,-58" stroke="black" stroke-width="5"/>
<path d="M4282,6146 l60,0 l0,60 l-60,0 z" fill="green"/>
<path d="M4312,6176 l0.5,0.5" stroke="black" stroke-width="5"/>
<text font-size="200" text-anchor="middle" x="1831.5" y="468">
0
</text>
<text font-size="200" text-anchor="middle" x="6597.5" y="6483.5">
1
</text>
<text font-size="200" text-anchor="middle" x="5599" y="344.5">
2
</text>
<text font-size="200" text-anchor="middle" x="5737" y="2473.5">
3
</text>
<text font-size="200" text-anchor="middle" x="6872.5" y="3176.5">
4
</text>
<text font-size="200" text-anchor="middle" x="4218" y="1508.5">
5
</text>
<text font-size="200" text-anchor="middle" x="7869.5" y="9784">
6
</text>
<text font-size="200" text-anchor="middle" x="7880" y="517.5">
7
</text>
<text font-size="200" text-anchor="middle" x="9092" y="5487">
8
</text>
<text font-size="200" text-anchor="middle" x="7066.5" y="9445">
9
</text>
<text font-size="200" text-anchor="middle" x="7732.5" y="2270">
10
</text>
<text font-size="200" text-anchor="middle" x="802" y="5433.5">
11
</text>
<text font-size="200" text-anchor="middle" x="7171" y="2938.5">
12
</text>
<text font-size="200" text-anchor="middle" x="5413" y="2086.5">
13
</text>
<text font-size="200" text-anchor="middle" x="5404" y="1174">
14
</text>
<text font-size="200" text-anchor="middle" x="3063" y="5774.5">
15
</text>
<text font-size="200" text-anchor="middle" x="4677" y="3125.5">
16
</text>
<text font-size="200" text-anchor="middle" x="5981.5" y="7929.5">
17
</text>
<text font-size="200" text-anchor="middle" x="1746.5" y="9813">
18
</text>
<text font-size="200" text-anchor="middle" x="8604" y="3790">
19
</text>
<text font-size="200" text-anchor="middle" x="9229" y="9324.5">
20
</text>
<text font-size="200" text-anchor="middle" x="3310" y="1637.5">
21
</text>
<text font-size="200" text-anchor="middle" x="7049" y="4933">
22
</text>
<text font-size="200" text-anchor="middle" x="8508" y="7958.5">
23
</text>
<text font-size="200" text-anchor="middle" x="9082.5" y="4487">
24
</text>
<text font-size="200" text-anchor="middle" x="2929" y="9257.5">
25
</text>
<text font-size="200" text-anchor="middle" x="7960" y="4291.5">
26
</text>
<text font-size="200" text-anchor="middle" x="9034" y="364">
27
</text>
<text font-size="200" text-anchor="middle" x="6845" y="1268.5">
28
</text>
<text font-size="200" text-anchor="middle" x="1791.5" y="2564">
29
</text>
<text font-size="200" text-anchor="middle" x="299" y="8191.5">
30
</text>
<text font-size="200" text-anchor="middle" x="3079.5" y="4345">
31
</text>
<text font-size="200" text-anchor="middle" x="4226.5" y="8956">
32
</text>
<text font-size="200" text-anchor="middle" x="5993" y="3593">
33
</text>
<text font-size="200" text-anchor="middle" x="5273" y="4828.5">
34
</text>
<text font-size="200" text-anchor="middle" x="3234" y="7230.5">
35
</text>
<text font-size="200" text-anchor="middle" x="8532" y="8575">
36
</text>
<text font-size="200" text-anchor="middle" x="804" y="3644">
37
</text>
<text font-size="200" text-anchor="middle" x="400" y="7069">
38
</text>
<text font-size="200" text-anchor="middle" x="926.5" y="4340">
39
</text>
<text font-size="200" text-anchor="middle" x="8696.5" y="6930.5">
40
</text>
<text font-size="200" text-anchor="middle" x="4691" y="6117">
41
</text>
<text font-size="200" text-anchor="middle" x="2686" y="3107.5">
42
</text>
<text font-size="200" text-anchor="middle" x="5042" y="3151">
43
</text>
<text font-size="200" text-anchor="middle" x="1547" y="1636.5">
44
</text>
<text font-size="200" text-anchor="middle" x="2072.5" y="8401.5">
45
</text>
<text font-size="200" text-anchor="middle" x="5858.5" y="9334">
46
</text>
<text font-size="200" text-anchor="middle" x="7927" y="9215">
47
</text>
<text font-size="200" text-anchor="middle" x="2233" y="9266">
48
</text>
<text font-size="200" text-anchor="middle" x="4312.5" y="6246.5">
49
</text>
</svg>