<svg viewBox="-100 -100 10200 10200" xmlns="http://www.w3.org/2000/svg">
<path d="M0,0 l10000,0 l0,10000 l-10000,0 z" fill="white"/>
<path d="M3,0 l3534,0 l0,873 l-3534,0 z" fill="#7600ff" stroke="black" stroke-width="5"/>
<path d="M5034,5641 l2867,0 l0,1626 l-2867,0 z" fill="#ff00fe" stroke="black" stroke-width="5"/>
<path d="M3581,6 l3526,0 l0,570 l-3526,0 z" fill="#fe00ff" stroke="black" stroke-width="5"/>
<path d="M5391,2274 l648,0 l0,877 l-648,0 z" fill="#ee00ff" stroke="black" stroke-width="5"/>
<path d="M6039,2724 l963,0 l0,956 l-963,0 z" fill="#ff00fe" stroke="black" stroke-width="5"/>
<path d="M3539,579 l1282,0 l0,1940 l-1282,0 z" fill="#fe00ff" stroke="black" stroke-width="5"/>
<path d="M7546,9157 l603,0 l0,730 l-603,0 z" fill="#ff00fe" stroke="black" stroke-width="5"/>
<path d="M7295,120 l841,0 l0,697 l-841,0 z" fill="#ff00fe" stroke="black" stroke-width="5"/>
<path d="M8133,4623 l1661,0 l0,1087 l-1661,0 z" fill="#ff00fe" stroke="black" stroke-width="5"/>
<path d="M6701,8713 l787,0 l0,647 l-787,0 z" fill="#fe00ff" stroke="black" stroke-width="5"/>
<path d="M7028,1687 l1127,0 l0,1383 l-1127,0 z" fill="#ff00fe" stroke="black" stroke-width="5"/>
<path d="M5,4518 l1467,0 l0,1233 l-1467,0 z" fill="#ff00fe" stroke="black" stroke-width="5"/>
<path d="M7110,3988 l196,0 l0,179 l-196,0 z" fill="#ff00fe" stroke="black" stroke-width="5"/>
<path d="M5181,2060 l370,0 l0,212 l-370,0 z" fill="#ff00fe" stroke="black" stroke-width="5"/>
<path d="M4860,577 l1064,0 l0,913 l-1064,0 z" fill="#ff00fe" stroke="black" stroke-width="5"/>
<path d="M2687,4567 l1399,0 l0,1338 l-1399,0 z" fill="#fe00ff" stroke="black" stroke-width="5"/>
<path d="M4612,3186 l122,0 l0,236 l-122,0 z" fill="#fe00ff" stroke="black" stroke-width="5"/>
<path d="M4864,7269 l2146,0 l0,1132 l-2146,0 z" fill="#d400ff" stroke="black" stroke-width="5"/>
<path d="M248,9484 l3357,0 l0,511 l-3357,0 z" fill="#fe00ff" stroke="black" stroke-width="5"/>
<path d="M8877,3496 l614,0 l0,545 l-614,0 z" fill="#ff00fe" stroke="black" stroke-width="5"/>
<path d="M8327,8536 l1116,0 l0,992 l-1116,0 z" fill="#ff00fe" stroke="black" stroke-width="5"/>
<path d="M2686,1346 l826,0 l0,811 l-826,0 z" fill="#ff00fe" stroke="black" stroke-width="5"/>
<path d="M6445,4167 l925,0 l0,1471 l-925,0 z" fill="#b800ff" stroke="black" stroke-width="5"/>
<path d="M7015,7668 l2975,0 l0,529 l-2975,0 z" fill="#f900ff" stroke="black" stroke-width="5"/>
<path d="M8117,4043 l1878,0 l0,580 l-1878,0 z" fill="#2400ff" stroke="black" stroke-width="5"/>
<path d="M2313,8747 l1293,0 l0,735 l-1293,0 z" fill="#fe00ff" stroke="black" stroke-width="5"/>
<path d="M7374,3821 l740,0 l0,1278 l-740,0 z" fill="#fe00ff" stroke="black" stroke-width="5"/>
<path d="M8870,48 l1071,0 l0,532 l-1071,0 z" fill="#fe00ff" stroke="black" stroke-width="5"/>
<path d="M6441,917 l1023,0 l0,770 l-1023,0 z" fill="#fe00ff" stroke="black" stroke-width="5"/>
<path d="M1066,1871 l1127,0 l0,836 l-1127,0 z" fill="#fe00ff" stroke="black" stroke-width="5"/>
<path d="M52,7765 l739,0 l0,961 l-739,0 z" fill="#ff00fe" stroke="black" stroke-width="5"/>
<path d="M2044,3655 l2145,0 l0,912 l-2145,0 z" fill="#8300ff" stroke="black" stroke-width="5"/>
<path d="M3606,7972 l1197,0 l0,2027 l-1197,0 z" fill="#ed00ff" stroke="black" stroke-width="5"/>
<path d="M5394,3151 l645,0 l0,712 l-645,0 z" fill="#3400ff" stroke="black" stroke-width="5"/>
<path d="M4189,3863 l2256,0 l0,1750 l-2256,0 z" fill="#b100ff" stroke="black" stroke-width="5"/>
<path d="M1889,6635 l2964,0 l0,1337 l-2964,0 z" fill="#ff00fe" stroke="black" stroke-width="5"/>
<path d="M7013,8200 l2986,0 l0,319 l-2986,0 z" fill="#2800ff" stroke="black" stroke-width="5"/>
<path d="M943,3411 l545,0 l0,466 l-545,0 z" fill="#fe00ff" stroke="black" stroke-width="5"/>
<path d="M8,6892 l747,0 l0,867 l-747,0 z" fill="#fe00ff" stroke="black" stroke-width="5"/>
<path d="M3,3878 l2037,0 l0,640 l-2037,0 z" fill="#d200ff" stroke="black" stroke-width="5"/>
<path d="M8009,6597 l1139,0 l0,1070 l-1139,0 z" fill="#ff00fe" stroke="black" stroke-width="5"/>
<path d="M4337,5613 l670,0 l0,986 l-670,0 z" fill="#ff00fe" stroke="black" stroke-width="5"/>
<path d="M1537,2713 l2862,0 l0,942 l-2862,0 z" fill="#ff00fe" stroke="black" stroke-width="5"/>
<path d="M4736,2524 l655,0 l0,1333 l-655,0 z" fill="#ee00ff" stroke="black" stroke-width="5"/>
<path d="M0,873 l2682,0 l0,997 l-2682,0 z" fill="#4e00ff" stroke="black" stroke-width="5"/>
<path d="M791,7974 l2814,0 l0,771 l-2814,0 z" fill="#3000ff" stroke="black" stroke-width="5"/>
<path d="M4804,8401 l1895,0 l0,1598 l-1895,0 z" fill="#e000ff" stroke="black" stroke-width="5"/>
<path d="M7493,8519 l834,0 l0,638 l-834,0 z" fill="#0f00ff" stroke="black" stroke-width="5"/>
<path d="M2144,9228 l169,0 l0,141 l-169,0 z" fill="#fe00ff" stroke="black" stroke-width="5"/>
<path d="M4312,6176 l1,0 l0,1 l-1,0 z" fill="#0000ff" stroke="black" stroke-width="5"/>
<path d="M1879,330 l60,0 l0,60 l-60,0 z" fill="green"/>
<path d="M1909,360 l-139,76.5" stroke="black" stroke-width="5"/>
<path d="M5780,7061 l60,0 l0,60 l-60,0 z" fill="green"/>
<path d="M5810,7091 l657.5,-637" stroke="black" stroke-width="5"/>
<path d="M5377,392 l60,0 l0,60 l-60,0 z" fill="green"/>
<path d="M5407,422 l-63,-131" stroke="black" stroke-width="5"/>
<path d="M5737,3110 l60,0 l0,60 l-60,0 z" fill="green"/>
<path d="M5767,3140 l-52,-427.5" stroke="black" stroke-width="5"/>
<path d="M6629,3204 l60,0 l0,60 l-60,0 z" fill="green"/>
<path d="M6659,3234 l-138.5,-32" stroke="black" stroke-width="5"/>
<path d="M4176,1590 l60,0 l0,60 l-60,0 z" fill="green"/>
<path d="M4206,1620 l-26,-71" stroke="black" stroke-width="5"/>
<path d="M7823,9462 l60,0 l0,60 l-60,0 z" fill="green"/>
<path d="M7853,9492 l-5.5,30" stroke="black" stroke-width="5"/>
<path d="M7845,402 l60,0 l0,60 l-60,0 z" fill="green"/>
<path d="M7875,432 l-159.5,36.5" stroke="black" stroke-width="5"/>
<path d="M9018,5029 l60,0 l0,60 l-60,0 z" fill="green"/>
<path d="M9048,5059 l-84.5,107.5" stroke="black" stroke-width="5"/>
<path d="M7262,9040 l60,0 l0,60 l-60,0 z" fill="green"/>
<path d="M7292,9070 l-197.5,-33.5" stroke="black" stroke-width="5"/>
<path d="M7603,2466 l60,0 l0,60 l-60,0 z" fill="green"/>
<path d="M7633,2496 l-41.5,-117.5" stroke="black" stroke-width="5"/>
<path d="M391,4805 l60,0 l0,60 l-60,0 z" fill="green"/>
<path d="M421,4835 l317.5,299.5" stroke="black" stroke-width="5"/>
<path d="M7134,4079 l60,0 l0,60 l-60,0 z" fill="green"/>
<path d="M7164,4109 l44,-31.5" stroke="black" stroke-width="5"/>
<path d="M5326,2241 l60,0 l0,60 l-60,0 z" fill="green"/>
<path d="M5356,2271 l10,-105" stroke="black" stroke-width="5"/>
<path d="M5231,547 l60,0 l0,60 l-60,0 z" fill="green"/>
<path d="M5261,577 l131,456.5" stroke="black" stroke-width="5"/>
<path d="M3516,5195 l60,0 l0,60 l-60,0 z" fill="green"/>
<path d="M3546,5225 l-159.5,11" stroke="black" stroke-width="5"/>
<path d="M4637,3356 l60,0 l0,60 l-60,0 z" fill="green"/>
<path d="M4667,3386 l6,-82" stroke="black" stroke-width="5"/>
<path d="M5566,7866 l60,0 l0,60 l-60,0 z" fill="green"/>
<path d="M5596,7896 l341,-61" stroke="black" stroke-width="5"/>
<path d="M2488,9783 l60,0 l0,60 l-60,0 z" fill="green"/>
<path d="M2518,9813 l-591.5,-73.5" stroke="black" stroke-width="5"/>
<path d="M8972,3883 l60,0 l0,60 l-60,0 z" fill="green"/>
<path d="M9002,3913 l182,-144.5" stroke="black" stroke-width="5"/>
<path d="M8544,8917 l60,0 l0,60 l-60,0 z" fill="green"/>
<path d="M8574,8947 l311,85" stroke="black" stroke-width="5"/>
<path d="M3088,1743 l60,0 l0,60 l-60,0 z" fill="green"/>
<path d="M3118,1773 l-19,-21.5" stroke="black" stroke-width="5"/>
<path d="M7110,4358 l60,0 l0,60 l-60,0 z" fill="green"/>
<path d="M7140,4388 l-232.5,514.5" stroke="black" stroke-width="5"/>
<path d="M8514,8166 l60,0 l0,60 l-60,0 z" fill="green"/>
<path d="M8544,8196 l-41.5,-263.5" stroke="black" stroke-width="5"/>
<path d="M8547,4307 l60,0 l0,60 l-60,0 z" fill="green"/>
<path d="M8577,4337 l479,-4" stroke="black" stroke-width="5"/>
<path d="M3125,9138 l60,0 l0,60 l-60,0 z" fill="green"/>
<path d="M3155,9168 l-195.5,-53.5" stroke="black" stroke-width="5"/>
<path d="M7793,4374 l60,0 l0,60 l-60,0 z" fill="green"/>
<path d="M7823,4404 l-79,56" stroke="black" stroke-width="5"/>
<path d="M9421,80 l60,0 l0,60 l-60,0 z" fill="green"/>
<path d="M9451,110 l-45.5,204" stroke="black" stroke-width="5"/>
<path d="M7001,1359 l60,0 l0,60 l-60,0 z" fill="green"/>
<path d="M7031,1389 l-78.5,-87" stroke="black" stroke-width="5"/>
<path d="M1811,2307 l60,0 l0,60 l-60,0 z" fill="green"/>
<path d="M1841,2337 l-211.5,-48" stroke="black" stroke-width="5"/>
<path d="M46,8334 l60,0 l0,60 l-60,0 z" fill="green"/>
<path d="M76,8364 l345.5,-118.5" stroke="black" stroke-width="5"/>
<path d="M3513,3901 l60,0 l0,60 l-60,0 z" fill="green"/>
<path d="M3543,3931 l-426.5,180" stroke="black" stroke-width="5"/>
<path d="M3897,8798 l60,0 l0,60 l-60,0 z" fill="green"/>
<path d="M3927,8828 l277.5,157.5" stroke="black" stroke-width="5"/>
<path d="M5641,3275 l60,0 l0,60 l-60,0 z" fill="green"/>
<path d="M5671,3305 l45.5,202" stroke="black" stroke-width="5"/>
<path d="M5512,4557 l60,0 l0,60 l-60,0 z" fill="green"/>
<path d="M5542,4587 l-225,151" stroke="black" stroke-width="5"/>
<path d="M4000,7702 l60,0 l0,60 l-60,0 z" fill="green"/>
<path d="M4030,7732 l-659,-428.5" stroke="black" stroke-width="5"/>
<path d="M8545,8170 l60,0 l0,60 l-60,0 z" fill="green"/>
<path d="M8575,8200 l-69,159.5" stroke="black" stroke-width="5"/>
<path d="M1109,3709 l60,0 l0,60 l-60,0 z" fill="green"/>
<path d="M1139,3739 l76.5,-95" stroke="black" stroke-width="5"/>
<path d="M20,7385 l60,0 l0,60 l-60,0 z" fill="green"/>
<path d="M50,7415 l331.5,-89.5" stroke="black" stroke-width="5"/>
<path d="M904,4026 l60,0 l0,60 l-60,0 z" fill="green"/>
<path d="M934,4056 l87.5,142" stroke="black" stroke-width="5"/>
<path d="M8771,7148 l60,0 l0,60 l-60,0 z" fill="green"/>
<path d="M8801,7178 l-222.5,-46" stroke="black" stroke-width="5"/>
<path d="M4469,6177 l60,0 l0,60 l-60,0 z" fill="green"/>
<path d="M4499,6207 l173,-101" stroke="black" stroke-width="5"/>
<path d="M3066,3345 l60,0 l0,60 l-60,0 z" fill="green"/>
<path d="M3096,3375 l-128,-191" stroke="black" stroke-width="5"/>
<path d="M5222,3251 l60,0 l0,60 l-60,0 z" fill="green"/>
<path d="M5252,3281 l-188.5,-90.5" stroke="black" stroke-width="5"/>
<path d="M2217,1416 l60,0 l0,60 l-60,0 z" fill="green"/>
<path d="M2247,1446 l-906,-74.5" stroke="black" stroke-width="5"/>
<path d="M3317,8471 l60,0 l0,60 l-60,0 z" fill="green"/>
<path d="M3347,8501 l-1149,-141.5" stroke="black" stroke-width="5"/>
<path d="M5761,8570 l60,0 l0,60 l-60,0 z" fill="green"/>
<path d="M5791,8600 l-39.5,600" stroke="black" stroke-width="5"/>
<path d="M8003,8962 l60,0 l0,60 l-60,0 z" fill="green"/>
<path d="M8033,8992 l-123,-154" stroke="black" stroke-width="5"/>
<path d="M2267,9224 l60,0 l0,60 l-60,0 z" fill="green"/>
<path d="M2297,9254 l-68.5,44.5" stroke="black" stroke-width="5"/>
<path d="M4282,6146 l60,0 l0,60 l-60,0 z" fill="green"/>
<path d="M4312,6176 l0.5,0.5" stroke="black" stroke-width="5"/>
<text font-size="200" text-anchor="middle" x="1770" y="506.5">
0
</text>
<text font-size="200" text-anchor="middle" x="6467.5" y="6524">
1
</text>
<text font-size="200" text-anchor="middle" x="5344" y="361">
2
</text>
<text font-size="200" text-anchor="middle" x="5715" y="2782.5">
3
</text>
<text font-size="200" text-anchor="middle" x="6520.5" y="3272">
4
</text>
<text font-size="200" text-anchor="middle" x="4180" y="1619">
5
</text>
<text font-size="200" text-anchor="middle" x="7847.5" y="9592">
6
</text>
<text font-size="200" text-anchor="middle" x="7715.5" y="538.5">
7
</text>
<text font-size="200" text-anchor="middle" x="8963.5" y="5236.5">
8
</text>
<text font-size="200" text-anchor="middle" x="7094.5" y="9106.5">
9
</text>
<text font-size="200" text-anchor="middle" x="7591.5" y="2448.5">
10
</text>
<text font-size="200" text-anchor="middle" x="738.5" y="5204.5">
11
</text>
<text font-size="200" text-anchor="middle" x="7208" y="4147.5">
12
</text>
<text font-size="200" text-anchor="middle" x="5366" y="2236">
13
</text>
<text font-size="200" text-anchor="middle" x="5392" y="1103.5">
14
</text>
<text font-size="200" text-anchor="middle" x="3386.5" y="5306">
15
</text>
<text font-size="200" text-anchor="middle" x="4673" y="3374">
16
</text>
<text font-size="200" text-anchor="middle" x="5937" y="7905">
17
</text>
<text font-size="200" text-anchor="middle" x="1926.5" y="9809.5">
18
</text>
<text font-size="200" text-anchor="middle" x="9184" y="3838.5">
19
</text>
<text font-size="200" text-anchor="middle" x="8885" y="9102">
20
</text>
<text font-size="200" text-anchor="middle" x="3099" y="1821.5">
21
</text>
<text font-size="200" text-anchor="middle" x="6907.5" y="4972.5">
22
</text>
<text font-size="200" text-anchor="middle" x="8502.5" y="8002.5">
23
</text>
<text font-size="200" text-anchor="middle" x="9056" y="4403">
24
</text>
<text font-size="200" text-anchor="middle" x="2959.5" y="9184.5">
25
</text>
<text font-size="200" text-anchor="middle" x="7744" y="4530">
26
</text>
<text font-size="200" text-anchor="middle" x="9405.5" y="384">
27
</text>
<text font-size="200" text-anchor="middle" x="6952.5" y="1372">
28
</text>
<text font-size="200" text-anchor="middle" x="1629.5" y="2359">
29
</text>
<text font-size="200" text-anchor="middle" x="421.5" y="8315.5">
30
</text>
<text font-size="200" text-anchor="middle" x="3116.5" y="4181">
31
</text>
<text font-size="200" text-anchor="middle" x="4204.5" y="9055.5">
32
</text>
<text font-size="200" text-anchor="middle" x="5716.5" y="3577">
33
</text>
<text font-size="200" text-anchor="middle" x="5317" y="4808">
34
</text>
<text font-size="200" text-anchor="middle" x="3371" y="7373.5">
35
</text>
<text font-size="200" text-anchor="middle" x="8506" y="8429.5">
36
</text>
<text font-size="200" text-anchor="middle" x="1215.5" y="3714">
37
</text>
<text font-size="200" text-anchor="middle" x="381.5" y="7395.5">
38
</text>
<text font-size="200" text-anchor="middle" x="1021.5" y="4268">
39
</text>
<text font-size="200" text-anchor="middle" x="8578.5" y="7202">
40
</text>
<text font-size="200" text-anchor="middle" x="4672" y="6176">
41
</text>
<text font-size="200" text-anchor="middle" x="2968" y="3254">
42
</text>
<text font-size="200" text-anchor="middle" x="5063.5" y="3260.5">
43
</text>
<text font-size="200" text-anchor="middle" x="1341" y="1441.5">
44
</text>
<text font-size="200" text-anchor="middle" x="2198" y="8429.5">
45
</text>
<text font-size="200" text-anchor="middle" x="5751.5" y="9270">
46
</text>
<text font-size="200" text-anchor="middle" x="7910" y="8908">
47
</text>
<text font-size="200" text-anchor="middle" x="2228.5" y="9368.5">
48
</text>
<text font-size="200" text-anchor="middle" x="4312.5" y="6246.5">
49
</text>
</svg>